<?xml version="1.0" encoding="UTF-8" standalone="no"?>
<!DOCTYPE svg PUBLIC "-//W3C//DTD SVG 1.1//EN"
 "http://www.w3.org/Graphics/SVG/1.1/DTD/svg11.dtd">
<!-- Generated by graphviz version 2.38.0 (20140413.2041)
 -->
<!-- Title: DionysosNodeSerializer Pages: 1 -->
<svg width="128pt" height="331pt"
 viewBox="0.00 0.00 128.00 331.00" xmlns="http://www.w3.org/2000/svg" xmlns:xlink="http://www.w3.org/1999/xlink">
<g id="graph0" class="graph" transform="scale(1 1) rotate(0) translate(4 327)">
<title>DionysosNodeSerializer</title>
<polygon fill="white" stroke="none" points="-4,4 -4,-327 124,-327 124,4 -4,4"/>
<!-- Node1 -->
<g id="node1" class="node"><title>Node1</title>
<polygon fill="#bfbfbf" stroke="black" points="0,-0.5 0,-79.5 120,-79.5 120,-0.5 0,-0.5"/>
<text text-anchor="middle" x="60" y="-67.5" font-family="Helvetica,sans-Serif" font-size="10.00">DionysosNodeSerializer</text>
<polyline fill="none" stroke="black" points="0,-60.5 120,-60.5 "/>
<text text-anchor="start" x="8" y="-48.5" font-family="Helvetica,sans-Serif" font-size="10.00">+ NODE_KEYS</text>
<polyline fill="none" stroke="black" points="0,-41.5 120,-41.5 "/>
<text text-anchor="start" x="8" y="-29.5" font-family="Helvetica,sans-Serif" font-size="10.00">+ isSerializedNode()</text>
<text text-anchor="start" x="8" y="-18.5" font-family="Helvetica,sans-Serif" font-size="10.00">+ deserializeNode()</text>
<text text-anchor="start" x="8" y="-7.5" font-family="Helvetica,sans-Serif" font-size="10.00">+ serializeNode()</text>
</g>
<!-- Node2 -->
<g id="node2" class="node"><title>Node2</title>
<g id="a_node2"><a xlink:href="classwcmf_1_1lib_1_1model_1_1impl_1_1_abstract_node_serializer.html" target="_top" xlink:title="NodeSerializerBase is a base class for NodeSerialize implementations. ">
<polygon fill="white" stroke="black" points="2,-116.5 2,-206.5 118,-206.5 118,-116.5 2,-116.5"/>
<text text-anchor="middle" x="60" y="-194.5" font-family="Helvetica,sans-Serif" font-size="10.00">AbstractNodeSerializer</text>
<polyline fill="none" stroke="black" points="2,-187.5 118,-187.5 "/>
<text text-anchor="middle" x="60" y="-175.5" font-family="Helvetica,sans-Serif" font-size="10.00"> </text>
<polyline fill="none" stroke="black" points="2,-168.5 118,-168.5 "/>
<text text-anchor="start" x="10" y="-156.5" font-family="Helvetica,sans-Serif" font-size="10.00">+ __construct()</text>
<text text-anchor="start" x="10" y="-145.5" font-family="Helvetica,sans-Serif" font-size="10.00"># getNodeTemplate()</text>
<text text-anchor="start" x="10" y="-134.5" font-family="Helvetica,sans-Serif" font-size="10.00"># deserializeValue()</text>
<text text-anchor="start" x="10" y="-123.5" font-family="Helvetica,sans-Serif" font-size="10.00"># isMultiValued()</text>
</a>
</g>
</g>
<!-- Node2&#45;&gt;Node1 -->
<g id="edge1" class="edge"><title>Node2&#45;&gt;Node1</title>
<path fill="none" stroke="midnightblue" d="M60,-106.079C60,-97.234 60,-88.2325 60,-79.8576"/>
<polygon fill="none" stroke="midnightblue" points="56.5001,-106.342 60,-116.342 63.5001,-106.342 56.5001,-106.342"/>
</g>
<!-- Node3 -->
<g id="node3" class="node"><title>Node3</title>
<g id="a_node3"><a xlink:href="interfacewcmf_1_1lib_1_1model_1_1_node_serializer.html" target="_top" xlink:title="NodeSerializer implementations are used to serialize Nodes into an array representation or deserializ...">
<polygon fill="white" stroke="black" points="8,-243.5 8,-322.5 112,-322.5 112,-243.5 8,-243.5"/>
<text text-anchor="middle" x="60" y="-310.5" font-family="Helvetica,sans-Serif" font-size="10.00">NodeSerializer</text>
<polyline fill="none" stroke="black" points="8,-303.5 112,-303.5 "/>
<text text-anchor="middle" x="60" y="-291.5" font-family="Helvetica,sans-Serif" font-size="10.00"> </text>
<polyline fill="none" stroke="black" points="8,-284.5 112,-284.5 "/>
<text text-anchor="start" x="16" y="-272.5" font-family="Helvetica,sans-Serif" font-size="10.00">+ isSerializedNode()</text>
<text text-anchor="start" x="16" y="-261.5" font-family="Helvetica,sans-Serif" font-size="10.00">+ deserializeNode()</text>
<text text-anchor="start" x="16" y="-250.5" font-family="Helvetica,sans-Serif" font-size="10.00">+ serializeNode()</text>
</a>
</g>
</g>
<!-- Node3&#45;&gt;Node2 -->
<g id="edge2" class="edge"><title>Node3&#45;&gt;Node2</title>
<path fill="none" stroke="midnightblue" d="M60,-233.187C60,-224.491 60,-215.476 60,-206.911"/>
<polygon fill="none" stroke="midnightblue" points="56.5001,-233.202 60,-243.202 63.5001,-233.202 56.5001,-233.202"/>
</g>
</g>
</svg>
