<?xml version="1.0" encoding="UTF-8" standalone="no"?>
<!DOCTYPE svg PUBLIC "-//W3C//DTD SVG 1.1//EN"
 "http://www.w3.org/Graphics/SVG/1.1/DTD/svg11.dtd">
<!-- Generated by graphviz version 2.38.0 (20140413.2041)
 -->
<!-- Title: Utf8Analyzer Pages: 1 -->
<svg width="92pt" height="160pt"
 viewBox="0.00 0.00 92.00 160.00" xmlns="http://www.w3.org/2000/svg" xmlns:xlink="http://www.w3.org/1999/xlink">
<g id="graph0" class="graph" transform="scale(1 1) rotate(0) translate(4 156)">
<title>Utf8Analyzer</title>
<polygon fill="white" stroke="none" points="-4,4 -4,-156 88,-156 88,4 -4,4"/>
<!-- Node1 -->
<g id="node1" class="node"><title>Node1</title>
<polygon fill="#bfbfbf" stroke="black" points="6,-0.5 6,-57.5 78,-57.5 78,-0.5 6,-0.5"/>
<text text-anchor="middle" x="42" y="-45.5" font-family="Helvetica,sans-Serif" font-size="10.00">Utf8Analyzer</text>
<polyline fill="none" stroke="black" points="6,-38.5 78,-38.5 "/>
<text text-anchor="middle" x="42" y="-26.5" font-family="Helvetica,sans-Serif" font-size="10.00"> </text>
<polyline fill="none" stroke="black" points="6,-19.5 78,-19.5 "/>
<text text-anchor="start" x="14" y="-7.5" font-family="Helvetica,sans-Serif" font-size="10.00">+ setInput()</text>
</g>
<!-- Node2 -->
<g id="node2" class="node"><title>Node2</title>
<polygon fill="white" stroke="#bfbfbf" points="0,-94.5 0,-151.5 84,-151.5 84,-94.5 0,-94.5"/>
<text text-anchor="middle" x="42" y="-139.5" font-family="Helvetica,sans-Serif" font-size="10.00">CaseInsensitive</text>
<polyline fill="none" stroke="#bfbfbf" points="0,-132.5 84,-132.5 "/>
<text text-anchor="middle" x="42" y="-120.5" font-family="Helvetica,sans-Serif" font-size="10.00"> </text>
<polyline fill="none" stroke="#bfbfbf" points="0,-113.5 84,-113.5 "/>
<text text-anchor="middle" x="42" y="-101.5" font-family="Helvetica,sans-Serif" font-size="10.00"> </text>
</g>
<!-- Node2&#45;&gt;Node1 -->
<g id="edge1" class="edge"><title>Node2&#45;&gt;Node1</title>
<path fill="none" stroke="midnightblue" d="M42,-84.2092C42,-75.2929 42,-65.9513 42,-57.5836"/>
<polygon fill="none" stroke="midnightblue" points="38.5001,-84.3969 42,-94.397 45.5001,-84.397 38.5001,-84.3969"/>
</g>
</g>
</svg>
