<?xml version="1.0" encoding="UTF-8" standalone="no"?>
<!DOCTYPE svg PUBLIC "-//W3C//DTD SVG 1.1//EN"
 "http://www.w3.org/Graphics/SVG/1.1/DTD/svg11.dtd">
<!-- Generated by graphviz version 2.38.0 (20140413.2041)
 -->
<!-- Title: SoapFormat Pages: 1 -->
<svg width="122pt" height="623pt"
 viewBox="0.00 0.00 122.00 623.00" xmlns="http://www.w3.org/2000/svg" xmlns:xlink="http://www.w3.org/1999/xlink">
<g id="graph0" class="graph" transform="scale(1 1) rotate(0) translate(4 619)">
<title>SoapFormat</title>
<polygon fill="white" stroke="none" points="-4,4 -4,-619 118,-619 118,4 -4,4"/>
<!-- Node1 -->
<g id="node1" class="node"><title>Node1</title>
<polygon fill="#bfbfbf" stroke="black" points="5,-0.5 5,-134.5 109,-134.5 109,-0.5 5,-0.5"/>
<text text-anchor="middle" x="57" y="-122.5" font-family="Helvetica,sans-Serif" font-size="10.00">SoapFormat</text>
<polyline fill="none" stroke="black" points="5,-115.5 109,-115.5 "/>
<text text-anchor="start" x="13" y="-103.5" font-family="Helvetica,sans-Serif" font-size="10.00"># $serializer</text>
<polyline fill="none" stroke="black" points="5,-96.5 109,-96.5 "/>
<text text-anchor="start" x="13" y="-84.5" font-family="Helvetica,sans-Serif" font-size="10.00">+ __construct()</text>
<text text-anchor="start" x="13" y="-73.5" font-family="Helvetica,sans-Serif" font-size="10.00">+ getMimeType()</text>
<text text-anchor="start" x="13" y="-62.5" font-family="Helvetica,sans-Serif" font-size="10.00">+ isCached()</text>
<text text-anchor="start" x="13" y="-51.5" font-family="Helvetica,sans-Serif" font-size="10.00">+ getCacheDate()</text>
<text text-anchor="start" x="13" y="-40.5" font-family="Helvetica,sans-Serif" font-size="10.00">+ setSerializer()</text>
<text text-anchor="start" x="13" y="-29.5" font-family="Helvetica,sans-Serif" font-size="10.00"># isSerializedNode()</text>
<text text-anchor="start" x="13" y="-18.5" font-family="Helvetica,sans-Serif" font-size="10.00"># serializeNode()</text>
<text text-anchor="start" x="13" y="-7.5" font-family="Helvetica,sans-Serif" font-size="10.00"># deserializeNode()</text>
</g>
<!-- Node2 -->
<g id="node2" class="node"><title>Node2</title>
<g id="a_node2"><a xlink:href="classwcmf_1_1lib_1_1presentation_1_1format_1_1impl_1_1_hierarchical_format.html" target="_top" xlink:title="HierarchicalFormat maybe used as base class for formats that are able to represent hierarchical data ...">
<polygon fill="white" stroke="black" points="0,-171.5 0,-283.5 114,-283.5 114,-171.5 0,-171.5"/>
<text text-anchor="middle" x="57" y="-271.5" font-family="Helvetica,sans-Serif" font-size="10.00">HierarchicalFormat</text>
<polyline fill="none" stroke="black" points="0,-264.5 114,-264.5 "/>
<text text-anchor="middle" x="57" y="-252.5" font-family="Helvetica,sans-Serif" font-size="10.00"> </text>
<polyline fill="none" stroke="black" points="0,-245.5 114,-245.5 "/>
<text text-anchor="start" x="8" y="-233.5" font-family="Helvetica,sans-Serif" font-size="10.00"># deserializeValues()</text>
<text text-anchor="start" x="8" y="-222.5" font-family="Helvetica,sans-Serif" font-size="10.00"># serializeValues()</text>
<text text-anchor="start" x="8" y="-211.5" font-family="Helvetica,sans-Serif" font-size="10.00"># isSerializedNode()</text>
<text text-anchor="start" x="8" y="-200.5" font-family="Helvetica,sans-Serif" font-size="10.00"># isDeserializedNode()</text>
<text text-anchor="start" x="8" y="-189.5" font-family="Helvetica,sans-Serif" font-size="10.00"># serializeNode()</text>
<text text-anchor="start" x="8" y="-178.5" font-family="Helvetica,sans-Serif" font-size="10.00"># deserializeNode()</text>
</a>
</g>
</g>
<!-- Node2&#45;&gt;Node1 -->
<g id="edge1" class="edge"><title>Node2&#45;&gt;Node1</title>
<path fill="none" stroke="midnightblue" d="M57,-161.094C57,-152.339 57,-143.354 57,-134.587"/>
<polygon fill="none" stroke="midnightblue" points="53.5001,-161.239 57,-171.239 60.5001,-161.239 53.5001,-161.239"/>
</g>
<!-- Node3 -->
<g id="node3" class="node"><title>Node3</title>
<g id="a_node3"><a xlink:href="classwcmf_1_1lib_1_1presentation_1_1format_1_1impl_1_1_abstract_format.html" target="_top" xlink:title="AbstractFormat maybe used as base class for specialized formats. ">
<polygon fill="white" stroke="black" points="3.5,-320.5 3.5,-476.5 110.5,-476.5 110.5,-320.5 3.5,-320.5"/>
<text text-anchor="middle" x="57" y="-464.5" font-family="Helvetica,sans-Serif" font-size="10.00">AbstractFormat</text>
<polyline fill="none" stroke="black" points="3.5,-457.5 110.5,-457.5 "/>
<text text-anchor="middle" x="57" y="-445.5" font-family="Helvetica,sans-Serif" font-size="10.00"> </text>
<polyline fill="none" stroke="black" points="3.5,-438.5 110.5,-438.5 "/>
<text text-anchor="start" x="11.5" y="-426.5" font-family="Helvetica,sans-Serif" font-size="10.00">+ deserialize()</text>
<text text-anchor="start" x="11.5" y="-415.5" font-family="Helvetica,sans-Serif" font-size="10.00">+ serialize()</text>
<text text-anchor="start" x="11.5" y="-404.5" font-family="Helvetica,sans-Serif" font-size="10.00"># beforeDeserialize()</text>
<text text-anchor="start" x="11.5" y="-393.5" font-family="Helvetica,sans-Serif" font-size="10.00"># deserializeValues()</text>
<text text-anchor="start" x="11.5" y="-382.5" font-family="Helvetica,sans-Serif" font-size="10.00"># afterDeserialize()</text>
<text text-anchor="start" x="11.5" y="-371.5" font-family="Helvetica,sans-Serif" font-size="10.00"># beforeSerialize()</text>
<text text-anchor="start" x="11.5" y="-360.5" font-family="Helvetica,sans-Serif" font-size="10.00"># serializeValues()</text>
<text text-anchor="start" x="11.5" y="-349.5" font-family="Helvetica,sans-Serif" font-size="10.00"># afterSerialize()</text>
<text text-anchor="start" x="11.5" y="-338.5" font-family="Helvetica,sans-Serif" font-size="10.00"># getNode()</text>
<text text-anchor="start" x="11.5" y="-327.5" font-family="Helvetica,sans-Serif" font-size="10.00"># filterValue()</text>
</a>
</g>
</g>
<!-- Node3&#45;&gt;Node2 -->
<g id="edge2" class="edge"><title>Node3&#45;&gt;Node2</title>
<path fill="none" stroke="midnightblue" d="M57,-310.252C57,-301.243 57,-292.277 57,-283.762"/>
<polygon fill="none" stroke="midnightblue" points="53.5001,-310.418 57,-320.418 60.5001,-310.418 53.5001,-310.418"/>
</g>
<!-- Node4 -->
<g id="node4" class="node"><title>Node4</title>
<g id="a_node4"><a xlink:href="interfacewcmf_1_1lib_1_1presentation_1_1format_1_1_format.html" target="_top" xlink:title="Format defines the interface for all format classes. ">
<polygon fill="white" stroke="black" points="10.5,-513.5 10.5,-614.5 103.5,-614.5 103.5,-513.5 10.5,-513.5"/>
<text text-anchor="middle" x="57" y="-602.5" font-family="Helvetica,sans-Serif" font-size="10.00">Format</text>
<polyline fill="none" stroke="black" points="10.5,-595.5 103.5,-595.5 "/>
<text text-anchor="middle" x="57" y="-583.5" font-family="Helvetica,sans-Serif" font-size="10.00"> </text>
<polyline fill="none" stroke="black" points="10.5,-576.5 103.5,-576.5 "/>
<text text-anchor="start" x="18.5" y="-564.5" font-family="Helvetica,sans-Serif" font-size="10.00">+ getMimeType()</text>
<text text-anchor="start" x="18.5" y="-553.5" font-family="Helvetica,sans-Serif" font-size="10.00">+ deserialize()</text>
<text text-anchor="start" x="18.5" y="-542.5" font-family="Helvetica,sans-Serif" font-size="10.00">+ serialize()</text>
<text text-anchor="start" x="18.5" y="-531.5" font-family="Helvetica,sans-Serif" font-size="10.00">+ isCached()</text>
<text text-anchor="start" x="18.5" y="-520.5" font-family="Helvetica,sans-Serif" font-size="10.00">+ getCacheDate()</text>
</a>
</g>
</g>
<!-- Node4&#45;&gt;Node3 -->
<g id="edge3" class="edge"><title>Node4&#45;&gt;Node3</title>
<path fill="none" stroke="midnightblue" d="M57,-502.815C57,-494.259 57,-485.363 57,-476.541"/>
<polygon fill="none" stroke="midnightblue" points="53.5001,-503.056 57,-513.056 60.5001,-503.056 53.5001,-503.056"/>
</g>
</g>
</svg>
