<?xml version="1.0" encoding="UTF-8" standalone="no"?>
<!DOCTYPE svg PUBLIC "-//W3C//DTD SVG 1.1//EN"
 "http://www.w3.org/Graphics/SVG/1.1/DTD/svg11.dtd">
<!-- Generated by graphviz version 2.38.0 (20140413.2041)
 -->
<!-- Title: DefaultResponse Pages: 1 -->
<svg width="258pt" height="639pt"
 viewBox="0.00 0.00 257.50 639.00" xmlns="http://www.w3.org/2000/svg" xmlns:xlink="http://www.w3.org/1999/xlink">
<g id="graph0" class="graph" transform="scale(1 1) rotate(0) translate(4 635)">
<title>DefaultResponse</title>
<polygon fill="white" stroke="none" points="-4,4 -4,-635 253.5,-635 253.5,4 -4,4"/>
<!-- Node1 -->
<g id="node1" class="node"><title>Node1</title>
<polygon fill="#bfbfbf" stroke="black" points="85.5,-0.5 85.5,-200.5 182.5,-200.5 182.5,-0.5 85.5,-0.5"/>
<text text-anchor="middle" x="134" y="-188.5" font-family="Helvetica,sans-Serif" font-size="10.00">DefaultResponse</text>
<polyline fill="none" stroke="black" points="85.5,-181.5 182.5,-181.5 "/>
<text text-anchor="middle" x="134" y="-169.5" font-family="Helvetica,sans-Serif" font-size="10.00"> </text>
<polyline fill="none" stroke="black" points="85.5,-162.5 182.5,-162.5 "/>
<text text-anchor="start" x="93.5" y="-150.5" font-family="Helvetica,sans-Serif" font-size="10.00">+ __construct()</text>
<text text-anchor="start" x="93.5" y="-139.5" font-family="Helvetica,sans-Serif" font-size="10.00">+ setRequest()</text>
<text text-anchor="start" x="93.5" y="-128.5" font-family="Helvetica,sans-Serif" font-size="10.00">+ getRequest()</text>
<text text-anchor="start" x="93.5" y="-117.5" font-family="Helvetica,sans-Serif" font-size="10.00">+ isCached()</text>
<text text-anchor="start" x="93.5" y="-106.5" font-family="Helvetica,sans-Serif" font-size="10.00">+ setCacheId()</text>
<text text-anchor="start" x="93.5" y="-95.5" font-family="Helvetica,sans-Serif" font-size="10.00">+ getCacheId()</text>
<text text-anchor="start" x="93.5" y="-84.5" font-family="Helvetica,sans-Serif" font-size="10.00">+ setLastMofified()</text>
<text text-anchor="start" x="93.5" y="-73.5" font-family="Helvetica,sans-Serif" font-size="10.00">+ getLastMofified()</text>
<text text-anchor="start" x="93.5" y="-62.5" font-family="Helvetica,sans-Serif" font-size="10.00">+ setStatus()</text>
<text text-anchor="start" x="93.5" y="-51.5" font-family="Helvetica,sans-Serif" font-size="10.00">+ getStatus()</text>
<text text-anchor="start" x="93.5" y="-40.5" font-family="Helvetica,sans-Serif" font-size="10.00">+ setFile()</text>
<text text-anchor="start" x="93.5" y="-29.5" font-family="Helvetica,sans-Serif" font-size="10.00">+ getFile()</text>
<text text-anchor="start" x="93.5" y="-18.5" font-family="Helvetica,sans-Serif" font-size="10.00">+ setFinal()</text>
<text text-anchor="start" x="93.5" y="-7.5" font-family="Helvetica,sans-Serif" font-size="10.00">+ isFinal()</text>
</g>
<!-- Node2 -->
<g id="node2" class="node"><title>Node2</title>
<g id="a_node2"><a xlink:href="classwcmf_1_1lib_1_1presentation_1_1impl_1_1_abstract_controller_message.html" target="_top" xlink:title="AbstractControllerMessage is the base class for request/response implementations. ...">
<polygon fill="white" stroke="black" points="0,-243 0,-421 134,-421 134,-243 0,-243"/>
<text text-anchor="middle" x="67" y="-409" font-family="Helvetica,sans-Serif" font-size="10.00">AbstractControllerMessage</text>
<polyline fill="none" stroke="black" points="0,-402 134,-402 "/>
<text text-anchor="middle" x="67" y="-390" font-family="Helvetica,sans-Serif" font-size="10.00"> </text>
<polyline fill="none" stroke="black" points="0,-383 134,-383 "/>
<text text-anchor="start" x="8" y="-371" font-family="Helvetica,sans-Serif" font-size="10.00">+ __construct()</text>
<text text-anchor="start" x="8" y="-360" font-family="Helvetica,sans-Serif" font-size="10.00">+ setSender()</text>
<text text-anchor="start" x="8" y="-349" font-family="Helvetica,sans-Serif" font-size="10.00">+ getSender()</text>
<text text-anchor="start" x="8" y="-338" font-family="Helvetica,sans-Serif" font-size="10.00">+ setContext()</text>
<text text-anchor="start" x="8" y="-327" font-family="Helvetica,sans-Serif" font-size="10.00">+ getContext()</text>
<text text-anchor="start" x="8" y="-316" font-family="Helvetica,sans-Serif" font-size="10.00">+ setAction()</text>
<text text-anchor="start" x="8" y="-305" font-family="Helvetica,sans-Serif" font-size="10.00">+ getAction()</text>
<text text-anchor="start" x="8" y="-294" font-family="Helvetica,sans-Serif" font-size="10.00">+ setFormat()</text>
<text text-anchor="start" x="8" y="-283" font-family="Helvetica,sans-Serif" font-size="10.00">+ getFormat()</text>
<text text-anchor="start" x="8" y="-272" font-family="Helvetica,sans-Serif" font-size="10.00">+ setHeader()</text>
<text text-anchor="start" x="8" y="-261" font-family="Helvetica,sans-Serif" font-size="10.00">and 22 more...</text>
<text text-anchor="start" x="8" y="-250" font-family="Helvetica,sans-Serif" font-size="10.00"># getFormatter()</text>
</a>
</g>
</g>
<!-- Node2&#45;&gt;Node1 -->
<g id="edge1" class="edge"><title>Node2&#45;&gt;Node1</title>
<path fill="none" stroke="midnightblue" d="M95.5635,-233.159C98.6896,-222.451 101.874,-211.542 105.006,-200.817"/>
<polygon fill="none" stroke="midnightblue" points="92.1551,-232.345 92.7123,-242.926 98.8746,-234.307 92.1551,-232.345"/>
</g>
<!-- Node3 -->
<g id="node3" class="node"><title>Node3</title>
<g id="a_node3"><a xlink:href="interfacewcmf_1_1lib_1_1presentation_1_1_controller_message.html" target="_top" xlink:title="Messages are sent between Controllers and are used to transfer data between them. ...">
<polygon fill="white" stroke="black" points="85,-463.5 85,-630.5 183,-630.5 183,-463.5 85,-463.5"/>
<text text-anchor="middle" x="134" y="-618.5" font-family="Helvetica,sans-Serif" font-size="10.00">ControllerMessage</text>
<polyline fill="none" stroke="black" points="85,-611.5 183,-611.5 "/>
<text text-anchor="middle" x="134" y="-599.5" font-family="Helvetica,sans-Serif" font-size="10.00"> </text>
<polyline fill="none" stroke="black" points="85,-592.5 183,-592.5 "/>
<text text-anchor="start" x="93" y="-580.5" font-family="Helvetica,sans-Serif" font-size="10.00">+ setSender()</text>
<text text-anchor="start" x="93" y="-569.5" font-family="Helvetica,sans-Serif" font-size="10.00">+ getSender()</text>
<text text-anchor="start" x="93" y="-558.5" font-family="Helvetica,sans-Serif" font-size="10.00">+ setContext()</text>
<text text-anchor="start" x="93" y="-547.5" font-family="Helvetica,sans-Serif" font-size="10.00">+ getContext()</text>
<text text-anchor="start" x="93" y="-536.5" font-family="Helvetica,sans-Serif" font-size="10.00">+ setAction()</text>
<text text-anchor="start" x="93" y="-525.5" font-family="Helvetica,sans-Serif" font-size="10.00">+ getAction()</text>
<text text-anchor="start" x="93" y="-514.5" font-family="Helvetica,sans-Serif" font-size="10.00">+ setFormat()</text>
<text text-anchor="start" x="93" y="-503.5" font-family="Helvetica,sans-Serif" font-size="10.00">+ getFormat()</text>
<text text-anchor="start" x="93" y="-492.5" font-family="Helvetica,sans-Serif" font-size="10.00">+ setHeader()</text>
<text text-anchor="start" x="93" y="-481.5" font-family="Helvetica,sans-Serif" font-size="10.00">+ setHeaders()</text>
<text text-anchor="start" x="93" y="-470.5" font-family="Helvetica,sans-Serif" font-size="10.00">and 20 more...</text>
</a>
</g>
</g>
<!-- Node3&#45;&gt;Node2 -->
<g id="edge2" class="edge"><title>Node3&#45;&gt;Node2</title>
<path fill="none" stroke="midnightblue" d="M104.923,-453.561C101.55,-442.836 98.115,-431.918 94.7597,-421.251"/>
<polygon fill="none" stroke="midnightblue" points="101.661,-454.855 108,-463.344 108.338,-452.754 101.661,-454.855"/>
</g>
<!-- Node4 -->
<g id="node4" class="node"><title>Node4</title>
<g id="a_node4"><a xlink:href="interfacewcmf_1_1lib_1_1presentation_1_1_response.html" target="_top" xlink:title="Response holds the response values that are used as output from Controller instances. ">
<polygon fill="white" stroke="black" points="152.5,-237.5 152.5,-426.5 249.5,-426.5 249.5,-237.5 152.5,-237.5"/>
<text text-anchor="middle" x="201" y="-414.5" font-family="Helvetica,sans-Serif" font-size="10.00">Response</text>
<polyline fill="none" stroke="black" points="152.5,-407.5 249.5,-407.5 "/>
<text text-anchor="middle" x="201" y="-395.5" font-family="Helvetica,sans-Serif" font-size="10.00"> </text>
<polyline fill="none" stroke="black" points="152.5,-388.5 249.5,-388.5 "/>
<text text-anchor="start" x="160.5" y="-376.5" font-family="Helvetica,sans-Serif" font-size="10.00">+ setRequest()</text>
<text text-anchor="start" x="160.5" y="-365.5" font-family="Helvetica,sans-Serif" font-size="10.00">+ getRequest()</text>
<text text-anchor="start" x="160.5" y="-354.5" font-family="Helvetica,sans-Serif" font-size="10.00">+ isCached()</text>
<text text-anchor="start" x="160.5" y="-343.5" font-family="Helvetica,sans-Serif" font-size="10.00">+ setCacheId()</text>
<text text-anchor="start" x="160.5" y="-332.5" font-family="Helvetica,sans-Serif" font-size="10.00">+ getCacheId()</text>
<text text-anchor="start" x="160.5" y="-321.5" font-family="Helvetica,sans-Serif" font-size="10.00">+ setLastMofified()</text>
<text text-anchor="start" x="160.5" y="-310.5" font-family="Helvetica,sans-Serif" font-size="10.00">+ getLastMofified()</text>
<text text-anchor="start" x="160.5" y="-299.5" font-family="Helvetica,sans-Serif" font-size="10.00">+ setStatus()</text>
<text text-anchor="start" x="160.5" y="-288.5" font-family="Helvetica,sans-Serif" font-size="10.00">+ getStatus()</text>
<text text-anchor="start" x="160.5" y="-277.5" font-family="Helvetica,sans-Serif" font-size="10.00">+ setFile()</text>
<text text-anchor="start" x="160.5" y="-266.5" font-family="Helvetica,sans-Serif" font-size="10.00">+ getFile()</text>
<text text-anchor="start" x="160.5" y="-255.5" font-family="Helvetica,sans-Serif" font-size="10.00">+ setFinal()</text>
<text text-anchor="start" x="160.5" y="-244.5" font-family="Helvetica,sans-Serif" font-size="10.00">+ isFinal()</text>
</a>
</g>
</g>
<!-- Node3&#45;&gt;Node4 -->
<g id="edge4" class="edge"><title>Node3&#45;&gt;Node4</title>
<path fill="none" stroke="midnightblue" d="M163.044,-453.667C165.868,-444.689 168.735,-435.573 171.563,-426.583"/>
<polygon fill="none" stroke="midnightblue" points="159.662,-452.754 160,-463.344 166.339,-454.855 159.662,-452.754"/>
</g>
<!-- Node4&#45;&gt;Node1 -->
<g id="edge3" class="edge"><title>Node4&#45;&gt;Node1</title>
<path fill="none" stroke="midnightblue" d="M170.838,-227.685C168.233,-218.76 165.6,-209.741 163.004,-200.849"/>
<polygon fill="none" stroke="midnightblue" points="167.49,-228.704 173.652,-237.323 174.209,-226.742 167.49,-228.704"/>
</g>
</g>
</svg>
