<?xml version="1.0" encoding="UTF-8" standalone="no"?>
<!DOCTYPE svg PUBLIC "-//W3C//DTD SVG 1.1//EN"
 "http://www.w3.org/Graphics/SVG/1.1/DTD/svg11.dtd">
<!-- Generated by graphviz version 2.38.0 (20140413.2041)
 -->
<!-- Title: TransactionEvent Pages: 1 -->
<svg width="122pt" height="248pt"
 viewBox="0.00 0.00 122.00 248.00" xmlns="http://www.w3.org/2000/svg" xmlns:xlink="http://www.w3.org/1999/xlink">
<g id="graph0" class="graph" transform="scale(1 1) rotate(0) translate(4 244)">
<title>TransactionEvent</title>
<polygon fill="white" stroke="none" points="-4,4 -4,-244 118,-244 118,4 -4,4"/>
<!-- Node1 -->
<g id="node1" class="node"><title>Node1</title>
<polygon fill="#bfbfbf" stroke="black" points="0,-0.5 0,-134.5 114,-134.5 114,-0.5 0,-0.5"/>
<text text-anchor="middle" x="57" y="-122.5" font-family="Helvetica,sans-Serif" font-size="10.00">TransactionEvent</text>
<polyline fill="none" stroke="black" points="0,-115.5 114,-115.5 "/>
<text text-anchor="start" x="8" y="-103.5" font-family="Helvetica,sans-Serif" font-size="10.00">+ NAME</text>
<text text-anchor="start" x="8" y="-92.5" font-family="Helvetica,sans-Serif" font-size="10.00">+ BEFORE_COMMIT</text>
<text text-anchor="start" x="8" y="-81.5" font-family="Helvetica,sans-Serif" font-size="10.00">+ AFTER_COMMIT</text>
<text text-anchor="start" x="8" y="-70.5" font-family="Helvetica,sans-Serif" font-size="10.00">+ AFTER_ROLLBACK</text>
<polyline fill="none" stroke="black" points="0,-63.5 114,-63.5 "/>
<text text-anchor="start" x="8" y="-51.5" font-family="Helvetica,sans-Serif" font-size="10.00">+ __construct()</text>
<text text-anchor="start" x="8" y="-40.5" font-family="Helvetica,sans-Serif" font-size="10.00">+ getPhase()</text>
<text text-anchor="start" x="8" y="-29.5" font-family="Helvetica,sans-Serif" font-size="10.00">+ getInsertedOids()</text>
<text text-anchor="start" x="8" y="-18.5" font-family="Helvetica,sans-Serif" font-size="10.00">+ getUpdatedOids()</text>
<text text-anchor="start" x="8" y="-7.5" font-family="Helvetica,sans-Serif" font-size="10.00">+ getDeletedOids()</text>
</g>
<!-- Node2 -->
<g id="node2" class="node"><title>Node2</title>
<g id="a_node2"><a xlink:href="classwcmf_1_1lib_1_1core_1_1_event.html" target="_top" xlink:title="Event is the base class for all events. ">
<polygon fill="white" stroke="black" points="6,-171.5 6,-239.5 108,-239.5 108,-171.5 6,-171.5"/>
<text text-anchor="middle" x="57" y="-227.5" font-family="Helvetica,sans-Serif" font-size="10.00">Event</text>
<polyline fill="none" stroke="black" points="6,-220.5 108,-220.5 "/>
<text text-anchor="middle" x="57" y="-208.5" font-family="Helvetica,sans-Serif" font-size="10.00"> </text>
<polyline fill="none" stroke="black" points="6,-201.5 108,-201.5 "/>
<text text-anchor="start" x="14" y="-189.5" font-family="Helvetica,sans-Serif" font-size="10.00">+ stopPropagation()</text>
<text text-anchor="start" x="14" y="-178.5" font-family="Helvetica,sans-Serif" font-size="10.00">+ isStopped()</text>
</a>
</g>
</g>
<!-- Node2&#45;&gt;Node1 -->
<g id="edge1" class="edge"><title>Node2&#45;&gt;Node1</title>
<path fill="none" stroke="midnightblue" d="M57,-160.956C57,-152.567 57,-143.604 57,-134.683"/>
<polygon fill="none" stroke="midnightblue" points="53.5001,-161.231 57,-171.231 60.5001,-161.231 53.5001,-161.231"/>
</g>
</g>
</svg>
