<?xml version="1.0" encoding="UTF-8" standalone="no"?>
<!DOCTYPE svg PUBLIC "-//W3C//DTD SVG 1.1//EN"
 "http://www.w3.org/Graphics/SVG/1.1/DTD/svg11.dtd">
<!-- Generated by graphviz version 2.38.0 (20140413.2041)
 -->
<!-- Title: HtmlFormat Pages: 1 -->
<svg width="191pt" height="485pt"
 viewBox="0.00 0.00 191.00 485.00" xmlns="http://www.w3.org/2000/svg" xmlns:xlink="http://www.w3.org/1999/xlink">
<g id="graph0" class="graph" transform="scale(1 1) rotate(0) translate(4 481)">
<title>HtmlFormat</title>
<polygon fill="white" stroke="none" points="-4,4 -4,-481 187,-481 187,4 -4,4"/>
<!-- Node1 -->
<g id="node1" class="node"><title>Node1</title>
<polygon fill="#bfbfbf" stroke="black" points="0,-0.5 0,-123.5 183,-123.5 183,-0.5 0,-0.5"/>
<text text-anchor="middle" x="91.5" y="-111.5" font-family="Helvetica,sans-Serif" font-size="10.00">HtmlFormat</text>
<polyline fill="none" stroke="black" points="0,-104.5 183,-104.5 "/>
<text text-anchor="middle" x="91.5" y="-92.5" font-family="Helvetica,sans-Serif" font-size="10.00"> </text>
<polyline fill="none" stroke="black" points="0,-85.5 183,-85.5 "/>
<text text-anchor="start" x="8" y="-73.5" font-family="Helvetica,sans-Serif" font-size="10.00">+ getMimeType()</text>
<text text-anchor="start" x="8" y="-62.5" font-family="Helvetica,sans-Serif" font-size="10.00">+ isCached()</text>
<text text-anchor="start" x="8" y="-51.5" font-family="Helvetica,sans-Serif" font-size="10.00">+ getCacheDate()</text>
<text text-anchor="start" x="8" y="-40.5" font-family="Helvetica,sans-Serif" font-size="10.00"># deserializeValues()</text>
<text text-anchor="start" x="8" y="-29.5" font-family="Helvetica,sans-Serif" font-size="10.00"># serializeValues()</text>
<text text-anchor="start" x="8" y="-18.5" font-family="Helvetica,sans-Serif" font-size="10.00"># getTemplateFile()</text>
<text text-anchor="start" x="8" y="-7.5" font-family="Helvetica,sans-Serif" font-size="10.00"># getValueDefFromInputControlName()</text>
</g>
<!-- Node2 -->
<g id="node2" class="node"><title>Node2</title>
<g id="a_node2"><a xlink:href="classwcmf_1_1lib_1_1presentation_1_1format_1_1impl_1_1_abstract_format.html" target="_top" xlink:title="AbstractFormat is used as base class for specialized formats. ">
<polygon fill="white" stroke="black" points="38,-160.5 38,-338.5 145,-338.5 145,-160.5 38,-160.5"/>
<text text-anchor="middle" x="91.5" y="-326.5" font-family="Helvetica,sans-Serif" font-size="10.00">AbstractFormat</text>
<polyline fill="none" stroke="black" points="38,-319.5 145,-319.5 "/>
<text text-anchor="middle" x="91.5" y="-307.5" font-family="Helvetica,sans-Serif" font-size="10.00"> </text>
<polyline fill="none" stroke="black" points="38,-300.5 145,-300.5 "/>
<text text-anchor="start" x="46" y="-288.5" font-family="Helvetica,sans-Serif" font-size="10.00">+ deserialize()</text>
<text text-anchor="start" x="46" y="-277.5" font-family="Helvetica,sans-Serif" font-size="10.00">+ serialize()</text>
<text text-anchor="start" x="46" y="-266.5" font-family="Helvetica,sans-Serif" font-size="10.00"># beforeDeserialize()</text>
<text text-anchor="start" x="46" y="-255.5" font-family="Helvetica,sans-Serif" font-size="10.00"># deserializeValues()</text>
<text text-anchor="start" x="46" y="-244.5" font-family="Helvetica,sans-Serif" font-size="10.00"># afterDeserialize()</text>
<text text-anchor="start" x="46" y="-233.5" font-family="Helvetica,sans-Serif" font-size="10.00"># beforeSerialize()</text>
<text text-anchor="start" x="46" y="-222.5" font-family="Helvetica,sans-Serif" font-size="10.00"># sendHeaders()</text>
<text text-anchor="start" x="46" y="-211.5" font-family="Helvetica,sans-Serif" font-size="10.00"># serializeValues()</text>
<text text-anchor="start" x="46" y="-200.5" font-family="Helvetica,sans-Serif" font-size="10.00"># afterSerialize()</text>
<text text-anchor="start" x="46" y="-189.5" font-family="Helvetica,sans-Serif" font-size="10.00"># getNode()</text>
<text text-anchor="start" x="46" y="-178.5" font-family="Helvetica,sans-Serif" font-size="10.00"># sendHeader()</text>
<text text-anchor="start" x="46" y="-167.5" font-family="Helvetica,sans-Serif" font-size="10.00"># filterValue()</text>
</a>
</g>
</g>
<!-- Node2&#45;&gt;Node1 -->
<g id="edge1" class="edge"><title>Node2&#45;&gt;Node1</title>
<path fill="none" stroke="midnightblue" d="M91.5,-150.162C91.5,-141.134 91.5,-132.176 91.5,-123.633"/>
<polygon fill="none" stroke="midnightblue" points="88.0001,-150.368 91.5,-160.368 95.0001,-150.368 88.0001,-150.368"/>
</g>
<!-- Node3 -->
<g id="node3" class="node"><title>Node3</title>
<g id="a_node3"><a xlink:href="interfacewcmf_1_1lib_1_1presentation_1_1format_1_1_format.html" target="_top" xlink:title="Format defines the interface for all format classes. ">
<polygon fill="white" stroke="black" points="45,-375.5 45,-476.5 138,-476.5 138,-375.5 45,-375.5"/>
<text text-anchor="middle" x="91.5" y="-464.5" font-family="Helvetica,sans-Serif" font-size="10.00">Format</text>
<polyline fill="none" stroke="black" points="45,-457.5 138,-457.5 "/>
<text text-anchor="middle" x="91.5" y="-445.5" font-family="Helvetica,sans-Serif" font-size="10.00"> </text>
<polyline fill="none" stroke="black" points="45,-438.5 138,-438.5 "/>
<text text-anchor="start" x="53" y="-426.5" font-family="Helvetica,sans-Serif" font-size="10.00">+ getMimeType()</text>
<text text-anchor="start" x="53" y="-415.5" font-family="Helvetica,sans-Serif" font-size="10.00">+ deserialize()</text>
<text text-anchor="start" x="53" y="-404.5" font-family="Helvetica,sans-Serif" font-size="10.00">+ serialize()</text>
<text text-anchor="start" x="53" y="-393.5" font-family="Helvetica,sans-Serif" font-size="10.00">+ isCached()</text>
<text text-anchor="start" x="53" y="-382.5" font-family="Helvetica,sans-Serif" font-size="10.00">+ getCacheDate()</text>
</a>
</g>
</g>
<!-- Node3&#45;&gt;Node2 -->
<g id="edge2" class="edge"><title>Node3&#45;&gt;Node2</title>
<path fill="none" stroke="midnightblue" d="M91.5,-365.256C91.5,-356.708 91.5,-347.767 91.5,-338.812"/>
<polygon fill="none" stroke="midnightblue" points="88.0001,-365.462 91.5,-375.462 95.0001,-365.462 88.0001,-365.462"/>
</g>
</g>
</svg>
