<?xml version="1.0" encoding="UTF-8" standalone="no"?>
<!DOCTYPE svg PUBLIC "-//W3C//DTD SVG 1.1//EN"
 "http://www.w3.org/Graphics/SVG/1.1/DTD/svg11.dtd">
<!-- Generated by graphviz version 2.38.0 (20140413.2041)
 -->
<!-- Title: DefaultOutputStrategy Pages: 1 -->
<svg width="121pt" height="204pt"
 viewBox="0.00 0.00 121.00 204.00" xmlns="http://www.w3.org/2000/svg" xmlns:xlink="http://www.w3.org/1999/xlink">
<g id="graph0" class="graph" transform="scale(1 1) rotate(0) translate(4 200)">
<title>DefaultOutputStrategy</title>
<polygon fill="white" stroke="none" points="-4,4 -4,-200 117,-200 117,4 -4,4"/>
<!-- Node1 -->
<g id="node1" class="node"><title>Node1</title>
<polygon fill="#bfbfbf" stroke="black" points="0,-0.5 0,-79.5 113,-79.5 113,-0.5 0,-0.5"/>
<text text-anchor="middle" x="56.5" y="-67.5" font-family="Helvetica,sans-Serif" font-size="10.00">DefaultOutputStrategy</text>
<polyline fill="none" stroke="black" points="0,-60.5 113,-60.5 "/>
<text text-anchor="middle" x="56.5" y="-48.5" font-family="Helvetica,sans-Serif" font-size="10.00"> </text>
<polyline fill="none" stroke="black" points="0,-41.5 113,-41.5 "/>
<text text-anchor="start" x="8" y="-29.5" font-family="Helvetica,sans-Serif" font-size="10.00">+ writeHeader()</text>
<text text-anchor="start" x="8" y="-18.5" font-family="Helvetica,sans-Serif" font-size="10.00">+ writeFooter()</text>
<text text-anchor="start" x="8" y="-7.5" font-family="Helvetica,sans-Serif" font-size="10.00">+ writeObject()</text>
</g>
<!-- Node2 -->
<g id="node2" class="node"><title>Node2</title>
<g id="a_node2"><a xlink:href="interfacewcmf_1_1lib_1_1persistence_1_1output_1_1_output_strategy.html" target="_top" xlink:title="OutputStrategy defines the interface for classes that write an object&#39;s content to a destination (cal...">
<polygon fill="white" stroke="black" points="15,-116.5 15,-195.5 98,-195.5 98,-116.5 15,-116.5"/>
<text text-anchor="middle" x="56.5" y="-183.5" font-family="Helvetica,sans-Serif" font-size="10.00">OutputStrategy</text>
<polyline fill="none" stroke="black" points="15,-176.5 98,-176.5 "/>
<text text-anchor="middle" x="56.5" y="-164.5" font-family="Helvetica,sans-Serif" font-size="10.00"> </text>
<polyline fill="none" stroke="black" points="15,-157.5 98,-157.5 "/>
<text text-anchor="start" x="23" y="-145.5" font-family="Helvetica,sans-Serif" font-size="10.00">+ writeHeader()</text>
<text text-anchor="start" x="23" y="-134.5" font-family="Helvetica,sans-Serif" font-size="10.00">+ writeFooter()</text>
<text text-anchor="start" x="23" y="-123.5" font-family="Helvetica,sans-Serif" font-size="10.00">+ writeObject()</text>
</a>
</g>
</g>
<!-- Node2&#45;&gt;Node1 -->
<g id="edge1" class="edge"><title>Node2&#45;&gt;Node1</title>
<path fill="none" stroke="midnightblue" d="M56.5,-106.146C56.5,-97.256 56.5,-88.0961 56.5,-79.5555"/>
<polygon fill="none" stroke="midnightblue" points="53.0001,-106.405 56.5,-116.405 60.0001,-106.405 53.0001,-106.405"/>
</g>
</g>
</svg>
