<?xml version="1.0" encoding="UTF-8" standalone="no"?>
<!DOCTYPE svg PUBLIC "-//W3C//DTD SVG 1.1//EN"
 "http://www.w3.org/Graphics/SVG/1.1/DTD/svg11.dtd">
<!-- Generated by graphviz version 2.38.0 (20140413.2041)
 -->
<!-- Title: Controller Pages: 1 -->
<svg width="2616pt" height="705pt"
 viewBox="0.00 0.00 2615.50 705.00" xmlns="http://www.w3.org/2000/svg" xmlns:xlink="http://www.w3.org/1999/xlink">
<g id="graph0" class="graph" transform="scale(1 1) rotate(0) translate(4 701)">
<title>Controller</title>
<polygon fill="white" stroke="none" points="-4,4 -4,-701 2611.5,-701 2611.5,4 -4,4"/>
<!-- Node1 -->
<g id="node1" class="node"><title>Node1</title>
<polygon fill="#bfbfbf" stroke="black" points="1196.5,-452.5 1196.5,-696.5 1340.5,-696.5 1340.5,-452.5 1196.5,-452.5"/>
<text text-anchor="middle" x="1268.5" y="-684.5" font-family="Helvetica,sans-Serif" font-size="10.00">Controller</text>
<polyline fill="none" stroke="black" points="1196.5,-677.5 1340.5,-677.5 "/>
<text text-anchor="middle" x="1268.5" y="-665.5" font-family="Helvetica,sans-Serif" font-size="10.00"> </text>
<polyline fill="none" stroke="black" points="1196.5,-658.5 1340.5,-658.5 "/>
<text text-anchor="start" x="1204.5" y="-646.5" font-family="Helvetica,sans-Serif" font-size="10.00">+ __construct()</text>
<text text-anchor="start" x="1204.5" y="-635.5" font-family="Helvetica,sans-Serif" font-size="10.00">+ initialize()</text>
<text text-anchor="start" x="1204.5" y="-624.5" font-family="Helvetica,sans-Serif" font-size="10.00">+ execute()</text>
<text text-anchor="start" x="1204.5" y="-613.5" font-family="Helvetica,sans-Serif" font-size="10.00">+ getRequest()</text>
<text text-anchor="start" x="1204.5" y="-602.5" font-family="Helvetica,sans-Serif" font-size="10.00">+ getResponse()</text>
<text text-anchor="start" x="1204.5" y="-591.5" font-family="Helvetica,sans-Serif" font-size="10.00"># validate()</text>
<text text-anchor="start" x="1204.5" y="-580.5" font-family="Helvetica,sans-Serif" font-size="10.00"># doExecute()</text>
<text text-anchor="start" x="1204.5" y="-569.5" font-family="Helvetica,sans-Serif" font-size="10.00"># executeSubAction()</text>
<text text-anchor="start" x="1204.5" y="-558.5" font-family="Helvetica,sans-Serif" font-size="10.00"># getLogger()</text>
<text text-anchor="start" x="1204.5" y="-547.5" font-family="Helvetica,sans-Serif" font-size="10.00"># getSession()</text>
<text text-anchor="start" x="1204.5" y="-536.5" font-family="Helvetica,sans-Serif" font-size="10.00"># getPersistenceFacade()</text>
<text text-anchor="start" x="1204.5" y="-525.5" font-family="Helvetica,sans-Serif" font-size="10.00"># getPermissionManager()</text>
<text text-anchor="start" x="1204.5" y="-514.5" font-family="Helvetica,sans-Serif" font-size="10.00"># getLocalization()</text>
<text text-anchor="start" x="1204.5" y="-503.5" font-family="Helvetica,sans-Serif" font-size="10.00"># getMessage()</text>
<text text-anchor="start" x="1204.5" y="-492.5" font-family="Helvetica,sans-Serif" font-size="10.00"># getConfiguration()</text>
<text text-anchor="start" x="1204.5" y="-481.5" font-family="Helvetica,sans-Serif" font-size="10.00"># assignResponseDefaults()</text>
<text text-anchor="start" x="1204.5" y="-470.5" font-family="Helvetica,sans-Serif" font-size="10.00"># isLocalizedRequest()</text>
<text text-anchor="start" x="1204.5" y="-459.5" font-family="Helvetica,sans-Serif" font-size="10.00"># checkLanguageParameter()</text>
</g>
<!-- Node2 -->
<g id="node2" class="node"><title>Node2</title>
<g id="a_node2"><a xlink:href="classwcmf_1_1application_1_1controller_1_1_associate_controller.html" target="_top" xlink:title="AssociateController is used to (dis&#45;)associates Node instances, e.g. ">
<polygon fill="white" stroke="black" points="50,-287 50,-355 151,-355 151,-287 50,-287"/>
<text text-anchor="middle" x="100.5" y="-343" font-family="Helvetica,sans-Serif" font-size="10.00">AssociateController</text>
<polyline fill="none" stroke="black" points="50,-336 151,-336 "/>
<text text-anchor="middle" x="100.5" y="-324" font-family="Helvetica,sans-Serif" font-size="10.00"> </text>
<polyline fill="none" stroke="black" points="50,-317 151,-317 "/>
<text text-anchor="start" x="58" y="-305" font-family="Helvetica,sans-Serif" font-size="10.00"># validate()</text>
<text text-anchor="start" x="58" y="-294" font-family="Helvetica,sans-Serif" font-size="10.00"># doExecute()</text>
</a>
</g>
</g>
<!-- Node1&#45;&gt;Node2 -->
<g id="edge1" class="edge"><title>Node1&#45;&gt;Node2</title>
<path fill="none" stroke="midnightblue" d="M1186.24,-570.667C959.257,-561.489 329.693,-526.457 159.5,-416 137.519,-401.734 122.242,-376.097 112.749,-355.196"/>
<polygon fill="none" stroke="midnightblue" points="1186.29,-574.171 1196.42,-571.072 1186.56,-567.177 1186.29,-574.171"/>
</g>
<!-- Node3 -->
<g id="node3" class="node"><title>Node3</title>
<g id="a_node3"><a xlink:href="classwcmf_1_1application_1_1controller_1_1_batch_controller.html" target="_top" xlink:title="BatchController is used to process complex, longer running actions, that need to be divided into seve...">
<polygon fill="white" stroke="black" points="169,-226.5 169,-415.5 348,-415.5 348,-226.5 169,-226.5"/>
<text text-anchor="middle" x="258.5" y="-403.5" font-family="Helvetica,sans-Serif" font-size="10.00">BatchController</text>
<polyline fill="none" stroke="black" points="169,-396.5 348,-396.5 "/>
<text text-anchor="start" x="177" y="-384.5" font-family="Helvetica,sans-Serif" font-size="10.00">+ ONE_CALL_SESSION_VARNAME</text>
<text text-anchor="start" x="177" y="-373.5" font-family="Helvetica,sans-Serif" font-size="10.00">+ STEP_SESSION_VARNAME</text>
<text text-anchor="start" x="177" y="-362.5" font-family="Helvetica,sans-Serif" font-size="10.00">+ NUM_STEPS_VARNAME</text>
<text text-anchor="start" x="177" y="-351.5" font-family="Helvetica,sans-Serif" font-size="10.00">+ DOWNLOAD_STEP</text>
<text text-anchor="start" x="177" y="-340.5" font-family="Helvetica,sans-Serif" font-size="10.00">+ WORK_PACKAGES_VARNAME</text>
<polyline fill="none" stroke="black" points="169,-333.5 348,-333.5 "/>
<text text-anchor="start" x="177" y="-321.5" font-family="Helvetica,sans-Serif" font-size="10.00">+ initialize()</text>
<text text-anchor="start" x="177" y="-310.5" font-family="Helvetica,sans-Serif" font-size="10.00"># doExecute()</text>
<text text-anchor="start" x="177" y="-299.5" font-family="Helvetica,sans-Serif" font-size="10.00"># getStepNumber()</text>
<text text-anchor="start" x="177" y="-288.5" font-family="Helvetica,sans-Serif" font-size="10.00"># addWorkPackage()</text>
<text text-anchor="start" x="177" y="-277.5" font-family="Helvetica,sans-Serif" font-size="10.00"># processPart()</text>
<text text-anchor="start" x="177" y="-266.5" font-family="Helvetica,sans-Serif" font-size="10.00"># getNumberOfSteps()</text>
<text text-anchor="start" x="177" y="-255.5" font-family="Helvetica,sans-Serif" font-size="10.00"># getDisplayText()</text>
<text text-anchor="start" x="177" y="-244.5" font-family="Helvetica,sans-Serif" font-size="10.00"># getDownloadFile()</text>
<text text-anchor="start" x="177" y="-233.5" font-family="Helvetica,sans-Serif" font-size="10.00"># getWorkPackage()</text>
</a>
</g>
</g>
<!-- Node1&#45;&gt;Node3 -->
<g id="edge2" class="edge"><title>Node1&#45;&gt;Node3</title>
<path fill="none" stroke="midnightblue" d="M1186.11,-565.497C990.205,-545.481 502.061,-489.536 356.5,-416 353.659,-414.565 350.846,-413.02 348.064,-411.38"/>
<polygon fill="none" stroke="midnightblue" points="1186.04,-569.008 1196.34,-566.537 1186.75,-562.043 1186.04,-569.008"/>
</g>
<!-- Node8 -->
<g id="node8" class="node"><title>Node8</title>
<g id="a_node8"><a xlink:href="classwcmf_1_1application_1_1controller_1_1_concurrency_controller.html" target="_top" xlink:title="ConcurrencyController is used to lock/unlock objects. ">
<polygon fill="white" stroke="black" points="366,-281.5 366,-360.5 479,-360.5 479,-281.5 366,-281.5"/>
<text text-anchor="middle" x="422.5" y="-348.5" font-family="Helvetica,sans-Serif" font-size="10.00">ConcurrencyController</text>
<polyline fill="none" stroke="black" points="366,-341.5 479,-341.5 "/>
<text text-anchor="middle" x="422.5" y="-329.5" font-family="Helvetica,sans-Serif" font-size="10.00"> </text>
<polyline fill="none" stroke="black" points="366,-322.5 479,-322.5 "/>
<text text-anchor="start" x="374" y="-310.5" font-family="Helvetica,sans-Serif" font-size="10.00">+ __construct()</text>
<text text-anchor="start" x="374" y="-299.5" font-family="Helvetica,sans-Serif" font-size="10.00"># validate()</text>
<text text-anchor="start" x="374" y="-288.5" font-family="Helvetica,sans-Serif" font-size="10.00"># doExecute()</text>
</a>
</g>
</g>
<!-- Node1&#45;&gt;Node8 -->
<g id="edge7" class="edge"><title>Node1&#45;&gt;Node8</title>
<path fill="none" stroke="midnightblue" d="M1186.2,-564.667C1010.11,-544.538 603.424,-491.121 488.5,-416 467.97,-402.58 451.932,-380.356 440.809,-360.886"/>
<polygon fill="none" stroke="midnightblue" points="1185.87,-568.151 1196.2,-565.802 1186.65,-561.196 1185.87,-568.151"/>
</g>
<!-- Node9 -->
<g id="node9" class="node"><title>Node9</title>
<g id="a_node9"><a xlink:href="classwcmf_1_1application_1_1controller_1_1_delete_controller.html" target="_top" xlink:title="DeleteController is used to delete Node instances. ">
<polygon fill="white" stroke="black" points="497.5,-276 497.5,-366 587.5,-366 587.5,-276 497.5,-276"/>
<text text-anchor="middle" x="542.5" y="-354" font-family="Helvetica,sans-Serif" font-size="10.00">DeleteController</text>
<polyline fill="none" stroke="black" points="497.5,-347 587.5,-347 "/>
<text text-anchor="middle" x="542.5" y="-335" font-family="Helvetica,sans-Serif" font-size="10.00"> </text>
<polyline fill="none" stroke="black" points="497.5,-328 587.5,-328 "/>
<text text-anchor="start" x="505.5" y="-316" font-family="Helvetica,sans-Serif" font-size="10.00"># validate()</text>
<text text-anchor="start" x="505.5" y="-305" font-family="Helvetica,sans-Serif" font-size="10.00"># doExecute()</text>
<text text-anchor="start" x="505.5" y="-294" font-family="Helvetica,sans-Serif" font-size="10.00"># confirmDelete()</text>
<text text-anchor="start" x="505.5" y="-283" font-family="Helvetica,sans-Serif" font-size="10.00"># afterDelete()</text>
</a>
</g>
</g>
<!-- Node1&#45;&gt;Node9 -->
<g id="edge8" class="edge"><title>Node1&#45;&gt;Node9</title>
<path fill="none" stroke="midnightblue" d="M1186.33,-562.553C1028.4,-540.195 689.858,-485.479 596.5,-416 579.741,-403.528 567.363,-384.199 558.718,-366.304"/>
<polygon fill="none" stroke="midnightblue" points="1186.07,-566.051 1196.46,-563.978 1187.05,-559.12 1186.07,-566.051"/>
</g>
<!-- Node10 -->
<g id="node10" class="node"><title>Node10</title>
<g id="a_node10"><a xlink:href="classwcmf_1_1application_1_1controller_1_1_display_controller.html" target="_top" xlink:title="DisplayController is used to read a Node instance. ">
<polygon fill="white" stroke="black" points="605.5,-287 605.5,-355 695.5,-355 695.5,-287 605.5,-287"/>
<text text-anchor="middle" x="650.5" y="-343" font-family="Helvetica,sans-Serif" font-size="10.00">DisplayController</text>
<polyline fill="none" stroke="black" points="605.5,-336 695.5,-336 "/>
<text text-anchor="middle" x="650.5" y="-324" font-family="Helvetica,sans-Serif" font-size="10.00"> </text>
<polyline fill="none" stroke="black" points="605.5,-317 695.5,-317 "/>
<text text-anchor="start" x="613.5" y="-305" font-family="Helvetica,sans-Serif" font-size="10.00"># validate()</text>
<text text-anchor="start" x="613.5" y="-294" font-family="Helvetica,sans-Serif" font-size="10.00"># doExecute()</text>
</a>
</g>
</g>
<!-- Node1&#45;&gt;Node10 -->
<g id="edge9" class="edge"><title>Node1&#45;&gt;Node10</title>
<path fill="none" stroke="midnightblue" d="M1186.14,-569.721C1067.93,-560.381 848.582,-528.017 704.5,-416 684.59,-400.521 670.728,-375.492 662.037,-355.151"/>
<polygon fill="none" stroke="midnightblue" points="1185.98,-573.218 1196.21,-570.48 1186.5,-566.238 1185.98,-573.218"/>
</g>
<!-- Node11 -->
<g id="node11" class="node"><title>Node11</title>
<g id="a_node11"><a xlink:href="classwcmf_1_1application_1_1controller_1_1_failure_controller.html" target="_top" xlink:title="FailureController is used to signal a failure to the user. ">
<polygon fill="white" stroke="black" points="714,-292.5 714,-349.5 801,-349.5 801,-292.5 714,-292.5"/>
<text text-anchor="middle" x="757.5" y="-337.5" font-family="Helvetica,sans-Serif" font-size="10.00">FailureController</text>
<polyline fill="none" stroke="black" points="714,-330.5 801,-330.5 "/>
<text text-anchor="middle" x="757.5" y="-318.5" font-family="Helvetica,sans-Serif" font-size="10.00"> </text>
<polyline fill="none" stroke="black" points="714,-311.5 801,-311.5 "/>
<text text-anchor="start" x="722" y="-299.5" font-family="Helvetica,sans-Serif" font-size="10.00"># doExecute()</text>
</a>
</g>
</g>
<!-- Node1&#45;&gt;Node11 -->
<g id="edge10" class="edge"><title>Node1&#45;&gt;Node11</title>
<path fill="none" stroke="midnightblue" d="M1186.47,-563.266C1087.52,-547.202 920.765,-507.807 810.5,-416 789.624,-398.618 775.393,-370.77 766.977,-349.888"/>
<polygon fill="none" stroke="midnightblue" points="1186,-566.735 1196.42,-564.84 1187.09,-559.82 1186,-566.735"/>
</g>
<!-- Node12 -->
<g id="node12" class="node"><title>Node12</title>
<g id="a_node12"><a xlink:href="classwcmf_1_1application_1_1controller_1_1_list_controller.html" target="_top" xlink:title="ListController is used to load Node lists. ">
<polygon fill="white" stroke="black" points="819.5,-276 819.5,-366 905.5,-366 905.5,-276 819.5,-276"/>
<text text-anchor="middle" x="862.5" y="-354" font-family="Helvetica,sans-Serif" font-size="10.00">ListController</text>
<polyline fill="none" stroke="black" points="819.5,-347 905.5,-347 "/>
<text text-anchor="middle" x="862.5" y="-335" font-family="Helvetica,sans-Serif" font-size="10.00"> </text>
<polyline fill="none" stroke="black" points="819.5,-328 905.5,-328 "/>
<text text-anchor="start" x="827.5" y="-316" font-family="Helvetica,sans-Serif" font-size="10.00"># validate()</text>
<text text-anchor="start" x="827.5" y="-305" font-family="Helvetica,sans-Serif" font-size="10.00"># doExecute()</text>
<text text-anchor="start" x="827.5" y="-294" font-family="Helvetica,sans-Serif" font-size="10.00"># getObjects()</text>
<text text-anchor="start" x="827.5" y="-283" font-family="Helvetica,sans-Serif" font-size="10.00"># modifyModel()</text>
</a>
</g>
</g>
<!-- Node1&#45;&gt;Node12 -->
<g id="edge11" class="edge"><title>Node1&#45;&gt;Node12</title>
<path fill="none" stroke="midnightblue" d="M1186.66,-553.4C1108.96,-530.852 992.715,-487.714 914.5,-416 899.654,-402.388 888.079,-383.531 879.658,-366.277"/>
<polygon fill="none" stroke="midnightblue" points="1185.84,-556.805 1196.41,-556.181 1187.76,-550.073 1185.84,-556.805"/>
</g>
<!-- Node14 -->
<g id="node14" class="node"><title>Node14</title>
<g id="a_node14"><a xlink:href="classwcmf_1_1application_1_1controller_1_1_logging_controller.html" target="_top" xlink:title="LoggingController is used to log a message in the backend log. ">
<polygon fill="white" stroke="black" points="923.5,-292.5 923.5,-349.5 1015.5,-349.5 1015.5,-292.5 923.5,-292.5"/>
<text text-anchor="middle" x="969.5" y="-337.5" font-family="Helvetica,sans-Serif" font-size="10.00">LoggingController</text>
<polyline fill="none" stroke="black" points="923.5,-330.5 1015.5,-330.5 "/>
<text text-anchor="middle" x="969.5" y="-318.5" font-family="Helvetica,sans-Serif" font-size="10.00"> </text>
<polyline fill="none" stroke="black" points="923.5,-311.5 1015.5,-311.5 "/>
<text text-anchor="start" x="931.5" y="-299.5" font-family="Helvetica,sans-Serif" font-size="10.00"># doExecute()</text>
</a>
</g>
</g>
<!-- Node1&#45;&gt;Node14 -->
<g id="edge13" class="edge"><title>Node1&#45;&gt;Node14</title>
<path fill="none" stroke="midnightblue" d="M1187.32,-533.319C1136.57,-505.379 1072.21,-464.512 1025.5,-416 1006.79,-396.569 991.607,-369.773 981.794,-349.76"/>
<polygon fill="none" stroke="midnightblue" points="1185.86,-536.505 1196.31,-538.211 1189.2,-530.356 1185.86,-536.505"/>
</g>
<!-- Node15 -->
<g id="node15" class="node"><title>Node15</title>
<g id="a_node15"><a xlink:href="classwcmf_1_1application_1_1controller_1_1_login_controller.html" target="_top" xlink:title="LoginController handles the login process. ">
<polygon fill="white" stroke="black" points="1034,-276 1034,-366 1117,-366 1117,-276 1034,-276"/>
<text text-anchor="middle" x="1075.5" y="-354" font-family="Helvetica,sans-Serif" font-size="10.00">LoginController</text>
<polyline fill="none" stroke="black" points="1034,-347 1117,-347 "/>
<text text-anchor="middle" x="1075.5" y="-335" font-family="Helvetica,sans-Serif" font-size="10.00"> </text>
<polyline fill="none" stroke="black" points="1034,-328 1117,-328 "/>
<text text-anchor="start" x="1042" y="-316" font-family="Helvetica,sans-Serif" font-size="10.00">+ __construct()</text>
<text text-anchor="start" x="1042" y="-305" font-family="Helvetica,sans-Serif" font-size="10.00">+ initialize()</text>
<text text-anchor="start" x="1042" y="-294" font-family="Helvetica,sans-Serif" font-size="10.00"># validate()</text>
<text text-anchor="start" x="1042" y="-283" font-family="Helvetica,sans-Serif" font-size="10.00"># doExecute()</text>
</a>
</g>
</g>
<!-- Node1&#45;&gt;Node15 -->
<g id="edge14" class="edge"><title>Node1&#45;&gt;Node15</title>
<path fill="none" stroke="midnightblue" d="M1189.45,-493.199C1167.82,-469.319 1145.2,-442.448 1126.5,-416 1115.57,-400.536 1105.25,-382.473 1096.79,-366.335"/>
<polygon fill="none" stroke="midnightblue" points="1187.1,-495.821 1196.43,-500.843 1192.27,-491.099 1187.1,-495.821"/>
</g>
<!-- Node16 -->
<g id="node16" class="node"><title>Node16</title>
<g id="a_node16"><a xlink:href="classwcmf_1_1application_1_1controller_1_1_media_controller.html" target="_top" xlink:title="MediaController integrates elFinder (https://github.com/Studio&#45;42/elFinder) into wCMF. ">
<polygon fill="white" stroke="black" points="1135.5,-281.5 1135.5,-360.5 1255.5,-360.5 1255.5,-281.5 1135.5,-281.5"/>
<text text-anchor="middle" x="1195.5" y="-348.5" font-family="Helvetica,sans-Serif" font-size="10.00">MediaController</text>
<polyline fill="none" stroke="black" points="1135.5,-341.5 1255.5,-341.5 "/>
<text text-anchor="middle" x="1195.5" y="-329.5" font-family="Helvetica,sans-Serif" font-size="10.00"> </text>
<polyline fill="none" stroke="black" points="1135.5,-322.5 1255.5,-322.5 "/>
<text text-anchor="start" x="1143.5" y="-310.5" font-family="Helvetica,sans-Serif" font-size="10.00"># doExecute()</text>
<text text-anchor="start" x="1143.5" y="-299.5" font-family="Helvetica,sans-Serif" font-size="10.00"># onFileMoved()</text>
<text text-anchor="start" x="1143.5" y="-288.5" font-family="Helvetica,sans-Serif" font-size="10.00"># getResourceBaseDir()</text>
</a>
</g>
</g>
<!-- Node1&#45;&gt;Node16 -->
<g id="edge15" class="edge"><title>Node1&#45;&gt;Node16</title>
<path fill="none" stroke="midnightblue" d="M1230.46,-442.452C1221.78,-412.536 1213.21,-383.02 1206.73,-360.694"/>
<polygon fill="none" stroke="midnightblue" points="1227.13,-443.542 1233.28,-452.17 1233.86,-441.591 1227.13,-443.542"/>
</g>
<!-- Node17 -->
<g id="node17" class="node"><title>Node17</title>
<g id="a_node17"><a xlink:href="classwcmf_1_1application_1_1controller_1_1_message_controller.html" target="_top" xlink:title="MessageController is used to get all messages translated to the given language. ">
<polygon fill="white" stroke="black" points="1273.5,-281.5 1273.5,-360.5 1411.5,-360.5 1411.5,-281.5 1273.5,-281.5"/>
<text text-anchor="middle" x="1342.5" y="-348.5" font-family="Helvetica,sans-Serif" font-size="10.00">MessageController</text>
<polyline fill="none" stroke="black" points="1273.5,-341.5 1411.5,-341.5 "/>
<text text-anchor="middle" x="1342.5" y="-329.5" font-family="Helvetica,sans-Serif" font-size="10.00"> </text>
<polyline fill="none" stroke="black" points="1273.5,-322.5 1411.5,-322.5 "/>
<text text-anchor="start" x="1281.5" y="-310.5" font-family="Helvetica,sans-Serif" font-size="10.00"># validate()</text>
<text text-anchor="start" x="1281.5" y="-299.5" font-family="Helvetica,sans-Serif" font-size="10.00"># doExecute()</text>
<text text-anchor="start" x="1281.5" y="-288.5" font-family="Helvetica,sans-Serif" font-size="10.00"># assignResponseDefaults()</text>
</a>
</g>
</g>
<!-- Node1&#45;&gt;Node17 -->
<g id="edge16" class="edge"><title>Node1&#45;&gt;Node17</title>
<path fill="none" stroke="midnightblue" d="M1307.06,-442.452C1315.86,-412.536 1324.55,-383.02 1331.11,-360.694"/>
<polygon fill="none" stroke="midnightblue" points="1303.66,-441.589 1304.2,-452.17 1310.38,-443.565 1303.66,-441.589"/>
</g>
<!-- Node18 -->
<g id="node18" class="node"><title>Node18</title>
<g id="a_node18"><a xlink:href="classwcmf_1_1application_1_1controller_1_1_multiple_action_controller.html" target="_top" xlink:title="MultipleActionController executes multiple actions by passing them do the appropriate controllers and...">
<polygon fill="white" stroke="black" points="1430,-281.5 1430,-360.5 1549,-360.5 1549,-281.5 1430,-281.5"/>
<text text-anchor="middle" x="1489.5" y="-348.5" font-family="Helvetica,sans-Serif" font-size="10.00">MultipleActionController</text>
<polyline fill="none" stroke="black" points="1430,-341.5 1549,-341.5 "/>
<text text-anchor="middle" x="1489.5" y="-329.5" font-family="Helvetica,sans-Serif" font-size="10.00"> </text>
<polyline fill="none" stroke="black" points="1430,-322.5 1549,-322.5 "/>
<text text-anchor="start" x="1438" y="-310.5" font-family="Helvetica,sans-Serif" font-size="10.00">+ __construct()</text>
<text text-anchor="start" x="1438" y="-299.5" font-family="Helvetica,sans-Serif" font-size="10.00"># validate()</text>
<text text-anchor="start" x="1438" y="-288.5" font-family="Helvetica,sans-Serif" font-size="10.00"># doExecute()</text>
</a>
</g>
</g>
<!-- Node1&#45;&gt;Node18 -->
<g id="edge17" class="edge"><title>Node1&#45;&gt;Node18</title>
<path fill="none" stroke="midnightblue" d="M1347.68,-495.62C1371.78,-470.82 1397.87,-442.841 1420.5,-416 1435.24,-398.51 1450.42,-378.145 1462.77,-360.852"/>
<polygon fill="none" stroke="midnightblue" points="1345.08,-493.267 1340.6,-502.867 1350.09,-498.157 1345.08,-493.267"/>
</g>
<!-- Node19 -->
<g id="node19" class="node"><title>Node19</title>
<g id="a_node19"><a xlink:href="classwcmf_1_1application_1_1controller_1_1_permission_controller.html" target="_top" xlink:title="PermissionController checks permissions for a set of operations for the current user. ">
<polygon fill="white" stroke="black" points="1567,-281.5 1567,-360.5 1674,-360.5 1674,-281.5 1567,-281.5"/>
<text text-anchor="middle" x="1620.5" y="-348.5" font-family="Helvetica,sans-Serif" font-size="10.00">PermissionController</text>
<polyline fill="none" stroke="black" points="1567,-341.5 1674,-341.5 "/>
<text text-anchor="middle" x="1620.5" y="-329.5" font-family="Helvetica,sans-Serif" font-size="10.00"> </text>
<polyline fill="none" stroke="black" points="1567,-322.5 1674,-322.5 "/>
<text text-anchor="start" x="1575" y="-310.5" font-family="Helvetica,sans-Serif" font-size="10.00">+ __construct()</text>
<text text-anchor="start" x="1575" y="-299.5" font-family="Helvetica,sans-Serif" font-size="10.00"># validate()</text>
<text text-anchor="start" x="1575" y="-288.5" font-family="Helvetica,sans-Serif" font-size="10.00"># doExecute()</text>
</a>
</g>
</g>
<!-- Node1&#45;&gt;Node19 -->
<g id="edge18" class="edge"><title>Node1&#45;&gt;Node19</title>
<path fill="none" stroke="midnightblue" d="M1349.89,-542.192C1412.05,-515.418 1497.18,-472.291 1558.5,-416 1575.49,-400.401 1589.99,-379.21 1600.69,-360.898"/>
<polygon fill="none" stroke="midnightblue" points="1348.34,-539.05 1340.51,-546.186 1351.08,-545.491 1348.34,-539.05"/>
</g>
<!-- Node20 -->
<g id="node20" class="node"><title>Node20</title>
<g id="a_node20"><a xlink:href="classwcmf_1_1application_1_1controller_1_1_r_e_s_t_controller.html" target="_top" xlink:title="RESTController handles REST requests. ">
<polygon fill="white" stroke="black" points="1692,-237.5 1692,-404.5 1841,-404.5 1841,-237.5 1692,-237.5"/>
<text text-anchor="middle" x="1766.5" y="-392.5" font-family="Helvetica,sans-Serif" font-size="10.00">RESTController</text>
<polyline fill="none" stroke="black" points="1692,-385.5 1841,-385.5 "/>
<text text-anchor="middle" x="1766.5" y="-373.5" font-family="Helvetica,sans-Serif" font-size="10.00"> </text>
<polyline fill="none" stroke="black" points="1692,-366.5 1841,-366.5 "/>
<text text-anchor="start" x="1700" y="-354.5" font-family="Helvetica,sans-Serif" font-size="10.00">+ initialize()</text>
<text text-anchor="start" x="1700" y="-343.5" font-family="Helvetica,sans-Serif" font-size="10.00"># validate()</text>
<text text-anchor="start" x="1700" y="-332.5" font-family="Helvetica,sans-Serif" font-size="10.00"># doExecute()</text>
<text text-anchor="start" x="1700" y="-321.5" font-family="Helvetica,sans-Serif" font-size="10.00"># handleGet()</text>
<text text-anchor="start" x="1700" y="-310.5" font-family="Helvetica,sans-Serif" font-size="10.00"># assignResponseDefaults()</text>
<text text-anchor="start" x="1700" y="-299.5" font-family="Helvetica,sans-Serif" font-size="10.00"># handlePost()</text>
<text text-anchor="start" x="1700" y="-288.5" font-family="Helvetica,sans-Serif" font-size="10.00"># handlePut()</text>
<text text-anchor="start" x="1700" y="-277.5" font-family="Helvetica,sans-Serif" font-size="10.00"># handleDelete()</text>
<text text-anchor="start" x="1700" y="-266.5" font-family="Helvetica,sans-Serif" font-size="10.00"># setLocationHeaderFromOid()</text>
<text text-anchor="start" x="1700" y="-255.5" font-family="Helvetica,sans-Serif" font-size="10.00"># getFirstRequestOid()</text>
<text text-anchor="start" x="1700" y="-244.5" font-family="Helvetica,sans-Serif" font-size="10.00"># getRelatedType()</text>
</a>
</g>
</g>
<!-- Node1&#45;&gt;Node20 -->
<g id="edge19" class="edge"><title>Node1&#45;&gt;Node20</title>
<path fill="none" stroke="midnightblue" d="M1350.61,-554.923C1438.59,-532.274 1579.6,-487.862 1683.5,-416 1688.51,-412.532 1693.42,-408.699 1698.19,-404.621"/>
<polygon fill="none" stroke="midnightblue" points="1349.5,-551.591 1340.67,-557.445 1351.23,-558.376 1349.5,-551.591"/>
</g>
<!-- Node21 -->
<g id="node21" class="node"><title>Node21</title>
<g id="a_node21"><a xlink:href="classwcmf_1_1application_1_1controller_1_1_save_controller.html" target="_top" xlink:title="SaveController is a controller that saves Node data. ">
<polygon fill="white" stroke="black" points="1859.5,-226.5 1859.5,-415.5 1973.5,-415.5 1973.5,-226.5 1859.5,-226.5"/>
<text text-anchor="middle" x="1916.5" y="-403.5" font-family="Helvetica,sans-Serif" font-size="10.00">SaveController</text>
<polyline fill="none" stroke="black" points="1859.5,-396.5 1973.5,-396.5 "/>
<text text-anchor="middle" x="1916.5" y="-384.5" font-family="Helvetica,sans-Serif" font-size="10.00"> </text>
<polyline fill="none" stroke="black" points="1859.5,-377.5 1973.5,-377.5 "/>
<text text-anchor="start" x="1867.5" y="-365.5" font-family="Helvetica,sans-Serif" font-size="10.00">+ __construct()</text>
<text text-anchor="start" x="1867.5" y="-354.5" font-family="Helvetica,sans-Serif" font-size="10.00"># validate()</text>
<text text-anchor="start" x="1867.5" y="-343.5" font-family="Helvetica,sans-Serif" font-size="10.00"># doExecute()</text>
<text text-anchor="start" x="1867.5" y="-332.5" font-family="Helvetica,sans-Serif" font-size="10.00"># saveUploadFile()</text>
<text text-anchor="start" x="1867.5" y="-321.5" font-family="Helvetica,sans-Serif" font-size="10.00"># isFileUpload()</text>
<text text-anchor="start" x="1867.5" y="-310.5" font-family="Helvetica,sans-Serif" font-size="10.00"># checkFile()</text>
<text text-anchor="start" x="1867.5" y="-299.5" font-family="Helvetica,sans-Serif" font-size="10.00"># getUploadFilename()</text>
<text text-anchor="start" x="1867.5" y="-288.5" font-family="Helvetica,sans-Serif" font-size="10.00"># shouldOverride()</text>
<text text-anchor="start" x="1867.5" y="-277.5" font-family="Helvetica,sans-Serif" font-size="10.00"># getUploadDir()</text>
<text text-anchor="start" x="1867.5" y="-266.5" font-family="Helvetica,sans-Serif" font-size="10.00"># confirmSaveValue()</text>
<text text-anchor="start" x="1867.5" y="-255.5" font-family="Helvetica,sans-Serif" font-size="10.00"># confirmSave()</text>
<text text-anchor="start" x="1867.5" y="-244.5" font-family="Helvetica,sans-Serif" font-size="10.00"># beforeSave()</text>
<text text-anchor="start" x="1867.5" y="-233.5" font-family="Helvetica,sans-Serif" font-size="10.00"># afterSave()</text>
</a>
</g>
</g>
<!-- Node1&#45;&gt;Node21 -->
<g id="edge20" class="edge"><title>Node1&#45;&gt;Node21</title>
<path fill="none" stroke="midnightblue" d="M1351.13,-568.698C1471.16,-558.09 1696.22,-524.167 1850.5,-416 1853.44,-413.94 1856.29,-411.704 1859.05,-409.328"/>
<polygon fill="none" stroke="midnightblue" points="1350.57,-565.233 1340.91,-569.567 1351.17,-572.207 1350.57,-565.233"/>
</g>
<!-- Node22 -->
<g id="node22" class="node"><title>Node22</title>
<g id="a_node22"><a xlink:href="classwcmf_1_1application_1_1controller_1_1_s_o_a_p_controller.html" target="_top" xlink:title="SOAPController handles SOAP requests. ">
<polygon fill="white" stroke="black" points="1991.5,-287 1991.5,-355 2077.5,-355 2077.5,-287 1991.5,-287"/>
<text text-anchor="middle" x="2034.5" y="-343" font-family="Helvetica,sans-Serif" font-size="10.00">SOAPController</text>
<polyline fill="none" stroke="black" points="1991.5,-336 2077.5,-336 "/>
<text text-anchor="middle" x="2034.5" y="-324" font-family="Helvetica,sans-Serif" font-size="10.00"> </text>
<polyline fill="none" stroke="black" points="1991.5,-317 2077.5,-317 "/>
<text text-anchor="start" x="1999.5" y="-305" font-family="Helvetica,sans-Serif" font-size="10.00">+ search()</text>
<text text-anchor="start" x="1999.5" y="-294" font-family="Helvetica,sans-Serif" font-size="10.00"># doExecute()</text>
</a>
</g>
</g>
<!-- Node1&#45;&gt;Node22 -->
<g id="edge21" class="edge"><title>Node1&#45;&gt;Node22</title>
<path fill="none" stroke="midnightblue" d="M1350.68,-563.948C1516.25,-543.352 1882.68,-490.522 1982.5,-416 2002.68,-400.938 2016.03,-375.621 2024.15,-355.053"/>
<polygon fill="none" stroke="midnightblue" points="1350.04,-560.5 1340.55,-565.2 1350.9,-567.447 1350.04,-560.5"/>
</g>
<!-- Node23 -->
<g id="node23" class="node"><title>Node23</title>
<g id="a_node23"><a xlink:href="classwcmf_1_1application_1_1controller_1_1_sort_controller.html" target="_top" xlink:title="SortController is used to change the order of nodes. ">
<polygon fill="white" stroke="black" points="2095.5,-248.5 2095.5,-393.5 2247.5,-393.5 2247.5,-248.5 2095.5,-248.5"/>
<text text-anchor="middle" x="2171.5" y="-381.5" font-family="Helvetica,sans-Serif" font-size="10.00">SortController</text>
<polyline fill="none" stroke="black" points="2095.5,-374.5 2247.5,-374.5 "/>
<text text-anchor="start" x="2103.5" y="-362.5" font-family="Helvetica,sans-Serif" font-size="10.00">+ ORDER_BOTTOM</text>
<text text-anchor="start" x="2103.5" y="-351.5" font-family="Helvetica,sans-Serif" font-size="10.00">+ UNBOUND</text>
<polyline fill="none" stroke="black" points="2095.5,-344.5 2247.5,-344.5 "/>
<text text-anchor="start" x="2103.5" y="-332.5" font-family="Helvetica,sans-Serif" font-size="10.00"># validate()</text>
<text text-anchor="start" x="2103.5" y="-321.5" font-family="Helvetica,sans-Serif" font-size="10.00"># doExecute()</text>
<text text-anchor="start" x="2103.5" y="-310.5" font-family="Helvetica,sans-Serif" font-size="10.00"># doMoveBefore()</text>
<text text-anchor="start" x="2103.5" y="-299.5" font-family="Helvetica,sans-Serif" font-size="10.00"># doInsertBefore()</text>
<text text-anchor="start" x="2103.5" y="-288.5" font-family="Helvetica,sans-Serif" font-size="10.00"># loadObjectsInSortkeyRange()</text>
<text text-anchor="start" x="2103.5" y="-277.5" font-family="Helvetica,sans-Serif" font-size="10.00"># checkObjects()</text>
<text text-anchor="start" x="2103.5" y="-266.5" font-family="Helvetica,sans-Serif" font-size="10.00"># isOrderBotton()</text>
<text text-anchor="start" x="2103.5" y="-255.5" font-family="Helvetica,sans-Serif" font-size="10.00"># getSortkeyValue()</text>
</a>
</g>
</g>
<!-- Node1&#45;&gt;Node23 -->
<g id="edge22" class="edge"><title>Node1&#45;&gt;Node23</title>
<path fill="none" stroke="midnightblue" d="M1350.8,-564.366C1532.23,-543.163 1960.51,-486.959 2086.5,-416 2097.04,-410.062 2106.98,-402.336 2116.08,-393.865"/>
<polygon fill="none" stroke="midnightblue" points="1350.3,-560.899 1340.77,-565.531 1351.11,-567.853 1350.3,-560.899"/>
</g>
<!-- Node24 -->
<g id="node24" class="node"><title>Node24</title>
<g id="a_node24"><a xlink:href="classwcmf_1_1application_1_1controller_1_1_tree_controller.html" target="_top" xlink:title="TreeController is used to visualize nodes in a tree view. ">
<polygon fill="white" stroke="black" points="2265.5,-254 2265.5,-388 2367.5,-388 2367.5,-254 2265.5,-254"/>
<text text-anchor="middle" x="2316.5" y="-376" font-family="Helvetica,sans-Serif" font-size="10.00">TreeController</text>
<polyline fill="none" stroke="black" points="2265.5,-369 2367.5,-369 "/>
<text text-anchor="middle" x="2316.5" y="-357" font-family="Helvetica,sans-Serif" font-size="10.00"> </text>
<polyline fill="none" stroke="black" points="2265.5,-350 2367.5,-350 "/>
<text text-anchor="start" x="2273.5" y="-338" font-family="Helvetica,sans-Serif" font-size="10.00"># doExecute()</text>
<text text-anchor="start" x="2273.5" y="-327" font-family="Helvetica,sans-Serif" font-size="10.00"># getChildren()</text>
<text text-anchor="start" x="2273.5" y="-316" font-family="Helvetica,sans-Serif" font-size="10.00"># getRootOIDs()</text>
<text text-anchor="start" x="2273.5" y="-305" font-family="Helvetica,sans-Serif" font-size="10.00"># getViewNode()</text>
<text text-anchor="start" x="2273.5" y="-294" font-family="Helvetica,sans-Serif" font-size="10.00"># isVisible()</text>
<text text-anchor="start" x="2273.5" y="-283" font-family="Helvetica,sans-Serif" font-size="10.00"># getDisplayText()</text>
<text text-anchor="start" x="2273.5" y="-272" font-family="Helvetica,sans-Serif" font-size="10.00"># getRootTypes()</text>
<text text-anchor="start" x="2273.5" y="-261" font-family="Helvetica,sans-Serif" font-size="10.00"># isRootTypeNode()</text>
</a>
</g>
</g>
<!-- Node1&#45;&gt;Node24 -->
<g id="edge23" class="edge"><title>Node1&#45;&gt;Node24</title>
<path fill="none" stroke="midnightblue" d="M1350.84,-568.981C1560.26,-556.155 2107.16,-513.927 2256.5,-416 2267.35,-408.887 2276.63,-399.059 2284.42,-388.423"/>
<polygon fill="none" stroke="midnightblue" points="1350.6,-565.489 1340.83,-569.587 1351.02,-572.476 1350.6,-565.489"/>
</g>
<!-- Node25 -->
<g id="node25" class="node"><title>Node25</title>
<g id="a_node25"><a xlink:href="classwcmf_1_1application_1_1controller_1_1_user_controller.html" target="_top" xlink:title="UserController is used to change the current user&#39;s password. ">
<polygon fill="white" stroke="black" points="2385.5,-287 2385.5,-355 2491.5,-355 2491.5,-287 2385.5,-287"/>
<text text-anchor="middle" x="2438.5" y="-343" font-family="Helvetica,sans-Serif" font-size="10.00">UserController</text>
<polyline fill="none" stroke="black" points="2385.5,-336 2491.5,-336 "/>
<text text-anchor="middle" x="2438.5" y="-324" font-family="Helvetica,sans-Serif" font-size="10.00"> </text>
<polyline fill="none" stroke="black" points="2385.5,-317 2491.5,-317 "/>
<text text-anchor="start" x="2393.5" y="-305" font-family="Helvetica,sans-Serif" font-size="10.00">+ changePassword()</text>
<text text-anchor="start" x="2393.5" y="-294" font-family="Helvetica,sans-Serif" font-size="10.00"># doExecute()</text>
</a>
</g>
</g>
<!-- Node1&#45;&gt;Node25 -->
<g id="edge24" class="edge"><title>Node1&#45;&gt;Node25</title>
<path fill="none" stroke="midnightblue" d="M1350.96,-570.443C1577.75,-560.701 2205.33,-524.381 2376.5,-416 2398.96,-401.777 2415.06,-376.136 2425.21,-355.224"/>
<polygon fill="none" stroke="midnightblue" points="1350.63,-566.954 1340.79,-570.873 1350.93,-573.947 1350.63,-566.954"/>
</g>
<!-- Node26 -->
<g id="node26" class="node"><title>Node26</title>
<g id="a_node26"><a xlink:href="classwcmf_1_1application_1_1controller_1_1_value_list_controller.html" target="_top" xlink:title="ValueListController is used to resolve lists for input_type definitions. ">
<polygon fill="white" stroke="black" points="2509.5,-287 2509.5,-355 2607.5,-355 2607.5,-287 2509.5,-287"/>
<text text-anchor="middle" x="2558.5" y="-343" font-family="Helvetica,sans-Serif" font-size="10.00">ValueListController</text>
<polyline fill="none" stroke="black" points="2509.5,-336 2607.5,-336 "/>
<text text-anchor="middle" x="2558.5" y="-324" font-family="Helvetica,sans-Serif" font-size="10.00"> </text>
<polyline fill="none" stroke="black" points="2509.5,-317 2607.5,-317 "/>
<text text-anchor="start" x="2517.5" y="-305" font-family="Helvetica,sans-Serif" font-size="10.00"># validate()</text>
<text text-anchor="start" x="2517.5" y="-294" font-family="Helvetica,sans-Serif" font-size="10.00"># doExecute()</text>
</a>
</g>
</g>
<!-- Node1&#45;&gt;Node26 -->
<g id="edge25" class="edge"><title>Node1&#45;&gt;Node26</title>
<path fill="none" stroke="midnightblue" d="M1350.84,-572.053C1594.87,-566.381 2309.09,-539.375 2500.5,-416 2522.42,-401.871 2537.42,-376.225 2546.66,-355.286"/>
<polygon fill="none" stroke="midnightblue" points="1350.54,-568.559 1340.62,-572.285 1350.7,-575.558 1350.54,-568.559"/>
</g>
<!-- Node4 -->
<g id="node4" class="node"><title>Node4</title>
<g id="a_node4"><a xlink:href="classwcmf_1_1application_1_1controller_1_1_batch_display_controller.html" target="_top" xlink:title="BatchDisplayController is used to load a tree of Node instances recursivly and return them in lists o...">
<polygon fill="white" stroke="black" points="0,-17 0,-173 123,-173 123,-17 0,-17"/>
<text text-anchor="middle" x="61.5" y="-161" font-family="Helvetica,sans-Serif" font-size="10.00">BatchDisplayController</text>
<polyline fill="none" stroke="black" points="0,-154 123,-154 "/>
<text text-anchor="middle" x="61.5" y="-142" font-family="Helvetica,sans-Serif" font-size="10.00"> </text>
<polyline fill="none" stroke="black" points="0,-135 123,-135 "/>
<text text-anchor="start" x="8" y="-123" font-family="Helvetica,sans-Serif" font-size="10.00">+ initialize()</text>
<text text-anchor="start" x="8" y="-112" font-family="Helvetica,sans-Serif" font-size="10.00"># validate()</text>
<text text-anchor="start" x="8" y="-101" font-family="Helvetica,sans-Serif" font-size="10.00"># getWorkPackage()</text>
<text text-anchor="start" x="8" y="-90" font-family="Helvetica,sans-Serif" font-size="10.00"># startProcess()</text>
<text text-anchor="start" x="8" y="-79" font-family="Helvetica,sans-Serif" font-size="10.00"># loadNodes()</text>
<text text-anchor="start" x="8" y="-68" font-family="Helvetica,sans-Serif" font-size="10.00"># endProcess()</text>
<text text-anchor="start" x="8" y="-57" font-family="Helvetica,sans-Serif" font-size="10.00"># loadNode()</text>
<text text-anchor="start" x="8" y="-46" font-family="Helvetica,sans-Serif" font-size="10.00"># register()</text>
<text text-anchor="start" x="8" y="-35" font-family="Helvetica,sans-Serif" font-size="10.00"># isRegistered()</text>
<text text-anchor="start" x="8" y="-24" font-family="Helvetica,sans-Serif" font-size="10.00"># addNodeToResponse()</text>
</a>
</g>
</g>
<!-- Node3&#45;&gt;Node4 -->
<g id="edge3" class="edge"><title>Node3&#45;&gt;Node4</title>
<path fill="none" stroke="midnightblue" d="M161.897,-222.89C151.781,-211.968 141.804,-200.861 132.5,-190 127.843,-184.564 123.133,-178.857 118.47,-173.055"/>
<polygon fill="none" stroke="midnightblue" points="159.537,-225.491 168.917,-230.417 164.656,-220.716 159.537,-225.491"/>
</g>
<!-- Node5 -->
<g id="node5" class="node"><title>Node5</title>
<g id="a_node5"><a xlink:href="classwcmf_1_1application_1_1controller_1_1_copy_controller.html" target="_top" xlink:title="CopyController is used to copy or move Node instances. ">
<polygon fill="white" stroke="black" points="141.5,-0.5 141.5,-189.5 247.5,-189.5 247.5,-0.5 141.5,-0.5"/>
<text text-anchor="middle" x="194.5" y="-177.5" font-family="Helvetica,sans-Serif" font-size="10.00">CopyController</text>
<polyline fill="none" stroke="black" points="141.5,-170.5 247.5,-170.5 "/>
<text text-anchor="middle" x="194.5" y="-158.5" font-family="Helvetica,sans-Serif" font-size="10.00"> </text>
<polyline fill="none" stroke="black" points="141.5,-151.5 247.5,-151.5 "/>
<text text-anchor="start" x="149.5" y="-139.5" font-family="Helvetica,sans-Serif" font-size="10.00">+ initialize()</text>
<text text-anchor="start" x="149.5" y="-128.5" font-family="Helvetica,sans-Serif" font-size="10.00"># validate()</text>
<text text-anchor="start" x="149.5" y="-117.5" font-family="Helvetica,sans-Serif" font-size="10.00"># getWorkPackage()</text>
<text text-anchor="start" x="149.5" y="-106.5" font-family="Helvetica,sans-Serif" font-size="10.00"># startProcess()</text>
<text text-anchor="start" x="149.5" y="-95.5" font-family="Helvetica,sans-Serif" font-size="10.00"># copyNodes()</text>
<text text-anchor="start" x="149.5" y="-84.5" font-family="Helvetica,sans-Serif" font-size="10.00"># endProcess()</text>
<text text-anchor="start" x="149.5" y="-73.5" font-family="Helvetica,sans-Serif" font-size="10.00"># copyNode()</text>
<text text-anchor="start" x="149.5" y="-62.5" font-family="Helvetica,sans-Serif" font-size="10.00"># getTargetNode()</text>
<text text-anchor="start" x="149.5" y="-51.5" font-family="Helvetica,sans-Serif" font-size="10.00"># registerCopy()</text>
<text text-anchor="start" x="149.5" y="-40.5" font-family="Helvetica,sans-Serif" font-size="10.00"># updateCopyOIDs()</text>
<text text-anchor="start" x="149.5" y="-29.5" font-family="Helvetica,sans-Serif" font-size="10.00"># getCopyOID()</text>
<text text-anchor="start" x="149.5" y="-18.5" font-family="Helvetica,sans-Serif" font-size="10.00"># getCopy()</text>
<text text-anchor="start" x="149.5" y="-7.5" font-family="Helvetica,sans-Serif" font-size="10.00"># modify()</text>
</a>
</g>
</g>
<!-- Node3&#45;&gt;Node5 -->
<g id="edge4" class="edge"><title>Node3&#45;&gt;Node5</title>
<path fill="none" stroke="midnightblue" d="M228.958,-216.602C226.393,-207.625 223.807,-198.575 221.267,-189.683"/>
<polygon fill="none" stroke="midnightblue" points="225.616,-217.648 231.729,-226.302 232.347,-215.725 225.616,-217.648"/>
</g>
<!-- Node6 -->
<g id="node6" class="node"><title>Node6</title>
<g id="a_node6"><a xlink:href="classwcmf_1_1application_1_1controller_1_1_search_index_controller.html" target="_top" xlink:title="SearchIndexController creates a Lucene index from the complete datastore. ">
<polygon fill="white" stroke="black" points="265.5,-44.5 265.5,-145.5 377.5,-145.5 377.5,-44.5 265.5,-44.5"/>
<text text-anchor="middle" x="321.5" y="-133.5" font-family="Helvetica,sans-Serif" font-size="10.00">SearchIndexController</text>
<polyline fill="none" stroke="black" points="265.5,-126.5 377.5,-126.5 "/>
<text text-anchor="middle" x="321.5" y="-114.5" font-family="Helvetica,sans-Serif" font-size="10.00"> </text>
<polyline fill="none" stroke="black" points="265.5,-107.5 377.5,-107.5 "/>
<text text-anchor="start" x="273.5" y="-95.5" font-family="Helvetica,sans-Serif" font-size="10.00">+ __construct()</text>
<text text-anchor="start" x="273.5" y="-84.5" font-family="Helvetica,sans-Serif" font-size="10.00"># getWorkPackage()</text>
<text text-anchor="start" x="273.5" y="-73.5" font-family="Helvetica,sans-Serif" font-size="10.00"># collect()</text>
<text text-anchor="start" x="273.5" y="-62.5" font-family="Helvetica,sans-Serif" font-size="10.00"># index()</text>
<text text-anchor="start" x="273.5" y="-51.5" font-family="Helvetica,sans-Serif" font-size="10.00"># optimize()</text>
</a>
</g>
</g>
<!-- Node3&#45;&gt;Node6 -->
<g id="edge5" class="edge"><title>Node3&#45;&gt;Node6</title>
<path fill="none" stroke="midnightblue" d="M287.606,-216.514C294.547,-191.833 301.644,-166.598 307.539,-145.639"/>
<polygon fill="none" stroke="midnightblue" points="284.191,-215.728 284.853,-226.302 290.929,-217.623 284.191,-215.728"/>
</g>
<!-- Node7 -->
<g id="node7" class="node"><title>Node7</title>
<g id="a_node7"><a xlink:href="classwcmf_1_1application_1_1controller_1_1_x_m_l_export_controller.html" target="_top" xlink:title="XMLExportController exports the content tree into an XML file. ">
<polygon fill="white" stroke="black" points="395.5,-0.5 395.5,-189.5 565.5,-189.5 565.5,-0.5 395.5,-0.5"/>
<text text-anchor="middle" x="480.5" y="-177.5" font-family="Helvetica,sans-Serif" font-size="10.00">XMLExportController</text>
<polyline fill="none" stroke="black" points="395.5,-170.5 565.5,-170.5 "/>
<text text-anchor="start" x="403.5" y="-158.5" font-family="Helvetica,sans-Serif" font-size="10.00">+ CACHE_SECTION</text>
<text text-anchor="start" x="403.5" y="-147.5" font-family="Helvetica,sans-Serif" font-size="10.00">+ CACHE_KEY_ROOT_OIDS</text>
<text text-anchor="start" x="403.5" y="-136.5" font-family="Helvetica,sans-Serif" font-size="10.00">+ CACHE_KEY_EXPORTED_OIDS</text>
<polyline fill="none" stroke="black" points="395.5,-129.5 565.5,-129.5 "/>
<text text-anchor="start" x="403.5" y="-117.5" font-family="Helvetica,sans-Serif" font-size="10.00">+ __construct()</text>
<text text-anchor="start" x="403.5" y="-106.5" font-family="Helvetica,sans-Serif" font-size="10.00">+ initialize()</text>
<text text-anchor="start" x="403.5" y="-95.5" font-family="Helvetica,sans-Serif" font-size="10.00"># getWorkPackage()</text>
<text text-anchor="start" x="403.5" y="-84.5" font-family="Helvetica,sans-Serif" font-size="10.00"># getDownloadFile()</text>
<text text-anchor="start" x="403.5" y="-73.5" font-family="Helvetica,sans-Serif" font-size="10.00"># initExport()</text>
<text text-anchor="start" x="403.5" y="-62.5" font-family="Helvetica,sans-Serif" font-size="10.00"># exportNodes()</text>
<text text-anchor="start" x="403.5" y="-51.5" font-family="Helvetica,sans-Serif" font-size="10.00"># finishExport()</text>
<text text-anchor="start" x="403.5" y="-40.5" font-family="Helvetica,sans-Serif" font-size="10.00"># endTags()</text>
<text text-anchor="start" x="403.5" y="-29.5" font-family="Helvetica,sans-Serif" font-size="10.00"># writeNode()</text>
<text text-anchor="start" x="403.5" y="-18.5" font-family="Helvetica,sans-Serif" font-size="10.00"># getNumUnvisitedChildren()</text>
<text text-anchor="start" x="403.5" y="-7.5" font-family="Helvetica,sans-Serif" font-size="10.00"># formatValue()</text>
</a>
</g>
</g>
<!-- Node3&#45;&gt;Node7 -->
<g id="edge6" class="edge"><title>Node3&#45;&gt;Node7</title>
<path fill="none" stroke="midnightblue" d="M355.47,-222.156C368.695,-208.813 382.189,-195.197 395.186,-182.082"/>
<polygon fill="none" stroke="midnightblue" points="352.709,-219.97 348.156,-229.536 357.681,-224.897 352.709,-219.97"/>
</g>
<!-- Node13 -->
<g id="node13" class="node"><title>Node13</title>
<g id="a_node13"><a xlink:href="classwcmf_1_1application_1_1controller_1_1_search_controller.html" target="_top" xlink:title="SearchController executes a search and returns matching objects in a paged list. ">
<polygon fill="white" stroke="black" points="818,-55.5 818,-134.5 907,-134.5 907,-55.5 818,-55.5"/>
<text text-anchor="middle" x="862.5" y="-122.5" font-family="Helvetica,sans-Serif" font-size="10.00">SearchController</text>
<polyline fill="none" stroke="black" points="818,-115.5 907,-115.5 "/>
<text text-anchor="middle" x="862.5" y="-103.5" font-family="Helvetica,sans-Serif" font-size="10.00"> </text>
<polyline fill="none" stroke="black" points="818,-96.5 907,-96.5 "/>
<text text-anchor="start" x="826" y="-84.5" font-family="Helvetica,sans-Serif" font-size="10.00">+ __construct()</text>
<text text-anchor="start" x="826" y="-73.5" font-family="Helvetica,sans-Serif" font-size="10.00"># getObjects()</text>
<text text-anchor="start" x="826" y="-62.5" font-family="Helvetica,sans-Serif" font-size="10.00"># modifyModel()</text>
</a>
</g>
</g>
<!-- Node12&#45;&gt;Node13 -->
<g id="edge12" class="edge"><title>Node12&#45;&gt;Node13</title>
<path fill="none" stroke="midnightblue" d="M862.5,-265.496C862.5,-224.969 862.5,-170.662 862.5,-134.561"/>
<polygon fill="none" stroke="midnightblue" points="859,-265.745 862.5,-275.745 866,-265.745 859,-265.745"/>
</g>
</g>
</svg>
