<?xml version="1.0" encoding="UTF-8" standalone="no"?>
<!DOCTYPE svg PUBLIC "-//W3C//DTD SVG 1.1//EN"
 "http://www.w3.org/Graphics/SVG/1.1/DTD/svg11.dtd">
<!-- Generated by graphviz version 2.38.0 (20140413.2041)
 -->
<!-- Title: NullCache Pages: 1 -->
<svg width="73pt" height="259pt"
 viewBox="0.00 0.00 73.00 259.00" xmlns="http://www.w3.org/2000/svg" xmlns:xlink="http://www.w3.org/1999/xlink">
<g id="graph0" class="graph" transform="scale(1 1) rotate(0) translate(4 255)">
<title>NullCache</title>
<polygon fill="white" stroke="none" points="-4,4 -4,-255 69,-255 69,4 -4,4"/>
<!-- Node1 -->
<g id="node1" class="node"><title>Node1</title>
<polygon fill="#bfbfbf" stroke="black" points="0.5,-0.5 0.5,-101.5 64.5,-101.5 64.5,-0.5 0.5,-0.5"/>
<text text-anchor="middle" x="32.5" y="-89.5" font-family="Helvetica,sans-Serif" font-size="10.00">NullCache</text>
<polyline fill="none" stroke="black" points="0.5,-82.5 64.5,-82.5 "/>
<text text-anchor="middle" x="32.5" y="-70.5" font-family="Helvetica,sans-Serif" font-size="10.00"> </text>
<polyline fill="none" stroke="black" points="0.5,-63.5 64.5,-63.5 "/>
<text text-anchor="start" x="8.5" y="-51.5" font-family="Helvetica,sans-Serif" font-size="10.00">+ exists()</text>
<text text-anchor="start" x="8.5" y="-40.5" font-family="Helvetica,sans-Serif" font-size="10.00">+ get()</text>
<text text-anchor="start" x="8.5" y="-29.5" font-family="Helvetica,sans-Serif" font-size="10.00">+ put()</text>
<text text-anchor="start" x="8.5" y="-18.5" font-family="Helvetica,sans-Serif" font-size="10.00">+ clear()</text>
<text text-anchor="start" x="8.5" y="-7.5" font-family="Helvetica,sans-Serif" font-size="10.00">+ clearAll()</text>
</g>
<!-- Node2 -->
<g id="node2" class="node"><title>Node2</title>
<g id="a_node2"><a xlink:href="interfacewcmf_1_1lib_1_1io_1_1_cache.html" target="_top" xlink:title="Cache defines the interface for cache implementations. ">
<polygon fill="white" stroke="black" points="0,-138.5 0,-250.5 65,-250.5 65,-138.5 0,-138.5"/>
<text text-anchor="middle" x="32.5" y="-238.5" font-family="Helvetica,sans-Serif" font-size="10.00">Cache</text>
<polyline fill="none" stroke="black" points="0,-231.5 65,-231.5 "/>
<text text-anchor="middle" x="32.5" y="-219.5" font-family="Helvetica,sans-Serif" font-size="10.00"> </text>
<polyline fill="none" stroke="black" points="0,-212.5 65,-212.5 "/>
<text text-anchor="start" x="8" y="-200.5" font-family="Helvetica,sans-Serif" font-size="10.00">+ exists()</text>
<text text-anchor="start" x="8" y="-189.5" font-family="Helvetica,sans-Serif" font-size="10.00">+ getDate()</text>
<text text-anchor="start" x="8" y="-178.5" font-family="Helvetica,sans-Serif" font-size="10.00">+ get()</text>
<text text-anchor="start" x="8" y="-167.5" font-family="Helvetica,sans-Serif" font-size="10.00">+ put()</text>
<text text-anchor="start" x="8" y="-156.5" font-family="Helvetica,sans-Serif" font-size="10.00">+ clear()</text>
<text text-anchor="start" x="8" y="-145.5" font-family="Helvetica,sans-Serif" font-size="10.00">+ clearAll()</text>
</a>
</g>
</g>
<!-- Node2&#45;&gt;Node1 -->
<g id="edge1" class="edge"><title>Node2&#45;&gt;Node1</title>
<path fill="none" stroke="midnightblue" d="M32.5,-128.344C32.5,-119.375 32.5,-110.286 32.5,-101.658"/>
<polygon fill="none" stroke="midnightblue" points="29.0001,-128.387 32.5,-138.387 36.0001,-128.387 29.0001,-128.387"/>
</g>
</g>
</svg>
