<?xml version="1.0" encoding="UTF-8" standalone="no"?>
<!DOCTYPE svg PUBLIC "-//W3C//DTD SVG 1.1//EN"
 "http://www.w3.org/Graphics/SVG/1.1/DTD/svg11.dtd">
<!-- Generated by graphviz version 2.38.0 (20140413.2041)
 -->
<!-- Title: DefaultResponse Pages: 1 -->
<svg width="254pt" height="518pt"
 viewBox="0.00 0.00 253.50 518.00" xmlns="http://www.w3.org/2000/svg" xmlns:xlink="http://www.w3.org/1999/xlink">
<g id="graph0" class="graph" transform="scale(1 1) rotate(0) translate(4 514)">
<title>DefaultResponse</title>
<polygon fill="white" stroke="none" points="-4,4 -4,-514 249.5,-514 249.5,4 -4,4"/>
<!-- Node1 -->
<g id="node1" class="node"><title>Node1</title>
<polygon fill="#bfbfbf" stroke="black" points="92.5,-0.5 92.5,-90.5 182.5,-90.5 182.5,-0.5 92.5,-0.5"/>
<text text-anchor="middle" x="137.5" y="-78.5" font-family="Helvetica,sans-Serif" font-size="10.00">DefaultResponse</text>
<polyline fill="none" stroke="black" points="92.5,-71.5 182.5,-71.5 "/>
<text text-anchor="middle" x="137.5" y="-59.5" font-family="Helvetica,sans-Serif" font-size="10.00"> </text>
<polyline fill="none" stroke="black" points="92.5,-52.5 182.5,-52.5 "/>
<text text-anchor="start" x="100.5" y="-40.5" font-family="Helvetica,sans-Serif" font-size="10.00">+ setCacheId()</text>
<text text-anchor="start" x="100.5" y="-29.5" font-family="Helvetica,sans-Serif" font-size="10.00">+ getCacheId()</text>
<text text-anchor="start" x="100.5" y="-18.5" font-family="Helvetica,sans-Serif" font-size="10.00">+ setStatus()</text>
<text text-anchor="start" x="100.5" y="-7.5" font-family="Helvetica,sans-Serif" font-size="10.00">+ getStatus()</text>
</g>
<!-- Node2 -->
<g id="node2" class="node"><title>Node2</title>
<g id="a_node2"><a xlink:href="classwcmf_1_1lib_1_1presentation_1_1impl_1_1_abstract_controller_message.html" target="_top" xlink:title="AbstractControllerMessage is the base class for request/response implementations. ...">
<polygon fill="white" stroke="black" points="0,-127.5 0,-305.5 143,-305.5 143,-127.5 0,-127.5"/>
<text text-anchor="middle" x="71.5" y="-293.5" font-family="Helvetica,sans-Serif" font-size="10.00">AbstractControllerMessage</text>
<polyline fill="none" stroke="black" points="0,-286.5 143,-286.5 "/>
<text text-anchor="middle" x="71.5" y="-274.5" font-family="Helvetica,sans-Serif" font-size="10.00"> </text>
<polyline fill="none" stroke="black" points="0,-267.5 143,-267.5 "/>
<text text-anchor="start" x="8" y="-255.5" font-family="Helvetica,sans-Serif" font-size="10.00">+ setSender()</text>
<text text-anchor="start" x="8" y="-244.5" font-family="Helvetica,sans-Serif" font-size="10.00">+ getSender()</text>
<text text-anchor="start" x="8" y="-233.5" font-family="Helvetica,sans-Serif" font-size="10.00">+ setContext()</text>
<text text-anchor="start" x="8" y="-222.5" font-family="Helvetica,sans-Serif" font-size="10.00">+ getContext()</text>
<text text-anchor="start" x="8" y="-211.5" font-family="Helvetica,sans-Serif" font-size="10.00">+ setAction()</text>
<text text-anchor="start" x="8" y="-200.5" font-family="Helvetica,sans-Serif" font-size="10.00">+ getAction()</text>
<text text-anchor="start" x="8" y="-189.5" font-family="Helvetica,sans-Serif" font-size="10.00">+ setFormat()</text>
<text text-anchor="start" x="8" y="-178.5" font-family="Helvetica,sans-Serif" font-size="10.00">+ getFormat()</text>
<text text-anchor="start" x="8" y="-167.5" font-family="Helvetica,sans-Serif" font-size="10.00">+ setHeader()</text>
<text text-anchor="start" x="8" y="-156.5" font-family="Helvetica,sans-Serif" font-size="10.00">+ setHeaders()</text>
<text text-anchor="start" x="8" y="-145.5" font-family="Helvetica,sans-Serif" font-size="10.00">and 21 more...</text>
<text text-anchor="start" x="8" y="-134.5" font-family="Helvetica,sans-Serif" font-size="10.00"># getFormatFromMimeType()</text>
</a>
</g>
</g>
<!-- Node2&#45;&gt;Node1 -->
<g id="edge1" class="edge"><title>Node2&#45;&gt;Node1</title>
<path fill="none" stroke="midnightblue" d="M109.727,-117.616C113.385,-108.25 116.955,-99.1084 120.251,-90.6682"/>
<polygon fill="none" stroke="midnightblue" points="106.424,-116.452 106.046,-127.04 112.944,-118.999 106.424,-116.452"/>
</g>
<!-- Node3 -->
<g id="node3" class="node"><title>Node3</title>
<g id="a_node3"><a xlink:href="interfacewcmf_1_1lib_1_1presentation_1_1_controller_message.html" target="_top" xlink:title="Messages are sent between Controllers and are used to transfer data between them. ...">
<polygon fill="white" stroke="black" points="88.5,-342.5 88.5,-509.5 186.5,-509.5 186.5,-342.5 88.5,-342.5"/>
<text text-anchor="middle" x="137.5" y="-497.5" font-family="Helvetica,sans-Serif" font-size="10.00">ControllerMessage</text>
<polyline fill="none" stroke="black" points="88.5,-490.5 186.5,-490.5 "/>
<text text-anchor="middle" x="137.5" y="-478.5" font-family="Helvetica,sans-Serif" font-size="10.00"> </text>
<polyline fill="none" stroke="black" points="88.5,-471.5 186.5,-471.5 "/>
<text text-anchor="start" x="96.5" y="-459.5" font-family="Helvetica,sans-Serif" font-size="10.00">+ setSender()</text>
<text text-anchor="start" x="96.5" y="-448.5" font-family="Helvetica,sans-Serif" font-size="10.00">+ getSender()</text>
<text text-anchor="start" x="96.5" y="-437.5" font-family="Helvetica,sans-Serif" font-size="10.00">+ setContext()</text>
<text text-anchor="start" x="96.5" y="-426.5" font-family="Helvetica,sans-Serif" font-size="10.00">+ getContext()</text>
<text text-anchor="start" x="96.5" y="-415.5" font-family="Helvetica,sans-Serif" font-size="10.00">+ setAction()</text>
<text text-anchor="start" x="96.5" y="-404.5" font-family="Helvetica,sans-Serif" font-size="10.00">+ getAction()</text>
<text text-anchor="start" x="96.5" y="-393.5" font-family="Helvetica,sans-Serif" font-size="10.00">+ setFormat()</text>
<text text-anchor="start" x="96.5" y="-382.5" font-family="Helvetica,sans-Serif" font-size="10.00">+ getFormat()</text>
<text text-anchor="start" x="96.5" y="-371.5" font-family="Helvetica,sans-Serif" font-size="10.00">+ setHeader()</text>
<text text-anchor="start" x="96.5" y="-360.5" font-family="Helvetica,sans-Serif" font-size="10.00">+ setHeaders()</text>
<text text-anchor="start" x="96.5" y="-349.5" font-family="Helvetica,sans-Serif" font-size="10.00">and 20 more...</text>
</a>
</g>
</g>
<!-- Node3&#45;&gt;Node2 -->
<g id="edge2" class="edge"><title>Node3&#45;&gt;Node2</title>
<path fill="none" stroke="midnightblue" d="M108.137,-332.686C105.275,-323.685 102.375,-314.568 99.5255,-305.61"/>
<polygon fill="none" stroke="midnightblue" points="104.859,-333.926 111.225,-342.394 111.53,-331.804 104.859,-333.926"/>
</g>
<!-- Node4 -->
<g id="node4" class="node"><title>Node4</title>
<g id="a_node4"><a xlink:href="interfacewcmf_1_1lib_1_1presentation_1_1_response.html" target="_top" xlink:title="Response holds the response values that are used as output from Controller instances. ">
<polygon fill="white" stroke="black" points="161.5,-144 161.5,-289 245.5,-289 245.5,-144 161.5,-144"/>
<text text-anchor="middle" x="203.5" y="-277" font-family="Helvetica,sans-Serif" font-size="10.00">Response</text>
<polyline fill="none" stroke="black" points="161.5,-270 245.5,-270 "/>
<text text-anchor="start" x="169.5" y="-258" font-family="Helvetica,sans-Serif" font-size="10.00">+ STATUS_200</text>
<text text-anchor="start" x="169.5" y="-247" font-family="Helvetica,sans-Serif" font-size="10.00">+ STATUS_201</text>
<text text-anchor="start" x="169.5" y="-236" font-family="Helvetica,sans-Serif" font-size="10.00">+ STATUS_202</text>
<text text-anchor="start" x="169.5" y="-225" font-family="Helvetica,sans-Serif" font-size="10.00">+ STATUS_204</text>
<text text-anchor="start" x="169.5" y="-214" font-family="Helvetica,sans-Serif" font-size="10.00">+ STATUS_400</text>
<text text-anchor="start" x="169.5" y="-203" font-family="Helvetica,sans-Serif" font-size="10.00">+ STATUS_404</text>
<polyline fill="none" stroke="black" points="161.5,-196 245.5,-196 "/>
<text text-anchor="start" x="169.5" y="-184" font-family="Helvetica,sans-Serif" font-size="10.00">+ setCacheId()</text>
<text text-anchor="start" x="169.5" y="-173" font-family="Helvetica,sans-Serif" font-size="10.00">+ getCacheId()</text>
<text text-anchor="start" x="169.5" y="-162" font-family="Helvetica,sans-Serif" font-size="10.00">+ setStatus()</text>
<text text-anchor="start" x="169.5" y="-151" font-family="Helvetica,sans-Serif" font-size="10.00">+ getStatus()</text>
</a>
</g>
</g>
<!-- Node3&#45;&gt;Node4 -->
<g id="edge4" class="edge"><title>Node3&#45;&gt;Node4</title>
<path fill="none" stroke="midnightblue" d="M166.82,-332.82C171.482,-318.164 176.243,-303.196 180.724,-289.105"/>
<polygon fill="none" stroke="midnightblue" points="163.47,-331.804 163.775,-342.394 170.141,-333.926 163.47,-331.804"/>
</g>
<!-- Node4&#45;&gt;Node1 -->
<g id="edge3" class="edge"><title>Node4&#45;&gt;Node1</title>
<path fill="none" stroke="midnightblue" d="M171.866,-134.498C165.991,-119.454 160.058,-104.262 154.814,-90.8337"/>
<polygon fill="none" stroke="midnightblue" points="168.612,-135.787 175.51,-143.829 175.132,-133.241 168.612,-135.787"/>
</g>
</g>
</svg>
