<?xml version="1.0" encoding="UTF-8" standalone="no"?>
<!DOCTYPE svg PUBLIC "-//W3C//DTD SVG 1.1//EN"
 "http://www.w3.org/Graphics/SVG/1.1/DTD/svg11.dtd">
<!-- Generated by graphviz version 2.38.0 (20140413.2041)
 -->
<!-- Title: Event Pages: 1 -->
<svg width="784pt" height="259pt"
 viewBox="0.00 0.00 783.50 259.00" xmlns="http://www.w3.org/2000/svg" xmlns:xlink="http://www.w3.org/1999/xlink">
<g id="graph0" class="graph" transform="scale(1 1) rotate(0) translate(4 255)">
<title>Event</title>
<polygon fill="white" stroke="none" points="-4,4 -4,-255 779.5,-255 779.5,4 -4,4"/>
<!-- Node1 -->
<g id="node1" class="node"><title>Node1</title>
<polygon fill="#bfbfbf" stroke="black" points="294.5,-182.5 294.5,-250.5 396.5,-250.5 396.5,-182.5 294.5,-182.5"/>
<text text-anchor="middle" x="345.5" y="-238.5" font-family="Helvetica,sans-Serif" font-size="10.00">Event</text>
<polyline fill="none" stroke="black" points="294.5,-231.5 396.5,-231.5 "/>
<text text-anchor="middle" x="345.5" y="-219.5" font-family="Helvetica,sans-Serif" font-size="10.00"> </text>
<polyline fill="none" stroke="black" points="294.5,-212.5 396.5,-212.5 "/>
<text text-anchor="start" x="302.5" y="-200.5" font-family="Helvetica,sans-Serif" font-size="10.00">+ stopPropagation()</text>
<text text-anchor="start" x="302.5" y="-189.5" font-family="Helvetica,sans-Serif" font-size="10.00">+ isStopped()</text>
</g>
<!-- Node2 -->
<g id="node2" class="node"><title>Node2</title>
<g id="a_node2"><a xlink:href="classwcmf_1_1lib_1_1config_1_1_config_change_event.html" target="_top" xlink:title="ConfigChangeEvent signals a change of the application configuration. ">
<polygon fill="white" stroke="black" points="0,-44.5 0,-101.5 101,-101.5 101,-44.5 0,-44.5"/>
<text text-anchor="middle" x="50.5" y="-89.5" font-family="Helvetica,sans-Serif" font-size="10.00">ConfigChangeEvent</text>
<polyline fill="none" stroke="black" points="0,-82.5 101,-82.5 "/>
<text text-anchor="start" x="8" y="-70.5" font-family="Helvetica,sans-Serif" font-size="10.00">+ NAME</text>
<polyline fill="none" stroke="black" points="0,-63.5 101,-63.5 "/>
<text text-anchor="middle" x="50.5" y="-51.5" font-family="Helvetica,sans-Serif" font-size="10.00"> </text>
</a>
</g>
</g>
<!-- Node1&#45;&gt;Node2 -->
<g id="edge1" class="edge"><title>Node1&#45;&gt;Node2</title>
<path fill="none" stroke="midnightblue" d="M284.164,-207.438C234.146,-198.605 163.375,-180.778 110.5,-146 93.2353,-134.644 78.3338,-116.836 67.6999,-101.771"/>
<polygon fill="none" stroke="midnightblue" points="283.749,-210.918 294.194,-209.139 284.919,-204.016 283.749,-210.918"/>
</g>
<!-- Node3 -->
<g id="node3" class="node"><title>Node3</title>
<g id="a_node3"><a xlink:href="classwcmf_1_1lib_1_1persistence_1_1_persistence_event.html" target="_top" xlink:title="PersistentEvent signals create/update/delete operations on a persistent entity. ">
<polygon fill="white" stroke="black" points="119.5,-33.5 119.5,-112.5 211.5,-112.5 211.5,-33.5 119.5,-33.5"/>
<text text-anchor="middle" x="165.5" y="-100.5" font-family="Helvetica,sans-Serif" font-size="10.00">PersistenceEvent</text>
<polyline fill="none" stroke="black" points="119.5,-93.5 211.5,-93.5 "/>
<text text-anchor="start" x="127.5" y="-81.5" font-family="Helvetica,sans-Serif" font-size="10.00">+ NAME</text>
<polyline fill="none" stroke="black" points="119.5,-74.5 211.5,-74.5 "/>
<text text-anchor="start" x="127.5" y="-62.5" font-family="Helvetica,sans-Serif" font-size="10.00">+ __construct()</text>
<text text-anchor="start" x="127.5" y="-51.5" font-family="Helvetica,sans-Serif" font-size="10.00">+ getObject()</text>
<text text-anchor="start" x="127.5" y="-40.5" font-family="Helvetica,sans-Serif" font-size="10.00">+ getAction()</text>
</a>
</g>
</g>
<!-- Node1&#45;&gt;Node3 -->
<g id="edge2" class="edge"><title>Node1&#45;&gt;Node3</title>
<path fill="none" stroke="midnightblue" d="M285.256,-188.417C263.568,-177.069 239.728,-162.626 220.5,-146 209.434,-136.432 199.15,-124.313 190.54,-112.76"/>
<polygon fill="none" stroke="midnightblue" points="283.902,-191.655 294.399,-193.087 287.086,-185.421 283.902,-191.655"/>
</g>
<!-- Node4 -->
<g id="node4" class="node"><title>Node4</title>
<g id="a_node4"><a xlink:href="classwcmf_1_1lib_1_1persistence_1_1_property_change_event.html" target="_top" xlink:title="PropertyChangeEvent signals a change of a property of a PersistentObject instance. ">
<polygon fill="white" stroke="black" points="229.5,-22.5 229.5,-123.5 339.5,-123.5 339.5,-22.5 229.5,-22.5"/>
<text text-anchor="middle" x="284.5" y="-111.5" font-family="Helvetica,sans-Serif" font-size="10.00">PropertyChangeEvent</text>
<polyline fill="none" stroke="black" points="229.5,-104.5 339.5,-104.5 "/>
<text text-anchor="start" x="237.5" y="-92.5" font-family="Helvetica,sans-Serif" font-size="10.00">+ NAME</text>
<polyline fill="none" stroke="black" points="229.5,-85.5 339.5,-85.5 "/>
<text text-anchor="start" x="237.5" y="-73.5" font-family="Helvetica,sans-Serif" font-size="10.00">+ __construct()</text>
<text text-anchor="start" x="237.5" y="-62.5" font-family="Helvetica,sans-Serif" font-size="10.00">+ getObject()</text>
<text text-anchor="start" x="237.5" y="-51.5" font-family="Helvetica,sans-Serif" font-size="10.00">+ getPropertyName()</text>
<text text-anchor="start" x="237.5" y="-40.5" font-family="Helvetica,sans-Serif" font-size="10.00">+ getOldValue()</text>
<text text-anchor="start" x="237.5" y="-29.5" font-family="Helvetica,sans-Serif" font-size="10.00">+ getNewValue()</text>
</a>
</g>
</g>
<!-- Node1&#45;&gt;Node4 -->
<g id="edge3" class="edge"><title>Node1&#45;&gt;Node4</title>
<path fill="none" stroke="midnightblue" d="M327.162,-172.963C320.463,-157.422 312.827,-139.71 305.885,-123.606"/>
<polygon fill="none" stroke="midnightblue" points="324.025,-174.527 331.198,-182.325 330.453,-171.756 324.025,-174.527"/>
</g>
<!-- Node5 -->
<g id="node5" class="node"><title>Node5</title>
<g id="a_node5"><a xlink:href="classwcmf_1_1lib_1_1persistence_1_1_state_change_event.html" target="_top" xlink:title="StateChangeEvent signals a change of the state of a PersistentObject instance. ">
<polygon fill="white" stroke="black" points="358,-28 358,-118 455,-118 455,-28 358,-28"/>
<text text-anchor="middle" x="406.5" y="-106" font-family="Helvetica,sans-Serif" font-size="10.00">StateChangeEvent</text>
<polyline fill="none" stroke="black" points="358,-99 455,-99 "/>
<text text-anchor="start" x="366" y="-87" font-family="Helvetica,sans-Serif" font-size="10.00">+ NAME</text>
<polyline fill="none" stroke="black" points="358,-80 455,-80 "/>
<text text-anchor="start" x="366" y="-68" font-family="Helvetica,sans-Serif" font-size="10.00">+ __construct()</text>
<text text-anchor="start" x="366" y="-57" font-family="Helvetica,sans-Serif" font-size="10.00">+ getObject()</text>
<text text-anchor="start" x="366" y="-46" font-family="Helvetica,sans-Serif" font-size="10.00">+ getOldValue()</text>
<text text-anchor="start" x="366" y="-35" font-family="Helvetica,sans-Serif" font-size="10.00">+ getNewValue()</text>
</a>
</g>
</g>
<!-- Node1&#45;&gt;Node5 -->
<g id="edge4" class="edge"><title>Node1&#45;&gt;Node5</title>
<path fill="none" stroke="midnightblue" d="M363.813,-173.02C371.274,-155.713 379.9,-135.703 387.436,-118.221"/>
<polygon fill="none" stroke="midnightblue" points="360.547,-171.756 359.802,-182.325 366.975,-174.527 360.547,-171.756"/>
</g>
<!-- Node6 -->
<g id="node6" class="node"><title>Node6</title>
<g id="a_node6"><a xlink:href="classwcmf_1_1lib_1_1persistence_1_1_value_change_event.html" target="_top" xlink:title="ValueChangeEvent signals a change of a value of a PersistentObject instance. ">
<polygon fill="white" stroke="black" points="473.5,-22.5 473.5,-123.5 571.5,-123.5 571.5,-22.5 473.5,-22.5"/>
<text text-anchor="middle" x="522.5" y="-111.5" font-family="Helvetica,sans-Serif" font-size="10.00">ValueChangeEvent</text>
<polyline fill="none" stroke="black" points="473.5,-104.5 571.5,-104.5 "/>
<text text-anchor="start" x="481.5" y="-92.5" font-family="Helvetica,sans-Serif" font-size="10.00">+ NAME</text>
<polyline fill="none" stroke="black" points="473.5,-85.5 571.5,-85.5 "/>
<text text-anchor="start" x="481.5" y="-73.5" font-family="Helvetica,sans-Serif" font-size="10.00">+ __construct()</text>
<text text-anchor="start" x="481.5" y="-62.5" font-family="Helvetica,sans-Serif" font-size="10.00">+ getObject()</text>
<text text-anchor="start" x="481.5" y="-51.5" font-family="Helvetica,sans-Serif" font-size="10.00">+ getValueName()</text>
<text text-anchor="start" x="481.5" y="-40.5" font-family="Helvetica,sans-Serif" font-size="10.00">+ getOldValue()</text>
<text text-anchor="start" x="481.5" y="-29.5" font-family="Helvetica,sans-Serif" font-size="10.00">+ getNewValue()</text>
</a>
</g>
</g>
<!-- Node1&#45;&gt;Node6 -->
<g id="edge5" class="edge"><title>Node1&#45;&gt;Node6</title>
<path fill="none" stroke="midnightblue" d="M405.496,-186.084C425.319,-174.94 446.809,-161.226 464.5,-146 472.165,-139.404 479.569,-131.693 486.378,-123.817"/>
<polygon fill="none" stroke="midnightblue" points="403.599,-183.133 396.524,-191.019 406.973,-189.266 403.599,-183.133"/>
</g>
<!-- Node7 -->
<g id="node7" class="node"><title>Node7</title>
<g id="a_node7"><a xlink:href="classwcmf_1_1lib_1_1presentation_1_1_application_event.html" target="_top" xlink:title="ApplicationEvent instances are fired at different stages of the program flow. ">
<polygon fill="white" stroke="black" points="589.5,-0.5 589.5,-145.5 775.5,-145.5 775.5,-0.5 589.5,-0.5"/>
<text text-anchor="middle" x="682.5" y="-133.5" font-family="Helvetica,sans-Serif" font-size="10.00">ApplicationEvent</text>
<polyline fill="none" stroke="black" points="589.5,-126.5 775.5,-126.5 "/>
<text text-anchor="start" x="597.5" y="-114.5" font-family="Helvetica,sans-Serif" font-size="10.00">+ NAME</text>
<text text-anchor="start" x="597.5" y="-103.5" font-family="Helvetica,sans-Serif" font-size="10.00">+ BEFORE_ROUTE_ACTION</text>
<text text-anchor="start" x="597.5" y="-92.5" font-family="Helvetica,sans-Serif" font-size="10.00">+ BEFORE_INITIALIZE_CONTROLLER</text>
<text text-anchor="start" x="597.5" y="-81.5" font-family="Helvetica,sans-Serif" font-size="10.00">+ BEFORE_EXECUTE_CONTROLLER</text>
<text text-anchor="start" x="597.5" y="-70.5" font-family="Helvetica,sans-Serif" font-size="10.00">+ AFTER_EXECUTE_CONTROLLER</text>
<polyline fill="none" stroke="black" points="589.5,-63.5 775.5,-63.5 "/>
<text text-anchor="start" x="597.5" y="-51.5" font-family="Helvetica,sans-Serif" font-size="10.00">+ __construct()</text>
<text text-anchor="start" x="597.5" y="-40.5" font-family="Helvetica,sans-Serif" font-size="10.00">+ getStage()</text>
<text text-anchor="start" x="597.5" y="-29.5" font-family="Helvetica,sans-Serif" font-size="10.00">+ getRequest()</text>
<text text-anchor="start" x="597.5" y="-18.5" font-family="Helvetica,sans-Serif" font-size="10.00">+ getResponse()</text>
<text text-anchor="start" x="597.5" y="-7.5" font-family="Helvetica,sans-Serif" font-size="10.00">+ getController()</text>
</a>
</g>
</g>
<!-- Node1&#45;&gt;Node7 -->
<g id="edge6" class="edge"><title>Node1&#45;&gt;Node7</title>
<path fill="none" stroke="midnightblue" d="M406.842,-203.163C455.484,-192.025 524.378,-173.187 580.5,-146 583.426,-144.583 586.359,-143.084 589.289,-141.519"/>
<polygon fill="none" stroke="midnightblue" points="405.771,-199.816 396.781,-205.423 407.305,-206.646 405.771,-199.816"/>
</g>
</g>
</svg>
