<?xml version="1.0" encoding="UTF-8" standalone="no"?>
<!DOCTYPE svg PUBLIC "-//W3C//DTD SVG 1.1//EN"
 "http://www.w3.org/Graphics/SVG/1.1/DTD/svg11.dtd">
<!-- Generated by graphviz version 2.38.0 (20140413.2041)
 -->
<!-- Title: NodeValueIterator Pages: 1 -->
<svg width="110pt" height="270pt"
 viewBox="0.00 0.00 110.00 270.00" xmlns="http://www.w3.org/2000/svg" xmlns:xlink="http://www.w3.org/1999/xlink">
<g id="graph0" class="graph" transform="scale(1 1) rotate(0) translate(4 266)">
<title>NodeValueIterator</title>
<polygon fill="white" stroke="none" points="-4,4 -4,-266 106,-266 106,4 -4,4"/>
<!-- Node1 -->
<g id="node1" class="node"><title>Node1</title>
<polygon fill="#bfbfbf" stroke="black" points="0,-0.5 0,-167.5 102,-167.5 102,-0.5 0,-0.5"/>
<text text-anchor="middle" x="51" y="-155.5" font-family="Helvetica,sans-Serif" font-size="10.00">NodeValueIterator</text>
<polyline fill="none" stroke="black" points="0,-148.5 102,-148.5 "/>
<text text-anchor="start" x="8" y="-136.5" font-family="Helvetica,sans-Serif" font-size="10.00"># $end</text>
<text text-anchor="start" x="8" y="-125.5" font-family="Helvetica,sans-Serif" font-size="10.00"># $recursive</text>
<text text-anchor="start" x="8" y="-114.5" font-family="Helvetica,sans-Serif" font-size="10.00"># $nodeIterator</text>
<text text-anchor="start" x="8" y="-103.5" font-family="Helvetica,sans-Serif" font-size="10.00"># $currentAttributes</text>
<text text-anchor="start" x="8" y="-92.5" font-family="Helvetica,sans-Serif" font-size="10.00"># $currentAttribute</text>
<polyline fill="none" stroke="black" points="0,-85.5 102,-85.5 "/>
<text text-anchor="start" x="8" y="-73.5" font-family="Helvetica,sans-Serif" font-size="10.00">+ __construct()</text>
<text text-anchor="start" x="8" y="-62.5" font-family="Helvetica,sans-Serif" font-size="10.00">+ current()</text>
<text text-anchor="start" x="8" y="-51.5" font-family="Helvetica,sans-Serif" font-size="10.00">+ key()</text>
<text text-anchor="start" x="8" y="-40.5" font-family="Helvetica,sans-Serif" font-size="10.00">+ next()</text>
<text text-anchor="start" x="8" y="-29.5" font-family="Helvetica,sans-Serif" font-size="10.00">+ rewind()</text>
<text text-anchor="start" x="8" y="-18.5" font-family="Helvetica,sans-Serif" font-size="10.00">+ valid()</text>
<text text-anchor="start" x="8" y="-7.5" font-family="Helvetica,sans-Serif" font-size="10.00">+ currentNode()</text>
</g>
<!-- Node2 -->
<g id="node2" class="node"><title>Node2</title>
<polygon fill="white" stroke="#bfbfbf" points="27.5,-204.5 27.5,-261.5 74.5,-261.5 74.5,-204.5 27.5,-204.5"/>
<text text-anchor="middle" x="51" y="-249.5" font-family="Helvetica,sans-Serif" font-size="10.00">Iterator</text>
<polyline fill="none" stroke="#bfbfbf" points="27.5,-242.5 74.5,-242.5 "/>
<text text-anchor="middle" x="51" y="-230.5" font-family="Helvetica,sans-Serif" font-size="10.00"> </text>
<polyline fill="none" stroke="#bfbfbf" points="27.5,-223.5 74.5,-223.5 "/>
<text text-anchor="middle" x="51" y="-211.5" font-family="Helvetica,sans-Serif" font-size="10.00"> </text>
</g>
<!-- Node2&#45;&gt;Node1 -->
<g id="edge1" class="edge"><title>Node2&#45;&gt;Node1</title>
<path fill="none" stroke="midnightblue" d="M51,-194.35C51,-186.08 51,-177.008 51,-167.738"/>
<polygon fill="none" stroke="midnightblue" points="47.5001,-194.35 51,-204.35 54.5001,-194.35 47.5001,-194.35"/>
</g>
</g>
</svg>
