<?xml version="1.0" encoding="UTF-8" standalone="no"?>
<!DOCTYPE svg PUBLIC "-//W3C//DTD SVG 1.1//EN"
 "http://www.w3.org/Graphics/SVG/1.1/DTD/svg11.dtd">
<!-- Generated by graphviz version 2.38.0 (20140413.2041)
 -->
<!-- Title: AuthTokenSession Pages: 1 -->
<svg width="163pt" height="496pt"
 viewBox="0.00 0.00 162.50 496.00" xmlns="http://www.w3.org/2000/svg" xmlns:xlink="http://www.w3.org/1999/xlink">
<g id="graph0" class="graph" transform="scale(1 1) rotate(0) translate(4 492)">
<title>AuthTokenSession</title>
<polygon fill="white" stroke="none" points="-4,4 -4,-492 158.5,-492 158.5,4 -4,4"/>
<!-- Node1 -->
<g id="node1" class="node"><title>Node1</title>
<polygon fill="#bfbfbf" stroke="black" points="0,-0.5 0,-90.5 104,-90.5 104,-0.5 0,-0.5"/>
<text text-anchor="middle" x="52" y="-78.5" font-family="Helvetica,sans-Serif" font-size="10.00">AuthTokenSession</text>
<polyline fill="none" stroke="black" points="0,-71.5 104,-71.5 "/>
<text text-anchor="start" x="8" y="-59.5" font-family="Helvetica,sans-Serif" font-size="10.00">+ TOKEN_HEADER</text>
<polyline fill="none" stroke="black" points="0,-52.5 104,-52.5 "/>
<text text-anchor="start" x="8" y="-40.5" font-family="Helvetica,sans-Serif" font-size="10.00">+ __construct()</text>
<text text-anchor="start" x="8" y="-29.5" font-family="Helvetica,sans-Serif" font-size="10.00">+ setAuthUser()</text>
<text text-anchor="start" x="8" y="-18.5" font-family="Helvetica,sans-Serif" font-size="10.00">+ getAuthUser()</text>
<text text-anchor="start" x="8" y="-7.5" font-family="Helvetica,sans-Serif" font-size="10.00"># isTokenValid()</text>
</g>
<!-- Node2 -->
<g id="node2" class="node"><title>Node2</title>
<g id="a_node2"><a xlink:href="classwcmf_1_1lib_1_1core_1_1impl_1_1_default_session.html" target="_top" xlink:title="DefaultSession uses the default PHP session implementation: ">
<polygon fill="white" stroke="black" points="37.5,-127.5 37.5,-305.5 154.5,-305.5 154.5,-127.5 37.5,-127.5"/>
<text text-anchor="middle" x="96" y="-293.5" font-family="Helvetica,sans-Serif" font-size="10.00">DefaultSession</text>
<polyline fill="none" stroke="black" points="37.5,-286.5 154.5,-286.5 "/>
<text text-anchor="start" x="45.5" y="-274.5" font-family="Helvetica,sans-Serif" font-size="10.00">+ AUTH_USER_NAME</text>
<polyline fill="none" stroke="black" points="37.5,-267.5 154.5,-267.5 "/>
<text text-anchor="start" x="45.5" y="-255.5" font-family="Helvetica,sans-Serif" font-size="10.00">+ __construct()</text>
<text text-anchor="start" x="45.5" y="-244.5" font-family="Helvetica,sans-Serif" font-size="10.00">+ __destruct()</text>
<text text-anchor="start" x="45.5" y="-233.5" font-family="Helvetica,sans-Serif" font-size="10.00">+ getID()</text>
<text text-anchor="start" x="45.5" y="-222.5" font-family="Helvetica,sans-Serif" font-size="10.00">+ get()</text>
<text text-anchor="start" x="45.5" y="-211.5" font-family="Helvetica,sans-Serif" font-size="10.00">+ set()</text>
<text text-anchor="start" x="45.5" y="-200.5" font-family="Helvetica,sans-Serif" font-size="10.00">+ remove()</text>
<text text-anchor="start" x="45.5" y="-189.5" font-family="Helvetica,sans-Serif" font-size="10.00">+ exist()</text>
<text text-anchor="start" x="45.5" y="-178.5" font-family="Helvetica,sans-Serif" font-size="10.00">+ clear()</text>
<text text-anchor="start" x="45.5" y="-167.5" font-family="Helvetica,sans-Serif" font-size="10.00">+ destroy()</text>
<text text-anchor="start" x="45.5" y="-156.5" font-family="Helvetica,sans-Serif" font-size="10.00">+ setAuthUser()</text>
<text text-anchor="start" x="45.5" y="-145.5" font-family="Helvetica,sans-Serif" font-size="10.00">+ getAuthUser()</text>
<text text-anchor="start" x="45.5" y="-134.5" font-family="Helvetica,sans-Serif" font-size="10.00"># getCookiePrefix()</text>
</a>
</g>
</g>
<!-- Node2&#45;&gt;Node1 -->
<g id="edge1" class="edge"><title>Node2&#45;&gt;Node1</title>
<path fill="none" stroke="midnightblue" d="M70.4393,-117.324C68.0273,-108.059 65.674,-99.0204 63.4994,-90.6682"/>
<polygon fill="none" stroke="midnightblue" points="67.0624,-118.245 72.9691,-127.04 73.8365,-116.481 67.0624,-118.245"/>
</g>
<!-- Node3 -->
<g id="node3" class="node"><title>Node3</title>
<g id="a_node3"><a xlink:href="interfacewcmf_1_1lib_1_1core_1_1_session.html" target="_top" xlink:title="Session is the interface for session implementations and defines access to session variables...">
<polygon fill="white" stroke="black" points="9,-342.5 9,-487.5 95,-487.5 95,-342.5 9,-342.5"/>
<text text-anchor="middle" x="52" y="-475.5" font-family="Helvetica,sans-Serif" font-size="10.00">Session</text>
<polyline fill="none" stroke="black" points="9,-468.5 95,-468.5 "/>
<text text-anchor="middle" x="52" y="-456.5" font-family="Helvetica,sans-Serif" font-size="10.00"> </text>
<polyline fill="none" stroke="black" points="9,-449.5 95,-449.5 "/>
<text text-anchor="start" x="17" y="-437.5" font-family="Helvetica,sans-Serif" font-size="10.00">+ getID()</text>
<text text-anchor="start" x="17" y="-426.5" font-family="Helvetica,sans-Serif" font-size="10.00">+ get()</text>
<text text-anchor="start" x="17" y="-415.5" font-family="Helvetica,sans-Serif" font-size="10.00">+ set()</text>
<text text-anchor="start" x="17" y="-404.5" font-family="Helvetica,sans-Serif" font-size="10.00">+ remove()</text>
<text text-anchor="start" x="17" y="-393.5" font-family="Helvetica,sans-Serif" font-size="10.00">+ exist()</text>
<text text-anchor="start" x="17" y="-382.5" font-family="Helvetica,sans-Serif" font-size="10.00">+ clear()</text>
<text text-anchor="start" x="17" y="-371.5" font-family="Helvetica,sans-Serif" font-size="10.00">+ destroy()</text>
<text text-anchor="start" x="17" y="-360.5" font-family="Helvetica,sans-Serif" font-size="10.00">+ setAuthUser()</text>
<text text-anchor="start" x="17" y="-349.5" font-family="Helvetica,sans-Serif" font-size="10.00">+ getAuthUser()</text>
</a>
</g>
</g>
<!-- Node3&#45;&gt;Node1 -->
<g id="edge3" class="edge"><title>Node3&#45;&gt;Node1</title>
<path fill="none" stroke="midnightblue" d="M32.7281,-332.35C31.2026,-323.498 29.9043,-314.588 29,-306 20.6688,-226.882 17.9655,-205.787 29,-127 30.6733,-115.053 33.6793,-102.39 36.9779,-90.7327"/>
<polygon fill="none" stroke="midnightblue" points="29.3048,-333.088 34.5381,-342.3 36.1918,-331.835 29.3048,-333.088"/>
</g>
<!-- Node3&#45;&gt;Node2 -->
<g id="edge2" class="edge"><title>Node3&#45;&gt;Node2</title>
<path fill="none" stroke="midnightblue" d="M70.271,-332.403C72.2375,-323.621 74.2448,-314.657 76.2278,-305.801"/>
<polygon fill="none" stroke="midnightblue" points="66.8415,-331.702 68.0718,-342.225 73.6724,-333.231 66.8415,-331.702"/>
</g>
</g>
</svg>
