<?xml version="1.0" encoding="UTF-8" standalone="no"?>
<!DOCTYPE svg PUBLIC "-//W3C//DTD SVG 1.1//EN"
 "http://www.w3.org/Graphics/SVG/1.1/DTD/svg11.dtd">
<!-- Generated by graphviz version 2.38.0 (20140413.2041)
 -->
<!-- Title: DefaultIndexStrategy Pages: 1 -->
<svg width="120pt" height="193pt"
 viewBox="0.00 0.00 120.00 193.00" xmlns="http://www.w3.org/2000/svg" xmlns:xlink="http://www.w3.org/1999/xlink">
<g id="graph0" class="graph" transform="scale(1 1) rotate(0) translate(4 189)">
<title>DefaultIndexStrategy</title>
<polygon fill="white" stroke="none" points="-4,4 -4,-189 116,-189 116,4 -4,4"/>
<!-- Node1 -->
<g id="node1" class="node"><title>Node1</title>
<polygon fill="#bfbfbf" stroke="black" points="0,-0.5 0,-79.5 112,-79.5 112,-0.5 0,-0.5"/>
<text text-anchor="middle" x="56" y="-67.5" font-family="Helvetica,sans-Serif" font-size="10.00">DefaultIndexStrategy</text>
<polyline fill="none" stroke="black" points="0,-60.5 112,-60.5 "/>
<text text-anchor="middle" x="56" y="-48.5" font-family="Helvetica,sans-Serif" font-size="10.00"> </text>
<polyline fill="none" stroke="black" points="0,-41.5 112,-41.5 "/>
<text text-anchor="start" x="8" y="-29.5" font-family="Helvetica,sans-Serif" font-size="10.00">+ getDocument()</text>
<text text-anchor="start" x="8" y="-18.5" font-family="Helvetica,sans-Serif" font-size="10.00">+ encodeValue()</text>
<text text-anchor="start" x="8" y="-7.5" font-family="Helvetica,sans-Serif" font-size="10.00"># enhanceDocument()</text>
</g>
<!-- Node2 -->
<g id="node2" class="node"><title>Node2</title>
<g id="a_node2"><a xlink:href="interfacewcmf_1_1lib_1_1search_1_1impl_1_1_index_strategy.html" target="_top" xlink:title="IndexStrategy defines the interface for indexing implementations. ">
<polygon fill="white" stroke="black" points="11.5,-116.5 11.5,-184.5 100.5,-184.5 100.5,-116.5 11.5,-116.5"/>
<text text-anchor="middle" x="56" y="-172.5" font-family="Helvetica,sans-Serif" font-size="10.00">IndexStrategy</text>
<polyline fill="none" stroke="black" points="11.5,-165.5 100.5,-165.5 "/>
<text text-anchor="middle" x="56" y="-153.5" font-family="Helvetica,sans-Serif" font-size="10.00"> </text>
<polyline fill="none" stroke="black" points="11.5,-146.5 100.5,-146.5 "/>
<text text-anchor="start" x="19.5" y="-134.5" font-family="Helvetica,sans-Serif" font-size="10.00">+ getDocument()</text>
<text text-anchor="start" x="19.5" y="-123.5" font-family="Helvetica,sans-Serif" font-size="10.00">+ encodeValue()</text>
</a>
</g>
</g>
<!-- Node2&#45;&gt;Node1 -->
<g id="edge1" class="edge"><title>Node2&#45;&gt;Node1</title>
<path fill="none" stroke="midnightblue" d="M56,-106.274C56,-97.4764 56,-88.2753 56,-79.6493"/>
<polygon fill="none" stroke="midnightblue" points="52.5001,-106.357 56,-116.357 59.5001,-106.357 52.5001,-106.357"/>
</g>
</g>
</svg>
