<?xml version="1.0" encoding="UTF-8" standalone="no"?>
<!DOCTYPE svg PUBLIC "-//W3C//DTD SVG 1.1//EN"
 "http://www.w3.org/Graphics/SVG/1.1/DTD/svg11.dtd">
<!-- Generated by graphviz version 2.38.0 (20140413.2041)
 -->
<!-- Title: BatchController Pages: 1 -->
<svg width="852pt" height="738pt"
 viewBox="0.00 0.00 852.00 738.00" xmlns="http://www.w3.org/2000/svg" xmlns:xlink="http://www.w3.org/1999/xlink">
<g id="graph0" class="graph" transform="scale(1 1) rotate(0) translate(4 734)">
<title>BatchController</title>
<polygon fill="white" stroke="none" points="-4,4 -4,-734 848,-734 848,4 -4,4"/>
<!-- Node1 -->
<g id="node1" class="node"><title>Node1</title>
<polygon fill="#bfbfbf" stroke="black" points="326,-248.5 326,-470.5 465,-470.5 465,-248.5 326,-248.5"/>
<text text-anchor="middle" x="395.5" y="-458.5" font-family="Helvetica,sans-Serif" font-size="10.00">BatchController</text>
<polyline fill="none" stroke="black" points="326,-451.5 465,-451.5 "/>
<text text-anchor="start" x="334" y="-439.5" font-family="Helvetica,sans-Serif" font-size="10.00">+ REQUEST_VAR</text>
<text text-anchor="start" x="334" y="-428.5" font-family="Helvetica,sans-Serif" font-size="10.00">+ ONE_CALL_VAR</text>
<text text-anchor="start" x="334" y="-417.5" font-family="Helvetica,sans-Serif" font-size="10.00">+ STEP_VAR</text>
<text text-anchor="start" x="334" y="-406.5" font-family="Helvetica,sans-Serif" font-size="10.00">+ NUM_STEPS_VAR</text>
<text text-anchor="start" x="334" y="-395.5" font-family="Helvetica,sans-Serif" font-size="10.00">+ DOWNLOAD_STEP_VAR</text>
<text text-anchor="start" x="334" y="-384.5" font-family="Helvetica,sans-Serif" font-size="10.00">+ PACKAGES_VAR</text>
<polyline fill="none" stroke="black" points="326,-377.5 465,-377.5 "/>
<text text-anchor="start" x="334" y="-365.5" font-family="Helvetica,sans-Serif" font-size="10.00">+ initialize()</text>
<text text-anchor="start" x="334" y="-354.5" font-family="Helvetica,sans-Serif" font-size="10.00"># doExecute()</text>
<text text-anchor="start" x="334" y="-343.5" font-family="Helvetica,sans-Serif" font-size="10.00"># getStepNumber()</text>
<text text-anchor="start" x="334" y="-332.5" font-family="Helvetica,sans-Serif" font-size="10.00"># addWorkPackage()</text>
<text text-anchor="start" x="334" y="-321.5" font-family="Helvetica,sans-Serif" font-size="10.00"># processPart()</text>
<text text-anchor="start" x="334" y="-310.5" font-family="Helvetica,sans-Serif" font-size="10.00"># getRequestValue()</text>
<text text-anchor="start" x="334" y="-299.5" font-family="Helvetica,sans-Serif" font-size="10.00"># getNumberOfSteps()</text>
<text text-anchor="start" x="334" y="-288.5" font-family="Helvetica,sans-Serif" font-size="10.00"># getDisplayText()</text>
<text text-anchor="start" x="334" y="-277.5" font-family="Helvetica,sans-Serif" font-size="10.00"># getDownloadFile()</text>
<text text-anchor="start" x="334" y="-266.5" font-family="Helvetica,sans-Serif" font-size="10.00"># getWorkPackage()</text>
<text text-anchor="start" x="334" y="-255.5" font-family="Helvetica,sans-Serif" font-size="10.00"># cleanup()</text>
</g>
<!-- Node3 -->
<g id="node3" class="node"><title>Node3</title>
<g id="a_node3"><a xlink:href="classwcmf_1_1application_1_1controller_1_1_batch_display_controller.html" target="_top" xlink:title="BatchDisplayController is used to load a tree of Node instances recursivly and return them in lists o...">
<polygon fill="white" stroke="black" points="0,-22.5 0,-189.5 123,-189.5 123,-22.5 0,-22.5"/>
<text text-anchor="middle" x="61.5" y="-177.5" font-family="Helvetica,sans-Serif" font-size="10.00">BatchDisplayController</text>
<polyline fill="none" stroke="black" points="0,-170.5 123,-170.5 "/>
<text text-anchor="start" x="8" y="-158.5" font-family="Helvetica,sans-Serif" font-size="10.00">+ REGISTRY_VAR</text>
<text text-anchor="start" x="8" y="-147.5" font-family="Helvetica,sans-Serif" font-size="10.00">+ ITERATOR_ID_VAR</text>
<polyline fill="none" stroke="black" points="0,-140.5 123,-140.5 "/>
<text text-anchor="start" x="8" y="-128.5" font-family="Helvetica,sans-Serif" font-size="10.00">+ initialize()</text>
<text text-anchor="start" x="8" y="-117.5" font-family="Helvetica,sans-Serif" font-size="10.00"># validate()</text>
<text text-anchor="start" x="8" y="-106.5" font-family="Helvetica,sans-Serif" font-size="10.00"># getWorkPackage()</text>
<text text-anchor="start" x="8" y="-95.5" font-family="Helvetica,sans-Serif" font-size="10.00"># startProcess()</text>
<text text-anchor="start" x="8" y="-84.5" font-family="Helvetica,sans-Serif" font-size="10.00"># loadNodes()</text>
<text text-anchor="start" x="8" y="-73.5" font-family="Helvetica,sans-Serif" font-size="10.00"># endProcess()</text>
<text text-anchor="start" x="8" y="-62.5" font-family="Helvetica,sans-Serif" font-size="10.00"># loadNode()</text>
<text text-anchor="start" x="8" y="-51.5" font-family="Helvetica,sans-Serif" font-size="10.00"># register()</text>
<text text-anchor="start" x="8" y="-40.5" font-family="Helvetica,sans-Serif" font-size="10.00"># isRegistered()</text>
<text text-anchor="start" x="8" y="-29.5" font-family="Helvetica,sans-Serif" font-size="10.00"># addNodeToResponse()</text>
</a>
</g>
</g>
<!-- Node1&#45;&gt;Node3 -->
<g id="edge2" class="edge"><title>Node1&#45;&gt;Node3</title>
<path fill="none" stroke="midnightblue" d="M316.732,-326.476C260.979,-301.143 186.774,-261.779 132.5,-212 125.121,-205.232 118.122,-197.553 111.602,-189.501"/>
<polygon fill="none" stroke="midnightblue" points="315.308,-329.674 325.865,-330.576 318.175,-323.288 315.308,-329.674"/>
</g>
<!-- Node4 -->
<g id="node4" class="node"><title>Node4</title>
<g id="a_node4"><a xlink:href="classwcmf_1_1application_1_1controller_1_1_copy_controller.html" target="_top" xlink:title="CopyController is used to copy or move Node instances. ">
<polygon fill="white" stroke="black" points="141.5,-0.5 141.5,-211.5 257.5,-211.5 257.5,-0.5 141.5,-0.5"/>
<text text-anchor="middle" x="199.5" y="-199.5" font-family="Helvetica,sans-Serif" font-size="10.00">CopyController</text>
<polyline fill="none" stroke="black" points="141.5,-192.5 257.5,-192.5 "/>
<text text-anchor="start" x="149.5" y="-180.5" font-family="Helvetica,sans-Serif" font-size="10.00">+ OBJECT_MAP_VAR</text>
<text text-anchor="start" x="149.5" y="-169.5" font-family="Helvetica,sans-Serif" font-size="10.00">+ ACTION_VAR</text>
<text text-anchor="start" x="149.5" y="-158.5" font-family="Helvetica,sans-Serif" font-size="10.00">+ ITERATOR_ID_VAR</text>
<polyline fill="none" stroke="black" points="141.5,-151.5 257.5,-151.5 "/>
<text text-anchor="start" x="149.5" y="-139.5" font-family="Helvetica,sans-Serif" font-size="10.00">+ initialize()</text>
<text text-anchor="start" x="149.5" y="-128.5" font-family="Helvetica,sans-Serif" font-size="10.00"># validate()</text>
<text text-anchor="start" x="149.5" y="-117.5" font-family="Helvetica,sans-Serif" font-size="10.00"># getWorkPackage()</text>
<text text-anchor="start" x="149.5" y="-106.5" font-family="Helvetica,sans-Serif" font-size="10.00"># startProcess()</text>
<text text-anchor="start" x="149.5" y="-95.5" font-family="Helvetica,sans-Serif" font-size="10.00"># copyNodes()</text>
<text text-anchor="start" x="149.5" y="-84.5" font-family="Helvetica,sans-Serif" font-size="10.00"># endProcess()</text>
<text text-anchor="start" x="149.5" y="-73.5" font-family="Helvetica,sans-Serif" font-size="10.00"># copyNode()</text>
<text text-anchor="start" x="149.5" y="-62.5" font-family="Helvetica,sans-Serif" font-size="10.00"># getTargetNode()</text>
<text text-anchor="start" x="149.5" y="-51.5" font-family="Helvetica,sans-Serif" font-size="10.00"># registerCopy()</text>
<text text-anchor="start" x="149.5" y="-40.5" font-family="Helvetica,sans-Serif" font-size="10.00"># updateCopyOIDs()</text>
<text text-anchor="start" x="149.5" y="-29.5" font-family="Helvetica,sans-Serif" font-size="10.00"># getCopyOID()</text>
<text text-anchor="start" x="149.5" y="-18.5" font-family="Helvetica,sans-Serif" font-size="10.00"># getCopy()</text>
<text text-anchor="start" x="149.5" y="-7.5" font-family="Helvetica,sans-Serif" font-size="10.00"># modify()</text>
</a>
</g>
</g>
<!-- Node1&#45;&gt;Node4 -->
<g id="edge3" class="edge"><title>Node1&#45;&gt;Node4</title>
<path fill="none" stroke="midnightblue" d="M319.098,-276.205C301.209,-255.738 282.668,-233.492 266.5,-212 263.51,-208.026 260.517,-203.918 257.544,-199.732"/>
<polygon fill="none" stroke="midnightblue" points="316.684,-278.759 325.916,-283.957 321.94,-274.136 316.684,-278.759"/>
</g>
<!-- Node5 -->
<g id="node5" class="node"><title>Node5</title>
<g id="a_node5"><a xlink:href="classwcmf_1_1application_1_1controller_1_1_c_s_v_export_controller.html" target="_top" xlink:title="CSVExportController exports instances of one type into a CSV file. ">
<polygon fill="white" stroke="black" points="276,-50 276,-162 383,-162 383,-50 276,-50"/>
<text text-anchor="middle" x="329.5" y="-150" font-family="Helvetica,sans-Serif" font-size="10.00">CSVExportController</text>
<polyline fill="none" stroke="black" points="276,-143 383,-143 "/>
<text text-anchor="middle" x="329.5" y="-131" font-family="Helvetica,sans-Serif" font-size="10.00"> </text>
<polyline fill="none" stroke="black" points="276,-124 383,-124 "/>
<text text-anchor="start" x="284" y="-112" font-family="Helvetica,sans-Serif" font-size="10.00">+ initialize()</text>
<text text-anchor="start" x="284" y="-101" font-family="Helvetica,sans-Serif" font-size="10.00"># validate()</text>
<text text-anchor="start" x="284" y="-90" font-family="Helvetica,sans-Serif" font-size="10.00"># getWorkPackage()</text>
<text text-anchor="start" x="284" y="-79" font-family="Helvetica,sans-Serif" font-size="10.00"># getDownloadFile()</text>
<text text-anchor="start" x="284" y="-68" font-family="Helvetica,sans-Serif" font-size="10.00"># initExport()</text>
<text text-anchor="start" x="284" y="-57" font-family="Helvetica,sans-Serif" font-size="10.00"># exportNodes()</text>
</a>
</g>
</g>
<!-- Node1&#45;&gt;Node5 -->
<g id="edge4" class="edge"><title>Node1&#45;&gt;Node5</title>
<path fill="none" stroke="midnightblue" d="M363.974,-238.368C356.962,-211.646 349.86,-184.585 343.94,-162.025"/>
<polygon fill="none" stroke="midnightblue" points="360.628,-239.404 366.551,-248.188 367.398,-237.628 360.628,-239.404"/>
</g>
<!-- Node6 -->
<g id="node6" class="node"><title>Node6</title>
<g id="a_node6"><a xlink:href="classwcmf_1_1application_1_1controller_1_1_c_s_v_import_controller.html" target="_top" xlink:title="CSVImportController imports instances of one type into the storage. ">
<polygon fill="white" stroke="black" points="401,-50 401,-162 522,-162 522,-50 401,-50"/>
<text text-anchor="middle" x="461.5" y="-150" font-family="Helvetica,sans-Serif" font-size="10.00">CSVImportController</text>
<polyline fill="none" stroke="black" points="401,-143 522,-143 "/>
<text text-anchor="start" x="409" y="-131" font-family="Helvetica,sans-Serif" font-size="10.00">+ CACHE_KEY_STATS</text>
<polyline fill="none" stroke="black" points="401,-124 522,-124 "/>
<text text-anchor="start" x="409" y="-112" font-family="Helvetica,sans-Serif" font-size="10.00">+ __construct()</text>
<text text-anchor="start" x="409" y="-101" font-family="Helvetica,sans-Serif" font-size="10.00">+ initialize()</text>
<text text-anchor="start" x="409" y="-90" font-family="Helvetica,sans-Serif" font-size="10.00"># validate()</text>
<text text-anchor="start" x="409" y="-79" font-family="Helvetica,sans-Serif" font-size="10.00"># getWorkPackage()</text>
<text text-anchor="start" x="409" y="-68" font-family="Helvetica,sans-Serif" font-size="10.00"># initImport()</text>
<text text-anchor="start" x="409" y="-57" font-family="Helvetica,sans-Serif" font-size="10.00"># importNodes()</text>
</a>
</g>
</g>
<!-- Node1&#45;&gt;Node6 -->
<g id="edge5" class="edge"><title>Node1&#45;&gt;Node6</title>
<path fill="none" stroke="midnightblue" d="M427.026,-238.368C434.038,-211.646 441.14,-184.585 447.06,-162.025"/>
<polygon fill="none" stroke="midnightblue" points="423.602,-237.628 424.449,-248.188 430.372,-239.404 423.602,-237.628"/>
</g>
<!-- Node7 -->
<g id="node7" class="node"><title>Node7</title>
<g id="a_node7"><a xlink:href="classwcmf_1_1application_1_1controller_1_1_search_index_controller.html" target="_top" xlink:title="SearchIndexController creates a Lucene index from the complete datastore. ">
<polygon fill="white" stroke="black" points="540.5,-50 540.5,-162 652.5,-162 652.5,-50 540.5,-50"/>
<text text-anchor="middle" x="596.5" y="-150" font-family="Helvetica,sans-Serif" font-size="10.00">SearchIndexController</text>
<polyline fill="none" stroke="black" points="540.5,-143 652.5,-143 "/>
<text text-anchor="middle" x="596.5" y="-131" font-family="Helvetica,sans-Serif" font-size="10.00"> </text>
<polyline fill="none" stroke="black" points="540.5,-124 652.5,-124 "/>
<text text-anchor="start" x="548.5" y="-112" font-family="Helvetica,sans-Serif" font-size="10.00">+ __construct()</text>
<text text-anchor="start" x="548.5" y="-101" font-family="Helvetica,sans-Serif" font-size="10.00">+ initialize()</text>
<text text-anchor="start" x="548.5" y="-90" font-family="Helvetica,sans-Serif" font-size="10.00"># getWorkPackage()</text>
<text text-anchor="start" x="548.5" y="-79" font-family="Helvetica,sans-Serif" font-size="10.00"># collect()</text>
<text text-anchor="start" x="548.5" y="-68" font-family="Helvetica,sans-Serif" font-size="10.00"># index()</text>
<text text-anchor="start" x="548.5" y="-57" font-family="Helvetica,sans-Serif" font-size="10.00"># optimize()</text>
</a>
</g>
</g>
<!-- Node1&#45;&gt;Node7 -->
<g id="edge6" class="edge"><title>Node1&#45;&gt;Node7</title>
<path fill="none" stroke="midnightblue" d="M472.238,-281.457C492.406,-259.734 513.528,-235.578 531.5,-212 543.392,-196.398 555.087,-178.536 565.206,-162.021"/>
<polygon fill="none" stroke="midnightblue" points="469.425,-279.34 465.15,-289.034 474.538,-284.122 469.425,-279.34"/>
</g>
<!-- Node8 -->
<g id="node8" class="node"><title>Node8</title>
<g id="a_node8"><a xlink:href="classwcmf_1_1application_1_1controller_1_1_x_m_l_export_controller.html" target="_top" xlink:title="XMLExportController exports the content tree into an XML file. ">
<polygon fill="white" stroke="black" points="671,-0.5 671,-211.5 844,-211.5 844,-0.5 671,-0.5"/>
<text text-anchor="middle" x="757.5" y="-199.5" font-family="Helvetica,sans-Serif" font-size="10.00">XMLExportController</text>
<polyline fill="none" stroke="black" points="671,-192.5 844,-192.5 "/>
<text text-anchor="start" x="679" y="-180.5" font-family="Helvetica,sans-Serif" font-size="10.00">+ CACHE_KEY_ROOT_OIDS</text>
<text text-anchor="start" x="679" y="-169.5" font-family="Helvetica,sans-Serif" font-size="10.00">+ CACHE_KEY_EXPORTED_OIDS</text>
<text text-anchor="start" x="679" y="-158.5" font-family="Helvetica,sans-Serif" font-size="10.00">+ CACHE_KEY_LAST_INDENT</text>
<text text-anchor="start" x="679" y="-147.5" font-family="Helvetica,sans-Serif" font-size="10.00">+ CACHE_KEY_TAGS_TO_CLOSE</text>
<text text-anchor="start" x="679" y="-136.5" font-family="Helvetica,sans-Serif" font-size="10.00">+ ITERATOR_ID_VAR</text>
<polyline fill="none" stroke="black" points="671,-129.5 844,-129.5 "/>
<text text-anchor="start" x="679" y="-117.5" font-family="Helvetica,sans-Serif" font-size="10.00">+ __construct()</text>
<text text-anchor="start" x="679" y="-106.5" font-family="Helvetica,sans-Serif" font-size="10.00">+ initialize()</text>
<text text-anchor="start" x="679" y="-95.5" font-family="Helvetica,sans-Serif" font-size="10.00"># getWorkPackage()</text>
<text text-anchor="start" x="679" y="-84.5" font-family="Helvetica,sans-Serif" font-size="10.00"># getDownloadFile()</text>
<text text-anchor="start" x="679" y="-73.5" font-family="Helvetica,sans-Serif" font-size="10.00"># initExport()</text>
<text text-anchor="start" x="679" y="-62.5" font-family="Helvetica,sans-Serif" font-size="10.00"># exportNodes()</text>
<text text-anchor="start" x="679" y="-51.5" font-family="Helvetica,sans-Serif" font-size="10.00"># finishExport()</text>
<text text-anchor="start" x="679" y="-40.5" font-family="Helvetica,sans-Serif" font-size="10.00"># endTags()</text>
<text text-anchor="start" x="679" y="-29.5" font-family="Helvetica,sans-Serif" font-size="10.00"># writeNode()</text>
<text text-anchor="start" x="679" y="-18.5" font-family="Helvetica,sans-Serif" font-size="10.00"># getNumUnvisitedChildren()</text>
<text text-anchor="start" x="679" y="-7.5" font-family="Helvetica,sans-Serif" font-size="10.00"># formatValue()</text>
</a>
</g>
</g>
<!-- Node1&#45;&gt;Node8 -->
<g id="edge7" class="edge"><title>Node1&#45;&gt;Node8</title>
<path fill="none" stroke="midnightblue" d="M474.174,-323.615C529.427,-297.16 603.516,-257.635 661.5,-212 664.606,-209.556 667.698,-207.007 670.767,-204.376"/>
<polygon fill="none" stroke="midnightblue" points="472.66,-320.46 465.127,-327.911 475.662,-326.783 472.66,-320.46"/>
</g>
<!-- Node2 -->
<g id="node2" class="node"><title>Node2</title>
<g id="a_node2"><a xlink:href="classwcmf_1_1lib_1_1presentation_1_1_controller.html" target="_top" xlink:title="Controller is the base class of all controllers. ">
<polygon fill="white" stroke="black" points="330,-507.5 330,-729.5 461,-729.5 461,-507.5 330,-507.5"/>
<text text-anchor="middle" x="395.5" y="-717.5" font-family="Helvetica,sans-Serif" font-size="10.00">Controller</text>
<polyline fill="none" stroke="black" points="330,-710.5 461,-710.5 "/>
<text text-anchor="start" x="338" y="-698.5" font-family="Helvetica,sans-Serif" font-size="10.00">+ CSRF_TOKEN_PARAM</text>
<polyline fill="none" stroke="black" points="330,-691.5 461,-691.5 "/>
<text text-anchor="start" x="338" y="-679.5" font-family="Helvetica,sans-Serif" font-size="10.00">+ __construct()</text>
<text text-anchor="start" x="338" y="-668.5" font-family="Helvetica,sans-Serif" font-size="10.00">+ initialize()</text>
<text text-anchor="start" x="338" y="-657.5" font-family="Helvetica,sans-Serif" font-size="10.00">+ execute()</text>
<text text-anchor="start" x="338" y="-646.5" font-family="Helvetica,sans-Serif" font-size="10.00">+ getRequest()</text>
<text text-anchor="start" x="338" y="-635.5" font-family="Helvetica,sans-Serif" font-size="10.00">+ getResponse()</text>
<text text-anchor="start" x="338" y="-624.5" font-family="Helvetica,sans-Serif" font-size="10.00"># validate()</text>
<text text-anchor="start" x="338" y="-613.5" font-family="Helvetica,sans-Serif" font-size="10.00"># doExecute()</text>
<text text-anchor="start" x="338" y="-602.5" font-family="Helvetica,sans-Serif" font-size="10.00"># executeSubAction()</text>
<text text-anchor="start" x="338" y="-591.5" font-family="Helvetica,sans-Serif" font-size="10.00"># redirect()</text>
<text text-anchor="start" x="338" y="-580.5" font-family="Helvetica,sans-Serif" font-size="10.00"># getLogger()</text>
<text text-anchor="start" x="338" y="-569.5" font-family="Helvetica,sans-Serif" font-size="10.00"># getSession()</text>
<text text-anchor="start" x="338" y="-558.5" font-family="Helvetica,sans-Serif" font-size="10.00"># getPersistenceFacade()</text>
<text text-anchor="start" x="338" y="-547.5" font-family="Helvetica,sans-Serif" font-size="10.00"># getPermissionManager()</text>
<text text-anchor="start" x="338" y="-536.5" font-family="Helvetica,sans-Serif" font-size="10.00"># getActionMapper()</text>
<text text-anchor="start" x="338" y="-525.5" font-family="Helvetica,sans-Serif" font-size="10.00"># getLocalization()</text>
<text text-anchor="start" x="338" y="-514.5" font-family="Helvetica,sans-Serif" font-size="10.00">and 9 more...</text>
</a>
</g>
</g>
<!-- Node2&#45;&gt;Node1 -->
<g id="edge1" class="edge"><title>Node2&#45;&gt;Node1</title>
<path fill="none" stroke="midnightblue" d="M395.5,-497.117C395.5,-488.337 395.5,-479.506 395.5,-470.79"/>
<polygon fill="none" stroke="midnightblue" points="392,-497.39 395.5,-507.39 399,-497.39 392,-497.39"/>
</g>
</g>
</svg>
