<?xml version="1.0" encoding="UTF-8" standalone="no"?>
<!DOCTYPE svg PUBLIC "-//W3C//DTD SVG 1.1//EN"
 "http://www.w3.org/Graphics/SVG/1.1/DTD/svg11.dtd">
<!-- Generated by graphviz version 2.38.0 (20140413.2041)
 -->
<!-- Title: SoapServer Pages: 1 -->
<svg width="133pt" height="215pt"
 viewBox="0.00 0.00 133.00 215.00" xmlns="http://www.w3.org/2000/svg" xmlns:xlink="http://www.w3.org/1999/xlink">
<g id="graph0" class="graph" transform="scale(1 1) rotate(0) translate(4 211)">
<title>SoapServer</title>
<polygon fill="white" stroke="none" points="-4,4 -4,-211 129,-211 129,4 -4,4"/>
<!-- Node1 -->
<g id="node1" class="node"><title>Node1</title>
<polygon fill="#bfbfbf" stroke="black" points="0,-0.5 0,-112.5 125,-112.5 125,-0.5 0,-0.5"/>
<text text-anchor="middle" x="62.5" y="-100.5" font-family="Helvetica,sans-Serif" font-size="10.00">SoapServer</text>
<polyline fill="none" stroke="black" points="0,-93.5 125,-93.5 "/>
<text text-anchor="start" x="8" y="-81.5" font-family="Helvetica,sans-Serif" font-size="10.00">+ TNS</text>
<polyline fill="none" stroke="black" points="0,-74.5 125,-74.5 "/>
<text text-anchor="start" x="8" y="-62.5" font-family="Helvetica,sans-Serif" font-size="10.00">+ __construct()</text>
<text text-anchor="start" x="8" y="-51.5" font-family="Helvetica,sans-Serif" font-size="10.00">+ service()</text>
<text text-anchor="start" x="8" y="-40.5" font-family="Helvetica,sans-Serif" font-size="10.00">+ getResponseHeaders()</text>
<text text-anchor="start" x="8" y="-29.5" font-family="Helvetica,sans-Serif" font-size="10.00">+ getResponsePayload()</text>
<text text-anchor="start" x="8" y="-18.5" font-family="Helvetica,sans-Serif" font-size="10.00">+ getDummyOid()</text>
<text text-anchor="start" x="8" y="-7.5" font-family="Helvetica,sans-Serif" font-size="10.00">+ doCall()</text>
</g>
<!-- Node2 -->
<g id="node2" class="node"><title>Node2</title>
<polygon fill="white" stroke="#bfbfbf" points="23,-149.5 23,-206.5 102,-206.5 102,-149.5 23,-149.5"/>
<text text-anchor="middle" x="62.5" y="-194.5" font-family="Helvetica,sans-Serif" font-size="10.00">nusoap_server</text>
<polyline fill="none" stroke="#bfbfbf" points="23,-187.5 102,-187.5 "/>
<text text-anchor="middle" x="62.5" y="-175.5" font-family="Helvetica,sans-Serif" font-size="10.00"> </text>
<polyline fill="none" stroke="#bfbfbf" points="23,-168.5 102,-168.5 "/>
<text text-anchor="middle" x="62.5" y="-156.5" font-family="Helvetica,sans-Serif" font-size="10.00"> </text>
</g>
<!-- Node2&#45;&gt;Node1 -->
<g id="edge1" class="edge"><title>Node2&#45;&gt;Node1</title>
<path fill="none" stroke="midnightblue" d="M62.5,-139.108C62.5,-130.748 62.5,-121.725 62.5,-112.834"/>
<polygon fill="none" stroke="midnightblue" points="59.0001,-139.284 62.5,-149.284 66.0001,-139.284 59.0001,-139.284"/>
</g>
</g>
</svg>
