<?xml version="1.0" encoding="UTF-8" standalone="no"?>
<!DOCTYPE svg PUBLIC "-//W3C//DTD SVG 1.1//EN"
 "http://www.w3.org/Graphics/SVG/1.1/DTD/svg11.dtd">
<!-- Generated by graphviz version 2.38.0 (20140413.2041)
 -->
<!-- Title: DefaultRequest Pages: 1 -->
<svg width="280pt" height="584pt"
 viewBox="0.00 0.00 279.50 584.00" xmlns="http://www.w3.org/2000/svg" xmlns:xlink="http://www.w3.org/1999/xlink">
<g id="graph0" class="graph" transform="scale(1 1) rotate(0) translate(4 580)">
<title>DefaultRequest</title>
<polygon fill="white" stroke="none" points="-4,4 -4,-580 275.5,-580 275.5,4 -4,4"/>
<!-- Node1 -->
<g id="node1" class="node"><title>Node1</title>
<polygon fill="#bfbfbf" stroke="black" points="79.5,-0.5 79.5,-156.5 198.5,-156.5 198.5,-0.5 79.5,-0.5"/>
<text text-anchor="middle" x="139" y="-144.5" font-family="Helvetica,sans-Serif" font-size="10.00">DefaultRequest</text>
<polyline fill="none" stroke="black" points="79.5,-137.5 198.5,-137.5 "/>
<text text-anchor="middle" x="139" y="-125.5" font-family="Helvetica,sans-Serif" font-size="10.00"> </text>
<polyline fill="none" stroke="black" points="79.5,-118.5 198.5,-118.5 "/>
<text text-anchor="start" x="87.5" y="-106.5" font-family="Helvetica,sans-Serif" font-size="10.00">+ __construct()</text>
<text text-anchor="start" x="87.5" y="-95.5" font-family="Helvetica,sans-Serif" font-size="10.00">+ setResponse()</text>
<text text-anchor="start" x="87.5" y="-84.5" font-family="Helvetica,sans-Serif" font-size="10.00">+ getResponse()</text>
<text text-anchor="start" x="87.5" y="-73.5" font-family="Helvetica,sans-Serif" font-size="10.00">+ initialize()</text>
<text text-anchor="start" x="87.5" y="-62.5" font-family="Helvetica,sans-Serif" font-size="10.00">+ getMethod()</text>
<text text-anchor="start" x="87.5" y="-51.5" font-family="Helvetica,sans-Serif" font-size="10.00">+ setResponseFormat()</text>
<text text-anchor="start" x="87.5" y="-40.5" font-family="Helvetica,sans-Serif" font-size="10.00">+ getResponseFormat()</text>
<text text-anchor="start" x="87.5" y="-29.5" font-family="Helvetica,sans-Serif" font-size="10.00">+ __toString()</text>
<text text-anchor="start" x="87.5" y="-18.5" font-family="Helvetica,sans-Serif" font-size="10.00"># getMatchingRoutes()</text>
<text text-anchor="start" x="87.5" y="-7.5" font-family="Helvetica,sans-Serif" font-size="10.00"># getBestRoute()</text>
</g>
<!-- Node2 -->
<g id="node2" class="node"><title>Node2</title>
<g id="a_node2"><a xlink:href="classwcmf_1_1lib_1_1presentation_1_1impl_1_1_abstract_controller_message.html" target="_top" xlink:title="AbstractControllerMessage is the base class for request/response implementations. ...">
<polygon fill="white" stroke="black" points="0,-193.5 0,-371.5 134,-371.5 134,-193.5 0,-193.5"/>
<text text-anchor="middle" x="67" y="-359.5" font-family="Helvetica,sans-Serif" font-size="10.00">AbstractControllerMessage</text>
<polyline fill="none" stroke="black" points="0,-352.5 134,-352.5 "/>
<text text-anchor="middle" x="67" y="-340.5" font-family="Helvetica,sans-Serif" font-size="10.00"> </text>
<polyline fill="none" stroke="black" points="0,-333.5 134,-333.5 "/>
<text text-anchor="start" x="8" y="-321.5" font-family="Helvetica,sans-Serif" font-size="10.00">+ __construct()</text>
<text text-anchor="start" x="8" y="-310.5" font-family="Helvetica,sans-Serif" font-size="10.00">+ setSender()</text>
<text text-anchor="start" x="8" y="-299.5" font-family="Helvetica,sans-Serif" font-size="10.00">+ getSender()</text>
<text text-anchor="start" x="8" y="-288.5" font-family="Helvetica,sans-Serif" font-size="10.00">+ setContext()</text>
<text text-anchor="start" x="8" y="-277.5" font-family="Helvetica,sans-Serif" font-size="10.00">+ getContext()</text>
<text text-anchor="start" x="8" y="-266.5" font-family="Helvetica,sans-Serif" font-size="10.00">+ setAction()</text>
<text text-anchor="start" x="8" y="-255.5" font-family="Helvetica,sans-Serif" font-size="10.00">+ getAction()</text>
<text text-anchor="start" x="8" y="-244.5" font-family="Helvetica,sans-Serif" font-size="10.00">+ setFormat()</text>
<text text-anchor="start" x="8" y="-233.5" font-family="Helvetica,sans-Serif" font-size="10.00">+ getFormat()</text>
<text text-anchor="start" x="8" y="-222.5" font-family="Helvetica,sans-Serif" font-size="10.00">+ setHeader()</text>
<text text-anchor="start" x="8" y="-211.5" font-family="Helvetica,sans-Serif" font-size="10.00">and 22 more...</text>
<text text-anchor="start" x="8" y="-200.5" font-family="Helvetica,sans-Serif" font-size="10.00"># getFormatter()</text>
</a>
</g>
</g>
<!-- Node2&#45;&gt;Node1 -->
<g id="edge1" class="edge"><title>Node2&#45;&gt;Node1</title>
<path fill="none" stroke="midnightblue" d="M101.755,-183.992C105.012,-174.855 108.282,-165.68 111.46,-156.766"/>
<polygon fill="none" stroke="midnightblue" points="98.4315,-182.893 98.3708,-193.487 105.025,-185.243 98.4315,-182.893"/>
</g>
<!-- Node3 -->
<g id="node3" class="node"><title>Node3</title>
<g id="a_node3"><a xlink:href="interfacewcmf_1_1lib_1_1presentation_1_1_controller_message.html" target="_top" xlink:title="Messages are sent between Controllers and are used to transfer data between them. ...">
<polygon fill="white" stroke="black" points="90,-408.5 90,-575.5 188,-575.5 188,-408.5 90,-408.5"/>
<text text-anchor="middle" x="139" y="-563.5" font-family="Helvetica,sans-Serif" font-size="10.00">ControllerMessage</text>
<polyline fill="none" stroke="black" points="90,-556.5 188,-556.5 "/>
<text text-anchor="middle" x="139" y="-544.5" font-family="Helvetica,sans-Serif" font-size="10.00"> </text>
<polyline fill="none" stroke="black" points="90,-537.5 188,-537.5 "/>
<text text-anchor="start" x="98" y="-525.5" font-family="Helvetica,sans-Serif" font-size="10.00">+ setSender()</text>
<text text-anchor="start" x="98" y="-514.5" font-family="Helvetica,sans-Serif" font-size="10.00">+ getSender()</text>
<text text-anchor="start" x="98" y="-503.5" font-family="Helvetica,sans-Serif" font-size="10.00">+ setContext()</text>
<text text-anchor="start" x="98" y="-492.5" font-family="Helvetica,sans-Serif" font-size="10.00">+ getContext()</text>
<text text-anchor="start" x="98" y="-481.5" font-family="Helvetica,sans-Serif" font-size="10.00">+ setAction()</text>
<text text-anchor="start" x="98" y="-470.5" font-family="Helvetica,sans-Serif" font-size="10.00">+ getAction()</text>
<text text-anchor="start" x="98" y="-459.5" font-family="Helvetica,sans-Serif" font-size="10.00">+ setFormat()</text>
<text text-anchor="start" x="98" y="-448.5" font-family="Helvetica,sans-Serif" font-size="10.00">+ getFormat()</text>
<text text-anchor="start" x="98" y="-437.5" font-family="Helvetica,sans-Serif" font-size="10.00">+ setHeader()</text>
<text text-anchor="start" x="98" y="-426.5" font-family="Helvetica,sans-Serif" font-size="10.00">+ setHeaders()</text>
<text text-anchor="start" x="98" y="-415.5" font-family="Helvetica,sans-Serif" font-size="10.00">and 20 more...</text>
</a>
</g>
</g>
<!-- Node3&#45;&gt;Node2 -->
<g id="edge2" class="edge"><title>Node3&#45;&gt;Node2</title>
<path fill="none" stroke="midnightblue" d="M106.968,-398.686C103.845,-389.685 100.681,-380.568 97.5732,-371.61"/>
<polygon fill="none" stroke="midnightblue" points="103.752,-400.094 110.337,-408.394 110.365,-397.799 103.752,-400.094"/>
</g>
<!-- Node4 -->
<g id="node4" class="node"><title>Node4</title>
<g id="a_node4"><a xlink:href="interfacewcmf_1_1lib_1_1presentation_1_1_request.html" target="_top" xlink:title="Request holds the request values that are used as input to Controller instances. ">
<polygon fill="white" stroke="black" points="152.5,-226.5 152.5,-338.5 271.5,-338.5 271.5,-226.5 152.5,-226.5"/>
<text text-anchor="middle" x="212" y="-326.5" font-family="Helvetica,sans-Serif" font-size="10.00">Request</text>
<polyline fill="none" stroke="black" points="152.5,-319.5 271.5,-319.5 "/>
<text text-anchor="middle" x="212" y="-307.5" font-family="Helvetica,sans-Serif" font-size="10.00"> </text>
<polyline fill="none" stroke="black" points="152.5,-300.5 271.5,-300.5 "/>
<text text-anchor="start" x="160.5" y="-288.5" font-family="Helvetica,sans-Serif" font-size="10.00">+ setResponse()</text>
<text text-anchor="start" x="160.5" y="-277.5" font-family="Helvetica,sans-Serif" font-size="10.00">+ getResponse()</text>
<text text-anchor="start" x="160.5" y="-266.5" font-family="Helvetica,sans-Serif" font-size="10.00">+ initialize()</text>
<text text-anchor="start" x="160.5" y="-255.5" font-family="Helvetica,sans-Serif" font-size="10.00">+ getMethod()</text>
<text text-anchor="start" x="160.5" y="-244.5" font-family="Helvetica,sans-Serif" font-size="10.00">+ setResponseFormat()</text>
<text text-anchor="start" x="160.5" y="-233.5" font-family="Helvetica,sans-Serif" font-size="10.00">+ getResponseFormat()</text>
</a>
</g>
</g>
<!-- Node3&#45;&gt;Node4 -->
<g id="edge4" class="edge"><title>Node3&#45;&gt;Node4</title>
<path fill="none" stroke="midnightblue" d="M171.462,-398.728C178.663,-378.259 186.076,-357.187 192.562,-338.752"/>
<polygon fill="none" stroke="midnightblue" points="168.078,-397.799 168.061,-408.394 174.682,-400.123 168.078,-397.799"/>
</g>
<!-- Node4&#45;&gt;Node1 -->
<g id="edge3" class="edge"><title>Node4&#45;&gt;Node1</title>
<path fill="none" stroke="midnightblue" d="M188.611,-216.779C181.686,-197.618 174.036,-176.449 166.859,-156.588"/>
<polygon fill="none" stroke="midnightblue" points="185.362,-218.087 192.052,-226.303 191.945,-215.708 185.362,-218.087"/>
</g>
</g>
</svg>
