<?xml version="1.0" encoding="UTF-8" standalone="no"?>
<!DOCTYPE svg PUBLIC "-//W3C//DTD SVG 1.1//EN"
 "http://www.w3.org/Graphics/SVG/1.1/DTD/svg11.dtd">
<!-- Generated by graphviz version 2.38.0 (20140413.2041)
 -->
<!-- Title: SoapFormat Pages: 1 -->
<svg width="133pt" height="645pt"
 viewBox="0.00 0.00 133.00 645.00" xmlns="http://www.w3.org/2000/svg" xmlns:xlink="http://www.w3.org/1999/xlink">
<g id="graph0" class="graph" transform="scale(1 1) rotate(0) translate(4 641)">
<title>SoapFormat</title>
<polygon fill="white" stroke="none" points="-4,4 -4,-641 129,-641 129,4 -4,4"/>
<!-- Node1 -->
<g id="node1" class="node"><title>Node1</title>
<polygon fill="#bfbfbf" stroke="black" points="10.5,-0.5 10.5,-134.5 114.5,-134.5 114.5,-0.5 10.5,-0.5"/>
<text text-anchor="middle" x="62.5" y="-122.5" font-family="Helvetica,sans-Serif" font-size="10.00">SoapFormat</text>
<polyline fill="none" stroke="black" points="10.5,-115.5 114.5,-115.5 "/>
<text text-anchor="start" x="18.5" y="-103.5" font-family="Helvetica,sans-Serif" font-size="10.00"># $serializer</text>
<polyline fill="none" stroke="black" points="10.5,-96.5 114.5,-96.5 "/>
<text text-anchor="start" x="18.5" y="-84.5" font-family="Helvetica,sans-Serif" font-size="10.00">+ __construct()</text>
<text text-anchor="start" x="18.5" y="-73.5" font-family="Helvetica,sans-Serif" font-size="10.00">+ getMimeType()</text>
<text text-anchor="start" x="18.5" y="-62.5" font-family="Helvetica,sans-Serif" font-size="10.00">+ isCached()</text>
<text text-anchor="start" x="18.5" y="-51.5" font-family="Helvetica,sans-Serif" font-size="10.00">+ getCacheDate()</text>
<text text-anchor="start" x="18.5" y="-40.5" font-family="Helvetica,sans-Serif" font-size="10.00">+ setSerializer()</text>
<text text-anchor="start" x="18.5" y="-29.5" font-family="Helvetica,sans-Serif" font-size="10.00"># isSerializedNode()</text>
<text text-anchor="start" x="18.5" y="-18.5" font-family="Helvetica,sans-Serif" font-size="10.00"># serializeNode()</text>
<text text-anchor="start" x="18.5" y="-7.5" font-family="Helvetica,sans-Serif" font-size="10.00"># deserializeNode()</text>
</g>
<!-- Node2 -->
<g id="node2" class="node"><title>Node2</title>
<g id="a_node2"><a xlink:href="classwcmf_1_1lib_1_1presentation_1_1format_1_1impl_1_1_hierarchical_format.html" target="_top" xlink:title="HierarchicalFormat is used as base class for formats that are able to represent hierarchical data lik...">
<polygon fill="white" stroke="black" points="5.5,-171.5 5.5,-283.5 119.5,-283.5 119.5,-171.5 5.5,-171.5"/>
<text text-anchor="middle" x="62.5" y="-271.5" font-family="Helvetica,sans-Serif" font-size="10.00">HierarchicalFormat</text>
<polyline fill="none" stroke="black" points="5.5,-264.5 119.5,-264.5 "/>
<text text-anchor="middle" x="62.5" y="-252.5" font-family="Helvetica,sans-Serif" font-size="10.00"> </text>
<polyline fill="none" stroke="black" points="5.5,-245.5 119.5,-245.5 "/>
<text text-anchor="start" x="13.5" y="-233.5" font-family="Helvetica,sans-Serif" font-size="10.00"># deserializeValues()</text>
<text text-anchor="start" x="13.5" y="-222.5" font-family="Helvetica,sans-Serif" font-size="10.00"># serializeValues()</text>
<text text-anchor="start" x="13.5" y="-211.5" font-family="Helvetica,sans-Serif" font-size="10.00"># isSerializedNode()</text>
<text text-anchor="start" x="13.5" y="-200.5" font-family="Helvetica,sans-Serif" font-size="10.00"># isDeserializedNode()</text>
<text text-anchor="start" x="13.5" y="-189.5" font-family="Helvetica,sans-Serif" font-size="10.00"># serializeNode()</text>
<text text-anchor="start" x="13.5" y="-178.5" font-family="Helvetica,sans-Serif" font-size="10.00"># deserializeNode()</text>
</a>
</g>
</g>
<!-- Node2&#45;&gt;Node1 -->
<g id="edge1" class="edge"><title>Node2&#45;&gt;Node1</title>
<path fill="none" stroke="midnightblue" d="M62.5,-161.094C62.5,-152.339 62.5,-143.354 62.5,-134.587"/>
<polygon fill="none" stroke="midnightblue" points="59.0001,-161.239 62.5,-171.239 66.0001,-161.239 59.0001,-161.239"/>
</g>
<!-- Node3 -->
<g id="node3" class="node"><title>Node3</title>
<g id="a_node3"><a xlink:href="classwcmf_1_1lib_1_1presentation_1_1format_1_1impl_1_1_abstract_format.html" target="_top" xlink:title="AbstractFormat is used as base class for specialized formats. ">
<polygon fill="white" stroke="black" points="0,-320.5 0,-487.5 125,-487.5 125,-320.5 0,-320.5"/>
<text text-anchor="middle" x="62.5" y="-475.5" font-family="Helvetica,sans-Serif" font-size="10.00">AbstractFormat</text>
<polyline fill="none" stroke="black" points="0,-468.5 125,-468.5 "/>
<text text-anchor="middle" x="62.5" y="-456.5" font-family="Helvetica,sans-Serif" font-size="10.00"> </text>
<polyline fill="none" stroke="black" points="0,-449.5 125,-449.5 "/>
<text text-anchor="start" x="8" y="-437.5" font-family="Helvetica,sans-Serif" font-size="10.00">+ deserialize()</text>
<text text-anchor="start" x="8" y="-426.5" font-family="Helvetica,sans-Serif" font-size="10.00">+ serialize()</text>
<text text-anchor="start" x="8" y="-415.5" font-family="Helvetica,sans-Serif" font-size="10.00">+ getResponseHeaders()</text>
<text text-anchor="start" x="8" y="-404.5" font-family="Helvetica,sans-Serif" font-size="10.00"># beforeDeserialize()</text>
<text text-anchor="start" x="8" y="-393.5" font-family="Helvetica,sans-Serif" font-size="10.00"># deserializeValues()</text>
<text text-anchor="start" x="8" y="-382.5" font-family="Helvetica,sans-Serif" font-size="10.00"># afterDeserialize()</text>
<text text-anchor="start" x="8" y="-371.5" font-family="Helvetica,sans-Serif" font-size="10.00"># beforeSerialize()</text>
<text text-anchor="start" x="8" y="-360.5" font-family="Helvetica,sans-Serif" font-size="10.00"># serializeValues()</text>
<text text-anchor="start" x="8" y="-349.5" font-family="Helvetica,sans-Serif" font-size="10.00"># afterSerialize()</text>
<text text-anchor="start" x="8" y="-338.5" font-family="Helvetica,sans-Serif" font-size="10.00"># getNode()</text>
<text text-anchor="start" x="8" y="-327.5" font-family="Helvetica,sans-Serif" font-size="10.00"># filterValue()</text>
</a>
</g>
</g>
<!-- Node3&#45;&gt;Node2 -->
<g id="edge2" class="edge"><title>Node3&#45;&gt;Node2</title>
<path fill="none" stroke="midnightblue" d="M62.5,-310.225C62.5,-301.269 62.5,-292.392 62.5,-283.971"/>
<polygon fill="none" stroke="midnightblue" points="59.0001,-310.349 62.5,-320.349 66.0001,-310.349 59.0001,-310.349"/>
</g>
<!-- Node4 -->
<g id="node4" class="node"><title>Node4</title>
<g id="a_node4"><a xlink:href="interfacewcmf_1_1lib_1_1presentation_1_1format_1_1_format.html" target="_top" xlink:title="Format defines the interface for all format classes. ">
<polygon fill="white" stroke="black" points="0,-524.5 0,-636.5 125,-636.5 125,-524.5 0,-524.5"/>
<text text-anchor="middle" x="62.5" y="-624.5" font-family="Helvetica,sans-Serif" font-size="10.00">Format</text>
<polyline fill="none" stroke="black" points="0,-617.5 125,-617.5 "/>
<text text-anchor="middle" x="62.5" y="-605.5" font-family="Helvetica,sans-Serif" font-size="10.00"> </text>
<polyline fill="none" stroke="black" points="0,-598.5 125,-598.5 "/>
<text text-anchor="start" x="8" y="-586.5" font-family="Helvetica,sans-Serif" font-size="10.00">+ getMimeType()</text>
<text text-anchor="start" x="8" y="-575.5" font-family="Helvetica,sans-Serif" font-size="10.00">+ deserialize()</text>
<text text-anchor="start" x="8" y="-564.5" font-family="Helvetica,sans-Serif" font-size="10.00">+ serialize()</text>
<text text-anchor="start" x="8" y="-553.5" font-family="Helvetica,sans-Serif" font-size="10.00">+ isCached()</text>
<text text-anchor="start" x="8" y="-542.5" font-family="Helvetica,sans-Serif" font-size="10.00">+ getCacheDate()</text>
<text text-anchor="start" x="8" y="-531.5" font-family="Helvetica,sans-Serif" font-size="10.00">+ getResponseHeaders()</text>
</a>
</g>
</g>
<!-- Node4&#45;&gt;Node3 -->
<g id="edge3" class="edge"><title>Node4&#45;&gt;Node3</title>
<path fill="none" stroke="midnightblue" d="M62.5,-514.242C62.5,-505.543 62.5,-496.532 62.5,-487.587"/>
<polygon fill="none" stroke="midnightblue" points="59.0001,-514.287 62.5,-524.287 66.0001,-514.287 59.0001,-514.287"/>
</g>
</g>
</svg>
