<?xml version="1.0" encoding="UTF-8" standalone="no"?>
<!DOCTYPE svg PUBLIC "-//W3C//DTD SVG 1.1//EN"
 "http://www.w3.org/Graphics/SVG/1.1/DTD/svg11.dtd">
<!-- Generated by graphviz version 2.38.0 (20140413.2041)
 -->
<!-- Title: AbstractPermissionManager Pages: 1 -->
<svg width="604pt" height="424pt"
 viewBox="0.00 0.00 603.50 424.00" xmlns="http://www.w3.org/2000/svg" xmlns:xlink="http://www.w3.org/1999/xlink">
<g id="graph0" class="graph" transform="scale(1 1) rotate(0) translate(4 420)">
<title>AbstractPermissionManager</title>
<polygon fill="white" stroke="none" points="-4,4 -4,-420 599.5,-420 599.5,4 -4,4"/>
<!-- Node1 -->
<g id="node1" class="node"><title>Node1</title>
<polygon fill="#bfbfbf" stroke="black" points="206,-182.5 206,-415.5 386,-415.5 386,-182.5 206,-182.5"/>
<text text-anchor="middle" x="296" y="-403.5" font-family="Helvetica,sans-Serif" font-size="10.00">AbstractPermissionManager</text>
<polyline fill="none" stroke="black" points="206,-396.5 386,-396.5 "/>
<text text-anchor="start" x="214" y="-384.5" font-family="Helvetica,sans-Serif" font-size="10.00">+ RESOURCE_TYPE_ENTITY_TYPE</text>
<text text-anchor="start" x="214" y="-373.5" font-family="Helvetica,sans-Serif" font-size="10.00">+ RESOURCE_TYPE_ENTITY</text>
<text text-anchor="start" x="214" y="-362.5" font-family="Helvetica,sans-Serif" font-size="10.00">_TYPE_PROPERTY</text>
<text text-anchor="start" x="214" y="-351.5" font-family="Helvetica,sans-Serif" font-size="10.00">+ RESOURCE_TYPE_ENTITY</text>
<text text-anchor="start" x="214" y="-340.5" font-family="Helvetica,sans-Serif" font-size="10.00">_INSTANCE</text>
<text text-anchor="start" x="214" y="-329.5" font-family="Helvetica,sans-Serif" font-size="10.00">+ RESOURCE_TYPE_ENTITY</text>
<text text-anchor="start" x="214" y="-318.5" font-family="Helvetica,sans-Serif" font-size="10.00">_INSTANCE_PROPERTY</text>
<text text-anchor="start" x="214" y="-307.5" font-family="Helvetica,sans-Serif" font-size="10.00">+ RESOURCE_TYPE_OTHER</text>
<polyline fill="none" stroke="black" points="206,-300.5 386,-300.5 "/>
<text text-anchor="start" x="214" y="-288.5" font-family="Helvetica,sans-Serif" font-size="10.00">+ authorize()</text>
<text text-anchor="start" x="214" y="-277.5" font-family="Helvetica,sans-Serif" font-size="10.00">+ addTempPermission()</text>
<text text-anchor="start" x="214" y="-266.5" font-family="Helvetica,sans-Serif" font-size="10.00">+ removeTempPermission()</text>
<text text-anchor="start" x="214" y="-255.5" font-family="Helvetica,sans-Serif" font-size="10.00">+ hasTempPermission()</text>
<text text-anchor="start" x="214" y="-244.5" font-family="Helvetica,sans-Serif" font-size="10.00">+ clearTempPermissions()</text>
<text text-anchor="start" x="214" y="-233.5" font-family="Helvetica,sans-Serif" font-size="10.00"># authorizeAction()</text>
<text text-anchor="start" x="214" y="-222.5" font-family="Helvetica,sans-Serif" font-size="10.00"># getDefaultPolicy()</text>
<text text-anchor="start" x="214" y="-211.5" font-family="Helvetica,sans-Serif" font-size="10.00"># deserializePermissions()</text>
<text text-anchor="start" x="214" y="-200.5" font-family="Helvetica,sans-Serif" font-size="10.00"># serializePermissions()</text>
<text text-anchor="start" x="214" y="-189.5" font-family="Helvetica,sans-Serif" font-size="10.00"># matchRoles()</text>
</g>
<!-- Node2 -->
<g id="node2" class="node"><title>Node2</title>
<g id="a_node2"><a xlink:href="classwcmf_1_1lib_1_1security_1_1impl_1_1_chained_permission_manager.html" target="_top" xlink:title="ChainedPermissionManager retrieves authorization rules included managers. ">
<polygon fill="white" stroke="black" points="0,-22.5 0,-123.5 138,-123.5 138,-22.5 0,-22.5"/>
<text text-anchor="middle" x="69" y="-111.5" font-family="Helvetica,sans-Serif" font-size="10.00">ChainedPermissionManager</text>
<polyline fill="none" stroke="black" points="0,-104.5 138,-104.5 "/>
<text text-anchor="middle" x="69" y="-92.5" font-family="Helvetica,sans-Serif" font-size="10.00"> </text>
<polyline fill="none" stroke="black" points="0,-85.5 138,-85.5 "/>
<text text-anchor="start" x="8" y="-73.5" font-family="Helvetica,sans-Serif" font-size="10.00">+ setManagers()</text>
<text text-anchor="start" x="8" y="-62.5" font-family="Helvetica,sans-Serif" font-size="10.00">+ getPermissions()</text>
<text text-anchor="start" x="8" y="-51.5" font-family="Helvetica,sans-Serif" font-size="10.00">+ setPermissions()</text>
<text text-anchor="start" x="8" y="-40.5" font-family="Helvetica,sans-Serif" font-size="10.00">+ createPermission()</text>
<text text-anchor="start" x="8" y="-29.5" font-family="Helvetica,sans-Serif" font-size="10.00">+ removePermission()</text>
</a>
</g>
</g>
<!-- Node1&#45;&gt;Node2 -->
<g id="edge1" class="edge"><title>Node1&#45;&gt;Node2</title>
<path fill="none" stroke="midnightblue" d="M198.668,-201.954C171.344,-174.991 142.744,-146.769 119.378,-123.712"/>
<polygon fill="none" stroke="midnightblue" points="196.381,-204.615 205.958,-209.148 201.298,-199.632 196.381,-204.615"/>
</g>
<!-- Node3 -->
<g id="node3" class="node"><title>Node3</title>
<g id="a_node3"><a xlink:href="classwcmf_1_1lib_1_1security_1_1impl_1_1_default_permission_manager.html" target="_top" xlink:title="DefaultPermissionManager retrieves authorization rules the storage. ">
<polygon fill="white" stroke="black" points="156.5,-0.5 156.5,-145.5 291.5,-145.5 291.5,-0.5 156.5,-0.5"/>
<text text-anchor="middle" x="224" y="-133.5" font-family="Helvetica,sans-Serif" font-size="10.00">DefaultPermissionManager</text>
<polyline fill="none" stroke="black" points="156.5,-126.5 291.5,-126.5 "/>
<text text-anchor="middle" x="224" y="-114.5" font-family="Helvetica,sans-Serif" font-size="10.00"> </text>
<polyline fill="none" stroke="black" points="156.5,-107.5 291.5,-107.5 "/>
<text text-anchor="start" x="164.5" y="-95.5" font-family="Helvetica,sans-Serif" font-size="10.00">+ __construct()</text>
<text text-anchor="start" x="164.5" y="-84.5" font-family="Helvetica,sans-Serif" font-size="10.00">+ setPermissionType()</text>
<text text-anchor="start" x="164.5" y="-73.5" font-family="Helvetica,sans-Serif" font-size="10.00">+ getPermissions()</text>
<text text-anchor="start" x="164.5" y="-62.5" font-family="Helvetica,sans-Serif" font-size="10.00">+ setPermissions()</text>
<text text-anchor="start" x="164.5" y="-51.5" font-family="Helvetica,sans-Serif" font-size="10.00">+ createPermission()</text>
<text text-anchor="start" x="164.5" y="-40.5" font-family="Helvetica,sans-Serif" font-size="10.00">+ removePermission()</text>
<text text-anchor="start" x="164.5" y="-29.5" font-family="Helvetica,sans-Serif" font-size="10.00"># modifyPermission()</text>
<text text-anchor="start" x="164.5" y="-18.5" font-family="Helvetica,sans-Serif" font-size="10.00"># getPermissionInstance()</text>
<text text-anchor="start" x="164.5" y="-7.5" font-family="Helvetica,sans-Serif" font-size="10.00"># createPermissionObject()</text>
</a>
</g>
</g>
<!-- Node1&#45;&gt;Node3 -->
<g id="edge2" class="edge"><title>Node1&#45;&gt;Node3</title>
<path fill="none" stroke="midnightblue" d="M255.736,-172.733C252.767,-163.498 249.838,-154.385 247.03,-145.649"/>
<polygon fill="none" stroke="midnightblue" points="252.448,-173.942 258.84,-182.391 259.112,-171.8 252.448,-173.942"/>
</g>
<!-- Node4 -->
<g id="node4" class="node"><title>Node4</title>
<g id="a_node4"><a xlink:href="classwcmf_1_1lib_1_1security_1_1impl_1_1_null_permission_manager.html" target="_top" xlink:title="NullPermissionManager acts like an absent PermissionManager. ">
<polygon fill="white" stroke="black" points="309.5,-28 309.5,-118 428.5,-118 428.5,-28 309.5,-28"/>
<text text-anchor="middle" x="369" y="-106" font-family="Helvetica,sans-Serif" font-size="10.00">NullPermissionManager</text>
<polyline fill="none" stroke="black" points="309.5,-99 428.5,-99 "/>
<text text-anchor="middle" x="369" y="-87" font-family="Helvetica,sans-Serif" font-size="10.00"> </text>
<polyline fill="none" stroke="black" points="309.5,-80 428.5,-80 "/>
<text text-anchor="start" x="317.5" y="-68" font-family="Helvetica,sans-Serif" font-size="10.00">+ getPermissions()</text>
<text text-anchor="start" x="317.5" y="-57" font-family="Helvetica,sans-Serif" font-size="10.00">+ setPermissions()</text>
<text text-anchor="start" x="317.5" y="-46" font-family="Helvetica,sans-Serif" font-size="10.00">+ createPermission()</text>
<text text-anchor="start" x="317.5" y="-35" font-family="Helvetica,sans-Serif" font-size="10.00">+ removePermission()</text>
</a>
</g>
</g>
<!-- Node1&#45;&gt;Node4 -->
<g id="edge3" class="edge"><title>Node1&#45;&gt;Node4</title>
<path fill="none" stroke="midnightblue" d="M336.816,-172.756C343.191,-153.196 349.387,-134.183 354.613,-118.148"/>
<polygon fill="none" stroke="midnightblue" points="333.447,-171.799 333.676,-182.391 340.102,-173.968 333.447,-171.799"/>
</g>
<!-- Node5 -->
<g id="node5" class="node"><title>Node5</title>
<g id="a_node5"><a xlink:href="classwcmf_1_1lib_1_1security_1_1impl_1_1_static_permission_manager.html" target="_top" xlink:title="StaticPermissionManager retrieves authorization rules from the application configuration. ">
<polygon fill="white" stroke="black" points="446.5,-11.5 446.5,-134.5 595.5,-134.5 595.5,-11.5 446.5,-11.5"/>
<text text-anchor="middle" x="521" y="-122.5" font-family="Helvetica,sans-Serif" font-size="10.00">StaticPermissionManager</text>
<polyline fill="none" stroke="black" points="446.5,-115.5 595.5,-115.5 "/>
<text text-anchor="start" x="454.5" y="-103.5" font-family="Helvetica,sans-Serif" font-size="10.00">+ AUTHORIZATION_SECTION</text>
<polyline fill="none" stroke="black" points="446.5,-96.5 595.5,-96.5 "/>
<text text-anchor="start" x="454.5" y="-84.5" font-family="Helvetica,sans-Serif" font-size="10.00">+ __construct()</text>
<text text-anchor="start" x="454.5" y="-73.5" font-family="Helvetica,sans-Serif" font-size="10.00">+ getPermissions()</text>
<text text-anchor="start" x="454.5" y="-62.5" font-family="Helvetica,sans-Serif" font-size="10.00">+ setPermissions()</text>
<text text-anchor="start" x="454.5" y="-51.5" font-family="Helvetica,sans-Serif" font-size="10.00">+ createPermission()</text>
<text text-anchor="start" x="454.5" y="-40.5" font-family="Helvetica,sans-Serif" font-size="10.00">+ removePermission()</text>
<text text-anchor="start" x="454.5" y="-29.5" font-family="Helvetica,sans-Serif" font-size="10.00"># modifyPermission()</text>
<text text-anchor="start" x="454.5" y="-18.5" font-family="Helvetica,sans-Serif" font-size="10.00"># getConfigurationInstance()</text>
</a>
</g>
</g>
<!-- Node1&#45;&gt;Node5 -->
<g id="edge4" class="edge"><title>Node1&#45;&gt;Node5</title>
<path fill="none" stroke="midnightblue" d="M393.529,-200.904C416.146,-178.388 439.584,-155.054 460.1,-134.629"/>
<polygon fill="none" stroke="midnightblue" points="390.837,-198.646 386.22,-208.181 395.776,-203.606 390.837,-198.646"/>
</g>
</g>
</svg>
