<?xml version="1.0" encoding="UTF-8" standalone="no"?>
<!DOCTYPE svg PUBLIC "-//W3C//DTD SVG 1.1//EN"
 "http://www.w3.org/Graphics/SVG/1.1/DTD/svg11.dtd">
<!-- Generated by graphviz version 2.38.0 (20140413.2041)
 -->
<!-- Title: BatchController Pages: 1 -->
<svg width="852pt" height="771pt"
 viewBox="0.00 0.00 852.00 771.00" xmlns="http://www.w3.org/2000/svg" xmlns:xlink="http://www.w3.org/1999/xlink">
<g id="graph0" class="graph" transform="scale(1 1) rotate(0) translate(4 767)">
<title>BatchController</title>
<polygon fill="white" stroke="none" points="-4,4 -4,-767 848,-767 848,4 -4,4"/>
<!-- Node1 -->
<g id="node1" class="node"><title>Node1</title>
<polygon fill="#bfbfbf" stroke="black" points="326,-281.5 326,-503.5 465,-503.5 465,-281.5 326,-281.5"/>
<text text-anchor="middle" x="395.5" y="-491.5" font-family="Helvetica,sans-Serif" font-size="10.00">BatchController</text>
<polyline fill="none" stroke="black" points="326,-484.5 465,-484.5 "/>
<text text-anchor="start" x="334" y="-472.5" font-family="Helvetica,sans-Serif" font-size="10.00">+ REQUEST_VAR</text>
<text text-anchor="start" x="334" y="-461.5" font-family="Helvetica,sans-Serif" font-size="10.00">+ ONE_CALL_VAR</text>
<text text-anchor="start" x="334" y="-450.5" font-family="Helvetica,sans-Serif" font-size="10.00">+ STEP_VAR</text>
<text text-anchor="start" x="334" y="-439.5" font-family="Helvetica,sans-Serif" font-size="10.00">+ NUM_STEPS_VAR</text>
<text text-anchor="start" x="334" y="-428.5" font-family="Helvetica,sans-Serif" font-size="10.00">+ DOWNLOAD_STEP_VAR</text>
<text text-anchor="start" x="334" y="-417.5" font-family="Helvetica,sans-Serif" font-size="10.00">+ PACKAGES_VAR</text>
<polyline fill="none" stroke="black" points="326,-410.5 465,-410.5 "/>
<text text-anchor="start" x="334" y="-398.5" font-family="Helvetica,sans-Serif" font-size="10.00">+ initialize()</text>
<text text-anchor="start" x="334" y="-387.5" font-family="Helvetica,sans-Serif" font-size="10.00"># doExecute()</text>
<text text-anchor="start" x="334" y="-376.5" font-family="Helvetica,sans-Serif" font-size="10.00"># getStepNumber()</text>
<text text-anchor="start" x="334" y="-365.5" font-family="Helvetica,sans-Serif" font-size="10.00"># addWorkPackage()</text>
<text text-anchor="start" x="334" y="-354.5" font-family="Helvetica,sans-Serif" font-size="10.00"># processPart()</text>
<text text-anchor="start" x="334" y="-343.5" font-family="Helvetica,sans-Serif" font-size="10.00"># getRequestValue()</text>
<text text-anchor="start" x="334" y="-332.5" font-family="Helvetica,sans-Serif" font-size="10.00"># getNumberOfSteps()</text>
<text text-anchor="start" x="334" y="-321.5" font-family="Helvetica,sans-Serif" font-size="10.00"># getDisplayText()</text>
<text text-anchor="start" x="334" y="-310.5" font-family="Helvetica,sans-Serif" font-size="10.00"># getDownloadFile()</text>
<text text-anchor="start" x="334" y="-299.5" font-family="Helvetica,sans-Serif" font-size="10.00"># getWorkPackage()</text>
<text text-anchor="start" x="334" y="-288.5" font-family="Helvetica,sans-Serif" font-size="10.00"># cleanup()</text>
</g>
<!-- Node3 -->
<g id="node3" class="node"><title>Node3</title>
<g id="a_node3"><a xlink:href="classwcmf_1_1application_1_1controller_1_1_batch_display_controller.html" target="_top" xlink:title="BatchDisplayController is used to load a tree of Node instances recursivly and return them in lists o...">
<polygon fill="white" stroke="black" points="0,-39 0,-206 123,-206 123,-39 0,-39"/>
<text text-anchor="middle" x="61.5" y="-194" font-family="Helvetica,sans-Serif" font-size="10.00">BatchDisplayController</text>
<polyline fill="none" stroke="black" points="0,-187 123,-187 "/>
<text text-anchor="start" x="8" y="-175" font-family="Helvetica,sans-Serif" font-size="10.00">+ REGISTRY_VAR</text>
<text text-anchor="start" x="8" y="-164" font-family="Helvetica,sans-Serif" font-size="10.00">+ ITERATOR_ID_VAR</text>
<polyline fill="none" stroke="black" points="0,-157 123,-157 "/>
<text text-anchor="start" x="8" y="-145" font-family="Helvetica,sans-Serif" font-size="10.00">+ initialize()</text>
<text text-anchor="start" x="8" y="-134" font-family="Helvetica,sans-Serif" font-size="10.00"># validate()</text>
<text text-anchor="start" x="8" y="-123" font-family="Helvetica,sans-Serif" font-size="10.00"># getWorkPackage()</text>
<text text-anchor="start" x="8" y="-112" font-family="Helvetica,sans-Serif" font-size="10.00"># startProcess()</text>
<text text-anchor="start" x="8" y="-101" font-family="Helvetica,sans-Serif" font-size="10.00"># loadNodes()</text>
<text text-anchor="start" x="8" y="-90" font-family="Helvetica,sans-Serif" font-size="10.00"># endProcess()</text>
<text text-anchor="start" x="8" y="-79" font-family="Helvetica,sans-Serif" font-size="10.00"># loadNode()</text>
<text text-anchor="start" x="8" y="-68" font-family="Helvetica,sans-Serif" font-size="10.00"># register()</text>
<text text-anchor="start" x="8" y="-57" font-family="Helvetica,sans-Serif" font-size="10.00"># isRegistered()</text>
<text text-anchor="start" x="8" y="-46" font-family="Helvetica,sans-Serif" font-size="10.00"># addNodeToResponse()</text>
</a>
</g>
</g>
<!-- Node1&#45;&gt;Node3 -->
<g id="edge2" class="edge"><title>Node1&#45;&gt;Node3</title>
<path fill="none" stroke="midnightblue" d="M316.571,-360.915C260.232,-336.117 185.374,-296.795 132.5,-245 120.981,-233.716 110.683,-220.175 101.741,-206.29"/>
<polygon fill="none" stroke="midnightblue" points="315.235,-364.151 325.801,-364.922 318.022,-357.729 315.235,-364.151"/>
</g>
<!-- Node4 -->
<g id="node4" class="node"><title>Node4</title>
<g id="a_node4"><a xlink:href="classwcmf_1_1application_1_1controller_1_1_copy_controller.html" target="_top" xlink:title="CopyController is used to copy or move Node instances. ">
<polygon fill="white" stroke="black" points="141.5,-0.5 141.5,-244.5 257.5,-244.5 257.5,-0.5 141.5,-0.5"/>
<text text-anchor="middle" x="199.5" y="-232.5" font-family="Helvetica,sans-Serif" font-size="10.00">CopyController</text>
<polyline fill="none" stroke="black" points="141.5,-225.5 257.5,-225.5 "/>
<text text-anchor="start" x="149.5" y="-213.5" font-family="Helvetica,sans-Serif" font-size="10.00">+ OBJECT_MAP_VAR</text>
<text text-anchor="start" x="149.5" y="-202.5" font-family="Helvetica,sans-Serif" font-size="10.00">+ ACTION_VAR</text>
<text text-anchor="start" x="149.5" y="-191.5" font-family="Helvetica,sans-Serif" font-size="10.00">+ ITERATOR_ID_VAR</text>
<polyline fill="none" stroke="black" points="141.5,-184.5 257.5,-184.5 "/>
<text text-anchor="start" x="149.5" y="-172.5" font-family="Helvetica,sans-Serif" font-size="10.00">+ __construct()</text>
<text text-anchor="start" x="149.5" y="-161.5" font-family="Helvetica,sans-Serif" font-size="10.00">+ __destruct()</text>
<text text-anchor="start" x="149.5" y="-150.5" font-family="Helvetica,sans-Serif" font-size="10.00">+ initialize()</text>
<text text-anchor="start" x="149.5" y="-139.5" font-family="Helvetica,sans-Serif" font-size="10.00">+ afterCommit()</text>
<text text-anchor="start" x="149.5" y="-128.5" font-family="Helvetica,sans-Serif" font-size="10.00"># validate()</text>
<text text-anchor="start" x="149.5" y="-117.5" font-family="Helvetica,sans-Serif" font-size="10.00"># getWorkPackage()</text>
<text text-anchor="start" x="149.5" y="-106.5" font-family="Helvetica,sans-Serif" font-size="10.00"># startProcess()</text>
<text text-anchor="start" x="149.5" y="-95.5" font-family="Helvetica,sans-Serif" font-size="10.00"># copyNodes()</text>
<text text-anchor="start" x="149.5" y="-84.5" font-family="Helvetica,sans-Serif" font-size="10.00"># endProcess()</text>
<text text-anchor="start" x="149.5" y="-73.5" font-family="Helvetica,sans-Serif" font-size="10.00"># copyNode()</text>
<text text-anchor="start" x="149.5" y="-62.5" font-family="Helvetica,sans-Serif" font-size="10.00"># getTargetNode()</text>
<text text-anchor="start" x="149.5" y="-51.5" font-family="Helvetica,sans-Serif" font-size="10.00"># registerCopy()</text>
<text text-anchor="start" x="149.5" y="-40.5" font-family="Helvetica,sans-Serif" font-size="10.00"># updateCopyOIDs()</text>
<text text-anchor="start" x="149.5" y="-29.5" font-family="Helvetica,sans-Serif" font-size="10.00"># getCopyOID()</text>
<text text-anchor="start" x="149.5" y="-18.5" font-family="Helvetica,sans-Serif" font-size="10.00"># getCopy()</text>
<text text-anchor="start" x="149.5" y="-7.5" font-family="Helvetica,sans-Serif" font-size="10.00"># modify()</text>
</a>
</g>
</g>
<!-- Node1&#45;&gt;Node4 -->
<g id="edge3" class="edge"><title>Node1&#45;&gt;Node4</title>
<path fill="none" stroke="midnightblue" d="M319.241,-311.231C301.026,-290.39 282.301,-267.466 266.5,-245 263.521,-240.764 260.569,-236.382 257.662,-231.909"/>
<polygon fill="none" stroke="midnightblue" points="316.684,-313.623 325.922,-318.811 321.935,-308.995 316.684,-313.623"/>
</g>
<!-- Node5 -->
<g id="node5" class="node"><title>Node5</title>
<g id="a_node5"><a xlink:href="classwcmf_1_1application_1_1controller_1_1_c_s_v_export_controller.html" target="_top" xlink:title="CSVExportController exports instances of one type into a CSV file. ">
<polygon fill="white" stroke="black" points="276,-61 276,-184 383,-184 383,-61 276,-61"/>
<text text-anchor="middle" x="329.5" y="-172" font-family="Helvetica,sans-Serif" font-size="10.00">CSVExportController</text>
<polyline fill="none" stroke="black" points="276,-165 383,-165 "/>
<text text-anchor="middle" x="329.5" y="-153" font-family="Helvetica,sans-Serif" font-size="10.00"> </text>
<polyline fill="none" stroke="black" points="276,-146 383,-146 "/>
<text text-anchor="start" x="284" y="-134" font-family="Helvetica,sans-Serif" font-size="10.00">+ initialize()</text>
<text text-anchor="start" x="284" y="-123" font-family="Helvetica,sans-Serif" font-size="10.00"># validate()</text>
<text text-anchor="start" x="284" y="-112" font-family="Helvetica,sans-Serif" font-size="10.00"># getWorkPackage()</text>
<text text-anchor="start" x="284" y="-101" font-family="Helvetica,sans-Serif" font-size="10.00"># getDownloadFile()</text>
<text text-anchor="start" x="284" y="-90" font-family="Helvetica,sans-Serif" font-size="10.00"># initExport()</text>
<text text-anchor="start" x="284" y="-79" font-family="Helvetica,sans-Serif" font-size="10.00"># exportNodes()</text>
<text text-anchor="start" x="284" y="-68" font-family="Helvetica,sans-Serif" font-size="10.00"># cleanup()</text>
</a>
</g>
</g>
<!-- Node1&#45;&gt;Node5 -->
<g id="edge4" class="edge"><title>Node1&#45;&gt;Node5</title>
<path fill="none" stroke="midnightblue" d="M365.962,-271.556C358.513,-241.311 350.827,-210.1 344.443,-184.179"/>
<polygon fill="none" stroke="midnightblue" points="362.58,-272.461 368.37,-281.334 369.377,-270.787 362.58,-272.461"/>
</g>
<!-- Node6 -->
<g id="node6" class="node"><title>Node6</title>
<g id="a_node6"><a xlink:href="classwcmf_1_1application_1_1controller_1_1_c_s_v_import_controller.html" target="_top" xlink:title="CSVImportController imports instances of one type into the storage. ">
<polygon fill="white" stroke="black" points="401,-61 401,-184 522,-184 522,-61 401,-61"/>
<text text-anchor="middle" x="461.5" y="-172" font-family="Helvetica,sans-Serif" font-size="10.00">CSVImportController</text>
<polyline fill="none" stroke="black" points="401,-165 522,-165 "/>
<text text-anchor="start" x="409" y="-153" font-family="Helvetica,sans-Serif" font-size="10.00">+ CACHE_KEY_STATS</text>
<polyline fill="none" stroke="black" points="401,-146 522,-146 "/>
<text text-anchor="start" x="409" y="-134" font-family="Helvetica,sans-Serif" font-size="10.00">+ __construct()</text>
<text text-anchor="start" x="409" y="-123" font-family="Helvetica,sans-Serif" font-size="10.00">+ initialize()</text>
<text text-anchor="start" x="409" y="-112" font-family="Helvetica,sans-Serif" font-size="10.00"># validate()</text>
<text text-anchor="start" x="409" y="-101" font-family="Helvetica,sans-Serif" font-size="10.00"># getWorkPackage()</text>
<text text-anchor="start" x="409" y="-90" font-family="Helvetica,sans-Serif" font-size="10.00"># initImport()</text>
<text text-anchor="start" x="409" y="-79" font-family="Helvetica,sans-Serif" font-size="10.00"># importNodes()</text>
<text text-anchor="start" x="409" y="-68" font-family="Helvetica,sans-Serif" font-size="10.00"># cleanup()</text>
</a>
</g>
</g>
<!-- Node1&#45;&gt;Node6 -->
<g id="edge5" class="edge"><title>Node1&#45;&gt;Node6</title>
<path fill="none" stroke="midnightblue" d="M425.038,-271.556C432.487,-241.311 440.173,-210.1 446.557,-184.179"/>
<polygon fill="none" stroke="midnightblue" points="421.623,-270.787 422.63,-281.334 428.42,-272.461 421.623,-270.787"/>
</g>
<!-- Node7 -->
<g id="node7" class="node"><title>Node7</title>
<g id="a_node7"><a xlink:href="classwcmf_1_1application_1_1controller_1_1_search_index_controller.html" target="_top" xlink:title="SearchIndexController creates a Lucene index from the complete datastore. ">
<polygon fill="white" stroke="black" points="540.5,-66.5 540.5,-178.5 652.5,-178.5 652.5,-66.5 540.5,-66.5"/>
<text text-anchor="middle" x="596.5" y="-166.5" font-family="Helvetica,sans-Serif" font-size="10.00">SearchIndexController</text>
<polyline fill="none" stroke="black" points="540.5,-159.5 652.5,-159.5 "/>
<text text-anchor="middle" x="596.5" y="-147.5" font-family="Helvetica,sans-Serif" font-size="10.00"> </text>
<polyline fill="none" stroke="black" points="540.5,-140.5 652.5,-140.5 "/>
<text text-anchor="start" x="548.5" y="-128.5" font-family="Helvetica,sans-Serif" font-size="10.00">+ __construct()</text>
<text text-anchor="start" x="548.5" y="-117.5" font-family="Helvetica,sans-Serif" font-size="10.00">+ initialize()</text>
<text text-anchor="start" x="548.5" y="-106.5" font-family="Helvetica,sans-Serif" font-size="10.00"># getWorkPackage()</text>
<text text-anchor="start" x="548.5" y="-95.5" font-family="Helvetica,sans-Serif" font-size="10.00"># collect()</text>
<text text-anchor="start" x="548.5" y="-84.5" font-family="Helvetica,sans-Serif" font-size="10.00"># index()</text>
<text text-anchor="start" x="548.5" y="-73.5" font-family="Helvetica,sans-Serif" font-size="10.00"># optimize()</text>
</a>
</g>
</g>
<!-- Node1&#45;&gt;Node7 -->
<g id="edge6" class="edge"><title>Node1&#45;&gt;Node7</title>
<path fill="none" stroke="midnightblue" d="M472.022,-316.505C492.566,-294.455 513.933,-269.62 531.5,-245 546.159,-224.455 559.775,-200.209 570.718,-178.801"/>
<polygon fill="none" stroke="midnightblue" points="469.395,-314.19 465.093,-323.872 474.494,-318.986 469.395,-314.19"/>
</g>
<!-- Node8 -->
<g id="node8" class="node"><title>Node8</title>
<g id="a_node8"><a xlink:href="classwcmf_1_1application_1_1controller_1_1_x_m_l_export_controller.html" target="_top" xlink:title="XMLExportController exports the content tree into an XML file. ">
<polygon fill="white" stroke="black" points="671,-11.5 671,-233.5 844,-233.5 844,-11.5 671,-11.5"/>
<text text-anchor="middle" x="757.5" y="-221.5" font-family="Helvetica,sans-Serif" font-size="10.00">XMLExportController</text>
<polyline fill="none" stroke="black" points="671,-214.5 844,-214.5 "/>
<text text-anchor="start" x="679" y="-202.5" font-family="Helvetica,sans-Serif" font-size="10.00">+ CACHE_KEY_ROOT_OIDS</text>
<text text-anchor="start" x="679" y="-191.5" font-family="Helvetica,sans-Serif" font-size="10.00">+ CACHE_KEY_EXPORTED_OIDS</text>
<text text-anchor="start" x="679" y="-180.5" font-family="Helvetica,sans-Serif" font-size="10.00">+ CACHE_KEY_LAST_INDENT</text>
<text text-anchor="start" x="679" y="-169.5" font-family="Helvetica,sans-Serif" font-size="10.00">+ CACHE_KEY_TAGS_TO_CLOSE</text>
<text text-anchor="start" x="679" y="-158.5" font-family="Helvetica,sans-Serif" font-size="10.00">+ ITERATOR_ID_VAR</text>
<polyline fill="none" stroke="black" points="671,-151.5 844,-151.5 "/>
<text text-anchor="start" x="679" y="-139.5" font-family="Helvetica,sans-Serif" font-size="10.00">+ __construct()</text>
<text text-anchor="start" x="679" y="-128.5" font-family="Helvetica,sans-Serif" font-size="10.00">+ initialize()</text>
<text text-anchor="start" x="679" y="-117.5" font-family="Helvetica,sans-Serif" font-size="10.00"># getWorkPackage()</text>
<text text-anchor="start" x="679" y="-106.5" font-family="Helvetica,sans-Serif" font-size="10.00"># getDownloadFile()</text>
<text text-anchor="start" x="679" y="-95.5" font-family="Helvetica,sans-Serif" font-size="10.00"># initExport()</text>
<text text-anchor="start" x="679" y="-84.5" font-family="Helvetica,sans-Serif" font-size="10.00"># exportNodes()</text>
<text text-anchor="start" x="679" y="-73.5" font-family="Helvetica,sans-Serif" font-size="10.00"># finishExport()</text>
<text text-anchor="start" x="679" y="-62.5" font-family="Helvetica,sans-Serif" font-size="10.00"># endTags()</text>
<text text-anchor="start" x="679" y="-51.5" font-family="Helvetica,sans-Serif" font-size="10.00"># writeNode()</text>
<text text-anchor="start" x="679" y="-40.5" font-family="Helvetica,sans-Serif" font-size="10.00"># getNumUnvisitedChildren()</text>
<text text-anchor="start" x="679" y="-29.5" font-family="Helvetica,sans-Serif" font-size="10.00"># formatValue()</text>
<text text-anchor="start" x="679" y="-18.5" font-family="Helvetica,sans-Serif" font-size="10.00"># cleanup()</text>
</a>
</g>
</g>
<!-- Node1&#45;&gt;Node8 -->
<g id="edge7" class="edge"><title>Node1&#45;&gt;Node8</title>
<path fill="none" stroke="midnightblue" d="M474.362,-358.275C530.195,-332.423 604.91,-292.933 661.5,-245 665.705,-241.438 669.853,-237.667 673.925,-233.744"/>
<polygon fill="none" stroke="midnightblue" points="472.852,-355.117 465.219,-362.465 475.768,-361.481 472.852,-355.117"/>
</g>
<!-- Node2 -->
<g id="node2" class="node"><title>Node2</title>
<g id="a_node2"><a xlink:href="classwcmf_1_1lib_1_1presentation_1_1_controller.html" target="_top" xlink:title="Controller is the base class of all controllers. ">
<polygon fill="white" stroke="black" points="330,-540.5 330,-762.5 461,-762.5 461,-540.5 330,-540.5"/>
<text text-anchor="middle" x="395.5" y="-750.5" font-family="Helvetica,sans-Serif" font-size="10.00">Controller</text>
<polyline fill="none" stroke="black" points="330,-743.5 461,-743.5 "/>
<text text-anchor="start" x="338" y="-731.5" font-family="Helvetica,sans-Serif" font-size="10.00">+ CSRF_TOKEN_PARAM</text>
<polyline fill="none" stroke="black" points="330,-724.5 461,-724.5 "/>
<text text-anchor="start" x="338" y="-712.5" font-family="Helvetica,sans-Serif" font-size="10.00">+ __construct()</text>
<text text-anchor="start" x="338" y="-701.5" font-family="Helvetica,sans-Serif" font-size="10.00">+ initialize()</text>
<text text-anchor="start" x="338" y="-690.5" font-family="Helvetica,sans-Serif" font-size="10.00">+ execute()</text>
<text text-anchor="start" x="338" y="-679.5" font-family="Helvetica,sans-Serif" font-size="10.00">+ getRequest()</text>
<text text-anchor="start" x="338" y="-668.5" font-family="Helvetica,sans-Serif" font-size="10.00">+ getResponse()</text>
<text text-anchor="start" x="338" y="-657.5" font-family="Helvetica,sans-Serif" font-size="10.00"># validate()</text>
<text text-anchor="start" x="338" y="-646.5" font-family="Helvetica,sans-Serif" font-size="10.00"># doExecute()</text>
<text text-anchor="start" x="338" y="-635.5" font-family="Helvetica,sans-Serif" font-size="10.00"># executeSubAction()</text>
<text text-anchor="start" x="338" y="-624.5" font-family="Helvetica,sans-Serif" font-size="10.00"># redirect()</text>
<text text-anchor="start" x="338" y="-613.5" font-family="Helvetica,sans-Serif" font-size="10.00"># getLogger()</text>
<text text-anchor="start" x="338" y="-602.5" font-family="Helvetica,sans-Serif" font-size="10.00"># getSession()</text>
<text text-anchor="start" x="338" y="-591.5" font-family="Helvetica,sans-Serif" font-size="10.00"># getPersistenceFacade()</text>
<text text-anchor="start" x="338" y="-580.5" font-family="Helvetica,sans-Serif" font-size="10.00"># getPermissionManager()</text>
<text text-anchor="start" x="338" y="-569.5" font-family="Helvetica,sans-Serif" font-size="10.00"># getActionMapper()</text>
<text text-anchor="start" x="338" y="-558.5" font-family="Helvetica,sans-Serif" font-size="10.00"># getLocalization()</text>
<text text-anchor="start" x="338" y="-547.5" font-family="Helvetica,sans-Serif" font-size="10.00">and 11 more...</text>
</a>
</g>
</g>
<!-- Node2&#45;&gt;Node1 -->
<g id="edge1" class="edge"><title>Node2&#45;&gt;Node1</title>
<path fill="none" stroke="midnightblue" d="M395.5,-530.117C395.5,-521.337 395.5,-512.506 395.5,-503.79"/>
<polygon fill="none" stroke="midnightblue" points="392,-530.39 395.5,-540.39 399,-530.39 392,-530.39"/>
</g>
</g>
</svg>
