<?xml version="1.0" encoding="UTF-8" standalone="no"?>
<!DOCTYPE svg PUBLIC "-//W3C//DTD SVG 1.1//EN"
 "http://www.w3.org/Graphics/SVG/1.1/DTD/svg11.dtd">
<!-- Generated by graphviz version 2.38.0 (20140413.2041)
 -->
<!-- Title: StringQuery Pages: 1 -->
<svg width="196pt" height="562pt"
 viewBox="0.00 0.00 196.00 562.00" xmlns="http://www.w3.org/2000/svg" xmlns:xlink="http://www.w3.org/1999/xlink">
<g id="graph0" class="graph" transform="scale(1 1) rotate(0) translate(4 558)">
<title>StringQuery</title>
<polygon fill="white" stroke="none" points="-4,4 -4,-558 192,-558 192,4 -4,4"/>
<!-- Node1 -->
<g id="node1" class="node"><title>Node1</title>
<polygon fill="#bfbfbf" stroke="black" points="38.5,-0.5 38.5,-90.5 149.5,-90.5 149.5,-0.5 38.5,-0.5"/>
<text text-anchor="middle" x="94" y="-78.5" font-family="Helvetica,sans-Serif" font-size="10.00">StringQuery</text>
<polyline fill="none" stroke="black" points="38.5,-71.5 149.5,-71.5 "/>
<text text-anchor="middle" x="94" y="-59.5" font-family="Helvetica,sans-Serif" font-size="10.00"> </text>
<polyline fill="none" stroke="black" points="38.5,-52.5 149.5,-52.5 "/>
<text text-anchor="start" x="46.5" y="-40.5" font-family="Helvetica,sans-Serif" font-size="10.00">+ setConditionString()</text>
<text text-anchor="start" x="46.5" y="-29.5" font-family="Helvetica,sans-Serif" font-size="10.00">+ fromRql()</text>
<text text-anchor="start" x="46.5" y="-18.5" font-family="Helvetica,sans-Serif" font-size="10.00"># buildQuery()</text>
<text text-anchor="start" x="46.5" y="-7.5" font-family="Helvetica,sans-Serif" font-size="10.00"># mapToDatabase()</text>
</g>
<!-- Node2 -->
<g id="node2" class="node"><title>Node2</title>
<g id="a_node2"><a xlink:href="classwcmf_1_1lib_1_1model_1_1_object_query.html" target="_top" xlink:title="ObjectQuery implements a template based object query. ">
<polygon fill="white" stroke="black" points="0,-127.5 0,-371.5 188,-371.5 188,-127.5 0,-127.5"/>
<text text-anchor="middle" x="94" y="-359.5" font-family="Helvetica,sans-Serif" font-size="10.00">ObjectQuery</text>
<polyline fill="none" stroke="black" points="0,-352.5 188,-352.5 "/>
<text text-anchor="start" x="8" y="-340.5" font-family="Helvetica,sans-Serif" font-size="10.00">+ PROPERTY_COMBINE_OPERATOR</text>
<text text-anchor="start" x="8" y="-329.5" font-family="Helvetica,sans-Serif" font-size="10.00">+ PROPERTY_TABLE_NAME</text>
<text text-anchor="start" x="8" y="-318.5" font-family="Helvetica,sans-Serif" font-size="10.00">+ PROPERTY_INITIAL_OID</text>
<polyline fill="none" stroke="black" points="0,-311.5 188,-311.5 "/>
<text text-anchor="start" x="8" y="-299.5" font-family="Helvetica,sans-Serif" font-size="10.00">+ __construct()</text>
<text text-anchor="start" x="8" y="-288.5" font-family="Helvetica,sans-Serif" font-size="10.00">+ __destruct()</text>
<text text-anchor="start" x="8" y="-277.5" font-family="Helvetica,sans-Serif" font-size="10.00">+ getId()</text>
<text text-anchor="start" x="8" y="-266.5" font-family="Helvetica,sans-Serif" font-size="10.00">+ getObjectTemplate()</text>
<text text-anchor="start" x="8" y="-255.5" font-family="Helvetica,sans-Serif" font-size="10.00">+ registerObjectTemplate()</text>
<text text-anchor="start" x="8" y="-244.5" font-family="Helvetica,sans-Serif" font-size="10.00">+ makeGroup()</text>
<text text-anchor="start" x="8" y="-233.5" font-family="Helvetica,sans-Serif" font-size="10.00">+ getQueryCondition()</text>
<text text-anchor="start" x="8" y="-222.5" font-family="Helvetica,sans-Serif" font-size="10.00">+ valueChanged()</text>
<text text-anchor="start" x="8" y="-211.5" font-family="Helvetica,sans-Serif" font-size="10.00"># getQueryType()</text>
<text text-anchor="start" x="8" y="-200.5" font-family="Helvetica,sans-Serif" font-size="10.00"># buildQuery()</text>
<text text-anchor="start" x="8" y="-189.5" font-family="Helvetica,sans-Serif" font-size="10.00"># processObjectTemplate()</text>
<text text-anchor="start" x="8" y="-178.5" font-family="Helvetica,sans-Serif" font-size="10.00"># processOrderBy()</text>
<text text-anchor="start" x="8" y="-167.5" font-family="Helvetica,sans-Serif" font-size="10.00"># getParameters()</text>
<text text-anchor="start" x="8" y="-156.5" font-family="Helvetica,sans-Serif" font-size="10.00"># getParameterPosition()</text>
<text text-anchor="start" x="8" y="-145.5" font-family="Helvetica,sans-Serif" font-size="10.00"># resetInternals()</text>
<text text-anchor="start" x="8" y="-134.5" font-family="Helvetica,sans-Serif" font-size="10.00"># processTableName()</text>
</a>
</g>
</g>
<!-- Node2&#45;&gt;Node1 -->
<g id="edge1" class="edge"><title>Node2&#45;&gt;Node1</title>
<path fill="none" stroke="midnightblue" d="M94,-117.468C94,-107.965 94,-98.8521 94,-90.51"/>
<polygon fill="none" stroke="midnightblue" points="90.5001,-117.497 94,-127.497 97.5001,-117.497 90.5001,-117.497"/>
</g>
<!-- Node3 -->
<g id="node3" class="node"><title>Node3</title>
<g id="a_node3"><a xlink:href="classwcmf_1_1lib_1_1model_1_1_abstract_query.html" target="_top" xlink:title="AbstractQuery is the base class for all query classes. ">
<polygon fill="white" stroke="black" points="36,-408.5 36,-553.5 152,-553.5 152,-408.5 36,-408.5"/>
<text text-anchor="middle" x="94" y="-541.5" font-family="Helvetica,sans-Serif" font-size="10.00">AbstractQuery</text>
<polyline fill="none" stroke="black" points="36,-534.5 152,-534.5 "/>
<text text-anchor="middle" x="94" y="-522.5" font-family="Helvetica,sans-Serif" font-size="10.00"> </text>
<polyline fill="none" stroke="black" points="36,-515.5 152,-515.5 "/>
<text text-anchor="start" x="44" y="-503.5" font-family="Helvetica,sans-Serif" font-size="10.00">+ execute()</text>
<text text-anchor="start" x="44" y="-492.5" font-family="Helvetica,sans-Serif" font-size="10.00">+ getQueryString()</text>
<text text-anchor="start" x="44" y="-481.5" font-family="Helvetica,sans-Serif" font-size="10.00">+ getLastQueryString()</text>
<text text-anchor="start" x="44" y="-470.5" font-family="Helvetica,sans-Serif" font-size="10.00"># getQueryType()</text>
<text text-anchor="start" x="44" y="-459.5" font-family="Helvetica,sans-Serif" font-size="10.00"># buildQuery()</text>
<text text-anchor="start" x="44" y="-448.5" font-family="Helvetica,sans-Serif" font-size="10.00"># executeInternal()</text>
<text text-anchor="start" x="44" y="-437.5" font-family="Helvetica,sans-Serif" font-size="10.00"># getConnection()</text>
<text text-anchor="start" x="44" y="-426.5" font-family="Helvetica,sans-Serif" font-size="10.00"># getMapper()</text>
<text text-anchor="start" x="44" y="-415.5" font-family="Helvetica,sans-Serif" font-size="10.00"># checkMapper()</text>
</a>
</g>
</g>
<!-- Node3&#45;&gt;Node2 -->
<g id="edge2" class="edge"><title>Node3&#45;&gt;Node2</title>
<path fill="none" stroke="midnightblue" d="M94,-398.3C94,-389.638 94,-380.701 94,-371.711"/>
<polygon fill="none" stroke="midnightblue" points="90.5001,-398.329 94,-408.329 97.5001,-398.329 90.5001,-398.329"/>
</g>
</g>
</svg>
