<?xml version="1.0" encoding="UTF-8" standalone="no"?>
<!DOCTYPE svg PUBLIC "-//W3C//DTD SVG 1.1//EN"
 "http://www.w3.org/Graphics/SVG/1.1/DTD/svg11.dtd">
<!-- Generated by graphviz version 2.38.0 (20140413.2041)
 -->
<!-- Title: Log4phpLogger Pages: 1 -->
<svg width="147pt" height="507pt"
 viewBox="0.00 0.00 147.00 507.00" xmlns="http://www.w3.org/2000/svg" xmlns:xlink="http://www.w3.org/1999/xlink">
<g id="graph0" class="graph" transform="scale(1 1) rotate(0) translate(4 503)">
<title>Log4phpLogger</title>
<polygon fill="white" stroke="none" points="-4,4 -4,-503 143,-503 143,4 -4,4"/>
<!-- Node1 -->
<g id="node1" class="node"><title>Node1</title>
<polygon fill="#bfbfbf" stroke="black" points="0,-0.5 0,-189.5 102,-189.5 102,-0.5 0,-0.5"/>
<text text-anchor="middle" x="51" y="-177.5" font-family="Helvetica,sans-Serif" font-size="10.00">Log4phpLogger</text>
<polyline fill="none" stroke="black" points="0,-170.5 102,-170.5 "/>
<text text-anchor="middle" x="51" y="-158.5" font-family="Helvetica,sans-Serif" font-size="10.00"> </text>
<polyline fill="none" stroke="black" points="0,-151.5 102,-151.5 "/>
<text text-anchor="start" x="8" y="-139.5" font-family="Helvetica,sans-Serif" font-size="10.00">+ __construct()</text>
<text text-anchor="start" x="8" y="-128.5" font-family="Helvetica,sans-Serif" font-size="10.00">+ trace()</text>
<text text-anchor="start" x="8" y="-117.5" font-family="Helvetica,sans-Serif" font-size="10.00">+ debug()</text>
<text text-anchor="start" x="8" y="-106.5" font-family="Helvetica,sans-Serif" font-size="10.00">+ info()</text>
<text text-anchor="start" x="8" y="-95.5" font-family="Helvetica,sans-Serif" font-size="10.00">+ warn()</text>
<text text-anchor="start" x="8" y="-84.5" font-family="Helvetica,sans-Serif" font-size="10.00">+ error()</text>
<text text-anchor="start" x="8" y="-73.5" font-family="Helvetica,sans-Serif" font-size="10.00">+ fatal()</text>
<text text-anchor="start" x="8" y="-62.5" font-family="Helvetica,sans-Serif" font-size="10.00">+ isDebugEnabled()</text>
<text text-anchor="start" x="8" y="-51.5" font-family="Helvetica,sans-Serif" font-size="10.00">+ isInfoEnabled()</text>
<text text-anchor="start" x="8" y="-40.5" font-family="Helvetica,sans-Serif" font-size="10.00">+ isWarnEnabled()</text>
<text text-anchor="start" x="8" y="-29.5" font-family="Helvetica,sans-Serif" font-size="10.00">+ isErrorEnabled()</text>
<text text-anchor="start" x="8" y="-18.5" font-family="Helvetica,sans-Serif" font-size="10.00">+ isFatalEnabled()</text>
<text text-anchor="start" x="8" y="-7.5" font-family="Helvetica,sans-Serif" font-size="10.00">+ getLogger()</text>
</g>
<!-- Node2 -->
<g id="node2" class="node"><title>Node2</title>
<g id="a_node2"><a xlink:href="classwcmf_1_1lib_1_1core_1_1impl_1_1_abstract_logger.html" target="_top" xlink:title="AbstractLogger is the abstract base class for Logger implementations. ">
<polygon fill="white" stroke="black" points="41,-226.5 41,-283.5 139,-283.5 139,-226.5 41,-226.5"/>
<text text-anchor="middle" x="90" y="-271.5" font-family="Helvetica,sans-Serif" font-size="10.00">AbstractLogger</text>
<polyline fill="none" stroke="black" points="41,-264.5 139,-264.5 "/>
<text text-anchor="middle" x="90" y="-252.5" font-family="Helvetica,sans-Serif" font-size="10.00"> </text>
<polyline fill="none" stroke="black" points="41,-245.5 139,-245.5 "/>
<text text-anchor="start" x="49" y="-233.5" font-family="Helvetica,sans-Serif" font-size="10.00">+ logByErrorType()</text>
</a>
</g>
</g>
<!-- Node2&#45;&gt;Node1 -->
<g id="edge1" class="edge"><title>Node2&#45;&gt;Node1</title>
<path fill="none" stroke="midnightblue" d="M80.8095,-216.767C78.7487,-208.418 76.4723,-199.195 74.1231,-189.678"/>
<polygon fill="none" stroke="midnightblue" points="77.4122,-217.609 83.2067,-226.479 84.2082,-215.931 77.4122,-217.609"/>
</g>
<!-- Node3 -->
<g id="node3" class="node"><title>Node3</title>
<g id="a_node3"><a xlink:href="interfacewcmf_1_1lib_1_1core_1_1_logger.html" target="_top" xlink:title="Interface for logger implementations. ">
<polygon fill="white" stroke="black" points="0,-320.5 0,-498.5 102,-498.5 102,-320.5 0,-320.5"/>
<text text-anchor="middle" x="51" y="-486.5" font-family="Helvetica,sans-Serif" font-size="10.00">Logger</text>
<polyline fill="none" stroke="black" points="0,-479.5 102,-479.5 "/>
<text text-anchor="middle" x="51" y="-467.5" font-family="Helvetica,sans-Serif" font-size="10.00"> </text>
<polyline fill="none" stroke="black" points="0,-460.5 102,-460.5 "/>
<text text-anchor="start" x="8" y="-448.5" font-family="Helvetica,sans-Serif" font-size="10.00">+ debug()</text>
<text text-anchor="start" x="8" y="-437.5" font-family="Helvetica,sans-Serif" font-size="10.00">+ info()</text>
<text text-anchor="start" x="8" y="-426.5" font-family="Helvetica,sans-Serif" font-size="10.00">+ warn()</text>
<text text-anchor="start" x="8" y="-415.5" font-family="Helvetica,sans-Serif" font-size="10.00">+ error()</text>
<text text-anchor="start" x="8" y="-404.5" font-family="Helvetica,sans-Serif" font-size="10.00">+ fatal()</text>
<text text-anchor="start" x="8" y="-393.5" font-family="Helvetica,sans-Serif" font-size="10.00">+ isDebugEnabled()</text>
<text text-anchor="start" x="8" y="-382.5" font-family="Helvetica,sans-Serif" font-size="10.00">+ isInfoEnabled()</text>
<text text-anchor="start" x="8" y="-371.5" font-family="Helvetica,sans-Serif" font-size="10.00">+ isWarnEnabled()</text>
<text text-anchor="start" x="8" y="-360.5" font-family="Helvetica,sans-Serif" font-size="10.00">+ isErrorEnabled()</text>
<text text-anchor="start" x="8" y="-349.5" font-family="Helvetica,sans-Serif" font-size="10.00">+ isFatalEnabled()</text>
<text text-anchor="start" x="8" y="-338.5" font-family="Helvetica,sans-Serif" font-size="10.00">+ logByErrorType()</text>
<text text-anchor="start" x="8" y="-327.5" font-family="Helvetica,sans-Serif" font-size="10.00">+ getLogger()</text>
</a>
</g>
</g>
<!-- Node3&#45;&gt;Node1 -->
<g id="edge3" class="edge"><title>Node3&#45;&gt;Node1</title>
<path fill="none" stroke="midnightblue" d="M34.5979,-310.275C33.5453,-301.41 32.649,-292.554 32,-284 29.6672,-253.252 31.6093,-219.737 35.0014,-189.632"/>
<polygon fill="none" stroke="midnightblue" points="31.1341,-310.784 35.8479,-320.272 38.08,-309.915 31.1341,-310.784"/>
</g>
<!-- Node3&#45;&gt;Node2 -->
<g id="edge2" class="edge"><title>Node3&#45;&gt;Node2</title>
<path fill="none" stroke="midnightblue" d="M76.0702,-310.469C78.5304,-300.849 80.8615,-291.734 82.8879,-283.81"/>
<polygon fill="none" stroke="midnightblue" points="72.6604,-309.676 73.5735,-320.232 79.4421,-311.411 72.6604,-309.676"/>
</g>
</g>
</svg>
