<?xml version="1.0" encoding="UTF-8" standalone="no"?>
<!DOCTYPE svg PUBLIC "-//W3C//DTD SVG 1.1//EN"
 "http://www.w3.org/Graphics/SVG/1.1/DTD/svg11.dtd">
<!-- Generated by graphviz version 2.38.0 (20140413.2041)
 -->
<!-- Title: AbstractRole Pages: 1 -->
<svg width="276pt" height="854pt"
 viewBox="0.00 0.00 276.00 854.00" xmlns="http://www.w3.org/2000/svg" xmlns:xlink="http://www.w3.org/1999/xlink">
<g id="graph0" class="graph" transform="scale(1 1) rotate(0) translate(4 850)">
<title>AbstractRole</title>
<polygon fill="white" stroke="none" points="-4,4 -4,-850 272,-850 272,4 -4,4"/>
<!-- Node1 -->
<g id="node1" class="node"><title>Node1</title>
<polygon fill="#bfbfbf" stroke="black" points="116,-0.5 116,-79.5 205,-79.5 205,-0.5 116,-0.5"/>
<text text-anchor="middle" x="160.5" y="-67.5" font-family="Helvetica,sans-Serif" font-size="10.00">AbstractRole</text>
<polyline fill="none" stroke="black" points="116,-60.5 205,-60.5 "/>
<text text-anchor="middle" x="160.5" y="-48.5" font-family="Helvetica,sans-Serif" font-size="10.00"> </text>
<polyline fill="none" stroke="black" points="116,-41.5 205,-41.5 "/>
<text text-anchor="start" x="124" y="-29.5" font-family="Helvetica,sans-Serif" font-size="10.00">+ setName()</text>
<text text-anchor="start" x="124" y="-18.5" font-family="Helvetica,sans-Serif" font-size="10.00">+ getName()</text>
<text text-anchor="start" x="124" y="-7.5" font-family="Helvetica,sans-Serif" font-size="10.00">+ validateValue()</text>
</g>
<!-- Node2 -->
<g id="node2" class="node"><title>Node2</title>
<g id="a_node2"><a xlink:href="classwcmf_1_1lib_1_1model_1_1_node.html" target="_top" xlink:title="Node adds the concept of relations to PersistentObject. ">
<polygon fill="white" stroke="black" points="0,-116.5 0,-360.5 179,-360.5 179,-116.5 0,-116.5"/>
<text text-anchor="middle" x="89.5" y="-348.5" font-family="Helvetica,sans-Serif" font-size="10.00">Node</text>
<polyline fill="none" stroke="black" points="0,-341.5 179,-341.5 "/>
<text text-anchor="start" x="8" y="-329.5" font-family="Helvetica,sans-Serif" font-size="10.00">+ RELATION_STATE_UNINITIALIZED</text>
<text text-anchor="start" x="8" y="-318.5" font-family="Helvetica,sans-Serif" font-size="10.00">+ RELATION_STATE_INITIALIZING</text>
<text text-anchor="start" x="8" y="-307.5" font-family="Helvetica,sans-Serif" font-size="10.00">+ RELATION_STATE_INITIALIZED</text>
<text text-anchor="start" x="8" y="-296.5" font-family="Helvetica,sans-Serif" font-size="10.00">+ RELATION_STATE_LOADED</text>
<polyline fill="none" stroke="black" points="0,-289.5 179,-289.5 "/>
<text text-anchor="start" x="8" y="-277.5" font-family="Helvetica,sans-Serif" font-size="10.00">+ __construct()</text>
<text text-anchor="start" x="8" y="-266.5" font-family="Helvetica,sans-Serif" font-size="10.00">+ getValueNames()</text>
<text text-anchor="start" x="8" y="-255.5" font-family="Helvetica,sans-Serif" font-size="10.00">+ getValue()</text>
<text text-anchor="start" x="8" y="-244.5" font-family="Helvetica,sans-Serif" font-size="10.00">+ setValue()</text>
<text text-anchor="start" x="8" y="-233.5" font-family="Helvetica,sans-Serif" font-size="10.00">+ getIndispensableObjects()</text>
<text text-anchor="start" x="8" y="-222.5" font-family="Helvetica,sans-Serif" font-size="10.00">+ mergeValues()</text>
<text text-anchor="start" x="8" y="-211.5" font-family="Helvetica,sans-Serif" font-size="10.00">+ getNumChildren()</text>
<text text-anchor="start" x="8" y="-200.5" font-family="Helvetica,sans-Serif" font-size="10.00">+ addNode()</text>
<text text-anchor="start" x="8" y="-189.5" font-family="Helvetica,sans-Serif" font-size="10.00">+ getAddedNodes()</text>
<text text-anchor="start" x="8" y="-178.5" font-family="Helvetica,sans-Serif" font-size="10.00">+ deleteNode()</text>
<text text-anchor="start" x="8" y="-167.5" font-family="Helvetica,sans-Serif" font-size="10.00">and 22 more...</text>
<text text-anchor="start" x="8" y="-156.5" font-family="Helvetica,sans-Serif" font-size="10.00">+ filter()</text>
<text text-anchor="start" x="8" y="-145.5" font-family="Helvetica,sans-Serif" font-size="10.00"># loadRelations()</text>
<text text-anchor="start" x="8" y="-134.5" font-family="Helvetica,sans-Serif" font-size="10.00"># getRelations()</text>
<text text-anchor="start" x="8" y="-123.5" font-family="Helvetica,sans-Serif" font-size="10.00"># mergeObjectLists()</text>
</a>
</g>
</g>
<!-- Node2&#45;&gt;Node1 -->
<g id="edge1" class="edge"><title>Node2&#45;&gt;Node1</title>
<path fill="none" stroke="midnightblue" d="M136.653,-107C140.15,-97.32 143.478,-88.11 146.478,-79.8074"/>
<polygon fill="none" stroke="midnightblue" points="133.359,-105.816 133.253,-116.41 139.943,-108.195 133.359,-105.816"/>
</g>
<!-- Node3 -->
<g id="node3" class="node"><title>Node3</title>
<g id="a_node3"><a xlink:href="classwcmf_1_1lib_1_1persistence_1_1impl_1_1_default_persistent_object.html" target="_top" xlink:title="DefaultPersistentObject is the base class of all persistent objects. ">
<polygon fill="white" stroke="black" points="1,-397.5 1,-608.5 178,-608.5 178,-397.5 1,-397.5"/>
<text text-anchor="middle" x="89.5" y="-596.5" font-family="Helvetica,sans-Serif" font-size="10.00">DefaultPersistentObject</text>
<polyline fill="none" stroke="black" points="1,-589.5 178,-589.5 "/>
<text text-anchor="middle" x="89.5" y="-577.5" font-family="Helvetica,sans-Serif" font-size="10.00"> </text>
<polyline fill="none" stroke="black" points="1,-570.5 178,-570.5 "/>
<text text-anchor="start" x="9" y="-558.5" font-family="Helvetica,sans-Serif" font-size="10.00">+ __construct()</text>
<text text-anchor="start" x="9" y="-547.5" font-family="Helvetica,sans-Serif" font-size="10.00">+ initialize()</text>
<text text-anchor="start" x="9" y="-536.5" font-family="Helvetica,sans-Serif" font-size="10.00">+ getType()</text>
<text text-anchor="start" x="9" y="-525.5" font-family="Helvetica,sans-Serif" font-size="10.00">+ getMapper()</text>
<text text-anchor="start" x="9" y="-514.5" font-family="Helvetica,sans-Serif" font-size="10.00">+ getOID()</text>
<text text-anchor="start" x="9" y="-503.5" font-family="Helvetica,sans-Serif" font-size="10.00">+ setOID()</text>
<text text-anchor="start" x="9" y="-492.5" font-family="Helvetica,sans-Serif" font-size="10.00">+ getState()</text>
<text text-anchor="start" x="9" y="-481.5" font-family="Helvetica,sans-Serif" font-size="10.00">+ setState()</text>
<text text-anchor="start" x="9" y="-470.5" font-family="Helvetica,sans-Serif" font-size="10.00">+ delete()</text>
<text text-anchor="start" x="9" y="-459.5" font-family="Helvetica,sans-Serif" font-size="10.00">+ __clone()</text>
<text text-anchor="start" x="9" y="-448.5" font-family="Helvetica,sans-Serif" font-size="10.00">and 30 more...</text>
<text text-anchor="start" x="9" y="-437.5" font-family="Helvetica,sans-Serif" font-size="10.00"># initializeMapper()</text>
<text text-anchor="start" x="9" y="-426.5" font-family="Helvetica,sans-Serif" font-size="10.00"># setOIDInternal()</text>
<text text-anchor="start" x="9" y="-415.5" font-family="Helvetica,sans-Serif" font-size="10.00"># setValueInternal()</text>
<text text-anchor="start" x="9" y="-404.5" font-family="Helvetica,sans-Serif" font-size="10.00"># validateValueAgainstValidateType()</text>
</a>
</g>
</g>
<!-- Node3&#45;&gt;Node2 -->
<g id="edge2" class="edge"><title>Node3&#45;&gt;Node2</title>
<path fill="none" stroke="midnightblue" d="M89.5,-387.467C89.5,-378.534 89.5,-369.496 89.5,-360.523"/>
<polygon fill="none" stroke="midnightblue" points="86.0001,-387.499 89.5,-397.499 93.0001,-387.499 86.0001,-387.499"/>
</g>
<!-- Node4 -->
<g id="node4" class="node"><title>Node4</title>
<g id="a_node4"><a xlink:href="interfacewcmf_1_1lib_1_1persistence_1_1_persistent_object.html" target="_top" xlink:title="PersistentObject defines the interface of all persistent objects. ">
<polygon fill="white" stroke="black" points="36.5,-645.5 36.5,-845.5 142.5,-845.5 142.5,-645.5 36.5,-645.5"/>
<text text-anchor="middle" x="89.5" y="-833.5" font-family="Helvetica,sans-Serif" font-size="10.00">PersistentObject</text>
<polyline fill="none" stroke="black" points="36.5,-826.5 142.5,-826.5 "/>
<text text-anchor="start" x="44.5" y="-814.5" font-family="Helvetica,sans-Serif" font-size="10.00">+ STATE_CLEAN</text>
<text text-anchor="start" x="44.5" y="-803.5" font-family="Helvetica,sans-Serif" font-size="10.00">+ STATE_DIRTY</text>
<text text-anchor="start" x="44.5" y="-792.5" font-family="Helvetica,sans-Serif" font-size="10.00">+ STATE_NEW</text>
<text text-anchor="start" x="44.5" y="-781.5" font-family="Helvetica,sans-Serif" font-size="10.00">+ STATE_DELETED</text>
<polyline fill="none" stroke="black" points="36.5,-774.5 142.5,-774.5 "/>
<text text-anchor="start" x="44.5" y="-762.5" font-family="Helvetica,sans-Serif" font-size="10.00">+ initialize()</text>
<text text-anchor="start" x="44.5" y="-751.5" font-family="Helvetica,sans-Serif" font-size="10.00">+ getType()</text>
<text text-anchor="start" x="44.5" y="-740.5" font-family="Helvetica,sans-Serif" font-size="10.00">+ getMapper()</text>
<text text-anchor="start" x="44.5" y="-729.5" font-family="Helvetica,sans-Serif" font-size="10.00">+ getOID()</text>
<text text-anchor="start" x="44.5" y="-718.5" font-family="Helvetica,sans-Serif" font-size="10.00">+ setOID()</text>
<text text-anchor="start" x="44.5" y="-707.5" font-family="Helvetica,sans-Serif" font-size="10.00">+ getState()</text>
<text text-anchor="start" x="44.5" y="-696.5" font-family="Helvetica,sans-Serif" font-size="10.00">+ setState()</text>
<text text-anchor="start" x="44.5" y="-685.5" font-family="Helvetica,sans-Serif" font-size="10.00">+ delete()</text>
<text text-anchor="start" x="44.5" y="-674.5" font-family="Helvetica,sans-Serif" font-size="10.00">+ __clone()</text>
<text text-anchor="start" x="44.5" y="-663.5" font-family="Helvetica,sans-Serif" font-size="10.00">+ copyValues()</text>
<text text-anchor="start" x="44.5" y="-652.5" font-family="Helvetica,sans-Serif" font-size="10.00">and 28 more...</text>
</a>
</g>
</g>
<!-- Node4&#45;&gt;Node3 -->
<g id="edge3" class="edge"><title>Node4&#45;&gt;Node3</title>
<path fill="none" stroke="midnightblue" d="M89.5,-635.08C89.5,-626.342 89.5,-617.528 89.5,-608.823"/>
<polygon fill="none" stroke="midnightblue" points="86.0001,-635.291 89.5,-645.291 93.0001,-635.291 86.0001,-635.291"/>
</g>
<!-- Node5 -->
<g id="node5" class="node"><title>Node5</title>
<g id="a_node5"><a xlink:href="interfacewcmf_1_1lib_1_1security_1_1principal_1_1_role.html" target="_top" xlink:title="Role is the interface for user roles. ">
<polygon fill="white" stroke="black" points="197,-204.5 197,-272.5 268,-272.5 268,-204.5 197,-204.5"/>
<text text-anchor="middle" x="232.5" y="-260.5" font-family="Helvetica,sans-Serif" font-size="10.00">Role</text>
<polyline fill="none" stroke="black" points="197,-253.5 268,-253.5 "/>
<text text-anchor="middle" x="232.5" y="-241.5" font-family="Helvetica,sans-Serif" font-size="10.00"> </text>
<polyline fill="none" stroke="black" points="197,-234.5 268,-234.5 "/>
<text text-anchor="start" x="205" y="-222.5" font-family="Helvetica,sans-Serif" font-size="10.00">+ setName()</text>
<text text-anchor="start" x="205" y="-211.5" font-family="Helvetica,sans-Serif" font-size="10.00">+ getName()</text>
</a>
</g>
</g>
<!-- Node5&#45;&gt;Node1 -->
<g id="edge4" class="edge"><title>Node5&#45;&gt;Node1</title>
<path fill="none" stroke="midnightblue" d="M217.178,-194.869C208.767,-171.55 198.12,-142.162 188.5,-116 184.135,-104.129 179.335,-91.2212 174.961,-79.513"/>
<polygon fill="none" stroke="midnightblue" points="213.953,-196.243 220.636,-204.464 220.538,-193.87 213.953,-196.243"/>
</g>
</g>
</svg>
