<?xml version="1.0" encoding="UTF-8" standalone="no"?>
<!DOCTYPE svg PUBLIC "-//W3C//DTD SVG 1.1//EN"
 "http://www.w3.org/Graphics/SVG/1.1/DTD/svg11.dtd">
<!-- Generated by graphviz version 2.38.0 (20140413.2041)
 -->
<!-- Title: ObjectId Pages: 1 -->
<svg width="180pt" height="314pt"
 viewBox="0.00 0.00 180.00 314.00" xmlns="http://www.w3.org/2000/svg" xmlns:xlink="http://www.w3.org/1999/xlink">
<g id="graph0" class="graph" transform="scale(1 1) rotate(0) translate(4 310)">
<title>ObjectId</title>
<polygon fill="white" stroke="none" points="-4,4 -4,-310 176,-310 176,4 -4,4"/>
<!-- Node1 -->
<g id="node1" class="node"><title>Node1</title>
<polygon fill="#bfbfbf" stroke="black" points="23,-0.5 23,-211.5 138,-211.5 138,-0.5 23,-0.5"/>
<text text-anchor="middle" x="80.5" y="-199.5" font-family="Helvetica,sans-Serif" font-size="10.00">ObjectId</text>
<polyline fill="none" stroke="black" points="23,-192.5 138,-192.5 "/>
<text text-anchor="start" x="31" y="-180.5" font-family="Helvetica,sans-Serif" font-size="10.00">+ DELIMITER</text>
<polyline fill="none" stroke="black" points="23,-173.5 138,-173.5 "/>
<text text-anchor="start" x="31" y="-161.5" font-family="Helvetica,sans-Serif" font-size="10.00">+ __construct()</text>
<text text-anchor="start" x="31" y="-150.5" font-family="Helvetica,sans-Serif" font-size="10.00">+ getPrefix()</text>
<text text-anchor="start" x="31" y="-139.5" font-family="Helvetica,sans-Serif" font-size="10.00">+ getType()</text>
<text text-anchor="start" x="31" y="-128.5" font-family="Helvetica,sans-Serif" font-size="10.00">+ getId()</text>
<text text-anchor="start" x="31" y="-117.5" font-family="Helvetica,sans-Serif" font-size="10.00">+ getFirstId()</text>
<text text-anchor="start" x="31" y="-106.5" font-family="Helvetica,sans-Serif" font-size="10.00">+ __toString()</text>
<text text-anchor="start" x="31" y="-95.5" font-family="Helvetica,sans-Serif" font-size="10.00">+ containsDummyIds()</text>
<text text-anchor="start" x="31" y="-84.5" font-family="Helvetica,sans-Serif" font-size="10.00">+ serialize()</text>
<text text-anchor="start" x="31" y="-73.5" font-family="Helvetica,sans-Serif" font-size="10.00">+ unserialize()</text>
<text text-anchor="start" x="31" y="-62.5" font-family="Helvetica,sans-Serif" font-size="10.00">+ jsonSerialize()</text>
<text text-anchor="start" x="31" y="-51.5" font-family="Helvetica,sans-Serif" font-size="10.00">+ NULL_OID()</text>
<text text-anchor="start" x="31" y="-40.5" font-family="Helvetica,sans-Serif" font-size="10.00">+ isValid()</text>
<text text-anchor="start" x="31" y="-29.5" font-family="Helvetica,sans-Serif" font-size="10.00">+ parse()</text>
<text text-anchor="start" x="31" y="-18.5" font-family="Helvetica,sans-Serif" font-size="10.00">+ getDummyId()</text>
<text text-anchor="start" x="31" y="-7.5" font-family="Helvetica,sans-Serif" font-size="10.00">+ isDummyId()</text>
</g>
<!-- Node2 -->
<g id="node2" class="node"><title>Node2</title>
<polygon fill="white" stroke="#bfbfbf" points="0,-248.5 0,-305.5 67,-305.5 67,-248.5 0,-248.5"/>
<text text-anchor="middle" x="33.5" y="-293.5" font-family="Helvetica,sans-Serif" font-size="10.00">Serializable</text>
<polyline fill="none" stroke="#bfbfbf" points="0,-286.5 67,-286.5 "/>
<text text-anchor="middle" x="33.5" y="-274.5" font-family="Helvetica,sans-Serif" font-size="10.00"> </text>
<polyline fill="none" stroke="#bfbfbf" points="0,-267.5 67,-267.5 "/>
<text text-anchor="middle" x="33.5" y="-255.5" font-family="Helvetica,sans-Serif" font-size="10.00"> </text>
</g>
<!-- Node2&#45;&gt;Node1 -->
<g id="edge1" class="edge"><title>Node2&#45;&gt;Node1</title>
<path fill="none" stroke="midnightblue" d="M43.85,-238.784C46.1694,-230.444 48.7408,-221.198 51.4146,-211.584"/>
<polygon fill="none" stroke="midnightblue" points="40.4634,-237.899 41.156,-248.471 47.2074,-239.775 40.4634,-237.899"/>
</g>
<!-- Node3 -->
<g id="node3" class="node"><title>Node3</title>
<polygon fill="white" stroke="#bfbfbf" points="85,-248.5 85,-305.5 172,-305.5 172,-248.5 85,-248.5"/>
<text text-anchor="middle" x="128.5" y="-293.5" font-family="Helvetica,sans-Serif" font-size="10.00">JsonSerializable</text>
<polyline fill="none" stroke="#bfbfbf" points="85,-286.5 172,-286.5 "/>
<text text-anchor="middle" x="128.5" y="-274.5" font-family="Helvetica,sans-Serif" font-size="10.00"> </text>
<polyline fill="none" stroke="#bfbfbf" points="85,-267.5 172,-267.5 "/>
<text text-anchor="middle" x="128.5" y="-255.5" font-family="Helvetica,sans-Serif" font-size="10.00"> </text>
</g>
<!-- Node3&#45;&gt;Node1 -->
<g id="edge2" class="edge"><title>Node3&#45;&gt;Node1</title>
<path fill="none" stroke="midnightblue" d="M117.93,-238.784C115.561,-230.444 112.935,-221.198 110.204,-211.584"/>
<polygon fill="none" stroke="midnightblue" points="114.582,-239.808 120.681,-248.471 121.316,-237.895 114.582,-239.808"/>
</g>
</g>
</svg>
