<?xml version="1.0" encoding="UTF-8" standalone="no"?>
<!DOCTYPE svg PUBLIC "-//W3C//DTD SVG 1.1//EN"
 "http://www.w3.org/Graphics/SVG/1.1/DTD/svg11.dtd">
<!-- Generated by graphviz version 2.38.0 (20140413.2041)
 -->
<!-- Title: Controller Pages: 1 -->
<svg width="2614pt" height="617pt"
 viewBox="0.00 0.00 2613.50 617.00" xmlns="http://www.w3.org/2000/svg" xmlns:xlink="http://www.w3.org/1999/xlink">
<g id="graph0" class="graph" transform="scale(1 1) rotate(0) translate(4 613)">
<title>Controller</title>
<polygon fill="white" stroke="none" points="-4,4 -4,-613 2609.5,-613 2609.5,4 -4,4"/>
<!-- Node1 -->
<g id="node1" class="node"><title>Node1</title>
<polygon fill="#bfbfbf" stroke="black" points="1194.5,-452.5 1194.5,-608.5 1338.5,-608.5 1338.5,-452.5 1194.5,-452.5"/>
<text text-anchor="middle" x="1266.5" y="-596.5" font-family="Helvetica,sans-Serif" font-size="10.00">Controller</text>
<polyline fill="none" stroke="black" points="1194.5,-589.5 1338.5,-589.5 "/>
<text text-anchor="middle" x="1266.5" y="-577.5" font-family="Helvetica,sans-Serif" font-size="10.00"> </text>
<polyline fill="none" stroke="black" points="1194.5,-570.5 1338.5,-570.5 "/>
<text text-anchor="start" x="1202.5" y="-558.5" font-family="Helvetica,sans-Serif" font-size="10.00">+ initialize()</text>
<text text-anchor="start" x="1202.5" y="-547.5" font-family="Helvetica,sans-Serif" font-size="10.00">+ execute()</text>
<text text-anchor="start" x="1202.5" y="-536.5" font-family="Helvetica,sans-Serif" font-size="10.00">+ getRequest()</text>
<text text-anchor="start" x="1202.5" y="-525.5" font-family="Helvetica,sans-Serif" font-size="10.00">+ getResponse()</text>
<text text-anchor="start" x="1202.5" y="-514.5" font-family="Helvetica,sans-Serif" font-size="10.00"># validate()</text>
<text text-anchor="start" x="1202.5" y="-503.5" font-family="Helvetica,sans-Serif" font-size="10.00"># doExecute()</text>
<text text-anchor="start" x="1202.5" y="-492.5" font-family="Helvetica,sans-Serif" font-size="10.00"># executeSubAction()</text>
<text text-anchor="start" x="1202.5" y="-481.5" font-family="Helvetica,sans-Serif" font-size="10.00"># assignResponseDefaults()</text>
<text text-anchor="start" x="1202.5" y="-470.5" font-family="Helvetica,sans-Serif" font-size="10.00"># isLocalizedRequest()</text>
<text text-anchor="start" x="1202.5" y="-459.5" font-family="Helvetica,sans-Serif" font-size="10.00"># checkLanguageParameter()</text>
</g>
<!-- Node2 -->
<g id="node2" class="node"><title>Node2</title>
<g id="a_node2"><a xlink:href="classwcmf_1_1application_1_1controller_1_1_associate_controller.html" target="_top" xlink:title="AssociateController is used to (dis&#45;)associates Node instances, e.g. ">
<polygon fill="white" stroke="black" points="50,-287 50,-355 151,-355 151,-287 50,-287"/>
<text text-anchor="middle" x="100.5" y="-343" font-family="Helvetica,sans-Serif" font-size="10.00">AssociateController</text>
<polyline fill="none" stroke="black" points="50,-336 151,-336 "/>
<text text-anchor="middle" x="100.5" y="-324" font-family="Helvetica,sans-Serif" font-size="10.00"> </text>
<polyline fill="none" stroke="black" points="50,-317 151,-317 "/>
<text text-anchor="start" x="58" y="-305" font-family="Helvetica,sans-Serif" font-size="10.00"># validate()</text>
<text text-anchor="start" x="58" y="-294" font-family="Helvetica,sans-Serif" font-size="10.00"># doExecute()</text>
</a>
</g>
</g>
<!-- Node1&#45;&gt;Node2 -->
<g id="edge1" class="edge"><title>Node1&#45;&gt;Node2</title>
<path fill="none" stroke="midnightblue" d="M1184.12,-530.21C957.553,-530.754 330.581,-522.363 159.5,-416 137.083,-402.063 121.762,-376.122 112.362,-355.017"/>
<polygon fill="none" stroke="midnightblue" points="1184.29,-533.71 1194.28,-530.179 1184.27,-526.71 1184.29,-533.71"/>
</g>
<!-- Node3 -->
<g id="node3" class="node"><title>Node3</title>
<g id="a_node3"><a xlink:href="classwcmf_1_1application_1_1controller_1_1_batch_controller.html" target="_top" xlink:title="BatchController is used to process complex, longer running actions, that need to be divided into seve...">
<polygon fill="white" stroke="black" points="169,-226.5 169,-415.5 348,-415.5 348,-226.5 169,-226.5"/>
<text text-anchor="middle" x="258.5" y="-403.5" font-family="Helvetica,sans-Serif" font-size="10.00">BatchController</text>
<polyline fill="none" stroke="black" points="169,-396.5 348,-396.5 "/>
<text text-anchor="start" x="177" y="-384.5" font-family="Helvetica,sans-Serif" font-size="10.00">+ ONE_CALL_SESSION_VARNAME</text>
<text text-anchor="start" x="177" y="-373.5" font-family="Helvetica,sans-Serif" font-size="10.00">+ STEP_SESSION_VARNAME</text>
<text text-anchor="start" x="177" y="-362.5" font-family="Helvetica,sans-Serif" font-size="10.00">+ NUM_STEPS_VARNAME</text>
<text text-anchor="start" x="177" y="-351.5" font-family="Helvetica,sans-Serif" font-size="10.00">+ DOWNLOAD_STEP</text>
<text text-anchor="start" x="177" y="-340.5" font-family="Helvetica,sans-Serif" font-size="10.00">+ WORK_PACKAGES_VARNAME</text>
<polyline fill="none" stroke="black" points="169,-333.5 348,-333.5 "/>
<text text-anchor="start" x="177" y="-321.5" font-family="Helvetica,sans-Serif" font-size="10.00">+ initialize()</text>
<text text-anchor="start" x="177" y="-310.5" font-family="Helvetica,sans-Serif" font-size="10.00"># doExecute()</text>
<text text-anchor="start" x="177" y="-299.5" font-family="Helvetica,sans-Serif" font-size="10.00"># getStepNumber()</text>
<text text-anchor="start" x="177" y="-288.5" font-family="Helvetica,sans-Serif" font-size="10.00"># addWorkPackage()</text>
<text text-anchor="start" x="177" y="-277.5" font-family="Helvetica,sans-Serif" font-size="10.00"># processPart()</text>
<text text-anchor="start" x="177" y="-266.5" font-family="Helvetica,sans-Serif" font-size="10.00"># getNumberOfSteps()</text>
<text text-anchor="start" x="177" y="-255.5" font-family="Helvetica,sans-Serif" font-size="10.00"># getDisplayText()</text>
<text text-anchor="start" x="177" y="-244.5" font-family="Helvetica,sans-Serif" font-size="10.00"># getDownloadFile()</text>
<text text-anchor="start" x="177" y="-233.5" font-family="Helvetica,sans-Serif" font-size="10.00"># getWorkPackage()</text>
</a>
</g>
</g>
<!-- Node1&#45;&gt;Node3 -->
<g id="edge2" class="edge"><title>Node1&#45;&gt;Node3</title>
<path fill="none" stroke="midnightblue" d="M1184.02,-525.833C988.5,-516.091 502.314,-485.419 356.5,-416 353.733,-414.683 350.994,-413.257 348.288,-411.736"/>
<polygon fill="none" stroke="midnightblue" points="1184.08,-529.34 1194.24,-526.336 1184.42,-522.348 1184.08,-529.34"/>
</g>
<!-- Node8 -->
<g id="node8" class="node"><title>Node8</title>
<g id="a_node8"><a xlink:href="classwcmf_1_1application_1_1controller_1_1_concurrency_controller.html" target="_top" xlink:title="ConcurrencyController is used to lock/unlock objects. ">
<polygon fill="white" stroke="black" points="366,-287 366,-355 479,-355 479,-287 366,-287"/>
<text text-anchor="middle" x="422.5" y="-343" font-family="Helvetica,sans-Serif" font-size="10.00">ConcurrencyController</text>
<polyline fill="none" stroke="black" points="366,-336 479,-336 "/>
<text text-anchor="middle" x="422.5" y="-324" font-family="Helvetica,sans-Serif" font-size="10.00"> </text>
<polyline fill="none" stroke="black" points="366,-317 479,-317 "/>
<text text-anchor="start" x="374" y="-305" font-family="Helvetica,sans-Serif" font-size="10.00">+ validate()</text>
<text text-anchor="start" x="374" y="-294" font-family="Helvetica,sans-Serif" font-size="10.00">+ doExecute()</text>
</a>
</g>
</g>
<!-- Node1&#45;&gt;Node8 -->
<g id="edge7" class="edge"><title>Node1&#45;&gt;Node8</title>
<path fill="none" stroke="midnightblue" d="M1183.96,-525.648C1008.27,-516.154 603.898,-487.03 488.5,-416 465.405,-401.785 448.222,-376.144 437.187,-355.229"/>
<polygon fill="none" stroke="midnightblue" points="1184.01,-529.156 1194.19,-526.193 1184.39,-522.166 1184.01,-529.156"/>
</g>
<!-- Node9 -->
<g id="node9" class="node"><title>Node9</title>
<g id="a_node9"><a xlink:href="classwcmf_1_1application_1_1controller_1_1_delete_controller.html" target="_top" xlink:title="DeleteController is used to delete Node instances. ">
<polygon fill="white" stroke="black" points="497.5,-276 497.5,-366 587.5,-366 587.5,-276 497.5,-276"/>
<text text-anchor="middle" x="542.5" y="-354" font-family="Helvetica,sans-Serif" font-size="10.00">DeleteController</text>
<polyline fill="none" stroke="black" points="497.5,-347 587.5,-347 "/>
<text text-anchor="middle" x="542.5" y="-335" font-family="Helvetica,sans-Serif" font-size="10.00"> </text>
<polyline fill="none" stroke="black" points="497.5,-328 587.5,-328 "/>
<text text-anchor="start" x="505.5" y="-316" font-family="Helvetica,sans-Serif" font-size="10.00"># validate()</text>
<text text-anchor="start" x="505.5" y="-305" font-family="Helvetica,sans-Serif" font-size="10.00"># doExecute()</text>
<text text-anchor="start" x="505.5" y="-294" font-family="Helvetica,sans-Serif" font-size="10.00"># confirmDelete()</text>
<text text-anchor="start" x="505.5" y="-283" font-family="Helvetica,sans-Serif" font-size="10.00"># afterDelete()</text>
</a>
</g>
</g>
<!-- Node1&#45;&gt;Node9 -->
<g id="edge8" class="edge"><title>Node1&#45;&gt;Node9</title>
<path fill="none" stroke="midnightblue" d="M1184.14,-524.263C1026.71,-512.868 690.386,-481.422 596.5,-416 579.206,-403.949 566.708,-384.45 558.12,-366.328"/>
<polygon fill="none" stroke="midnightblue" points="1184.02,-527.764 1194.24,-524.985 1184.52,-520.782 1184.02,-527.764"/>
</g>
<!-- Node10 -->
<g id="node10" class="node"><title>Node10</title>
<g id="a_node10"><a xlink:href="classwcmf_1_1application_1_1controller_1_1_display_controller.html" target="_top" xlink:title="DisplayController is used to read a Node instance. ">
<polygon fill="white" stroke="black" points="605.5,-287 605.5,-355 695.5,-355 695.5,-287 605.5,-287"/>
<text text-anchor="middle" x="650.5" y="-343" font-family="Helvetica,sans-Serif" font-size="10.00">DisplayController</text>
<polyline fill="none" stroke="black" points="605.5,-336 695.5,-336 "/>
<text text-anchor="middle" x="650.5" y="-324" font-family="Helvetica,sans-Serif" font-size="10.00"> </text>
<polyline fill="none" stroke="black" points="605.5,-317 695.5,-317 "/>
<text text-anchor="start" x="613.5" y="-305" font-family="Helvetica,sans-Serif" font-size="10.00"># validate()</text>
<text text-anchor="start" x="613.5" y="-294" font-family="Helvetica,sans-Serif" font-size="10.00"># doExecute()</text>
</a>
</g>
</g>
<!-- Node1&#45;&gt;Node10 -->
<g id="edge9" class="edge"><title>Node1&#45;&gt;Node10</title>
<path fill="none" stroke="midnightblue" d="M1184.24,-521.259C1047.35,-506.192 780.336,-470.636 704.5,-416 683.885,-401.148 669.996,-375.82 661.471,-355.194"/>
<polygon fill="none" stroke="midnightblue" points="1183.95,-524.748 1194.27,-522.352 1184.71,-517.789 1183.95,-524.748"/>
</g>
<!-- Node11 -->
<g id="node11" class="node"><title>Node11</title>
<g id="a_node11"><a xlink:href="classwcmf_1_1application_1_1controller_1_1_failure_controller.html" target="_top" xlink:title="FailureController is used to signal a failure to the user. ">
<polygon fill="white" stroke="black" points="714,-292.5 714,-349.5 801,-349.5 801,-292.5 714,-292.5"/>
<text text-anchor="middle" x="757.5" y="-337.5" font-family="Helvetica,sans-Serif" font-size="10.00">FailureController</text>
<polyline fill="none" stroke="black" points="714,-330.5 801,-330.5 "/>
<text text-anchor="middle" x="757.5" y="-318.5" font-family="Helvetica,sans-Serif" font-size="10.00"> </text>
<polyline fill="none" stroke="black" points="714,-311.5 801,-311.5 "/>
<text text-anchor="start" x="722" y="-299.5" font-family="Helvetica,sans-Serif" font-size="10.00">+ doExecute()</text>
</a>
</g>
</g>
<!-- Node1&#45;&gt;Node11 -->
<g id="edge10" class="edge"><title>Node1&#45;&gt;Node11</title>
<path fill="none" stroke="midnightblue" d="M1184.03,-528.119C1085.7,-522.489 920.842,-500 810.5,-416 788.587,-399.318 774.364,-370.8 766.225,-349.539"/>
<polygon fill="none" stroke="midnightblue" points="1184.04,-531.625 1194.21,-528.656 1184.41,-524.634 1184.04,-531.625"/>
</g>
<!-- Node12 -->
<g id="node12" class="node"><title>Node12</title>
<g id="a_node12"><a xlink:href="classwcmf_1_1application_1_1controller_1_1_list_controller.html" target="_top" xlink:title="ListController is used to load Node lists. ">
<polygon fill="white" stroke="black" points="819.5,-276 819.5,-366 905.5,-366 905.5,-276 819.5,-276"/>
<text text-anchor="middle" x="862.5" y="-354" font-family="Helvetica,sans-Serif" font-size="10.00">ListController</text>
<polyline fill="none" stroke="black" points="819.5,-347 905.5,-347 "/>
<text text-anchor="middle" x="862.5" y="-335" font-family="Helvetica,sans-Serif" font-size="10.00"> </text>
<polyline fill="none" stroke="black" points="819.5,-328 905.5,-328 "/>
<text text-anchor="start" x="827.5" y="-316" font-family="Helvetica,sans-Serif" font-size="10.00"># validate()</text>
<text text-anchor="start" x="827.5" y="-305" font-family="Helvetica,sans-Serif" font-size="10.00"># doExecute()</text>
<text text-anchor="start" x="827.5" y="-294" font-family="Helvetica,sans-Serif" font-size="10.00"># getObjects()</text>
<text text-anchor="start" x="827.5" y="-283" font-family="Helvetica,sans-Serif" font-size="10.00"># modifyModel()</text>
</a>
</g>
</g>
<!-- Node1&#45;&gt;Node12 -->
<g id="edge11" class="edge"><title>Node1&#45;&gt;Node12</title>
<path fill="none" stroke="midnightblue" d="M1184.14,-520.44C1107.02,-508.225 992.308,-480.049 914.5,-416 898.661,-402.962 886.833,-383.773 878.493,-366.126"/>
<polygon fill="none" stroke="midnightblue" points="1183.88,-523.94 1194.29,-521.99 1184.94,-517.021 1183.88,-523.94"/>
</g>
<!-- Node14 -->
<g id="node14" class="node"><title>Node14</title>
<g id="a_node14"><a xlink:href="classwcmf_1_1application_1_1controller_1_1_logging_controller.html" target="_top" xlink:title="LoggingController is used to log a message in the backend log. ">
<polygon fill="white" stroke="black" points="923.5,-292.5 923.5,-349.5 1015.5,-349.5 1015.5,-292.5 923.5,-292.5"/>
<text text-anchor="middle" x="969.5" y="-337.5" font-family="Helvetica,sans-Serif" font-size="10.00">LoggingController</text>
<polyline fill="none" stroke="black" points="923.5,-330.5 1015.5,-330.5 "/>
<text text-anchor="middle" x="969.5" y="-318.5" font-family="Helvetica,sans-Serif" font-size="10.00"> </text>
<polyline fill="none" stroke="black" points="923.5,-311.5 1015.5,-311.5 "/>
<text text-anchor="start" x="931.5" y="-299.5" font-family="Helvetica,sans-Serif" font-size="10.00"># doExecute()</text>
</a>
</g>
</g>
<!-- Node1&#45;&gt;Node14 -->
<g id="edge13" class="edge"><title>Node1&#45;&gt;Node14</title>
<path fill="none" stroke="midnightblue" d="M1184.8,-504.767C1134.48,-486.425 1071.11,-457.383 1025.5,-416 1005.24,-397.62 990.055,-370.175 980.644,-349.679"/>
<polygon fill="none" stroke="midnightblue" points="1183.76,-508.112 1194.35,-508.18 1186.11,-501.52 1183.76,-508.112"/>
</g>
<!-- Node15 -->
<g id="node15" class="node"><title>Node15</title>
<g id="a_node15"><a xlink:href="classwcmf_1_1application_1_1controller_1_1_login_controller.html" target="_top" xlink:title="LoginController handles the login process. ">
<polygon fill="white" stroke="black" points="1034,-281.5 1034,-360.5 1115,-360.5 1115,-281.5 1034,-281.5"/>
<text text-anchor="middle" x="1074.5" y="-348.5" font-family="Helvetica,sans-Serif" font-size="10.00">LoginController</text>
<polyline fill="none" stroke="black" points="1034,-341.5 1115,-341.5 "/>
<text text-anchor="middle" x="1074.5" y="-329.5" font-family="Helvetica,sans-Serif" font-size="10.00"> </text>
<polyline fill="none" stroke="black" points="1034,-322.5 1115,-322.5 "/>
<text text-anchor="start" x="1042" y="-310.5" font-family="Helvetica,sans-Serif" font-size="10.00">+ initialize()</text>
<text text-anchor="start" x="1042" y="-299.5" font-family="Helvetica,sans-Serif" font-size="10.00"># validate()</text>
<text text-anchor="start" x="1042" y="-288.5" font-family="Helvetica,sans-Serif" font-size="10.00"># doExecute()</text>
</a>
</g>
</g>
<!-- Node1&#45;&gt;Node15 -->
<g id="edge14" class="edge"><title>Node1&#45;&gt;Node15</title>
<path fill="none" stroke="midnightblue" d="M1186.34,-474.728C1164.64,-457.541 1142.27,-437.414 1124.5,-416 1110.81,-399.499 1099.26,-378.652 1090.72,-360.785"/>
<polygon fill="none" stroke="midnightblue" points="1184.26,-477.54 1194.3,-480.924 1188.56,-472.017 1184.26,-477.54"/>
</g>
<!-- Node16 -->
<g id="node16" class="node"><title>Node16</title>
<g id="a_node16"><a xlink:href="classwcmf_1_1application_1_1controller_1_1_media_controller.html" target="_top" xlink:title="MediaController integrates elFinder (https://github.com/Studio&#45;42/elFinder) into wCMF. ">
<polygon fill="white" stroke="black" points="1133.5,-281.5 1133.5,-360.5 1253.5,-360.5 1253.5,-281.5 1133.5,-281.5"/>
<text text-anchor="middle" x="1193.5" y="-348.5" font-family="Helvetica,sans-Serif" font-size="10.00">MediaController</text>
<polyline fill="none" stroke="black" points="1133.5,-341.5 1253.5,-341.5 "/>
<text text-anchor="middle" x="1193.5" y="-329.5" font-family="Helvetica,sans-Serif" font-size="10.00"> </text>
<polyline fill="none" stroke="black" points="1133.5,-322.5 1253.5,-322.5 "/>
<text text-anchor="start" x="1141.5" y="-310.5" font-family="Helvetica,sans-Serif" font-size="10.00"># doExecute()</text>
<text text-anchor="start" x="1141.5" y="-299.5" font-family="Helvetica,sans-Serif" font-size="10.00"># onFileMoved()</text>
<text text-anchor="start" x="1141.5" y="-288.5" font-family="Helvetica,sans-Serif" font-size="10.00"># getResourceBaseDir()</text>
</a>
</g>
</g>
<!-- Node1&#45;&gt;Node16 -->
<g id="edge15" class="edge"><title>Node1&#45;&gt;Node16</title>
<path fill="none" stroke="midnightblue" d="M1235.94,-442.627C1225.89,-414.061 1215.22,-383.742 1207.1,-360.645"/>
<polygon fill="none" stroke="midnightblue" points="1232.7,-443.963 1239.32,-452.235 1239.3,-441.64 1232.7,-443.963"/>
</g>
<!-- Node17 -->
<g id="node17" class="node"><title>Node17</title>
<g id="a_node17"><a xlink:href="classwcmf_1_1application_1_1controller_1_1_message_controller.html" target="_top" xlink:title="MessageController is used to get all messages translated to the given language. ">
<polygon fill="white" stroke="black" points="1271.5,-281.5 1271.5,-360.5 1409.5,-360.5 1409.5,-281.5 1271.5,-281.5"/>
<text text-anchor="middle" x="1340.5" y="-348.5" font-family="Helvetica,sans-Serif" font-size="10.00">MessageController</text>
<polyline fill="none" stroke="black" points="1271.5,-341.5 1409.5,-341.5 "/>
<text text-anchor="middle" x="1340.5" y="-329.5" font-family="Helvetica,sans-Serif" font-size="10.00"> </text>
<polyline fill="none" stroke="black" points="1271.5,-322.5 1409.5,-322.5 "/>
<text text-anchor="start" x="1279.5" y="-310.5" font-family="Helvetica,sans-Serif" font-size="10.00"># validate()</text>
<text text-anchor="start" x="1279.5" y="-299.5" font-family="Helvetica,sans-Serif" font-size="10.00"># doExecute()</text>
<text text-anchor="start" x="1279.5" y="-288.5" font-family="Helvetica,sans-Serif" font-size="10.00"># assignResponseDefaults()</text>
</a>
</g>
</g>
<!-- Node1&#45;&gt;Node17 -->
<g id="edge16" class="edge"><title>Node1&#45;&gt;Node17</title>
<path fill="none" stroke="midnightblue" d="M1297.48,-442.627C1307.67,-414.061 1318.48,-383.742 1326.72,-360.645"/>
<polygon fill="none" stroke="midnightblue" points="1294.12,-441.64 1294.05,-452.235 1300.71,-443.991 1294.12,-441.64"/>
</g>
<!-- Node18 -->
<g id="node18" class="node"><title>Node18</title>
<g id="a_node18"><a xlink:href="classwcmf_1_1application_1_1controller_1_1_multiple_action_controller.html" target="_top" xlink:title="MultipleActionController executes multiple actions by passing them do the appropriate controllers and...">
<polygon fill="white" stroke="black" points="1428,-287 1428,-355 1547,-355 1547,-287 1428,-287"/>
<text text-anchor="middle" x="1487.5" y="-343" font-family="Helvetica,sans-Serif" font-size="10.00">MultipleActionController</text>
<polyline fill="none" stroke="black" points="1428,-336 1547,-336 "/>
<text text-anchor="middle" x="1487.5" y="-324" font-family="Helvetica,sans-Serif" font-size="10.00"> </text>
<polyline fill="none" stroke="black" points="1428,-317 1547,-317 "/>
<text text-anchor="start" x="1436" y="-305" font-family="Helvetica,sans-Serif" font-size="10.00"># validate()</text>
<text text-anchor="start" x="1436" y="-294" font-family="Helvetica,sans-Serif" font-size="10.00"># doExecute()</text>
</a>
</g>
</g>
<!-- Node1&#45;&gt;Node18 -->
<g id="edge17" class="edge"><title>Node1&#45;&gt;Node18</title>
<path fill="none" stroke="midnightblue" d="M1347.02,-476.237C1371.23,-458.464 1397.04,-437.638 1418.5,-416 1436.75,-397.602 1454,-374.102 1466.69,-355.202"/>
<polygon fill="none" stroke="midnightblue" points="1344.92,-473.438 1338.88,-482.144 1349.03,-479.103 1344.92,-473.438"/>
</g>
<!-- Node19 -->
<g id="node19" class="node"><title>Node19</title>
<g id="a_node19"><a xlink:href="classwcmf_1_1application_1_1controller_1_1_permission_controller.html" target="_top" xlink:title="PermissionController checks permissions for a set of operations for the current user. ">
<polygon fill="white" stroke="black" points="1565,-287 1565,-355 1672,-355 1672,-287 1565,-287"/>
<text text-anchor="middle" x="1618.5" y="-343" font-family="Helvetica,sans-Serif" font-size="10.00">PermissionController</text>
<polyline fill="none" stroke="black" points="1565,-336 1672,-336 "/>
<text text-anchor="middle" x="1618.5" y="-324" font-family="Helvetica,sans-Serif" font-size="10.00"> </text>
<polyline fill="none" stroke="black" points="1565,-317 1672,-317 "/>
<text text-anchor="start" x="1573" y="-305" font-family="Helvetica,sans-Serif" font-size="10.00">+ validate()</text>
<text text-anchor="start" x="1573" y="-294" font-family="Helvetica,sans-Serif" font-size="10.00"># doExecute()</text>
</a>
</g>
</g>
<!-- Node1&#45;&gt;Node19 -->
<g id="edge18" class="edge"><title>Node1&#45;&gt;Node19</title>
<path fill="none" stroke="midnightblue" d="M1348.42,-511.803C1410.63,-495.178 1495.56,-465.316 1556.5,-416 1576.56,-399.766 1592.42,-375.282 1603.07,-355.371"/>
<polygon fill="none" stroke="midnightblue" points="1347.43,-508.444 1338.64,-514.358 1349.2,-515.217 1347.43,-508.444"/>
</g>
<!-- Node20 -->
<g id="node20" class="node"><title>Node20</title>
<g id="a_node20"><a xlink:href="classwcmf_1_1application_1_1controller_1_1_r_e_s_t_controller.html" target="_top" xlink:title="RESTController handles REST requests. ">
<polygon fill="white" stroke="black" points="1690,-237.5 1690,-404.5 1839,-404.5 1839,-237.5 1690,-237.5"/>
<text text-anchor="middle" x="1764.5" y="-392.5" font-family="Helvetica,sans-Serif" font-size="10.00">RESTController</text>
<polyline fill="none" stroke="black" points="1690,-385.5 1839,-385.5 "/>
<text text-anchor="middle" x="1764.5" y="-373.5" font-family="Helvetica,sans-Serif" font-size="10.00"> </text>
<polyline fill="none" stroke="black" points="1690,-366.5 1839,-366.5 "/>
<text text-anchor="start" x="1698" y="-354.5" font-family="Helvetica,sans-Serif" font-size="10.00">+ initialize()</text>
<text text-anchor="start" x="1698" y="-343.5" font-family="Helvetica,sans-Serif" font-size="10.00"># validate()</text>
<text text-anchor="start" x="1698" y="-332.5" font-family="Helvetica,sans-Serif" font-size="10.00"># doExecute()</text>
<text text-anchor="start" x="1698" y="-321.5" font-family="Helvetica,sans-Serif" font-size="10.00"># handleGet()</text>
<text text-anchor="start" x="1698" y="-310.5" font-family="Helvetica,sans-Serif" font-size="10.00"># assignResponseDefaults()</text>
<text text-anchor="start" x="1698" y="-299.5" font-family="Helvetica,sans-Serif" font-size="10.00"># handlePost()</text>
<text text-anchor="start" x="1698" y="-288.5" font-family="Helvetica,sans-Serif" font-size="10.00"># handlePut()</text>
<text text-anchor="start" x="1698" y="-277.5" font-family="Helvetica,sans-Serif" font-size="10.00"># handleDelete()</text>
<text text-anchor="start" x="1698" y="-266.5" font-family="Helvetica,sans-Serif" font-size="10.00"># setLocationHeaderFromOid()</text>
<text text-anchor="start" x="1698" y="-255.5" font-family="Helvetica,sans-Serif" font-size="10.00"># getFirstRequestOid()</text>
<text text-anchor="start" x="1698" y="-244.5" font-family="Helvetica,sans-Serif" font-size="10.00"># getRelatedType()</text>
</a>
</g>
</g>
<!-- Node1&#45;&gt;Node20 -->
<g id="edge19" class="edge"><title>Node1&#45;&gt;Node20</title>
<path fill="none" stroke="midnightblue" d="M1348.6,-521.145C1436.57,-509.118 1577.57,-480.754 1681.5,-416 1686.95,-412.604 1692.25,-408.742 1697.35,-404.567"/>
<polygon fill="none" stroke="midnightblue" points="1348.12,-517.677 1338.67,-522.463 1349.04,-524.616 1348.12,-517.677"/>
</g>
<!-- Node21 -->
<g id="node21" class="node"><title>Node21</title>
<g id="a_node21"><a xlink:href="classwcmf_1_1application_1_1controller_1_1_save_controller.html" target="_top" xlink:title="SaveController is a controller that saves Node data. ">
<polygon fill="white" stroke="black" points="1857.5,-232 1857.5,-410 1971.5,-410 1971.5,-232 1857.5,-232"/>
<text text-anchor="middle" x="1914.5" y="-398" font-family="Helvetica,sans-Serif" font-size="10.00">SaveController</text>
<polyline fill="none" stroke="black" points="1857.5,-391 1971.5,-391 "/>
<text text-anchor="middle" x="1914.5" y="-379" font-family="Helvetica,sans-Serif" font-size="10.00"> </text>
<polyline fill="none" stroke="black" points="1857.5,-372 1971.5,-372 "/>
<text text-anchor="start" x="1865.5" y="-360" font-family="Helvetica,sans-Serif" font-size="10.00"># validate()</text>
<text text-anchor="start" x="1865.5" y="-349" font-family="Helvetica,sans-Serif" font-size="10.00"># doExecute()</text>
<text text-anchor="start" x="1865.5" y="-338" font-family="Helvetica,sans-Serif" font-size="10.00"># saveUploadFile()</text>
<text text-anchor="start" x="1865.5" y="-327" font-family="Helvetica,sans-Serif" font-size="10.00"># isFileUpload()</text>
<text text-anchor="start" x="1865.5" y="-316" font-family="Helvetica,sans-Serif" font-size="10.00"># checkFile()</text>
<text text-anchor="start" x="1865.5" y="-305" font-family="Helvetica,sans-Serif" font-size="10.00"># getUploadFilename()</text>
<text text-anchor="start" x="1865.5" y="-294" font-family="Helvetica,sans-Serif" font-size="10.00"># shouldOverride()</text>
<text text-anchor="start" x="1865.5" y="-283" font-family="Helvetica,sans-Serif" font-size="10.00"># getUploadDir()</text>
<text text-anchor="start" x="1865.5" y="-272" font-family="Helvetica,sans-Serif" font-size="10.00"># confirmSaveValue()</text>
<text text-anchor="start" x="1865.5" y="-261" font-family="Helvetica,sans-Serif" font-size="10.00"># confirmSave()</text>
<text text-anchor="start" x="1865.5" y="-250" font-family="Helvetica,sans-Serif" font-size="10.00"># beforeSave()</text>
<text text-anchor="start" x="1865.5" y="-239" font-family="Helvetica,sans-Serif" font-size="10.00"># afterSave()</text>
</a>
</g>
</g>
<!-- Node1&#45;&gt;Node21 -->
<g id="edge20" class="edge"><title>Node1&#45;&gt;Node21</title>
<path fill="none" stroke="midnightblue" d="M1348.96,-521.073C1489.22,-505.497 1766.99,-468.894 1848.5,-416 1851.51,-414.046 1854.42,-411.902 1857.24,-409.605"/>
<polygon fill="none" stroke="midnightblue" points="1348.25,-517.63 1338.69,-522.203 1349.01,-524.588 1348.25,-517.63"/>
</g>
<!-- Node22 -->
<g id="node22" class="node"><title>Node22</title>
<g id="a_node22"><a xlink:href="classwcmf_1_1application_1_1controller_1_1_s_o_a_p_controller.html" target="_top" xlink:title="SOAPController handles SOAP requests. ">
<polygon fill="white" stroke="black" points="1989.5,-287 1989.5,-355 2075.5,-355 2075.5,-287 1989.5,-287"/>
<text text-anchor="middle" x="2032.5" y="-343" font-family="Helvetica,sans-Serif" font-size="10.00">SOAPController</text>
<polyline fill="none" stroke="black" points="1989.5,-336 2075.5,-336 "/>
<text text-anchor="middle" x="2032.5" y="-324" font-family="Helvetica,sans-Serif" font-size="10.00"> </text>
<polyline fill="none" stroke="black" points="1989.5,-317 2075.5,-317 "/>
<text text-anchor="start" x="1997.5" y="-305" font-family="Helvetica,sans-Serif" font-size="10.00">+ search()</text>
<text text-anchor="start" x="1997.5" y="-294" font-family="Helvetica,sans-Serif" font-size="10.00"># doExecute()</text>
</a>
</g>
</g>
<!-- Node1&#45;&gt;Node22 -->
<g id="edge21" class="edge"><title>Node1&#45;&gt;Node22</title>
<path fill="none" stroke="midnightblue" d="M1348.82,-525.378C1514.22,-515.679 1879.72,-486.676 1980.5,-416 2001.11,-401.544 2014.45,-376.194 2022.45,-355.46"/>
<polygon fill="none" stroke="midnightblue" points="1348.48,-521.892 1338.7,-525.962 1348.88,-528.88 1348.48,-521.892"/>
</g>
<!-- Node23 -->
<g id="node23" class="node"><title>Node23</title>
<g id="a_node23"><a xlink:href="classwcmf_1_1application_1_1controller_1_1_sort_controller.html" target="_top" xlink:title="SortController is used to change the order of nodes. ">
<polygon fill="white" stroke="black" points="2093.5,-248.5 2093.5,-393.5 2245.5,-393.5 2245.5,-248.5 2093.5,-248.5"/>
<text text-anchor="middle" x="2169.5" y="-381.5" font-family="Helvetica,sans-Serif" font-size="10.00">SortController</text>
<polyline fill="none" stroke="black" points="2093.5,-374.5 2245.5,-374.5 "/>
<text text-anchor="start" x="2101.5" y="-362.5" font-family="Helvetica,sans-Serif" font-size="10.00">+ ORDER_BOTTOM</text>
<text text-anchor="start" x="2101.5" y="-351.5" font-family="Helvetica,sans-Serif" font-size="10.00">+ UNBOUND</text>
<polyline fill="none" stroke="black" points="2093.5,-344.5 2245.5,-344.5 "/>
<text text-anchor="start" x="2101.5" y="-332.5" font-family="Helvetica,sans-Serif" font-size="10.00"># validate()</text>
<text text-anchor="start" x="2101.5" y="-321.5" font-family="Helvetica,sans-Serif" font-size="10.00"># doExecute()</text>
<text text-anchor="start" x="2101.5" y="-310.5" font-family="Helvetica,sans-Serif" font-size="10.00"># doMoveBefore()</text>
<text text-anchor="start" x="2101.5" y="-299.5" font-family="Helvetica,sans-Serif" font-size="10.00"># doInsertBefore()</text>
<text text-anchor="start" x="2101.5" y="-288.5" font-family="Helvetica,sans-Serif" font-size="10.00"># loadObjectsInSortkeyRange()</text>
<text text-anchor="start" x="2101.5" y="-277.5" font-family="Helvetica,sans-Serif" font-size="10.00"># checkObjects()</text>
<text text-anchor="start" x="2101.5" y="-266.5" font-family="Helvetica,sans-Serif" font-size="10.00"># isOrderBotton()</text>
<text text-anchor="start" x="2101.5" y="-255.5" font-family="Helvetica,sans-Serif" font-size="10.00"># getSortkeyValue()</text>
</a>
</g>
</g>
<!-- Node1&#45;&gt;Node23 -->
<g id="edge22" class="edge"><title>Node1&#45;&gt;Node23</title>
<path fill="none" stroke="midnightblue" d="M1348.69,-525.205C1529.92,-514.606 1957.8,-483.054 2084.5,-416 2095.39,-410.237 2105.58,-402.497 2114.86,-393.921"/>
<polygon fill="none" stroke="midnightblue" points="1348.47,-521.713 1338.68,-525.784 1348.87,-528.701 1348.47,-521.713"/>
</g>
<!-- Node24 -->
<g id="node24" class="node"><title>Node24</title>
<g id="a_node24"><a xlink:href="classwcmf_1_1application_1_1controller_1_1_tree_controller.html" target="_top" xlink:title="TreeController is used to visualize nodes in a tree view. ">
<polygon fill="white" stroke="black" points="2263.5,-254 2263.5,-388 2365.5,-388 2365.5,-254 2263.5,-254"/>
<text text-anchor="middle" x="2314.5" y="-376" font-family="Helvetica,sans-Serif" font-size="10.00">TreeController</text>
<polyline fill="none" stroke="black" points="2263.5,-369 2365.5,-369 "/>
<text text-anchor="middle" x="2314.5" y="-357" font-family="Helvetica,sans-Serif" font-size="10.00"> </text>
<polyline fill="none" stroke="black" points="2263.5,-350 2365.5,-350 "/>
<text text-anchor="start" x="2271.5" y="-338" font-family="Helvetica,sans-Serif" font-size="10.00"># doExecute()</text>
<text text-anchor="start" x="2271.5" y="-327" font-family="Helvetica,sans-Serif" font-size="10.00"># getChildren()</text>
<text text-anchor="start" x="2271.5" y="-316" font-family="Helvetica,sans-Serif" font-size="10.00"># getRootOIDs()</text>
<text text-anchor="start" x="2271.5" y="-305" font-family="Helvetica,sans-Serif" font-size="10.00"># getViewNode()</text>
<text text-anchor="start" x="2271.5" y="-294" font-family="Helvetica,sans-Serif" font-size="10.00"># isVisible()</text>
<text text-anchor="start" x="2271.5" y="-283" font-family="Helvetica,sans-Serif" font-size="10.00"># getDisplayText()</text>
<text text-anchor="start" x="2271.5" y="-272" font-family="Helvetica,sans-Serif" font-size="10.00"># getRootTypes()</text>
<text text-anchor="start" x="2271.5" y="-261" font-family="Helvetica,sans-Serif" font-size="10.00"># isRootTypeNode()</text>
</a>
</g>
</g>
<!-- Node1&#45;&gt;Node24 -->
<g id="edge23" class="edge"><title>Node1&#45;&gt;Node24</title>
<path fill="none" stroke="midnightblue" d="M1349.02,-528.969C1558.33,-526.234 2104.03,-510.028 2254.5,-416 2265.66,-409.023 2275.13,-399.12 2283.01,-388.339"/>
<polygon fill="none" stroke="midnightblue" points="1348.66,-525.473 1338.71,-529.096 1348.75,-532.472 1348.66,-525.473"/>
</g>
<!-- Node25 -->
<g id="node25" class="node"><title>Node25</title>
<g id="a_node25"><a xlink:href="classwcmf_1_1application_1_1controller_1_1_user_controller.html" target="_top" xlink:title="UserController is used to change the current user&#39;s password. ">
<polygon fill="white" stroke="black" points="2383.5,-287 2383.5,-355 2489.5,-355 2489.5,-287 2383.5,-287"/>
<text text-anchor="middle" x="2436.5" y="-343" font-family="Helvetica,sans-Serif" font-size="10.00">UserController</text>
<polyline fill="none" stroke="black" points="2383.5,-336 2489.5,-336 "/>
<text text-anchor="middle" x="2436.5" y="-324" font-family="Helvetica,sans-Serif" font-size="10.00"> </text>
<polyline fill="none" stroke="black" points="2383.5,-317 2489.5,-317 "/>
<text text-anchor="start" x="2391.5" y="-305" font-family="Helvetica,sans-Serif" font-size="10.00">+ changePassword()</text>
<text text-anchor="start" x="2391.5" y="-294" font-family="Helvetica,sans-Serif" font-size="10.00"># doExecute()</text>
</a>
</g>
</g>
<!-- Node1&#45;&gt;Node25 -->
<g id="edge24" class="edge"><title>Node1&#45;&gt;Node25</title>
<path fill="none" stroke="midnightblue" d="M1348.83,-530.019C1575.28,-530.068 2202.07,-520.511 2374.5,-416 2397.4,-402.118 2413.55,-376.173 2423.61,-355.052"/>
<polygon fill="none" stroke="midnightblue" points="1348.68,-526.519 1338.68,-530.011 1348.67,-533.519 1348.68,-526.519"/>
</g>
<!-- Node26 -->
<g id="node26" class="node"><title>Node26</title>
<g id="a_node26"><a xlink:href="classwcmf_1_1application_1_1controller_1_1_value_list_controller.html" target="_top" xlink:title="ValueListController is used to resolve lists for input_type definitions. ">
<polygon fill="white" stroke="black" points="2507.5,-287 2507.5,-355 2605.5,-355 2605.5,-287 2507.5,-287"/>
<text text-anchor="middle" x="2556.5" y="-343" font-family="Helvetica,sans-Serif" font-size="10.00">ValueListController</text>
<polyline fill="none" stroke="black" points="2507.5,-336 2605.5,-336 "/>
<text text-anchor="middle" x="2556.5" y="-324" font-family="Helvetica,sans-Serif" font-size="10.00"> </text>
<polyline fill="none" stroke="black" points="2507.5,-317 2605.5,-317 "/>
<text text-anchor="start" x="2515.5" y="-305" font-family="Helvetica,sans-Serif" font-size="10.00">+ doExecute()</text>
<text text-anchor="start" x="2515.5" y="-294" font-family="Helvetica,sans-Serif" font-size="10.00"># validate()</text>
</a>
</g>
</g>
<!-- Node1&#45;&gt;Node26 -->
<g id="edge25" class="edge"><title>Node1&#45;&gt;Node26</title>
<path fill="none" stroke="midnightblue" d="M1348.95,-526.152C1609.09,-515.007 2401.05,-476.41 2498.5,-416 2520.83,-402.159 2535.87,-376.211 2545.03,-355.079"/>
<polygon fill="none" stroke="midnightblue" points="1348.66,-522.661 1338.81,-526.584 1348.95,-529.655 1348.66,-522.661"/>
</g>
<!-- Node4 -->
<g id="node4" class="node"><title>Node4</title>
<g id="a_node4"><a xlink:href="classwcmf_1_1application_1_1controller_1_1_batch_display_controller.html" target="_top" xlink:title="BatchDisplayController is used to load a tree of Node instances recursivly and return them in lists o...">
<polygon fill="white" stroke="black" points="0,-17 0,-173 123,-173 123,-17 0,-17"/>
<text text-anchor="middle" x="61.5" y="-161" font-family="Helvetica,sans-Serif" font-size="10.00">BatchDisplayController</text>
<polyline fill="none" stroke="black" points="0,-154 123,-154 "/>
<text text-anchor="middle" x="61.5" y="-142" font-family="Helvetica,sans-Serif" font-size="10.00"> </text>
<polyline fill="none" stroke="black" points="0,-135 123,-135 "/>
<text text-anchor="start" x="8" y="-123" font-family="Helvetica,sans-Serif" font-size="10.00">+ initialize()</text>
<text text-anchor="start" x="8" y="-112" font-family="Helvetica,sans-Serif" font-size="10.00"># validate()</text>
<text text-anchor="start" x="8" y="-101" font-family="Helvetica,sans-Serif" font-size="10.00"># getWorkPackage()</text>
<text text-anchor="start" x="8" y="-90" font-family="Helvetica,sans-Serif" font-size="10.00"># startProcess()</text>
<text text-anchor="start" x="8" y="-79" font-family="Helvetica,sans-Serif" font-size="10.00"># loadNodes()</text>
<text text-anchor="start" x="8" y="-68" font-family="Helvetica,sans-Serif" font-size="10.00"># endProcess()</text>
<text text-anchor="start" x="8" y="-57" font-family="Helvetica,sans-Serif" font-size="10.00"># loadNode()</text>
<text text-anchor="start" x="8" y="-46" font-family="Helvetica,sans-Serif" font-size="10.00"># register()</text>
<text text-anchor="start" x="8" y="-35" font-family="Helvetica,sans-Serif" font-size="10.00"># isRegistered()</text>
<text text-anchor="start" x="8" y="-24" font-family="Helvetica,sans-Serif" font-size="10.00"># addNodeToResponse()</text>
</a>
</g>
</g>
<!-- Node3&#45;&gt;Node4 -->
<g id="edge3" class="edge"><title>Node3&#45;&gt;Node4</title>
<path fill="none" stroke="midnightblue" d="M161.897,-222.89C151.781,-211.968 141.804,-200.861 132.5,-190 127.843,-184.564 123.133,-178.857 118.47,-173.055"/>
<polygon fill="none" stroke="midnightblue" points="159.537,-225.491 168.917,-230.417 164.656,-220.716 159.537,-225.491"/>
</g>
<!-- Node5 -->
<g id="node5" class="node"><title>Node5</title>
<g id="a_node5"><a xlink:href="classwcmf_1_1application_1_1controller_1_1_copy_controller.html" target="_top" xlink:title="CopyController is used to copy or move Node instances. ">
<polygon fill="white" stroke="black" points="141.5,-0.5 141.5,-189.5 247.5,-189.5 247.5,-0.5 141.5,-0.5"/>
<text text-anchor="middle" x="194.5" y="-177.5" font-family="Helvetica,sans-Serif" font-size="10.00">CopyController</text>
<polyline fill="none" stroke="black" points="141.5,-170.5 247.5,-170.5 "/>
<text text-anchor="middle" x="194.5" y="-158.5" font-family="Helvetica,sans-Serif" font-size="10.00"> </text>
<polyline fill="none" stroke="black" points="141.5,-151.5 247.5,-151.5 "/>
<text text-anchor="start" x="149.5" y="-139.5" font-family="Helvetica,sans-Serif" font-size="10.00">+ initialize()</text>
<text text-anchor="start" x="149.5" y="-128.5" font-family="Helvetica,sans-Serif" font-size="10.00"># validate()</text>
<text text-anchor="start" x="149.5" y="-117.5" font-family="Helvetica,sans-Serif" font-size="10.00"># getWorkPackage()</text>
<text text-anchor="start" x="149.5" y="-106.5" font-family="Helvetica,sans-Serif" font-size="10.00"># startProcess()</text>
<text text-anchor="start" x="149.5" y="-95.5" font-family="Helvetica,sans-Serif" font-size="10.00"># copyNodes()</text>
<text text-anchor="start" x="149.5" y="-84.5" font-family="Helvetica,sans-Serif" font-size="10.00"># endProcess()</text>
<text text-anchor="start" x="149.5" y="-73.5" font-family="Helvetica,sans-Serif" font-size="10.00"># copyNode()</text>
<text text-anchor="start" x="149.5" y="-62.5" font-family="Helvetica,sans-Serif" font-size="10.00"># getTargetNode()</text>
<text text-anchor="start" x="149.5" y="-51.5" font-family="Helvetica,sans-Serif" font-size="10.00"># registerCopy()</text>
<text text-anchor="start" x="149.5" y="-40.5" font-family="Helvetica,sans-Serif" font-size="10.00"># updateCopyOIDs()</text>
<text text-anchor="start" x="149.5" y="-29.5" font-family="Helvetica,sans-Serif" font-size="10.00"># getCopyOID()</text>
<text text-anchor="start" x="149.5" y="-18.5" font-family="Helvetica,sans-Serif" font-size="10.00"># getCopy()</text>
<text text-anchor="start" x="149.5" y="-7.5" font-family="Helvetica,sans-Serif" font-size="10.00"># modify()</text>
</a>
</g>
</g>
<!-- Node3&#45;&gt;Node5 -->
<g id="edge4" class="edge"><title>Node3&#45;&gt;Node5</title>
<path fill="none" stroke="midnightblue" d="M228.958,-216.602C226.393,-207.625 223.807,-198.575 221.267,-189.683"/>
<polygon fill="none" stroke="midnightblue" points="225.616,-217.648 231.729,-226.302 232.347,-215.725 225.616,-217.648"/>
</g>
<!-- Node6 -->
<g id="node6" class="node"><title>Node6</title>
<g id="a_node6"><a xlink:href="classwcmf_1_1application_1_1controller_1_1_search_index_controller.html" target="_top" xlink:title="SearchIndexController creates a Lucene index from the complete datastore. ">
<polygon fill="white" stroke="black" points="265.5,-50 265.5,-140 377.5,-140 377.5,-50 265.5,-50"/>
<text text-anchor="middle" x="321.5" y="-128" font-family="Helvetica,sans-Serif" font-size="10.00">SearchIndexController</text>
<polyline fill="none" stroke="black" points="265.5,-121 377.5,-121 "/>
<text text-anchor="middle" x="321.5" y="-109" font-family="Helvetica,sans-Serif" font-size="10.00"> </text>
<polyline fill="none" stroke="black" points="265.5,-102 377.5,-102 "/>
<text text-anchor="start" x="273.5" y="-90" font-family="Helvetica,sans-Serif" font-size="10.00"># getWorkPackage()</text>
<text text-anchor="start" x="273.5" y="-79" font-family="Helvetica,sans-Serif" font-size="10.00"># collect()</text>
<text text-anchor="start" x="273.5" y="-68" font-family="Helvetica,sans-Serif" font-size="10.00"># index()</text>
<text text-anchor="start" x="273.5" y="-57" font-family="Helvetica,sans-Serif" font-size="10.00"># optimize()</text>
</a>
</g>
</g>
<!-- Node3&#45;&gt;Node6 -->
<g id="edge5" class="edge"><title>Node3&#45;&gt;Node6</title>
<path fill="none" stroke="midnightblue" d="M287.622,-216.454C295.171,-189.614 302.903,-162.122 309.071,-140.193"/>
<polygon fill="none" stroke="midnightblue" points="284.191,-215.728 284.853,-226.302 290.929,-217.623 284.191,-215.728"/>
</g>
<!-- Node7 -->
<g id="node7" class="node"><title>Node7</title>
<g id="a_node7"><a xlink:href="classwcmf_1_1application_1_1controller_1_1_x_m_l_export_controller.html" target="_top" xlink:title="XMLExportController exports the content tree into an XML file. ">
<polygon fill="white" stroke="black" points="395.5,-6 395.5,-184 565.5,-184 565.5,-6 395.5,-6"/>
<text text-anchor="middle" x="480.5" y="-172" font-family="Helvetica,sans-Serif" font-size="10.00">XMLExportController</text>
<polyline fill="none" stroke="black" points="395.5,-165 565.5,-165 "/>
<text text-anchor="start" x="403.5" y="-153" font-family="Helvetica,sans-Serif" font-size="10.00">+ CACHE_SECTION</text>
<text text-anchor="start" x="403.5" y="-142" font-family="Helvetica,sans-Serif" font-size="10.00">+ CACHE_KEY_ROOT_OIDS</text>
<text text-anchor="start" x="403.5" y="-131" font-family="Helvetica,sans-Serif" font-size="10.00">+ CACHE_KEY_EXPORTED_OIDS</text>
<polyline fill="none" stroke="black" points="395.5,-124 565.5,-124 "/>
<text text-anchor="start" x="403.5" y="-112" font-family="Helvetica,sans-Serif" font-size="10.00">+ initialize()</text>
<text text-anchor="start" x="403.5" y="-101" font-family="Helvetica,sans-Serif" font-size="10.00"># getWorkPackage()</text>
<text text-anchor="start" x="403.5" y="-90" font-family="Helvetica,sans-Serif" font-size="10.00"># getDownloadFile()</text>
<text text-anchor="start" x="403.5" y="-79" font-family="Helvetica,sans-Serif" font-size="10.00"># initExport()</text>
<text text-anchor="start" x="403.5" y="-68" font-family="Helvetica,sans-Serif" font-size="10.00"># exportNodes()</text>
<text text-anchor="start" x="403.5" y="-57" font-family="Helvetica,sans-Serif" font-size="10.00"># finishExport()</text>
<text text-anchor="start" x="403.5" y="-46" font-family="Helvetica,sans-Serif" font-size="10.00"># endTags()</text>
<text text-anchor="start" x="403.5" y="-35" font-family="Helvetica,sans-Serif" font-size="10.00"># writeNode()</text>
<text text-anchor="start" x="403.5" y="-24" font-family="Helvetica,sans-Serif" font-size="10.00"># getNumUnvisitedChildren()</text>
<text text-anchor="start" x="403.5" y="-13" font-family="Helvetica,sans-Serif" font-size="10.00"># formatValue()</text>
</a>
</g>
</g>
<!-- Node3&#45;&gt;Node7 -->
<g id="edge6" class="edge"><title>Node3&#45;&gt;Node7</title>
<path fill="none" stroke="midnightblue" d="M355.47,-222.156C368.695,-208.813 382.189,-195.197 395.186,-182.082"/>
<polygon fill="none" stroke="midnightblue" points="352.709,-219.97 348.156,-229.536 357.681,-224.897 352.709,-219.97"/>
</g>
<!-- Node13 -->
<g id="node13" class="node"><title>Node13</title>
<g id="a_node13"><a xlink:href="classwcmf_1_1application_1_1controller_1_1_search_controller.html" target="_top" xlink:title="SearchController executes a search and returns matching objects in a paged list. ">
<polygon fill="white" stroke="black" points="818,-61 818,-129 907,-129 907,-61 818,-61"/>
<text text-anchor="middle" x="862.5" y="-117" font-family="Helvetica,sans-Serif" font-size="10.00">SearchController</text>
<polyline fill="none" stroke="black" points="818,-110 907,-110 "/>
<text text-anchor="start" x="826" y="-98" font-family="Helvetica,sans-Serif" font-size="10.00"># $_hits</text>
<polyline fill="none" stroke="black" points="818,-91 907,-91 "/>
<text text-anchor="start" x="826" y="-79" font-family="Helvetica,sans-Serif" font-size="10.00"># getObjects()</text>
<text text-anchor="start" x="826" y="-68" font-family="Helvetica,sans-Serif" font-size="10.00"># modifyModel()</text>
</a>
</g>
</g>
<!-- Node12&#45;&gt;Node13 -->
<g id="edge12" class="edge"><title>Node12&#45;&gt;Node13</title>
<path fill="none" stroke="midnightblue" d="M862.5,-265.545C862.5,-222.968 862.5,-165.158 862.5,-129.237"/>
<polygon fill="none" stroke="midnightblue" points="859,-265.745 862.5,-275.745 866,-265.745 859,-265.745"/>
</g>
</g>
</svg>
