<?xml version="1.0" encoding="UTF-8" standalone="no"?>
<!DOCTYPE svg PUBLIC "-//W3C//DTD SVG 1.1//EN"
 "http://www.w3.org/Graphics/SVG/1.1/DTD/svg11.dtd">
<!-- Generated by graphviz version 2.38.0 (20140413.2041)
 -->
<!-- Title: Event Pages: 1 -->
<svg width="916pt" height="259pt"
 viewBox="0.00 0.00 915.50 259.00" xmlns="http://www.w3.org/2000/svg" xmlns:xlink="http://www.w3.org/1999/xlink">
<g id="graph0" class="graph" transform="scale(1 1) rotate(0) translate(4 255)">
<title>Event</title>
<polygon fill="white" stroke="none" points="-4,4 -4,-255 911.5,-255 911.5,4 -4,4"/>
<!-- Node1 -->
<g id="node1" class="node"><title>Node1</title>
<polygon fill="#bfbfbf" stroke="black" points="355.5,-182.5 355.5,-250.5 457.5,-250.5 457.5,-182.5 355.5,-182.5"/>
<text text-anchor="middle" x="406.5" y="-238.5" font-family="Helvetica,sans-Serif" font-size="10.00">Event</text>
<polyline fill="none" stroke="black" points="355.5,-231.5 457.5,-231.5 "/>
<text text-anchor="middle" x="406.5" y="-219.5" font-family="Helvetica,sans-Serif" font-size="10.00"> </text>
<polyline fill="none" stroke="black" points="355.5,-212.5 457.5,-212.5 "/>
<text text-anchor="start" x="363.5" y="-200.5" font-family="Helvetica,sans-Serif" font-size="10.00">+ stopPropagation()</text>
<text text-anchor="start" x="363.5" y="-189.5" font-family="Helvetica,sans-Serif" font-size="10.00">+ isStopped()</text>
</g>
<!-- Node2 -->
<g id="node2" class="node"><title>Node2</title>
<g id="a_node2"><a xlink:href="classwcmf_1_1lib_1_1config_1_1_config_change_event.html" target="_top" xlink:title="ConfigChangeEvent signals a change of the application configuration. ">
<polygon fill="white" stroke="black" points="0,-44.5 0,-101.5 101,-101.5 101,-44.5 0,-44.5"/>
<text text-anchor="middle" x="50.5" y="-89.5" font-family="Helvetica,sans-Serif" font-size="10.00">ConfigChangeEvent</text>
<polyline fill="none" stroke="black" points="0,-82.5 101,-82.5 "/>
<text text-anchor="start" x="8" y="-70.5" font-family="Helvetica,sans-Serif" font-size="10.00">+ NAME</text>
<polyline fill="none" stroke="black" points="0,-63.5 101,-63.5 "/>
<text text-anchor="middle" x="50.5" y="-51.5" font-family="Helvetica,sans-Serif" font-size="10.00"> </text>
</a>
</g>
</g>
<!-- Node1&#45;&gt;Node2 -->
<g id="edge1" class="edge"><title>Node1&#45;&gt;Node2</title>
<path fill="none" stroke="midnightblue" d="M345.212,-212.421C282.15,-206.784 183.139,-190.87 110.5,-146 92.7806,-135.055 77.7806,-117.055 67.2105,-101.791"/>
<polygon fill="none" stroke="midnightblue" points="345.143,-215.927 355.399,-213.27 345.724,-208.951 345.143,-215.927"/>
</g>
<!-- Node3 -->
<g id="node3" class="node"><title>Node3</title>
<g id="a_node3"><a xlink:href="classwcmf_1_1lib_1_1persistence_1_1_persistence_event.html" target="_top" xlink:title="PersistentEvent signals create/update/delete operations on a persistent entity. ">
<polygon fill="white" stroke="black" points="119.5,-33.5 119.5,-112.5 211.5,-112.5 211.5,-33.5 119.5,-33.5"/>
<text text-anchor="middle" x="165.5" y="-100.5" font-family="Helvetica,sans-Serif" font-size="10.00">PersistenceEvent</text>
<polyline fill="none" stroke="black" points="119.5,-93.5 211.5,-93.5 "/>
<text text-anchor="start" x="127.5" y="-81.5" font-family="Helvetica,sans-Serif" font-size="10.00">+ NAME</text>
<polyline fill="none" stroke="black" points="119.5,-74.5 211.5,-74.5 "/>
<text text-anchor="start" x="127.5" y="-62.5" font-family="Helvetica,sans-Serif" font-size="10.00">+ __construct()</text>
<text text-anchor="start" x="127.5" y="-51.5" font-family="Helvetica,sans-Serif" font-size="10.00">+ getObject()</text>
<text text-anchor="start" x="127.5" y="-40.5" font-family="Helvetica,sans-Serif" font-size="10.00">+ getAction()</text>
</a>
</g>
</g>
<!-- Node1&#45;&gt;Node3 -->
<g id="edge2" class="edge"><title>Node1&#45;&gt;Node3</title>
<path fill="none" stroke="midnightblue" d="M345.336,-201.943C306.845,-191.272 257.612,-173.518 220.5,-146 208.37,-137.006 197.603,-124.632 188.883,-112.679"/>
<polygon fill="none" stroke="midnightblue" points="344.816,-205.427 355.381,-204.636 346.628,-198.666 344.816,-205.427"/>
</g>
<!-- Node4 -->
<g id="node4" class="node"><title>Node4</title>
<g id="a_node4"><a xlink:href="classwcmf_1_1lib_1_1persistence_1_1_property_change_event.html" target="_top" xlink:title="PropertyChangeEvent signals a change of a property of a PersistentObject instance. ">
<polygon fill="white" stroke="black" points="229.5,-22.5 229.5,-123.5 339.5,-123.5 339.5,-22.5 229.5,-22.5"/>
<text text-anchor="middle" x="284.5" y="-111.5" font-family="Helvetica,sans-Serif" font-size="10.00">PropertyChangeEvent</text>
<polyline fill="none" stroke="black" points="229.5,-104.5 339.5,-104.5 "/>
<text text-anchor="start" x="237.5" y="-92.5" font-family="Helvetica,sans-Serif" font-size="10.00">+ NAME</text>
<polyline fill="none" stroke="black" points="229.5,-85.5 339.5,-85.5 "/>
<text text-anchor="start" x="237.5" y="-73.5" font-family="Helvetica,sans-Serif" font-size="10.00">+ __construct()</text>
<text text-anchor="start" x="237.5" y="-62.5" font-family="Helvetica,sans-Serif" font-size="10.00">+ getObject()</text>
<text text-anchor="start" x="237.5" y="-51.5" font-family="Helvetica,sans-Serif" font-size="10.00">+ getPropertyName()</text>
<text text-anchor="start" x="237.5" y="-40.5" font-family="Helvetica,sans-Serif" font-size="10.00">+ getOldValue()</text>
<text text-anchor="start" x="237.5" y="-29.5" font-family="Helvetica,sans-Serif" font-size="10.00">+ getNewValue()</text>
</a>
</g>
</g>
<!-- Node1&#45;&gt;Node4 -->
<g id="edge3" class="edge"><title>Node1&#45;&gt;Node4</title>
<path fill="none" stroke="midnightblue" d="M371.333,-174.713C357.58,-158.761 341.678,-140.317 327.27,-123.606"/>
<polygon fill="none" stroke="midnightblue" points="368.716,-177.036 377.896,-182.325 374.017,-172.465 368.716,-177.036"/>
</g>
<!-- Node5 -->
<g id="node5" class="node"><title>Node5</title>
<g id="a_node5"><a xlink:href="classwcmf_1_1lib_1_1persistence_1_1_state_change_event.html" target="_top" xlink:title="StateChangeEvent signals a change of the state of a PersistentObject instance. ">
<polygon fill="white" stroke="black" points="358,-28 358,-118 455,-118 455,-28 358,-28"/>
<text text-anchor="middle" x="406.5" y="-106" font-family="Helvetica,sans-Serif" font-size="10.00">StateChangeEvent</text>
<polyline fill="none" stroke="black" points="358,-99 455,-99 "/>
<text text-anchor="start" x="366" y="-87" font-family="Helvetica,sans-Serif" font-size="10.00">+ NAME</text>
<polyline fill="none" stroke="black" points="358,-80 455,-80 "/>
<text text-anchor="start" x="366" y="-68" font-family="Helvetica,sans-Serif" font-size="10.00">+ __construct()</text>
<text text-anchor="start" x="366" y="-57" font-family="Helvetica,sans-Serif" font-size="10.00">+ getObject()</text>
<text text-anchor="start" x="366" y="-46" font-family="Helvetica,sans-Serif" font-size="10.00">+ getOldValue()</text>
<text text-anchor="start" x="366" y="-35" font-family="Helvetica,sans-Serif" font-size="10.00">+ getNewValue()</text>
</a>
</g>
</g>
<!-- Node1&#45;&gt;Node5 -->
<g id="edge4" class="edge"><title>Node1&#45;&gt;Node5</title>
<path fill="none" stroke="midnightblue" d="M406.5,-172.056C406.5,-154.972 406.5,-135.38 406.5,-118.221"/>
<polygon fill="none" stroke="midnightblue" points="403,-172.325 406.5,-182.325 410,-172.325 403,-172.325"/>
</g>
<!-- Node6 -->
<g id="node6" class="node"><title>Node6</title>
<g id="a_node6"><a xlink:href="classwcmf_1_1lib_1_1persistence_1_1_transaction_event.html" target="_top" xlink:title="TransactionEvent instances are fired at different phases of a transaction. ">
<polygon fill="white" stroke="black" points="473.5,-6 473.5,-140 587.5,-140 587.5,-6 473.5,-6"/>
<text text-anchor="middle" x="530.5" y="-128" font-family="Helvetica,sans-Serif" font-size="10.00">TransactionEvent</text>
<polyline fill="none" stroke="black" points="473.5,-121 587.5,-121 "/>
<text text-anchor="start" x="481.5" y="-109" font-family="Helvetica,sans-Serif" font-size="10.00">+ NAME</text>
<text text-anchor="start" x="481.5" y="-98" font-family="Helvetica,sans-Serif" font-size="10.00">+ BEFORE_COMMIT</text>
<text text-anchor="start" x="481.5" y="-87" font-family="Helvetica,sans-Serif" font-size="10.00">+ AFTER_COMMIT</text>
<text text-anchor="start" x="481.5" y="-76" font-family="Helvetica,sans-Serif" font-size="10.00">+ AFTER_ROLLBACK</text>
<polyline fill="none" stroke="black" points="473.5,-69 587.5,-69 "/>
<text text-anchor="start" x="481.5" y="-57" font-family="Helvetica,sans-Serif" font-size="10.00">+ __construct()</text>
<text text-anchor="start" x="481.5" y="-46" font-family="Helvetica,sans-Serif" font-size="10.00">+ getPhase()</text>
<text text-anchor="start" x="481.5" y="-35" font-family="Helvetica,sans-Serif" font-size="10.00">+ getInsertedOids()</text>
<text text-anchor="start" x="481.5" y="-24" font-family="Helvetica,sans-Serif" font-size="10.00">+ getUpdatedOids()</text>
<text text-anchor="start" x="481.5" y="-13" font-family="Helvetica,sans-Serif" font-size="10.00">+ getDeletedOids()</text>
</a>
</g>
</g>
<!-- Node1&#45;&gt;Node6 -->
<g id="edge5" class="edge"><title>Node1&#45;&gt;Node6</title>
<path fill="none" stroke="midnightblue" d="M442.418,-174.513C452.094,-163.471 462.807,-151.246 473.333,-139.235"/>
<polygon fill="none" stroke="midnightblue" points="439.531,-172.497 435.572,-182.325 444.796,-177.11 439.531,-172.497"/>
</g>
<!-- Node7 -->
<g id="node7" class="node"><title>Node7</title>
<g id="a_node7"><a xlink:href="classwcmf_1_1lib_1_1persistence_1_1_value_change_event.html" target="_top" xlink:title="ValueChangeEvent signals a change of a value of a PersistentObject instance. ">
<polygon fill="white" stroke="black" points="605.5,-22.5 605.5,-123.5 703.5,-123.5 703.5,-22.5 605.5,-22.5"/>
<text text-anchor="middle" x="654.5" y="-111.5" font-family="Helvetica,sans-Serif" font-size="10.00">ValueChangeEvent</text>
<polyline fill="none" stroke="black" points="605.5,-104.5 703.5,-104.5 "/>
<text text-anchor="start" x="613.5" y="-92.5" font-family="Helvetica,sans-Serif" font-size="10.00">+ NAME</text>
<polyline fill="none" stroke="black" points="605.5,-85.5 703.5,-85.5 "/>
<text text-anchor="start" x="613.5" y="-73.5" font-family="Helvetica,sans-Serif" font-size="10.00">+ __construct()</text>
<text text-anchor="start" x="613.5" y="-62.5" font-family="Helvetica,sans-Serif" font-size="10.00">+ getObject()</text>
<text text-anchor="start" x="613.5" y="-51.5" font-family="Helvetica,sans-Serif" font-size="10.00">+ getValueName()</text>
<text text-anchor="start" x="613.5" y="-40.5" font-family="Helvetica,sans-Serif" font-size="10.00">+ getOldValue()</text>
<text text-anchor="start" x="613.5" y="-29.5" font-family="Helvetica,sans-Serif" font-size="10.00">+ getNewValue()</text>
</a>
</g>
</g>
<!-- Node1&#45;&gt;Node7 -->
<g id="edge6" class="edge"><title>Node1&#45;&gt;Node7</title>
<path fill="none" stroke="midnightblue" d="M467.431,-202.228C506.837,-191.569 557.807,-173.721 596.5,-146 605.242,-139.737 613.381,-131.82 620.634,-123.545"/>
<polygon fill="none" stroke="midnightblue" points="466.462,-198.864 457.676,-204.785 468.237,-205.635 466.462,-198.864"/>
</g>
<!-- Node8 -->
<g id="node8" class="node"><title>Node8</title>
<g id="a_node8"><a xlink:href="classwcmf_1_1lib_1_1presentation_1_1_application_event.html" target="_top" xlink:title="ApplicationEvent instances are fired at different stages of the program flow. ">
<polygon fill="white" stroke="black" points="721.5,-0.5 721.5,-145.5 907.5,-145.5 907.5,-0.5 721.5,-0.5"/>
<text text-anchor="middle" x="814.5" y="-133.5" font-family="Helvetica,sans-Serif" font-size="10.00">ApplicationEvent</text>
<polyline fill="none" stroke="black" points="721.5,-126.5 907.5,-126.5 "/>
<text text-anchor="start" x="729.5" y="-114.5" font-family="Helvetica,sans-Serif" font-size="10.00">+ NAME</text>
<text text-anchor="start" x="729.5" y="-103.5" font-family="Helvetica,sans-Serif" font-size="10.00">+ BEFORE_ROUTE_ACTION</text>
<text text-anchor="start" x="729.5" y="-92.5" font-family="Helvetica,sans-Serif" font-size="10.00">+ BEFORE_INITIALIZE_CONTROLLER</text>
<text text-anchor="start" x="729.5" y="-81.5" font-family="Helvetica,sans-Serif" font-size="10.00">+ BEFORE_EXECUTE_CONTROLLER</text>
<text text-anchor="start" x="729.5" y="-70.5" font-family="Helvetica,sans-Serif" font-size="10.00">+ AFTER_EXECUTE_CONTROLLER</text>
<polyline fill="none" stroke="black" points="721.5,-63.5 907.5,-63.5 "/>
<text text-anchor="start" x="729.5" y="-51.5" font-family="Helvetica,sans-Serif" font-size="10.00">+ __construct()</text>
<text text-anchor="start" x="729.5" y="-40.5" font-family="Helvetica,sans-Serif" font-size="10.00">+ getStage()</text>
<text text-anchor="start" x="729.5" y="-29.5" font-family="Helvetica,sans-Serif" font-size="10.00">+ getRequest()</text>
<text text-anchor="start" x="729.5" y="-18.5" font-family="Helvetica,sans-Serif" font-size="10.00">+ getResponse()</text>
<text text-anchor="start" x="729.5" y="-7.5" font-family="Helvetica,sans-Serif" font-size="10.00">+ getController()</text>
</a>
</g>
</g>
<!-- Node1&#45;&gt;Node8 -->
<g id="edge7" class="edge"><title>Node1&#45;&gt;Node8</title>
<path fill="none" stroke="midnightblue" d="M467.941,-208.715C531.369,-200.089 632.124,-181.797 712.5,-146 715.47,-144.677 718.442,-143.262 721.406,-141.77"/>
<polygon fill="none" stroke="midnightblue" points="467.161,-205.288 457.705,-210.067 468.077,-212.227 467.161,-205.288"/>
</g>
</g>
</svg>
