<?xml version="1.0" encoding="UTF-8" standalone="no"?>
<!DOCTYPE svg PUBLIC "-//W3C//DTD SVG 1.1//EN"
 "http://www.w3.org/Graphics/SVG/1.1/DTD/svg11.dtd">
<!-- Generated by graphviz version 2.38.0 (20140413.2041)
 -->
<!-- Title: lib Pages: 1 -->
<svg width="1062pt" height="76pt"
 viewBox="0.00 0.00 1062.00 76.00" xmlns="http://www.w3.org/2000/svg" xmlns:xlink="http://www.w3.org/1999/xlink">
<g id="graph0" class="graph" transform="scale(1 1) rotate(0) translate(4 72)">
<title>lib</title>
<polygon fill="white" stroke="none" points="-4,4 -4,-72 1058,-72 1058,4 -4,4"/>
<g id="clust1" class="cluster"><title>clusterdir_97aefd0d527b934f1d99a682da8fe6a9</title>
<g id="a_clust1"><a xlink:href="dir_97aefd0d527b934f1d99a682da8fe6a9.html" target="_top">
<polygon fill="#eeeeff" stroke="black" points="8,-8 8,-60 1046,-60 1046,-8 8,-8"/>
</a>
</g>
</g>
<!-- dir_97aefd0d527b934f1d99a682da8fe6a9 -->
<g id="node1" class="node"><title>dir_97aefd0d527b934f1d99a682da8fe6a9</title>
<text text-anchor="middle" x="1011" y="-31.5" font-family="Helvetica,sans-Serif" font-size="10.00">lib</text>
</g>
<!-- dir_10e48b983f378c59dcd859736018b16d -->
<g id="node2" class="node"><title>dir_10e48b983f378c59dcd859736018b16d</title>
<g id="a_node2"><a xlink:href="dir_10e48b983f378c59dcd859736018b16d.html" target="_top" xlink:title="config">
<polygon fill="white" stroke="red" points="966,-52 912,-52 912,-16 966,-16 966,-52"/>
<text text-anchor="middle" x="939" y="-31.5" font-family="Helvetica,sans-Serif" font-size="10.00">config</text>
</a>
</g>
</g>
<!-- dir_a2d5e495f4b604d04f57d90095a59dd6 -->
<g id="node3" class="node"><title>dir_a2d5e495f4b604d04f57d90095a59dd6</title>
<g id="a_node3"><a xlink:href="dir_a2d5e495f4b604d04f57d90095a59dd6.html" target="_top" xlink:title="core">
<polygon fill="white" stroke="red" points="894,-52 840,-52 840,-16 894,-16 894,-52"/>
<text text-anchor="middle" x="867" y="-31.5" font-family="Helvetica,sans-Serif" font-size="10.00">core</text>
</a>
</g>
</g>
<!-- dir_7d500638636aba87b99949b08eb2a85e -->
<g id="node4" class="node"><title>dir_7d500638636aba87b99949b08eb2a85e</title>
<g id="a_node4"><a xlink:href="dir_7d500638636aba87b99949b08eb2a85e.html" target="_top" xlink:title="i18n">
<polygon fill="white" stroke="red" points="822,-52 768,-52 768,-16 822,-16 822,-52"/>
<text text-anchor="middle" x="795" y="-31.5" font-family="Helvetica,sans-Serif" font-size="10.00">i18n</text>
</a>
</g>
</g>
<!-- dir_5d0aa56803c8250a5d891761f6bfc5c7 -->
<g id="node5" class="node"><title>dir_5d0aa56803c8250a5d891761f6bfc5c7</title>
<g id="a_node5"><a xlink:href="dir_5d0aa56803c8250a5d891761f6bfc5c7.html" target="_top" xlink:title="io">
<polygon fill="white" stroke="red" points="750,-52 696,-52 696,-16 750,-16 750,-52"/>
<text text-anchor="middle" x="723" y="-31.5" font-family="Helvetica,sans-Serif" font-size="10.00">io</text>
</a>
</g>
</g>
<!-- dir_0eb1f34a69271cf642f946bb8e891ca3 -->
<g id="node6" class="node"><title>dir_0eb1f34a69271cf642f946bb8e891ca3</title>
<g id="a_node6"><a xlink:href="dir_0eb1f34a69271cf642f946bb8e891ca3.html" target="_top" xlink:title="model">
<polygon fill="white" stroke="red" points="678,-52 624,-52 624,-16 678,-16 678,-52"/>
<text text-anchor="middle" x="651" y="-31.5" font-family="Helvetica,sans-Serif" font-size="10.00">model</text>
</a>
</g>
</g>
<!-- dir_e9af63c4591b3294354fbe52a8bcbaca -->
<g id="node7" class="node"><title>dir_e9af63c4591b3294354fbe52a8bcbaca</title>
<g id="a_node7"><a xlink:href="dir_e9af63c4591b3294354fbe52a8bcbaca.html" target="_top" xlink:title="pdf">
<polygon fill="white" stroke="black" points="606,-52 552,-52 552,-16 606,-16 606,-52"/>
<text text-anchor="middle" x="579" y="-31.5" font-family="Helvetica,sans-Serif" font-size="10.00">pdf</text>
</a>
</g>
</g>
<!-- dir_af4f2c8af6d5aeb9e7b67de5ac895365 -->
<g id="node8" class="node"><title>dir_af4f2c8af6d5aeb9e7b67de5ac895365</title>
<g id="a_node8"><a xlink:href="dir_af4f2c8af6d5aeb9e7b67de5ac895365.html" target="_top" xlink:title="persistence">
<polygon fill="white" stroke="red" points="533.5,-52 466.5,-52 466.5,-16 533.5,-16 533.5,-52"/>
<text text-anchor="middle" x="500" y="-31.5" font-family="Helvetica,sans-Serif" font-size="10.00">persistence</text>
</a>
</g>
</g>
<!-- dir_2c167dadae1edee6396156038f705d0a -->
<g id="node9" class="node"><title>dir_2c167dadae1edee6396156038f705d0a</title>
<g id="a_node9"><a xlink:href="dir_2c167dadae1edee6396156038f705d0a.html" target="_top" xlink:title="presentation">
<polygon fill="white" stroke="red" points="448,-52 378,-52 378,-16 448,-16 448,-52"/>
<text text-anchor="middle" x="413" y="-31.5" font-family="Helvetica,sans-Serif" font-size="10.00">presentation</text>
</a>
</g>
</g>
<!-- dir_abc2113f39fe4b5bd74469db90aae5ae -->
<g id="node10" class="node"><title>dir_abc2113f39fe4b5bd74469db90aae5ae</title>
<g id="a_node10"><a xlink:href="dir_abc2113f39fe4b5bd74469db90aae5ae.html" target="_top" xlink:title="search">
<polygon fill="white" stroke="red" points="360,-52 306,-52 306,-16 360,-16 360,-52"/>
<text text-anchor="middle" x="333" y="-31.5" font-family="Helvetica,sans-Serif" font-size="10.00">search</text>
</a>
</g>
</g>
<!-- dir_a433880e15c69bf379b17cfb26eaf05d -->
<g id="node11" class="node"><title>dir_a433880e15c69bf379b17cfb26eaf05d</title>
<g id="a_node11"><a xlink:href="dir_a433880e15c69bf379b17cfb26eaf05d.html" target="_top" xlink:title="security">
<polygon fill="white" stroke="red" points="288,-52 234,-52 234,-16 288,-16 288,-52"/>
<text text-anchor="middle" x="261" y="-31.5" font-family="Helvetica,sans-Serif" font-size="10.00">security</text>
</a>
</g>
</g>
<!-- dir_6e2676533094fc65b5aa77e942e2c54c -->
<g id="node12" class="node"><title>dir_6e2676533094fc65b5aa77e942e2c54c</title>
<g id="a_node12"><a xlink:href="dir_6e2676533094fc65b5aa77e942e2c54c.html" target="_top" xlink:title="service">
<polygon fill="white" stroke="red" points="216,-52 162,-52 162,-16 216,-16 216,-52"/>
<text text-anchor="middle" x="189" y="-31.5" font-family="Helvetica,sans-Serif" font-size="10.00">service</text>
</a>
</g>
</g>
<!-- dir_158140ff656f78de6c470107cebb8f00 -->
<g id="node13" class="node"><title>dir_158140ff656f78de6c470107cebb8f00</title>
<g id="a_node13"><a xlink:href="dir_158140ff656f78de6c470107cebb8f00.html" target="_top" xlink:title="util">
<polygon fill="white" stroke="black" points="144,-52 90,-52 90,-16 144,-16 144,-52"/>
<text text-anchor="middle" x="117" y="-31.5" font-family="Helvetica,sans-Serif" font-size="10.00">util</text>
</a>
</g>
</g>
<!-- dir_cfa0384e96b4aa6de01b6098c2b09f64 -->
<g id="node14" class="node"><title>dir_cfa0384e96b4aa6de01b6098c2b09f64</title>
<g id="a_node14"><a xlink:href="dir_cfa0384e96b4aa6de01b6098c2b09f64.html" target="_top" xlink:title="validation">
<polygon fill="white" stroke="red" points="72,-52 16,-52 16,-16 72,-16 72,-52"/>
<text text-anchor="middle" x="44" y="-31.5" font-family="Helvetica,sans-Serif" font-size="10.00">validation</text>
</a>
</g>
</g>
</g>
</svg>
