<?xml version="1.0" encoding="UTF-8" standalone="no"?>
<!DOCTYPE svg PUBLIC "-//W3C//DTD SVG 1.1//EN"
 "http://www.w3.org/Graphics/SVG/1.1/DTD/svg11.dtd">
<!-- Generated by graphviz version 2.38.0 (20140413.2041)
 -->
<!-- Title: lib/presentation Pages: 1 -->
<svg width="486pt" height="111pt"
 viewBox="0.00 0.00 486.00 111.00" xmlns="http://www.w3.org/2000/svg" xmlns:xlink="http://www.w3.org/1999/xlink">
<g id="graph0" class="graph" transform="scale(1 1) rotate(0) translate(4 107)">
<title>lib/presentation</title>
<polygon fill="white" stroke="none" points="-4,4 -4,-107 482,-107 482,4 -4,4"/>
<g id="clust1" class="cluster"><title>clusterdir_098d557315d7f619643768cc1b3ebd0d</title>
<g id="a_clust1"><a xlink:href="dir_098d557315d7f619643768cc1b3ebd0d.html" target="_top" xlink:title="lib">
<polygon fill="#ddddee" stroke="black" points="8,-8 8,-95 470,-95 470,-8 8,-8"/>
<text text-anchor="middle" x="239" y="-83" font-family="Helvetica,sans-Serif" font-size="10.00">lib</text>
</a>
</g>
</g>
<g id="clust2" class="cluster"><title>clusterdir_ef6d6a8be2e4a5ebed8a716caaca8b88</title>
<g id="a_clust2"><a xlink:href="dir_ef6d6a8be2e4a5ebed8a716caaca8b88.html" target="_top">
<polygon fill="#eeeeff" stroke="black" points="16,-16 16,-68 462,-68 462,-16 16,-16"/>
</a>
</g>
</g>
<!-- dir_ef6d6a8be2e4a5ebed8a716caaca8b88 -->
<g id="node1" class="node"><title>dir_ef6d6a8be2e4a5ebed8a716caaca8b88</title>
<text text-anchor="middle" x="419" y="-39.5" font-family="Helvetica,sans-Serif" font-size="10.00">presentation</text>
</g>
<!-- dir_131b403a6e47d4d3c51c448bf74b7d7e -->
<g id="node2" class="node"><title>dir_131b403a6e47d4d3c51c448bf74b7d7e</title>
<g id="a_node2"><a xlink:href="dir_131b403a6e47d4d3c51c448bf74b7d7e.html" target="_top" xlink:title="control">
<polygon fill="white" stroke="red" points="366,-60 312,-60 312,-24 366,-24 366,-60"/>
<text text-anchor="middle" x="339" y="-39.5" font-family="Helvetica,sans-Serif" font-size="10.00">control</text>
</a>
</g>
</g>
<!-- dir_82c5bdeac6ff789f1ec5ef2e92639db3 -->
<g id="node3" class="node"><title>dir_82c5bdeac6ff789f1ec5ef2e92639db3</title>
<g id="a_node3"><a xlink:href="dir_82c5bdeac6ff789f1ec5ef2e92639db3.html" target="_top" xlink:title="format">
<polygon fill="white" stroke="red" points="294,-60 240,-60 240,-24 294,-24 294,-60"/>
<text text-anchor="middle" x="267" y="-39.5" font-family="Helvetica,sans-Serif" font-size="10.00">format</text>
</a>
</g>
</g>
<!-- dir_7cd7502e0ac7ade2a559bdb5848bd39b -->
<g id="node4" class="node"><title>dir_7cd7502e0ac7ade2a559bdb5848bd39b</title>
<g id="a_node4"><a xlink:href="dir_7cd7502e0ac7ade2a559bdb5848bd39b.html" target="_top" xlink:title="impl">
<polygon fill="white" stroke="black" points="222,-60 168,-60 168,-24 222,-24 222,-60"/>
<text text-anchor="middle" x="195" y="-39.5" font-family="Helvetica,sans-Serif" font-size="10.00">impl</text>
</a>
</g>
</g>
<!-- dir_de6e9cd37de6540380efb3b2d6bc45e2 -->
<g id="node5" class="node"><title>dir_de6e9cd37de6540380efb3b2d6bc45e2</title>
<g id="a_node5"><a xlink:href="dir_de6e9cd37de6540380efb3b2d6bc45e2.html" target="_top" xlink:title="link">
<polygon fill="white" stroke="black" points="150,-60 96,-60 96,-24 150,-24 150,-60"/>
<text text-anchor="middle" x="123" y="-39.5" font-family="Helvetica,sans-Serif" font-size="10.00">link</text>
</a>
</g>
</g>
<!-- dir_a0b5d19b572b002ebbb4c9758619c6bc -->
<g id="node6" class="node"><title>dir_a0b5d19b572b002ebbb4c9758619c6bc</title>
<g id="a_node6"><a xlink:href="dir_a0b5d19b572b002ebbb4c9758619c6bc.html" target="_top" xlink:title="view">
<polygon fill="white" stroke="red" points="78,-60 24,-60 24,-24 78,-24 78,-60"/>
<text text-anchor="middle" x="51" y="-39.5" font-family="Helvetica,sans-Serif" font-size="10.00">view</text>
</a>
</g>
</g>
</g>
</svg>
