<?xml version="1.0" encoding="UTF-8" standalone="no"?>
<!DOCTYPE svg PUBLIC "-//W3C//DTD SVG 1.1//EN"
 "http://www.w3.org/Graphics/SVG/1.1/DTD/svg11.dtd">
<!-- Generated by graphviz version 2.38.0 (20140413.2041)
 -->
<!-- Title: lib/persistence Pages: 1 -->
<svg width="428pt" height="111pt"
 viewBox="0.00 0.00 428.00 111.00" xmlns="http://www.w3.org/2000/svg" xmlns:xlink="http://www.w3.org/1999/xlink">
<g id="graph0" class="graph" transform="scale(1 1) rotate(0) translate(4 107)">
<title>lib/persistence</title>
<polygon fill="white" stroke="none" points="-4,4 -4,-107 424,-107 424,4 -4,4"/>
<g id="clust1" class="cluster"><title>clusterdir_098d557315d7f619643768cc1b3ebd0d</title>
<g id="a_clust1"><a xlink:href="dir_098d557315d7f619643768cc1b3ebd0d.html" target="_top" xlink:title="lib">
<polygon fill="#ddddee" stroke="black" points="8,-8 8,-95 412,-95 412,-8 8,-8"/>
<text text-anchor="middle" x="210" y="-83" font-family="Helvetica,sans-Serif" font-size="10.00">lib</text>
</a>
</g>
</g>
<g id="clust2" class="cluster"><title>clusterdir_39c44806d06b09217b7facf120c76084</title>
<g id="a_clust2"><a xlink:href="dir_39c44806d06b09217b7facf120c76084.html" target="_top">
<polygon fill="#eeeeff" stroke="black" points="16,-16 16,-68 404,-68 404,-16 16,-16"/>
</a>
</g>
</g>
<!-- dir_39c44806d06b09217b7facf120c76084 -->
<g id="node1" class="node"><title>dir_39c44806d06b09217b7facf120c76084</title>
<text text-anchor="middle" x="362" y="-39.5" font-family="Helvetica,sans-Serif" font-size="10.00">persistence</text>
</g>
<!-- dir_311c64bfd5dfde0fdde4247e5fd40ab1 -->
<g id="node2" class="node"><title>dir_311c64bfd5dfde0fdde4247e5fd40ab1</title>
<g id="a_node2"><a xlink:href="dir_311c64bfd5dfde0fdde4247e5fd40ab1.html" target="_top" xlink:title="concurrency">
<polygon fill="white" stroke="red" points="310,-60 240,-60 240,-24 310,-24 310,-60"/>
<text text-anchor="middle" x="275" y="-39.5" font-family="Helvetica,sans-Serif" font-size="10.00">concurrency</text>
</a>
</g>
</g>
<!-- dir_9ae216038d3fbc60e2f8062a0e79dbe7 -->
<g id="node3" class="node"><title>dir_9ae216038d3fbc60e2f8062a0e79dbe7</title>
<g id="a_node3"><a xlink:href="dir_9ae216038d3fbc60e2f8062a0e79dbe7.html" target="_top" xlink:title="impl">
<polygon fill="white" stroke="black" points="222,-60 168,-60 168,-24 222,-24 222,-60"/>
<text text-anchor="middle" x="195" y="-39.5" font-family="Helvetica,sans-Serif" font-size="10.00">impl</text>
</a>
</g>
</g>
<!-- dir_d148dd3f9ce82ae75709d28a9cdaaed8 -->
<g id="node4" class="node"><title>dir_d148dd3f9ce82ae75709d28a9cdaaed8</title>
<g id="a_node4"><a xlink:href="dir_d148dd3f9ce82ae75709d28a9cdaaed8.html" target="_top" xlink:title="output">
<polygon fill="white" stroke="red" points="150,-60 96,-60 96,-24 150,-24 150,-60"/>
<text text-anchor="middle" x="123" y="-39.5" font-family="Helvetica,sans-Serif" font-size="10.00">output</text>
</a>
</g>
</g>
<!-- dir_bc48b50c3548db1837f9549857ea70b1 -->
<g id="node5" class="node"><title>dir_bc48b50c3548db1837f9549857ea70b1</title>
<g id="a_node5"><a xlink:href="dir_bc48b50c3548db1837f9549857ea70b1.html" target="_top" xlink:title="validator">
<polygon fill="white" stroke="red" points="78,-60 24,-60 24,-24 78,-24 78,-60"/>
<text text-anchor="middle" x="51" y="-39.5" font-family="Helvetica,sans-Serif" font-size="10.00">validator</text>
</a>
</g>
</g>
</g>
</svg>
