<?xml version="1.0" encoding="UTF-8" standalone="no"?>
<!DOCTYPE svg PUBLIC "-//W3C//DTD SVG 1.1//EN"
 "http://www.w3.org/Graphics/SVG/1.1/DTD/svg11.dtd">
<!-- Generated by graphviz version 2.38.0 (20140413.2041)
 -->
<!-- Title: lib/presentation Pages: 1 -->
<svg width="414pt" height="111pt"
 viewBox="0.00 0.00 414.00 111.00" xmlns="http://www.w3.org/2000/svg" xmlns:xlink="http://www.w3.org/1999/xlink">
<g id="graph0" class="graph" transform="scale(1 1) rotate(0) translate(4 107)">
<title>lib/presentation</title>
<polygon fill="white" stroke="none" points="-4,4 -4,-107 410,-107 410,4 -4,4"/>
<g id="clust1" class="cluster"><title>clusterdir_97aefd0d527b934f1d99a682da8fe6a9</title>
<g id="a_clust1"><a xlink:href="dir_97aefd0d527b934f1d99a682da8fe6a9.html" target="_top" xlink:title="lib">
<polygon fill="#ddddee" stroke="black" points="8,-8 8,-95 398,-95 398,-8 8,-8"/>
<text text-anchor="middle" x="203" y="-83" font-family="Helvetica,sans-Serif" font-size="10.00">lib</text>
</a>
</g>
</g>
<g id="clust2" class="cluster"><title>clusterdir_2c167dadae1edee6396156038f705d0a</title>
<g id="a_clust2"><a xlink:href="dir_2c167dadae1edee6396156038f705d0a.html" target="_top">
<polygon fill="#eeeeff" stroke="black" points="16,-16 16,-68 390,-68 390,-16 16,-16"/>
</a>
</g>
</g>
<!-- dir_2c167dadae1edee6396156038f705d0a -->
<g id="node1" class="node"><title>dir_2c167dadae1edee6396156038f705d0a</title>
<text text-anchor="middle" x="347" y="-39.5" font-family="Helvetica,sans-Serif" font-size="10.00">presentation</text>
</g>
<!-- dir_8ea72fa4fc61089c519ffcc1cc1767cc -->
<g id="node2" class="node"><title>dir_8ea72fa4fc61089c519ffcc1cc1767cc</title>
<g id="a_node2"><a xlink:href="dir_8ea72fa4fc61089c519ffcc1cc1767cc.html" target="_top" xlink:title="control">
<polygon fill="white" stroke="red" points="294,-60 240,-60 240,-24 294,-24 294,-60"/>
<text text-anchor="middle" x="267" y="-39.5" font-family="Helvetica,sans-Serif" font-size="10.00">control</text>
</a>
</g>
</g>
<!-- dir_1f6e1aa37aff22067e601f662dcca2cb -->
<g id="node3" class="node"><title>dir_1f6e1aa37aff22067e601f662dcca2cb</title>
<g id="a_node3"><a xlink:href="dir_1f6e1aa37aff22067e601f662dcca2cb.html" target="_top" xlink:title="format">
<polygon fill="white" stroke="red" points="222,-60 168,-60 168,-24 222,-24 222,-60"/>
<text text-anchor="middle" x="195" y="-39.5" font-family="Helvetica,sans-Serif" font-size="10.00">format</text>
</a>
</g>
</g>
<!-- dir_b9d9e1470d66a4e75a0ceecc26c22516 -->
<g id="node4" class="node"><title>dir_b9d9e1470d66a4e75a0ceecc26c22516</title>
<g id="a_node4"><a xlink:href="dir_b9d9e1470d66a4e75a0ceecc26c22516.html" target="_top" xlink:title="impl">
<polygon fill="white" stroke="black" points="150,-60 96,-60 96,-24 150,-24 150,-60"/>
<text text-anchor="middle" x="123" y="-39.5" font-family="Helvetica,sans-Serif" font-size="10.00">impl</text>
</a>
</g>
</g>
<!-- dir_a1fdf143db2e6aa45294fc0328d8ee14 -->
<g id="node5" class="node"><title>dir_a1fdf143db2e6aa45294fc0328d8ee14</title>
<g id="a_node5"><a xlink:href="dir_a1fdf143db2e6aa45294fc0328d8ee14.html" target="_top" xlink:title="view">
<polygon fill="white" stroke="red" points="78,-60 24,-60 24,-24 78,-24 78,-60"/>
<text text-anchor="middle" x="51" y="-39.5" font-family="Helvetica,sans-Serif" font-size="10.00">view</text>
</a>
</g>
</g>
</g>
</svg>
