<?xml version="1.0" encoding="UTF-8" standalone="no"?>
<!DOCTYPE svg PUBLIC "-//W3C//DTD SVG 1.1//EN"
 "http://www.w3.org/Graphics/SVG/1.1/DTD/svg11.dtd">
<!-- Generated by graphviz version 2.38.0 (20140413.2041)
 -->
<!-- Title: lib/model Pages: 1 -->
<svg width="398pt" height="111pt"
 viewBox="0.00 0.00 398.00 111.00" xmlns="http://www.w3.org/2000/svg" xmlns:xlink="http://www.w3.org/1999/xlink">
<g id="graph0" class="graph" transform="scale(1 1) rotate(0) translate(4 107)">
<title>lib/model</title>
<polygon fill="white" stroke="none" points="-4,4 -4,-107 394,-107 394,4 -4,4"/>
<g id="clust1" class="cluster"><title>clusterdir_97aefd0d527b934f1d99a682da8fe6a9</title>
<g id="a_clust1"><a xlink:href="dir_97aefd0d527b934f1d99a682da8fe6a9.html" target="_top" xlink:title="lib">
<polygon fill="#ddddee" stroke="black" points="8,-8 8,-95 382,-95 382,-8 8,-8"/>
<text text-anchor="middle" x="195" y="-83" font-family="Helvetica,sans-Serif" font-size="10.00">lib</text>
</a>
</g>
</g>
<g id="clust2" class="cluster"><title>clusterdir_0eb1f34a69271cf642f946bb8e891ca3</title>
<g id="a_clust2"><a xlink:href="dir_0eb1f34a69271cf642f946bb8e891ca3.html" target="_top">
<polygon fill="#eeeeff" stroke="black" points="16,-16 16,-68 374,-68 374,-16 16,-16"/>
</a>
</g>
</g>
<!-- dir_0eb1f34a69271cf642f946bb8e891ca3 -->
<g id="node1" class="node"><title>dir_0eb1f34a69271cf642f946bb8e891ca3</title>
<text text-anchor="middle" x="339" y="-39.5" font-family="Helvetica,sans-Serif" font-size="10.00">model</text>
</g>
<!-- dir_ee761ea832d8d2f189969eb615ef0198 -->
<g id="node2" class="node"><title>dir_ee761ea832d8d2f189969eb615ef0198</title>
<g id="a_node2"><a xlink:href="dir_ee761ea832d8d2f189969eb615ef0198.html" target="_top" xlink:title="impl">
<polygon fill="white" stroke="black" points="294,-60 240,-60 240,-24 294,-24 294,-60"/>
<text text-anchor="middle" x="267" y="-39.5" font-family="Helvetica,sans-Serif" font-size="10.00">impl</text>
</a>
</g>
</g>
<!-- dir_572d810a40e0f32a73d7b3a05b68fa5c -->
<g id="node3" class="node"><title>dir_572d810a40e0f32a73d7b3a05b68fa5c</title>
<g id="a_node3"><a xlink:href="dir_572d810a40e0f32a73d7b3a05b68fa5c.html" target="_top" xlink:title="mapper">
<polygon fill="white" stroke="red" points="222,-60 168,-60 168,-24 222,-24 222,-60"/>
<text text-anchor="middle" x="195" y="-39.5" font-family="Helvetica,sans-Serif" font-size="10.00">mapper</text>
</a>
</g>
</g>
<!-- dir_d4dbab01dedaa229f4e8ef61ff4f357d -->
<g id="node4" class="node"><title>dir_d4dbab01dedaa229f4e8ef61ff4f357d</title>
<g id="a_node4"><a xlink:href="dir_d4dbab01dedaa229f4e8ef61ff4f357d.html" target="_top" xlink:title="output">
<polygon fill="white" stroke="black" points="150,-60 96,-60 96,-24 150,-24 150,-60"/>
<text text-anchor="middle" x="123" y="-39.5" font-family="Helvetica,sans-Serif" font-size="10.00">output</text>
</a>
</g>
</g>
<!-- dir_ead0c7e5245a6dcb1ec28f2ac9131edb -->
<g id="node5" class="node"><title>dir_ead0c7e5245a6dcb1ec28f2ac9131edb</title>
<g id="a_node5"><a xlink:href="dir_ead0c7e5245a6dcb1ec28f2ac9131edb.html" target="_top" xlink:title="visitor">
<polygon fill="white" stroke="black" points="78,-60 24,-60 24,-24 78,-24 78,-60"/>
<text text-anchor="middle" x="51" y="-39.5" font-family="Helvetica,sans-Serif" font-size="10.00">visitor</text>
</a>
</g>
</g>
</g>
</svg>
