<?xml version="1.0" encoding="UTF-8" standalone="no"?>
<!DOCTYPE svg PUBLIC "-//W3C//DTD SVG 1.1//EN"
 "http://www.w3.org/Graphics/SVG/1.1/DTD/svg11.dtd">
<!-- Generated by graphviz version 2.38.0 (20140413.2041)
 -->
<!-- Title: Session Pages: 1 -->
<svg width="297pt" height="551pt"
 viewBox="0.00 0.00 296.87 551.00" xmlns="http://www.w3.org/2000/svg" xmlns:xlink="http://www.w3.org/1999/xlink">
<g id="graph0" class="graph" transform="scale(1 1) rotate(0) translate(4 547)">
<title>Session</title>
<polygon fill="white" stroke="none" points="-4,4 -4,-547 292.871,-547 292.871,4 -4,4"/>
<!-- Node1 -->
<g id="node1" class="node"><title>Node1</title>
<polygon fill="#bfbfbf" stroke="black" points="52.3711,-397.5 52.3711,-542.5 138.371,-542.5 138.371,-397.5 52.3711,-397.5"/>
<text text-anchor="middle" x="95.3711" y="-530.5" font-family="Helvetica,sans-Serif" font-size="10.00">Session</text>
<polyline fill="none" stroke="black" points="52.3711,-523.5 138.371,-523.5 "/>
<text text-anchor="middle" x="95.3711" y="-511.5" font-family="Helvetica,sans-Serif" font-size="10.00"> </text>
<polyline fill="none" stroke="black" points="52.3711,-504.5 138.371,-504.5 "/>
<text text-anchor="start" x="60.3711" y="-492.5" font-family="Helvetica,sans-Serif" font-size="10.00">+ getID()</text>
<text text-anchor="start" x="60.3711" y="-481.5" font-family="Helvetica,sans-Serif" font-size="10.00">+ get()</text>
<text text-anchor="start" x="60.3711" y="-470.5" font-family="Helvetica,sans-Serif" font-size="10.00">+ set()</text>
<text text-anchor="start" x="60.3711" y="-459.5" font-family="Helvetica,sans-Serif" font-size="10.00">+ remove()</text>
<text text-anchor="start" x="60.3711" y="-448.5" font-family="Helvetica,sans-Serif" font-size="10.00">+ exist()</text>
<text text-anchor="start" x="60.3711" y="-437.5" font-family="Helvetica,sans-Serif" font-size="10.00">+ clear()</text>
<text text-anchor="start" x="60.3711" y="-426.5" font-family="Helvetica,sans-Serif" font-size="10.00">+ destroy()</text>
<text text-anchor="start" x="60.3711" y="-415.5" font-family="Helvetica,sans-Serif" font-size="10.00">+ setAuthUser()</text>
<text text-anchor="start" x="60.3711" y="-404.5" font-family="Helvetica,sans-Serif" font-size="10.00">+ getAuthUser()</text>
</g>
<!-- Node2 -->
<g id="node2" class="node"><title>Node2</title>
<g id="a_node2"><a xlink:href="classwcmf_1_1lib_1_1core_1_1impl_1_1_auth_token_session.html" target="_top" xlink:title="AuthTokenSession is a DefaultSession, but additionally requires clients to send a token in the X&#45;Auth...">
<polygon fill="white" stroke="black" points="67.3711,-0.5 67.3711,-90.5 171.371,-90.5 171.371,-0.5 67.3711,-0.5"/>
<text text-anchor="middle" x="119.371" y="-78.5" font-family="Helvetica,sans-Serif" font-size="10.00">AuthTokenSession</text>
<polyline fill="none" stroke="black" points="67.3711,-71.5 171.371,-71.5 "/>
<text text-anchor="start" x="75.3711" y="-59.5" font-family="Helvetica,sans-Serif" font-size="10.00">+ TOKEN_HEADER</text>
<polyline fill="none" stroke="black" points="67.3711,-52.5 171.371,-52.5 "/>
<text text-anchor="start" x="75.3711" y="-40.5" font-family="Helvetica,sans-Serif" font-size="10.00">+ __construct()</text>
<text text-anchor="start" x="75.3711" y="-29.5" font-family="Helvetica,sans-Serif" font-size="10.00">+ setAuthUser()</text>
<text text-anchor="start" x="75.3711" y="-18.5" font-family="Helvetica,sans-Serif" font-size="10.00">+ getAuthUser()</text>
<text text-anchor="start" x="75.3711" y="-7.5" font-family="Helvetica,sans-Serif" font-size="10.00"># isTokenValid()</text>
</a>
</g>
</g>
<!-- Node1&#45;&gt;Node2 -->
<g id="edge1" class="edge"><title>Node1&#45;&gt;Node2</title>
<path fill="none" stroke="midnightblue" d="M46.8406,-404.729C38.8147,-390.961 31.7053,-376.018 27.3711,-361 -1.4659,-261.078 -15.6034,-221.706 27.3711,-127 35.9656,-108.06 51.4621,-91.8238 67.3168,-78.9972"/>
<polygon fill="none" stroke="midnightblue" points="44.0439,-406.866 52.2271,-413.596 50.0265,-403.232 44.0439,-406.866"/>
</g>
<!-- Node3 -->
<g id="node3" class="node"><title>Node3</title>
<g id="a_node3"><a xlink:href="classwcmf_1_1lib_1_1core_1_1impl_1_1_client_side_session.html" target="_top" xlink:title="ClientSideSession has no server state as it stores the data in cookies. ">
<polygon fill="white" stroke="black" points="36.8711,-127.5 36.8711,-360.5 153.871,-360.5 153.871,-127.5 36.8711,-127.5"/>
<text text-anchor="middle" x="95.3711" y="-348.5" font-family="Helvetica,sans-Serif" font-size="10.00">ClientSideSession</text>
<polyline fill="none" stroke="black" points="36.8711,-341.5 153.871,-341.5 "/>
<text text-anchor="start" x="44.8711" y="-329.5" font-family="Helvetica,sans-Serif" font-size="10.00">+ TOKEN_HEADER</text>
<text text-anchor="start" x="44.8711" y="-318.5" font-family="Helvetica,sans-Serif" font-size="10.00">+ AUTH_TYPE</text>
<text text-anchor="start" x="44.8711" y="-307.5" font-family="Helvetica,sans-Serif" font-size="10.00">+ AUTH_USER_NAME</text>
<polyline fill="none" stroke="black" points="36.8711,-300.5 153.871,-300.5 "/>
<text text-anchor="start" x="44.8711" y="-288.5" font-family="Helvetica,sans-Serif" font-size="10.00">+ __construct()</text>
<text text-anchor="start" x="44.8711" y="-277.5" font-family="Helvetica,sans-Serif" font-size="10.00">+ getID()</text>
<text text-anchor="start" x="44.8711" y="-266.5" font-family="Helvetica,sans-Serif" font-size="10.00">+ get()</text>
<text text-anchor="start" x="44.8711" y="-255.5" font-family="Helvetica,sans-Serif" font-size="10.00">+ set()</text>
<text text-anchor="start" x="44.8711" y="-244.5" font-family="Helvetica,sans-Serif" font-size="10.00">+ remove()</text>
<text text-anchor="start" x="44.8711" y="-233.5" font-family="Helvetica,sans-Serif" font-size="10.00">+ exist()</text>
<text text-anchor="start" x="44.8711" y="-222.5" font-family="Helvetica,sans-Serif" font-size="10.00">+ clear()</text>
<text text-anchor="start" x="44.8711" y="-211.5" font-family="Helvetica,sans-Serif" font-size="10.00">+ destroy()</text>
<text text-anchor="start" x="44.8711" y="-200.5" font-family="Helvetica,sans-Serif" font-size="10.00">+ setAuthUser()</text>
<text text-anchor="start" x="44.8711" y="-189.5" font-family="Helvetica,sans-Serif" font-size="10.00">+ getAuthUser()</text>
<text text-anchor="start" x="44.8711" y="-178.5" font-family="Helvetica,sans-Serif" font-size="10.00"># getCookiePrefix()</text>
<text text-anchor="start" x="44.8711" y="-167.5" font-family="Helvetica,sans-Serif" font-size="10.00"># createToken()</text>
<text text-anchor="start" x="44.8711" y="-156.5" font-family="Helvetica,sans-Serif" font-size="10.00"># getTokenIssuer()</text>
<text text-anchor="start" x="44.8711" y="-145.5" font-family="Helvetica,sans-Serif" font-size="10.00"># getTokenSigner()</text>
<text text-anchor="start" x="44.8711" y="-134.5" font-family="Helvetica,sans-Serif" font-size="10.00"># getTokenData()</text>
</a>
</g>
</g>
<!-- Node1&#45;&gt;Node3 -->
<g id="edge2" class="edge"><title>Node1&#45;&gt;Node3</title>
<path fill="none" stroke="midnightblue" d="M95.3711,-386.949C95.3711,-378.432 95.3711,-369.665 95.3711,-360.866"/>
<polygon fill="none" stroke="midnightblue" points="91.8712,-387.201 95.3711,-397.201 98.8712,-387.201 91.8712,-387.201"/>
</g>
<!-- Node4 -->
<g id="node4" class="node"><title>Node4</title>
<g id="a_node4"><a xlink:href="classwcmf_1_1lib_1_1core_1_1impl_1_1_default_session.html" target="_top" xlink:title="DefaultSession uses the default PHP session implementation: ">
<polygon fill="white" stroke="black" points="171.871,-155 171.871,-333 288.871,-333 288.871,-155 171.871,-155"/>
<text text-anchor="middle" x="230.371" y="-321" font-family="Helvetica,sans-Serif" font-size="10.00">DefaultSession</text>
<polyline fill="none" stroke="black" points="171.871,-314 288.871,-314 "/>
<text text-anchor="start" x="179.871" y="-302" font-family="Helvetica,sans-Serif" font-size="10.00">+ AUTH_USER_NAME</text>
<polyline fill="none" stroke="black" points="171.871,-295 288.871,-295 "/>
<text text-anchor="start" x="179.871" y="-283" font-family="Helvetica,sans-Serif" font-size="10.00">+ __construct()</text>
<text text-anchor="start" x="179.871" y="-272" font-family="Helvetica,sans-Serif" font-size="10.00">+ __destruct()</text>
<text text-anchor="start" x="179.871" y="-261" font-family="Helvetica,sans-Serif" font-size="10.00">+ getID()</text>
<text text-anchor="start" x="179.871" y="-250" font-family="Helvetica,sans-Serif" font-size="10.00">+ get()</text>
<text text-anchor="start" x="179.871" y="-239" font-family="Helvetica,sans-Serif" font-size="10.00">+ set()</text>
<text text-anchor="start" x="179.871" y="-228" font-family="Helvetica,sans-Serif" font-size="10.00">+ remove()</text>
<text text-anchor="start" x="179.871" y="-217" font-family="Helvetica,sans-Serif" font-size="10.00">+ exist()</text>
<text text-anchor="start" x="179.871" y="-206" font-family="Helvetica,sans-Serif" font-size="10.00">+ clear()</text>
<text text-anchor="start" x="179.871" y="-195" font-family="Helvetica,sans-Serif" font-size="10.00">+ destroy()</text>
<text text-anchor="start" x="179.871" y="-184" font-family="Helvetica,sans-Serif" font-size="10.00">+ setAuthUser()</text>
<text text-anchor="start" x="179.871" y="-173" font-family="Helvetica,sans-Serif" font-size="10.00">+ getAuthUser()</text>
<text text-anchor="start" x="179.871" y="-162" font-family="Helvetica,sans-Serif" font-size="10.00"># getCookiePrefix()</text>
</a>
</g>
</g>
<!-- Node1&#45;&gt;Node4 -->
<g id="edge3" class="edge"><title>Node1&#45;&gt;Node4</title>
<path fill="none" stroke="midnightblue" d="M143.72,-393.017C150.386,-382.307 157.094,-371.404 163.371,-361 168.777,-352.039 174.353,-342.644 179.872,-333.245"/>
<polygon fill="none" stroke="midnightblue" points="140.718,-391.216 138.391,-401.552 146.656,-394.923 140.718,-391.216"/>
</g>
<!-- Node4&#45;&gt;Node2 -->
<g id="edge4" class="edge"><title>Node4&#45;&gt;Node2</title>
<path fill="none" stroke="midnightblue" d="M175.532,-145.921C164.587,-126.544 153.606,-107.106 144.295,-90.6223"/>
<polygon fill="none" stroke="midnightblue" points="172.587,-147.823 180.553,-154.809 178.682,-144.38 172.587,-147.823"/>
</g>
</g>
</svg>
