<?xml version="1.0" encoding="UTF-8" standalone="no"?>
<!DOCTYPE svg PUBLIC "-//W3C//DTD SVG 1.1//EN"
 "http://www.w3.org/Graphics/SVG/1.1/DTD/svg11.dtd">
<!-- Generated by graphviz version 2.38.0 (20140413.2041)
 -->
<!-- Title: ControllerMessage Pages: 1 -->
<svg width="405pt" height="617pt"
 viewBox="0.00 0.00 405.00 617.00" xmlns="http://www.w3.org/2000/svg" xmlns:xlink="http://www.w3.org/1999/xlink">
<g id="graph0" class="graph" transform="scale(1 1) rotate(0) translate(4 613)">
<title>ControllerMessage</title>
<polygon fill="white" stroke="none" points="-4,4 -4,-613 401,-613 401,4 -4,4"/>
<!-- Node1 -->
<g id="node1" class="node"><title>Node1</title>
<polygon fill="#bfbfbf" stroke="black" points="155.5,-441.5 155.5,-608.5 253.5,-608.5 253.5,-441.5 155.5,-441.5"/>
<text text-anchor="middle" x="204.5" y="-596.5" font-family="Helvetica,sans-Serif" font-size="10.00">ControllerMessage</text>
<polyline fill="none" stroke="black" points="155.5,-589.5 253.5,-589.5 "/>
<text text-anchor="middle" x="204.5" y="-577.5" font-family="Helvetica,sans-Serif" font-size="10.00"> </text>
<polyline fill="none" stroke="black" points="155.5,-570.5 253.5,-570.5 "/>
<text text-anchor="start" x="163.5" y="-558.5" font-family="Helvetica,sans-Serif" font-size="10.00">+ setSender()</text>
<text text-anchor="start" x="163.5" y="-547.5" font-family="Helvetica,sans-Serif" font-size="10.00">+ getSender()</text>
<text text-anchor="start" x="163.5" y="-536.5" font-family="Helvetica,sans-Serif" font-size="10.00">+ setContext()</text>
<text text-anchor="start" x="163.5" y="-525.5" font-family="Helvetica,sans-Serif" font-size="10.00">+ getContext()</text>
<text text-anchor="start" x="163.5" y="-514.5" font-family="Helvetica,sans-Serif" font-size="10.00">+ setAction()</text>
<text text-anchor="start" x="163.5" y="-503.5" font-family="Helvetica,sans-Serif" font-size="10.00">+ getAction()</text>
<text text-anchor="start" x="163.5" y="-492.5" font-family="Helvetica,sans-Serif" font-size="10.00">+ setFormat()</text>
<text text-anchor="start" x="163.5" y="-481.5" font-family="Helvetica,sans-Serif" font-size="10.00">+ getFormat()</text>
<text text-anchor="start" x="163.5" y="-470.5" font-family="Helvetica,sans-Serif" font-size="10.00">+ setHeader()</text>
<text text-anchor="start" x="163.5" y="-459.5" font-family="Helvetica,sans-Serif" font-size="10.00">+ setHeaders()</text>
<text text-anchor="start" x="163.5" y="-448.5" font-family="Helvetica,sans-Serif" font-size="10.00">and 20 more...</text>
</g>
<!-- Node2 -->
<g id="node2" class="node"><title>Node2</title>
<g id="a_node2"><a xlink:href="classwcmf_1_1lib_1_1presentation_1_1impl_1_1_abstract_controller_message.html" target="_top" xlink:title="AbstractControllerMessage is the base class for request/response implementations. ...">
<polygon fill="white" stroke="black" points="137.5,-226.5 137.5,-404.5 271.5,-404.5 271.5,-226.5 137.5,-226.5"/>
<text text-anchor="middle" x="204.5" y="-392.5" font-family="Helvetica,sans-Serif" font-size="10.00">AbstractControllerMessage</text>
<polyline fill="none" stroke="black" points="137.5,-385.5 271.5,-385.5 "/>
<text text-anchor="middle" x="204.5" y="-373.5" font-family="Helvetica,sans-Serif" font-size="10.00"> </text>
<polyline fill="none" stroke="black" points="137.5,-366.5 271.5,-366.5 "/>
<text text-anchor="start" x="145.5" y="-354.5" font-family="Helvetica,sans-Serif" font-size="10.00">+ __construct()</text>
<text text-anchor="start" x="145.5" y="-343.5" font-family="Helvetica,sans-Serif" font-size="10.00">+ setSender()</text>
<text text-anchor="start" x="145.5" y="-332.5" font-family="Helvetica,sans-Serif" font-size="10.00">+ getSender()</text>
<text text-anchor="start" x="145.5" y="-321.5" font-family="Helvetica,sans-Serif" font-size="10.00">+ setContext()</text>
<text text-anchor="start" x="145.5" y="-310.5" font-family="Helvetica,sans-Serif" font-size="10.00">+ getContext()</text>
<text text-anchor="start" x="145.5" y="-299.5" font-family="Helvetica,sans-Serif" font-size="10.00">+ setAction()</text>
<text text-anchor="start" x="145.5" y="-288.5" font-family="Helvetica,sans-Serif" font-size="10.00">+ getAction()</text>
<text text-anchor="start" x="145.5" y="-277.5" font-family="Helvetica,sans-Serif" font-size="10.00">+ setFormat()</text>
<text text-anchor="start" x="145.5" y="-266.5" font-family="Helvetica,sans-Serif" font-size="10.00">+ getFormat()</text>
<text text-anchor="start" x="145.5" y="-255.5" font-family="Helvetica,sans-Serif" font-size="10.00">+ setHeader()</text>
<text text-anchor="start" x="145.5" y="-244.5" font-family="Helvetica,sans-Serif" font-size="10.00">and 22 more...</text>
<text text-anchor="start" x="145.5" y="-233.5" font-family="Helvetica,sans-Serif" font-size="10.00"># getFormatter()</text>
</a>
</g>
</g>
<!-- Node1&#45;&gt;Node2 -->
<g id="edge1" class="edge"><title>Node1&#45;&gt;Node2</title>
<path fill="none" stroke="midnightblue" d="M204.5,-431.111C204.5,-422.297 204.5,-413.378 204.5,-404.61"/>
<polygon fill="none" stroke="midnightblue" points="201,-431.394 204.5,-441.394 208,-431.394 201,-431.394"/>
</g>
<!-- Node5 -->
<g id="node5" class="node"><title>Node5</title>
<g id="a_node5"><a xlink:href="interfacewcmf_1_1lib_1_1presentation_1_1_request.html" target="_top" xlink:title="Request holds the request values that are used as input to Controller instances. ">
<polygon fill="white" stroke="black" points="0,-259.5 0,-371.5 119,-371.5 119,-259.5 0,-259.5"/>
<text text-anchor="middle" x="59.5" y="-359.5" font-family="Helvetica,sans-Serif" font-size="10.00">Request</text>
<polyline fill="none" stroke="black" points="0,-352.5 119,-352.5 "/>
<text text-anchor="middle" x="59.5" y="-340.5" font-family="Helvetica,sans-Serif" font-size="10.00"> </text>
<polyline fill="none" stroke="black" points="0,-333.5 119,-333.5 "/>
<text text-anchor="start" x="8" y="-321.5" font-family="Helvetica,sans-Serif" font-size="10.00">+ setResponse()</text>
<text text-anchor="start" x="8" y="-310.5" font-family="Helvetica,sans-Serif" font-size="10.00">+ getResponse()</text>
<text text-anchor="start" x="8" y="-299.5" font-family="Helvetica,sans-Serif" font-size="10.00">+ initialize()</text>
<text text-anchor="start" x="8" y="-288.5" font-family="Helvetica,sans-Serif" font-size="10.00">+ getMethod()</text>
<text text-anchor="start" x="8" y="-277.5" font-family="Helvetica,sans-Serif" font-size="10.00">+ setResponseFormat()</text>
<text text-anchor="start" x="8" y="-266.5" font-family="Helvetica,sans-Serif" font-size="10.00">+ getResponseFormat()</text>
</a>
</g>
</g>
<!-- Node1&#45;&gt;Node5 -->
<g id="edge4" class="edge"><title>Node1&#45;&gt;Node5</title>
<path fill="none" stroke="midnightblue" d="M149.636,-445.488C132.434,-420.87 113.821,-394.235 98.0004,-371.595"/>
<polygon fill="none" stroke="midnightblue" points="146.813,-447.558 155.41,-453.75 152.551,-443.548 146.813,-447.558"/>
</g>
<!-- Node6 -->
<g id="node6" class="node"><title>Node6</title>
<g id="a_node6"><a xlink:href="interfacewcmf_1_1lib_1_1presentation_1_1_response.html" target="_top" xlink:title="Response holds the response values that are used as output from Controller instances. ">
<polygon fill="white" stroke="black" points="290,-226.5 290,-404.5 397,-404.5 397,-226.5 290,-226.5"/>
<text text-anchor="middle" x="343.5" y="-392.5" font-family="Helvetica,sans-Serif" font-size="10.00">Response</text>
<polyline fill="none" stroke="black" points="290,-385.5 397,-385.5 "/>
<text text-anchor="middle" x="343.5" y="-373.5" font-family="Helvetica,sans-Serif" font-size="10.00"> </text>
<polyline fill="none" stroke="black" points="290,-366.5 397,-366.5 "/>
<text text-anchor="start" x="298" y="-354.5" font-family="Helvetica,sans-Serif" font-size="10.00">+ setRequest()</text>
<text text-anchor="start" x="298" y="-343.5" font-family="Helvetica,sans-Serif" font-size="10.00">+ getRequest()</text>
<text text-anchor="start" x="298" y="-332.5" font-family="Helvetica,sans-Serif" font-size="10.00">+ setCacheId()</text>
<text text-anchor="start" x="298" y="-321.5" font-family="Helvetica,sans-Serif" font-size="10.00">+ getCacheId()</text>
<text text-anchor="start" x="298" y="-310.5" font-family="Helvetica,sans-Serif" font-size="10.00">+ setCacheLifetime()</text>
<text text-anchor="start" x="298" y="-299.5" font-family="Helvetica,sans-Serif" font-size="10.00">+ getCacheLifetime()</text>
<text text-anchor="start" x="298" y="-288.5" font-family="Helvetica,sans-Serif" font-size="10.00">+ isCached()</text>
<text text-anchor="start" x="298" y="-277.5" font-family="Helvetica,sans-Serif" font-size="10.00">+ getCacheDate()</text>
<text text-anchor="start" x="298" y="-266.5" font-family="Helvetica,sans-Serif" font-size="10.00">+ setStatus()</text>
<text text-anchor="start" x="298" y="-255.5" font-family="Helvetica,sans-Serif" font-size="10.00">+ getStatus()</text>
<text text-anchor="start" x="298" y="-244.5" font-family="Helvetica,sans-Serif" font-size="10.00">+ setFile()</text>
<text text-anchor="start" x="298" y="-233.5" font-family="Helvetica,sans-Serif" font-size="10.00">+ getFile()</text>
</a>
</g>
</g>
<!-- Node1&#45;&gt;Node6 -->
<g id="edge6" class="edge"><title>Node1&#45;&gt;Node6</title>
<path fill="none" stroke="midnightblue" d="M259.096,-442.499C269.251,-427.339 279.852,-411.515 289.974,-396.404"/>
<polygon fill="none" stroke="midnightblue" points="256.164,-440.587 253.506,-450.843 261.98,-444.483 256.164,-440.587"/>
</g>
<!-- Node3 -->
<g id="node3" class="node"><title>Node3</title>
<g id="a_node3"><a xlink:href="classwcmf_1_1lib_1_1presentation_1_1impl_1_1_default_request.html" target="_top" xlink:title="Default Request implementation. ">
<polygon fill="white" stroke="black" points="7,-17 7,-173 126,-173 126,-17 7,-17"/>
<text text-anchor="middle" x="66.5" y="-161" font-family="Helvetica,sans-Serif" font-size="10.00">DefaultRequest</text>
<polyline fill="none" stroke="black" points="7,-154 126,-154 "/>
<text text-anchor="middle" x="66.5" y="-142" font-family="Helvetica,sans-Serif" font-size="10.00"> </text>
<polyline fill="none" stroke="black" points="7,-135 126,-135 "/>
<text text-anchor="start" x="15" y="-123" font-family="Helvetica,sans-Serif" font-size="10.00">+ __construct()</text>
<text text-anchor="start" x="15" y="-112" font-family="Helvetica,sans-Serif" font-size="10.00">+ setResponse()</text>
<text text-anchor="start" x="15" y="-101" font-family="Helvetica,sans-Serif" font-size="10.00">+ getResponse()</text>
<text text-anchor="start" x="15" y="-90" font-family="Helvetica,sans-Serif" font-size="10.00">+ initialize()</text>
<text text-anchor="start" x="15" y="-79" font-family="Helvetica,sans-Serif" font-size="10.00">+ getMethod()</text>
<text text-anchor="start" x="15" y="-68" font-family="Helvetica,sans-Serif" font-size="10.00">+ setResponseFormat()</text>
<text text-anchor="start" x="15" y="-57" font-family="Helvetica,sans-Serif" font-size="10.00">+ getResponseFormat()</text>
<text text-anchor="start" x="15" y="-46" font-family="Helvetica,sans-Serif" font-size="10.00">+ __toString()</text>
<text text-anchor="start" x="15" y="-35" font-family="Helvetica,sans-Serif" font-size="10.00"># getMatchingRoutes()</text>
<text text-anchor="start" x="15" y="-24" font-family="Helvetica,sans-Serif" font-size="10.00"># getBestRoute()</text>
</a>
</g>
</g>
<!-- Node2&#45;&gt;Node3 -->
<g id="edge2" class="edge"><title>Node2&#45;&gt;Node3</title>
<path fill="none" stroke="midnightblue" d="M143.286,-217.578C133.928,-202.761 124.377,-187.639 115.333,-173.318"/>
<polygon fill="none" stroke="midnightblue" points="140.469,-219.672 148.768,-226.258 146.387,-215.934 140.469,-219.672"/>
</g>
<!-- Node4 -->
<g id="node4" class="node"><title>Node4</title>
<g id="a_node4"><a xlink:href="classwcmf_1_1lib_1_1presentation_1_1impl_1_1_default_response.html" target="_top" xlink:title="Default Response implementation. ">
<polygon fill="white" stroke="black" points="220,-0.5 220,-189.5 327,-189.5 327,-0.5 220,-0.5"/>
<text text-anchor="middle" x="273.5" y="-177.5" font-family="Helvetica,sans-Serif" font-size="10.00">DefaultResponse</text>
<polyline fill="none" stroke="black" points="220,-170.5 327,-170.5 "/>
<text text-anchor="middle" x="273.5" y="-158.5" font-family="Helvetica,sans-Serif" font-size="10.00"> </text>
<polyline fill="none" stroke="black" points="220,-151.5 327,-151.5 "/>
<text text-anchor="start" x="228" y="-139.5" font-family="Helvetica,sans-Serif" font-size="10.00">+ __construct()</text>
<text text-anchor="start" x="228" y="-128.5" font-family="Helvetica,sans-Serif" font-size="10.00">+ setRequest()</text>
<text text-anchor="start" x="228" y="-117.5" font-family="Helvetica,sans-Serif" font-size="10.00">+ getRequest()</text>
<text text-anchor="start" x="228" y="-106.5" font-family="Helvetica,sans-Serif" font-size="10.00">+ setCacheId()</text>
<text text-anchor="start" x="228" y="-95.5" font-family="Helvetica,sans-Serif" font-size="10.00">+ getCacheId()</text>
<text text-anchor="start" x="228" y="-84.5" font-family="Helvetica,sans-Serif" font-size="10.00">+ setCacheLifetime()</text>
<text text-anchor="start" x="228" y="-73.5" font-family="Helvetica,sans-Serif" font-size="10.00">+ getCacheLifetime()</text>
<text text-anchor="start" x="228" y="-62.5" font-family="Helvetica,sans-Serif" font-size="10.00">+ isCached()</text>
<text text-anchor="start" x="228" y="-51.5" font-family="Helvetica,sans-Serif" font-size="10.00">+ getCacheDate()</text>
<text text-anchor="start" x="228" y="-40.5" font-family="Helvetica,sans-Serif" font-size="10.00">+ setStatus()</text>
<text text-anchor="start" x="228" y="-29.5" font-family="Helvetica,sans-Serif" font-size="10.00">+ getStatus()</text>
<text text-anchor="start" x="228" y="-18.5" font-family="Helvetica,sans-Serif" font-size="10.00">+ setFile()</text>
<text text-anchor="start" x="228" y="-7.5" font-family="Helvetica,sans-Serif" font-size="10.00">+ getFile()</text>
</a>
</g>
</g>
<!-- Node2&#45;&gt;Node4 -->
<g id="edge3" class="edge"><title>Node2&#45;&gt;Node4</title>
<path fill="none" stroke="midnightblue" d="M235.426,-216.567C238.262,-207.588 241.13,-198.506 243.952,-189.567"/>
<polygon fill="none" stroke="midnightblue" points="232.04,-215.668 232.366,-226.258 238.715,-217.776 232.04,-215.668"/>
</g>
<!-- Node5&#45;&gt;Node3 -->
<g id="edge5" class="edge"><title>Node5&#45;&gt;Node3</title>
<path fill="none" stroke="midnightblue" d="M61.587,-249.357C62.3517,-225.486 63.2246,-198.24 64.0204,-173.4"/>
<polygon fill="none" stroke="midnightblue" points="58.0885,-249.256 61.2664,-259.363 65.0849,-249.48 58.0885,-249.256"/>
</g>
<!-- Node6&#45;&gt;Node4 -->
<g id="edge7" class="edge"><title>Node6&#45;&gt;Node4</title>
<path fill="none" stroke="midnightblue" d="M312.125,-216.567C309.249,-207.588 306.34,-198.506 303.476,-189.567"/>
<polygon fill="none" stroke="midnightblue" points="308.846,-217.802 315.23,-226.258 315.512,-215.666 308.846,-217.802"/>
</g>
</g>
</svg>
