<?xml version="1.0" encoding="UTF-8" standalone="no"?>
<!DOCTYPE svg PUBLIC "-//W3C//DTD SVG 1.1//EN"
 "http://www.w3.org/Graphics/SVG/1.1/DTD/svg11.dtd">
<!-- Generated by graphviz version 2.38.0 (20140413.2041)
 -->
<!-- Title: View Pages: 1 -->
<svg width="234pt" height="413pt"
 viewBox="0.00 0.00 233.50 413.00" xmlns="http://www.w3.org/2000/svg" xmlns:xlink="http://www.w3.org/1999/xlink">
<g id="graph0" class="graph" transform="scale(1 1) rotate(0) translate(4 409)">
<title>View</title>
<polygon fill="white" stroke="none" points="-4,4 -4,-409 229.5,-409 229.5,4 -4,4"/>
<!-- Node1 -->
<g id="node1" class="node"><title>Node1</title>
<polygon fill="#bfbfbf" stroke="black" points="61,-270.5 61,-404.5 155,-404.5 155,-270.5 61,-270.5"/>
<text text-anchor="middle" x="108" y="-392.5" font-family="Helvetica,sans-Serif" font-size="10.00">View</text>
<polyline fill="none" stroke="black" points="61,-385.5 155,-385.5 "/>
<text text-anchor="middle" x="108" y="-373.5" font-family="Helvetica,sans-Serif" font-size="10.00"> </text>
<polyline fill="none" stroke="black" points="61,-366.5 155,-366.5 "/>
<text text-anchor="start" x="69" y="-354.5" font-family="Helvetica,sans-Serif" font-size="10.00">+ setValue()</text>
<text text-anchor="start" x="69" y="-343.5" font-family="Helvetica,sans-Serif" font-size="10.00">+ getValue()</text>
<text text-anchor="start" x="69" y="-332.5" font-family="Helvetica,sans-Serif" font-size="10.00">+ getValues()</text>
<text text-anchor="start" x="69" y="-321.5" font-family="Helvetica,sans-Serif" font-size="10.00">+ clearAllValues()</text>
<text text-anchor="start" x="69" y="-310.5" font-family="Helvetica,sans-Serif" font-size="10.00">+ render()</text>
<text text-anchor="start" x="69" y="-299.5" font-family="Helvetica,sans-Serif" font-size="10.00">+ clearCache()</text>
<text text-anchor="start" x="69" y="-288.5" font-family="Helvetica,sans-Serif" font-size="10.00">+ isCached()</text>
<text text-anchor="start" x="69" y="-277.5" font-family="Helvetica,sans-Serif" font-size="10.00">+ getTemplate()</text>
</g>
<!-- Node2 -->
<g id="node2" class="node"><title>Node2</title>
<g id="a_node2"><a xlink:href="classwcmf_1_1lib_1_1presentation_1_1view_1_1impl_1_1_null_view.html" target="_top" xlink:title="NullView is a stub class that implements all view methods. ">
<polygon fill="white" stroke="black" points="0,-50 0,-184 94,-184 94,-50 0,-50"/>
<text text-anchor="middle" x="47" y="-172" font-family="Helvetica,sans-Serif" font-size="10.00">NullView</text>
<polyline fill="none" stroke="black" points="0,-165 94,-165 "/>
<text text-anchor="middle" x="47" y="-153" font-family="Helvetica,sans-Serif" font-size="10.00"> </text>
<polyline fill="none" stroke="black" points="0,-146 94,-146 "/>
<text text-anchor="start" x="8" y="-134" font-family="Helvetica,sans-Serif" font-size="10.00">+ setValue()</text>
<text text-anchor="start" x="8" y="-123" font-family="Helvetica,sans-Serif" font-size="10.00">+ getValue()</text>
<text text-anchor="start" x="8" y="-112" font-family="Helvetica,sans-Serif" font-size="10.00">+ getValues()</text>
<text text-anchor="start" x="8" y="-101" font-family="Helvetica,sans-Serif" font-size="10.00">+ clearAllValues()</text>
<text text-anchor="start" x="8" y="-90" font-family="Helvetica,sans-Serif" font-size="10.00">+ render()</text>
<text text-anchor="start" x="8" y="-79" font-family="Helvetica,sans-Serif" font-size="10.00">+ clearCache()</text>
<text text-anchor="start" x="8" y="-68" font-family="Helvetica,sans-Serif" font-size="10.00">+ isCached()</text>
<text text-anchor="start" x="8" y="-57" font-family="Helvetica,sans-Serif" font-size="10.00">+ getTemplate()</text>
</a>
</g>
</g>
<!-- Node1&#45;&gt;Node2 -->
<g id="edge1" class="edge"><title>Node1&#45;&gt;Node2</title>
<path fill="none" stroke="midnightblue" d="M86.8121,-260.606C79.877,-235.764 72.2315,-208.378 65.51,-184.302"/>
<polygon fill="none" stroke="midnightblue" points="83.4723,-261.659 89.5324,-270.35 90.2145,-259.777 83.4723,-261.659"/>
</g>
<!-- Node3 -->
<g id="node3" class="node"><title>Node3</title>
<g id="a_node3"><a xlink:href="classwcmf_1_1lib_1_1presentation_1_1view_1_1impl_1_1_smarty_view.html" target="_top" xlink:title="View is used by Controller to handle the view presentation in MVC pattern. ">
<polygon fill="white" stroke="black" points="112.5,-0.5 112.5,-233.5 225.5,-233.5 225.5,-0.5 112.5,-0.5"/>
<text text-anchor="middle" x="169" y="-221.5" font-family="Helvetica,sans-Serif" font-size="10.00">SmartyView</text>
<polyline fill="none" stroke="black" points="112.5,-214.5 225.5,-214.5 "/>
<text text-anchor="start" x="120.5" y="-202.5" font-family="Helvetica,sans-Serif" font-size="10.00"># $_view</text>
<text text-anchor="start" x="120.5" y="-191.5" font-family="Helvetica,sans-Serif" font-size="10.00"># $_sharedView</text>
<text text-anchor="start" x="120.5" y="-180.5" font-family="Helvetica,sans-Serif" font-size="10.00"># $_actionKeyProvider</text>
<polyline fill="none" stroke="black" points="112.5,-173.5 225.5,-173.5 "/>
<text text-anchor="start" x="120.5" y="-161.5" font-family="Helvetica,sans-Serif" font-size="10.00">+ __construct()</text>
<text text-anchor="start" x="120.5" y="-150.5" font-family="Helvetica,sans-Serif" font-size="10.00">+ setCompileCheck()</text>
<text text-anchor="start" x="120.5" y="-139.5" font-family="Helvetica,sans-Serif" font-size="10.00">+ setCaching()</text>
<text text-anchor="start" x="120.5" y="-128.5" font-family="Helvetica,sans-Serif" font-size="10.00">+ setCacheLifetime()</text>
<text text-anchor="start" x="120.5" y="-117.5" font-family="Helvetica,sans-Serif" font-size="10.00">+ setCacheDir()</text>
<text text-anchor="start" x="120.5" y="-106.5" font-family="Helvetica,sans-Serif" font-size="10.00">+ setPluginsDir()</text>
<text text-anchor="start" x="120.5" y="-95.5" font-family="Helvetica,sans-Serif" font-size="10.00">+ setOutputFilter()</text>
<text text-anchor="start" x="120.5" y="-84.5" font-family="Helvetica,sans-Serif" font-size="10.00">+ setValue()</text>
<text text-anchor="start" x="120.5" y="-73.5" font-family="Helvetica,sans-Serif" font-size="10.00">+ getValue()</text>
<text text-anchor="start" x="120.5" y="-62.5" font-family="Helvetica,sans-Serif" font-size="10.00">+ getValues()</text>
<text text-anchor="start" x="120.5" y="-51.5" font-family="Helvetica,sans-Serif" font-size="10.00">+ clearAllValues()</text>
<text text-anchor="start" x="120.5" y="-40.5" font-family="Helvetica,sans-Serif" font-size="10.00">+ render()</text>
<text text-anchor="start" x="120.5" y="-29.5" font-family="Helvetica,sans-Serif" font-size="10.00">+ clearCache()</text>
<text text-anchor="start" x="120.5" y="-18.5" font-family="Helvetica,sans-Serif" font-size="10.00">+ isCached()</text>
<text text-anchor="start" x="120.5" y="-7.5" font-family="Helvetica,sans-Serif" font-size="10.00">+ getTemplate()</text>
</a>
</g>
</g>
<!-- Node1&#45;&gt;Node3 -->
<g id="edge2" class="edge"><title>Node1&#45;&gt;Node3</title>
<path fill="none" stroke="midnightblue" d="M129.188,-260.606C131.634,-251.844 134.169,-242.765 136.72,-233.627"/>
<polygon fill="none" stroke="midnightblue" points="125.785,-259.777 126.468,-270.35 132.528,-261.659 125.785,-259.777"/>
</g>
</g>
</svg>
