<?xml version="1.0" encoding="UTF-8" standalone="no"?>
<!DOCTYPE svg PUBLIC "-//W3C//DTD SVG 1.1//EN"
 "http://www.w3.org/Graphics/SVG/1.1/DTD/svg11.dtd">
<!-- Generated by graphviz version 2.38.0 (20140413.2041)
 -->
<!-- Title: Response Pages: 1 -->
<svg width="106pt" height="573pt"
 viewBox="0.00 0.00 106.00 573.00" xmlns="http://www.w3.org/2000/svg" xmlns:xlink="http://www.w3.org/1999/xlink">
<g id="graph0" class="graph" transform="scale(1 1) rotate(0) translate(4 569)">
<title>Response</title>
<polygon fill="white" stroke="none" points="-4,4 -4,-569 102,-569 102,4 -4,4"/>
<!-- Node1 -->
<g id="node1" class="node"><title>Node1</title>
<polygon fill="#bfbfbf" stroke="black" points="2.5,-204.5 2.5,-360.5 95.5,-360.5 95.5,-204.5 2.5,-204.5"/>
<text text-anchor="middle" x="49" y="-348.5" font-family="Helvetica,sans-Serif" font-size="10.00">Response</text>
<polyline fill="none" stroke="black" points="2.5,-341.5 95.5,-341.5 "/>
<text text-anchor="middle" x="49" y="-329.5" font-family="Helvetica,sans-Serif" font-size="10.00"> </text>
<polyline fill="none" stroke="black" points="2.5,-322.5 95.5,-322.5 "/>
<text text-anchor="start" x="10.5" y="-310.5" font-family="Helvetica,sans-Serif" font-size="10.00">+ setRequest()</text>
<text text-anchor="start" x="10.5" y="-299.5" font-family="Helvetica,sans-Serif" font-size="10.00">+ getRequest()</text>
<text text-anchor="start" x="10.5" y="-288.5" font-family="Helvetica,sans-Serif" font-size="10.00">+ setCacheId()</text>
<text text-anchor="start" x="10.5" y="-277.5" font-family="Helvetica,sans-Serif" font-size="10.00">+ getCacheId()</text>
<text text-anchor="start" x="10.5" y="-266.5" font-family="Helvetica,sans-Serif" font-size="10.00">+ isCached()</text>
<text text-anchor="start" x="10.5" y="-255.5" font-family="Helvetica,sans-Serif" font-size="10.00">+ getCacheDate()</text>
<text text-anchor="start" x="10.5" y="-244.5" font-family="Helvetica,sans-Serif" font-size="10.00">+ setStatus()</text>
<text text-anchor="start" x="10.5" y="-233.5" font-family="Helvetica,sans-Serif" font-size="10.00">+ getStatus()</text>
<text text-anchor="start" x="10.5" y="-222.5" font-family="Helvetica,sans-Serif" font-size="10.00">+ setFile()</text>
<text text-anchor="start" x="10.5" y="-211.5" font-family="Helvetica,sans-Serif" font-size="10.00">+ getFile()</text>
</g>
<!-- Node3 -->
<g id="node3" class="node"><title>Node3</title>
<g id="a_node3"><a xlink:href="classwcmf_1_1lib_1_1presentation_1_1impl_1_1_default_response.html" target="_top" xlink:title="Default Response implementation. ">
<polygon fill="white" stroke="black" points="2.5,-0.5 2.5,-167.5 95.5,-167.5 95.5,-0.5 2.5,-0.5"/>
<text text-anchor="middle" x="49" y="-155.5" font-family="Helvetica,sans-Serif" font-size="10.00">DefaultResponse</text>
<polyline fill="none" stroke="black" points="2.5,-148.5 95.5,-148.5 "/>
<text text-anchor="middle" x="49" y="-136.5" font-family="Helvetica,sans-Serif" font-size="10.00"> </text>
<polyline fill="none" stroke="black" points="2.5,-129.5 95.5,-129.5 "/>
<text text-anchor="start" x="10.5" y="-117.5" font-family="Helvetica,sans-Serif" font-size="10.00">+ __construct()</text>
<text text-anchor="start" x="10.5" y="-106.5" font-family="Helvetica,sans-Serif" font-size="10.00">+ setRequest()</text>
<text text-anchor="start" x="10.5" y="-95.5" font-family="Helvetica,sans-Serif" font-size="10.00">+ getRequest()</text>
<text text-anchor="start" x="10.5" y="-84.5" font-family="Helvetica,sans-Serif" font-size="10.00">+ setCacheId()</text>
<text text-anchor="start" x="10.5" y="-73.5" font-family="Helvetica,sans-Serif" font-size="10.00">+ getCacheId()</text>
<text text-anchor="start" x="10.5" y="-62.5" font-family="Helvetica,sans-Serif" font-size="10.00">+ isCached()</text>
<text text-anchor="start" x="10.5" y="-51.5" font-family="Helvetica,sans-Serif" font-size="10.00">+ getCacheDate()</text>
<text text-anchor="start" x="10.5" y="-40.5" font-family="Helvetica,sans-Serif" font-size="10.00">+ setStatus()</text>
<text text-anchor="start" x="10.5" y="-29.5" font-family="Helvetica,sans-Serif" font-size="10.00">+ getStatus()</text>
<text text-anchor="start" x="10.5" y="-18.5" font-family="Helvetica,sans-Serif" font-size="10.00">+ setFile()</text>
<text text-anchor="start" x="10.5" y="-7.5" font-family="Helvetica,sans-Serif" font-size="10.00">+ getFile()</text>
</a>
</g>
</g>
<!-- Node1&#45;&gt;Node3 -->
<g id="edge2" class="edge"><title>Node1&#45;&gt;Node3</title>
<path fill="none" stroke="midnightblue" d="M49,-194.153C49,-185.361 49,-176.452 49,-167.711"/>
<polygon fill="none" stroke="midnightblue" points="45.5001,-194.402 49,-204.402 52.5001,-194.402 45.5001,-194.402"/>
</g>
<!-- Node2 -->
<g id="node2" class="node"><title>Node2</title>
<g id="a_node2"><a xlink:href="interfacewcmf_1_1lib_1_1presentation_1_1_controller_message.html" target="_top" xlink:title="Messages are sent between Controllers and are used to transfer data between them. ...">
<polygon fill="white" stroke="black" points="0,-397.5 0,-564.5 98,-564.5 98,-397.5 0,-397.5"/>
<text text-anchor="middle" x="49" y="-552.5" font-family="Helvetica,sans-Serif" font-size="10.00">ControllerMessage</text>
<polyline fill="none" stroke="black" points="0,-545.5 98,-545.5 "/>
<text text-anchor="middle" x="49" y="-533.5" font-family="Helvetica,sans-Serif" font-size="10.00"> </text>
<polyline fill="none" stroke="black" points="0,-526.5 98,-526.5 "/>
<text text-anchor="start" x="8" y="-514.5" font-family="Helvetica,sans-Serif" font-size="10.00">+ setSender()</text>
<text text-anchor="start" x="8" y="-503.5" font-family="Helvetica,sans-Serif" font-size="10.00">+ getSender()</text>
<text text-anchor="start" x="8" y="-492.5" font-family="Helvetica,sans-Serif" font-size="10.00">+ setContext()</text>
<text text-anchor="start" x="8" y="-481.5" font-family="Helvetica,sans-Serif" font-size="10.00">+ getContext()</text>
<text text-anchor="start" x="8" y="-470.5" font-family="Helvetica,sans-Serif" font-size="10.00">+ setAction()</text>
<text text-anchor="start" x="8" y="-459.5" font-family="Helvetica,sans-Serif" font-size="10.00">+ getAction()</text>
<text text-anchor="start" x="8" y="-448.5" font-family="Helvetica,sans-Serif" font-size="10.00">+ setFormat()</text>
<text text-anchor="start" x="8" y="-437.5" font-family="Helvetica,sans-Serif" font-size="10.00">+ getFormat()</text>
<text text-anchor="start" x="8" y="-426.5" font-family="Helvetica,sans-Serif" font-size="10.00">+ setHeader()</text>
<text text-anchor="start" x="8" y="-415.5" font-family="Helvetica,sans-Serif" font-size="10.00">+ setHeaders()</text>
<text text-anchor="start" x="8" y="-404.5" font-family="Helvetica,sans-Serif" font-size="10.00">and 20 more...</text>
</a>
</g>
</g>
<!-- Node2&#45;&gt;Node1 -->
<g id="edge1" class="edge"><title>Node2&#45;&gt;Node1</title>
<path fill="none" stroke="midnightblue" d="M49,-387.198C49,-378.271 49,-369.283 49,-360.532"/>
<polygon fill="none" stroke="midnightblue" points="45.5001,-387.236 49,-397.236 52.5001,-387.236 45.5001,-387.236"/>
</g>
</g>
</svg>
