<?xml version="1.0" encoding="UTF-8" standalone="no"?>
<!DOCTYPE svg PUBLIC "-//W3C//DTD SVG 1.1//EN"
 "http://www.w3.org/Graphics/SVG/1.1/DTD/svg11.dtd">
<!-- Generated by graphviz version 2.38.0 (20140413.2041)
 -->
<!-- Title: OutputStrategy Pages: 1 -->
<svg width="634pt" height="496pt"
 viewBox="0.00 0.00 633.50 496.00" xmlns="http://www.w3.org/2000/svg" xmlns:xlink="http://www.w3.org/1999/xlink">
<g id="graph0" class="graph" transform="scale(1 1) rotate(0) translate(4 492)">
<title>OutputStrategy</title>
<polygon fill="white" stroke="none" points="-4,4 -4,-492 629.5,-492 629.5,4 -4,4"/>
<!-- Node1 -->
<g id="node1" class="node"><title>Node1</title>
<polygon fill="#bfbfbf" stroke="black" points="263.5,-408.5 263.5,-487.5 346.5,-487.5 346.5,-408.5 263.5,-408.5"/>
<text text-anchor="middle" x="305" y="-475.5" font-family="Helvetica,sans-Serif" font-size="10.00">OutputStrategy</text>
<polyline fill="none" stroke="black" points="263.5,-468.5 346.5,-468.5 "/>
<text text-anchor="middle" x="305" y="-456.5" font-family="Helvetica,sans-Serif" font-size="10.00"> </text>
<polyline fill="none" stroke="black" points="263.5,-449.5 346.5,-449.5 "/>
<text text-anchor="start" x="271.5" y="-437.5" font-family="Helvetica,sans-Serif" font-size="10.00">+ writeHeader()</text>
<text text-anchor="start" x="271.5" y="-426.5" font-family="Helvetica,sans-Serif" font-size="10.00">+ writeFooter()</text>
<text text-anchor="start" x="271.5" y="-415.5" font-family="Helvetica,sans-Serif" font-size="10.00">+ writeObject()</text>
</g>
<!-- Node2 -->
<g id="node2" class="node"><title>Node2</title>
<g id="a_node2"><a xlink:href="classwcmf_1_1lib_1_1model_1_1output_1_1_dot_output_strategy.html" target="_top" xlink:title="DotOutputStrategy outputs an object&#39;s content in a dot file. ">
<polygon fill="white" stroke="black" points="0,-199 0,-289 98,-289 98,-199 0,-199"/>
<text text-anchor="middle" x="49" y="-277" font-family="Helvetica,sans-Serif" font-size="10.00">DotOutputStrategy</text>
<polyline fill="none" stroke="black" points="0,-270 98,-270 "/>
<text text-anchor="middle" x="49" y="-258" font-family="Helvetica,sans-Serif" font-size="10.00"> </text>
<polyline fill="none" stroke="black" points="0,-251 98,-251 "/>
<text text-anchor="start" x="8" y="-239" font-family="Helvetica,sans-Serif" font-size="10.00">+ __construct()</text>
<text text-anchor="start" x="8" y="-228" font-family="Helvetica,sans-Serif" font-size="10.00">+ writeHeader()</text>
<text text-anchor="start" x="8" y="-217" font-family="Helvetica,sans-Serif" font-size="10.00">+ writeFooter()</text>
<text text-anchor="start" x="8" y="-206" font-family="Helvetica,sans-Serif" font-size="10.00">+ writeObject()</text>
</a>
</g>
</g>
<!-- Node1&#45;&gt;Node2 -->
<g id="edge1" class="edge"><title>Node1&#45;&gt;Node2</title>
<path fill="none" stroke="midnightblue" d="M253.444,-438.767C209.692,-429.379 147.711,-410.097 107,-372 83.3726,-349.89 68.6149,-316.303 59.9016,-289.222"/>
<polygon fill="none" stroke="midnightblue" points="252.819,-442.211 263.317,-440.785 254.221,-435.353 252.819,-442.211"/>
</g>
<!-- Node3 -->
<g id="node3" class="node"><title>Node3</title>
<g id="a_node3"><a xlink:href="classwcmf_1_1lib_1_1model_1_1output_1_1_image_output_strategy.html" target="_top" xlink:title="ImageOutputStrategy outputs a tree of objects into an image file. ">
<polygon fill="white" stroke="black" points="116,-116.5 116,-371.5 234,-371.5 234,-116.5 116,-116.5"/>
<text text-anchor="middle" x="175" y="-359.5" font-family="Helvetica,sans-Serif" font-size="10.00">ImageOutputStrategy</text>
<polyline fill="none" stroke="black" points="116,-352.5 234,-352.5 "/>
<text text-anchor="start" x="124" y="-340.5" font-family="Helvetica,sans-Serif" font-size="10.00">+ LINETYPE_DIRECT</text>
<text text-anchor="start" x="124" y="-329.5" font-family="Helvetica,sans-Serif" font-size="10.00">+ LINETYPE_ROUTED</text>
<text text-anchor="start" x="124" y="-318.5" font-family="Helvetica,sans-Serif" font-size="10.00"># $format</text>
<text text-anchor="start" x="124" y="-307.5" font-family="Helvetica,sans-Serif" font-size="10.00"># $file</text>
<text text-anchor="start" x="124" y="-296.5" font-family="Helvetica,sans-Serif" font-size="10.00"># $map</text>
<text text-anchor="start" x="124" y="-285.5" font-family="Helvetica,sans-Serif" font-size="10.00"># $img</text>
<text text-anchor="start" x="124" y="-274.5" font-family="Helvetica,sans-Serif" font-size="10.00"># $width</text>
<text text-anchor="start" x="124" y="-263.5" font-family="Helvetica,sans-Serif" font-size="10.00"># $height</text>
<text text-anchor="start" x="124" y="-252.5" font-family="Helvetica,sans-Serif" font-size="10.00"># $xscale</text>
<text text-anchor="start" x="124" y="-241.5" font-family="Helvetica,sans-Serif" font-size="10.00"># $yscale</text>
<text text-anchor="start" x="124" y="-230.5" font-family="Helvetica,sans-Serif" font-size="10.00"># $border</text>
<text text-anchor="start" x="124" y="-219.5" font-family="Helvetica,sans-Serif" font-size="10.00"># $bgColor</text>
<text text-anchor="start" x="124" y="-208.5" font-family="Helvetica,sans-Serif" font-size="10.00">and 6 more...</text>
<polyline fill="none" stroke="black" points="116,-201.5 234,-201.5 "/>
<text text-anchor="start" x="124" y="-189.5" font-family="Helvetica,sans-Serif" font-size="10.00">+ __construct()</text>
<text text-anchor="start" x="124" y="-178.5" font-family="Helvetica,sans-Serif" font-size="10.00">+ writeHeader()</text>
<text text-anchor="start" x="124" y="-167.5" font-family="Helvetica,sans-Serif" font-size="10.00">+ writeFooter()</text>
<text text-anchor="start" x="124" y="-156.5" font-family="Helvetica,sans-Serif" font-size="10.00">+ writeObject()</text>
<text text-anchor="start" x="124" y="-145.5" font-family="Helvetica,sans-Serif" font-size="10.00"># drawConnectionLine()</text>
<text text-anchor="start" x="124" y="-134.5" font-family="Helvetica,sans-Serif" font-size="10.00"># drawDirectLine()</text>
<text text-anchor="start" x="124" y="-123.5" font-family="Helvetica,sans-Serif" font-size="10.00"># drawRoutedLine()</text>
</a>
</g>
</g>
<!-- Node1&#45;&gt;Node3 -->
<g id="edge2" class="edge"><title>Node1&#45;&gt;Node3</title>
<path fill="none" stroke="midnightblue" d="M264.179,-400.521C256.792,-391.319 249.409,-381.547 243,-372 240.003,-367.535 237.03,-362.925 234.098,-358.225"/>
<polygon fill="none" stroke="midnightblue" points="261.611,-402.91 270.647,-408.442 267.033,-398.482 261.611,-402.91"/>
</g>
<!-- Node5 -->
<g id="node5" class="node"><title>Node5</title>
<g id="a_node5"><a xlink:href="classwcmf_1_1lib_1_1persistence_1_1output_1_1impl_1_1_array_output_strategy.html" target="_top" xlink:title="ArrayOutputStrategy outputs an object&#39;s content into an array. ">
<polygon fill="white" stroke="black" points="252,-199 252,-289 358,-289 358,-199 252,-199"/>
<text text-anchor="middle" x="305" y="-277" font-family="Helvetica,sans-Serif" font-size="10.00">ArrayOutputStrategy</text>
<polyline fill="none" stroke="black" points="252,-270 358,-270 "/>
<text text-anchor="middle" x="305" y="-258" font-family="Helvetica,sans-Serif" font-size="10.00"> </text>
<polyline fill="none" stroke="black" points="252,-251 358,-251 "/>
<text text-anchor="start" x="260" y="-239" font-family="Helvetica,sans-Serif" font-size="10.00">+ __construct()</text>
<text text-anchor="start" x="260" y="-228" font-family="Helvetica,sans-Serif" font-size="10.00">+ writeHeader()</text>
<text text-anchor="start" x="260" y="-217" font-family="Helvetica,sans-Serif" font-size="10.00">+ writeFooter()</text>
<text text-anchor="start" x="260" y="-206" font-family="Helvetica,sans-Serif" font-size="10.00">+ writeObject()</text>
</a>
</g>
</g>
<!-- Node1&#45;&gt;Node5 -->
<g id="edge4" class="edge"><title>Node1&#45;&gt;Node5</title>
<path fill="none" stroke="midnightblue" d="M305,-397.665C305,-364.484 305,-321.124 305,-289.096"/>
<polygon fill="none" stroke="midnightblue" points="301.5,-398.052 305,-408.052 308.5,-398.052 301.5,-398.052"/>
</g>
<!-- Node6 -->
<g id="node6" class="node"><title>Node6</title>
<g id="a_node6"><a xlink:href="classwcmf_1_1lib_1_1persistence_1_1output_1_1impl_1_1_auditing_output_strategy.html" target="_top" xlink:title="AuditingOutputStrategy outputs object changes to the logger category AuditingOutputStrategy, loglevel info. ">
<polygon fill="white" stroke="black" points="376,-199 376,-289 494,-289 494,-199 376,-199"/>
<text text-anchor="middle" x="435" y="-277" font-family="Helvetica,sans-Serif" font-size="10.00">AuditingOutputStrategy</text>
<polyline fill="none" stroke="black" points="376,-270 494,-270 "/>
<text text-anchor="middle" x="435" y="-258" font-family="Helvetica,sans-Serif" font-size="10.00"> </text>
<polyline fill="none" stroke="black" points="376,-251 494,-251 "/>
<text text-anchor="start" x="384" y="-239" font-family="Helvetica,sans-Serif" font-size="10.00">+ __construct()</text>
<text text-anchor="start" x="384" y="-228" font-family="Helvetica,sans-Serif" font-size="10.00">+ writeHeader()</text>
<text text-anchor="start" x="384" y="-217" font-family="Helvetica,sans-Serif" font-size="10.00">+ writeFooter()</text>
<text text-anchor="start" x="384" y="-206" font-family="Helvetica,sans-Serif" font-size="10.00">+ writeObject()</text>
</a>
</g>
</g>
<!-- Node1&#45;&gt;Node6 -->
<g id="edge5" class="edge"><title>Node1&#45;&gt;Node6</title>
<path fill="none" stroke="midnightblue" d="M345.821,-400.521C353.208,-391.319 360.591,-381.547 367,-372 384.703,-345.628 401.577,-314.166 414.087,-289.155"/>
<polygon fill="none" stroke="midnightblue" points="342.967,-398.482 339.353,-408.442 348.389,-402.91 342.967,-398.482"/>
</g>
<!-- Node7 -->
<g id="node7" class="node"><title>Node7</title>
<g id="a_node7"><a xlink:href="classwcmf_1_1lib_1_1persistence_1_1output_1_1impl_1_1_default_output_strategy.html" target="_top" xlink:title="DefaultOutputStrategy outputs an object&#39;s content to the Log category DefaultOutputStrategy. ">
<polygon fill="white" stroke="black" points="512.5,-199 512.5,-289 625.5,-289 625.5,-199 512.5,-199"/>
<text text-anchor="middle" x="569" y="-277" font-family="Helvetica,sans-Serif" font-size="10.00">DefaultOutputStrategy</text>
<polyline fill="none" stroke="black" points="512.5,-270 625.5,-270 "/>
<text text-anchor="middle" x="569" y="-258" font-family="Helvetica,sans-Serif" font-size="10.00"> </text>
<polyline fill="none" stroke="black" points="512.5,-251 625.5,-251 "/>
<text text-anchor="start" x="520.5" y="-239" font-family="Helvetica,sans-Serif" font-size="10.00">+ __construct()</text>
<text text-anchor="start" x="520.5" y="-228" font-family="Helvetica,sans-Serif" font-size="10.00">+ writeHeader()</text>
<text text-anchor="start" x="520.5" y="-217" font-family="Helvetica,sans-Serif" font-size="10.00">+ writeFooter()</text>
<text text-anchor="start" x="520.5" y="-206" font-family="Helvetica,sans-Serif" font-size="10.00">+ writeObject()</text>
</a>
</g>
</g>
<!-- Node1&#45;&gt;Node7 -->
<g id="edge6" class="edge"><title>Node1&#45;&gt;Node7</title>
<path fill="none" stroke="midnightblue" d="M356.479,-438.155C399.907,-428.406 461.46,-408.936 503,-372 527.79,-349.957 544.673,-316.367 555.155,-289.268"/>
<polygon fill="none" stroke="midnightblue" points="355.721,-434.738 346.679,-440.26 357.191,-441.582 355.721,-434.738"/>
</g>
<!-- Node4 -->
<g id="node4" class="node"><title>Node4</title>
<g id="a_node4"><a xlink:href="classwcmf_1_1lib_1_1model_1_1output_1_1_element_image_output_strategy.html" target="_top" xlink:title="ElementImageOutputStrategy outputs a tree of objects into an image file. ">
<polygon fill="white" stroke="black" points="102.5,-0.5 102.5,-79.5 247.5,-79.5 247.5,-0.5 102.5,-0.5"/>
<text text-anchor="middle" x="175" y="-67.5" font-family="Helvetica,sans-Serif" font-size="10.00">ElementImageOutputStrategy</text>
<polyline fill="none" stroke="black" points="102.5,-60.5 247.5,-60.5 "/>
<text text-anchor="middle" x="175" y="-48.5" font-family="Helvetica,sans-Serif" font-size="10.00"> </text>
<polyline fill="none" stroke="black" points="102.5,-41.5 247.5,-41.5 "/>
<text text-anchor="start" x="110.5" y="-29.5" font-family="Helvetica,sans-Serif" font-size="10.00">+ __construct()</text>
<text text-anchor="start" x="110.5" y="-18.5" font-family="Helvetica,sans-Serif" font-size="10.00">+ writeHeader()</text>
<text text-anchor="start" x="110.5" y="-7.5" font-family="Helvetica,sans-Serif" font-size="10.00">+ writeObject()</text>
</a>
</g>
</g>
<!-- Node3&#45;&gt;Node4 -->
<g id="edge3" class="edge"><title>Node3&#45;&gt;Node4</title>
<path fill="none" stroke="midnightblue" d="M175,-106.182C175,-96.7034 175,-87.7085 175,-79.5968"/>
<polygon fill="none" stroke="midnightblue" points="171.5,-106.217 175,-116.217 178.5,-106.217 171.5,-106.217"/>
</g>
</g>
</svg>
