<?xml version="1.0" encoding="UTF-8" standalone="no"?>
<!DOCTYPE svg PUBLIC "-//W3C//DTD SVG 1.1//EN"
 "http://www.w3.org/Graphics/SVG/1.1/DTD/svg11.dtd">
<!-- Generated by graphviz version 2.38.0 (20140413.2041)
 -->
<!-- Title: OutputStrategy Pages: 1 -->
<svg width="510pt" height="540pt"
 viewBox="0.00 0.00 509.50 540.00" xmlns="http://www.w3.org/2000/svg" xmlns:xlink="http://www.w3.org/1999/xlink">
<g id="graph0" class="graph" transform="scale(1 1) rotate(0) translate(4 536)">
<title>OutputStrategy</title>
<polygon fill="white" stroke="none" points="-4,4 -4,-536 505.5,-536 505.5,4 -4,4"/>
<!-- Node1 -->
<g id="node1" class="node"><title>Node1</title>
<polygon fill="#bfbfbf" stroke="black" points="201.5,-452.5 201.5,-531.5 284.5,-531.5 284.5,-452.5 201.5,-452.5"/>
<text text-anchor="middle" x="243" y="-519.5" font-family="Helvetica,sans-Serif" font-size="10.00">OutputStrategy</text>
<polyline fill="none" stroke="black" points="201.5,-512.5 284.5,-512.5 "/>
<text text-anchor="middle" x="243" y="-500.5" font-family="Helvetica,sans-Serif" font-size="10.00"> </text>
<polyline fill="none" stroke="black" points="201.5,-493.5 284.5,-493.5 "/>
<text text-anchor="start" x="209.5" y="-481.5" font-family="Helvetica,sans-Serif" font-size="10.00">+ writeHeader()</text>
<text text-anchor="start" x="209.5" y="-470.5" font-family="Helvetica,sans-Serif" font-size="10.00">+ writeFooter()</text>
<text text-anchor="start" x="209.5" y="-459.5" font-family="Helvetica,sans-Serif" font-size="10.00">+ writeObject()</text>
</g>
<!-- Node2 -->
<g id="node2" class="node"><title>Node2</title>
<g id="a_node2"><a xlink:href="classwcmf_1_1lib_1_1model_1_1output_1_1_dot_output_strategy.html" target="_top" xlink:title="DotOutputStrategy outputs an object&#39;s content in a dot file. ">
<polygon fill="white" stroke="black" points="0,-221 0,-311 98,-311 98,-221 0,-221"/>
<text text-anchor="middle" x="49" y="-299" font-family="Helvetica,sans-Serif" font-size="10.00">DotOutputStrategy</text>
<polyline fill="none" stroke="black" points="0,-292 98,-292 "/>
<text text-anchor="middle" x="49" y="-280" font-family="Helvetica,sans-Serif" font-size="10.00"> </text>
<polyline fill="none" stroke="black" points="0,-273 98,-273 "/>
<text text-anchor="start" x="8" y="-261" font-family="Helvetica,sans-Serif" font-size="10.00">+ __construct()</text>
<text text-anchor="start" x="8" y="-250" font-family="Helvetica,sans-Serif" font-size="10.00">+ writeHeader()</text>
<text text-anchor="start" x="8" y="-239" font-family="Helvetica,sans-Serif" font-size="10.00">+ writeFooter()</text>
<text text-anchor="start" x="8" y="-228" font-family="Helvetica,sans-Serif" font-size="10.00">+ writeObject()</text>
</a>
</g>
</g>
<!-- Node1&#45;&gt;Node2 -->
<g id="edge1" class="edge"><title>Node1&#45;&gt;Node2</title>
<path fill="none" stroke="midnightblue" d="M192.067,-472.985C163.747,-460.728 129.737,-441.975 107,-416 80.8549,-386.131 65.8213,-343.14 57.6434,-311.005"/>
<polygon fill="none" stroke="midnightblue" points="190.852,-476.271 201.429,-476.894 193.55,-469.811 190.852,-476.271"/>
</g>
<!-- Node3 -->
<g id="node3" class="node"><title>Node3</title>
<g id="a_node3"><a xlink:href="classwcmf_1_1lib_1_1model_1_1output_1_1_image_output_strategy.html" target="_top" xlink:title="ImageOutputStrategy outputs a tree of objects into an image file. ">
<polygon fill="white" stroke="black" points="116,-116.5 116,-415.5 234,-415.5 234,-116.5 116,-116.5"/>
<text text-anchor="middle" x="175" y="-403.5" font-family="Helvetica,sans-Serif" font-size="10.00">ImageOutputStrategy</text>
<polyline fill="none" stroke="black" points="116,-396.5 234,-396.5 "/>
<text text-anchor="start" x="124" y="-384.5" font-family="Helvetica,sans-Serif" font-size="10.00">+ LINETYPE_DIRECT</text>
<text text-anchor="start" x="124" y="-373.5" font-family="Helvetica,sans-Serif" font-size="10.00">+ LINETYPE_ROUTED</text>
<text text-anchor="start" x="124" y="-362.5" font-family="Helvetica,sans-Serif" font-size="10.00"># $format</text>
<text text-anchor="start" x="124" y="-351.5" font-family="Helvetica,sans-Serif" font-size="10.00"># $file</text>
<text text-anchor="start" x="124" y="-340.5" font-family="Helvetica,sans-Serif" font-size="10.00"># $map</text>
<text text-anchor="start" x="124" y="-329.5" font-family="Helvetica,sans-Serif" font-size="10.00"># $img</text>
<text text-anchor="start" x="124" y="-318.5" font-family="Helvetica,sans-Serif" font-size="10.00"># $width</text>
<text text-anchor="start" x="124" y="-307.5" font-family="Helvetica,sans-Serif" font-size="10.00"># $height</text>
<text text-anchor="start" x="124" y="-296.5" font-family="Helvetica,sans-Serif" font-size="10.00"># $scale</text>
<text text-anchor="start" x="124" y="-285.5" font-family="Helvetica,sans-Serif" font-size="10.00"># $border</text>
<text text-anchor="start" x="124" y="-274.5" font-family="Helvetica,sans-Serif" font-size="10.00"># $bgColor</text>
<text text-anchor="start" x="124" y="-263.5" font-family="Helvetica,sans-Serif" font-size="10.00"># $txtColor</text>
<text text-anchor="start" x="124" y="-252.5" font-family="Helvetica,sans-Serif" font-size="10.00"># $lineColor</text>
<text text-anchor="start" x="124" y="-241.5" font-family="Helvetica,sans-Serif" font-size="10.00"># $lineType</text>
<text text-anchor="start" x="124" y="-230.5" font-family="Helvetica,sans-Serif" font-size="10.00"># $labelDim</text>
<text text-anchor="start" x="124" y="-219.5" font-family="Helvetica,sans-Serif" font-size="10.00"># $textPos</text>
<text text-anchor="start" x="124" y="-208.5" font-family="Helvetica,sans-Serif" font-size="10.00"># $usemap</text>
<polyline fill="none" stroke="black" points="116,-201.5 234,-201.5 "/>
<text text-anchor="start" x="124" y="-189.5" font-family="Helvetica,sans-Serif" font-size="10.00">+ __construct()</text>
<text text-anchor="start" x="124" y="-178.5" font-family="Helvetica,sans-Serif" font-size="10.00">+ writeHeader()</text>
<text text-anchor="start" x="124" y="-167.5" font-family="Helvetica,sans-Serif" font-size="10.00">+ writeFooter()</text>
<text text-anchor="start" x="124" y="-156.5" font-family="Helvetica,sans-Serif" font-size="10.00">+ writeObject()</text>
<text text-anchor="start" x="124" y="-145.5" font-family="Helvetica,sans-Serif" font-size="10.00"># drawConnectionLine()</text>
<text text-anchor="start" x="124" y="-134.5" font-family="Helvetica,sans-Serif" font-size="10.00"># drawDirectLine()</text>
<text text-anchor="start" x="124" y="-123.5" font-family="Helvetica,sans-Serif" font-size="10.00"># drawRoutedLine()</text>
</a>
</g>
</g>
<!-- Node1&#45;&gt;Node3 -->
<g id="edge2" class="edge"><title>Node1&#45;&gt;Node3</title>
<path fill="none" stroke="midnightblue" d="M228.326,-442.661C225.786,-434.296 223.031,-425.22 220.156,-415.75"/>
<polygon fill="none" stroke="midnightblue" points="225.056,-443.941 231.31,-452.493 231.755,-441.908 225.056,-443.941"/>
</g>
<!-- Node5 -->
<g id="node5" class="node"><title>Node5</title>
<g id="a_node5"><a xlink:href="classwcmf_1_1lib_1_1persistence_1_1output_1_1impl_1_1_auditing_output_strategy.html" target="_top" xlink:title="AuditingOutputStrategy outputs object changes to the logger category AuditingOutputStrategy, loglevel info. ">
<polygon fill="white" stroke="black" points="252,-221 252,-311 370,-311 370,-221 252,-221"/>
<text text-anchor="middle" x="311" y="-299" font-family="Helvetica,sans-Serif" font-size="10.00">AuditingOutputStrategy</text>
<polyline fill="none" stroke="black" points="252,-292 370,-292 "/>
<text text-anchor="middle" x="311" y="-280" font-family="Helvetica,sans-Serif" font-size="10.00"> </text>
<polyline fill="none" stroke="black" points="252,-273 370,-273 "/>
<text text-anchor="start" x="260" y="-261" font-family="Helvetica,sans-Serif" font-size="10.00">+ __construct()</text>
<text text-anchor="start" x="260" y="-250" font-family="Helvetica,sans-Serif" font-size="10.00">+ writeHeader()</text>
<text text-anchor="start" x="260" y="-239" font-family="Helvetica,sans-Serif" font-size="10.00">+ writeFooter()</text>
<text text-anchor="start" x="260" y="-228" font-family="Helvetica,sans-Serif" font-size="10.00">+ writeObject()</text>
</a>
</g>
</g>
<!-- Node1&#45;&gt;Node5 -->
<g id="edge4" class="edge"><title>Node1&#45;&gt;Node5</title>
<path fill="none" stroke="midnightblue" d="M257.598,-442.912C269.464,-403.825 286.068,-349.129 297.599,-311.144"/>
<polygon fill="none" stroke="midnightblue" points="254.245,-441.908 254.69,-452.493 260.944,-443.941 254.245,-441.908"/>
</g>
<!-- Node6 -->
<g id="node6" class="node"><title>Node6</title>
<g id="a_node6"><a xlink:href="classwcmf_1_1lib_1_1persistence_1_1output_1_1impl_1_1_default_output_strategy.html" target="_top" xlink:title="DefaultOutputStrategy outputs an object&#39;s content to the Log category DefaultOutputStrategy. ">
<polygon fill="white" stroke="black" points="388.5,-221 388.5,-311 501.5,-311 501.5,-221 388.5,-221"/>
<text text-anchor="middle" x="445" y="-299" font-family="Helvetica,sans-Serif" font-size="10.00">DefaultOutputStrategy</text>
<polyline fill="none" stroke="black" points="388.5,-292 501.5,-292 "/>
<text text-anchor="middle" x="445" y="-280" font-family="Helvetica,sans-Serif" font-size="10.00"> </text>
<polyline fill="none" stroke="black" points="388.5,-273 501.5,-273 "/>
<text text-anchor="start" x="396.5" y="-261" font-family="Helvetica,sans-Serif" font-size="10.00">+ __construct()</text>
<text text-anchor="start" x="396.5" y="-250" font-family="Helvetica,sans-Serif" font-size="10.00">+ writeHeader()</text>
<text text-anchor="start" x="396.5" y="-239" font-family="Helvetica,sans-Serif" font-size="10.00">+ writeFooter()</text>
<text text-anchor="start" x="396.5" y="-228" font-family="Helvetica,sans-Serif" font-size="10.00">+ writeObject()</text>
</a>
</g>
</g>
<!-- Node1&#45;&gt;Node6 -->
<g id="edge5" class="edge"><title>Node1&#45;&gt;Node6</title>
<path fill="none" stroke="midnightblue" d="M294.086,-472.328C322.142,-459.937 355.838,-441.269 379,-416 406.337,-386.175 423.727,-343.178 433.753,-311.031"/>
<polygon fill="none" stroke="midnightblue" points="292.632,-469.143 284.811,-476.29 295.382,-475.58 292.632,-469.143"/>
</g>
<!-- Node4 -->
<g id="node4" class="node"><title>Node4</title>
<g id="a_node4"><a xlink:href="classwcmf_1_1lib_1_1model_1_1output_1_1_element_image_output_strategy.html" target="_top" xlink:title="ElementImageOutputStrategy outputs a tree of objects into an image file. ">
<polygon fill="white" stroke="black" points="102.5,-0.5 102.5,-79.5 247.5,-79.5 247.5,-0.5 102.5,-0.5"/>
<text text-anchor="middle" x="175" y="-67.5" font-family="Helvetica,sans-Serif" font-size="10.00">ElementImageOutputStrategy</text>
<polyline fill="none" stroke="black" points="102.5,-60.5 247.5,-60.5 "/>
<text text-anchor="middle" x="175" y="-48.5" font-family="Helvetica,sans-Serif" font-size="10.00"> </text>
<polyline fill="none" stroke="black" points="102.5,-41.5 247.5,-41.5 "/>
<text text-anchor="start" x="110.5" y="-29.5" font-family="Helvetica,sans-Serif" font-size="10.00">+ __construct()</text>
<text text-anchor="start" x="110.5" y="-18.5" font-family="Helvetica,sans-Serif" font-size="10.00">+ writeHeader()</text>
<text text-anchor="start" x="110.5" y="-7.5" font-family="Helvetica,sans-Serif" font-size="10.00">+ writeObject()</text>
</a>
</g>
</g>
<!-- Node3&#45;&gt;Node4 -->
<g id="edge3" class="edge"><title>Node3&#45;&gt;Node4</title>
<path fill="none" stroke="midnightblue" d="M175,-106.131C175,-96.6338 175,-87.6851 175,-79.6384"/>
<polygon fill="none" stroke="midnightblue" points="171.5,-106.212 175,-116.212 178.5,-106.212 171.5,-106.212"/>
</g>
</g>
</svg>
