<?xml version="1.0" encoding="UTF-8" standalone="no"?>
<!DOCTYPE svg PUBLIC "-//W3C//DTD SVG 1.1//EN"
 "http://www.w3.org/Graphics/SVG/1.1/DTD/svg11.dtd">
<!-- Generated by graphviz version 2.38.0 (20140413.2041)
 -->
<!-- Title: OutputStrategy Pages: 1 -->
<svg width="634pt" height="540pt"
 viewBox="0.00 0.00 633.50 540.00" xmlns="http://www.w3.org/2000/svg" xmlns:xlink="http://www.w3.org/1999/xlink">
<g id="graph0" class="graph" transform="scale(1 1) rotate(0) translate(4 536)">
<title>OutputStrategy</title>
<polygon fill="white" stroke="none" points="-4,4 -4,-536 629.5,-536 629.5,4 -4,4"/>
<!-- Node1 -->
<g id="node1" class="node"><title>Node1</title>
<polygon fill="#bfbfbf" stroke="black" points="263.5,-452.5 263.5,-531.5 346.5,-531.5 346.5,-452.5 263.5,-452.5"/>
<text text-anchor="middle" x="305" y="-519.5" font-family="Helvetica,sans-Serif" font-size="10.00">OutputStrategy</text>
<polyline fill="none" stroke="black" points="263.5,-512.5 346.5,-512.5 "/>
<text text-anchor="middle" x="305" y="-500.5" font-family="Helvetica,sans-Serif" font-size="10.00"> </text>
<polyline fill="none" stroke="black" points="263.5,-493.5 346.5,-493.5 "/>
<text text-anchor="start" x="271.5" y="-481.5" font-family="Helvetica,sans-Serif" font-size="10.00">+ writeHeader()</text>
<text text-anchor="start" x="271.5" y="-470.5" font-family="Helvetica,sans-Serif" font-size="10.00">+ writeFooter()</text>
<text text-anchor="start" x="271.5" y="-459.5" font-family="Helvetica,sans-Serif" font-size="10.00">+ writeObject()</text>
</g>
<!-- Node2 -->
<g id="node2" class="node"><title>Node2</title>
<g id="a_node2"><a xlink:href="classwcmf_1_1lib_1_1model_1_1output_1_1_dot_output_strategy.html" target="_top" xlink:title="DotOutputStrategy outputs an object&#39;s content in a dot file. ">
<polygon fill="white" stroke="black" points="0,-221 0,-311 98,-311 98,-221 0,-221"/>
<text text-anchor="middle" x="49" y="-299" font-family="Helvetica,sans-Serif" font-size="10.00">DotOutputStrategy</text>
<polyline fill="none" stroke="black" points="0,-292 98,-292 "/>
<text text-anchor="middle" x="49" y="-280" font-family="Helvetica,sans-Serif" font-size="10.00"> </text>
<polyline fill="none" stroke="black" points="0,-273 98,-273 "/>
<text text-anchor="start" x="8" y="-261" font-family="Helvetica,sans-Serif" font-size="10.00">+ __construct()</text>
<text text-anchor="start" x="8" y="-250" font-family="Helvetica,sans-Serif" font-size="10.00">+ writeHeader()</text>
<text text-anchor="start" x="8" y="-239" font-family="Helvetica,sans-Serif" font-size="10.00">+ writeFooter()</text>
<text text-anchor="start" x="8" y="-228" font-family="Helvetica,sans-Serif" font-size="10.00">+ writeObject()</text>
</a>
</g>
</g>
<!-- Node1&#45;&gt;Node2 -->
<g id="edge1" class="edge"><title>Node1&#45;&gt;Node2</title>
<path fill="none" stroke="midnightblue" d="M253.297,-483.421C209.171,-474.431 146.727,-455.366 107,-416 78.5078,-387.767 63.7014,-343.934 56.2086,-311.107"/>
<polygon fill="none" stroke="midnightblue" points="252.773,-486.885 263.256,-485.344 254.1,-480.012 252.773,-486.885"/>
</g>
<!-- Node3 -->
<g id="node3" class="node"><title>Node3</title>
<g id="a_node3"><a xlink:href="classwcmf_1_1lib_1_1model_1_1output_1_1_image_output_strategy.html" target="_top" xlink:title="ImageOutputStrategy outputs a tree of objects into an image file. ">
<polygon fill="white" stroke="black" points="116,-116.5 116,-415.5 234,-415.5 234,-116.5 116,-116.5"/>
<text text-anchor="middle" x="175" y="-403.5" font-family="Helvetica,sans-Serif" font-size="10.00">ImageOutputStrategy</text>
<polyline fill="none" stroke="black" points="116,-396.5 234,-396.5 "/>
<text text-anchor="start" x="124" y="-384.5" font-family="Helvetica,sans-Serif" font-size="10.00">+ LINETYPE_DIRECT</text>
<text text-anchor="start" x="124" y="-373.5" font-family="Helvetica,sans-Serif" font-size="10.00">+ LINETYPE_ROUTED</text>
<text text-anchor="start" x="124" y="-362.5" font-family="Helvetica,sans-Serif" font-size="10.00"># $format</text>
<text text-anchor="start" x="124" y="-351.5" font-family="Helvetica,sans-Serif" font-size="10.00"># $file</text>
<text text-anchor="start" x="124" y="-340.5" font-family="Helvetica,sans-Serif" font-size="10.00"># $map</text>
<text text-anchor="start" x="124" y="-329.5" font-family="Helvetica,sans-Serif" font-size="10.00"># $img</text>
<text text-anchor="start" x="124" y="-318.5" font-family="Helvetica,sans-Serif" font-size="10.00"># $width</text>
<text text-anchor="start" x="124" y="-307.5" font-family="Helvetica,sans-Serif" font-size="10.00"># $height</text>
<text text-anchor="start" x="124" y="-296.5" font-family="Helvetica,sans-Serif" font-size="10.00"># $scale</text>
<text text-anchor="start" x="124" y="-285.5" font-family="Helvetica,sans-Serif" font-size="10.00"># $border</text>
<text text-anchor="start" x="124" y="-274.5" font-family="Helvetica,sans-Serif" font-size="10.00"># $bgColor</text>
<text text-anchor="start" x="124" y="-263.5" font-family="Helvetica,sans-Serif" font-size="10.00"># $txtColor</text>
<text text-anchor="start" x="124" y="-252.5" font-family="Helvetica,sans-Serif" font-size="10.00"># $lineColor</text>
<text text-anchor="start" x="124" y="-241.5" font-family="Helvetica,sans-Serif" font-size="10.00"># $lineType</text>
<text text-anchor="start" x="124" y="-230.5" font-family="Helvetica,sans-Serif" font-size="10.00"># $labelDim</text>
<text text-anchor="start" x="124" y="-219.5" font-family="Helvetica,sans-Serif" font-size="10.00"># $textPos</text>
<text text-anchor="start" x="124" y="-208.5" font-family="Helvetica,sans-Serif" font-size="10.00"># $usemap</text>
<polyline fill="none" stroke="black" points="116,-201.5 234,-201.5 "/>
<text text-anchor="start" x="124" y="-189.5" font-family="Helvetica,sans-Serif" font-size="10.00">+ __construct()</text>
<text text-anchor="start" x="124" y="-178.5" font-family="Helvetica,sans-Serif" font-size="10.00">+ writeHeader()</text>
<text text-anchor="start" x="124" y="-167.5" font-family="Helvetica,sans-Serif" font-size="10.00">+ writeFooter()</text>
<text text-anchor="start" x="124" y="-156.5" font-family="Helvetica,sans-Serif" font-size="10.00">+ writeObject()</text>
<text text-anchor="start" x="124" y="-145.5" font-family="Helvetica,sans-Serif" font-size="10.00"># drawConnectionLine()</text>
<text text-anchor="start" x="124" y="-134.5" font-family="Helvetica,sans-Serif" font-size="10.00"># drawDirectLine()</text>
<text text-anchor="start" x="124" y="-123.5" font-family="Helvetica,sans-Serif" font-size="10.00"># drawRoutedLine()</text>
</a>
</g>
</g>
<!-- Node1&#45;&gt;Node3 -->
<g id="edge2" class="edge"><title>Node1&#45;&gt;Node3</title>
<path fill="none" stroke="midnightblue" d="M263.434,-444.527C256.178,-435.386 249.033,-425.635 243,-416 239.982,-411.18 237.02,-406.204 234.125,-401.125"/>
<polygon fill="none" stroke="midnightblue" points="260.793,-446.827 269.813,-452.385 266.228,-442.415 260.793,-446.827"/>
</g>
<!-- Node5 -->
<g id="node5" class="node"><title>Node5</title>
<g id="a_node5"><a xlink:href="classwcmf_1_1lib_1_1persistence_1_1output_1_1impl_1_1_array_output_strategy.html" target="_top" xlink:title="ArrayOutputStrategy outputs an object&#39;s content into an array. ">
<polygon fill="white" stroke="black" points="252,-221 252,-311 358,-311 358,-221 252,-221"/>
<text text-anchor="middle" x="305" y="-299" font-family="Helvetica,sans-Serif" font-size="10.00">ArrayOutputStrategy</text>
<polyline fill="none" stroke="black" points="252,-292 358,-292 "/>
<text text-anchor="middle" x="305" y="-280" font-family="Helvetica,sans-Serif" font-size="10.00"> </text>
<polyline fill="none" stroke="black" points="252,-273 358,-273 "/>
<text text-anchor="start" x="260" y="-261" font-family="Helvetica,sans-Serif" font-size="10.00">+ __construct()</text>
<text text-anchor="start" x="260" y="-250" font-family="Helvetica,sans-Serif" font-size="10.00">+ writeHeader()</text>
<text text-anchor="start" x="260" y="-239" font-family="Helvetica,sans-Serif" font-size="10.00">+ writeFooter()</text>
<text text-anchor="start" x="260" y="-228" font-family="Helvetica,sans-Serif" font-size="10.00">+ writeObject()</text>
</a>
</g>
</g>
<!-- Node1&#45;&gt;Node5 -->
<g id="edge4" class="edge"><title>Node1&#45;&gt;Node5</title>
<path fill="none" stroke="midnightblue" d="M305,-442.414C305,-403.362 305,-348.968 305,-311.144"/>
<polygon fill="none" stroke="midnightblue" points="301.5,-442.493 305,-452.493 308.5,-442.493 301.5,-442.493"/>
</g>
<!-- Node6 -->
<g id="node6" class="node"><title>Node6</title>
<g id="a_node6"><a xlink:href="classwcmf_1_1lib_1_1persistence_1_1output_1_1impl_1_1_auditing_output_strategy.html" target="_top" xlink:title="AuditingOutputStrategy outputs object changes to the logger category AuditingOutputStrategy, loglevel info. ">
<polygon fill="white" stroke="black" points="376,-221 376,-311 494,-311 494,-221 376,-221"/>
<text text-anchor="middle" x="435" y="-299" font-family="Helvetica,sans-Serif" font-size="10.00">AuditingOutputStrategy</text>
<polyline fill="none" stroke="black" points="376,-292 494,-292 "/>
<text text-anchor="middle" x="435" y="-280" font-family="Helvetica,sans-Serif" font-size="10.00"> </text>
<polyline fill="none" stroke="black" points="376,-273 494,-273 "/>
<text text-anchor="start" x="384" y="-261" font-family="Helvetica,sans-Serif" font-size="10.00">+ __construct()</text>
<text text-anchor="start" x="384" y="-250" font-family="Helvetica,sans-Serif" font-size="10.00">+ writeHeader()</text>
<text text-anchor="start" x="384" y="-239" font-family="Helvetica,sans-Serif" font-size="10.00">+ writeFooter()</text>
<text text-anchor="start" x="384" y="-228" font-family="Helvetica,sans-Serif" font-size="10.00">+ writeObject()</text>
</a>
</g>
</g>
<!-- Node1&#45;&gt;Node6 -->
<g id="edge5" class="edge"><title>Node1&#45;&gt;Node6</title>
<path fill="none" stroke="midnightblue" d="M346.566,-444.527C353.822,-435.386 360.967,-425.635 367,-416 387.901,-382.622 406.09,-341.748 418.384,-311.259"/>
<polygon fill="none" stroke="midnightblue" points="343.772,-442.415 340.187,-452.385 349.207,-446.827 343.772,-442.415"/>
</g>
<!-- Node7 -->
<g id="node7" class="node"><title>Node7</title>
<g id="a_node7"><a xlink:href="classwcmf_1_1lib_1_1persistence_1_1output_1_1impl_1_1_default_output_strategy.html" target="_top" xlink:title="DefaultOutputStrategy outputs an object&#39;s content to the Log category DefaultOutputStrategy. ">
<polygon fill="white" stroke="black" points="512.5,-221 512.5,-311 625.5,-311 625.5,-221 512.5,-221"/>
<text text-anchor="middle" x="569" y="-299" font-family="Helvetica,sans-Serif" font-size="10.00">DefaultOutputStrategy</text>
<polyline fill="none" stroke="black" points="512.5,-292 625.5,-292 "/>
<text text-anchor="middle" x="569" y="-280" font-family="Helvetica,sans-Serif" font-size="10.00"> </text>
<polyline fill="none" stroke="black" points="512.5,-273 625.5,-273 "/>
<text text-anchor="start" x="520.5" y="-261" font-family="Helvetica,sans-Serif" font-size="10.00">+ __construct()</text>
<text text-anchor="start" x="520.5" y="-250" font-family="Helvetica,sans-Serif" font-size="10.00">+ writeHeader()</text>
<text text-anchor="start" x="520.5" y="-239" font-family="Helvetica,sans-Serif" font-size="10.00">+ writeFooter()</text>
<text text-anchor="start" x="520.5" y="-228" font-family="Helvetica,sans-Serif" font-size="10.00">+ writeObject()</text>
</a>
</g>
</g>
<!-- Node1&#45;&gt;Node7 -->
<g id="edge6" class="edge"><title>Node1&#45;&gt;Node7</title>
<path fill="none" stroke="midnightblue" d="M356.665,-482.882C400.486,-473.568 462.507,-454.329 503,-416 532.691,-387.896 549.891,-344.046 559.242,-311.18"/>
<polygon fill="none" stroke="midnightblue" points="355.883,-479.47 346.775,-484.883 357.27,-486.331 355.883,-479.47"/>
</g>
<!-- Node4 -->
<g id="node4" class="node"><title>Node4</title>
<g id="a_node4"><a xlink:href="classwcmf_1_1lib_1_1model_1_1output_1_1_element_image_output_strategy.html" target="_top" xlink:title="ElementImageOutputStrategy outputs a tree of objects into an image file. ">
<polygon fill="white" stroke="black" points="102.5,-0.5 102.5,-79.5 247.5,-79.5 247.5,-0.5 102.5,-0.5"/>
<text text-anchor="middle" x="175" y="-67.5" font-family="Helvetica,sans-Serif" font-size="10.00">ElementImageOutputStrategy</text>
<polyline fill="none" stroke="black" points="102.5,-60.5 247.5,-60.5 "/>
<text text-anchor="middle" x="175" y="-48.5" font-family="Helvetica,sans-Serif" font-size="10.00"> </text>
<polyline fill="none" stroke="black" points="102.5,-41.5 247.5,-41.5 "/>
<text text-anchor="start" x="110.5" y="-29.5" font-family="Helvetica,sans-Serif" font-size="10.00">+ __construct()</text>
<text text-anchor="start" x="110.5" y="-18.5" font-family="Helvetica,sans-Serif" font-size="10.00">+ writeHeader()</text>
<text text-anchor="start" x="110.5" y="-7.5" font-family="Helvetica,sans-Serif" font-size="10.00">+ writeObject()</text>
</a>
</g>
</g>
<!-- Node3&#45;&gt;Node4 -->
<g id="edge3" class="edge"><title>Node3&#45;&gt;Node4</title>
<path fill="none" stroke="midnightblue" d="M175,-106.131C175,-96.6338 175,-87.6851 175,-79.6384"/>
<polygon fill="none" stroke="midnightblue" points="171.5,-106.212 175,-116.212 178.5,-106.212 171.5,-106.212"/>
</g>
</g>
</svg>
