<?xml version="1.0" encoding="UTF-8" standalone="no"?>
<!DOCTYPE svg PUBLIC "-//W3C//DTD SVG 1.1//EN"
 "http://www.w3.org/Graphics/SVG/1.1/DTD/svg11.dtd">
<!-- Generated by graphviz version 2.38.0 (20140413.2041)
 -->
<!-- Title: Session Pages: 1 -->
<svg width="298pt" height="540pt"
 viewBox="0.00 0.00 297.54 540.00" xmlns="http://www.w3.org/2000/svg" xmlns:xlink="http://www.w3.org/1999/xlink">
<g id="graph0" class="graph" transform="scale(1 1) rotate(0) translate(4 536)">
<title>Session</title>
<polygon fill="white" stroke="none" points="-4,4 -4,-536 293.539,-536 293.539,4 -4,4"/>
<!-- Node1 -->
<g id="node1" class="node"><title>Node1</title>
<polygon fill="#bfbfbf" stroke="black" points="53.0394,-386.5 53.0394,-531.5 139.039,-531.5 139.039,-386.5 53.0394,-386.5"/>
<text text-anchor="middle" x="96.0394" y="-519.5" font-family="Helvetica,sans-Serif" font-size="10.00">Session</text>
<polyline fill="none" stroke="black" points="53.0394,-512.5 139.039,-512.5 "/>
<text text-anchor="middle" x="96.0394" y="-500.5" font-family="Helvetica,sans-Serif" font-size="10.00"> </text>
<polyline fill="none" stroke="black" points="53.0394,-493.5 139.039,-493.5 "/>
<text text-anchor="start" x="61.0394" y="-481.5" font-family="Helvetica,sans-Serif" font-size="10.00">+ getID()</text>
<text text-anchor="start" x="61.0394" y="-470.5" font-family="Helvetica,sans-Serif" font-size="10.00">+ get()</text>
<text text-anchor="start" x="61.0394" y="-459.5" font-family="Helvetica,sans-Serif" font-size="10.00">+ set()</text>
<text text-anchor="start" x="61.0394" y="-448.5" font-family="Helvetica,sans-Serif" font-size="10.00">+ remove()</text>
<text text-anchor="start" x="61.0394" y="-437.5" font-family="Helvetica,sans-Serif" font-size="10.00">+ exist()</text>
<text text-anchor="start" x="61.0394" y="-426.5" font-family="Helvetica,sans-Serif" font-size="10.00">+ clear()</text>
<text text-anchor="start" x="61.0394" y="-415.5" font-family="Helvetica,sans-Serif" font-size="10.00">+ destroy()</text>
<text text-anchor="start" x="61.0394" y="-404.5" font-family="Helvetica,sans-Serif" font-size="10.00">+ setAuthUser()</text>
<text text-anchor="start" x="61.0394" y="-393.5" font-family="Helvetica,sans-Serif" font-size="10.00">+ getAuthUser()</text>
</g>
<!-- Node2 -->
<g id="node2" class="node"><title>Node2</title>
<g id="a_node2"><a xlink:href="classwcmf_1_1lib_1_1core_1_1impl_1_1_auth_token_session.html" target="_top" xlink:title="AuthTokenSession is a DefaultSession, but additionally requires clients to send a token in the X&#45;Auth...">
<polygon fill="white" stroke="black" points="68.0394,-0.5 68.0394,-79.5 172.039,-79.5 172.039,-0.5 68.0394,-0.5"/>
<text text-anchor="middle" x="120.039" y="-67.5" font-family="Helvetica,sans-Serif" font-size="10.00">AuthTokenSession</text>
<polyline fill="none" stroke="black" points="68.0394,-60.5 172.039,-60.5 "/>
<text text-anchor="start" x="76.0394" y="-48.5" font-family="Helvetica,sans-Serif" font-size="10.00">+ TOKEN_HEADER</text>
<polyline fill="none" stroke="black" points="68.0394,-41.5 172.039,-41.5 "/>
<text text-anchor="start" x="76.0394" y="-29.5" font-family="Helvetica,sans-Serif" font-size="10.00">+ __construct()</text>
<text text-anchor="start" x="76.0394" y="-18.5" font-family="Helvetica,sans-Serif" font-size="10.00">+ setAuthUser()</text>
<text text-anchor="start" x="76.0394" y="-7.5" font-family="Helvetica,sans-Serif" font-size="10.00">+ getAuthUser()</text>
</a>
</g>
</g>
<!-- Node1&#45;&gt;Node2 -->
<g id="edge1" class="edge"><title>Node1&#45;&gt;Node2</title>
<path fill="none" stroke="midnightblue" d="M47.5088,-393.729C39.4829,-379.961 32.3736,-365.018 28.0394,-350 -0.797617,-250.078 -16.5801,-209.942 28.0394,-116 36.6153,-97.9442 51.9007,-82.8036 67.5798,-70.9613"/>
<polygon fill="none" stroke="midnightblue" points="44.7121,-395.866 52.8954,-402.596 50.6948,-392.232 44.7121,-395.866"/>
</g>
<!-- Node3 -->
<g id="node3" class="node"><title>Node3</title>
<g id="a_node3"><a xlink:href="classwcmf_1_1lib_1_1core_1_1impl_1_1_client_side_session.html" target="_top" xlink:title="ClientSideSession has no server state as it stores the data in cookies. ">
<polygon fill="white" stroke="black" points="37.5394,-116.5 37.5394,-349.5 154.539,-349.5 154.539,-116.5 37.5394,-116.5"/>
<text text-anchor="middle" x="96.0394" y="-337.5" font-family="Helvetica,sans-Serif" font-size="10.00">ClientSideSession</text>
<polyline fill="none" stroke="black" points="37.5394,-330.5 154.539,-330.5 "/>
<text text-anchor="start" x="45.5394" y="-318.5" font-family="Helvetica,sans-Serif" font-size="10.00">+ TOKEN_HEADER</text>
<text text-anchor="start" x="45.5394" y="-307.5" font-family="Helvetica,sans-Serif" font-size="10.00">+ AUTH_TYPE</text>
<text text-anchor="start" x="45.5394" y="-296.5" font-family="Helvetica,sans-Serif" font-size="10.00">+ AUTH_USER_NAME</text>
<polyline fill="none" stroke="black" points="37.5394,-289.5 154.539,-289.5 "/>
<text text-anchor="start" x="45.5394" y="-277.5" font-family="Helvetica,sans-Serif" font-size="10.00">+ __construct()</text>
<text text-anchor="start" x="45.5394" y="-266.5" font-family="Helvetica,sans-Serif" font-size="10.00">+ getID()</text>
<text text-anchor="start" x="45.5394" y="-255.5" font-family="Helvetica,sans-Serif" font-size="10.00">+ get()</text>
<text text-anchor="start" x="45.5394" y="-244.5" font-family="Helvetica,sans-Serif" font-size="10.00">+ set()</text>
<text text-anchor="start" x="45.5394" y="-233.5" font-family="Helvetica,sans-Serif" font-size="10.00">+ remove()</text>
<text text-anchor="start" x="45.5394" y="-222.5" font-family="Helvetica,sans-Serif" font-size="10.00">+ exist()</text>
<text text-anchor="start" x="45.5394" y="-211.5" font-family="Helvetica,sans-Serif" font-size="10.00">+ clear()</text>
<text text-anchor="start" x="45.5394" y="-200.5" font-family="Helvetica,sans-Serif" font-size="10.00">+ destroy()</text>
<text text-anchor="start" x="45.5394" y="-189.5" font-family="Helvetica,sans-Serif" font-size="10.00">+ setAuthUser()</text>
<text text-anchor="start" x="45.5394" y="-178.5" font-family="Helvetica,sans-Serif" font-size="10.00">+ getAuthUser()</text>
<text text-anchor="start" x="45.5394" y="-167.5" font-family="Helvetica,sans-Serif" font-size="10.00"># getCookiePrefix()</text>
<text text-anchor="start" x="45.5394" y="-156.5" font-family="Helvetica,sans-Serif" font-size="10.00"># createToken()</text>
<text text-anchor="start" x="45.5394" y="-145.5" font-family="Helvetica,sans-Serif" font-size="10.00"># getTokenIssuer()</text>
<text text-anchor="start" x="45.5394" y="-134.5" font-family="Helvetica,sans-Serif" font-size="10.00"># getTokenSigner()</text>
<text text-anchor="start" x="45.5394" y="-123.5" font-family="Helvetica,sans-Serif" font-size="10.00"># getTokenData()</text>
</a>
</g>
</g>
<!-- Node1&#45;&gt;Node3 -->
<g id="edge2" class="edge"><title>Node1&#45;&gt;Node3</title>
<path fill="none" stroke="midnightblue" d="M96.0394,-375.949C96.0394,-367.432 96.0394,-358.665 96.0394,-349.866"/>
<polygon fill="none" stroke="midnightblue" points="92.5395,-376.201 96.0394,-386.201 99.5395,-376.201 92.5395,-376.201"/>
</g>
<!-- Node4 -->
<g id="node4" class="node"><title>Node4</title>
<g id="a_node4"><a xlink:href="classwcmf_1_1lib_1_1core_1_1impl_1_1_default_session.html" target="_top" xlink:title="DefaultSession uses the default PHP session implementation: ">
<polygon fill="white" stroke="black" points="172.539,-144 172.539,-322 289.539,-322 289.539,-144 172.539,-144"/>
<text text-anchor="middle" x="231.039" y="-310" font-family="Helvetica,sans-Serif" font-size="10.00">DefaultSession</text>
<polyline fill="none" stroke="black" points="172.539,-303 289.539,-303 "/>
<text text-anchor="start" x="180.539" y="-291" font-family="Helvetica,sans-Serif" font-size="10.00">+ AUTH_USER_NAME</text>
<polyline fill="none" stroke="black" points="172.539,-284 289.539,-284 "/>
<text text-anchor="start" x="180.539" y="-272" font-family="Helvetica,sans-Serif" font-size="10.00">+ __construct()</text>
<text text-anchor="start" x="180.539" y="-261" font-family="Helvetica,sans-Serif" font-size="10.00">+ __destruct()</text>
<text text-anchor="start" x="180.539" y="-250" font-family="Helvetica,sans-Serif" font-size="10.00">+ getID()</text>
<text text-anchor="start" x="180.539" y="-239" font-family="Helvetica,sans-Serif" font-size="10.00">+ get()</text>
<text text-anchor="start" x="180.539" y="-228" font-family="Helvetica,sans-Serif" font-size="10.00">+ set()</text>
<text text-anchor="start" x="180.539" y="-217" font-family="Helvetica,sans-Serif" font-size="10.00">+ remove()</text>
<text text-anchor="start" x="180.539" y="-206" font-family="Helvetica,sans-Serif" font-size="10.00">+ exist()</text>
<text text-anchor="start" x="180.539" y="-195" font-family="Helvetica,sans-Serif" font-size="10.00">+ clear()</text>
<text text-anchor="start" x="180.539" y="-184" font-family="Helvetica,sans-Serif" font-size="10.00">+ destroy()</text>
<text text-anchor="start" x="180.539" y="-173" font-family="Helvetica,sans-Serif" font-size="10.00">+ setAuthUser()</text>
<text text-anchor="start" x="180.539" y="-162" font-family="Helvetica,sans-Serif" font-size="10.00">+ getAuthUser()</text>
<text text-anchor="start" x="180.539" y="-151" font-family="Helvetica,sans-Serif" font-size="10.00"># getCookiePrefix()</text>
</a>
</g>
</g>
<!-- Node1&#45;&gt;Node4 -->
<g id="edge3" class="edge"><title>Node1&#45;&gt;Node4</title>
<path fill="none" stroke="midnightblue" d="M144.388,-382.017C151.054,-371.307 157.763,-360.404 164.039,-350 169.446,-341.039 175.022,-331.644 180.54,-322.245"/>
<polygon fill="none" stroke="midnightblue" points="141.386,-380.216 139.059,-390.552 147.324,-383.923 141.386,-380.216"/>
</g>
<!-- Node4&#45;&gt;Node2 -->
<g id="edge4" class="edge"><title>Node4&#45;&gt;Node2</title>
<path fill="none" stroke="midnightblue" d="M175.132,-135.091C171.382,-128.628 167.659,-122.218 164.039,-116 157.128,-104.128 149.571,-91.2188 142.7,-79.5107"/>
<polygon fill="none" stroke="midnightblue" points="172.21,-137.03 180.253,-143.926 178.266,-133.519 172.21,-137.03"/>
</g>
</g>
</svg>
