<?xml version="1.0" encoding="UTF-8" standalone="no"?>
<!DOCTYPE svg PUBLIC "-//W3C//DTD SVG 1.1//EN"
 "http://www.w3.org/Graphics/SVG/1.1/DTD/svg11.dtd">
<!-- Generated by graphviz version 2.38.0 (20140413.2041)
 -->
<!-- Title: Format Pages: 1 -->
<svg width="699pt" height="667pt"
 viewBox="0.00 0.00 699.00 667.00" xmlns="http://www.w3.org/2000/svg" xmlns:xlink="http://www.w3.org/1999/xlink">
<g id="graph0" class="graph" transform="scale(1 1) rotate(0) translate(4 663)">
<title>Format</title>
<polygon fill="white" stroke="none" points="-4,4 -4,-663 695,-663 695,4 -4,4"/>
<!-- Node1 -->
<g id="node1" class="node"><title>Node1</title>
<polygon fill="#bfbfbf" stroke="black" points="261,-557.5 261,-658.5 354,-658.5 354,-557.5 261,-557.5"/>
<text text-anchor="middle" x="307.5" y="-646.5" font-family="Helvetica,sans-Serif" font-size="10.00">Format</text>
<polyline fill="none" stroke="black" points="261,-639.5 354,-639.5 "/>
<text text-anchor="middle" x="307.5" y="-627.5" font-family="Helvetica,sans-Serif" font-size="10.00"> </text>
<polyline fill="none" stroke="black" points="261,-620.5 354,-620.5 "/>
<text text-anchor="start" x="269" y="-608.5" font-family="Helvetica,sans-Serif" font-size="10.00">+ getMimeType()</text>
<text text-anchor="start" x="269" y="-597.5" font-family="Helvetica,sans-Serif" font-size="10.00">+ deserialize()</text>
<text text-anchor="start" x="269" y="-586.5" font-family="Helvetica,sans-Serif" font-size="10.00">+ serialize()</text>
<text text-anchor="start" x="269" y="-575.5" font-family="Helvetica,sans-Serif" font-size="10.00">+ isCached()</text>
<text text-anchor="start" x="269" y="-564.5" font-family="Helvetica,sans-Serif" font-size="10.00">+ getCacheDate()</text>
</g>
<!-- Node2 -->
<g id="node2" class="node"><title>Node2</title>
<g id="a_node2"><a xlink:href="classwcmf_1_1lib_1_1presentation_1_1format_1_1impl_1_1_abstract_format.html" target="_top" xlink:title="AbstractFormat is used as base class for specialized formats. ">
<polygon fill="white" stroke="black" points="254,-342.5 254,-520.5 361,-520.5 361,-342.5 254,-342.5"/>
<text text-anchor="middle" x="307.5" y="-508.5" font-family="Helvetica,sans-Serif" font-size="10.00">AbstractFormat</text>
<polyline fill="none" stroke="black" points="254,-501.5 361,-501.5 "/>
<text text-anchor="middle" x="307.5" y="-489.5" font-family="Helvetica,sans-Serif" font-size="10.00"> </text>
<polyline fill="none" stroke="black" points="254,-482.5 361,-482.5 "/>
<text text-anchor="start" x="262" y="-470.5" font-family="Helvetica,sans-Serif" font-size="10.00">+ deserialize()</text>
<text text-anchor="start" x="262" y="-459.5" font-family="Helvetica,sans-Serif" font-size="10.00">+ serialize()</text>
<text text-anchor="start" x="262" y="-448.5" font-family="Helvetica,sans-Serif" font-size="10.00"># beforeDeserialize()</text>
<text text-anchor="start" x="262" y="-437.5" font-family="Helvetica,sans-Serif" font-size="10.00"># deserializeValues()</text>
<text text-anchor="start" x="262" y="-426.5" font-family="Helvetica,sans-Serif" font-size="10.00"># afterDeserialize()</text>
<text text-anchor="start" x="262" y="-415.5" font-family="Helvetica,sans-Serif" font-size="10.00"># beforeSerialize()</text>
<text text-anchor="start" x="262" y="-404.5" font-family="Helvetica,sans-Serif" font-size="10.00"># sendHeaders()</text>
<text text-anchor="start" x="262" y="-393.5" font-family="Helvetica,sans-Serif" font-size="10.00"># serializeValues()</text>
<text text-anchor="start" x="262" y="-382.5" font-family="Helvetica,sans-Serif" font-size="10.00"># afterSerialize()</text>
<text text-anchor="start" x="262" y="-371.5" font-family="Helvetica,sans-Serif" font-size="10.00"># getNode()</text>
<text text-anchor="start" x="262" y="-360.5" font-family="Helvetica,sans-Serif" font-size="10.00"># sendHeader()</text>
<text text-anchor="start" x="262" y="-349.5" font-family="Helvetica,sans-Serif" font-size="10.00"># filterValue()</text>
</a>
</g>
</g>
<!-- Node1&#45;&gt;Node2 -->
<g id="edge1" class="edge"><title>Node1&#45;&gt;Node2</title>
<path fill="none" stroke="midnightblue" d="M307.5,-547.256C307.5,-538.708 307.5,-529.767 307.5,-520.812"/>
<polygon fill="none" stroke="midnightblue" points="304,-547.462 307.5,-557.462 311,-547.462 304,-547.462"/>
</g>
<!-- Node3 -->
<g id="node3" class="node"><title>Node3</title>
<g id="a_node3"><a xlink:href="classwcmf_1_1lib_1_1presentation_1_1format_1_1impl_1_1_download_format.html" target="_top" xlink:title="DownloadFormat is used for downloads. ">
<polygon fill="white" stroke="black" points="0,-188 0,-300 107,-300 107,-188 0,-188"/>
<text text-anchor="middle" x="53.5" y="-288" font-family="Helvetica,sans-Serif" font-size="10.00">DownloadFormat</text>
<polyline fill="none" stroke="black" points="0,-281 107,-281 "/>
<text text-anchor="middle" x="53.5" y="-269" font-family="Helvetica,sans-Serif" font-size="10.00"> </text>
<polyline fill="none" stroke="black" points="0,-262 107,-262 "/>
<text text-anchor="start" x="8" y="-250" font-family="Helvetica,sans-Serif" font-size="10.00">+ getMimeType()</text>
<text text-anchor="start" x="8" y="-239" font-family="Helvetica,sans-Serif" font-size="10.00">+ isCached()</text>
<text text-anchor="start" x="8" y="-228" font-family="Helvetica,sans-Serif" font-size="10.00">+ getCacheDate()</text>
<text text-anchor="start" x="8" y="-217" font-family="Helvetica,sans-Serif" font-size="10.00"># deserializeValues()</text>
<text text-anchor="start" x="8" y="-206" font-family="Helvetica,sans-Serif" font-size="10.00"># sendHeaders()</text>
<text text-anchor="start" x="8" y="-195" font-family="Helvetica,sans-Serif" font-size="10.00"># serializeValues()</text>
</a>
</g>
</g>
<!-- Node2&#45;&gt;Node3 -->
<g id="edge2" class="edge"><title>Node2&#45;&gt;Node3</title>
<path fill="none" stroke="midnightblue" d="M244.751,-393.816C206.441,-370.408 157.174,-338.454 116.5,-306 113.406,-303.531 110.29,-300.935 107.19,-298.262"/>
<polygon fill="none" stroke="midnightblue" points="243.379,-397.078 253.743,-399.277 247.012,-391.095 243.379,-397.078"/>
</g>
<!-- Node4 -->
<g id="node4" class="node"><title>Node4</title>
<g id="a_node4"><a xlink:href="classwcmf_1_1lib_1_1presentation_1_1format_1_1impl_1_1_generic_format.html" target="_top" xlink:title="GenericFormat is used to output arbitrary responses. ">
<polygon fill="white" stroke="black" points="125,-188 125,-300 232,-300 232,-188 125,-188"/>
<text text-anchor="middle" x="178.5" y="-288" font-family="Helvetica,sans-Serif" font-size="10.00">GenericFormat</text>
<polyline fill="none" stroke="black" points="125,-281 232,-281 "/>
<text text-anchor="middle" x="178.5" y="-269" font-family="Helvetica,sans-Serif" font-size="10.00"> </text>
<polyline fill="none" stroke="black" points="125,-262 232,-262 "/>
<text text-anchor="start" x="133" y="-250" font-family="Helvetica,sans-Serif" font-size="10.00">+ getMimeType()</text>
<text text-anchor="start" x="133" y="-239" font-family="Helvetica,sans-Serif" font-size="10.00">+ isCached()</text>
<text text-anchor="start" x="133" y="-228" font-family="Helvetica,sans-Serif" font-size="10.00">+ getCacheDate()</text>
<text text-anchor="start" x="133" y="-217" font-family="Helvetica,sans-Serif" font-size="10.00"># deserializeValues()</text>
<text text-anchor="start" x="133" y="-206" font-family="Helvetica,sans-Serif" font-size="10.00"># sendHeaders()</text>
<text text-anchor="start" x="133" y="-195" font-family="Helvetica,sans-Serif" font-size="10.00"># serializeValues()</text>
</a>
</g>
</g>
<!-- Node2&#45;&gt;Node4 -->
<g id="edge3" class="edge"><title>Node2&#45;&gt;Node4</title>
<path fill="none" stroke="midnightblue" d="M248.039,-344.996C237.418,-329.723 226.613,-314.186 216.787,-300.056"/>
<polygon fill="none" stroke="midnightblue" points="245.33,-347.231 253.913,-353.443 251.077,-343.235 245.33,-347.231"/>
</g>
<!-- Node5 -->
<g id="node5" class="node"><title>Node5</title>
<g id="a_node5"><a xlink:href="classwcmf_1_1lib_1_1presentation_1_1format_1_1impl_1_1_hierarchical_format.html" target="_top" xlink:title="HierarchicalFormat is used as base class for formats that are able to represent hierarchical data lik...">
<polygon fill="white" stroke="black" points="250.5,-188 250.5,-300 364.5,-300 364.5,-188 250.5,-188"/>
<text text-anchor="middle" x="307.5" y="-288" font-family="Helvetica,sans-Serif" font-size="10.00">HierarchicalFormat</text>
<polyline fill="none" stroke="black" points="250.5,-281 364.5,-281 "/>
<text text-anchor="middle" x="307.5" y="-269" font-family="Helvetica,sans-Serif" font-size="10.00"> </text>
<polyline fill="none" stroke="black" points="250.5,-262 364.5,-262 "/>
<text text-anchor="start" x="258.5" y="-250" font-family="Helvetica,sans-Serif" font-size="10.00"># deserializeValues()</text>
<text text-anchor="start" x="258.5" y="-239" font-family="Helvetica,sans-Serif" font-size="10.00"># serializeValues()</text>
<text text-anchor="start" x="258.5" y="-228" font-family="Helvetica,sans-Serif" font-size="10.00"># isSerializedNode()</text>
<text text-anchor="start" x="258.5" y="-217" font-family="Helvetica,sans-Serif" font-size="10.00"># isDeserializedNode()</text>
<text text-anchor="start" x="258.5" y="-206" font-family="Helvetica,sans-Serif" font-size="10.00"># serializeNode()</text>
<text text-anchor="start" x="258.5" y="-195" font-family="Helvetica,sans-Serif" font-size="10.00"># deserializeNode()</text>
</a>
</g>
</g>
<!-- Node2&#45;&gt;Node5 -->
<g id="edge4" class="edge"><title>Node2&#45;&gt;Node5</title>
<path fill="none" stroke="midnightblue" d="M307.5,-332.239C307.5,-321.222 307.5,-310.309 307.5,-300.125"/>
<polygon fill="none" stroke="midnightblue" points="304,-332.368 307.5,-342.368 311,-332.368 304,-332.368"/>
</g>
<!-- Node8 -->
<g id="node8" class="node"><title>Node8</title>
<g id="a_node8"><a xlink:href="classwcmf_1_1lib_1_1presentation_1_1format_1_1impl_1_1_html_format.html" target="_top" xlink:title="HtmlFormat implements the HTML request/response format. ">
<polygon fill="white" stroke="black" points="383,-182.5 383,-305.5 566,-305.5 566,-182.5 383,-182.5"/>
<text text-anchor="middle" x="474.5" y="-293.5" font-family="Helvetica,sans-Serif" font-size="10.00">HtmlFormat</text>
<polyline fill="none" stroke="black" points="383,-286.5 566,-286.5 "/>
<text text-anchor="middle" x="474.5" y="-274.5" font-family="Helvetica,sans-Serif" font-size="10.00"> </text>
<polyline fill="none" stroke="black" points="383,-267.5 566,-267.5 "/>
<text text-anchor="start" x="391" y="-255.5" font-family="Helvetica,sans-Serif" font-size="10.00">+ getMimeType()</text>
<text text-anchor="start" x="391" y="-244.5" font-family="Helvetica,sans-Serif" font-size="10.00">+ isCached()</text>
<text text-anchor="start" x="391" y="-233.5" font-family="Helvetica,sans-Serif" font-size="10.00">+ getCacheDate()</text>
<text text-anchor="start" x="391" y="-222.5" font-family="Helvetica,sans-Serif" font-size="10.00"># deserializeValues()</text>
<text text-anchor="start" x="391" y="-211.5" font-family="Helvetica,sans-Serif" font-size="10.00"># serializeValues()</text>
<text text-anchor="start" x="391" y="-200.5" font-family="Helvetica,sans-Serif" font-size="10.00"># getTemplateFile()</text>
<text text-anchor="start" x="391" y="-189.5" font-family="Helvetica,sans-Serif" font-size="10.00"># getValueDefFromInputControlName()</text>
</a>
</g>
</g>
<!-- Node2&#45;&gt;Node8 -->
<g id="edge7" class="edge"><title>Node2&#45;&gt;Node8</title>
<path fill="none" stroke="midnightblue" d="M367.725,-363.603C384.745,-344.698 403.167,-324.235 419.84,-305.715"/>
<polygon fill="none" stroke="midnightblue" points="365.119,-361.267 361.029,-371.041 370.321,-365.951 365.119,-361.267"/>
</g>
<!-- Node9 -->
<g id="node9" class="node"><title>Node9</title>
<g id="a_node9"><a xlink:href="classwcmf_1_1lib_1_1presentation_1_1format_1_1impl_1_1_null_format.html" target="_top" xlink:title="NullFormat transfers the original request and response objects without modifying or transforming them...">
<polygon fill="white" stroke="black" points="584,-193.5 584,-294.5 691,-294.5 691,-193.5 584,-193.5"/>
<text text-anchor="middle" x="637.5" y="-282.5" font-family="Helvetica,sans-Serif" font-size="10.00">NullFormat</text>
<polyline fill="none" stroke="black" points="584,-275.5 691,-275.5 "/>
<text text-anchor="middle" x="637.5" y="-263.5" font-family="Helvetica,sans-Serif" font-size="10.00"> </text>
<polyline fill="none" stroke="black" points="584,-256.5 691,-256.5 "/>
<text text-anchor="start" x="592" y="-244.5" font-family="Helvetica,sans-Serif" font-size="10.00">+ getMimeType()</text>
<text text-anchor="start" x="592" y="-233.5" font-family="Helvetica,sans-Serif" font-size="10.00">+ isCached()</text>
<text text-anchor="start" x="592" y="-222.5" font-family="Helvetica,sans-Serif" font-size="10.00">+ getCacheDate()</text>
<text text-anchor="start" x="592" y="-211.5" font-family="Helvetica,sans-Serif" font-size="10.00"># deserializeValues()</text>
<text text-anchor="start" x="592" y="-200.5" font-family="Helvetica,sans-Serif" font-size="10.00"># serializeValues()</text>
</a>
</g>
</g>
<!-- Node2&#45;&gt;Node9 -->
<g id="edge8" class="edge"><title>Node2&#45;&gt;Node9</title>
<path fill="none" stroke="midnightblue" d="M370.734,-408.228C427.193,-386.738 510.728,-350.893 575.5,-306 580.464,-302.559 585.391,-298.705 590.17,-294.649"/>
<polygon fill="none" stroke="midnightblue" points="369.34,-405.013 361.216,-411.813 371.808,-411.564 369.34,-405.013"/>
</g>
<!-- Node6 -->
<g id="node6" class="node"><title>Node6</title>
<g id="a_node6"><a xlink:href="classwcmf_1_1lib_1_1presentation_1_1format_1_1impl_1_1_json_format.html" target="_top" xlink:title="JsonFormat implements the JSON request/response format. ">
<polygon fill="white" stroke="black" points="194.5,-0.5 194.5,-145.5 298.5,-145.5 298.5,-0.5 194.5,-0.5"/>
<text text-anchor="middle" x="246.5" y="-133.5" font-family="Helvetica,sans-Serif" font-size="10.00">JsonFormat</text>
<polyline fill="none" stroke="black" points="194.5,-126.5 298.5,-126.5 "/>
<text text-anchor="start" x="202.5" y="-114.5" font-family="Helvetica,sans-Serif" font-size="10.00"># $serializer</text>
<polyline fill="none" stroke="black" points="194.5,-107.5 298.5,-107.5 "/>
<text text-anchor="start" x="202.5" y="-95.5" font-family="Helvetica,sans-Serif" font-size="10.00">+ __construct()</text>
<text text-anchor="start" x="202.5" y="-84.5" font-family="Helvetica,sans-Serif" font-size="10.00">+ getMimeType()</text>
<text text-anchor="start" x="202.5" y="-73.5" font-family="Helvetica,sans-Serif" font-size="10.00">+ isCached()</text>
<text text-anchor="start" x="202.5" y="-62.5" font-family="Helvetica,sans-Serif" font-size="10.00">+ getCacheDate()</text>
<text text-anchor="start" x="202.5" y="-51.5" font-family="Helvetica,sans-Serif" font-size="10.00">+ printJSONResult()</text>
<text text-anchor="start" x="202.5" y="-40.5" font-family="Helvetica,sans-Serif" font-size="10.00"># afterSerialize()</text>
<text text-anchor="start" x="202.5" y="-29.5" font-family="Helvetica,sans-Serif" font-size="10.00"># isSerializedNode()</text>
<text text-anchor="start" x="202.5" y="-18.5" font-family="Helvetica,sans-Serif" font-size="10.00"># serializeNode()</text>
<text text-anchor="start" x="202.5" y="-7.5" font-family="Helvetica,sans-Serif" font-size="10.00"># deserializeNode()</text>
</a>
</g>
</g>
<!-- Node5&#45;&gt;Node6 -->
<g id="edge5" class="edge"><title>Node5&#45;&gt;Node6</title>
<path fill="none" stroke="midnightblue" d="M284.072,-178.092C280.254,-167.515 276.28,-156.505 272.407,-145.775"/>
<polygon fill="none" stroke="midnightblue" points="280.839,-179.445 287.526,-187.663 287.423,-177.069 280.839,-179.445"/>
</g>
<!-- Node7 -->
<g id="node7" class="node"><title>Node7</title>
<g id="a_node7"><a xlink:href="classwcmf_1_1lib_1_1presentation_1_1format_1_1impl_1_1_soap_format.html" target="_top" xlink:title="SoapFormat implements the SOAP request/response format. ">
<polygon fill="white" stroke="black" points="316.5,-6 316.5,-140 420.5,-140 420.5,-6 316.5,-6"/>
<text text-anchor="middle" x="368.5" y="-128" font-family="Helvetica,sans-Serif" font-size="10.00">SoapFormat</text>
<polyline fill="none" stroke="black" points="316.5,-121 420.5,-121 "/>
<text text-anchor="start" x="324.5" y="-109" font-family="Helvetica,sans-Serif" font-size="10.00"># $serializer</text>
<polyline fill="none" stroke="black" points="316.5,-102 420.5,-102 "/>
<text text-anchor="start" x="324.5" y="-90" font-family="Helvetica,sans-Serif" font-size="10.00">+ __construct()</text>
<text text-anchor="start" x="324.5" y="-79" font-family="Helvetica,sans-Serif" font-size="10.00">+ getMimeType()</text>
<text text-anchor="start" x="324.5" y="-68" font-family="Helvetica,sans-Serif" font-size="10.00">+ isCached()</text>
<text text-anchor="start" x="324.5" y="-57" font-family="Helvetica,sans-Serif" font-size="10.00">+ getCacheDate()</text>
<text text-anchor="start" x="324.5" y="-46" font-family="Helvetica,sans-Serif" font-size="10.00">+ setSerializer()</text>
<text text-anchor="start" x="324.5" y="-35" font-family="Helvetica,sans-Serif" font-size="10.00"># isSerializedNode()</text>
<text text-anchor="start" x="324.5" y="-24" font-family="Helvetica,sans-Serif" font-size="10.00"># serializeNode()</text>
<text text-anchor="start" x="324.5" y="-13" font-family="Helvetica,sans-Serif" font-size="10.00"># deserializeNode()</text>
</a>
</g>
</g>
<!-- Node5&#45;&gt;Node7 -->
<g id="edge6" class="edge"><title>Node5&#45;&gt;Node7</title>
<path fill="none" stroke="midnightblue" d="M330.876,-178.236C335.391,-165.728 340.127,-152.608 344.656,-140.058"/>
<polygon fill="none" stroke="midnightblue" points="327.577,-177.069 327.474,-187.663 334.161,-179.445 327.577,-177.069"/>
</g>
</g>
</svg>
