<?xml version="1.0" encoding="UTF-8" standalone="no"?>
<!DOCTYPE svg PUBLIC "-//W3C//DTD SVG 1.1//EN"
 "http://www.w3.org/Graphics/SVG/1.1/DTD/svg11.dtd">
<!-- Generated by graphviz version 2.38.0 (20140413.2041)
 -->
<!-- Title: ControllerMessage Pages: 1 -->
<svg width="391pt" height="540pt"
 viewBox="0.00 0.00 390.50 540.00" xmlns="http://www.w3.org/2000/svg" xmlns:xlink="http://www.w3.org/1999/xlink">
<g id="graph0" class="graph" transform="scale(1 1) rotate(0) translate(4 536)">
<title>ControllerMessage</title>
<polygon fill="white" stroke="none" points="-4,4 -4,-536 386.5,-536 386.5,4 -4,4"/>
<!-- Node1 -->
<g id="node1" class="node"><title>Node1</title>
<polygon fill="#bfbfbf" stroke="black" points="159.5,-364.5 159.5,-531.5 257.5,-531.5 257.5,-364.5 159.5,-364.5"/>
<text text-anchor="middle" x="208.5" y="-519.5" font-family="Helvetica,sans-Serif" font-size="10.00">ControllerMessage</text>
<polyline fill="none" stroke="black" points="159.5,-512.5 257.5,-512.5 "/>
<text text-anchor="middle" x="208.5" y="-500.5" font-family="Helvetica,sans-Serif" font-size="10.00"> </text>
<polyline fill="none" stroke="black" points="159.5,-493.5 257.5,-493.5 "/>
<text text-anchor="start" x="167.5" y="-481.5" font-family="Helvetica,sans-Serif" font-size="10.00">+ setSender()</text>
<text text-anchor="start" x="167.5" y="-470.5" font-family="Helvetica,sans-Serif" font-size="10.00">+ getSender()</text>
<text text-anchor="start" x="167.5" y="-459.5" font-family="Helvetica,sans-Serif" font-size="10.00">+ setContext()</text>
<text text-anchor="start" x="167.5" y="-448.5" font-family="Helvetica,sans-Serif" font-size="10.00">+ getContext()</text>
<text text-anchor="start" x="167.5" y="-437.5" font-family="Helvetica,sans-Serif" font-size="10.00">+ setAction()</text>
<text text-anchor="start" x="167.5" y="-426.5" font-family="Helvetica,sans-Serif" font-size="10.00">+ getAction()</text>
<text text-anchor="start" x="167.5" y="-415.5" font-family="Helvetica,sans-Serif" font-size="10.00">+ setFormat()</text>
<text text-anchor="start" x="167.5" y="-404.5" font-family="Helvetica,sans-Serif" font-size="10.00">+ getFormat()</text>
<text text-anchor="start" x="167.5" y="-393.5" font-family="Helvetica,sans-Serif" font-size="10.00">+ setHeader()</text>
<text text-anchor="start" x="167.5" y="-382.5" font-family="Helvetica,sans-Serif" font-size="10.00">+ setHeaders()</text>
<text text-anchor="start" x="167.5" y="-371.5" font-family="Helvetica,sans-Serif" font-size="10.00">and 20 more...</text>
</g>
<!-- Node2 -->
<g id="node2" class="node"><title>Node2</title>
<g id="a_node2"><a xlink:href="classwcmf_1_1lib_1_1presentation_1_1impl_1_1_abstract_controller_message.html" target="_top" xlink:title="AbstractControllerMessage is the base class for request/response implementations. ...">
<polygon fill="white" stroke="black" points="137,-149.5 137,-327.5 280,-327.5 280,-149.5 137,-149.5"/>
<text text-anchor="middle" x="208.5" y="-315.5" font-family="Helvetica,sans-Serif" font-size="10.00">AbstractControllerMessage</text>
<polyline fill="none" stroke="black" points="137,-308.5 280,-308.5 "/>
<text text-anchor="middle" x="208.5" y="-296.5" font-family="Helvetica,sans-Serif" font-size="10.00"> </text>
<polyline fill="none" stroke="black" points="137,-289.5 280,-289.5 "/>
<text text-anchor="start" x="145" y="-277.5" font-family="Helvetica,sans-Serif" font-size="10.00">+ setSender()</text>
<text text-anchor="start" x="145" y="-266.5" font-family="Helvetica,sans-Serif" font-size="10.00">+ getSender()</text>
<text text-anchor="start" x="145" y="-255.5" font-family="Helvetica,sans-Serif" font-size="10.00">+ setContext()</text>
<text text-anchor="start" x="145" y="-244.5" font-family="Helvetica,sans-Serif" font-size="10.00">+ getContext()</text>
<text text-anchor="start" x="145" y="-233.5" font-family="Helvetica,sans-Serif" font-size="10.00">+ setAction()</text>
<text text-anchor="start" x="145" y="-222.5" font-family="Helvetica,sans-Serif" font-size="10.00">+ getAction()</text>
<text text-anchor="start" x="145" y="-211.5" font-family="Helvetica,sans-Serif" font-size="10.00">+ setFormat()</text>
<text text-anchor="start" x="145" y="-200.5" font-family="Helvetica,sans-Serif" font-size="10.00">+ getFormat()</text>
<text text-anchor="start" x="145" y="-189.5" font-family="Helvetica,sans-Serif" font-size="10.00">+ setHeader()</text>
<text text-anchor="start" x="145" y="-178.5" font-family="Helvetica,sans-Serif" font-size="10.00">+ setHeaders()</text>
<text text-anchor="start" x="145" y="-167.5" font-family="Helvetica,sans-Serif" font-size="10.00">and 21 more...</text>
<text text-anchor="start" x="145" y="-156.5" font-family="Helvetica,sans-Serif" font-size="10.00"># getFormatFromMimeType()</text>
</a>
</g>
</g>
<!-- Node1&#45;&gt;Node2 -->
<g id="edge1" class="edge"><title>Node1&#45;&gt;Node2</title>
<path fill="none" stroke="midnightblue" d="M208.5,-354.111C208.5,-345.297 208.5,-336.378 208.5,-327.61"/>
<polygon fill="none" stroke="midnightblue" points="205,-354.394 208.5,-364.394 212,-354.394 205,-354.394"/>
</g>
<!-- Node5 -->
<g id="node5" class="node"><title>Node5</title>
<g id="a_node5"><a xlink:href="interfacewcmf_1_1lib_1_1presentation_1_1_request.html" target="_top" xlink:title="Request holds the request values that are used as input to Controller instances. ">
<polygon fill="white" stroke="black" points="0,-193.5 0,-283.5 119,-283.5 119,-193.5 0,-193.5"/>
<text text-anchor="middle" x="59.5" y="-271.5" font-family="Helvetica,sans-Serif" font-size="10.00">Request</text>
<polyline fill="none" stroke="black" points="0,-264.5 119,-264.5 "/>
<text text-anchor="middle" x="59.5" y="-252.5" font-family="Helvetica,sans-Serif" font-size="10.00"> </text>
<polyline fill="none" stroke="black" points="0,-245.5 119,-245.5 "/>
<text text-anchor="start" x="8" y="-233.5" font-family="Helvetica,sans-Serif" font-size="10.00">+ initialize()</text>
<text text-anchor="start" x="8" y="-222.5" font-family="Helvetica,sans-Serif" font-size="10.00">+ getMethod()</text>
<text text-anchor="start" x="8" y="-211.5" font-family="Helvetica,sans-Serif" font-size="10.00">+ setResponseFormat()</text>
<text text-anchor="start" x="8" y="-200.5" font-family="Helvetica,sans-Serif" font-size="10.00">+ getResponseFormat()</text>
</a>
</g>
</g>
<!-- Node1&#45;&gt;Node5 -->
<g id="edge4" class="edge"><title>Node1&#45;&gt;Node5</title>
<path fill="none" stroke="midnightblue" d="M153.459,-370.349C132.525,-341.196 109.387,-308.973 91.31,-283.799"/>
<polygon fill="none" stroke="midnightblue" points="150.623,-372.4 159.299,-378.482 156.309,-368.317 150.623,-372.4"/>
</g>
<!-- Node6 -->
<g id="node6" class="node"><title>Node6</title>
<g id="a_node6"><a xlink:href="interfacewcmf_1_1lib_1_1presentation_1_1_response.html" target="_top" xlink:title="Response holds the response values that are used as output from Controller instances. ">
<polygon fill="white" stroke="black" points="298.5,-166 298.5,-311 382.5,-311 382.5,-166 298.5,-166"/>
<text text-anchor="middle" x="340.5" y="-299" font-family="Helvetica,sans-Serif" font-size="10.00">Response</text>
<polyline fill="none" stroke="black" points="298.5,-292 382.5,-292 "/>
<text text-anchor="start" x="306.5" y="-280" font-family="Helvetica,sans-Serif" font-size="10.00">+ STATUS_200</text>
<text text-anchor="start" x="306.5" y="-269" font-family="Helvetica,sans-Serif" font-size="10.00">+ STATUS_201</text>
<text text-anchor="start" x="306.5" y="-258" font-family="Helvetica,sans-Serif" font-size="10.00">+ STATUS_202</text>
<text text-anchor="start" x="306.5" y="-247" font-family="Helvetica,sans-Serif" font-size="10.00">+ STATUS_204</text>
<text text-anchor="start" x="306.5" y="-236" font-family="Helvetica,sans-Serif" font-size="10.00">+ STATUS_400</text>
<text text-anchor="start" x="306.5" y="-225" font-family="Helvetica,sans-Serif" font-size="10.00">+ STATUS_404</text>
<polyline fill="none" stroke="black" points="298.5,-218 382.5,-218 "/>
<text text-anchor="start" x="306.5" y="-206" font-family="Helvetica,sans-Serif" font-size="10.00">+ setCacheId()</text>
<text text-anchor="start" x="306.5" y="-195" font-family="Helvetica,sans-Serif" font-size="10.00">+ getCacheId()</text>
<text text-anchor="start" x="306.5" y="-184" font-family="Helvetica,sans-Serif" font-size="10.00">+ setStatus()</text>
<text text-anchor="start" x="306.5" y="-173" font-family="Helvetica,sans-Serif" font-size="10.00">+ getStatus()</text>
</a>
</g>
</g>
<!-- Node1&#45;&gt;Node6 -->
<g id="edge6" class="edge"><title>Node1&#45;&gt;Node6</title>
<path fill="none" stroke="midnightblue" d="M263.392,-368.131C272.289,-354.845 281.275,-341.112 289.5,-328 292.892,-322.592 296.339,-316.955 299.758,-311.26"/>
<polygon fill="none" stroke="midnightblue" points="260.247,-366.535 257.567,-376.786 266.054,-370.444 260.247,-366.535"/>
</g>
<!-- Node3 -->
<g id="node3" class="node"><title>Node3</title>
<g id="a_node3"><a xlink:href="classwcmf_1_1lib_1_1presentation_1_1impl_1_1_default_request.html" target="_top" xlink:title="Default Request implementation. ">
<polygon fill="white" stroke="black" points="13,-0.5 13,-112.5 132,-112.5 132,-0.5 13,-0.5"/>
<text text-anchor="middle" x="72.5" y="-100.5" font-family="Helvetica,sans-Serif" font-size="10.00">DefaultRequest</text>
<polyline fill="none" stroke="black" points="13,-93.5 132,-93.5 "/>
<text text-anchor="middle" x="72.5" y="-81.5" font-family="Helvetica,sans-Serif" font-size="10.00"> </text>
<polyline fill="none" stroke="black" points="13,-74.5 132,-74.5 "/>
<text text-anchor="start" x="21" y="-62.5" font-family="Helvetica,sans-Serif" font-size="10.00">+ __construct()</text>
<text text-anchor="start" x="21" y="-51.5" font-family="Helvetica,sans-Serif" font-size="10.00">+ initialize()</text>
<text text-anchor="start" x="21" y="-40.5" font-family="Helvetica,sans-Serif" font-size="10.00">+ getMethod()</text>
<text text-anchor="start" x="21" y="-29.5" font-family="Helvetica,sans-Serif" font-size="10.00">+ setResponseFormat()</text>
<text text-anchor="start" x="21" y="-18.5" font-family="Helvetica,sans-Serif" font-size="10.00">+ getResponseFormat()</text>
<text text-anchor="start" x="21" y="-7.5" font-family="Helvetica,sans-Serif" font-size="10.00">+ __toString()</text>
</a>
</g>
</g>
<!-- Node2&#45;&gt;Node3 -->
<g id="edge2" class="edge"><title>Node2&#45;&gt;Node3</title>
<path fill="none" stroke="midnightblue" d="M135.714,-141.165C128.367,-131.442 121.096,-121.818 114.245,-112.75"/>
<polygon fill="none" stroke="midnightblue" points="133.074,-143.477 141.894,-149.346 138.659,-139.257 133.074,-143.477"/>
</g>
<!-- Node4 -->
<g id="node4" class="node"><title>Node4</title>
<g id="a_node4"><a xlink:href="classwcmf_1_1lib_1_1presentation_1_1impl_1_1_default_response.html" target="_top" xlink:title="Default Response implementation. ">
<polygon fill="white" stroke="black" points="229.5,-11.5 229.5,-101.5 319.5,-101.5 319.5,-11.5 229.5,-11.5"/>
<text text-anchor="middle" x="274.5" y="-89.5" font-family="Helvetica,sans-Serif" font-size="10.00">DefaultResponse</text>
<polyline fill="none" stroke="black" points="229.5,-82.5 319.5,-82.5 "/>
<text text-anchor="middle" x="274.5" y="-70.5" font-family="Helvetica,sans-Serif" font-size="10.00"> </text>
<polyline fill="none" stroke="black" points="229.5,-63.5 319.5,-63.5 "/>
<text text-anchor="start" x="237.5" y="-51.5" font-family="Helvetica,sans-Serif" font-size="10.00">+ setCacheId()</text>
<text text-anchor="start" x="237.5" y="-40.5" font-family="Helvetica,sans-Serif" font-size="10.00">+ getCacheId()</text>
<text text-anchor="start" x="237.5" y="-29.5" font-family="Helvetica,sans-Serif" font-size="10.00">+ setStatus()</text>
<text text-anchor="start" x="237.5" y="-18.5" font-family="Helvetica,sans-Serif" font-size="10.00">+ getStatus()</text>
</a>
</g>
</g>
<!-- Node2&#45;&gt;Node4 -->
<g id="edge3" class="edge"><title>Node2&#45;&gt;Node4</title>
<path fill="none" stroke="midnightblue" d="M244.38,-139.645C249.253,-126.356 254.041,-113.296 258.316,-101.638"/>
<polygon fill="none" stroke="midnightblue" points="240.98,-138.752 240.823,-149.346 247.552,-141.162 240.98,-138.752"/>
</g>
<!-- Node5&#45;&gt;Node3 -->
<g id="edge5" class="edge"><title>Node5&#45;&gt;Node3</title>
<path fill="none" stroke="midnightblue" d="M63.4026,-183.463C65.0183,-161.093 66.8902,-135.175 68.5144,-112.685"/>
<polygon fill="none" stroke="midnightblue" points="59.9097,-183.241 62.6802,-193.467 66.8915,-183.745 59.9097,-183.241"/>
</g>
<!-- Node6&#45;&gt;Node4 -->
<g id="edge7" class="edge"><title>Node6&#45;&gt;Node4</title>
<path fill="none" stroke="midnightblue" d="M310.753,-156.371C303.857,-137.564 296.77,-118.236 290.712,-101.714"/>
<polygon fill="none" stroke="midnightblue" points="307.497,-157.658 314.225,-165.842 314.069,-155.248 307.497,-157.658"/>
</g>
</g>
</svg>
