<?xml version="1.0" encoding="UTF-8" standalone="no"?>
<!DOCTYPE svg PUBLIC "-//W3C//DTD SVG 1.1//EN"
 "http://www.w3.org/Graphics/SVG/1.1/DTD/svg11.dtd">
<!-- Generated by graphviz version 2.38.0 (20140413.2041)
 -->
<!-- Title: PermissionManager Pages: 1 -->
<svg width="604pt" height="716pt"
 viewBox="0.00 0.00 603.50 716.00" xmlns="http://www.w3.org/2000/svg" xmlns:xlink="http://www.w3.org/1999/xlink">
<g id="graph0" class="graph" transform="scale(1 1) rotate(0) translate(4 712)">
<title>PermissionManager</title>
<polygon fill="white" stroke="none" points="-4,4 -4,-712 599.5,-712 599.5,4 -4,4"/>
<!-- Node1 -->
<g id="node1" class="node"><title>Node1</title>
<polygon fill="#bfbfbf" stroke="black" points="194,-540.5 194,-707.5 364,-707.5 364,-540.5 194,-540.5"/>
<text text-anchor="middle" x="279" y="-695.5" font-family="Helvetica,sans-Serif" font-size="10.00">PermissionManager</text>
<polyline fill="none" stroke="black" points="194,-688.5 364,-688.5 "/>
<text text-anchor="start" x="202" y="-676.5" font-family="Helvetica,sans-Serif" font-size="10.00">+ PERMISSION_MODIFIER</text>
<text text-anchor="start" x="202" y="-665.5" font-family="Helvetica,sans-Serif" font-size="10.00">_ALLOW</text>
<text text-anchor="start" x="202" y="-654.5" font-family="Helvetica,sans-Serif" font-size="10.00">+ PERMISSION_MODIFIER_DENY</text>
<polyline fill="none" stroke="black" points="194,-647.5 364,-647.5 "/>
<text text-anchor="start" x="202" y="-635.5" font-family="Helvetica,sans-Serif" font-size="10.00">+ authorize()</text>
<text text-anchor="start" x="202" y="-624.5" font-family="Helvetica,sans-Serif" font-size="10.00">+ addTempPermission()</text>
<text text-anchor="start" x="202" y="-613.5" font-family="Helvetica,sans-Serif" font-size="10.00">+ removeTempPermission()</text>
<text text-anchor="start" x="202" y="-602.5" font-family="Helvetica,sans-Serif" font-size="10.00">+ hasTempPermission()</text>
<text text-anchor="start" x="202" y="-591.5" font-family="Helvetica,sans-Serif" font-size="10.00">+ clearTempPermissions()</text>
<text text-anchor="start" x="202" y="-580.5" font-family="Helvetica,sans-Serif" font-size="10.00">+ getPermissions()</text>
<text text-anchor="start" x="202" y="-569.5" font-family="Helvetica,sans-Serif" font-size="10.00">+ setPermissions()</text>
<text text-anchor="start" x="202" y="-558.5" font-family="Helvetica,sans-Serif" font-size="10.00">+ createPermission()</text>
<text text-anchor="start" x="202" y="-547.5" font-family="Helvetica,sans-Serif" font-size="10.00">+ removePermission()</text>
</g>
<!-- Node2 -->
<g id="node2" class="node"><title>Node2</title>
<g id="a_node2"><a xlink:href="classwcmf_1_1lib_1_1security_1_1impl_1_1_abstract_permission_manager.html" target="_top" xlink:title="AbstractPermissionManager is the base class for concrete PermissionManager implementations. ">
<polygon fill="white" stroke="black" points="189,-182.5 189,-503.5 369,-503.5 369,-182.5 189,-182.5"/>
<text text-anchor="middle" x="279" y="-491.5" font-family="Helvetica,sans-Serif" font-size="10.00">AbstractPermissionManager</text>
<polyline fill="none" stroke="black" points="189,-484.5 369,-484.5 "/>
<text text-anchor="start" x="197" y="-472.5" font-family="Helvetica,sans-Serif" font-size="10.00">+ RESOURCE_TYPE_ENTITY_TYPE</text>
<text text-anchor="start" x="197" y="-461.5" font-family="Helvetica,sans-Serif" font-size="10.00">+ RESOURCE_TYPE_ENTITY</text>
<text text-anchor="start" x="197" y="-450.5" font-family="Helvetica,sans-Serif" font-size="10.00">_TYPE_PROPERTY</text>
<text text-anchor="start" x="197" y="-439.5" font-family="Helvetica,sans-Serif" font-size="10.00">+ RESOURCE_TYPE_ENTITY</text>
<text text-anchor="start" x="197" y="-428.5" font-family="Helvetica,sans-Serif" font-size="10.00">_INSTANCE</text>
<text text-anchor="start" x="197" y="-417.5" font-family="Helvetica,sans-Serif" font-size="10.00">+ RESOURCE_TYPE_ENTITY</text>
<text text-anchor="start" x="197" y="-406.5" font-family="Helvetica,sans-Serif" font-size="10.00">_INSTANCE_PROPERTY</text>
<text text-anchor="start" x="197" y="-395.5" font-family="Helvetica,sans-Serif" font-size="10.00">+ RESOURCE_TYPE_OTHER</text>
<text text-anchor="start" x="197" y="-384.5" font-family="Helvetica,sans-Serif" font-size="10.00"># $persistenceFacade</text>
<text text-anchor="start" x="197" y="-373.5" font-family="Helvetica,sans-Serif" font-size="10.00"># $session</text>
<text text-anchor="start" x="197" y="-362.5" font-family="Helvetica,sans-Serif" font-size="10.00"># $dynamicRoles</text>
<text text-anchor="start" x="197" y="-351.5" font-family="Helvetica,sans-Serif" font-size="10.00"># $principalFactory</text>
<polyline fill="none" stroke="black" points="189,-344.5 369,-344.5 "/>
<text text-anchor="start" x="197" y="-332.5" font-family="Helvetica,sans-Serif" font-size="10.00">+ __construct()</text>
<text text-anchor="start" x="197" y="-321.5" font-family="Helvetica,sans-Serif" font-size="10.00">+ setPrincipalFactory()</text>
<text text-anchor="start" x="197" y="-310.5" font-family="Helvetica,sans-Serif" font-size="10.00">+ authorize()</text>
<text text-anchor="start" x="197" y="-299.5" font-family="Helvetica,sans-Serif" font-size="10.00">+ addTempPermission()</text>
<text text-anchor="start" x="197" y="-288.5" font-family="Helvetica,sans-Serif" font-size="10.00">+ removeTempPermission()</text>
<text text-anchor="start" x="197" y="-277.5" font-family="Helvetica,sans-Serif" font-size="10.00">+ hasTempPermission()</text>
<text text-anchor="start" x="197" y="-266.5" font-family="Helvetica,sans-Serif" font-size="10.00">+ clearTempPermissions()</text>
<text text-anchor="start" x="197" y="-255.5" font-family="Helvetica,sans-Serif" font-size="10.00"># authorizeAction()</text>
<text text-anchor="start" x="197" y="-244.5" font-family="Helvetica,sans-Serif" font-size="10.00"># getDefaultPolicy()</text>
<text text-anchor="start" x="197" y="-233.5" font-family="Helvetica,sans-Serif" font-size="10.00"># parseResource()</text>
<text text-anchor="start" x="197" y="-222.5" font-family="Helvetica,sans-Serif" font-size="10.00"># deserializePermissions()</text>
<text text-anchor="start" x="197" y="-211.5" font-family="Helvetica,sans-Serif" font-size="10.00"># serializePermissions()</text>
<text text-anchor="start" x="197" y="-200.5" font-family="Helvetica,sans-Serif" font-size="10.00"># matchRoles()</text>
<text text-anchor="start" x="197" y="-189.5" font-family="Helvetica,sans-Serif" font-size="10.00"># matchRole()</text>
</a>
</g>
</g>
<!-- Node1&#45;&gt;Node2 -->
<g id="edge1" class="edge"><title>Node1&#45;&gt;Node2</title>
<path fill="none" stroke="midnightblue" d="M279,-530.382C279,-521.713 279,-512.771 279,-503.712"/>
<polygon fill="none" stroke="midnightblue" points="275.5,-530.423 279,-540.423 282.5,-530.423 275.5,-530.423"/>
</g>
<!-- Node3 -->
<g id="node3" class="node"><title>Node3</title>
<g id="a_node3"><a xlink:href="classwcmf_1_1lib_1_1security_1_1impl_1_1_chained_permission_manager.html" target="_top" xlink:title="ChainedPermissionManager retrieves authorization rules included managers. ">
<polygon fill="white" stroke="black" points="0,-22.5 0,-123.5 138,-123.5 138,-22.5 0,-22.5"/>
<text text-anchor="middle" x="69" y="-111.5" font-family="Helvetica,sans-Serif" font-size="10.00">ChainedPermissionManager</text>
<polyline fill="none" stroke="black" points="0,-104.5 138,-104.5 "/>
<text text-anchor="middle" x="69" y="-92.5" font-family="Helvetica,sans-Serif" font-size="10.00"> </text>
<polyline fill="none" stroke="black" points="0,-85.5 138,-85.5 "/>
<text text-anchor="start" x="8" y="-73.5" font-family="Helvetica,sans-Serif" font-size="10.00">+ setManagers()</text>
<text text-anchor="start" x="8" y="-62.5" font-family="Helvetica,sans-Serif" font-size="10.00">+ getPermissions()</text>
<text text-anchor="start" x="8" y="-51.5" font-family="Helvetica,sans-Serif" font-size="10.00">+ setPermissions()</text>
<text text-anchor="start" x="8" y="-40.5" font-family="Helvetica,sans-Serif" font-size="10.00">+ createPermission()</text>
<text text-anchor="start" x="8" y="-29.5" font-family="Helvetica,sans-Serif" font-size="10.00">+ removePermission()</text>
</a>
</g>
</g>
<!-- Node1&#45;&gt;Node3 -->
<g id="edge6" class="edge"><title>Node1&#45;&gt;Node3</title>
<path fill="none" stroke="midnightblue" d="M186.44,-554.31C171.266,-539.262 157.195,-522.299 147,-504 77.857,-379.892 68.1317,-207.285 67.8948,-123.527"/>
<polygon fill="none" stroke="midnightblue" points="184.33,-557.136 193.966,-561.54 189.18,-552.088 184.33,-557.136"/>
</g>
<!-- Node4 -->
<g id="node4" class="node"><title>Node4</title>
<g id="a_node4"><a xlink:href="classwcmf_1_1lib_1_1security_1_1impl_1_1_default_permission_manager.html" target="_top" xlink:title="DefaultPermissionManager retrieves authorization rules the storage. ">
<polygon fill="white" stroke="black" points="156.5,-0.5 156.5,-145.5 291.5,-145.5 291.5,-0.5 156.5,-0.5"/>
<text text-anchor="middle" x="224" y="-133.5" font-family="Helvetica,sans-Serif" font-size="10.00">DefaultPermissionManager</text>
<polyline fill="none" stroke="black" points="156.5,-126.5 291.5,-126.5 "/>
<text text-anchor="middle" x="224" y="-114.5" font-family="Helvetica,sans-Serif" font-size="10.00"> </text>
<polyline fill="none" stroke="black" points="156.5,-107.5 291.5,-107.5 "/>
<text text-anchor="start" x="164.5" y="-95.5" font-family="Helvetica,sans-Serif" font-size="10.00">+ __construct()</text>
<text text-anchor="start" x="164.5" y="-84.5" font-family="Helvetica,sans-Serif" font-size="10.00">+ setPermissionType()</text>
<text text-anchor="start" x="164.5" y="-73.5" font-family="Helvetica,sans-Serif" font-size="10.00">+ getPermissions()</text>
<text text-anchor="start" x="164.5" y="-62.5" font-family="Helvetica,sans-Serif" font-size="10.00">+ setPermissions()</text>
<text text-anchor="start" x="164.5" y="-51.5" font-family="Helvetica,sans-Serif" font-size="10.00">+ createPermission()</text>
<text text-anchor="start" x="164.5" y="-40.5" font-family="Helvetica,sans-Serif" font-size="10.00">+ removePermission()</text>
<text text-anchor="start" x="164.5" y="-29.5" font-family="Helvetica,sans-Serif" font-size="10.00"># modifyPermission()</text>
<text text-anchor="start" x="164.5" y="-18.5" font-family="Helvetica,sans-Serif" font-size="10.00"># getPermissionInstance()</text>
<text text-anchor="start" x="164.5" y="-7.5" font-family="Helvetica,sans-Serif" font-size="10.00"># createPermissionObject()</text>
</a>
</g>
</g>
<!-- Node1&#45;&gt;Node4 -->
<g id="edge7" class="edge"><title>Node1&#45;&gt;Node4</title>
<path fill="none" stroke="midnightblue" d="M193.405,-531.903C188.069,-522.924 183.463,-513.576 180,-504 131.337,-369.417 152.489,-322.442 180,-182 182.355,-169.979 186.054,-157.609 190.331,-145.724"/>
<polygon fill="none" stroke="midnightblue" points="190.451,-533.781 198.73,-540.392 196.381,-530.061 190.451,-533.781"/>
</g>
<!-- Node5 -->
<g id="node5" class="node"><title>Node5</title>
<g id="a_node5"><a xlink:href="classwcmf_1_1lib_1_1security_1_1impl_1_1_null_permission_manager.html" target="_top" xlink:title="NullPermissionManager acts like an absent PermissionManager. ">
<polygon fill="white" stroke="black" points="309.5,-22.5 309.5,-123.5 428.5,-123.5 428.5,-22.5 309.5,-22.5"/>
<text text-anchor="middle" x="369" y="-111.5" font-family="Helvetica,sans-Serif" font-size="10.00">NullPermissionManager</text>
<polyline fill="none" stroke="black" points="309.5,-104.5 428.5,-104.5 "/>
<text text-anchor="middle" x="369" y="-92.5" font-family="Helvetica,sans-Serif" font-size="10.00"> </text>
<polyline fill="none" stroke="black" points="309.5,-85.5 428.5,-85.5 "/>
<text text-anchor="start" x="317.5" y="-73.5" font-family="Helvetica,sans-Serif" font-size="10.00">+ authorize()</text>
<text text-anchor="start" x="317.5" y="-62.5" font-family="Helvetica,sans-Serif" font-size="10.00">+ getPermissions()</text>
<text text-anchor="start" x="317.5" y="-51.5" font-family="Helvetica,sans-Serif" font-size="10.00">+ setPermissions()</text>
<text text-anchor="start" x="317.5" y="-40.5" font-family="Helvetica,sans-Serif" font-size="10.00">+ createPermission()</text>
<text text-anchor="start" x="317.5" y="-29.5" font-family="Helvetica,sans-Serif" font-size="10.00">+ removePermission()</text>
</a>
</g>
</g>
<!-- Node1&#45;&gt;Node5 -->
<g id="edge8" class="edge"><title>Node1&#45;&gt;Node5</title>
<path fill="none" stroke="midnightblue" d="M364.595,-531.903C369.931,-522.924 374.537,-513.576 378,-504 425.226,-373.391 399.076,-205.579 381.244,-123.573"/>
<polygon fill="none" stroke="midnightblue" points="361.619,-530.061 359.27,-540.392 367.549,-533.781 361.619,-530.061"/>
</g>
<!-- Node6 -->
<g id="node6" class="node"><title>Node6</title>
<g id="a_node6"><a xlink:href="classwcmf_1_1lib_1_1security_1_1impl_1_1_static_permission_manager.html" target="_top" xlink:title="StaticPermissionManager retrieves authorization rules from the application configuration. ">
<polygon fill="white" stroke="black" points="446.5,-11.5 446.5,-134.5 595.5,-134.5 595.5,-11.5 446.5,-11.5"/>
<text text-anchor="middle" x="521" y="-122.5" font-family="Helvetica,sans-Serif" font-size="10.00">StaticPermissionManager</text>
<polyline fill="none" stroke="black" points="446.5,-115.5 595.5,-115.5 "/>
<text text-anchor="start" x="454.5" y="-103.5" font-family="Helvetica,sans-Serif" font-size="10.00">+ AUTHORIZATION_SECTION</text>
<polyline fill="none" stroke="black" points="446.5,-96.5 595.5,-96.5 "/>
<text text-anchor="start" x="454.5" y="-84.5" font-family="Helvetica,sans-Serif" font-size="10.00">+ __construct()</text>
<text text-anchor="start" x="454.5" y="-73.5" font-family="Helvetica,sans-Serif" font-size="10.00">+ getPermissions()</text>
<text text-anchor="start" x="454.5" y="-62.5" font-family="Helvetica,sans-Serif" font-size="10.00">+ setPermissions()</text>
<text text-anchor="start" x="454.5" y="-51.5" font-family="Helvetica,sans-Serif" font-size="10.00">+ createPermission()</text>
<text text-anchor="start" x="454.5" y="-40.5" font-family="Helvetica,sans-Serif" font-size="10.00">+ removePermission()</text>
<text text-anchor="start" x="454.5" y="-29.5" font-family="Helvetica,sans-Serif" font-size="10.00"># modifyPermission()</text>
<text text-anchor="start" x="454.5" y="-18.5" font-family="Helvetica,sans-Serif" font-size="10.00"># getConfigurationInstance()</text>
</a>
</g>
</g>
<!-- Node1&#45;&gt;Node6 -->
<g id="edge9" class="edge"><title>Node1&#45;&gt;Node6</title>
<path fill="none" stroke="midnightblue" d="M371.48,-548.405C384.462,-534.722 396.569,-519.748 406,-504 477.172,-385.165 505.057,-221.928 515.38,-134.73"/>
<polygon fill="none" stroke="midnightblue" points="368.673,-546.27 364.19,-555.87 373.681,-551.161 368.673,-546.27"/>
</g>
<!-- Node2&#45;&gt;Node3 -->
<g id="edge2" class="edge"><title>Node2&#45;&gt;Node3</title>
<path fill="none" stroke="midnightblue" d="M182.415,-218.739C156.118,-185.179 129.112,-150.715 108.053,-123.839"/>
<polygon fill="none" stroke="midnightblue" points="179.8,-221.076 188.722,-226.789 185.309,-216.758 179.8,-221.076"/>
</g>
<!-- Node2&#45;&gt;Node4 -->
<g id="edge3" class="edge"><title>Node2&#45;&gt;Node4</title>
<path fill="none" stroke="midnightblue" d="M244.156,-172.216C242.278,-163.063 240.449,-154.15 238.708,-145.666"/>
<polygon fill="none" stroke="midnightblue" points="240.773,-173.141 246.212,-182.233 247.63,-171.734 240.773,-173.141"/>
</g>
<!-- Node2&#45;&gt;Node5 -->
<g id="edge4" class="edge"><title>Node2&#45;&gt;Node5</title>
<path fill="none" stroke="midnightblue" d="M335.963,-172.376C341.872,-154.782 347.484,-138.071 352.35,-123.581"/>
<polygon fill="none" stroke="midnightblue" points="332.519,-171.639 332.653,-182.233 339.154,-173.868 332.519,-171.639"/>
</g>
<!-- Node2&#45;&gt;Node6 -->
<g id="edge5" class="edge"><title>Node2&#45;&gt;Node6</title>
<path fill="none" stroke="midnightblue" d="M376.044,-234.53C406.776,-200.496 439.655,-164.084 466.318,-134.557"/>
<polygon fill="none" stroke="midnightblue" points="373.216,-232.439 369.112,-242.207 378.411,-237.13 373.216,-232.439"/>
</g>
</g>
</svg>
