<?xml version="1.0" encoding="UTF-8" standalone="no"?>
<!DOCTYPE svg PUBLIC "-//W3C//DTD SVG 1.1//EN"
 "http://www.w3.org/Graphics/SVG/1.1/DTD/svg11.dtd">
<!-- Generated by graphviz version 2.38.0 (20140413.2041)
 -->
<!-- Title: Search Pages: 1 -->
<svg width="113pt" height="441pt"
 viewBox="0.00 0.00 113.00 441.00" xmlns="http://www.w3.org/2000/svg" xmlns:xlink="http://www.w3.org/1999/xlink">
<g id="graph0" class="graph" transform="scale(1 1) rotate(0) translate(4 437)">
<title>Search</title>
<polygon fill="white" stroke="none" points="-4,4 -4,-437 109,-437 109,4 -4,4"/>
<!-- Node1 -->
<g id="node1" class="node"><title>Node1</title>
<polygon fill="#bfbfbf" stroke="black" points="8.5,-353.5 8.5,-432.5 96.5,-432.5 96.5,-353.5 8.5,-353.5"/>
<text text-anchor="middle" x="52.5" y="-420.5" font-family="Helvetica,sans-Serif" font-size="10.00">Search</text>
<polyline fill="none" stroke="black" points="8.5,-413.5 96.5,-413.5 "/>
<text text-anchor="middle" x="52.5" y="-401.5" font-family="Helvetica,sans-Serif" font-size="10.00"> </text>
<polyline fill="none" stroke="black" points="8.5,-394.5 96.5,-394.5 "/>
<text text-anchor="start" x="16.5" y="-382.5" font-family="Helvetica,sans-Serif" font-size="10.00">+ check()</text>
<text text-anchor="start" x="16.5" y="-371.5" font-family="Helvetica,sans-Serif" font-size="10.00">+ find()</text>
<text text-anchor="start" x="16.5" y="-360.5" font-family="Helvetica,sans-Serif" font-size="10.00">+ isSearchable()</text>
</g>
<!-- Node2 -->
<g id="node2" class="node"><title>Node2</title>
<g id="a_node2"><a xlink:href="interfacewcmf_1_1lib_1_1search_1_1_indexed_search.html" target="_top" xlink:title="IndexedSearch implementations are used to search entity objects in a search index. ">
<polygon fill="white" stroke="black" points="0.5,-215.5 0.5,-316.5 104.5,-316.5 104.5,-215.5 0.5,-215.5"/>
<text text-anchor="middle" x="52.5" y="-304.5" font-family="Helvetica,sans-Serif" font-size="10.00">IndexedSearch</text>
<polyline fill="none" stroke="black" points="0.5,-297.5 104.5,-297.5 "/>
<text text-anchor="middle" x="52.5" y="-285.5" font-family="Helvetica,sans-Serif" font-size="10.00"> </text>
<polyline fill="none" stroke="black" points="0.5,-278.5 104.5,-278.5 "/>
<text text-anchor="start" x="8.5" y="-266.5" font-family="Helvetica,sans-Serif" font-size="10.00">+ resetIndex()</text>
<text text-anchor="start" x="8.5" y="-255.5" font-family="Helvetica,sans-Serif" font-size="10.00">+ addToIndex()</text>
<text text-anchor="start" x="8.5" y="-244.5" font-family="Helvetica,sans-Serif" font-size="10.00">+ deleteFromIndex()</text>
<text text-anchor="start" x="8.5" y="-233.5" font-family="Helvetica,sans-Serif" font-size="10.00">+ commitIndex()</text>
<text text-anchor="start" x="8.5" y="-222.5" font-family="Helvetica,sans-Serif" font-size="10.00">+ optimizeIndex()</text>
</a>
</g>
</g>
<!-- Node1&#45;&gt;Node2 -->
<g id="edge1" class="edge"><title>Node1&#45;&gt;Node2</title>
<path fill="none" stroke="midnightblue" d="M52.5,-343.406C52.5,-334.639 52.5,-325.488 52.5,-316.691"/>
<polygon fill="none" stroke="midnightblue" points="49.0001,-343.476 52.5,-353.476 56.0001,-343.476 49.0001,-343.476"/>
</g>
<!-- Node3 -->
<g id="node3" class="node"><title>Node3</title>
<g id="a_node3"><a xlink:href="classwcmf_1_1lib_1_1search_1_1impl_1_1_lucene_search.html" target="_top" xlink:title="LuceneSearch provides access to the search based on ZendSearch/Lucene. ">
<polygon fill="white" stroke="black" points="0,-0.5 0,-178.5 105,-178.5 105,-0.5 0,-0.5"/>
<text text-anchor="middle" x="52.5" y="-166.5" font-family="Helvetica,sans-Serif" font-size="10.00">LuceneSearch</text>
<polyline fill="none" stroke="black" points="0,-159.5 105,-159.5 "/>
<text text-anchor="middle" x="52.5" y="-147.5" font-family="Helvetica,sans-Serif" font-size="10.00"> </text>
<polyline fill="none" stroke="black" points="0,-140.5 105,-140.5 "/>
<text text-anchor="start" x="8" y="-128.5" font-family="Helvetica,sans-Serif" font-size="10.00">+ __construct()</text>
<text text-anchor="start" x="8" y="-117.5" font-family="Helvetica,sans-Serif" font-size="10.00">+ __destruct()</text>
<text text-anchor="start" x="8" y="-106.5" font-family="Helvetica,sans-Serif" font-size="10.00">+ setIndexStrategy()</text>
<text text-anchor="start" x="8" y="-95.5" font-family="Helvetica,sans-Serif" font-size="10.00">+ setIndexPath()</text>
<text text-anchor="start" x="8" y="-84.5" font-family="Helvetica,sans-Serif" font-size="10.00">+ getIndexPath()</text>
<text text-anchor="start" x="8" y="-73.5" font-family="Helvetica,sans-Serif" font-size="10.00">+ setLiveUpdate()</text>
<text text-anchor="start" x="8" y="-62.5" font-family="Helvetica,sans-Serif" font-size="10.00">+ getLiveUpdate()</text>
<text text-anchor="start" x="8" y="-51.5" font-family="Helvetica,sans-Serif" font-size="10.00">+ check()</text>
<text text-anchor="start" x="8" y="-40.5" font-family="Helvetica,sans-Serif" font-size="10.00">+ find()</text>
<text text-anchor="start" x="8" y="-29.5" font-family="Helvetica,sans-Serif" font-size="10.00">+ isSearchable()</text>
<text text-anchor="start" x="8" y="-18.5" font-family="Helvetica,sans-Serif" font-size="10.00">and 6 more...</text>
<text text-anchor="start" x="8" y="-7.5" font-family="Helvetica,sans-Serif" font-size="10.00"># getStopWords()</text>
</a>
</g>
</g>
<!-- Node2&#45;&gt;Node3 -->
<g id="edge2" class="edge"><title>Node2&#45;&gt;Node3</title>
<path fill="none" stroke="midnightblue" d="M52.5,-205.256C52.5,-196.708 52.5,-187.767 52.5,-178.812"/>
<polygon fill="none" stroke="midnightblue" points="49.0001,-205.462 52.5,-215.462 56.0001,-205.462 49.0001,-205.462"/>
</g>
</g>
</svg>
