<?xml version="1.0" encoding="UTF-8" standalone="no"?>
<!DOCTYPE svg PUBLIC "-//W3C//DTD SVG 1.1//EN"
 "http://www.w3.org/Graphics/SVG/1.1/DTD/svg11.dtd">
<!-- Generated by graphviz version 2.38.0 (20140413.2041)
 -->
<!-- Title: PermissionManager Pages: 1 -->
<svg width="604pt" height="380pt"
 viewBox="0.00 0.00 603.50 380.00" xmlns="http://www.w3.org/2000/svg" xmlns:xlink="http://www.w3.org/1999/xlink">
<g id="graph0" class="graph" transform="scale(1 1) rotate(0) translate(4 376)">
<title>PermissionManager</title>
<polygon fill="white" stroke="none" points="-4,4 -4,-376 599.5,-376 599.5,4 -4,4"/>
<!-- Node1 -->
<g id="node1" class="node"><title>Node1</title>
<polygon fill="#bfbfbf" stroke="black" points="211,-182.5 211,-371.5 381,-371.5 381,-182.5 211,-182.5"/>
<text text-anchor="middle" x="296" y="-359.5" font-family="Helvetica,sans-Serif" font-size="10.00">PermissionManager</text>
<polyline fill="none" stroke="black" points="211,-352.5 381,-352.5 "/>
<text text-anchor="start" x="219" y="-340.5" font-family="Helvetica,sans-Serif" font-size="10.00">+ PERMISSION_MODIFIER</text>
<text text-anchor="start" x="219" y="-329.5" font-family="Helvetica,sans-Serif" font-size="10.00">_ALLOW</text>
<text text-anchor="start" x="219" y="-318.5" font-family="Helvetica,sans-Serif" font-size="10.00">+ PERMISSION_MODIFIER_DENY</text>
<polyline fill="none" stroke="black" points="211,-311.5 381,-311.5 "/>
<text text-anchor="start" x="219" y="-299.5" font-family="Helvetica,sans-Serif" font-size="10.00">+ setAuthUser()</text>
<text text-anchor="start" x="219" y="-288.5" font-family="Helvetica,sans-Serif" font-size="10.00">+ getAuthUser()</text>
<text text-anchor="start" x="219" y="-277.5" font-family="Helvetica,sans-Serif" font-size="10.00">+ authorize()</text>
<text text-anchor="start" x="219" y="-266.5" font-family="Helvetica,sans-Serif" font-size="10.00">+ addTempPermission()</text>
<text text-anchor="start" x="219" y="-255.5" font-family="Helvetica,sans-Serif" font-size="10.00">+ removeTempPermission()</text>
<text text-anchor="start" x="219" y="-244.5" font-family="Helvetica,sans-Serif" font-size="10.00">+ hasTempPermission()</text>
<text text-anchor="start" x="219" y="-233.5" font-family="Helvetica,sans-Serif" font-size="10.00">+ clearTempPermissions()</text>
<text text-anchor="start" x="219" y="-222.5" font-family="Helvetica,sans-Serif" font-size="10.00">+ getPermissions()</text>
<text text-anchor="start" x="219" y="-211.5" font-family="Helvetica,sans-Serif" font-size="10.00">+ setPermissions()</text>
<text text-anchor="start" x="219" y="-200.5" font-family="Helvetica,sans-Serif" font-size="10.00">+ createPermission()</text>
<text text-anchor="start" x="219" y="-189.5" font-family="Helvetica,sans-Serif" font-size="10.00">+ removePermission()</text>
</g>
<!-- Node2 -->
<g id="node2" class="node"><title>Node2</title>
<g id="a_node2"><a xlink:href="classwcmf_1_1lib_1_1security_1_1impl_1_1_chained_permission_manager.html" target="_top" xlink:title="ChainedPermissionManager retrieves authorization rules included managers. ">
<polygon fill="white" stroke="black" points="0,-22.5 0,-123.5 138,-123.5 138,-22.5 0,-22.5"/>
<text text-anchor="middle" x="69" y="-111.5" font-family="Helvetica,sans-Serif" font-size="10.00">ChainedPermissionManager</text>
<polyline fill="none" stroke="black" points="0,-104.5 138,-104.5 "/>
<text text-anchor="middle" x="69" y="-92.5" font-family="Helvetica,sans-Serif" font-size="10.00"> </text>
<polyline fill="none" stroke="black" points="0,-85.5 138,-85.5 "/>
<text text-anchor="start" x="8" y="-73.5" font-family="Helvetica,sans-Serif" font-size="10.00">+ setManagers()</text>
<text text-anchor="start" x="8" y="-62.5" font-family="Helvetica,sans-Serif" font-size="10.00">+ getPermissions()</text>
<text text-anchor="start" x="8" y="-51.5" font-family="Helvetica,sans-Serif" font-size="10.00">+ setPermissions()</text>
<text text-anchor="start" x="8" y="-40.5" font-family="Helvetica,sans-Serif" font-size="10.00">+ createPermission()</text>
<text text-anchor="start" x="8" y="-29.5" font-family="Helvetica,sans-Serif" font-size="10.00">+ removePermission()</text>
</a>
</g>
</g>
<!-- Node1&#45;&gt;Node2 -->
<g id="edge1" class="edge"><title>Node1&#45;&gt;Node2</title>
<path fill="none" stroke="midnightblue" d="M203,-195.567C184.37,-179.256 164.996,-162.151 147,-146 139.045,-138.861 130.691,-131.261 122.527,-123.775"/>
<polygon fill="none" stroke="midnightblue" points="201.1,-198.556 210.932,-202.504 205.708,-193.286 201.1,-198.556"/>
</g>
<!-- Node3 -->
<g id="node3" class="node"><title>Node3</title>
<g id="a_node3"><a xlink:href="classwcmf_1_1lib_1_1security_1_1impl_1_1_default_permission_manager.html" target="_top" xlink:title="DefaultPermissionManager retrieves authorization rules the storage. ">
<polygon fill="white" stroke="black" points="156.5,-0.5 156.5,-145.5 291.5,-145.5 291.5,-0.5 156.5,-0.5"/>
<text text-anchor="middle" x="224" y="-133.5" font-family="Helvetica,sans-Serif" font-size="10.00">DefaultPermissionManager</text>
<polyline fill="none" stroke="black" points="156.5,-126.5 291.5,-126.5 "/>
<text text-anchor="middle" x="224" y="-114.5" font-family="Helvetica,sans-Serif" font-size="10.00"> </text>
<polyline fill="none" stroke="black" points="156.5,-107.5 291.5,-107.5 "/>
<text text-anchor="start" x="164.5" y="-95.5" font-family="Helvetica,sans-Serif" font-size="10.00">+ __construct()</text>
<text text-anchor="start" x="164.5" y="-84.5" font-family="Helvetica,sans-Serif" font-size="10.00">+ setPermissionType()</text>
<text text-anchor="start" x="164.5" y="-73.5" font-family="Helvetica,sans-Serif" font-size="10.00">+ getPermissions()</text>
<text text-anchor="start" x="164.5" y="-62.5" font-family="Helvetica,sans-Serif" font-size="10.00">+ setPermissions()</text>
<text text-anchor="start" x="164.5" y="-51.5" font-family="Helvetica,sans-Serif" font-size="10.00">+ createPermission()</text>
<text text-anchor="start" x="164.5" y="-40.5" font-family="Helvetica,sans-Serif" font-size="10.00">+ removePermission()</text>
<text text-anchor="start" x="164.5" y="-29.5" font-family="Helvetica,sans-Serif" font-size="10.00"># modifyPermission()</text>
<text text-anchor="start" x="164.5" y="-18.5" font-family="Helvetica,sans-Serif" font-size="10.00"># getPermissionInstance()</text>
<text text-anchor="start" x="164.5" y="-7.5" font-family="Helvetica,sans-Serif" font-size="10.00"># createPermissionObject()</text>
</a>
</g>
</g>
<!-- Node1&#45;&gt;Node3 -->
<g id="edge2" class="edge"><title>Node1&#45;&gt;Node3</title>
<path fill="none" stroke="midnightblue" d="M259.215,-172.796C255.931,-163.585 252.657,-154.398 249.5,-145.542"/>
<polygon fill="none" stroke="midnightblue" points="255.98,-174.147 262.635,-182.392 262.574,-171.797 255.98,-174.147"/>
</g>
<!-- Node4 -->
<g id="node4" class="node"><title>Node4</title>
<g id="a_node4"><a xlink:href="classwcmf_1_1lib_1_1security_1_1impl_1_1_null_permission_manager.html" target="_top" xlink:title="NullPermissionManager acts like an absent PermissionManager. ">
<polygon fill="white" stroke="black" points="309.5,-28 309.5,-118 428.5,-118 428.5,-28 309.5,-28"/>
<text text-anchor="middle" x="369" y="-106" font-family="Helvetica,sans-Serif" font-size="10.00">NullPermissionManager</text>
<polyline fill="none" stroke="black" points="309.5,-99 428.5,-99 "/>
<text text-anchor="middle" x="369" y="-87" font-family="Helvetica,sans-Serif" font-size="10.00"> </text>
<polyline fill="none" stroke="black" points="309.5,-80 428.5,-80 "/>
<text text-anchor="start" x="317.5" y="-68" font-family="Helvetica,sans-Serif" font-size="10.00">+ getPermissions()</text>
<text text-anchor="start" x="317.5" y="-57" font-family="Helvetica,sans-Serif" font-size="10.00">+ setPermissions()</text>
<text text-anchor="start" x="317.5" y="-46" font-family="Helvetica,sans-Serif" font-size="10.00">+ createPermission()</text>
<text text-anchor="start" x="317.5" y="-35" font-family="Helvetica,sans-Serif" font-size="10.00">+ removePermission()</text>
</a>
</g>
</g>
<!-- Node1&#45;&gt;Node4 -->
<g id="edge3" class="edge"><title>Node1&#45;&gt;Node4</title>
<path fill="none" stroke="midnightblue" d="M333.249,-172.927C340.22,-153.639 347.153,-134.452 353.034,-118.181"/>
<polygon fill="none" stroke="midnightblue" points="329.936,-171.797 329.829,-182.392 336.519,-174.176 329.936,-171.797"/>
</g>
<!-- Node5 -->
<g id="node5" class="node"><title>Node5</title>
<g id="a_node5"><a xlink:href="classwcmf_1_1lib_1_1security_1_1impl_1_1_static_permission_manager.html" target="_top" xlink:title="StaticPermissionManager retrieves authorization rules from the application configuration. ">
<polygon fill="white" stroke="black" points="446.5,-11.5 446.5,-134.5 595.5,-134.5 595.5,-11.5 446.5,-11.5"/>
<text text-anchor="middle" x="521" y="-122.5" font-family="Helvetica,sans-Serif" font-size="10.00">StaticPermissionManager</text>
<polyline fill="none" stroke="black" points="446.5,-115.5 595.5,-115.5 "/>
<text text-anchor="start" x="454.5" y="-103.5" font-family="Helvetica,sans-Serif" font-size="10.00">+ AUTHORIZATION_SECTION</text>
<polyline fill="none" stroke="black" points="446.5,-96.5 595.5,-96.5 "/>
<text text-anchor="start" x="454.5" y="-84.5" font-family="Helvetica,sans-Serif" font-size="10.00">+ __construct()</text>
<text text-anchor="start" x="454.5" y="-73.5" font-family="Helvetica,sans-Serif" font-size="10.00">+ getPermissions()</text>
<text text-anchor="start" x="454.5" y="-62.5" font-family="Helvetica,sans-Serif" font-size="10.00">+ setPermissions()</text>
<text text-anchor="start" x="454.5" y="-51.5" font-family="Helvetica,sans-Serif" font-size="10.00">+ createPermission()</text>
<text text-anchor="start" x="454.5" y="-40.5" font-family="Helvetica,sans-Serif" font-size="10.00">+ removePermission()</text>
<text text-anchor="start" x="454.5" y="-29.5" font-family="Helvetica,sans-Serif" font-size="10.00"># modifyPermission()</text>
<text text-anchor="start" x="454.5" y="-18.5" font-family="Helvetica,sans-Serif" font-size="10.00"># getConfigurationInstance()</text>
</a>
</g>
</g>
<!-- Node1&#45;&gt;Node5 -->
<g id="edge4" class="edge"><title>Node1&#45;&gt;Node5</title>
<path fill="none" stroke="midnightblue" d="M388.676,-192.797C410.335,-173.353 433.006,-152.999 453.34,-134.744"/>
<polygon fill="none" stroke="midnightblue" points="386.166,-190.348 381.063,-199.632 390.842,-195.556 386.166,-190.348"/>
</g>
</g>
</svg>
