<?xml version="1.0" encoding="UTF-8" standalone="no"?>
<!DOCTYPE svg PUBLIC "-//W3C//DTD SVG 1.1//EN"
 "http://www.w3.org/Graphics/SVG/1.1/DTD/svg11.dtd">
<!-- Generated by graphviz version 2.38.0 (20140413.2041)
 -->
<!-- Title: Cache Pages: 1 -->
<svg width="186pt" height="292pt"
 viewBox="0.00 0.00 185.50 292.00" xmlns="http://www.w3.org/2000/svg" xmlns:xlink="http://www.w3.org/1999/xlink">
<g id="graph0" class="graph" transform="scale(1 1) rotate(0) translate(4 288)">
<title>Cache</title>
<polygon fill="white" stroke="none" points="-4,4 -4,-288 181.5,-288 181.5,4 -4,4"/>
<!-- Node1 -->
<g id="node1" class="node"><title>Node1</title>
<polygon fill="#bfbfbf" stroke="black" points="64.5,-182.5 64.5,-283.5 128.5,-283.5 128.5,-182.5 64.5,-182.5"/>
<text text-anchor="middle" x="96.5" y="-271.5" font-family="Helvetica,sans-Serif" font-size="10.00">Cache</text>
<polyline fill="none" stroke="black" points="64.5,-264.5 128.5,-264.5 "/>
<text text-anchor="middle" x="96.5" y="-252.5" font-family="Helvetica,sans-Serif" font-size="10.00"> </text>
<polyline fill="none" stroke="black" points="64.5,-245.5 128.5,-245.5 "/>
<text text-anchor="start" x="72.5" y="-233.5" font-family="Helvetica,sans-Serif" font-size="10.00">+ exists()</text>
<text text-anchor="start" x="72.5" y="-222.5" font-family="Helvetica,sans-Serif" font-size="10.00">+ get()</text>
<text text-anchor="start" x="72.5" y="-211.5" font-family="Helvetica,sans-Serif" font-size="10.00">+ put()</text>
<text text-anchor="start" x="72.5" y="-200.5" font-family="Helvetica,sans-Serif" font-size="10.00">+ clear()</text>
<text text-anchor="start" x="72.5" y="-189.5" font-family="Helvetica,sans-Serif" font-size="10.00">+ clearAll()</text>
</g>
<!-- Node2 -->
<g id="node2" class="node"><title>Node2</title>
<g id="a_node2"><a xlink:href="classwcmf_1_1lib_1_1io_1_1impl_1_1_file_cache.html" target="_top" xlink:title="FileCache provides simple caching functionality. ">
<polygon fill="white" stroke="black" points="0,-0.5 0,-145.5 95,-145.5 95,-0.5 0,-0.5"/>
<text text-anchor="middle" x="47.5" y="-133.5" font-family="Helvetica,sans-Serif" font-size="10.00">FileCache</text>
<polyline fill="none" stroke="black" points="0,-126.5 95,-126.5 "/>
<text text-anchor="middle" x="47.5" y="-114.5" font-family="Helvetica,sans-Serif" font-size="10.00"> </text>
<polyline fill="none" stroke="black" points="0,-107.5 95,-107.5 "/>
<text text-anchor="start" x="8" y="-95.5" font-family="Helvetica,sans-Serif" font-size="10.00">+ __construct()</text>
<text text-anchor="start" x="8" y="-84.5" font-family="Helvetica,sans-Serif" font-size="10.00">+ __destruct()</text>
<text text-anchor="start" x="8" y="-73.5" font-family="Helvetica,sans-Serif" font-size="10.00">+ setCacheDir()</text>
<text text-anchor="start" x="8" y="-62.5" font-family="Helvetica,sans-Serif" font-size="10.00">+ exists()</text>
<text text-anchor="start" x="8" y="-51.5" font-family="Helvetica,sans-Serif" font-size="10.00">+ get()</text>
<text text-anchor="start" x="8" y="-40.5" font-family="Helvetica,sans-Serif" font-size="10.00">+ put()</text>
<text text-anchor="start" x="8" y="-29.5" font-family="Helvetica,sans-Serif" font-size="10.00">+ clear()</text>
<text text-anchor="start" x="8" y="-18.5" font-family="Helvetica,sans-Serif" font-size="10.00">+ clearAll()</text>
<text text-anchor="start" x="8" y="-7.5" font-family="Helvetica,sans-Serif" font-size="10.00">+ configChanged()</text>
</a>
</g>
</g>
<!-- Node1&#45;&gt;Node2 -->
<g id="edge1" class="edge"><title>Node1&#45;&gt;Node2</title>
<path fill="none" stroke="midnightblue" d="M78.0988,-172.665C75.3658,-163.853 72.5248,-154.692 69.7237,-145.66"/>
<polygon fill="none" stroke="midnightblue" points="74.8254,-173.927 81.1305,-182.441 81.5113,-171.853 74.8254,-173.927"/>
</g>
<!-- Node3 -->
<g id="node3" class="node"><title>Node3</title>
<g id="a_node3"><a xlink:href="classwcmf_1_1lib_1_1io_1_1impl_1_1_null_cache.html" target="_top" xlink:title="NullCache acts as no cache. ">
<polygon fill="white" stroke="black" points="113.5,-22.5 113.5,-123.5 177.5,-123.5 177.5,-22.5 113.5,-22.5"/>
<text text-anchor="middle" x="145.5" y="-111.5" font-family="Helvetica,sans-Serif" font-size="10.00">NullCache</text>
<polyline fill="none" stroke="black" points="113.5,-104.5 177.5,-104.5 "/>
<text text-anchor="middle" x="145.5" y="-92.5" font-family="Helvetica,sans-Serif" font-size="10.00"> </text>
<polyline fill="none" stroke="black" points="113.5,-85.5 177.5,-85.5 "/>
<text text-anchor="start" x="121.5" y="-73.5" font-family="Helvetica,sans-Serif" font-size="10.00">+ exists()</text>
<text text-anchor="start" x="121.5" y="-62.5" font-family="Helvetica,sans-Serif" font-size="10.00">+ get()</text>
<text text-anchor="start" x="121.5" y="-51.5" font-family="Helvetica,sans-Serif" font-size="10.00">+ put()</text>
<text text-anchor="start" x="121.5" y="-40.5" font-family="Helvetica,sans-Serif" font-size="10.00">+ clear()</text>
<text text-anchor="start" x="121.5" y="-29.5" font-family="Helvetica,sans-Serif" font-size="10.00">+ clearAll()</text>
</a>
</g>
</g>
<!-- Node1&#45;&gt;Node3 -->
<g id="edge2" class="edge"><title>Node1&#45;&gt;Node3</title>
<path fill="none" stroke="midnightblue" d="M114.928,-172.58C119.928,-156.458 125.287,-139.175 130.101,-123.654"/>
<polygon fill="none" stroke="midnightblue" points="111.489,-171.853 111.869,-182.441 118.175,-173.927 111.489,-171.853"/>
</g>
</g>
</svg>
