<?xml version="1.0" encoding="UTF-8" standalone="no"?>
<!DOCTYPE svg PUBLIC "-//W3C//DTD SVG 1.1//EN"
 "http://www.w3.org/Graphics/SVG/1.1/DTD/svg11.dtd">
<!-- Generated by graphviz version 2.38.0 (20140413.2041)
 -->
<!-- Title: View Pages: 1 -->
<svg width="228pt" height="413pt"
 viewBox="0.00 0.00 228.00 413.00" xmlns="http://www.w3.org/2000/svg" xmlns:xlink="http://www.w3.org/1999/xlink">
<g id="graph0" class="graph" transform="scale(1 1) rotate(0) translate(4 409)">
<title>View</title>
<polygon fill="white" stroke="none" points="-4,4 -4,-409 224,-409 224,4 -4,4"/>
<!-- Node1 -->
<g id="node1" class="node"><title>Node1</title>
<polygon fill="#bfbfbf" stroke="black" points="59,-259.5 59,-404.5 153,-404.5 153,-259.5 59,-259.5"/>
<text text-anchor="middle" x="106" y="-392.5" font-family="Helvetica,sans-Serif" font-size="10.00">View</text>
<polyline fill="none" stroke="black" points="59,-385.5 153,-385.5 "/>
<text text-anchor="middle" x="106" y="-373.5" font-family="Helvetica,sans-Serif" font-size="10.00"> </text>
<polyline fill="none" stroke="black" points="59,-366.5 153,-366.5 "/>
<text text-anchor="start" x="67" y="-354.5" font-family="Helvetica,sans-Serif" font-size="10.00">+ setValue()</text>
<text text-anchor="start" x="67" y="-343.5" font-family="Helvetica,sans-Serif" font-size="10.00">+ getValue()</text>
<text text-anchor="start" x="67" y="-332.5" font-family="Helvetica,sans-Serif" font-size="10.00">+ getValues()</text>
<text text-anchor="start" x="67" y="-321.5" font-family="Helvetica,sans-Serif" font-size="10.00">+ clearAllValues()</text>
<text text-anchor="start" x="67" y="-310.5" font-family="Helvetica,sans-Serif" font-size="10.00">+ render()</text>
<text text-anchor="start" x="67" y="-299.5" font-family="Helvetica,sans-Serif" font-size="10.00">+ clearCache()</text>
<text text-anchor="start" x="67" y="-288.5" font-family="Helvetica,sans-Serif" font-size="10.00">+ isCached()</text>
<text text-anchor="start" x="67" y="-277.5" font-family="Helvetica,sans-Serif" font-size="10.00">+ getCacheDate()</text>
<text text-anchor="start" x="67" y="-266.5" font-family="Helvetica,sans-Serif" font-size="10.00">+ getTemplate()</text>
</g>
<!-- Node2 -->
<g id="node2" class="node"><title>Node2</title>
<g id="a_node2"><a xlink:href="classwcmf_1_1lib_1_1presentation_1_1view_1_1impl_1_1_null_view.html" target="_top" xlink:title="NullView is a stub class that implements all view methods. ">
<polygon fill="white" stroke="black" points="0,-39 0,-184 94,-184 94,-39 0,-39"/>
<text text-anchor="middle" x="47" y="-172" font-family="Helvetica,sans-Serif" font-size="10.00">NullView</text>
<polyline fill="none" stroke="black" points="0,-165 94,-165 "/>
<text text-anchor="middle" x="47" y="-153" font-family="Helvetica,sans-Serif" font-size="10.00"> </text>
<polyline fill="none" stroke="black" points="0,-146 94,-146 "/>
<text text-anchor="start" x="8" y="-134" font-family="Helvetica,sans-Serif" font-size="10.00">+ setValue()</text>
<text text-anchor="start" x="8" y="-123" font-family="Helvetica,sans-Serif" font-size="10.00">+ getValue()</text>
<text text-anchor="start" x="8" y="-112" font-family="Helvetica,sans-Serif" font-size="10.00">+ getValues()</text>
<text text-anchor="start" x="8" y="-101" font-family="Helvetica,sans-Serif" font-size="10.00">+ clearAllValues()</text>
<text text-anchor="start" x="8" y="-90" font-family="Helvetica,sans-Serif" font-size="10.00">+ render()</text>
<text text-anchor="start" x="8" y="-79" font-family="Helvetica,sans-Serif" font-size="10.00">+ clearCache()</text>
<text text-anchor="start" x="8" y="-68" font-family="Helvetica,sans-Serif" font-size="10.00">+ isCached()</text>
<text text-anchor="start" x="8" y="-57" font-family="Helvetica,sans-Serif" font-size="10.00">+ getCacheDate()</text>
<text text-anchor="start" x="8" y="-46" font-family="Helvetica,sans-Serif" font-size="10.00">+ getTemplate()</text>
</a>
</g>
</g>
<!-- Node1&#45;&gt;Node2 -->
<g id="edge1" class="edge"><title>Node1&#45;&gt;Node2</title>
<path fill="none" stroke="midnightblue" d="M84.047,-249.699C78.242,-228.201 72.019,-205.155 66.3622,-184.206"/>
<polygon fill="none" stroke="midnightblue" points="80.6953,-250.713 86.6812,-259.455 87.4532,-248.888 80.6953,-250.713"/>
</g>
<!-- Node3 -->
<g id="node3" class="node"><title>Node3</title>
<g id="a_node3"><a xlink:href="classwcmf_1_1lib_1_1presentation_1_1view_1_1impl_1_1_smarty_view.html" target="_top" xlink:title="View is used by Controller to handle the view presentation in MVC pattern. ">
<polygon fill="white" stroke="black" points="112,-0.5 112,-222.5 220,-222.5 220,-0.5 112,-0.5"/>
<text text-anchor="middle" x="166" y="-210.5" font-family="Helvetica,sans-Serif" font-size="10.00">SmartyView</text>
<polyline fill="none" stroke="black" points="112,-203.5 220,-203.5 "/>
<text text-anchor="start" x="120" y="-191.5" font-family="Helvetica,sans-Serif" font-size="10.00"># $view</text>
<polyline fill="none" stroke="black" points="112,-184.5 220,-184.5 "/>
<text text-anchor="start" x="120" y="-172.5" font-family="Helvetica,sans-Serif" font-size="10.00">+ __construct()</text>
<text text-anchor="start" x="120" y="-161.5" font-family="Helvetica,sans-Serif" font-size="10.00">+ setCompileCheck()</text>
<text text-anchor="start" x="120" y="-150.5" font-family="Helvetica,sans-Serif" font-size="10.00">+ setCaching()</text>
<text text-anchor="start" x="120" y="-139.5" font-family="Helvetica,sans-Serif" font-size="10.00">+ setCacheLifetime()</text>
<text text-anchor="start" x="120" y="-128.5" font-family="Helvetica,sans-Serif" font-size="10.00">+ setCacheDir()</text>
<text text-anchor="start" x="120" y="-117.5" font-family="Helvetica,sans-Serif" font-size="10.00">+ setPluginsDir()</text>
<text text-anchor="start" x="120" y="-106.5" font-family="Helvetica,sans-Serif" font-size="10.00">+ setOutputFilter()</text>
<text text-anchor="start" x="120" y="-95.5" font-family="Helvetica,sans-Serif" font-size="10.00">+ setValue()</text>
<text text-anchor="start" x="120" y="-84.5" font-family="Helvetica,sans-Serif" font-size="10.00">+ getValue()</text>
<text text-anchor="start" x="120" y="-73.5" font-family="Helvetica,sans-Serif" font-size="10.00">+ getValues()</text>
<text text-anchor="start" x="120" y="-62.5" font-family="Helvetica,sans-Serif" font-size="10.00">+ clearAllValues()</text>
<text text-anchor="start" x="120" y="-51.5" font-family="Helvetica,sans-Serif" font-size="10.00">+ render()</text>
<text text-anchor="start" x="120" y="-40.5" font-family="Helvetica,sans-Serif" font-size="10.00">+ clearCache()</text>
<text text-anchor="start" x="120" y="-29.5" font-family="Helvetica,sans-Serif" font-size="10.00">+ isCached()</text>
<text text-anchor="start" x="120" y="-18.5" font-family="Helvetica,sans-Serif" font-size="10.00">+ getCacheDate()</text>
<text text-anchor="start" x="120" y="-7.5" font-family="Helvetica,sans-Serif" font-size="10.00">+ getTemplate()</text>
</a>
</g>
</g>
<!-- Node1&#45;&gt;Node3 -->
<g id="edge2" class="edge"><title>Node1&#45;&gt;Node3</title>
<path fill="none" stroke="midnightblue" d="M128.347,-249.619C130.77,-240.797 133.264,-231.715 135.76,-222.625"/>
<polygon fill="none" stroke="midnightblue" points="124.919,-248.885 125.646,-259.455 131.669,-250.739 124.919,-248.885"/>
</g>
</g>
</svg>
