<?xml version="1.0" encoding="UTF-8" standalone="no"?>
<!DOCTYPE svg PUBLIC "-//W3C//DTD SVG 1.1//EN"
 "http://www.w3.org/Graphics/SVG/1.1/DTD/svg11.dtd">
<!-- Generated by graphviz version 2.38.0 (20140413.2041)
 -->
<!-- Title: PersistentObject Pages: 1 -->
<svg width="355pt" height="964pt"
 viewBox="0.00 0.00 354.50 964.00" xmlns="http://www.w3.org/2000/svg" xmlns:xlink="http://www.w3.org/1999/xlink">
<g id="graph0" class="graph" transform="scale(1 1) rotate(0) translate(4 960)">
<title>PersistentObject</title>
<polygon fill="white" stroke="none" points="-4,4 -4,-960 350.5,-960 350.5,4 -4,4"/>
<!-- Node1 -->
<g id="node1" class="node"><title>Node1</title>
<polygon fill="#bfbfbf" stroke="black" points="154,-755.5 154,-955.5 260,-955.5 260,-755.5 154,-755.5"/>
<text text-anchor="middle" x="207" y="-943.5" font-family="Helvetica,sans-Serif" font-size="10.00">PersistentObject</text>
<polyline fill="none" stroke="black" points="154,-936.5 260,-936.5 "/>
<text text-anchor="start" x="162" y="-924.5" font-family="Helvetica,sans-Serif" font-size="10.00">+ STATE_CLEAN</text>
<text text-anchor="start" x="162" y="-913.5" font-family="Helvetica,sans-Serif" font-size="10.00">+ STATE_DIRTY</text>
<text text-anchor="start" x="162" y="-902.5" font-family="Helvetica,sans-Serif" font-size="10.00">+ STATE_NEW</text>
<text text-anchor="start" x="162" y="-891.5" font-family="Helvetica,sans-Serif" font-size="10.00">+ STATE_DELETED</text>
<polyline fill="none" stroke="black" points="154,-884.5 260,-884.5 "/>
<text text-anchor="start" x="162" y="-872.5" font-family="Helvetica,sans-Serif" font-size="10.00">+ getType()</text>
<text text-anchor="start" x="162" y="-861.5" font-family="Helvetica,sans-Serif" font-size="10.00">+ getMapper()</text>
<text text-anchor="start" x="162" y="-850.5" font-family="Helvetica,sans-Serif" font-size="10.00">+ getOID()</text>
<text text-anchor="start" x="162" y="-839.5" font-family="Helvetica,sans-Serif" font-size="10.00">+ setOID()</text>
<text text-anchor="start" x="162" y="-828.5" font-family="Helvetica,sans-Serif" font-size="10.00">+ getState()</text>
<text text-anchor="start" x="162" y="-817.5" font-family="Helvetica,sans-Serif" font-size="10.00">+ setState()</text>
<text text-anchor="start" x="162" y="-806.5" font-family="Helvetica,sans-Serif" font-size="10.00">+ delete()</text>
<text text-anchor="start" x="162" y="-795.5" font-family="Helvetica,sans-Serif" font-size="10.00">+ __clone()</text>
<text text-anchor="start" x="162" y="-784.5" font-family="Helvetica,sans-Serif" font-size="10.00">+ copyValues()</text>
<text text-anchor="start" x="162" y="-773.5" font-family="Helvetica,sans-Serif" font-size="10.00">+ mergeValues()</text>
<text text-anchor="start" x="162" y="-762.5" font-family="Helvetica,sans-Serif" font-size="10.00">and 27 more...</text>
</g>
<!-- Node2 -->
<g id="node2" class="node"><title>Node2</title>
<g id="a_node2"><a xlink:href="classwcmf_1_1lib_1_1persistence_1_1impl_1_1_default_persistent_object.html" target="_top" xlink:title="DefaultPersistentObject is the base class of all persistent objects. ">
<polygon fill="white" stroke="black" points="36.5,-518.5 36.5,-718.5 213.5,-718.5 213.5,-518.5 36.5,-518.5"/>
<text text-anchor="middle" x="125" y="-706.5" font-family="Helvetica,sans-Serif" font-size="10.00">DefaultPersistentObject</text>
<polyline fill="none" stroke="black" points="36.5,-699.5 213.5,-699.5 "/>
<text text-anchor="middle" x="125" y="-687.5" font-family="Helvetica,sans-Serif" font-size="10.00"> </text>
<polyline fill="none" stroke="black" points="36.5,-680.5 213.5,-680.5 "/>
<text text-anchor="start" x="44.5" y="-668.5" font-family="Helvetica,sans-Serif" font-size="10.00">+ __construct()</text>
<text text-anchor="start" x="44.5" y="-657.5" font-family="Helvetica,sans-Serif" font-size="10.00">+ getType()</text>
<text text-anchor="start" x="44.5" y="-646.5" font-family="Helvetica,sans-Serif" font-size="10.00">+ getMapper()</text>
<text text-anchor="start" x="44.5" y="-635.5" font-family="Helvetica,sans-Serif" font-size="10.00">+ getOID()</text>
<text text-anchor="start" x="44.5" y="-624.5" font-family="Helvetica,sans-Serif" font-size="10.00">+ setOID()</text>
<text text-anchor="start" x="44.5" y="-613.5" font-family="Helvetica,sans-Serif" font-size="10.00">+ getState()</text>
<text text-anchor="start" x="44.5" y="-602.5" font-family="Helvetica,sans-Serif" font-size="10.00">+ setState()</text>
<text text-anchor="start" x="44.5" y="-591.5" font-family="Helvetica,sans-Serif" font-size="10.00">+ delete()</text>
<text text-anchor="start" x="44.5" y="-580.5" font-family="Helvetica,sans-Serif" font-size="10.00">+ __clone()</text>
<text text-anchor="start" x="44.5" y="-569.5" font-family="Helvetica,sans-Serif" font-size="10.00">+ copyValues()</text>
<text text-anchor="start" x="44.5" y="-558.5" font-family="Helvetica,sans-Serif" font-size="10.00">and 31 more...</text>
<text text-anchor="start" x="44.5" y="-547.5" font-family="Helvetica,sans-Serif" font-size="10.00"># setOIDInternal()</text>
<text text-anchor="start" x="44.5" y="-536.5" font-family="Helvetica,sans-Serif" font-size="10.00"># setValueInternal()</text>
<text text-anchor="start" x="44.5" y="-525.5" font-family="Helvetica,sans-Serif" font-size="10.00"># validateValueAgainstValidateType()</text>
</a>
</g>
</g>
<!-- Node1&#45;&gt;Node2 -->
<g id="edge1" class="edge"><title>Node1&#45;&gt;Node2</title>
<path fill="none" stroke="midnightblue" d="M168.984,-745.551C165.876,-736.645 162.746,-727.673 159.664,-718.842"/>
<polygon fill="none" stroke="midnightblue" points="165.744,-746.891 172.343,-755.179 172.353,-744.585 165.744,-746.891"/>
</g>
<!-- Node7 -->
<g id="node7" class="node"><title>Node7</title>
<g id="a_node7"><a xlink:href="classwcmf_1_1lib_1_1persistence_1_1_persistent_object_proxy.html" target="_top" xlink:title="PersistentObjectProxy is proxy for an PersistentObject instance. ">
<polygon fill="white" stroke="black" points="231.5,-524 231.5,-713 346.5,-713 346.5,-524 231.5,-524"/>
<text text-anchor="middle" x="289" y="-701" font-family="Helvetica,sans-Serif" font-size="10.00">PersistentObjectProxy</text>
<polyline fill="none" stroke="black" points="231.5,-694 346.5,-694 "/>
<text text-anchor="start" x="239.5" y="-682" font-family="Helvetica,sans-Serif" font-size="10.00"># $oid</text>
<text text-anchor="start" x="239.5" y="-671" font-family="Helvetica,sans-Serif" font-size="10.00"># $realSubject</text>
<polyline fill="none" stroke="black" points="231.5,-664 346.5,-664 "/>
<text text-anchor="start" x="239.5" y="-652" font-family="Helvetica,sans-Serif" font-size="10.00">+ __construct()</text>
<text text-anchor="start" x="239.5" y="-641" font-family="Helvetica,sans-Serif" font-size="10.00">+ getRealSubject()</text>
<text text-anchor="start" x="239.5" y="-630" font-family="Helvetica,sans-Serif" font-size="10.00">+ __call()</text>
<text text-anchor="start" x="239.5" y="-619" font-family="Helvetica,sans-Serif" font-size="10.00">+ resolve()</text>
<text text-anchor="start" x="239.5" y="-608" font-family="Helvetica,sans-Serif" font-size="10.00">+ initialize()</text>
<text text-anchor="start" x="239.5" y="-597" font-family="Helvetica,sans-Serif" font-size="10.00">+ getType()</text>
<text text-anchor="start" x="239.5" y="-586" font-family="Helvetica,sans-Serif" font-size="10.00">+ getMapper()</text>
<text text-anchor="start" x="239.5" y="-575" font-family="Helvetica,sans-Serif" font-size="10.00">+ getOID()</text>
<text text-anchor="start" x="239.5" y="-564" font-family="Helvetica,sans-Serif" font-size="10.00">+ setOID()</text>
<text text-anchor="start" x="239.5" y="-553" font-family="Helvetica,sans-Serif" font-size="10.00">+ getState()</text>
<text text-anchor="start" x="239.5" y="-542" font-family="Helvetica,sans-Serif" font-size="10.00">and 33 more...</text>
<text text-anchor="start" x="239.5" y="-531" font-family="Helvetica,sans-Serif" font-size="10.00">+ fromObject()</text>
</a>
</g>
</g>
<!-- Node1&#45;&gt;Node7 -->
<g id="edge6" class="edge"><title>Node1&#45;&gt;Node7</title>
<path fill="none" stroke="midnightblue" d="M244.97,-745.684C248.754,-734.84 252.572,-723.896 256.296,-713.226"/>
<polygon fill="none" stroke="midnightblue" points="241.647,-744.585 241.657,-755.179 248.256,-746.891 241.647,-744.585"/>
</g>
<!-- Node3 -->
<g id="node3" class="node"><title>Node3</title>
<g id="a_node3"><a xlink:href="classwcmf_1_1lib_1_1model_1_1_node.html" target="_top" xlink:title="Node adds the concept of relations to PersistentObject. ">
<polygon fill="white" stroke="black" points="35.5,-237.5 35.5,-481.5 214.5,-481.5 214.5,-237.5 35.5,-237.5"/>
<text text-anchor="middle" x="125" y="-469.5" font-family="Helvetica,sans-Serif" font-size="10.00">Node</text>
<polyline fill="none" stroke="black" points="35.5,-462.5 214.5,-462.5 "/>
<text text-anchor="start" x="43.5" y="-450.5" font-family="Helvetica,sans-Serif" font-size="10.00">+ RELATION_STATE_UNINITIALIZED</text>
<text text-anchor="start" x="43.5" y="-439.5" font-family="Helvetica,sans-Serif" font-size="10.00">+ RELATION_STATE_INITIALIZING</text>
<text text-anchor="start" x="43.5" y="-428.5" font-family="Helvetica,sans-Serif" font-size="10.00">+ RELATION_STATE_INITIALIZED</text>
<text text-anchor="start" x="43.5" y="-417.5" font-family="Helvetica,sans-Serif" font-size="10.00">+ RELATION_STATE_LOADED</text>
<polyline fill="none" stroke="black" points="35.5,-410.5 214.5,-410.5 "/>
<text text-anchor="start" x="43.5" y="-398.5" font-family="Helvetica,sans-Serif" font-size="10.00">+ __construct()</text>
<text text-anchor="start" x="43.5" y="-387.5" font-family="Helvetica,sans-Serif" font-size="10.00">+ getValueNames()</text>
<text text-anchor="start" x="43.5" y="-376.5" font-family="Helvetica,sans-Serif" font-size="10.00">+ getValue()</text>
<text text-anchor="start" x="43.5" y="-365.5" font-family="Helvetica,sans-Serif" font-size="10.00">+ setValue()</text>
<text text-anchor="start" x="43.5" y="-354.5" font-family="Helvetica,sans-Serif" font-size="10.00">+ removeValue()</text>
<text text-anchor="start" x="43.5" y="-343.5" font-family="Helvetica,sans-Serif" font-size="10.00">+ getIndispensableObjects()</text>
<text text-anchor="start" x="43.5" y="-332.5" font-family="Helvetica,sans-Serif" font-size="10.00">+ mergeValues()</text>
<text text-anchor="start" x="43.5" y="-321.5" font-family="Helvetica,sans-Serif" font-size="10.00">+ getRelationNames()</text>
<text text-anchor="start" x="43.5" y="-310.5" font-family="Helvetica,sans-Serif" font-size="10.00">+ addNode()</text>
<text text-anchor="start" x="43.5" y="-299.5" font-family="Helvetica,sans-Serif" font-size="10.00">+ getAddedNodes()</text>
<text text-anchor="start" x="43.5" y="-288.5" font-family="Helvetica,sans-Serif" font-size="10.00">and 24 more...</text>
<text text-anchor="start" x="43.5" y="-277.5" font-family="Helvetica,sans-Serif" font-size="10.00">+ filter()</text>
<text text-anchor="start" x="43.5" y="-266.5" font-family="Helvetica,sans-Serif" font-size="10.00"># loadRelations()</text>
<text text-anchor="start" x="43.5" y="-255.5" font-family="Helvetica,sans-Serif" font-size="10.00"># getRelations()</text>
<text text-anchor="start" x="43.5" y="-244.5" font-family="Helvetica,sans-Serif" font-size="10.00"># mergeObjectLists()</text>
</a>
</g>
</g>
<!-- Node2&#45;&gt;Node3 -->
<g id="edge2" class="edge"><title>Node2&#45;&gt;Node3</title>
<path fill="none" stroke="midnightblue" d="M125,-508.053C125,-499.408 125,-490.646 125,-481.927"/>
<polygon fill="none" stroke="midnightblue" points="121.5,-508.137 125,-518.137 128.5,-508.137 121.5,-508.137"/>
</g>
<!-- Node4 -->
<g id="node4" class="node"><title>Node4</title>
<g id="a_node4"><a xlink:href="classwcmf_1_1lib_1_1model_1_1_null_node.html" target="_top" xlink:title="NullNode is an implementation of the NullObject pattern, It inherits all functionality from Node (act...">
<polygon fill="white" stroke="black" points="0,-72 0,-129 62,-129 62,-72 0,-72"/>
<text text-anchor="middle" x="31" y="-117" font-family="Helvetica,sans-Serif" font-size="10.00">NullNode</text>
<polyline fill="none" stroke="black" points="0,-110 62,-110 "/>
<text text-anchor="middle" x="31" y="-98" font-family="Helvetica,sans-Serif" font-size="10.00"> </text>
<polyline fill="none" stroke="black" points="0,-91 62,-91 "/>
<text text-anchor="start" x="8" y="-79" font-family="Helvetica,sans-Serif" font-size="10.00">+ getOID()</text>
</a>
</g>
</g>
<!-- Node3&#45;&gt;Node4 -->
<g id="edge3" class="edge"><title>Node3&#45;&gt;Node4</title>
<path fill="none" stroke="midnightblue" d="M77.1465,-227.667C63.501,-190.359 49.9514,-153.314 41.1006,-129.115"/>
<polygon fill="none" stroke="midnightblue" points="73.8929,-228.96 80.615,-237.15 80.4669,-226.556 73.8929,-228.96"/>
</g>
<!-- Node5 -->
<g id="node5" class="node"><title>Node5</title>
<g id="a_node5"><a xlink:href="classwcmf_1_1lib_1_1security_1_1principal_1_1impl_1_1_abstract_role.html" target="_top" xlink:title="Default implementation of a role. ">
<polygon fill="white" stroke="black" points="80.5,-61 80.5,-140 169.5,-140 169.5,-61 80.5,-61"/>
<text text-anchor="middle" x="125" y="-128" font-family="Helvetica,sans-Serif" font-size="10.00">AbstractRole</text>
<polyline fill="none" stroke="black" points="80.5,-121 169.5,-121 "/>
<text text-anchor="middle" x="125" y="-109" font-family="Helvetica,sans-Serif" font-size="10.00"> </text>
<polyline fill="none" stroke="black" points="80.5,-102 169.5,-102 "/>
<text text-anchor="start" x="88.5" y="-90" font-family="Helvetica,sans-Serif" font-size="10.00">+ setName()</text>
<text text-anchor="start" x="88.5" y="-79" font-family="Helvetica,sans-Serif" font-size="10.00">+ getName()</text>
<text text-anchor="start" x="88.5" y="-68" font-family="Helvetica,sans-Serif" font-size="10.00">+ validateValue()</text>
</a>
</g>
</g>
<!-- Node3&#45;&gt;Node5 -->
<g id="edge4" class="edge"><title>Node3&#45;&gt;Node5</title>
<path fill="none" stroke="midnightblue" d="M125,-226.858C125,-195.159 125,-163.715 125,-140.248"/>
<polygon fill="none" stroke="midnightblue" points="121.5,-227.15 125,-237.15 128.5,-227.15 121.5,-227.15"/>
</g>
<!-- Node6 -->
<g id="node6" class="node"><title>Node6</title>
<g id="a_node6"><a xlink:href="classwcmf_1_1lib_1_1security_1_1principal_1_1impl_1_1_abstract_user.html" target="_top" xlink:title="Default implementation of a user that is persistent. ">
<polygon fill="white" stroke="black" points="188,-0.5 188,-200.5 324,-200.5 324,-0.5 188,-0.5"/>
<text text-anchor="middle" x="256" y="-188.5" font-family="Helvetica,sans-Serif" font-size="10.00">AbstractUser</text>
<polyline fill="none" stroke="black" points="188,-181.5 324,-181.5 "/>
<text text-anchor="middle" x="256" y="-169.5" font-family="Helvetica,sans-Serif" font-size="10.00"> </text>
<polyline fill="none" stroke="black" points="188,-162.5 324,-162.5 "/>
<text text-anchor="start" x="196" y="-150.5" font-family="Helvetica,sans-Serif" font-size="10.00">+ setLogin()</text>
<text text-anchor="start" x="196" y="-139.5" font-family="Helvetica,sans-Serif" font-size="10.00">+ getLogin()</text>
<text text-anchor="start" x="196" y="-128.5" font-family="Helvetica,sans-Serif" font-size="10.00">+ setPassword()</text>
<text text-anchor="start" x="196" y="-117.5" font-family="Helvetica,sans-Serif" font-size="10.00">+ getPassword()</text>
<text text-anchor="start" x="196" y="-106.5" font-family="Helvetica,sans-Serif" font-size="10.00">+ verifyPassword()</text>
<text text-anchor="start" x="196" y="-95.5" font-family="Helvetica,sans-Serif" font-size="10.00">+ setIsActive()</text>
<text text-anchor="start" x="196" y="-84.5" font-family="Helvetica,sans-Serif" font-size="10.00">+ isActive()</text>
<text text-anchor="start" x="196" y="-73.5" font-family="Helvetica,sans-Serif" font-size="10.00">+ setIsSuperUser()</text>
<text text-anchor="start" x="196" y="-62.5" font-family="Helvetica,sans-Serif" font-size="10.00">+ isSuperUser()</text>
<text text-anchor="start" x="196" y="-51.5" font-family="Helvetica,sans-Serif" font-size="10.00">+ setConfig()</text>
<text text-anchor="start" x="196" y="-40.5" font-family="Helvetica,sans-Serif" font-size="10.00">and 8 more...</text>
<text text-anchor="start" x="196" y="-29.5" font-family="Helvetica,sans-Serif" font-size="10.00"># ensureHashedPassword()</text>
<text text-anchor="start" x="196" y="-18.5" font-family="Helvetica,sans-Serif" font-size="10.00"># setRoleConfig()</text>
<text text-anchor="start" x="196" y="-7.5" font-family="Helvetica,sans-Serif" font-size="10.00"># getRoleConfigs()</text>
</a>
</g>
</g>
<!-- Node3&#45;&gt;Node6 -->
<g id="edge5" class="edge"><title>Node3&#45;&gt;Node6</title>
<path fill="none" stroke="midnightblue" d="M191.531,-227.978C196.207,-218.803 200.877,-209.643 205.443,-200.683"/>
<polygon fill="none" stroke="midnightblue" points="188.279,-226.651 186.856,-237.15 194.515,-229.83 188.279,-226.651"/>
</g>
</g>
</svg>
