<?xml version="1.0" encoding="UTF-8" standalone="no"?>
<!DOCTYPE svg PUBLIC "-//W3C//DTD SVG 1.1//EN"
 "http://www.w3.org/Graphics/SVG/1.1/DTD/svg11.dtd">
<!-- Generated by graphviz version 2.38.0 (20140413.2041)
 -->
<!-- Title: ControllerMessage Pages: 1 -->
<svg width="391pt" height="617pt"
 viewBox="0.00 0.00 391.00 617.00" xmlns="http://www.w3.org/2000/svg" xmlns:xlink="http://www.w3.org/1999/xlink">
<g id="graph0" class="graph" transform="scale(1 1) rotate(0) translate(4 613)">
<title>ControllerMessage</title>
<polygon fill="white" stroke="none" points="-4,4 -4,-613 387,-613 387,4 -4,4"/>
<!-- Node1 -->
<g id="node1" class="node"><title>Node1</title>
<polygon fill="#bfbfbf" stroke="black" points="155.5,-441.5 155.5,-608.5 253.5,-608.5 253.5,-441.5 155.5,-441.5"/>
<text text-anchor="middle" x="204.5" y="-596.5" font-family="Helvetica,sans-Serif" font-size="10.00">ControllerMessage</text>
<polyline fill="none" stroke="black" points="155.5,-589.5 253.5,-589.5 "/>
<text text-anchor="middle" x="204.5" y="-577.5" font-family="Helvetica,sans-Serif" font-size="10.00"> </text>
<polyline fill="none" stroke="black" points="155.5,-570.5 253.5,-570.5 "/>
<text text-anchor="start" x="163.5" y="-558.5" font-family="Helvetica,sans-Serif" font-size="10.00">+ setSender()</text>
<text text-anchor="start" x="163.5" y="-547.5" font-family="Helvetica,sans-Serif" font-size="10.00">+ getSender()</text>
<text text-anchor="start" x="163.5" y="-536.5" font-family="Helvetica,sans-Serif" font-size="10.00">+ setContext()</text>
<text text-anchor="start" x="163.5" y="-525.5" font-family="Helvetica,sans-Serif" font-size="10.00">+ getContext()</text>
<text text-anchor="start" x="163.5" y="-514.5" font-family="Helvetica,sans-Serif" font-size="10.00">+ setAction()</text>
<text text-anchor="start" x="163.5" y="-503.5" font-family="Helvetica,sans-Serif" font-size="10.00">+ getAction()</text>
<text text-anchor="start" x="163.5" y="-492.5" font-family="Helvetica,sans-Serif" font-size="10.00">+ setFormat()</text>
<text text-anchor="start" x="163.5" y="-481.5" font-family="Helvetica,sans-Serif" font-size="10.00">+ getFormat()</text>
<text text-anchor="start" x="163.5" y="-470.5" font-family="Helvetica,sans-Serif" font-size="10.00">+ setHeader()</text>
<text text-anchor="start" x="163.5" y="-459.5" font-family="Helvetica,sans-Serif" font-size="10.00">+ setHeaders()</text>
<text text-anchor="start" x="163.5" y="-448.5" font-family="Helvetica,sans-Serif" font-size="10.00">and 20 more...</text>
</g>
<!-- Node2 -->
<g id="node2" class="node"><title>Node2</title>
<g id="a_node2"><a xlink:href="classwcmf_1_1lib_1_1presentation_1_1impl_1_1_abstract_controller_message.html" target="_top" xlink:title="AbstractControllerMessage is the base class for request/response implementations. ...">
<polygon fill="white" stroke="black" points="137.5,-226.5 137.5,-404.5 271.5,-404.5 271.5,-226.5 137.5,-226.5"/>
<text text-anchor="middle" x="204.5" y="-392.5" font-family="Helvetica,sans-Serif" font-size="10.00">AbstractControllerMessage</text>
<polyline fill="none" stroke="black" points="137.5,-385.5 271.5,-385.5 "/>
<text text-anchor="middle" x="204.5" y="-373.5" font-family="Helvetica,sans-Serif" font-size="10.00"> </text>
<polyline fill="none" stroke="black" points="137.5,-366.5 271.5,-366.5 "/>
<text text-anchor="start" x="145.5" y="-354.5" font-family="Helvetica,sans-Serif" font-size="10.00">+ __construct()</text>
<text text-anchor="start" x="145.5" y="-343.5" font-family="Helvetica,sans-Serif" font-size="10.00">+ setSender()</text>
<text text-anchor="start" x="145.5" y="-332.5" font-family="Helvetica,sans-Serif" font-size="10.00">+ getSender()</text>
<text text-anchor="start" x="145.5" y="-321.5" font-family="Helvetica,sans-Serif" font-size="10.00">+ setContext()</text>
<text text-anchor="start" x="145.5" y="-310.5" font-family="Helvetica,sans-Serif" font-size="10.00">+ getContext()</text>
<text text-anchor="start" x="145.5" y="-299.5" font-family="Helvetica,sans-Serif" font-size="10.00">+ setAction()</text>
<text text-anchor="start" x="145.5" y="-288.5" font-family="Helvetica,sans-Serif" font-size="10.00">+ getAction()</text>
<text text-anchor="start" x="145.5" y="-277.5" font-family="Helvetica,sans-Serif" font-size="10.00">+ setFormat()</text>
<text text-anchor="start" x="145.5" y="-266.5" font-family="Helvetica,sans-Serif" font-size="10.00">+ getFormat()</text>
<text text-anchor="start" x="145.5" y="-255.5" font-family="Helvetica,sans-Serif" font-size="10.00">+ setHeader()</text>
<text text-anchor="start" x="145.5" y="-244.5" font-family="Helvetica,sans-Serif" font-size="10.00">and 22 more...</text>
<text text-anchor="start" x="145.5" y="-233.5" font-family="Helvetica,sans-Serif" font-size="10.00"># getFormatter()</text>
</a>
</g>
</g>
<!-- Node1&#45;&gt;Node2 -->
<g id="edge1" class="edge"><title>Node1&#45;&gt;Node2</title>
<path fill="none" stroke="midnightblue" d="M204.5,-431.111C204.5,-422.297 204.5,-413.378 204.5,-404.61"/>
<polygon fill="none" stroke="midnightblue" points="201,-431.394 204.5,-441.394 208,-431.394 201,-431.394"/>
</g>
<!-- Node5 -->
<g id="node5" class="node"><title>Node5</title>
<g id="a_node5"><a xlink:href="interfacewcmf_1_1lib_1_1presentation_1_1_request.html" target="_top" xlink:title="Request holds the request values that are used as input to Controller instances. ">
<polygon fill="white" stroke="black" points="0,-259.5 0,-371.5 119,-371.5 119,-259.5 0,-259.5"/>
<text text-anchor="middle" x="59.5" y="-359.5" font-family="Helvetica,sans-Serif" font-size="10.00">Request</text>
<polyline fill="none" stroke="black" points="0,-352.5 119,-352.5 "/>
<text text-anchor="middle" x="59.5" y="-340.5" font-family="Helvetica,sans-Serif" font-size="10.00"> </text>
<polyline fill="none" stroke="black" points="0,-333.5 119,-333.5 "/>
<text text-anchor="start" x="8" y="-321.5" font-family="Helvetica,sans-Serif" font-size="10.00">+ setResponse()</text>
<text text-anchor="start" x="8" y="-310.5" font-family="Helvetica,sans-Serif" font-size="10.00">+ getResponse()</text>
<text text-anchor="start" x="8" y="-299.5" font-family="Helvetica,sans-Serif" font-size="10.00">+ initialize()</text>
<text text-anchor="start" x="8" y="-288.5" font-family="Helvetica,sans-Serif" font-size="10.00">+ getMethod()</text>
<text text-anchor="start" x="8" y="-277.5" font-family="Helvetica,sans-Serif" font-size="10.00">+ setResponseFormat()</text>
<text text-anchor="start" x="8" y="-266.5" font-family="Helvetica,sans-Serif" font-size="10.00">+ getResponseFormat()</text>
</a>
</g>
</g>
<!-- Node1&#45;&gt;Node5 -->
<g id="edge4" class="edge"><title>Node1&#45;&gt;Node5</title>
<path fill="none" stroke="midnightblue" d="M149.636,-445.488C132.434,-420.87 113.821,-394.235 98.0004,-371.595"/>
<polygon fill="none" stroke="midnightblue" points="146.813,-447.558 155.41,-453.75 152.551,-443.548 146.813,-447.558"/>
</g>
<!-- Node6 -->
<g id="node6" class="node"><title>Node6</title>
<g id="a_node6"><a xlink:href="interfacewcmf_1_1lib_1_1presentation_1_1_response.html" target="_top" xlink:title="Response holds the response values that are used as output from Controller instances. ">
<polygon fill="white" stroke="black" points="290,-226.5 290,-404.5 383,-404.5 383,-226.5 290,-226.5"/>
<text text-anchor="middle" x="336.5" y="-392.5" font-family="Helvetica,sans-Serif" font-size="10.00">Response</text>
<polyline fill="none" stroke="black" points="290,-385.5 383,-385.5 "/>
<text text-anchor="middle" x="336.5" y="-373.5" font-family="Helvetica,sans-Serif" font-size="10.00"> </text>
<polyline fill="none" stroke="black" points="290,-366.5 383,-366.5 "/>
<text text-anchor="start" x="298" y="-354.5" font-family="Helvetica,sans-Serif" font-size="10.00">+ setRequest()</text>
<text text-anchor="start" x="298" y="-343.5" font-family="Helvetica,sans-Serif" font-size="10.00">+ getRequest()</text>
<text text-anchor="start" x="298" y="-332.5" font-family="Helvetica,sans-Serif" font-size="10.00">+ setCacheId()</text>
<text text-anchor="start" x="298" y="-321.5" font-family="Helvetica,sans-Serif" font-size="10.00">+ getCacheId()</text>
<text text-anchor="start" x="298" y="-310.5" font-family="Helvetica,sans-Serif" font-size="10.00">+ isCached()</text>
<text text-anchor="start" x="298" y="-299.5" font-family="Helvetica,sans-Serif" font-size="10.00">+ getCacheDate()</text>
<text text-anchor="start" x="298" y="-288.5" font-family="Helvetica,sans-Serif" font-size="10.00">+ setStatus()</text>
<text text-anchor="start" x="298" y="-277.5" font-family="Helvetica,sans-Serif" font-size="10.00">+ getStatus()</text>
<text text-anchor="start" x="298" y="-266.5" font-family="Helvetica,sans-Serif" font-size="10.00">+ setFile()</text>
<text text-anchor="start" x="298" y="-255.5" font-family="Helvetica,sans-Serif" font-size="10.00">+ getFile()</text>
<text text-anchor="start" x="298" y="-244.5" font-family="Helvetica,sans-Serif" font-size="10.00">+ setFinal()</text>
<text text-anchor="start" x="298" y="-233.5" font-family="Helvetica,sans-Serif" font-size="10.00">+ isFinal()</text>
</a>
</g>
</g>
<!-- Node1&#45;&gt;Node6 -->
<g id="edge6" class="edge"><title>Node1&#45;&gt;Node6</title>
<path fill="none" stroke="midnightblue" d="M259.095,-438.611C266.301,-427.313 273.583,-415.88 280.5,-405 283.524,-400.243 286.637,-395.341 289.772,-390.398"/>
<polygon fill="none" stroke="midnightblue" points="256.035,-436.901 253.607,-447.213 261.936,-440.665 256.035,-436.901"/>
</g>
<!-- Node3 -->
<g id="node3" class="node"><title>Node3</title>
<g id="a_node3"><a xlink:href="classwcmf_1_1lib_1_1presentation_1_1impl_1_1_default_request.html" target="_top" xlink:title="Default Request implementation. ">
<polygon fill="white" stroke="black" points="10,-28 10,-162 129,-162 129,-28 10,-28"/>
<text text-anchor="middle" x="69.5" y="-150" font-family="Helvetica,sans-Serif" font-size="10.00">DefaultRequest</text>
<polyline fill="none" stroke="black" points="10,-143 129,-143 "/>
<text text-anchor="middle" x="69.5" y="-131" font-family="Helvetica,sans-Serif" font-size="10.00"> </text>
<polyline fill="none" stroke="black" points="10,-124 129,-124 "/>
<text text-anchor="start" x="18" y="-112" font-family="Helvetica,sans-Serif" font-size="10.00">+ __construct()</text>
<text text-anchor="start" x="18" y="-101" font-family="Helvetica,sans-Serif" font-size="10.00">+ setResponse()</text>
<text text-anchor="start" x="18" y="-90" font-family="Helvetica,sans-Serif" font-size="10.00">+ getResponse()</text>
<text text-anchor="start" x="18" y="-79" font-family="Helvetica,sans-Serif" font-size="10.00">+ initialize()</text>
<text text-anchor="start" x="18" y="-68" font-family="Helvetica,sans-Serif" font-size="10.00">+ getMethod()</text>
<text text-anchor="start" x="18" y="-57" font-family="Helvetica,sans-Serif" font-size="10.00">+ setResponseFormat()</text>
<text text-anchor="start" x="18" y="-46" font-family="Helvetica,sans-Serif" font-size="10.00">+ getResponseFormat()</text>
<text text-anchor="start" x="18" y="-35" font-family="Helvetica,sans-Serif" font-size="10.00">+ __toString()</text>
</a>
</g>
</g>
<!-- Node2&#45;&gt;Node3 -->
<g id="edge2" class="edge"><title>Node2&#45;&gt;Node3</title>
<path fill="none" stroke="midnightblue" d="M144.67,-217.665C133.057,-198.869 121.138,-179.576 110.31,-162.052"/>
<polygon fill="none" stroke="midnightblue" points="141.746,-219.59 149.979,-226.258 147.701,-215.911 141.746,-219.59"/>
</g>
<!-- Node4 -->
<g id="node4" class="node"><title>Node4</title>
<g id="a_node4"><a xlink:href="classwcmf_1_1lib_1_1presentation_1_1impl_1_1_default_response.html" target="_top" xlink:title="Default Response implementation. ">
<polygon fill="white" stroke="black" points="224,-0.5 224,-189.5 317,-189.5 317,-0.5 224,-0.5"/>
<text text-anchor="middle" x="270.5" y="-177.5" font-family="Helvetica,sans-Serif" font-size="10.00">DefaultResponse</text>
<polyline fill="none" stroke="black" points="224,-170.5 317,-170.5 "/>
<text text-anchor="middle" x="270.5" y="-158.5" font-family="Helvetica,sans-Serif" font-size="10.00"> </text>
<polyline fill="none" stroke="black" points="224,-151.5 317,-151.5 "/>
<text text-anchor="start" x="232" y="-139.5" font-family="Helvetica,sans-Serif" font-size="10.00">+ __construct()</text>
<text text-anchor="start" x="232" y="-128.5" font-family="Helvetica,sans-Serif" font-size="10.00">+ setRequest()</text>
<text text-anchor="start" x="232" y="-117.5" font-family="Helvetica,sans-Serif" font-size="10.00">+ getRequest()</text>
<text text-anchor="start" x="232" y="-106.5" font-family="Helvetica,sans-Serif" font-size="10.00">+ setCacheId()</text>
<text text-anchor="start" x="232" y="-95.5" font-family="Helvetica,sans-Serif" font-size="10.00">+ getCacheId()</text>
<text text-anchor="start" x="232" y="-84.5" font-family="Helvetica,sans-Serif" font-size="10.00">+ isCached()</text>
<text text-anchor="start" x="232" y="-73.5" font-family="Helvetica,sans-Serif" font-size="10.00">+ getCacheDate()</text>
<text text-anchor="start" x="232" y="-62.5" font-family="Helvetica,sans-Serif" font-size="10.00">+ setStatus()</text>
<text text-anchor="start" x="232" y="-51.5" font-family="Helvetica,sans-Serif" font-size="10.00">+ getStatus()</text>
<text text-anchor="start" x="232" y="-40.5" font-family="Helvetica,sans-Serif" font-size="10.00">+ setFile()</text>
<text text-anchor="start" x="232" y="-29.5" font-family="Helvetica,sans-Serif" font-size="10.00">+ getFile()</text>
<text text-anchor="start" x="232" y="-18.5" font-family="Helvetica,sans-Serif" font-size="10.00">+ setFinal()</text>
<text text-anchor="start" x="232" y="-7.5" font-family="Helvetica,sans-Serif" font-size="10.00">+ isFinal()</text>
</a>
</g>
</g>
<!-- Node2&#45;&gt;Node4 -->
<g id="edge3" class="edge"><title>Node2&#45;&gt;Node4</title>
<path fill="none" stroke="midnightblue" d="M234.082,-216.567C236.794,-207.588 239.537,-198.506 242.237,-189.567"/>
<polygon fill="none" stroke="midnightblue" points="230.696,-215.673 231.154,-226.258 237.397,-217.697 230.696,-215.673"/>
</g>
<!-- Node5&#45;&gt;Node3 -->
<g id="edge5" class="edge"><title>Node5&#45;&gt;Node3</title>
<path fill="none" stroke="midnightblue" d="M62.4952,-249.055C63.7542,-221.545 65.2166,-189.592 66.4785,-162.02"/>
<polygon fill="none" stroke="midnightblue" points="58.9844,-249.214 62.0234,-259.363 65.977,-249.534 58.9844,-249.214"/>
</g>
<!-- Node6&#45;&gt;Node4 -->
<g id="edge7" class="edge"><title>Node6&#45;&gt;Node4</title>
<path fill="none" stroke="midnightblue" d="M306.918,-216.567C304.206,-207.588 301.463,-198.506 298.763,-189.567"/>
<polygon fill="none" stroke="midnightblue" points="303.603,-217.697 309.846,-226.258 310.304,-215.673 303.603,-217.697"/>
</g>
</g>
</svg>
