<?xml version="1.0" encoding="UTF-8" standalone="no"?>
<!DOCTYPE svg PUBLIC "-//W3C//DTD SVG 1.1//EN"
 "http://www.w3.org/Graphics/SVG/1.1/DTD/svg11.dtd">
<!-- Generated by graphviz version 2.38.0 (20140413.2041)
 -->
<!-- Title: ControllerMessage Pages: 1 -->
<svg width="378pt" height="573pt"
 viewBox="0.00 0.00 377.50 573.00" xmlns="http://www.w3.org/2000/svg" xmlns:xlink="http://www.w3.org/1999/xlink">
<g id="graph0" class="graph" transform="scale(1 1) rotate(0) translate(4 569)">
<title>ControllerMessage</title>
<polygon fill="white" stroke="none" points="-4,4 -4,-569 373.5,-569 373.5,4 -4,4"/>
<!-- Node1 -->
<g id="node1" class="node"><title>Node1</title>
<polygon fill="#bfbfbf" stroke="black" points="155.5,-397.5 155.5,-564.5 253.5,-564.5 253.5,-397.5 155.5,-397.5"/>
<text text-anchor="middle" x="204.5" y="-552.5" font-family="Helvetica,sans-Serif" font-size="10.00">ControllerMessage</text>
<polyline fill="none" stroke="black" points="155.5,-545.5 253.5,-545.5 "/>
<text text-anchor="middle" x="204.5" y="-533.5" font-family="Helvetica,sans-Serif" font-size="10.00"> </text>
<polyline fill="none" stroke="black" points="155.5,-526.5 253.5,-526.5 "/>
<text text-anchor="start" x="163.5" y="-514.5" font-family="Helvetica,sans-Serif" font-size="10.00">+ setSender()</text>
<text text-anchor="start" x="163.5" y="-503.5" font-family="Helvetica,sans-Serif" font-size="10.00">+ getSender()</text>
<text text-anchor="start" x="163.5" y="-492.5" font-family="Helvetica,sans-Serif" font-size="10.00">+ setContext()</text>
<text text-anchor="start" x="163.5" y="-481.5" font-family="Helvetica,sans-Serif" font-size="10.00">+ getContext()</text>
<text text-anchor="start" x="163.5" y="-470.5" font-family="Helvetica,sans-Serif" font-size="10.00">+ setAction()</text>
<text text-anchor="start" x="163.5" y="-459.5" font-family="Helvetica,sans-Serif" font-size="10.00">+ getAction()</text>
<text text-anchor="start" x="163.5" y="-448.5" font-family="Helvetica,sans-Serif" font-size="10.00">+ setFormat()</text>
<text text-anchor="start" x="163.5" y="-437.5" font-family="Helvetica,sans-Serif" font-size="10.00">+ getFormat()</text>
<text text-anchor="start" x="163.5" y="-426.5" font-family="Helvetica,sans-Serif" font-size="10.00">+ setHeader()</text>
<text text-anchor="start" x="163.5" y="-415.5" font-family="Helvetica,sans-Serif" font-size="10.00">+ setHeaders()</text>
<text text-anchor="start" x="163.5" y="-404.5" font-family="Helvetica,sans-Serif" font-size="10.00">and 20 more...</text>
</g>
<!-- Node2 -->
<g id="node2" class="node"><title>Node2</title>
<g id="a_node2"><a xlink:href="classwcmf_1_1lib_1_1presentation_1_1impl_1_1_abstract_controller_message.html" target="_top" xlink:title="AbstractControllerMessage is the base class for request/response implementations. ...">
<polygon fill="white" stroke="black" points="137.5,-182.5 137.5,-360.5 271.5,-360.5 271.5,-182.5 137.5,-182.5"/>
<text text-anchor="middle" x="204.5" y="-348.5" font-family="Helvetica,sans-Serif" font-size="10.00">AbstractControllerMessage</text>
<polyline fill="none" stroke="black" points="137.5,-341.5 271.5,-341.5 "/>
<text text-anchor="middle" x="204.5" y="-329.5" font-family="Helvetica,sans-Serif" font-size="10.00"> </text>
<polyline fill="none" stroke="black" points="137.5,-322.5 271.5,-322.5 "/>
<text text-anchor="start" x="145.5" y="-310.5" font-family="Helvetica,sans-Serif" font-size="10.00">+ __construct()</text>
<text text-anchor="start" x="145.5" y="-299.5" font-family="Helvetica,sans-Serif" font-size="10.00">+ setSender()</text>
<text text-anchor="start" x="145.5" y="-288.5" font-family="Helvetica,sans-Serif" font-size="10.00">+ getSender()</text>
<text text-anchor="start" x="145.5" y="-277.5" font-family="Helvetica,sans-Serif" font-size="10.00">+ setContext()</text>
<text text-anchor="start" x="145.5" y="-266.5" font-family="Helvetica,sans-Serif" font-size="10.00">+ getContext()</text>
<text text-anchor="start" x="145.5" y="-255.5" font-family="Helvetica,sans-Serif" font-size="10.00">+ setAction()</text>
<text text-anchor="start" x="145.5" y="-244.5" font-family="Helvetica,sans-Serif" font-size="10.00">+ getAction()</text>
<text text-anchor="start" x="145.5" y="-233.5" font-family="Helvetica,sans-Serif" font-size="10.00">+ setFormat()</text>
<text text-anchor="start" x="145.5" y="-222.5" font-family="Helvetica,sans-Serif" font-size="10.00">+ getFormat()</text>
<text text-anchor="start" x="145.5" y="-211.5" font-family="Helvetica,sans-Serif" font-size="10.00">+ setHeader()</text>
<text text-anchor="start" x="145.5" y="-200.5" font-family="Helvetica,sans-Serif" font-size="10.00">and 22 more...</text>
<text text-anchor="start" x="145.5" y="-189.5" font-family="Helvetica,sans-Serif" font-size="10.00"># getFormatter()</text>
</a>
</g>
</g>
<!-- Node1&#45;&gt;Node2 -->
<g id="edge1" class="edge"><title>Node1&#45;&gt;Node2</title>
<path fill="none" stroke="midnightblue" d="M204.5,-387.111C204.5,-378.297 204.5,-369.378 204.5,-360.61"/>
<polygon fill="none" stroke="midnightblue" points="201,-387.394 204.5,-397.394 208,-387.394 201,-387.394"/>
</g>
<!-- Node5 -->
<g id="node5" class="node"><title>Node5</title>
<g id="a_node5"><a xlink:href="interfacewcmf_1_1lib_1_1presentation_1_1_request.html" target="_top" xlink:title="Request holds the request values that are used as input to Controller instances. ">
<polygon fill="white" stroke="black" points="0,-226.5 0,-316.5 119,-316.5 119,-226.5 0,-226.5"/>
<text text-anchor="middle" x="59.5" y="-304.5" font-family="Helvetica,sans-Serif" font-size="10.00">Request</text>
<polyline fill="none" stroke="black" points="0,-297.5 119,-297.5 "/>
<text text-anchor="middle" x="59.5" y="-285.5" font-family="Helvetica,sans-Serif" font-size="10.00"> </text>
<polyline fill="none" stroke="black" points="0,-278.5 119,-278.5 "/>
<text text-anchor="start" x="8" y="-266.5" font-family="Helvetica,sans-Serif" font-size="10.00">+ initialize()</text>
<text text-anchor="start" x="8" y="-255.5" font-family="Helvetica,sans-Serif" font-size="10.00">+ getMethod()</text>
<text text-anchor="start" x="8" y="-244.5" font-family="Helvetica,sans-Serif" font-size="10.00">+ setResponseFormat()</text>
<text text-anchor="start" x="8" y="-233.5" font-family="Helvetica,sans-Serif" font-size="10.00">+ getResponseFormat()</text>
</a>
</g>
</g>
<!-- Node1&#45;&gt;Node5 -->
<g id="edge4" class="edge"><title>Node1&#45;&gt;Node5</title>
<path fill="none" stroke="midnightblue" d="M149.539,-401.35C129.508,-372.684 107.576,-341.298 90.3728,-316.68"/>
<polygon fill="none" stroke="midnightblue" points="146.813,-403.558 155.41,-409.75 152.551,-399.548 146.813,-403.558"/>
</g>
<!-- Node6 -->
<g id="node6" class="node"><title>Node6</title>
<g id="a_node6"><a xlink:href="interfacewcmf_1_1lib_1_1presentation_1_1_response.html" target="_top" xlink:title="Response holds the response values that are used as output from Controller instances. ">
<polygon fill="white" stroke="black" points="289.5,-204.5 289.5,-338.5 369.5,-338.5 369.5,-204.5 289.5,-204.5"/>
<text text-anchor="middle" x="329.5" y="-326.5" font-family="Helvetica,sans-Serif" font-size="10.00">Response</text>
<polyline fill="none" stroke="black" points="289.5,-319.5 369.5,-319.5 "/>
<text text-anchor="middle" x="329.5" y="-307.5" font-family="Helvetica,sans-Serif" font-size="10.00"> </text>
<polyline fill="none" stroke="black" points="289.5,-300.5 369.5,-300.5 "/>
<text text-anchor="start" x="297.5" y="-288.5" font-family="Helvetica,sans-Serif" font-size="10.00">+ setCacheId()</text>
<text text-anchor="start" x="297.5" y="-277.5" font-family="Helvetica,sans-Serif" font-size="10.00">+ getCacheId()</text>
<text text-anchor="start" x="297.5" y="-266.5" font-family="Helvetica,sans-Serif" font-size="10.00">+ setStatus()</text>
<text text-anchor="start" x="297.5" y="-255.5" font-family="Helvetica,sans-Serif" font-size="10.00">+ getStatus()</text>
<text text-anchor="start" x="297.5" y="-244.5" font-family="Helvetica,sans-Serif" font-size="10.00">+ setFile()</text>
<text text-anchor="start" x="297.5" y="-233.5" font-family="Helvetica,sans-Serif" font-size="10.00">+ getFile()</text>
<text text-anchor="start" x="297.5" y="-222.5" font-family="Helvetica,sans-Serif" font-size="10.00">+ setFinal()</text>
<text text-anchor="start" x="297.5" y="-211.5" font-family="Helvetica,sans-Serif" font-size="10.00">+ isFinal()</text>
</a>
</g>
</g>
<!-- Node1&#45;&gt;Node6 -->
<g id="edge6" class="edge"><title>Node1&#45;&gt;Node6</title>
<path fill="none" stroke="midnightblue" d="M259.005,-396.101C266.346,-384.384 273.689,-372.441 280.5,-361 284.723,-353.908 289.046,-346.436 293.292,-338.964"/>
<polygon fill="none" stroke="midnightblue" points="256.031,-394.255 253.667,-404.582 261.956,-397.983 256.031,-394.255"/>
</g>
<!-- Node3 -->
<g id="node3" class="node"><title>Node3</title>
<g id="a_node3"><a xlink:href="classwcmf_1_1lib_1_1presentation_1_1impl_1_1_default_request.html" target="_top" xlink:title="Default Request implementation. ">
<polygon fill="white" stroke="black" points="11,-17 11,-129 130,-129 130,-17 11,-17"/>
<text text-anchor="middle" x="70.5" y="-117" font-family="Helvetica,sans-Serif" font-size="10.00">DefaultRequest</text>
<polyline fill="none" stroke="black" points="11,-110 130,-110 "/>
<text text-anchor="middle" x="70.5" y="-98" font-family="Helvetica,sans-Serif" font-size="10.00"> </text>
<polyline fill="none" stroke="black" points="11,-91 130,-91 "/>
<text text-anchor="start" x="19" y="-79" font-family="Helvetica,sans-Serif" font-size="10.00">+ __construct()</text>
<text text-anchor="start" x="19" y="-68" font-family="Helvetica,sans-Serif" font-size="10.00">+ initialize()</text>
<text text-anchor="start" x="19" y="-57" font-family="Helvetica,sans-Serif" font-size="10.00">+ getMethod()</text>
<text text-anchor="start" x="19" y="-46" font-family="Helvetica,sans-Serif" font-size="10.00">+ setResponseFormat()</text>
<text text-anchor="start" x="19" y="-35" font-family="Helvetica,sans-Serif" font-size="10.00">+ getResponseFormat()</text>
<text text-anchor="start" x="19" y="-24" font-family="Helvetica,sans-Serif" font-size="10.00">+ __toString()</text>
</a>
</g>
</g>
<!-- Node2&#45;&gt;Node3 -->
<g id="edge2" class="edge"><title>Node2&#45;&gt;Node3</title>
<path fill="none" stroke="midnightblue" d="M138.57,-173.82C128.132,-158.513 117.659,-143.155 108.165,-129.233"/>
<polygon fill="none" stroke="midnightblue" points="135.834,-176.019 144.359,-182.309 141.617,-172.075 135.834,-176.019"/>
</g>
<!-- Node4 -->
<g id="node4" class="node"><title>Node4</title>
<g id="a_node4"><a xlink:href="classwcmf_1_1lib_1_1presentation_1_1impl_1_1_default_response.html" target="_top" xlink:title="Default Response implementation. ">
<polygon fill="white" stroke="black" points="221.5,-0.5 221.5,-145.5 311.5,-145.5 311.5,-0.5 221.5,-0.5"/>
<text text-anchor="middle" x="266.5" y="-133.5" font-family="Helvetica,sans-Serif" font-size="10.00">DefaultResponse</text>
<polyline fill="none" stroke="black" points="221.5,-126.5 311.5,-126.5 "/>
<text text-anchor="middle" x="266.5" y="-114.5" font-family="Helvetica,sans-Serif" font-size="10.00"> </text>
<polyline fill="none" stroke="black" points="221.5,-107.5 311.5,-107.5 "/>
<text text-anchor="start" x="229.5" y="-95.5" font-family="Helvetica,sans-Serif" font-size="10.00">+ __construct()</text>
<text text-anchor="start" x="229.5" y="-84.5" font-family="Helvetica,sans-Serif" font-size="10.00">+ setCacheId()</text>
<text text-anchor="start" x="229.5" y="-73.5" font-family="Helvetica,sans-Serif" font-size="10.00">+ getCacheId()</text>
<text text-anchor="start" x="229.5" y="-62.5" font-family="Helvetica,sans-Serif" font-size="10.00">+ setStatus()</text>
<text text-anchor="start" x="229.5" y="-51.5" font-family="Helvetica,sans-Serif" font-size="10.00">+ getStatus()</text>
<text text-anchor="start" x="229.5" y="-40.5" font-family="Helvetica,sans-Serif" font-size="10.00">+ setFile()</text>
<text text-anchor="start" x="229.5" y="-29.5" font-family="Helvetica,sans-Serif" font-size="10.00">+ getFile()</text>
<text text-anchor="start" x="229.5" y="-18.5" font-family="Helvetica,sans-Serif" font-size="10.00">+ setFinal()</text>
<text text-anchor="start" x="229.5" y="-7.5" font-family="Helvetica,sans-Serif" font-size="10.00">+ isFinal()</text>
</a>
</g>
</g>
<!-- Node2&#45;&gt;Node4 -->
<g id="edge3" class="edge"><title>Node2&#45;&gt;Node4</title>
<path fill="none" stroke="midnightblue" d="M235.414,-172.522C238.264,-163.489 241.115,-154.453 243.871,-145.719"/>
<polygon fill="none" stroke="midnightblue" points="231.998,-171.719 232.326,-182.309 238.673,-173.825 231.998,-171.719"/>
</g>
<!-- Node5&#45;&gt;Node3 -->
<g id="edge5" class="edge"><title>Node5&#45;&gt;Node3</title>
<path fill="none" stroke="midnightblue" d="M62.5335,-216.311C64.051,-189.202 65.8846,-156.448 67.4099,-129.2"/>
<polygon fill="none" stroke="midnightblue" points="59.0331,-216.222 61.9686,-226.402 66.0222,-216.613 59.0331,-216.222"/>
</g>
<!-- Node6&#45;&gt;Node4 -->
<g id="edge7" class="edge"><title>Node6&#45;&gt;Node4</title>
<path fill="none" stroke="midnightblue" d="M305.101,-194.399C299.966,-178.384 294.566,-161.539 289.485,-145.692"/>
<polygon fill="none" stroke="midnightblue" points="301.873,-195.794 308.259,-204.248 308.539,-193.657 301.873,-195.794"/>
</g>
</g>
</svg>
