<?xml version="1.0" encoding="UTF-8" standalone="no"?>
<!DOCTYPE svg PUBLIC "-//W3C//DTD SVG 1.1//EN"
 "http://www.w3.org/Graphics/SVG/1.1/DTD/svg11.dtd">
<!-- Generated by graphviz version 2.38.0 (20140413.2041)
 -->
<!-- Title: Format Pages: 1 -->
<svg width="717pt" height="689pt"
 viewBox="0.00 0.00 717.00 689.00" xmlns="http://www.w3.org/2000/svg" xmlns:xlink="http://www.w3.org/1999/xlink">
<g id="graph0" class="graph" transform="scale(1 1) rotate(0) translate(4 685)">
<title>Format</title>
<polygon fill="white" stroke="none" points="-4,4 -4,-685 713,-685 713,4 -4,4"/>
<!-- Node1 -->
<g id="node1" class="node"><title>Node1</title>
<polygon fill="#bfbfbf" stroke="black" points="263,-568.5 263,-680.5 388,-680.5 388,-568.5 263,-568.5"/>
<text text-anchor="middle" x="325.5" y="-668.5" font-family="Helvetica,sans-Serif" font-size="10.00">Format</text>
<polyline fill="none" stroke="black" points="263,-661.5 388,-661.5 "/>
<text text-anchor="middle" x="325.5" y="-649.5" font-family="Helvetica,sans-Serif" font-size="10.00"> </text>
<polyline fill="none" stroke="black" points="263,-642.5 388,-642.5 "/>
<text text-anchor="start" x="271" y="-630.5" font-family="Helvetica,sans-Serif" font-size="10.00">+ getMimeType()</text>
<text text-anchor="start" x="271" y="-619.5" font-family="Helvetica,sans-Serif" font-size="10.00">+ deserialize()</text>
<text text-anchor="start" x="271" y="-608.5" font-family="Helvetica,sans-Serif" font-size="10.00">+ serialize()</text>
<text text-anchor="start" x="271" y="-597.5" font-family="Helvetica,sans-Serif" font-size="10.00">+ isCached()</text>
<text text-anchor="start" x="271" y="-586.5" font-family="Helvetica,sans-Serif" font-size="10.00">+ getCacheDate()</text>
<text text-anchor="start" x="271" y="-575.5" font-family="Helvetica,sans-Serif" font-size="10.00">+ getResponseHeaders()</text>
</g>
<!-- Node2 -->
<g id="node2" class="node"><title>Node2</title>
<g id="a_node2"><a xlink:href="classwcmf_1_1lib_1_1presentation_1_1format_1_1impl_1_1_abstract_format.html" target="_top" xlink:title="AbstractFormat is used as base class for specialized formats. ">
<polygon fill="white" stroke="black" points="263,-364.5 263,-531.5 388,-531.5 388,-364.5 263,-364.5"/>
<text text-anchor="middle" x="325.5" y="-519.5" font-family="Helvetica,sans-Serif" font-size="10.00">AbstractFormat</text>
<polyline fill="none" stroke="black" points="263,-512.5 388,-512.5 "/>
<text text-anchor="middle" x="325.5" y="-500.5" font-family="Helvetica,sans-Serif" font-size="10.00"> </text>
<polyline fill="none" stroke="black" points="263,-493.5 388,-493.5 "/>
<text text-anchor="start" x="271" y="-481.5" font-family="Helvetica,sans-Serif" font-size="10.00">+ deserialize()</text>
<text text-anchor="start" x="271" y="-470.5" font-family="Helvetica,sans-Serif" font-size="10.00">+ serialize()</text>
<text text-anchor="start" x="271" y="-459.5" font-family="Helvetica,sans-Serif" font-size="10.00">+ getResponseHeaders()</text>
<text text-anchor="start" x="271" y="-448.5" font-family="Helvetica,sans-Serif" font-size="10.00"># beforeDeserialize()</text>
<text text-anchor="start" x="271" y="-437.5" font-family="Helvetica,sans-Serif" font-size="10.00"># deserializeValues()</text>
<text text-anchor="start" x="271" y="-426.5" font-family="Helvetica,sans-Serif" font-size="10.00"># afterDeserialize()</text>
<text text-anchor="start" x="271" y="-415.5" font-family="Helvetica,sans-Serif" font-size="10.00"># beforeSerialize()</text>
<text text-anchor="start" x="271" y="-404.5" font-family="Helvetica,sans-Serif" font-size="10.00"># serializeValues()</text>
<text text-anchor="start" x="271" y="-393.5" font-family="Helvetica,sans-Serif" font-size="10.00"># afterSerialize()</text>
<text text-anchor="start" x="271" y="-382.5" font-family="Helvetica,sans-Serif" font-size="10.00"># getNode()</text>
<text text-anchor="start" x="271" y="-371.5" font-family="Helvetica,sans-Serif" font-size="10.00"># filterValue()</text>
</a>
</g>
</g>
<!-- Node1&#45;&gt;Node2 -->
<g id="edge1" class="edge"><title>Node1&#45;&gt;Node2</title>
<path fill="none" stroke="midnightblue" d="M325.5,-558.242C325.5,-549.543 325.5,-540.532 325.5,-531.587"/>
<polygon fill="none" stroke="midnightblue" points="322,-558.287 325.5,-568.287 329,-558.287 322,-558.287"/>
</g>
<!-- Node3 -->
<g id="node3" class="node"><title>Node3</title>
<g id="a_node3"><a xlink:href="classwcmf_1_1lib_1_1presentation_1_1format_1_1impl_1_1_download_format.html" target="_top" xlink:title="DownloadFormat is used for downloads. ">
<polygon fill="white" stroke="black" points="0,-210 0,-322 125,-322 125,-210 0,-210"/>
<text text-anchor="middle" x="62.5" y="-310" font-family="Helvetica,sans-Serif" font-size="10.00">DownloadFormat</text>
<polyline fill="none" stroke="black" points="0,-303 125,-303 "/>
<text text-anchor="middle" x="62.5" y="-291" font-family="Helvetica,sans-Serif" font-size="10.00"> </text>
<polyline fill="none" stroke="black" points="0,-284 125,-284 "/>
<text text-anchor="start" x="8" y="-272" font-family="Helvetica,sans-Serif" font-size="10.00">+ getMimeType()</text>
<text text-anchor="start" x="8" y="-261" font-family="Helvetica,sans-Serif" font-size="10.00">+ isCached()</text>
<text text-anchor="start" x="8" y="-250" font-family="Helvetica,sans-Serif" font-size="10.00">+ getCacheDate()</text>
<text text-anchor="start" x="8" y="-239" font-family="Helvetica,sans-Serif" font-size="10.00">+ getResponseHeaders()</text>
<text text-anchor="start" x="8" y="-228" font-family="Helvetica,sans-Serif" font-size="10.00"># deserializeValues()</text>
<text text-anchor="start" x="8" y="-217" font-family="Helvetica,sans-Serif" font-size="10.00"># serializeValues()</text>
</a>
</g>
</g>
<!-- Node2&#45;&gt;Node3 -->
<g id="edge2" class="edge"><title>Node2&#45;&gt;Node3</title>
<path fill="none" stroke="midnightblue" d="M254.292,-406.011C217.662,-384.089 172.785,-355.916 134.5,-328 131.455,-325.78 128.377,-323.466 125.294,-321.094"/>
<polygon fill="none" stroke="midnightblue" points="252.553,-409.049 262.936,-411.159 256.135,-403.035 252.553,-409.049"/>
</g>
<!-- Node4 -->
<g id="node4" class="node"><title>Node4</title>
<g id="a_node4"><a xlink:href="classwcmf_1_1lib_1_1presentation_1_1format_1_1impl_1_1_generic_format.html" target="_top" xlink:title="GenericFormat is used to output arbitrary responses. ">
<polygon fill="white" stroke="black" points="143,-215.5 143,-316.5 250,-316.5 250,-215.5 143,-215.5"/>
<text text-anchor="middle" x="196.5" y="-304.5" font-family="Helvetica,sans-Serif" font-size="10.00">GenericFormat</text>
<polyline fill="none" stroke="black" points="143,-297.5 250,-297.5 "/>
<text text-anchor="middle" x="196.5" y="-285.5" font-family="Helvetica,sans-Serif" font-size="10.00"> </text>
<polyline fill="none" stroke="black" points="143,-278.5 250,-278.5 "/>
<text text-anchor="start" x="151" y="-266.5" font-family="Helvetica,sans-Serif" font-size="10.00">+ getMimeType()</text>
<text text-anchor="start" x="151" y="-255.5" font-family="Helvetica,sans-Serif" font-size="10.00">+ isCached()</text>
<text text-anchor="start" x="151" y="-244.5" font-family="Helvetica,sans-Serif" font-size="10.00">+ getCacheDate()</text>
<text text-anchor="start" x="151" y="-233.5" font-family="Helvetica,sans-Serif" font-size="10.00"># deserializeValues()</text>
<text text-anchor="start" x="151" y="-222.5" font-family="Helvetica,sans-Serif" font-size="10.00"># serializeValues()</text>
</a>
</g>
</g>
<!-- Node2&#45;&gt;Node4 -->
<g id="edge3" class="edge"><title>Node2&#45;&gt;Node4</title>
<path fill="none" stroke="midnightblue" d="M260.228,-355.923C250.491,-342.336 240.777,-328.782 231.975,-316.5"/>
<polygon fill="none" stroke="midnightblue" points="257.616,-358.286 266.286,-364.375 263.305,-354.208 257.616,-358.286"/>
</g>
<!-- Node5 -->
<g id="node5" class="node"><title>Node5</title>
<g id="a_node5"><a xlink:href="classwcmf_1_1lib_1_1presentation_1_1format_1_1impl_1_1_hierarchical_format.html" target="_top" xlink:title="HierarchicalFormat is used as base class for formats that are able to represent hierarchical data lik...">
<polygon fill="white" stroke="black" points="268.5,-210 268.5,-322 382.5,-322 382.5,-210 268.5,-210"/>
<text text-anchor="middle" x="325.5" y="-310" font-family="Helvetica,sans-Serif" font-size="10.00">HierarchicalFormat</text>
<polyline fill="none" stroke="black" points="268.5,-303 382.5,-303 "/>
<text text-anchor="middle" x="325.5" y="-291" font-family="Helvetica,sans-Serif" font-size="10.00"> </text>
<polyline fill="none" stroke="black" points="268.5,-284 382.5,-284 "/>
<text text-anchor="start" x="276.5" y="-272" font-family="Helvetica,sans-Serif" font-size="10.00"># deserializeValues()</text>
<text text-anchor="start" x="276.5" y="-261" font-family="Helvetica,sans-Serif" font-size="10.00"># serializeValues()</text>
<text text-anchor="start" x="276.5" y="-250" font-family="Helvetica,sans-Serif" font-size="10.00"># isSerializedNode()</text>
<text text-anchor="start" x="276.5" y="-239" font-family="Helvetica,sans-Serif" font-size="10.00"># isDeserializedNode()</text>
<text text-anchor="start" x="276.5" y="-228" font-family="Helvetica,sans-Serif" font-size="10.00"># serializeNode()</text>
<text text-anchor="start" x="276.5" y="-217" font-family="Helvetica,sans-Serif" font-size="10.00"># deserializeNode()</text>
</a>
</g>
</g>
<!-- Node2&#45;&gt;Node5 -->
<g id="edge4" class="edge"><title>Node2&#45;&gt;Node5</title>
<path fill="none" stroke="midnightblue" d="M325.5,-354.281C325.5,-343.285 325.5,-332.343 325.5,-322.112"/>
<polygon fill="none" stroke="midnightblue" points="322,-354.375 325.5,-364.375 329,-354.375 322,-354.375"/>
</g>
<!-- Node8 -->
<g id="node8" class="node"><title>Node8</title>
<g id="a_node8"><a xlink:href="classwcmf_1_1lib_1_1presentation_1_1format_1_1impl_1_1_html_format.html" target="_top" xlink:title="HtmlFormat implements the HTML request/response format. ">
<polygon fill="white" stroke="black" points="401,-204.5 401,-327.5 584,-327.5 584,-204.5 401,-204.5"/>
<text text-anchor="middle" x="492.5" y="-315.5" font-family="Helvetica,sans-Serif" font-size="10.00">HtmlFormat</text>
<polyline fill="none" stroke="black" points="401,-308.5 584,-308.5 "/>
<text text-anchor="middle" x="492.5" y="-296.5" font-family="Helvetica,sans-Serif" font-size="10.00"> </text>
<polyline fill="none" stroke="black" points="401,-289.5 584,-289.5 "/>
<text text-anchor="start" x="409" y="-277.5" font-family="Helvetica,sans-Serif" font-size="10.00">+ getMimeType()</text>
<text text-anchor="start" x="409" y="-266.5" font-family="Helvetica,sans-Serif" font-size="10.00">+ isCached()</text>
<text text-anchor="start" x="409" y="-255.5" font-family="Helvetica,sans-Serif" font-size="10.00">+ getCacheDate()</text>
<text text-anchor="start" x="409" y="-244.5" font-family="Helvetica,sans-Serif" font-size="10.00"># deserializeValues()</text>
<text text-anchor="start" x="409" y="-233.5" font-family="Helvetica,sans-Serif" font-size="10.00"># serializeValues()</text>
<text text-anchor="start" x="409" y="-222.5" font-family="Helvetica,sans-Serif" font-size="10.00"># getTemplateFile()</text>
<text text-anchor="start" x="409" y="-211.5" font-family="Helvetica,sans-Serif" font-size="10.00"># getValueDefFromInputControlName()</text>
</a>
</g>
</g>
<!-- Node2&#45;&gt;Node8 -->
<g id="edge7" class="edge"><title>Node2&#45;&gt;Node8</title>
<path fill="none" stroke="midnightblue" d="M395.27,-371.799C408.97,-357.032 423.178,-341.718 436.362,-327.508"/>
<polygon fill="none" stroke="midnightblue" points="392.395,-369.751 388.16,-379.463 397.527,-374.512 392.395,-369.751"/>
</g>
<!-- Node9 -->
<g id="node9" class="node"><title>Node9</title>
<g id="a_node9"><a xlink:href="classwcmf_1_1lib_1_1presentation_1_1format_1_1impl_1_1_null_format.html" target="_top" xlink:title="NullFormat transfers the original request and response objects without modifying or transforming them...">
<polygon fill="white" stroke="black" points="602,-215.5 602,-316.5 709,-316.5 709,-215.5 602,-215.5"/>
<text text-anchor="middle" x="655.5" y="-304.5" font-family="Helvetica,sans-Serif" font-size="10.00">NullFormat</text>
<polyline fill="none" stroke="black" points="602,-297.5 709,-297.5 "/>
<text text-anchor="middle" x="655.5" y="-285.5" font-family="Helvetica,sans-Serif" font-size="10.00"> </text>
<polyline fill="none" stroke="black" points="602,-278.5 709,-278.5 "/>
<text text-anchor="start" x="610" y="-266.5" font-family="Helvetica,sans-Serif" font-size="10.00">+ getMimeType()</text>
<text text-anchor="start" x="610" y="-255.5" font-family="Helvetica,sans-Serif" font-size="10.00">+ isCached()</text>
<text text-anchor="start" x="610" y="-244.5" font-family="Helvetica,sans-Serif" font-size="10.00">+ getCacheDate()</text>
<text text-anchor="start" x="610" y="-233.5" font-family="Helvetica,sans-Serif" font-size="10.00"># deserializeValues()</text>
<text text-anchor="start" x="610" y="-222.5" font-family="Helvetica,sans-Serif" font-size="10.00"># serializeValues()</text>
</a>
</g>
</g>
<!-- Node2&#45;&gt;Node9 -->
<g id="edge8" class="edge"><title>Node2&#45;&gt;Node9</title>
<path fill="none" stroke="midnightblue" d="M397.6,-423.053C453.726,-402.56 532.132,-369.766 593.5,-328 598.493,-324.602 603.44,-320.776 608.232,-316.74"/>
<polygon fill="none" stroke="midnightblue" points="396.309,-419.798 388.091,-426.485 398.685,-426.382 396.309,-419.798"/>
</g>
<!-- Node6 -->
<g id="node6" class="node"><title>Node6</title>
<g id="a_node6"><a xlink:href="classwcmf_1_1lib_1_1presentation_1_1format_1_1impl_1_1_json_format.html" target="_top" xlink:title="JsonFormat implements the JSON request/response format. ">
<polygon fill="white" stroke="black" points="210,-0.5 210,-167.5 317,-167.5 317,-0.5 210,-0.5"/>
<text text-anchor="middle" x="263.5" y="-155.5" font-family="Helvetica,sans-Serif" font-size="10.00">JsonFormat</text>
<polyline fill="none" stroke="black" points="210,-148.5 317,-148.5 "/>
<text text-anchor="start" x="218" y="-136.5" font-family="Helvetica,sans-Serif" font-size="10.00">+ CACHE_SECTION</text>
<text text-anchor="start" x="218" y="-125.5" font-family="Helvetica,sans-Serif" font-size="10.00"># $cache</text>
<text text-anchor="start" x="218" y="-114.5" font-family="Helvetica,sans-Serif" font-size="10.00"># $serializer</text>
<polyline fill="none" stroke="black" points="210,-107.5 317,-107.5 "/>
<text text-anchor="start" x="218" y="-95.5" font-family="Helvetica,sans-Serif" font-size="10.00">+ __construct()</text>
<text text-anchor="start" x="218" y="-84.5" font-family="Helvetica,sans-Serif" font-size="10.00">+ getMimeType()</text>
<text text-anchor="start" x="218" y="-73.5" font-family="Helvetica,sans-Serif" font-size="10.00">+ isCached()</text>
<text text-anchor="start" x="218" y="-62.5" font-family="Helvetica,sans-Serif" font-size="10.00">+ getCacheDate()</text>
<text text-anchor="start" x="218" y="-51.5" font-family="Helvetica,sans-Serif" font-size="10.00"># getCacheSection()</text>
<text text-anchor="start" x="218" y="-40.5" font-family="Helvetica,sans-Serif" font-size="10.00"># afterSerialize()</text>
<text text-anchor="start" x="218" y="-29.5" font-family="Helvetica,sans-Serif" font-size="10.00"># isSerializedNode()</text>
<text text-anchor="start" x="218" y="-18.5" font-family="Helvetica,sans-Serif" font-size="10.00"># serializeNode()</text>
<text text-anchor="start" x="218" y="-7.5" font-family="Helvetica,sans-Serif" font-size="10.00"># deserializeNode()</text>
</a>
</g>
</g>
<!-- Node5&#45;&gt;Node6 -->
<g id="edge5" class="edge"><title>Node5&#45;&gt;Node6</title>
<path fill="none" stroke="midnightblue" d="M303.13,-200.054C299.518,-189.569 295.737,-178.592 292.005,-167.756"/>
<polygon fill="none" stroke="midnightblue" points="299.826,-201.21 306.392,-209.525 306.445,-198.931 299.826,-201.21"/>
</g>
<!-- Node7 -->
<g id="node7" class="node"><title>Node7</title>
<g id="a_node7"><a xlink:href="classwcmf_1_1lib_1_1presentation_1_1format_1_1impl_1_1_soap_format.html" target="_top" xlink:title="SoapFormat implements the SOAP request/response format. ">
<polygon fill="white" stroke="black" points="335.5,-17 335.5,-151 439.5,-151 439.5,-17 335.5,-17"/>
<text text-anchor="middle" x="387.5" y="-139" font-family="Helvetica,sans-Serif" font-size="10.00">SoapFormat</text>
<polyline fill="none" stroke="black" points="335.5,-132 439.5,-132 "/>
<text text-anchor="start" x="343.5" y="-120" font-family="Helvetica,sans-Serif" font-size="10.00"># $serializer</text>
<polyline fill="none" stroke="black" points="335.5,-113 439.5,-113 "/>
<text text-anchor="start" x="343.5" y="-101" font-family="Helvetica,sans-Serif" font-size="10.00">+ __construct()</text>
<text text-anchor="start" x="343.5" y="-90" font-family="Helvetica,sans-Serif" font-size="10.00">+ getMimeType()</text>
<text text-anchor="start" x="343.5" y="-79" font-family="Helvetica,sans-Serif" font-size="10.00">+ isCached()</text>
<text text-anchor="start" x="343.5" y="-68" font-family="Helvetica,sans-Serif" font-size="10.00">+ getCacheDate()</text>
<text text-anchor="start" x="343.5" y="-57" font-family="Helvetica,sans-Serif" font-size="10.00">+ setSerializer()</text>
<text text-anchor="start" x="343.5" y="-46" font-family="Helvetica,sans-Serif" font-size="10.00"># isSerializedNode()</text>
<text text-anchor="start" x="343.5" y="-35" font-family="Helvetica,sans-Serif" font-size="10.00"># serializeNode()</text>
<text text-anchor="start" x="343.5" y="-24" font-family="Helvetica,sans-Serif" font-size="10.00"># deserializeNode()</text>
</a>
</g>
</g>
<!-- Node5&#45;&gt;Node7 -->
<g id="edge6" class="edge"><title>Node5&#45;&gt;Node7</title>
<path fill="none" stroke="midnightblue" d="M347.955,-199.808C353.421,-183.938 359.272,-166.951 364.752,-151.042"/>
<polygon fill="none" stroke="midnightblue" points="344.555,-198.931 344.608,-209.525 351.174,-201.21 344.555,-198.931"/>
</g>
</g>
</svg>
