<?xml version="1.0" encoding="UTF-8" standalone="no"?>
<!DOCTYPE svg PUBLIC "-//W3C//DTD SVG 1.1//EN"
 "http://www.w3.org/Graphics/SVG/1.1/DTD/svg11.dtd">
<!-- Generated by graphviz version 2.38.0 (20140413.2041)
 -->
<!-- Title: Logger Pages: 1 -->
<svg width="281pt" height="507pt"
 viewBox="0.00 0.00 281.00 507.00" xmlns="http://www.w3.org/2000/svg" xmlns:xlink="http://www.w3.org/1999/xlink">
<g id="graph0" class="graph" transform="scale(1 1) rotate(0) translate(4 503)">
<title>Logger</title>
<polygon fill="white" stroke="none" points="-4,4 -4,-503 277,-503 277,4 -4,4"/>
<!-- Node1 -->
<g id="node1" class="node"><title>Node1</title>
<polygon fill="#bfbfbf" stroke="black" points="74,-320.5 74,-498.5 176,-498.5 176,-320.5 74,-320.5"/>
<text text-anchor="middle" x="125" y="-486.5" font-family="Helvetica,sans-Serif" font-size="10.00">Logger</text>
<polyline fill="none" stroke="black" points="74,-479.5 176,-479.5 "/>
<text text-anchor="middle" x="125" y="-467.5" font-family="Helvetica,sans-Serif" font-size="10.00"> </text>
<polyline fill="none" stroke="black" points="74,-460.5 176,-460.5 "/>
<text text-anchor="start" x="82" y="-448.5" font-family="Helvetica,sans-Serif" font-size="10.00">+ debug()</text>
<text text-anchor="start" x="82" y="-437.5" font-family="Helvetica,sans-Serif" font-size="10.00">+ info()</text>
<text text-anchor="start" x="82" y="-426.5" font-family="Helvetica,sans-Serif" font-size="10.00">+ warn()</text>
<text text-anchor="start" x="82" y="-415.5" font-family="Helvetica,sans-Serif" font-size="10.00">+ error()</text>
<text text-anchor="start" x="82" y="-404.5" font-family="Helvetica,sans-Serif" font-size="10.00">+ fatal()</text>
<text text-anchor="start" x="82" y="-393.5" font-family="Helvetica,sans-Serif" font-size="10.00">+ isDebugEnabled()</text>
<text text-anchor="start" x="82" y="-382.5" font-family="Helvetica,sans-Serif" font-size="10.00">+ isInfoEnabled()</text>
<text text-anchor="start" x="82" y="-371.5" font-family="Helvetica,sans-Serif" font-size="10.00">+ isWarnEnabled()</text>
<text text-anchor="start" x="82" y="-360.5" font-family="Helvetica,sans-Serif" font-size="10.00">+ isErrorEnabled()</text>
<text text-anchor="start" x="82" y="-349.5" font-family="Helvetica,sans-Serif" font-size="10.00">+ isFatalEnabled()</text>
<text text-anchor="start" x="82" y="-338.5" font-family="Helvetica,sans-Serif" font-size="10.00">+ logByErrorType()</text>
<text text-anchor="start" x="82" y="-327.5" font-family="Helvetica,sans-Serif" font-size="10.00">+ getLogger()</text>
</g>
<!-- Node2 -->
<g id="node2" class="node"><title>Node2</title>
<g id="a_node2"><a xlink:href="classwcmf_1_1lib_1_1core_1_1impl_1_1_abstract_logger.html" target="_top" xlink:title="AbstractLogger is the abstract base class for Logger implementations. ">
<polygon fill="white" stroke="black" points="76,-226.5 76,-283.5 174,-283.5 174,-226.5 76,-226.5"/>
<text text-anchor="middle" x="125" y="-271.5" font-family="Helvetica,sans-Serif" font-size="10.00">AbstractLogger</text>
<polyline fill="none" stroke="black" points="76,-264.5 174,-264.5 "/>
<text text-anchor="middle" x="125" y="-252.5" font-family="Helvetica,sans-Serif" font-size="10.00"> </text>
<polyline fill="none" stroke="black" points="76,-245.5 174,-245.5 "/>
<text text-anchor="start" x="84" y="-233.5" font-family="Helvetica,sans-Serif" font-size="10.00">+ logByErrorType()</text>
</a>
</g>
</g>
<!-- Node1&#45;&gt;Node2 -->
<g id="edge1" class="edge"><title>Node1&#45;&gt;Node2</title>
<path fill="none" stroke="midnightblue" d="M125,-310.168C125,-300.659 125,-291.651 125,-283.81"/>
<polygon fill="none" stroke="midnightblue" points="121.5,-310.232 125,-320.232 128.5,-310.232 121.5,-310.232"/>
</g>
<!-- Node3 -->
<g id="node3" class="node"><title>Node3</title>
<g id="a_node3"><a xlink:href="classwcmf_1_1lib_1_1core_1_1impl_1_1_log4php_logger.html" target="_top" xlink:title="Log4phpLogger is a wrapper for the log4php library. ">
<polygon fill="white" stroke="black" points="0,-0.5 0,-189.5 102,-189.5 102,-0.5 0,-0.5"/>
<text text-anchor="middle" x="51" y="-177.5" font-family="Helvetica,sans-Serif" font-size="10.00">Log4phpLogger</text>
<polyline fill="none" stroke="black" points="0,-170.5 102,-170.5 "/>
<text text-anchor="middle" x="51" y="-158.5" font-family="Helvetica,sans-Serif" font-size="10.00"> </text>
<polyline fill="none" stroke="black" points="0,-151.5 102,-151.5 "/>
<text text-anchor="start" x="8" y="-139.5" font-family="Helvetica,sans-Serif" font-size="10.00">+ __construct()</text>
<text text-anchor="start" x="8" y="-128.5" font-family="Helvetica,sans-Serif" font-size="10.00">+ trace()</text>
<text text-anchor="start" x="8" y="-117.5" font-family="Helvetica,sans-Serif" font-size="10.00">+ debug()</text>
<text text-anchor="start" x="8" y="-106.5" font-family="Helvetica,sans-Serif" font-size="10.00">+ info()</text>
<text text-anchor="start" x="8" y="-95.5" font-family="Helvetica,sans-Serif" font-size="10.00">+ warn()</text>
<text text-anchor="start" x="8" y="-84.5" font-family="Helvetica,sans-Serif" font-size="10.00">+ error()</text>
<text text-anchor="start" x="8" y="-73.5" font-family="Helvetica,sans-Serif" font-size="10.00">+ fatal()</text>
<text text-anchor="start" x="8" y="-62.5" font-family="Helvetica,sans-Serif" font-size="10.00">+ isDebugEnabled()</text>
<text text-anchor="start" x="8" y="-51.5" font-family="Helvetica,sans-Serif" font-size="10.00">+ isInfoEnabled()</text>
<text text-anchor="start" x="8" y="-40.5" font-family="Helvetica,sans-Serif" font-size="10.00">+ isWarnEnabled()</text>
<text text-anchor="start" x="8" y="-29.5" font-family="Helvetica,sans-Serif" font-size="10.00">+ isErrorEnabled()</text>
<text text-anchor="start" x="8" y="-18.5" font-family="Helvetica,sans-Serif" font-size="10.00">+ isFatalEnabled()</text>
<text text-anchor="start" x="8" y="-7.5" font-family="Helvetica,sans-Serif" font-size="10.00">+ getLogger()</text>
</a>
</g>
</g>
<!-- Node1&#45;&gt;Node3 -->
<g id="edge4" class="edge"><title>Node1&#45;&gt;Node3</title>
<path fill="none" stroke="midnightblue" d="M75.7808,-311.133C72.4003,-302.107 69.3925,-292.978 67,-284 58.9868,-253.93 54.7176,-220.288 52.517,-189.866"/>
<polygon fill="none" stroke="midnightblue" points="72.5358,-312.446 79.4283,-320.492 79.0579,-309.904 72.5358,-312.446"/>
</g>
<!-- Node4 -->
<g id="node4" class="node"><title>Node4</title>
<g id="a_node4"><a xlink:href="classwcmf_1_1lib_1_1core_1_1impl_1_1_monolog_file_logger.html" target="_top" xlink:title="MonologFileLogger is a wrapper for the Monolog library that logs to files. ">
<polygon fill="white" stroke="black" points="125,-0.5 125,-189.5 273,-189.5 273,-0.5 125,-0.5"/>
<text text-anchor="middle" x="199" y="-177.5" font-family="Helvetica,sans-Serif" font-size="10.00">MonologFileLogger</text>
<polyline fill="none" stroke="black" points="125,-170.5 273,-170.5 "/>
<text text-anchor="start" x="133" y="-158.5" font-family="Helvetica,sans-Serif" font-size="10.00">+ ROOT_SECTION_NAME</text>
<text text-anchor="start" x="133" y="-147.5" font-family="Helvetica,sans-Serif" font-size="10.00">+ LOGGER_SECTION_NAME</text>
<polyline fill="none" stroke="black" points="125,-140.5 273,-140.5 "/>
<text text-anchor="start" x="133" y="-128.5" font-family="Helvetica,sans-Serif" font-size="10.00">+ __construct()</text>
<text text-anchor="start" x="133" y="-117.5" font-family="Helvetica,sans-Serif" font-size="10.00">+ debug()</text>
<text text-anchor="start" x="133" y="-106.5" font-family="Helvetica,sans-Serif" font-size="10.00">+ info()</text>
<text text-anchor="start" x="133" y="-95.5" font-family="Helvetica,sans-Serif" font-size="10.00">+ warn()</text>
<text text-anchor="start" x="133" y="-84.5" font-family="Helvetica,sans-Serif" font-size="10.00">+ error()</text>
<text text-anchor="start" x="133" y="-73.5" font-family="Helvetica,sans-Serif" font-size="10.00">+ fatal()</text>
<text text-anchor="start" x="133" y="-62.5" font-family="Helvetica,sans-Serif" font-size="10.00">+ isDebugEnabled()</text>
<text text-anchor="start" x="133" y="-51.5" font-family="Helvetica,sans-Serif" font-size="10.00">+ isInfoEnabled()</text>
<text text-anchor="start" x="133" y="-40.5" font-family="Helvetica,sans-Serif" font-size="10.00">+ isWarnEnabled()</text>
<text text-anchor="start" x="133" y="-29.5" font-family="Helvetica,sans-Serif" font-size="10.00">+ isErrorEnabled()</text>
<text text-anchor="start" x="133" y="-18.5" font-family="Helvetica,sans-Serif" font-size="10.00">+ isFatalEnabled()</text>
<text text-anchor="start" x="133" y="-7.5" font-family="Helvetica,sans-Serif" font-size="10.00">+ getLogger()</text>
</a>
</g>
</g>
<!-- Node1&#45;&gt;Node4 -->
<g id="edge5" class="edge"><title>Node1&#45;&gt;Node4</title>
<path fill="none" stroke="midnightblue" d="M174.219,-311.133C177.6,-302.107 180.608,-292.978 183,-284 191.013,-253.93 195.282,-220.288 197.483,-189.866"/>
<polygon fill="none" stroke="midnightblue" points="170.942,-309.904 170.572,-320.492 177.464,-312.446 170.942,-309.904"/>
</g>
<!-- Node2&#45;&gt;Node3 -->
<g id="edge2" class="edge"><title>Node2&#45;&gt;Node3</title>
<path fill="none" stroke="midnightblue" d="M107.819,-217.316C103.841,-208.823 99.43,-199.405 94.8747,-189.678"/>
<polygon fill="none" stroke="midnightblue" points="104.699,-218.907 112.11,-226.479 111.038,-215.938 104.699,-218.907"/>
</g>
<!-- Node2&#45;&gt;Node4 -->
<g id="edge3" class="edge"><title>Node2&#45;&gt;Node4</title>
<path fill="none" stroke="midnightblue" d="M142.181,-217.316C146.159,-208.823 150.57,-199.405 155.125,-189.678"/>
<polygon fill="none" stroke="midnightblue" points="138.962,-215.938 137.89,-226.479 145.301,-218.907 138.962,-215.938"/>
</g>
</g>
</svg>
