<?xml version="1.0" encoding="UTF-8" standalone="no"?>
<!DOCTYPE svg PUBLIC "-//W3C//DTD SVG 1.1//EN"
 "http://www.w3.org/Graphics/SVG/1.1/DTD/svg11.dtd">
<!-- Generated by graphviz version 2.38.0 (20140413.2041)
 -->
<!-- Title: DefaultAuthUser Pages: 1 -->
<svg width="110pt" height="689pt"
 viewBox="0.00 0.00 110.00 689.00" xmlns="http://www.w3.org/2000/svg" xmlns:xlink="http://www.w3.org/1999/xlink">
<g id="graph0" class="graph" transform="scale(1 1) rotate(0) translate(4 685)">
<title>DefaultAuthUser</title>
<polygon fill="white" stroke="none" points="-4,4 -4,-685 106,-685 106,4 -4,4"/>
<!-- Node1 -->
<g id="node1" class="node"><title>Node1</title>
<polygon fill="#bfbfbf" stroke="black" points="0,-116.5 0,-316.5 102,-316.5 102,-116.5 0,-116.5"/>
<text text-anchor="middle" x="51" y="-304.5" font-family="Helvetica,sans-Serif" font-size="10.00">DefaultAuthUser</text>
<polyline fill="none" stroke="black" points="0,-297.5 102,-297.5 "/>
<text text-anchor="middle" x="51" y="-285.5" font-family="Helvetica,sans-Serif" font-size="10.00"> </text>
<polyline fill="none" stroke="black" points="0,-278.5 102,-278.5 "/>
<text text-anchor="start" x="8" y="-266.5" font-family="Helvetica,sans-Serif" font-size="10.00">+ login()</text>
<text text-anchor="start" x="8" y="-255.5" font-family="Helvetica,sans-Serif" font-size="10.00">+ authorize()</text>
<text text-anchor="start" x="8" y="-244.5" font-family="Helvetica,sans-Serif" font-size="10.00">+ setDefaultPolicy()</text>
<text text-anchor="start" x="8" y="-233.5" font-family="Helvetica,sans-Serif" font-size="10.00">+ getDefaultPolicy()</text>
<text text-anchor="start" x="8" y="-222.5" font-family="Helvetica,sans-Serif" font-size="10.00">+ getLoginTime()</text>
<text text-anchor="start" x="8" y="-211.5" font-family="Helvetica,sans-Serif" font-size="10.00">+ getUser()</text>
<text text-anchor="start" x="8" y="-200.5" font-family="Helvetica,sans-Serif" font-size="10.00">+ getUserId()</text>
<text text-anchor="start" x="8" y="-189.5" font-family="Helvetica,sans-Serif" font-size="10.00">+ setLogin()</text>
<text text-anchor="start" x="8" y="-178.5" font-family="Helvetica,sans-Serif" font-size="10.00">+ getLogin()</text>
<text text-anchor="start" x="8" y="-167.5" font-family="Helvetica,sans-Serif" font-size="10.00">+ setPassword()</text>
<text text-anchor="start" x="8" y="-156.5" font-family="Helvetica,sans-Serif" font-size="10.00">and 9 more...</text>
<text text-anchor="start" x="8" y="-145.5" font-family="Helvetica,sans-Serif" font-size="10.00">+ getByLogin()</text>
<text text-anchor="start" x="8" y="-134.5" font-family="Helvetica,sans-Serif" font-size="10.00"># addPolicies()</text>
<text text-anchor="start" x="8" y="-123.5" font-family="Helvetica,sans-Serif" font-size="10.00"># matchRoles()</text>
</g>
<!-- Node4 -->
<g id="node4" class="node"><title>Node4</title>
<g id="a_node4"><a xlink:href="classwcmf_1_1lib_1_1security_1_1principal_1_1impl_1_1_anonymous_user.html" target="_top" xlink:title="Anonymous user. ">
<polygon fill="white" stroke="black" points="6.5,-0.5 6.5,-79.5 95.5,-79.5 95.5,-0.5 6.5,-0.5"/>
<text text-anchor="middle" x="51" y="-67.5" font-family="Helvetica,sans-Serif" font-size="10.00">AnonymousUser</text>
<polyline fill="none" stroke="black" points="6.5,-60.5 95.5,-60.5 "/>
<text text-anchor="middle" x="51" y="-48.5" font-family="Helvetica,sans-Serif" font-size="10.00"> </text>
<polyline fill="none" stroke="black" points="6.5,-41.5 95.5,-41.5 "/>
<text text-anchor="start" x="14.5" y="-29.5" font-family="Helvetica,sans-Serif" font-size="10.00">+ __construct()</text>
<text text-anchor="start" x="14.5" y="-18.5" font-family="Helvetica,sans-Serif" font-size="10.00">+ login()</text>
<text text-anchor="start" x="14.5" y="-7.5" font-family="Helvetica,sans-Serif" font-size="10.00">+ getLogin()</text>
</a>
</g>
</g>
<!-- Node1&#45;&gt;Node4 -->
<g id="edge3" class="edge"><title>Node1&#45;&gt;Node4</title>
<path fill="none" stroke="midnightblue" d="M51,-106.094C51,-96.8262 51,-87.9152 51,-79.8186"/>
<polygon fill="none" stroke="midnightblue" points="47.5001,-106.27 51,-116.27 54.5001,-106.27 47.5001,-106.27"/>
</g>
<!-- Node2 -->
<g id="node2" class="node"><title>Node2</title>
<g id="a_node2"><a xlink:href="interfacewcmf_1_1lib_1_1security_1_1principal_1_1_auth_user.html" target="_top" xlink:title="AuthUser provides support for authentication/authorization purposes. ">
<polygon fill="white" stroke="black" points="0,-353.5 0,-454.5 102,-454.5 102,-353.5 0,-353.5"/>
<text text-anchor="middle" x="51" y="-442.5" font-family="Helvetica,sans-Serif" font-size="10.00">AuthUser</text>
<polyline fill="none" stroke="black" points="0,-435.5 102,-435.5 "/>
<text text-anchor="middle" x="51" y="-423.5" font-family="Helvetica,sans-Serif" font-size="10.00"> </text>
<polyline fill="none" stroke="black" points="0,-416.5 102,-416.5 "/>
<text text-anchor="start" x="8" y="-404.5" font-family="Helvetica,sans-Serif" font-size="10.00">+ login()</text>
<text text-anchor="start" x="8" y="-393.5" font-family="Helvetica,sans-Serif" font-size="10.00">+ authorize()</text>
<text text-anchor="start" x="8" y="-382.5" font-family="Helvetica,sans-Serif" font-size="10.00">+ setDefaultPolicy()</text>
<text text-anchor="start" x="8" y="-371.5" font-family="Helvetica,sans-Serif" font-size="10.00">+ getDefaultPolicy()</text>
<text text-anchor="start" x="8" y="-360.5" font-family="Helvetica,sans-Serif" font-size="10.00">+ getLoginTime()</text>
</a>
</g>
</g>
<!-- Node2&#45;&gt;Node1 -->
<g id="edge1" class="edge"><title>Node2&#45;&gt;Node1</title>
<path fill="none" stroke="midnightblue" d="M51,-343.169C51,-334.682 51,-325.772 51,-316.779"/>
<polygon fill="none" stroke="midnightblue" points="47.5001,-343.289 51,-353.289 54.5001,-343.289 47.5001,-343.289"/>
</g>
<!-- Node3 -->
<g id="node3" class="node"><title>Node3</title>
<g id="a_node3"><a xlink:href="interfacewcmf_1_1lib_1_1security_1_1principal_1_1_user.html" target="_top" xlink:title="User is the interface for users. ">
<polygon fill="white" stroke="black" points="0.5,-491.5 0.5,-680.5 101.5,-680.5 101.5,-491.5 0.5,-491.5"/>
<text text-anchor="middle" x="51" y="-668.5" font-family="Helvetica,sans-Serif" font-size="10.00">User</text>
<polyline fill="none" stroke="black" points="0.5,-661.5 101.5,-661.5 "/>
<text text-anchor="middle" x="51" y="-649.5" font-family="Helvetica,sans-Serif" font-size="10.00"> </text>
<polyline fill="none" stroke="black" points="0.5,-642.5 101.5,-642.5 "/>
<text text-anchor="start" x="8.5" y="-630.5" font-family="Helvetica,sans-Serif" font-size="10.00">+ getUserId()</text>
<text text-anchor="start" x="8.5" y="-619.5" font-family="Helvetica,sans-Serif" font-size="10.00">+ setLogin()</text>
<text text-anchor="start" x="8.5" y="-608.5" font-family="Helvetica,sans-Serif" font-size="10.00">+ getLogin()</text>
<text text-anchor="start" x="8.5" y="-597.5" font-family="Helvetica,sans-Serif" font-size="10.00">+ setPassword()</text>
<text text-anchor="start" x="8.5" y="-586.5" font-family="Helvetica,sans-Serif" font-size="10.00">+ getPassword()</text>
<text text-anchor="start" x="8.5" y="-575.5" font-family="Helvetica,sans-Serif" font-size="10.00">+ hashPassword()</text>
<text text-anchor="start" x="8.5" y="-564.5" font-family="Helvetica,sans-Serif" font-size="10.00">+ verifyPassword()</text>
<text text-anchor="start" x="8.5" y="-553.5" font-family="Helvetica,sans-Serif" font-size="10.00">+ setConfig()</text>
<text text-anchor="start" x="8.5" y="-542.5" font-family="Helvetica,sans-Serif" font-size="10.00">+ getConfig()</text>
<text text-anchor="start" x="8.5" y="-531.5" font-family="Helvetica,sans-Serif" font-size="10.00">+ hasRole()</text>
<text text-anchor="start" x="8.5" y="-520.5" font-family="Helvetica,sans-Serif" font-size="10.00">+ getRoles()</text>
<text text-anchor="start" x="8.5" y="-509.5" font-family="Helvetica,sans-Serif" font-size="10.00">+ resetRoleCache()</text>
<text text-anchor="start" x="8.5" y="-498.5" font-family="Helvetica,sans-Serif" font-size="10.00">+ getByLogin()</text>
</a>
</g>
</g>
<!-- Node3&#45;&gt;Node2 -->
<g id="edge2" class="edge"><title>Node3&#45;&gt;Node2</title>
<path fill="none" stroke="midnightblue" d="M51,-481.274C51,-472.08 51,-463.081 51,-454.673"/>
<polygon fill="none" stroke="midnightblue" points="47.5001,-481.309 51,-491.31 54.5001,-481.31 47.5001,-481.309"/>
</g>
</g>
</svg>
