<?xml version="1.0" encoding="UTF-8" standalone="no"?>
<!DOCTYPE svg PUBLIC "-//W3C//DTD SVG 1.1//EN"
 "http://www.w3.org/Graphics/SVG/1.1/DTD/svg11.dtd">
<!-- Generated by graphviz version 2.38.0 (20140413.2041)
 -->
<!-- Title: DefaultPrincipalFactory Pages: 1 -->
<svg width="125pt" height="226pt"
 viewBox="0.00 0.00 125.00 226.00" xmlns="http://www.w3.org/2000/svg" xmlns:xlink="http://www.w3.org/1999/xlink">
<g id="graph0" class="graph" transform="scale(1 1) rotate(0) translate(4 222)">
<title>DefaultPrincipalFactory</title>
<polygon fill="white" stroke="none" points="-4,4 -4,-222 121,-222 121,4 -4,4"/>
<!-- Node1 -->
<g id="node1" class="node"><title>Node1</title>
<polygon fill="#bfbfbf" stroke="black" points="0,-0.5 0,-101.5 117,-101.5 117,-0.5 0,-0.5"/>
<text text-anchor="middle" x="58.5" y="-89.5" font-family="Helvetica,sans-Serif" font-size="10.00">DefaultPrincipalFactory</text>
<polyline fill="none" stroke="black" points="0,-82.5 117,-82.5 "/>
<text text-anchor="middle" x="58.5" y="-70.5" font-family="Helvetica,sans-Serif" font-size="10.00"> </text>
<polyline fill="none" stroke="black" points="0,-63.5 117,-63.5 "/>
<text text-anchor="start" x="8" y="-51.5" font-family="Helvetica,sans-Serif" font-size="10.00">+ setUserType()</text>
<text text-anchor="start" x="8" y="-40.5" font-family="Helvetica,sans-Serif" font-size="10.00">+ setRoleType()</text>
<text text-anchor="start" x="8" y="-29.5" font-family="Helvetica,sans-Serif" font-size="10.00">+ getUser()</text>
<text text-anchor="start" x="8" y="-18.5" font-family="Helvetica,sans-Serif" font-size="10.00">+ getUserRoles()</text>
<text text-anchor="start" x="8" y="-7.5" font-family="Helvetica,sans-Serif" font-size="10.00">+ getRole()</text>
</g>
<!-- Node2 -->
<g id="node2" class="node"><title>Node2</title>
<g id="a_node2"><a xlink:href="interfacewcmf_1_1lib_1_1security_1_1principal_1_1_principal_factory.html" target="_top" xlink:title="PrincipalFactory implementations are used to retrieve User and Role instances. ">
<polygon fill="white" stroke="black" points="13.5,-138.5 13.5,-217.5 103.5,-217.5 103.5,-138.5 13.5,-138.5"/>
<text text-anchor="middle" x="58.5" y="-205.5" font-family="Helvetica,sans-Serif" font-size="10.00">PrincipalFactory</text>
<polyline fill="none" stroke="black" points="13.5,-198.5 103.5,-198.5 "/>
<text text-anchor="middle" x="58.5" y="-186.5" font-family="Helvetica,sans-Serif" font-size="10.00"> </text>
<polyline fill="none" stroke="black" points="13.5,-179.5 103.5,-179.5 "/>
<text text-anchor="start" x="21.5" y="-167.5" font-family="Helvetica,sans-Serif" font-size="10.00">+ getUser()</text>
<text text-anchor="start" x="21.5" y="-156.5" font-family="Helvetica,sans-Serif" font-size="10.00">+ getUserRoles()</text>
<text text-anchor="start" x="21.5" y="-145.5" font-family="Helvetica,sans-Serif" font-size="10.00">+ getRole()</text>
</a>
</g>
</g>
<!-- Node2&#45;&gt;Node1 -->
<g id="edge1" class="edge"><title>Node2&#45;&gt;Node1</title>
<path fill="none" stroke="midnightblue" d="M58.5,-128.406C58.5,-119.639 58.5,-110.488 58.5,-101.691"/>
<polygon fill="none" stroke="midnightblue" points="55.0001,-128.476 58.5,-138.476 62.0001,-128.476 55.0001,-128.476"/>
</g>
</g>
</svg>
