<?xml version="1.0" encoding="UTF-8" standalone="no"?>
<!DOCTYPE svg PUBLIC "-//W3C//DTD SVG 1.1//EN"
 "http://www.w3.org/Graphics/SVG/1.1/DTD/svg11.dtd">
<!-- Generated by graphviz version 2.38.0 (20140413.2041)
 -->
<!-- Title: TreeController Pages: 1 -->
<svg width="152pt" height="336pt"
 viewBox="0.00 0.00 152.00 336.00" xmlns="http://www.w3.org/2000/svg" xmlns:xlink="http://www.w3.org/1999/xlink">
<g id="graph0" class="graph" transform="scale(1 1) rotate(0) translate(4 332)">
<title>TreeController</title>
<polygon fill="white" stroke="none" points="-4,4 -4,-332 148,-332 148,4 -4,4"/>
<!-- Node1 -->
<g id="node1" class="node"><title>Node1</title>
<polygon fill="#bfbfbf" stroke="black" points="21,-0.5 21,-134.5 123,-134.5 123,-0.5 21,-0.5"/>
<text text-anchor="middle" x="72" y="-122.5" font-family="Helvetica,sans-Serif" font-size="10.00">TreeController</text>
<polyline fill="none" stroke="black" points="21,-115.5 123,-115.5 "/>
<text text-anchor="middle" x="72" y="-103.5" font-family="Helvetica,sans-Serif" font-size="10.00"> </text>
<polyline fill="none" stroke="black" points="21,-96.5 123,-96.5 "/>
<text text-anchor="start" x="29" y="-84.5" font-family="Helvetica,sans-Serif" font-size="10.00"># doExecute()</text>
<text text-anchor="start" x="29" y="-73.5" font-family="Helvetica,sans-Serif" font-size="10.00"># getChildren()</text>
<text text-anchor="start" x="29" y="-62.5" font-family="Helvetica,sans-Serif" font-size="10.00"># getRootOIDs()</text>
<text text-anchor="start" x="29" y="-51.5" font-family="Helvetica,sans-Serif" font-size="10.00"># getViewNode()</text>
<text text-anchor="start" x="29" y="-40.5" font-family="Helvetica,sans-Serif" font-size="10.00"># isVisible()</text>
<text text-anchor="start" x="29" y="-29.5" font-family="Helvetica,sans-Serif" font-size="10.00"># getDisplayText()</text>
<text text-anchor="start" x="29" y="-18.5" font-family="Helvetica,sans-Serif" font-size="10.00"># getRootTypes()</text>
<text text-anchor="start" x="29" y="-7.5" font-family="Helvetica,sans-Serif" font-size="10.00"># isRootTypeNode()</text>
</g>
<!-- Node2 -->
<g id="node2" class="node"><title>Node2</title>
<g id="a_node2"><a xlink:href="classwcmf_1_1lib_1_1presentation_1_1_controller.html" target="_top" xlink:title="Controller is the base class of all controllers. ">
<polygon fill="white" stroke="black" points="0,-171.5 0,-327.5 144,-327.5 144,-171.5 0,-171.5"/>
<text text-anchor="middle" x="72" y="-315.5" font-family="Helvetica,sans-Serif" font-size="10.00">Controller</text>
<polyline fill="none" stroke="black" points="0,-308.5 144,-308.5 "/>
<text text-anchor="middle" x="72" y="-296.5" font-family="Helvetica,sans-Serif" font-size="10.00"> </text>
<polyline fill="none" stroke="black" points="0,-289.5 144,-289.5 "/>
<text text-anchor="start" x="8" y="-277.5" font-family="Helvetica,sans-Serif" font-size="10.00">+ initialize()</text>
<text text-anchor="start" x="8" y="-266.5" font-family="Helvetica,sans-Serif" font-size="10.00">+ execute()</text>
<text text-anchor="start" x="8" y="-255.5" font-family="Helvetica,sans-Serif" font-size="10.00">+ getRequest()</text>
<text text-anchor="start" x="8" y="-244.5" font-family="Helvetica,sans-Serif" font-size="10.00">+ getResponse()</text>
<text text-anchor="start" x="8" y="-233.5" font-family="Helvetica,sans-Serif" font-size="10.00"># validate()</text>
<text text-anchor="start" x="8" y="-222.5" font-family="Helvetica,sans-Serif" font-size="10.00"># doExecute()</text>
<text text-anchor="start" x="8" y="-211.5" font-family="Helvetica,sans-Serif" font-size="10.00"># executeSubAction()</text>
<text text-anchor="start" x="8" y="-200.5" font-family="Helvetica,sans-Serif" font-size="10.00"># assignResponseDefaults()</text>
<text text-anchor="start" x="8" y="-189.5" font-family="Helvetica,sans-Serif" font-size="10.00"># isLocalizedRequest()</text>
<text text-anchor="start" x="8" y="-178.5" font-family="Helvetica,sans-Serif" font-size="10.00"># checkLanguageParameter()</text>
</a>
</g>
</g>
<!-- Node2&#45;&gt;Node1 -->
<g id="edge1" class="edge"><title>Node2&#45;&gt;Node1</title>
<path fill="none" stroke="midnightblue" d="M72,-161.308C72,-152.356 72,-143.366 72,-134.695"/>
<polygon fill="none" stroke="midnightblue" points="68.5001,-161.38 72,-171.38 75.5001,-161.381 68.5001,-161.38"/>
</g>
</g>
</svg>
