<?xml version="1.0" encoding="UTF-8" standalone="no"?>
<!DOCTYPE svg PUBLIC "-//W3C//DTD SVG 1.1//EN"
 "http://www.w3.org/Graphics/SVG/1.1/DTD/svg11.dtd">
<!-- Generated by graphviz version 2.38.0 (20140413.2041)
 -->
<!-- Title: SoapFormat Pages: 1 -->
<svg width="122pt" height="590pt"
 viewBox="0.00 0.00 122.00 590.00" xmlns="http://www.w3.org/2000/svg" xmlns:xlink="http://www.w3.org/1999/xlink">
<g id="graph0" class="graph" transform="scale(1 1) rotate(0) translate(4 586)">
<title>SoapFormat</title>
<polygon fill="white" stroke="none" points="-4,4 -4,-586 118,-586 118,4 -4,4"/>
<!-- Node1 -->
<g id="node1" class="node"><title>Node1</title>
<polygon fill="#bfbfbf" stroke="black" points="5,-0.5 5,-101.5 109,-101.5 109,-0.5 5,-0.5"/>
<text text-anchor="middle" x="57" y="-89.5" font-family="Helvetica,sans-Serif" font-size="10.00">SoapFormat</text>
<polyline fill="none" stroke="black" points="5,-82.5 109,-82.5 "/>
<text text-anchor="start" x="13" y="-70.5" font-family="Helvetica,sans-Serif" font-size="10.00"># $_serializer</text>
<polyline fill="none" stroke="black" points="5,-63.5 109,-63.5 "/>
<text text-anchor="start" x="13" y="-51.5" font-family="Helvetica,sans-Serif" font-size="10.00">+ getMimeType()</text>
<text text-anchor="start" x="13" y="-40.5" font-family="Helvetica,sans-Serif" font-size="10.00">+ setSerializer()</text>
<text text-anchor="start" x="13" y="-29.5" font-family="Helvetica,sans-Serif" font-size="10.00"># isSerializedNode()</text>
<text text-anchor="start" x="13" y="-18.5" font-family="Helvetica,sans-Serif" font-size="10.00"># serializeNode()</text>
<text text-anchor="start" x="13" y="-7.5" font-family="Helvetica,sans-Serif" font-size="10.00"># deserializeNode()</text>
</g>
<!-- Node2 -->
<g id="node2" class="node"><title>Node2</title>
<g id="a_node2"><a xlink:href="classwcmf_1_1lib_1_1presentation_1_1format_1_1impl_1_1_hierarchical_format.html" target="_top" xlink:title="HierarchicalFormat maybe used as base class for formats that are able to represent hierarchical data ...">
<polygon fill="white" stroke="black" points="0,-138.5 0,-250.5 114,-250.5 114,-138.5 0,-138.5"/>
<text text-anchor="middle" x="57" y="-238.5" font-family="Helvetica,sans-Serif" font-size="10.00">HierarchicalFormat</text>
<polyline fill="none" stroke="black" points="0,-231.5 114,-231.5 "/>
<text text-anchor="middle" x="57" y="-219.5" font-family="Helvetica,sans-Serif" font-size="10.00"> </text>
<polyline fill="none" stroke="black" points="0,-212.5 114,-212.5 "/>
<text text-anchor="start" x="8" y="-200.5" font-family="Helvetica,sans-Serif" font-size="10.00"># deserializeValues()</text>
<text text-anchor="start" x="8" y="-189.5" font-family="Helvetica,sans-Serif" font-size="10.00"># serializeValues()</text>
<text text-anchor="start" x="8" y="-178.5" font-family="Helvetica,sans-Serif" font-size="10.00"># isSerializedNode()</text>
<text text-anchor="start" x="8" y="-167.5" font-family="Helvetica,sans-Serif" font-size="10.00"># isDeserializedNode()</text>
<text text-anchor="start" x="8" y="-156.5" font-family="Helvetica,sans-Serif" font-size="10.00"># serializeNode()</text>
<text text-anchor="start" x="8" y="-145.5" font-family="Helvetica,sans-Serif" font-size="10.00"># deserializeNode()</text>
</a>
</g>
</g>
<!-- Node2&#45;&gt;Node1 -->
<g id="edge1" class="edge"><title>Node2&#45;&gt;Node1</title>
<path fill="none" stroke="midnightblue" d="M57,-128.344C57,-119.375 57,-110.286 57,-101.658"/>
<polygon fill="none" stroke="midnightblue" points="53.5001,-128.387 57,-138.387 60.5001,-128.387 53.5001,-128.387"/>
</g>
<!-- Node3 -->
<g id="node3" class="node"><title>Node3</title>
<g id="a_node3"><a xlink:href="classwcmf_1_1lib_1_1presentation_1_1format_1_1impl_1_1_abstract_format.html" target="_top" xlink:title="AbstractFormat maybe used as base class for specialized formats. ">
<polygon fill="white" stroke="black" points="3.5,-287.5 3.5,-465.5 110.5,-465.5 110.5,-287.5 3.5,-287.5"/>
<text text-anchor="middle" x="57" y="-453.5" font-family="Helvetica,sans-Serif" font-size="10.00">AbstractFormat</text>
<polyline fill="none" stroke="black" points="3.5,-446.5 110.5,-446.5 "/>
<text text-anchor="middle" x="57" y="-434.5" font-family="Helvetica,sans-Serif" font-size="10.00"> </text>
<polyline fill="none" stroke="black" points="3.5,-427.5 110.5,-427.5 "/>
<text text-anchor="start" x="11.5" y="-415.5" font-family="Helvetica,sans-Serif" font-size="10.00">+ deserialize()</text>
<text text-anchor="start" x="11.5" y="-404.5" font-family="Helvetica,sans-Serif" font-size="10.00">+ serialize()</text>
<text text-anchor="start" x="11.5" y="-393.5" font-family="Helvetica,sans-Serif" font-size="10.00"># getRequest()</text>
<text text-anchor="start" x="11.5" y="-382.5" font-family="Helvetica,sans-Serif" font-size="10.00"># getResponse()</text>
<text text-anchor="start" x="11.5" y="-371.5" font-family="Helvetica,sans-Serif" font-size="10.00"># beforeDeserialize()</text>
<text text-anchor="start" x="11.5" y="-360.5" font-family="Helvetica,sans-Serif" font-size="10.00"># deserializeValues()</text>
<text text-anchor="start" x="11.5" y="-349.5" font-family="Helvetica,sans-Serif" font-size="10.00"># afterDeserialize()</text>
<text text-anchor="start" x="11.5" y="-338.5" font-family="Helvetica,sans-Serif" font-size="10.00"># beforeSerialize()</text>
<text text-anchor="start" x="11.5" y="-327.5" font-family="Helvetica,sans-Serif" font-size="10.00"># serializeValues()</text>
<text text-anchor="start" x="11.5" y="-316.5" font-family="Helvetica,sans-Serif" font-size="10.00"># afterSerialize()</text>
<text text-anchor="start" x="11.5" y="-305.5" font-family="Helvetica,sans-Serif" font-size="10.00"># getNode()</text>
<text text-anchor="start" x="11.5" y="-294.5" font-family="Helvetica,sans-Serif" font-size="10.00"># filterValue()</text>
</a>
</g>
</g>
<!-- Node3&#45;&gt;Node2 -->
<g id="edge2" class="edge"><title>Node3&#45;&gt;Node2</title>
<path fill="none" stroke="midnightblue" d="M57,-277.125C57,-268.097 57,-259.183 57,-250.75"/>
<polygon fill="none" stroke="midnightblue" points="53.5001,-277.346 57,-287.346 60.5001,-277.346 53.5001,-277.346"/>
</g>
<!-- Node4 -->
<g id="node4" class="node"><title>Node4</title>
<g id="a_node4"><a xlink:href="interfacewcmf_1_1lib_1_1presentation_1_1format_1_1_format.html" target="_top" xlink:title="Format defines the interface for all formatter classes. ">
<polygon fill="white" stroke="black" points="12,-502.5 12,-581.5 102,-581.5 102,-502.5 12,-502.5"/>
<text text-anchor="middle" x="57" y="-569.5" font-family="Helvetica,sans-Serif" font-size="10.00">Format</text>
<polyline fill="none" stroke="black" points="12,-562.5 102,-562.5 "/>
<text text-anchor="middle" x="57" y="-550.5" font-family="Helvetica,sans-Serif" font-size="10.00"> </text>
<polyline fill="none" stroke="black" points="12,-543.5 102,-543.5 "/>
<text text-anchor="start" x="20" y="-531.5" font-family="Helvetica,sans-Serif" font-size="10.00">+ getMimeType()</text>
<text text-anchor="start" x="20" y="-520.5" font-family="Helvetica,sans-Serif" font-size="10.00">+ deserialize()</text>
<text text-anchor="start" x="20" y="-509.5" font-family="Helvetica,sans-Serif" font-size="10.00">+ serialize()</text>
</a>
</g>
</g>
<!-- Node4&#45;&gt;Node3 -->
<g id="edge3" class="edge"><title>Node4&#45;&gt;Node3</title>
<path fill="none" stroke="midnightblue" d="M57,-492.247C57,-483.789 57,-474.764 57,-465.632"/>
<polygon fill="none" stroke="midnightblue" points="53.5001,-492.253 57,-502.253 60.5001,-492.253 53.5001,-492.253"/>
</g>
</g>
</svg>
