<?xml version="1.0" encoding="UTF-8" standalone="no"?>
<!DOCTYPE svg PUBLIC "-//W3C//DTD SVG 1.1//EN"
 "http://www.w3.org/Graphics/SVG/1.1/DTD/svg11.dtd">
<!-- Generated by graphviz version 2.38.0 (20140413.2041)
 -->
<!-- Title: PersistenceActionKeyProvider Pages: 1 -->
<svg width="156pt" height="226pt"
 viewBox="0.00 0.00 156.00 226.00" xmlns="http://www.w3.org/2000/svg" xmlns:xlink="http://www.w3.org/1999/xlink">
<g id="graph0" class="graph" transform="scale(1 1) rotate(0) translate(4 222)">
<title>PersistenceActionKeyProvider</title>
<polygon fill="white" stroke="none" points="-4,4 -4,-222 152,-222 152,4 -4,4"/>
<!-- Node1 -->
<g id="node1" class="node"><title>Node1</title>
<polygon fill="#bfbfbf" stroke="black" points="0,-0.5 0,-101.5 148,-101.5 148,-0.5 0,-0.5"/>
<text text-anchor="middle" x="74" y="-89.5" font-family="Helvetica,sans-Serif" font-size="10.00">PersistenceActionKeyProvider</text>
<polyline fill="none" stroke="black" points="0,-82.5 148,-82.5 "/>
<text text-anchor="middle" x="74" y="-70.5" font-family="Helvetica,sans-Serif" font-size="10.00"> </text>
<polyline fill="none" stroke="black" points="0,-63.5 148,-63.5 "/>
<text text-anchor="start" x="8" y="-51.5" font-family="Helvetica,sans-Serif" font-size="10.00">+ setEntityType()</text>
<text text-anchor="start" x="8" y="-40.5" font-family="Helvetica,sans-Serif" font-size="10.00">+ setValueMap()</text>
<text text-anchor="start" x="8" y="-29.5" font-family="Helvetica,sans-Serif" font-size="10.00">+ containsKey()</text>
<text text-anchor="start" x="8" y="-18.5" font-family="Helvetica,sans-Serif" font-size="10.00">+ getKeyValue()</text>
<text text-anchor="start" x="8" y="-7.5" font-family="Helvetica,sans-Serif" font-size="10.00">+ getCacheId()</text>
</g>
<!-- Node2 -->
<g id="node2" class="node"><title>Node2</title>
<g id="a_node2"><a xlink:href="interfacewcmf_1_1lib_1_1config_1_1_action_key_provider.html" target="_top" xlink:title="Implementations of ActionKeyProvider search for action keys. ">
<polygon fill="white" stroke="black" points="26,-138.5 26,-217.5 122,-217.5 122,-138.5 26,-138.5"/>
<text text-anchor="middle" x="74" y="-205.5" font-family="Helvetica,sans-Serif" font-size="10.00">ActionKeyProvider</text>
<polyline fill="none" stroke="black" points="26,-198.5 122,-198.5 "/>
<text text-anchor="middle" x="74" y="-186.5" font-family="Helvetica,sans-Serif" font-size="10.00"> </text>
<polyline fill="none" stroke="black" points="26,-179.5 122,-179.5 "/>
<text text-anchor="start" x="34" y="-167.5" font-family="Helvetica,sans-Serif" font-size="10.00">+ containsKey()</text>
<text text-anchor="start" x="34" y="-156.5" font-family="Helvetica,sans-Serif" font-size="10.00">+ getKeyValue()</text>
<text text-anchor="start" x="34" y="-145.5" font-family="Helvetica,sans-Serif" font-size="10.00">+ getCacheId()</text>
</a>
</g>
</g>
<!-- Node2&#45;&gt;Node1 -->
<g id="edge1" class="edge"><title>Node2&#45;&gt;Node1</title>
<path fill="none" stroke="midnightblue" d="M74,-128.406C74,-119.639 74,-110.488 74,-101.691"/>
<polygon fill="none" stroke="midnightblue" points="70.5001,-128.476 74,-138.476 77.5001,-128.476 70.5001,-128.476"/>
</g>
</g>
</svg>
