<?xml version="1.0" encoding="UTF-8" standalone="no"?>
<!DOCTYPE svg PUBLIC "-//W3C//DTD SVG 1.1//EN"
 "http://www.w3.org/Graphics/SVG/1.1/DTD/svg11.dtd">
<!-- Generated by graphviz version 2.38.0 (20140413.2041)
 -->
<!-- Title: Event Pages: 1 -->
<svg width="554pt" height="259pt"
 viewBox="0.00 0.00 554.00 259.00" xmlns="http://www.w3.org/2000/svg" xmlns:xlink="http://www.w3.org/1999/xlink">
<g id="graph0" class="graph" transform="scale(1 1) rotate(0) translate(4 255)">
<title>Event</title>
<polygon fill="white" stroke="none" points="-4,4 -4,-255 550,-255 550,4 -4,4"/>
<!-- Node1 -->
<g id="node1" class="node"><title>Node1</title>
<polygon fill="#bfbfbf" stroke="black" points="184,-182.5 184,-250.5 286,-250.5 286,-182.5 184,-182.5"/>
<text text-anchor="middle" x="235" y="-238.5" font-family="Helvetica,sans-Serif" font-size="10.00">Event</text>
<polyline fill="none" stroke="black" points="184,-231.5 286,-231.5 "/>
<text text-anchor="middle" x="235" y="-219.5" font-family="Helvetica,sans-Serif" font-size="10.00"> </text>
<polyline fill="none" stroke="black" points="184,-212.5 286,-212.5 "/>
<text text-anchor="start" x="192" y="-200.5" font-family="Helvetica,sans-Serif" font-size="10.00">+ stopPropagation()</text>
<text text-anchor="start" x="192" y="-189.5" font-family="Helvetica,sans-Serif" font-size="10.00">+ isStopped()</text>
</g>
<!-- Node2 -->
<g id="node2" class="node"><title>Node2</title>
<g id="a_node2"><a xlink:href="classwcmf_1_1lib_1_1persistence_1_1_property_change_event.html" target="_top" xlink:title="PropertyChangeEvent signals a change of a property of a PersistentObject instance. ">
<polygon fill="white" stroke="black" points="0,-22.5 0,-123.5 110,-123.5 110,-22.5 0,-22.5"/>
<text text-anchor="middle" x="55" y="-111.5" font-family="Helvetica,sans-Serif" font-size="10.00">PropertyChangeEvent</text>
<polyline fill="none" stroke="black" points="0,-104.5 110,-104.5 "/>
<text text-anchor="start" x="8" y="-92.5" font-family="Helvetica,sans-Serif" font-size="10.00">+ NAME</text>
<polyline fill="none" stroke="black" points="0,-85.5 110,-85.5 "/>
<text text-anchor="start" x="8" y="-73.5" font-family="Helvetica,sans-Serif" font-size="10.00">+ __construct()</text>
<text text-anchor="start" x="8" y="-62.5" font-family="Helvetica,sans-Serif" font-size="10.00">+ getObject()</text>
<text text-anchor="start" x="8" y="-51.5" font-family="Helvetica,sans-Serif" font-size="10.00">+ getPropertyName()</text>
<text text-anchor="start" x="8" y="-40.5" font-family="Helvetica,sans-Serif" font-size="10.00">+ getOldValue()</text>
<text text-anchor="start" x="8" y="-29.5" font-family="Helvetica,sans-Serif" font-size="10.00">+ getNewValue()</text>
</a>
</g>
</g>
<!-- Node1&#45;&gt;Node2 -->
<g id="edge1" class="edge"><title>Node1&#45;&gt;Node2</title>
<path fill="none" stroke="midnightblue" d="M175.164,-184.331C156.373,-173.339 136.088,-160.16 119,-146 110.887,-139.277 102.891,-131.503 95.4462,-123.602"/>
<polygon fill="none" stroke="midnightblue" points="173.546,-187.438 183.96,-189.384 177.033,-181.368 173.546,-187.438"/>
</g>
<!-- Node3 -->
<g id="node3" class="node"><title>Node3</title>
<g id="a_node3"><a xlink:href="classwcmf_1_1lib_1_1persistence_1_1_state_change_event.html" target="_top" xlink:title="StateChangeEvent signals a change of the state of a PersistentObject instance. ">
<polygon fill="white" stroke="black" points="128.5,-28 128.5,-118 225.5,-118 225.5,-28 128.5,-28"/>
<text text-anchor="middle" x="177" y="-106" font-family="Helvetica,sans-Serif" font-size="10.00">StateChangeEvent</text>
<polyline fill="none" stroke="black" points="128.5,-99 225.5,-99 "/>
<text text-anchor="start" x="136.5" y="-87" font-family="Helvetica,sans-Serif" font-size="10.00">+ NAME</text>
<polyline fill="none" stroke="black" points="128.5,-80 225.5,-80 "/>
<text text-anchor="start" x="136.5" y="-68" font-family="Helvetica,sans-Serif" font-size="10.00">+ __construct()</text>
<text text-anchor="start" x="136.5" y="-57" font-family="Helvetica,sans-Serif" font-size="10.00">+ getObject()</text>
<text text-anchor="start" x="136.5" y="-46" font-family="Helvetica,sans-Serif" font-size="10.00">+ getOldValue()</text>
<text text-anchor="start" x="136.5" y="-35" font-family="Helvetica,sans-Serif" font-size="10.00">+ getNewValue()</text>
</a>
</g>
</g>
<!-- Node1&#45;&gt;Node3 -->
<g id="edge2" class="edge"><title>Node1&#45;&gt;Node3</title>
<path fill="none" stroke="midnightblue" d="M217.588,-173.02C210.493,-155.713 202.292,-135.703 195.126,-118.221"/>
<polygon fill="none" stroke="midnightblue" points="214.37,-174.399 221.402,-182.325 220.847,-171.744 214.37,-174.399"/>
</g>
<!-- Node4 -->
<g id="node4" class="node"><title>Node4</title>
<g id="a_node4"><a xlink:href="classwcmf_1_1lib_1_1persistence_1_1_value_change_event.html" target="_top" xlink:title="ValueChangeEvent signals a change of a value of a PersistentObject instance. ">
<polygon fill="white" stroke="black" points="244,-22.5 244,-123.5 342,-123.5 342,-22.5 244,-22.5"/>
<text text-anchor="middle" x="293" y="-111.5" font-family="Helvetica,sans-Serif" font-size="10.00">ValueChangeEvent</text>
<polyline fill="none" stroke="black" points="244,-104.5 342,-104.5 "/>
<text text-anchor="start" x="252" y="-92.5" font-family="Helvetica,sans-Serif" font-size="10.00">+ NAME</text>
<polyline fill="none" stroke="black" points="244,-85.5 342,-85.5 "/>
<text text-anchor="start" x="252" y="-73.5" font-family="Helvetica,sans-Serif" font-size="10.00">+ __construct()</text>
<text text-anchor="start" x="252" y="-62.5" font-family="Helvetica,sans-Serif" font-size="10.00">+ getObject()</text>
<text text-anchor="start" x="252" y="-51.5" font-family="Helvetica,sans-Serif" font-size="10.00">+ getValueName()</text>
<text text-anchor="start" x="252" y="-40.5" font-family="Helvetica,sans-Serif" font-size="10.00">+ getOldValue()</text>
<text text-anchor="start" x="252" y="-29.5" font-family="Helvetica,sans-Serif" font-size="10.00">+ getNewValue()</text>
</a>
</g>
</g>
<!-- Node1&#45;&gt;Node4 -->
<g id="edge3" class="edge"><title>Node1&#45;&gt;Node4</title>
<path fill="none" stroke="midnightblue" d="M252.436,-172.963C258.806,-157.422 266.066,-139.71 272.667,-123.606"/>
<polygon fill="none" stroke="midnightblue" points="249.153,-171.744 248.598,-182.325 255.63,-174.399 249.153,-171.744"/>
</g>
<!-- Node5 -->
<g id="node5" class="node"><title>Node5</title>
<g id="a_node5"><a xlink:href="classwcmf_1_1lib_1_1presentation_1_1_application_event.html" target="_top" xlink:title="ApplicationEvent instances are fired at different stages of the program flow. ">
<polygon fill="white" stroke="black" points="360,-0.5 360,-145.5 546,-145.5 546,-0.5 360,-0.5"/>
<text text-anchor="middle" x="453" y="-133.5" font-family="Helvetica,sans-Serif" font-size="10.00">ApplicationEvent</text>
<polyline fill="none" stroke="black" points="360,-126.5 546,-126.5 "/>
<text text-anchor="start" x="368" y="-114.5" font-family="Helvetica,sans-Serif" font-size="10.00">+ NAME</text>
<text text-anchor="start" x="368" y="-103.5" font-family="Helvetica,sans-Serif" font-size="10.00">+ BEFORE_ROUTE_ACTION</text>
<text text-anchor="start" x="368" y="-92.5" font-family="Helvetica,sans-Serif" font-size="10.00">+ BEFORE_INITIALIZE_CONTROLLER</text>
<text text-anchor="start" x="368" y="-81.5" font-family="Helvetica,sans-Serif" font-size="10.00">+ BEFORE_EXECUTE_CONTROLLER</text>
<text text-anchor="start" x="368" y="-70.5" font-family="Helvetica,sans-Serif" font-size="10.00">+ AFTER_EXECUTE_CONTROLLER</text>
<polyline fill="none" stroke="black" points="360,-63.5 546,-63.5 "/>
<text text-anchor="start" x="368" y="-51.5" font-family="Helvetica,sans-Serif" font-size="10.00">+ __construct()</text>
<text text-anchor="start" x="368" y="-40.5" font-family="Helvetica,sans-Serif" font-size="10.00">+ getStage()</text>
<text text-anchor="start" x="368" y="-29.5" font-family="Helvetica,sans-Serif" font-size="10.00">+ getRequest()</text>
<text text-anchor="start" x="368" y="-18.5" font-family="Helvetica,sans-Serif" font-size="10.00">+ getResponse()</text>
<text text-anchor="start" x="368" y="-7.5" font-family="Helvetica,sans-Serif" font-size="10.00">+ getController()</text>
</a>
</g>
</g>
<!-- Node1&#45;&gt;Node5 -->
<g id="edge4" class="edge"><title>Node1&#45;&gt;Node5</title>
<path fill="none" stroke="midnightblue" d="M294.824,-180.818C313.037,-169.95 332.994,-157.725 351,-146 353.906,-144.107 356.848,-142.17 359.808,-140.201"/>
<polygon fill="none" stroke="midnightblue" points="292.85,-177.92 286.04,-186.036 296.425,-183.938 292.85,-177.92"/>
</g>
</g>
</svg>
