<?xml version="1.0" encoding="UTF-8" standalone="no"?>
<!DOCTYPE svg PUBLIC "-//W3C//DTD SVG 1.1//EN"
 "http://www.w3.org/Graphics/SVG/1.1/DTD/svg11.dtd">
<!-- Generated by graphviz version 2.38.0 (20140413.2041)
 -->
<!-- Title: BatchController Pages: 1 -->
<svg width="574pt" height="617pt"
 viewBox="0.00 0.00 573.50 617.00" xmlns="http://www.w3.org/2000/svg" xmlns:xlink="http://www.w3.org/1999/xlink">
<g id="graph0" class="graph" transform="scale(1 1) rotate(0) translate(4 613)">
<title>BatchController</title>
<polygon fill="white" stroke="none" points="-4,4 -4,-613 569.5,-613 569.5,4 -4,4"/>
<!-- Node1 -->
<g id="node1" class="node"><title>Node1</title>
<polygon fill="#bfbfbf" stroke="black" points="168,-226.5 168,-415.5 347,-415.5 347,-226.5 168,-226.5"/>
<text text-anchor="middle" x="257.5" y="-403.5" font-family="Helvetica,sans-Serif" font-size="10.00">BatchController</text>
<polyline fill="none" stroke="black" points="168,-396.5 347,-396.5 "/>
<text text-anchor="start" x="176" y="-384.5" font-family="Helvetica,sans-Serif" font-size="10.00">+ ONE_CALL_SESSION_VARNAME</text>
<text text-anchor="start" x="176" y="-373.5" font-family="Helvetica,sans-Serif" font-size="10.00">+ STEP_SESSION_VARNAME</text>
<text text-anchor="start" x="176" y="-362.5" font-family="Helvetica,sans-Serif" font-size="10.00">+ NUM_STEPS_VARNAME</text>
<text text-anchor="start" x="176" y="-351.5" font-family="Helvetica,sans-Serif" font-size="10.00">+ DOWNLOAD_STEP</text>
<text text-anchor="start" x="176" y="-340.5" font-family="Helvetica,sans-Serif" font-size="10.00">+ WORK_PACKAGES_VARNAME</text>
<polyline fill="none" stroke="black" points="168,-333.5 347,-333.5 "/>
<text text-anchor="start" x="176" y="-321.5" font-family="Helvetica,sans-Serif" font-size="10.00">+ initialize()</text>
<text text-anchor="start" x="176" y="-310.5" font-family="Helvetica,sans-Serif" font-size="10.00"># doExecute()</text>
<text text-anchor="start" x="176" y="-299.5" font-family="Helvetica,sans-Serif" font-size="10.00"># getStepNumber()</text>
<text text-anchor="start" x="176" y="-288.5" font-family="Helvetica,sans-Serif" font-size="10.00"># addWorkPackage()</text>
<text text-anchor="start" x="176" y="-277.5" font-family="Helvetica,sans-Serif" font-size="10.00"># processPart()</text>
<text text-anchor="start" x="176" y="-266.5" font-family="Helvetica,sans-Serif" font-size="10.00"># getNumberOfSteps()</text>
<text text-anchor="start" x="176" y="-255.5" font-family="Helvetica,sans-Serif" font-size="10.00"># getDisplayText()</text>
<text text-anchor="start" x="176" y="-244.5" font-family="Helvetica,sans-Serif" font-size="10.00"># getDownloadFile()</text>
<text text-anchor="start" x="176" y="-233.5" font-family="Helvetica,sans-Serif" font-size="10.00"># getWorkPackage()</text>
</g>
<!-- Node3 -->
<g id="node3" class="node"><title>Node3</title>
<g id="a_node3"><a xlink:href="classwcmf_1_1application_1_1controller_1_1_batch_display_controller.html" target="_top" xlink:title="BatchDisplayController is used to load a tree of Node instances recursivly and return them in lists o...">
<polygon fill="white" stroke="black" points="0,-17 0,-173 123,-173 123,-17 0,-17"/>
<text text-anchor="middle" x="61.5" y="-161" font-family="Helvetica,sans-Serif" font-size="10.00">BatchDisplayController</text>
<polyline fill="none" stroke="black" points="0,-154 123,-154 "/>
<text text-anchor="middle" x="61.5" y="-142" font-family="Helvetica,sans-Serif" font-size="10.00"> </text>
<polyline fill="none" stroke="black" points="0,-135 123,-135 "/>
<text text-anchor="start" x="8" y="-123" font-family="Helvetica,sans-Serif" font-size="10.00">+ initialize()</text>
<text text-anchor="start" x="8" y="-112" font-family="Helvetica,sans-Serif" font-size="10.00"># validate()</text>
<text text-anchor="start" x="8" y="-101" font-family="Helvetica,sans-Serif" font-size="10.00"># getWorkPackage()</text>
<text text-anchor="start" x="8" y="-90" font-family="Helvetica,sans-Serif" font-size="10.00"># startProcess()</text>
<text text-anchor="start" x="8" y="-79" font-family="Helvetica,sans-Serif" font-size="10.00"># loadNodes()</text>
<text text-anchor="start" x="8" y="-68" font-family="Helvetica,sans-Serif" font-size="10.00"># endProcess()</text>
<text text-anchor="start" x="8" y="-57" font-family="Helvetica,sans-Serif" font-size="10.00"># loadNode()</text>
<text text-anchor="start" x="8" y="-46" font-family="Helvetica,sans-Serif" font-size="10.00"># register()</text>
<text text-anchor="start" x="8" y="-35" font-family="Helvetica,sans-Serif" font-size="10.00"># isRegistered()</text>
<text text-anchor="start" x="8" y="-24" font-family="Helvetica,sans-Serif" font-size="10.00"># addNodeToResponse()</text>
</a>
</g>
</g>
<!-- Node1&#45;&gt;Node3 -->
<g id="edge2" class="edge"><title>Node1&#45;&gt;Node3</title>
<path fill="none" stroke="midnightblue" d="M160.609,-221.659C150.94,-211.128 141.412,-200.446 132.5,-190 127.854,-184.555 123.151,-178.841 118.494,-173.035"/>
<polygon fill="none" stroke="midnightblue" points="158.31,-224.328 167.669,-229.294 163.45,-219.576 158.31,-224.328"/>
</g>
<!-- Node4 -->
<g id="node4" class="node"><title>Node4</title>
<g id="a_node4"><a xlink:href="classwcmf_1_1application_1_1controller_1_1_copy_controller.html" target="_top" xlink:title="CopyController is used to copy or move Node instances. ">
<polygon fill="white" stroke="black" points="141.5,-0.5 141.5,-189.5 247.5,-189.5 247.5,-0.5 141.5,-0.5"/>
<text text-anchor="middle" x="194.5" y="-177.5" font-family="Helvetica,sans-Serif" font-size="10.00">CopyController</text>
<polyline fill="none" stroke="black" points="141.5,-170.5 247.5,-170.5 "/>
<text text-anchor="middle" x="194.5" y="-158.5" font-family="Helvetica,sans-Serif" font-size="10.00"> </text>
<polyline fill="none" stroke="black" points="141.5,-151.5 247.5,-151.5 "/>
<text text-anchor="start" x="149.5" y="-139.5" font-family="Helvetica,sans-Serif" font-size="10.00">+ initialize()</text>
<text text-anchor="start" x="149.5" y="-128.5" font-family="Helvetica,sans-Serif" font-size="10.00"># validate()</text>
<text text-anchor="start" x="149.5" y="-117.5" font-family="Helvetica,sans-Serif" font-size="10.00"># getWorkPackage()</text>
<text text-anchor="start" x="149.5" y="-106.5" font-family="Helvetica,sans-Serif" font-size="10.00"># startProcess()</text>
<text text-anchor="start" x="149.5" y="-95.5" font-family="Helvetica,sans-Serif" font-size="10.00"># copyNodes()</text>
<text text-anchor="start" x="149.5" y="-84.5" font-family="Helvetica,sans-Serif" font-size="10.00"># endProcess()</text>
<text text-anchor="start" x="149.5" y="-73.5" font-family="Helvetica,sans-Serif" font-size="10.00"># copyNode()</text>
<text text-anchor="start" x="149.5" y="-62.5" font-family="Helvetica,sans-Serif" font-size="10.00"># getTargetNode()</text>
<text text-anchor="start" x="149.5" y="-51.5" font-family="Helvetica,sans-Serif" font-size="10.00"># registerCopy()</text>
<text text-anchor="start" x="149.5" y="-40.5" font-family="Helvetica,sans-Serif" font-size="10.00"># updateCopyOIDs()</text>
<text text-anchor="start" x="149.5" y="-29.5" font-family="Helvetica,sans-Serif" font-size="10.00"># getCopyOID()</text>
<text text-anchor="start" x="149.5" y="-18.5" font-family="Helvetica,sans-Serif" font-size="10.00"># getCopy()</text>
<text text-anchor="start" x="149.5" y="-7.5" font-family="Helvetica,sans-Serif" font-size="10.00"># modify()</text>
</a>
</g>
</g>
<!-- Node1&#45;&gt;Node4 -->
<g id="edge3" class="edge"><title>Node1&#45;&gt;Node4</title>
<path fill="none" stroke="midnightblue" d="M228.419,-216.602C225.895,-207.625 223.349,-198.575 220.848,-189.683"/>
<polygon fill="none" stroke="midnightblue" points="225.071,-217.623 231.147,-226.302 231.809,-215.728 225.071,-217.623"/>
</g>
<!-- Node5 -->
<g id="node5" class="node"><title>Node5</title>
<g id="a_node5"><a xlink:href="classwcmf_1_1application_1_1controller_1_1_search_index_controller.html" target="_top" xlink:title="SearchIndexController creates a Lucene index from the complete datastore. ">
<polygon fill="white" stroke="black" points="265.5,-50 265.5,-140 377.5,-140 377.5,-50 265.5,-50"/>
<text text-anchor="middle" x="321.5" y="-128" font-family="Helvetica,sans-Serif" font-size="10.00">SearchIndexController</text>
<polyline fill="none" stroke="black" points="265.5,-121 377.5,-121 "/>
<text text-anchor="middle" x="321.5" y="-109" font-family="Helvetica,sans-Serif" font-size="10.00"> </text>
<polyline fill="none" stroke="black" points="265.5,-102 377.5,-102 "/>
<text text-anchor="start" x="273.5" y="-90" font-family="Helvetica,sans-Serif" font-size="10.00"># getWorkPackage()</text>
<text text-anchor="start" x="273.5" y="-79" font-family="Helvetica,sans-Serif" font-size="10.00"># collect()</text>
<text text-anchor="start" x="273.5" y="-68" font-family="Helvetica,sans-Serif" font-size="10.00"># index()</text>
<text text-anchor="start" x="273.5" y="-57" font-family="Helvetica,sans-Serif" font-size="10.00"># optimize()</text>
</a>
</g>
</g>
<!-- Node1&#45;&gt;Node5 -->
<g id="edge4" class="edge"><title>Node1&#45;&gt;Node5</title>
<path fill="none" stroke="midnightblue" d="M287.085,-216.454C294.753,-189.614 302.608,-162.122 308.874,-140.193"/>
<polygon fill="none" stroke="midnightblue" points="283.653,-215.725 284.271,-226.302 290.384,-217.648 283.653,-215.725"/>
</g>
<!-- Node6 -->
<g id="node6" class="node"><title>Node6</title>
<g id="a_node6"><a xlink:href="classwcmf_1_1application_1_1controller_1_1_x_m_l_export_controller.html" target="_top" xlink:title="XMLExportController exports the content tree into an XML file. ">
<polygon fill="white" stroke="black" points="395.5,-6 395.5,-184 565.5,-184 565.5,-6 395.5,-6"/>
<text text-anchor="middle" x="480.5" y="-172" font-family="Helvetica,sans-Serif" font-size="10.00">XMLExportController</text>
<polyline fill="none" stroke="black" points="395.5,-165 565.5,-165 "/>
<text text-anchor="start" x="403.5" y="-153" font-family="Helvetica,sans-Serif" font-size="10.00">+ CACHE_SECTION</text>
<text text-anchor="start" x="403.5" y="-142" font-family="Helvetica,sans-Serif" font-size="10.00">+ CACHE_KEY_ROOT_OIDS</text>
<text text-anchor="start" x="403.5" y="-131" font-family="Helvetica,sans-Serif" font-size="10.00">+ CACHE_KEY_EXPORTED_OIDS</text>
<polyline fill="none" stroke="black" points="395.5,-124 565.5,-124 "/>
<text text-anchor="start" x="403.5" y="-112" font-family="Helvetica,sans-Serif" font-size="10.00">+ initialize()</text>
<text text-anchor="start" x="403.5" y="-101" font-family="Helvetica,sans-Serif" font-size="10.00"># getWorkPackage()</text>
<text text-anchor="start" x="403.5" y="-90" font-family="Helvetica,sans-Serif" font-size="10.00"># getDownloadFile()</text>
<text text-anchor="start" x="403.5" y="-79" font-family="Helvetica,sans-Serif" font-size="10.00"># initExport()</text>
<text text-anchor="start" x="403.5" y="-68" font-family="Helvetica,sans-Serif" font-size="10.00"># exportNodes()</text>
<text text-anchor="start" x="403.5" y="-57" font-family="Helvetica,sans-Serif" font-size="10.00"># finishExport()</text>
<text text-anchor="start" x="403.5" y="-46" font-family="Helvetica,sans-Serif" font-size="10.00"># endTags()</text>
<text text-anchor="start" x="403.5" y="-35" font-family="Helvetica,sans-Serif" font-size="10.00"># writeNode()</text>
<text text-anchor="start" x="403.5" y="-24" font-family="Helvetica,sans-Serif" font-size="10.00"># getNumUnvisitedChildren()</text>
<text text-anchor="start" x="403.5" y="-13" font-family="Helvetica,sans-Serif" font-size="10.00"># formatValue()</text>
</a>
</g>
</g>
<!-- Node1&#45;&gt;Node6 -->
<g id="edge5" class="edge"><title>Node1&#45;&gt;Node6</title>
<path fill="none" stroke="midnightblue" d="M354.335,-222.731C367.965,-209.04 381.893,-195.049 395.284,-181.598"/>
<polygon fill="none" stroke="midnightblue" points="351.814,-220.303 347.239,-229.859 356.774,-225.241 351.814,-220.303"/>
</g>
<!-- Node2 -->
<g id="node2" class="node"><title>Node2</title>
<g id="a_node2"><a xlink:href="classwcmf_1_1lib_1_1presentation_1_1_controller.html" target="_top" xlink:title="Controller is the base class of all controllers. ">
<polygon fill="white" stroke="black" points="185.5,-452.5 185.5,-608.5 329.5,-608.5 329.5,-452.5 185.5,-452.5"/>
<text text-anchor="middle" x="257.5" y="-596.5" font-family="Helvetica,sans-Serif" font-size="10.00">Controller</text>
<polyline fill="none" stroke="black" points="185.5,-589.5 329.5,-589.5 "/>
<text text-anchor="middle" x="257.5" y="-577.5" font-family="Helvetica,sans-Serif" font-size="10.00"> </text>
<polyline fill="none" stroke="black" points="185.5,-570.5 329.5,-570.5 "/>
<text text-anchor="start" x="193.5" y="-558.5" font-family="Helvetica,sans-Serif" font-size="10.00">+ initialize()</text>
<text text-anchor="start" x="193.5" y="-547.5" font-family="Helvetica,sans-Serif" font-size="10.00">+ execute()</text>
<text text-anchor="start" x="193.5" y="-536.5" font-family="Helvetica,sans-Serif" font-size="10.00">+ getRequest()</text>
<text text-anchor="start" x="193.5" y="-525.5" font-family="Helvetica,sans-Serif" font-size="10.00">+ getResponse()</text>
<text text-anchor="start" x="193.5" y="-514.5" font-family="Helvetica,sans-Serif" font-size="10.00"># validate()</text>
<text text-anchor="start" x="193.5" y="-503.5" font-family="Helvetica,sans-Serif" font-size="10.00"># doExecute()</text>
<text text-anchor="start" x="193.5" y="-492.5" font-family="Helvetica,sans-Serif" font-size="10.00"># executeSubAction()</text>
<text text-anchor="start" x="193.5" y="-481.5" font-family="Helvetica,sans-Serif" font-size="10.00"># assignResponseDefaults()</text>
<text text-anchor="start" x="193.5" y="-470.5" font-family="Helvetica,sans-Serif" font-size="10.00"># isLocalizedRequest()</text>
<text text-anchor="start" x="193.5" y="-459.5" font-family="Helvetica,sans-Serif" font-size="10.00"># checkLanguageParameter()</text>
</a>
</g>
</g>
<!-- Node2&#45;&gt;Node1 -->
<g id="edge1" class="edge"><title>Node2&#45;&gt;Node1</title>
<path fill="none" stroke="midnightblue" d="M257.5,-442.118C257.5,-433.426 257.5,-424.577 257.5,-415.823"/>
<polygon fill="none" stroke="midnightblue" points="254,-442.235 257.5,-452.235 261,-442.235 254,-442.235"/>
</g>
</g>
</svg>
