<?xml version="1.0" encoding="UTF-8" standalone="no"?>
<!DOCTYPE svg PUBLIC "-//W3C//DTD SVG 1.1//EN"
 "http://www.w3.org/Graphics/SVG/1.1/DTD/svg11.dtd">
<!-- Generated by graphviz version 2.38.0 (20140413.2041)
 -->
<!-- Title: Event Pages: 1 -->
<svg width="658pt" height="259pt"
 viewBox="0.00 0.00 657.50 259.00" xmlns="http://www.w3.org/2000/svg" xmlns:xlink="http://www.w3.org/1999/xlink">
<g id="graph0" class="graph" transform="scale(1 1) rotate(0) translate(4 255)">
<title>Event</title>
<polygon fill="white" stroke="none" points="-4,4 -4,-255 653.5,-255 653.5,4 -4,4"/>
<!-- Node1 -->
<g id="node1" class="node"><title>Node1</title>
<polygon fill="#bfbfbf" stroke="black" points="229.5,-182.5 229.5,-250.5 331.5,-250.5 331.5,-182.5 229.5,-182.5"/>
<text text-anchor="middle" x="280.5" y="-238.5" font-family="Helvetica,sans-Serif" font-size="10.00">Event</text>
<polyline fill="none" stroke="black" points="229.5,-231.5 331.5,-231.5 "/>
<text text-anchor="middle" x="280.5" y="-219.5" font-family="Helvetica,sans-Serif" font-size="10.00"> </text>
<polyline fill="none" stroke="black" points="229.5,-212.5 331.5,-212.5 "/>
<text text-anchor="start" x="237.5" y="-200.5" font-family="Helvetica,sans-Serif" font-size="10.00">+ stopPropagation()</text>
<text text-anchor="start" x="237.5" y="-189.5" font-family="Helvetica,sans-Serif" font-size="10.00">+ isStopped()</text>
</g>
<!-- Node2 -->
<g id="node2" class="node"><title>Node2</title>
<g id="a_node2"><a xlink:href="classwcmf_1_1lib_1_1persistence_1_1_persistent_event.html" target="_top" xlink:title="PersistentEvent signals create/update/delete operations on a persistent entity. ">
<polygon fill="white" stroke="black" points="0,-33.5 0,-112.5 85,-112.5 85,-33.5 0,-33.5"/>
<text text-anchor="middle" x="42.5" y="-100.5" font-family="Helvetica,sans-Serif" font-size="10.00">PersistentEvent</text>
<polyline fill="none" stroke="black" points="0,-93.5 85,-93.5 "/>
<text text-anchor="start" x="8" y="-81.5" font-family="Helvetica,sans-Serif" font-size="10.00">+ NAME</text>
<polyline fill="none" stroke="black" points="0,-74.5 85,-74.5 "/>
<text text-anchor="start" x="8" y="-62.5" font-family="Helvetica,sans-Serif" font-size="10.00">+ __construct()</text>
<text text-anchor="start" x="8" y="-51.5" font-family="Helvetica,sans-Serif" font-size="10.00">+ getObject()</text>
<text text-anchor="start" x="8" y="-40.5" font-family="Helvetica,sans-Serif" font-size="10.00">+ getAction()</text>
</a>
</g>
</g>
<!-- Node1&#45;&gt;Node2 -->
<g id="edge1" class="edge"><title>Node1&#45;&gt;Node2</title>
<path fill="none" stroke="midnightblue" d="M219.082,-202.28C180.49,-191.744 131.239,-174.014 94.5,-146 82.7291,-137.025 72.4738,-124.656 64.2528,-112.701"/>
<polygon fill="none" stroke="midnightblue" points="218.594,-205.771 229.156,-204.935 220.378,-199.002 218.594,-205.771"/>
</g>
<!-- Node3 -->
<g id="node3" class="node"><title>Node3</title>
<g id="a_node3"><a xlink:href="classwcmf_1_1lib_1_1persistence_1_1_property_change_event.html" target="_top" xlink:title="PropertyChangeEvent signals a change of a property of a PersistentObject instance. ">
<polygon fill="white" stroke="black" points="103.5,-22.5 103.5,-123.5 213.5,-123.5 213.5,-22.5 103.5,-22.5"/>
<text text-anchor="middle" x="158.5" y="-111.5" font-family="Helvetica,sans-Serif" font-size="10.00">PropertyChangeEvent</text>
<polyline fill="none" stroke="black" points="103.5,-104.5 213.5,-104.5 "/>
<text text-anchor="start" x="111.5" y="-92.5" font-family="Helvetica,sans-Serif" font-size="10.00">+ NAME</text>
<polyline fill="none" stroke="black" points="103.5,-85.5 213.5,-85.5 "/>
<text text-anchor="start" x="111.5" y="-73.5" font-family="Helvetica,sans-Serif" font-size="10.00">+ __construct()</text>
<text text-anchor="start" x="111.5" y="-62.5" font-family="Helvetica,sans-Serif" font-size="10.00">+ getObject()</text>
<text text-anchor="start" x="111.5" y="-51.5" font-family="Helvetica,sans-Serif" font-size="10.00">+ getPropertyName()</text>
<text text-anchor="start" x="111.5" y="-40.5" font-family="Helvetica,sans-Serif" font-size="10.00">+ getOldValue()</text>
<text text-anchor="start" x="111.5" y="-29.5" font-family="Helvetica,sans-Serif" font-size="10.00">+ getNewValue()</text>
</a>
</g>
</g>
<!-- Node1&#45;&gt;Node3 -->
<g id="edge2" class="edge"><title>Node1&#45;&gt;Node3</title>
<path fill="none" stroke="midnightblue" d="M245.333,-174.713C231.58,-158.761 215.678,-140.317 201.27,-123.606"/>
<polygon fill="none" stroke="midnightblue" points="242.716,-177.036 251.896,-182.325 248.017,-172.465 242.716,-177.036"/>
</g>
<!-- Node4 -->
<g id="node4" class="node"><title>Node4</title>
<g id="a_node4"><a xlink:href="classwcmf_1_1lib_1_1persistence_1_1_state_change_event.html" target="_top" xlink:title="StateChangeEvent signals a change of the state of a PersistentObject instance. ">
<polygon fill="white" stroke="black" points="232,-28 232,-118 329,-118 329,-28 232,-28"/>
<text text-anchor="middle" x="280.5" y="-106" font-family="Helvetica,sans-Serif" font-size="10.00">StateChangeEvent</text>
<polyline fill="none" stroke="black" points="232,-99 329,-99 "/>
<text text-anchor="start" x="240" y="-87" font-family="Helvetica,sans-Serif" font-size="10.00">+ NAME</text>
<polyline fill="none" stroke="black" points="232,-80 329,-80 "/>
<text text-anchor="start" x="240" y="-68" font-family="Helvetica,sans-Serif" font-size="10.00">+ __construct()</text>
<text text-anchor="start" x="240" y="-57" font-family="Helvetica,sans-Serif" font-size="10.00">+ getObject()</text>
<text text-anchor="start" x="240" y="-46" font-family="Helvetica,sans-Serif" font-size="10.00">+ getOldValue()</text>
<text text-anchor="start" x="240" y="-35" font-family="Helvetica,sans-Serif" font-size="10.00">+ getNewValue()</text>
</a>
</g>
</g>
<!-- Node1&#45;&gt;Node4 -->
<g id="edge3" class="edge"><title>Node1&#45;&gt;Node4</title>
<path fill="none" stroke="midnightblue" d="M280.5,-172.056C280.5,-154.972 280.5,-135.38 280.5,-118.221"/>
<polygon fill="none" stroke="midnightblue" points="277,-172.325 280.5,-182.325 284,-172.325 277,-172.325"/>
</g>
<!-- Node5 -->
<g id="node5" class="node"><title>Node5</title>
<g id="a_node5"><a xlink:href="classwcmf_1_1lib_1_1persistence_1_1_value_change_event.html" target="_top" xlink:title="ValueChangeEvent signals a change of a value of a PersistentObject instance. ">
<polygon fill="white" stroke="black" points="347.5,-22.5 347.5,-123.5 445.5,-123.5 445.5,-22.5 347.5,-22.5"/>
<text text-anchor="middle" x="396.5" y="-111.5" font-family="Helvetica,sans-Serif" font-size="10.00">ValueChangeEvent</text>
<polyline fill="none" stroke="black" points="347.5,-104.5 445.5,-104.5 "/>
<text text-anchor="start" x="355.5" y="-92.5" font-family="Helvetica,sans-Serif" font-size="10.00">+ NAME</text>
<polyline fill="none" stroke="black" points="347.5,-85.5 445.5,-85.5 "/>
<text text-anchor="start" x="355.5" y="-73.5" font-family="Helvetica,sans-Serif" font-size="10.00">+ __construct()</text>
<text text-anchor="start" x="355.5" y="-62.5" font-family="Helvetica,sans-Serif" font-size="10.00">+ getObject()</text>
<text text-anchor="start" x="355.5" y="-51.5" font-family="Helvetica,sans-Serif" font-size="10.00">+ getValueName()</text>
<text text-anchor="start" x="355.5" y="-40.5" font-family="Helvetica,sans-Serif" font-size="10.00">+ getOldValue()</text>
<text text-anchor="start" x="355.5" y="-29.5" font-family="Helvetica,sans-Serif" font-size="10.00">+ getNewValue()</text>
</a>
</g>
</g>
<!-- Node1&#45;&gt;Node5 -->
<g id="edge4" class="edge"><title>Node1&#45;&gt;Node5</title>
<path fill="none" stroke="midnightblue" d="M314.795,-174.645C322.617,-165.26 330.871,-155.304 338.5,-146 344.403,-138.801 350.608,-131.168 356.676,-123.668"/>
<polygon fill="none" stroke="midnightblue" points="312.071,-172.447 308.349,-182.367 317.444,-176.933 312.071,-172.447"/>
</g>
<!-- Node6 -->
<g id="node6" class="node"><title>Node6</title>
<g id="a_node6"><a xlink:href="classwcmf_1_1lib_1_1presentation_1_1_application_event.html" target="_top" xlink:title="ApplicationEvent instances are fired at different stages of the program flow. ">
<polygon fill="white" stroke="black" points="463.5,-0.5 463.5,-145.5 649.5,-145.5 649.5,-0.5 463.5,-0.5"/>
<text text-anchor="middle" x="556.5" y="-133.5" font-family="Helvetica,sans-Serif" font-size="10.00">ApplicationEvent</text>
<polyline fill="none" stroke="black" points="463.5,-126.5 649.5,-126.5 "/>
<text text-anchor="start" x="471.5" y="-114.5" font-family="Helvetica,sans-Serif" font-size="10.00">+ NAME</text>
<text text-anchor="start" x="471.5" y="-103.5" font-family="Helvetica,sans-Serif" font-size="10.00">+ BEFORE_ROUTE_ACTION</text>
<text text-anchor="start" x="471.5" y="-92.5" font-family="Helvetica,sans-Serif" font-size="10.00">+ BEFORE_INITIALIZE_CONTROLLER</text>
<text text-anchor="start" x="471.5" y="-81.5" font-family="Helvetica,sans-Serif" font-size="10.00">+ BEFORE_EXECUTE_CONTROLLER</text>
<text text-anchor="start" x="471.5" y="-70.5" font-family="Helvetica,sans-Serif" font-size="10.00">+ AFTER_EXECUTE_CONTROLLER</text>
<polyline fill="none" stroke="black" points="463.5,-63.5 649.5,-63.5 "/>
<text text-anchor="start" x="471.5" y="-51.5" font-family="Helvetica,sans-Serif" font-size="10.00">+ __construct()</text>
<text text-anchor="start" x="471.5" y="-40.5" font-family="Helvetica,sans-Serif" font-size="10.00">+ getStage()</text>
<text text-anchor="start" x="471.5" y="-29.5" font-family="Helvetica,sans-Serif" font-size="10.00">+ getRequest()</text>
<text text-anchor="start" x="471.5" y="-18.5" font-family="Helvetica,sans-Serif" font-size="10.00">+ getResponse()</text>
<text text-anchor="start" x="471.5" y="-7.5" font-family="Helvetica,sans-Serif" font-size="10.00">+ getController()</text>
</a>
</g>
</g>
<!-- Node1&#45;&gt;Node6 -->
<g id="edge5" class="edge"><title>Node1&#45;&gt;Node6</title>
<path fill="none" stroke="midnightblue" d="M341.626,-195.08C375.726,-182.711 418.463,-165.563 454.5,-146 457.453,-144.397 460.422,-142.724 463.394,-140.996"/>
<polygon fill="none" stroke="midnightblue" points="340.03,-191.934 331.795,-198.6 342.39,-198.524 340.03,-191.934"/>
</g>
</g>
</svg>
