<?xml version="1.0" encoding="UTF-8" standalone="no"?>
<!DOCTYPE svg PUBLIC "-//W3C//DTD SVG 1.1//EN"
 "http://www.w3.org/Graphics/SVG/1.1/DTD/svg11.dtd">
<!-- Generated by graphviz version 2.38.0 (20140413.2041)
 -->
<!-- Title: AbstractPermissionManager Pages: 1 -->
<svg width="294pt" height="391pt"
 viewBox="0.00 0.00 294.00 391.00" xmlns="http://www.w3.org/2000/svg" xmlns:xlink="http://www.w3.org/1999/xlink">
<g id="graph0" class="graph" transform="scale(1 1) rotate(0) translate(4 387)">
<title>AbstractPermissionManager</title>
<polygon fill="white" stroke="none" points="-4,4 -4,-387 290,-387 290,4 -4,4"/>
<!-- Node1 -->
<g id="node1" class="node"><title>Node1</title>
<polygon fill="#bfbfbf" stroke="black" points="60.5,-127.5 60.5,-382.5 240.5,-382.5 240.5,-127.5 60.5,-127.5"/>
<text text-anchor="middle" x="150.5" y="-370.5" font-family="Helvetica,sans-Serif" font-size="10.00">AbstractPermissionManager</text>
<polyline fill="none" stroke="black" points="60.5,-363.5 240.5,-363.5 "/>
<text text-anchor="start" x="68.5" y="-351.5" font-family="Helvetica,sans-Serif" font-size="10.00">+ RESOURCE_TYPE_ENTITY_TYPE</text>
<text text-anchor="start" x="68.5" y="-340.5" font-family="Helvetica,sans-Serif" font-size="10.00">+ RESOURCE_TYPE_ENTITY</text>
<text text-anchor="start" x="68.5" y="-329.5" font-family="Helvetica,sans-Serif" font-size="10.00">_TYPE_PROPERTY</text>
<text text-anchor="start" x="68.5" y="-318.5" font-family="Helvetica,sans-Serif" font-size="10.00">+ RESOURCE_TYPE_ENTITY</text>
<text text-anchor="start" x="68.5" y="-307.5" font-family="Helvetica,sans-Serif" font-size="10.00">_INSTANCE</text>
<text text-anchor="start" x="68.5" y="-296.5" font-family="Helvetica,sans-Serif" font-size="10.00">+ RESOURCE_TYPE_ENTITY</text>
<text text-anchor="start" x="68.5" y="-285.5" font-family="Helvetica,sans-Serif" font-size="10.00">_INSTANCE_PROPERTY</text>
<text text-anchor="start" x="68.5" y="-274.5" font-family="Helvetica,sans-Serif" font-size="10.00">+ RESOURCE_TYPE_OTHER</text>
<polyline fill="none" stroke="black" points="60.5,-267.5 240.5,-267.5 "/>
<text text-anchor="start" x="68.5" y="-255.5" font-family="Helvetica,sans-Serif" font-size="10.00">+ __construct()</text>
<text text-anchor="start" x="68.5" y="-244.5" font-family="Helvetica,sans-Serif" font-size="10.00">+ setAuthUser()</text>
<text text-anchor="start" x="68.5" y="-233.5" font-family="Helvetica,sans-Serif" font-size="10.00">+ getAuthUser()</text>
<text text-anchor="start" x="68.5" y="-222.5" font-family="Helvetica,sans-Serif" font-size="10.00">+ authorize()</text>
<text text-anchor="start" x="68.5" y="-211.5" font-family="Helvetica,sans-Serif" font-size="10.00">+ getDefaultPolicy()</text>
<text text-anchor="start" x="68.5" y="-200.5" font-family="Helvetica,sans-Serif" font-size="10.00">+ addTempPermission()</text>
<text text-anchor="start" x="68.5" y="-189.5" font-family="Helvetica,sans-Serif" font-size="10.00">+ removeTempPermission()</text>
<text text-anchor="start" x="68.5" y="-178.5" font-family="Helvetica,sans-Serif" font-size="10.00">+ hasTempPermission()</text>
<text text-anchor="start" x="68.5" y="-167.5" font-family="Helvetica,sans-Serif" font-size="10.00">+ clearTempPermissions()</text>
<text text-anchor="start" x="68.5" y="-156.5" font-family="Helvetica,sans-Serif" font-size="10.00"># authorizeAction()</text>
<text text-anchor="start" x="68.5" y="-145.5" font-family="Helvetica,sans-Serif" font-size="10.00"># parsePermissions()</text>
<text text-anchor="start" x="68.5" y="-134.5" font-family="Helvetica,sans-Serif" font-size="10.00"># matchRoles()</text>
</g>
<!-- Node2 -->
<g id="node2" class="node"><title>Node2</title>
<g id="a_node2"><a xlink:href="classwcmf_1_1lib_1_1security_1_1impl_1_1_default_permission_manager.html" target="_top" xlink:title="DefaultPermissionManager retrieves authorization rules from the application configuration. ">
<polygon fill="white" stroke="black" points="0,-0.5 0,-90.5 149,-90.5 149,-0.5 0,-0.5"/>
<text text-anchor="middle" x="74.5" y="-78.5" font-family="Helvetica,sans-Serif" font-size="10.00">DefaultPermissionManager</text>
<polyline fill="none" stroke="black" points="0,-71.5 149,-71.5 "/>
<text text-anchor="start" x="8" y="-59.5" font-family="Helvetica,sans-Serif" font-size="10.00">+ AUTHORIZATION_SECTION</text>
<polyline fill="none" stroke="black" points="0,-52.5 149,-52.5 "/>
<text text-anchor="start" x="8" y="-40.5" font-family="Helvetica,sans-Serif" font-size="10.00">+ getPermissions()</text>
<text text-anchor="start" x="8" y="-29.5" font-family="Helvetica,sans-Serif" font-size="10.00">+ createPermission()</text>
<text text-anchor="start" x="8" y="-18.5" font-family="Helvetica,sans-Serif" font-size="10.00">+ removePermission()</text>
<text text-anchor="start" x="8" y="-7.5" font-family="Helvetica,sans-Serif" font-size="10.00"># modifyPermission()</text>
</a>
</g>
</g>
<!-- Node1&#45;&gt;Node2 -->
<g id="edge1" class="edge"><title>Node1&#45;&gt;Node2</title>
<path fill="none" stroke="midnightblue" d="M100.571,-117.682C97.0863,-108.166 93.7501,-99.0578 90.6976,-90.7237"/>
<polygon fill="none" stroke="midnightblue" points="97.3754,-119.133 104.101,-127.319 103.948,-116.725 97.3754,-119.133"/>
</g>
<!-- Node3 -->
<g id="node3" class="node"><title>Node3</title>
<g id="a_node3"><a xlink:href="classwcmf_1_1lib_1_1security_1_1impl_1_1_null_permission_manager.html" target="_top" xlink:title="NullPermissionManager acts like an absent PermissionManager. ">
<polygon fill="white" stroke="black" points="167,-6 167,-85 286,-85 286,-6 167,-6"/>
<text text-anchor="middle" x="226.5" y="-73" font-family="Helvetica,sans-Serif" font-size="10.00">NullPermissionManager</text>
<polyline fill="none" stroke="black" points="167,-66 286,-66 "/>
<text text-anchor="middle" x="226.5" y="-54" font-family="Helvetica,sans-Serif" font-size="10.00"> </text>
<polyline fill="none" stroke="black" points="167,-47 286,-47 "/>
<text text-anchor="start" x="175" y="-35" font-family="Helvetica,sans-Serif" font-size="10.00">+ getPermissions()</text>
<text text-anchor="start" x="175" y="-24" font-family="Helvetica,sans-Serif" font-size="10.00">+ createPermission()</text>
<text text-anchor="start" x="175" y="-13" font-family="Helvetica,sans-Serif" font-size="10.00">+ removePermission()</text>
</a>
</g>
</g>
<!-- Node1&#45;&gt;Node3 -->
<g id="edge2" class="edge"><title>Node1&#45;&gt;Node3</title>
<path fill="none" stroke="midnightblue" d="M200.381,-117.813C204.668,-106.107 208.731,-95.0142 212.319,-85.2174"/>
<polygon fill="none" stroke="midnightblue" points="197.052,-116.725 196.899,-127.319 203.625,-119.133 197.052,-116.725"/>
</g>
</g>
</svg>
