<?xml version="1.0" encoding="UTF-8" standalone="no"?>
<!DOCTYPE svg PUBLIC "-//W3C//DTD SVG 1.1//EN"
 "http://www.w3.org/Graphics/SVG/1.1/DTD/svg11.dtd">
<!-- Generated by graphviz version 2.38.0 (20140413.2041)
 -->
<!-- Title: Controller Pages: 1 -->
<svg width="2580pt" height="617pt"
 viewBox="0.00 0.00 2579.50 617.00" xmlns="http://www.w3.org/2000/svg" xmlns:xlink="http://www.w3.org/1999/xlink">
<g id="graph0" class="graph" transform="scale(1 1) rotate(0) translate(4 613)">
<title>Controller</title>
<polygon fill="white" stroke="none" points="-4,4 -4,-613 2575.5,-613 2575.5,4 -4,4"/>
<!-- Node1 -->
<g id="node1" class="node"><title>Node1</title>
<polygon fill="#bfbfbf" stroke="black" points="1184.5,-452.5 1184.5,-608.5 1328.5,-608.5 1328.5,-452.5 1184.5,-452.5"/>
<text text-anchor="middle" x="1256.5" y="-596.5" font-family="Helvetica,sans-Serif" font-size="10.00">Controller</text>
<polyline fill="none" stroke="black" points="1184.5,-589.5 1328.5,-589.5 "/>
<text text-anchor="middle" x="1256.5" y="-577.5" font-family="Helvetica,sans-Serif" font-size="10.00"> </text>
<polyline fill="none" stroke="black" points="1184.5,-570.5 1328.5,-570.5 "/>
<text text-anchor="start" x="1192.5" y="-558.5" font-family="Helvetica,sans-Serif" font-size="10.00">+ initialize()</text>
<text text-anchor="start" x="1192.5" y="-547.5" font-family="Helvetica,sans-Serif" font-size="10.00">+ execute()</text>
<text text-anchor="start" x="1192.5" y="-536.5" font-family="Helvetica,sans-Serif" font-size="10.00">+ getRequest()</text>
<text text-anchor="start" x="1192.5" y="-525.5" font-family="Helvetica,sans-Serif" font-size="10.00">+ getResponse()</text>
<text text-anchor="start" x="1192.5" y="-514.5" font-family="Helvetica,sans-Serif" font-size="10.00"># validate()</text>
<text text-anchor="start" x="1192.5" y="-503.5" font-family="Helvetica,sans-Serif" font-size="10.00"># doExecute()</text>
<text text-anchor="start" x="1192.5" y="-492.5" font-family="Helvetica,sans-Serif" font-size="10.00"># executeSubAction()</text>
<text text-anchor="start" x="1192.5" y="-481.5" font-family="Helvetica,sans-Serif" font-size="10.00"># assignResponseDefaults()</text>
<text text-anchor="start" x="1192.5" y="-470.5" font-family="Helvetica,sans-Serif" font-size="10.00"># isLocalizedRequest()</text>
<text text-anchor="start" x="1192.5" y="-459.5" font-family="Helvetica,sans-Serif" font-size="10.00"># checkLanguageParameter()</text>
</g>
<!-- Node2 -->
<g id="node2" class="node"><title>Node2</title>
<g id="a_node2"><a xlink:href="classwcmf_1_1application_1_1controller_1_1_associate_controller.html" target="_top" xlink:title="AssociateController is used to (dis&#45;)associates Node instances, e.g. ">
<polygon fill="white" stroke="black" points="50,-287 50,-355 151,-355 151,-287 50,-287"/>
<text text-anchor="middle" x="100.5" y="-343" font-family="Helvetica,sans-Serif" font-size="10.00">AssociateController</text>
<polyline fill="none" stroke="black" points="50,-336 151,-336 "/>
<text text-anchor="middle" x="100.5" y="-324" font-family="Helvetica,sans-Serif" font-size="10.00"> </text>
<polyline fill="none" stroke="black" points="50,-317 151,-317 "/>
<text text-anchor="start" x="58" y="-305" font-family="Helvetica,sans-Serif" font-size="10.00"># validate()</text>
<text text-anchor="start" x="58" y="-294" font-family="Helvetica,sans-Serif" font-size="10.00"># doExecute()</text>
</a>
</g>
</g>
<!-- Node1&#45;&gt;Node2 -->
<g id="edge1" class="edge"><title>Node1&#45;&gt;Node2</title>
<path fill="none" stroke="midnightblue" d="M1174.06,-530.121C948.866,-530.409 328.803,-521.366 159.5,-416 137.089,-402.052 121.768,-376.112 112.366,-355.01"/>
<polygon fill="none" stroke="midnightblue" points="1174.17,-533.621 1184.17,-530.102 1174.16,-526.621 1174.17,-533.621"/>
</g>
<!-- Node3 -->
<g id="node3" class="node"><title>Node3</title>
<g id="a_node3"><a xlink:href="classwcmf_1_1application_1_1controller_1_1_batch_controller.html" target="_top" xlink:title="BatchController is used to process complex, longer running actions, that need to be divided into seve...">
<polygon fill="white" stroke="black" points="169,-226.5 169,-415.5 348,-415.5 348,-226.5 169,-226.5"/>
<text text-anchor="middle" x="258.5" y="-403.5" font-family="Helvetica,sans-Serif" font-size="10.00">BatchController</text>
<polyline fill="none" stroke="black" points="169,-396.5 348,-396.5 "/>
<text text-anchor="start" x="177" y="-384.5" font-family="Helvetica,sans-Serif" font-size="10.00">+ ONE_CALL_SESSION_VARNAME</text>
<text text-anchor="start" x="177" y="-373.5" font-family="Helvetica,sans-Serif" font-size="10.00">+ STEP_SESSION_VARNAME</text>
<text text-anchor="start" x="177" y="-362.5" font-family="Helvetica,sans-Serif" font-size="10.00">+ NUM_STEPS_VARNAME</text>
<text text-anchor="start" x="177" y="-351.5" font-family="Helvetica,sans-Serif" font-size="10.00">+ DOWNLOAD_STEP</text>
<text text-anchor="start" x="177" y="-340.5" font-family="Helvetica,sans-Serif" font-size="10.00">+ WORK_PACKAGES_VARNAME</text>
<polyline fill="none" stroke="black" points="169,-333.5 348,-333.5 "/>
<text text-anchor="start" x="177" y="-321.5" font-family="Helvetica,sans-Serif" font-size="10.00">+ initialize()</text>
<text text-anchor="start" x="177" y="-310.5" font-family="Helvetica,sans-Serif" font-size="10.00"># doExecute()</text>
<text text-anchor="start" x="177" y="-299.5" font-family="Helvetica,sans-Serif" font-size="10.00"># getStepNumber()</text>
<text text-anchor="start" x="177" y="-288.5" font-family="Helvetica,sans-Serif" font-size="10.00"># addWorkPackage()</text>
<text text-anchor="start" x="177" y="-277.5" font-family="Helvetica,sans-Serif" font-size="10.00"># processPart()</text>
<text text-anchor="start" x="177" y="-266.5" font-family="Helvetica,sans-Serif" font-size="10.00"># getNumberOfSteps()</text>
<text text-anchor="start" x="177" y="-255.5" font-family="Helvetica,sans-Serif" font-size="10.00"># getDisplayText()</text>
<text text-anchor="start" x="177" y="-244.5" font-family="Helvetica,sans-Serif" font-size="10.00"># getDownloadFile()</text>
<text text-anchor="start" x="177" y="-233.5" font-family="Helvetica,sans-Serif" font-size="10.00"># getWorkPackage()</text>
</a>
</g>
</g>
<!-- Node1&#45;&gt;Node3 -->
<g id="edge2" class="edge"><title>Node1&#45;&gt;Node3</title>
<path fill="none" stroke="midnightblue" d="M1174.22,-525.713C980.381,-515.745 500.515,-484.683 356.5,-416 353.734,-414.681 350.996,-413.253 348.29,-411.731"/>
<polygon fill="none" stroke="midnightblue" points="1174.19,-529.215 1184.35,-526.227 1174.54,-522.224 1174.19,-529.215"/>
</g>
<!-- Node8 -->
<g id="node8" class="node"><title>Node8</title>
<g id="a_node8"><a xlink:href="classwcmf_1_1application_1_1controller_1_1_concurrency_controller.html" target="_top" xlink:title="ConcurrencyController is used to lock/unlock objects. ">
<polygon fill="white" stroke="black" points="366,-287 366,-355 479,-355 479,-287 366,-287"/>
<text text-anchor="middle" x="422.5" y="-343" font-family="Helvetica,sans-Serif" font-size="10.00">ConcurrencyController</text>
<polyline fill="none" stroke="black" points="366,-336 479,-336 "/>
<text text-anchor="middle" x="422.5" y="-324" font-family="Helvetica,sans-Serif" font-size="10.00"> </text>
<polyline fill="none" stroke="black" points="366,-317 479,-317 "/>
<text text-anchor="start" x="374" y="-305" font-family="Helvetica,sans-Serif" font-size="10.00">+ validate()</text>
<text text-anchor="start" x="374" y="-294" font-family="Helvetica,sans-Serif" font-size="10.00">+ doExecute()</text>
</a>
</g>
</g>
<!-- Node1&#45;&gt;Node8 -->
<g id="edge7" class="edge"><title>Node1&#45;&gt;Node8</title>
<path fill="none" stroke="midnightblue" d="M1174.38,-525.493C1000.59,-515.727 602.24,-486.155 488.5,-416 465.419,-401.763 448.234,-376.124 437.196,-355.215"/>
<polygon fill="none" stroke="midnightblue" points="1174.31,-528.995 1184.49,-526.054 1174.7,-522.006 1174.31,-528.995"/>
</g>
<!-- Node9 -->
<g id="node9" class="node"><title>Node9</title>
<g id="a_node9"><a xlink:href="classwcmf_1_1application_1_1controller_1_1_delete_controller.html" target="_top" xlink:title="DeleteController is used to delete Node instances. ">
<polygon fill="white" stroke="black" points="497.5,-276 497.5,-366 587.5,-366 587.5,-276 497.5,-276"/>
<text text-anchor="middle" x="542.5" y="-354" font-family="Helvetica,sans-Serif" font-size="10.00">DeleteController</text>
<polyline fill="none" stroke="black" points="497.5,-347 587.5,-347 "/>
<text text-anchor="middle" x="542.5" y="-335" font-family="Helvetica,sans-Serif" font-size="10.00"> </text>
<polyline fill="none" stroke="black" points="497.5,-328 587.5,-328 "/>
<text text-anchor="start" x="505.5" y="-316" font-family="Helvetica,sans-Serif" font-size="10.00"># validate()</text>
<text text-anchor="start" x="505.5" y="-305" font-family="Helvetica,sans-Serif" font-size="10.00"># doExecute()</text>
<text text-anchor="start" x="505.5" y="-294" font-family="Helvetica,sans-Serif" font-size="10.00"># confirmDelete()</text>
<text text-anchor="start" x="505.5" y="-283" font-family="Helvetica,sans-Serif" font-size="10.00"># afterDelete()</text>
</a>
</g>
</g>
<!-- Node1&#45;&gt;Node9 -->
<g id="edge8" class="edge"><title>Node1&#45;&gt;Node9</title>
<path fill="none" stroke="midnightblue" d="M1174.48,-524.05C1019.02,-512.343 688.769,-480.466 596.5,-416 579.221,-403.927 566.725,-384.426 558.134,-366.307"/>
<polygon fill="none" stroke="midnightblue" points="1174.23,-527.541 1184.46,-524.792 1174.75,-520.561 1174.23,-527.541"/>
</g>
<!-- Node10 -->
<g id="node10" class="node"><title>Node10</title>
<g id="a_node10"><a xlink:href="classwcmf_1_1application_1_1controller_1_1_display_controller.html" target="_top" xlink:title="DisplayController is used to read a Node instance. ">
<polygon fill="white" stroke="black" points="605.5,-287 605.5,-355 695.5,-355 695.5,-287 605.5,-287"/>
<text text-anchor="middle" x="650.5" y="-343" font-family="Helvetica,sans-Serif" font-size="10.00">DisplayController</text>
<polyline fill="none" stroke="black" points="605.5,-336 695.5,-336 "/>
<text text-anchor="middle" x="650.5" y="-324" font-family="Helvetica,sans-Serif" font-size="10.00"> </text>
<polyline fill="none" stroke="black" points="605.5,-317 695.5,-317 "/>
<text text-anchor="start" x="613.5" y="-305" font-family="Helvetica,sans-Serif" font-size="10.00"># validate()</text>
<text text-anchor="start" x="613.5" y="-294" font-family="Helvetica,sans-Serif" font-size="10.00"># doExecute()</text>
</a>
</g>
</g>
<!-- Node1&#45;&gt;Node10 -->
<g id="edge9" class="edge"><title>Node1&#45;&gt;Node10</title>
<path fill="none" stroke="midnightblue" d="M1173.98,-520.892C1039.01,-505.459 778.629,-469.605 704.5,-416 683.911,-401.112 670.02,-375.785 661.489,-355.17"/>
<polygon fill="none" stroke="midnightblue" points="1173.93,-524.409 1184.26,-522.056 1174.72,-517.454 1173.93,-524.409"/>
</g>
<!-- Node11 -->
<g id="node11" class="node"><title>Node11</title>
<g id="a_node11"><a xlink:href="classwcmf_1_1application_1_1controller_1_1_failure_controller.html" target="_top" xlink:title="FailureController is used to signal a failure to the user. ">
<polygon fill="white" stroke="black" points="714,-292.5 714,-349.5 801,-349.5 801,-292.5 714,-292.5"/>
<text text-anchor="middle" x="757.5" y="-337.5" font-family="Helvetica,sans-Serif" font-size="10.00">FailureController</text>
<polyline fill="none" stroke="black" points="714,-330.5 801,-330.5 "/>
<text text-anchor="middle" x="757.5" y="-318.5" font-family="Helvetica,sans-Serif" font-size="10.00"> </text>
<polyline fill="none" stroke="black" points="714,-311.5 801,-311.5 "/>
<text text-anchor="start" x="722" y="-299.5" font-family="Helvetica,sans-Serif" font-size="10.00">+ doExecute()</text>
</a>
</g>
</g>
<!-- Node1&#45;&gt;Node11 -->
<g id="edge10" class="edge"><title>Node1&#45;&gt;Node11</title>
<path fill="none" stroke="midnightblue" d="M1174.16,-527.522C1077.78,-521.252 917.736,-498.08 810.5,-416 788.631,-399.261 774.402,-370.751 766.249,-349.508"/>
<polygon fill="none" stroke="midnightblue" points="1173.96,-531.016 1184.15,-528.126 1174.38,-524.029 1173.96,-531.016"/>
</g>
<!-- Node12 -->
<g id="node12" class="node"><title>Node12</title>
<g id="a_node12"><a xlink:href="classwcmf_1_1application_1_1controller_1_1_list_controller.html" target="_top" xlink:title="ListController is used to load Node lists. ">
<polygon fill="white" stroke="black" points="819.5,-276 819.5,-366 905.5,-366 905.5,-276 819.5,-276"/>
<text text-anchor="middle" x="862.5" y="-354" font-family="Helvetica,sans-Serif" font-size="10.00">ListController</text>
<polyline fill="none" stroke="black" points="819.5,-347 905.5,-347 "/>
<text text-anchor="middle" x="862.5" y="-335" font-family="Helvetica,sans-Serif" font-size="10.00"> </text>
<polyline fill="none" stroke="black" points="819.5,-328 905.5,-328 "/>
<text text-anchor="start" x="827.5" y="-316" font-family="Helvetica,sans-Serif" font-size="10.00"># validate()</text>
<text text-anchor="start" x="827.5" y="-305" font-family="Helvetica,sans-Serif" font-size="10.00"># doExecute()</text>
<text text-anchor="start" x="827.5" y="-294" font-family="Helvetica,sans-Serif" font-size="10.00"># getObjects()</text>
<text text-anchor="start" x="827.5" y="-283" font-family="Helvetica,sans-Serif" font-size="10.00"># modifyModel()</text>
</a>
</g>
</g>
<!-- Node1&#45;&gt;Node12 -->
<g id="edge11" class="edge"><title>Node1&#45;&gt;Node12</title>
<path fill="none" stroke="midnightblue" d="M1174.39,-519.494C1099.47,-506.677 989.351,-478.152 914.5,-416 898.717,-402.894 886.896,-383.696 878.547,-366.061"/>
<polygon fill="none" stroke="midnightblue" points="1173.82,-522.948 1184.26,-521.127 1174.97,-516.042 1173.82,-522.948"/>
</g>
<!-- Node14 -->
<g id="node14" class="node"><title>Node14</title>
<g id="a_node14"><a xlink:href="classwcmf_1_1application_1_1controller_1_1_logging_controller.html" target="_top" xlink:title="LoggingController is used to log a message in the backend log. ">
<polygon fill="white" stroke="black" points="923.5,-292.5 923.5,-349.5 1015.5,-349.5 1015.5,-292.5 923.5,-292.5"/>
<text text-anchor="middle" x="969.5" y="-337.5" font-family="Helvetica,sans-Serif" font-size="10.00">LoggingController</text>
<polyline fill="none" stroke="black" points="923.5,-330.5 1015.5,-330.5 "/>
<text text-anchor="middle" x="969.5" y="-318.5" font-family="Helvetica,sans-Serif" font-size="10.00"> </text>
<polyline fill="none" stroke="black" points="923.5,-311.5 1015.5,-311.5 "/>
<text text-anchor="start" x="931.5" y="-299.5" font-family="Helvetica,sans-Serif" font-size="10.00"># doExecute()</text>
</a>
</g>
</g>
<!-- Node1&#45;&gt;Node14 -->
<g id="edge13" class="edge"><title>Node1&#45;&gt;Node14</title>
<path fill="none" stroke="midnightblue" d="M1175.08,-502.839C1127.38,-484.178 1068.3,-455.482 1025.5,-416 1005.39,-397.453 990.189,-370.029 980.732,-349.583"/>
<polygon fill="none" stroke="midnightblue" points="1173.87,-506.123 1184.46,-506.437 1176.38,-499.587 1173.87,-506.123"/>
</g>
<!-- Node15 -->
<g id="node15" class="node"><title>Node15</title>
<g id="a_node15"><a xlink:href="classwcmf_1_1application_1_1controller_1_1_login_controller.html" target="_top" xlink:title="LoginController handles the login process. ">
<polygon fill="white" stroke="black" points="1034,-281.5 1034,-360.5 1115,-360.5 1115,-281.5 1034,-281.5"/>
<text text-anchor="middle" x="1074.5" y="-348.5" font-family="Helvetica,sans-Serif" font-size="10.00">LoginController</text>
<polyline fill="none" stroke="black" points="1034,-341.5 1115,-341.5 "/>
<text text-anchor="middle" x="1074.5" y="-329.5" font-family="Helvetica,sans-Serif" font-size="10.00"> </text>
<polyline fill="none" stroke="black" points="1034,-322.5 1115,-322.5 "/>
<text text-anchor="start" x="1042" y="-310.5" font-family="Helvetica,sans-Serif" font-size="10.00">+ initialize()</text>
<text text-anchor="start" x="1042" y="-299.5" font-family="Helvetica,sans-Serif" font-size="10.00"># validate()</text>
<text text-anchor="start" x="1042" y="-288.5" font-family="Helvetica,sans-Serif" font-size="10.00"># doExecute()</text>
</a>
</g>
</g>
<!-- Node1&#45;&gt;Node15 -->
<g id="edge14" class="edge"><title>Node1&#45;&gt;Node15</title>
<path fill="none" stroke="midnightblue" d="M1176.58,-469.134C1158.19,-453.073 1139.62,-434.895 1124.5,-416 1111.11,-399.256 1099.58,-378.386 1090.99,-360.567"/>
<polygon fill="none" stroke="midnightblue" points="1174.57,-472.023 1184.43,-475.884 1179.13,-466.713 1174.57,-472.023"/>
</g>
<!-- Node16 -->
<g id="node16" class="node"><title>Node16</title>
<g id="a_node16"><a xlink:href="classwcmf_1_1application_1_1controller_1_1_media_controller.html" target="_top" xlink:title="MediaController integrates elFinder (https://github.com/Studio&#45;42/elFinder) into wCMF. ">
<polygon fill="white" stroke="black" points="1133.5,-281.5 1133.5,-360.5 1253.5,-360.5 1253.5,-281.5 1133.5,-281.5"/>
<text text-anchor="middle" x="1193.5" y="-348.5" font-family="Helvetica,sans-Serif" font-size="10.00">MediaController</text>
<polyline fill="none" stroke="black" points="1133.5,-341.5 1253.5,-341.5 "/>
<text text-anchor="middle" x="1193.5" y="-329.5" font-family="Helvetica,sans-Serif" font-size="10.00"> </text>
<polyline fill="none" stroke="black" points="1133.5,-322.5 1253.5,-322.5 "/>
<text text-anchor="start" x="1141.5" y="-310.5" font-family="Helvetica,sans-Serif" font-size="10.00"># doExecute()</text>
<text text-anchor="start" x="1141.5" y="-299.5" font-family="Helvetica,sans-Serif" font-size="10.00"># onFileMoved()</text>
<text text-anchor="start" x="1141.5" y="-288.5" font-family="Helvetica,sans-Serif" font-size="10.00"># getResourceBaseDir()</text>
</a>
</g>
</g>
<!-- Node1&#45;&gt;Node16 -->
<g id="edge15" class="edge"><title>Node1&#45;&gt;Node16</title>
<path fill="none" stroke="midnightblue" d="M1230.12,-442.627C1221.45,-414.061 1212.25,-383.742 1205.23,-360.645"/>
<polygon fill="none" stroke="midnightblue" points="1226.79,-443.683 1233.04,-452.235 1233.48,-441.649 1226.79,-443.683"/>
</g>
<!-- Node17 -->
<g id="node17" class="node"><title>Node17</title>
<g id="a_node17"><a xlink:href="classwcmf_1_1application_1_1controller_1_1_message_controller.html" target="_top" xlink:title="MessageController is used to get all messages translated to the given language. ">
<polygon fill="white" stroke="black" points="1271.5,-287 1271.5,-355 1369.5,-355 1369.5,-287 1271.5,-287"/>
<text text-anchor="middle" x="1320.5" y="-343" font-family="Helvetica,sans-Serif" font-size="10.00">MessageController</text>
<polyline fill="none" stroke="black" points="1271.5,-336 1369.5,-336 "/>
<text text-anchor="middle" x="1320.5" y="-324" font-family="Helvetica,sans-Serif" font-size="10.00"> </text>
<polyline fill="none" stroke="black" points="1271.5,-317 1369.5,-317 "/>
<text text-anchor="start" x="1279.5" y="-305" font-family="Helvetica,sans-Serif" font-size="10.00"># validate()</text>
<text text-anchor="start" x="1279.5" y="-294" font-family="Helvetica,sans-Serif" font-size="10.00"># doExecute()</text>
</a>
</g>
</g>
<!-- Node1&#45;&gt;Node17 -->
<g id="edge16" class="edge"><title>Node1&#45;&gt;Node17</title>
<path fill="none" stroke="midnightblue" d="M1283.39,-442.312C1292.9,-411.491 1303.02,-378.668 1310.29,-355.105"/>
<polygon fill="none" stroke="midnightblue" points="1279.93,-441.647 1280.33,-452.235 1286.62,-443.71 1279.93,-441.647"/>
</g>
<!-- Node18 -->
<g id="node18" class="node"><title>Node18</title>
<g id="a_node18"><a xlink:href="classwcmf_1_1application_1_1controller_1_1_multiple_action_controller.html" target="_top" xlink:title="MultipleActionController executes multiple actions by passing them do the appropriate controllers and...">
<polygon fill="white" stroke="black" points="1388,-287 1388,-355 1507,-355 1507,-287 1388,-287"/>
<text text-anchor="middle" x="1447.5" y="-343" font-family="Helvetica,sans-Serif" font-size="10.00">MultipleActionController</text>
<polyline fill="none" stroke="black" points="1388,-336 1507,-336 "/>
<text text-anchor="middle" x="1447.5" y="-324" font-family="Helvetica,sans-Serif" font-size="10.00"> </text>
<polyline fill="none" stroke="black" points="1388,-317 1507,-317 "/>
<text text-anchor="start" x="1396" y="-305" font-family="Helvetica,sans-Serif" font-size="10.00"># validate()</text>
<text text-anchor="start" x="1396" y="-294" font-family="Helvetica,sans-Serif" font-size="10.00"># doExecute()</text>
</a>
</g>
</g>
<!-- Node1&#45;&gt;Node18 -->
<g id="edge17" class="edge"><title>Node1&#45;&gt;Node18</title>
<path fill="none" stroke="midnightblue" d="M1336.28,-459.358C1350.81,-445.458 1365.48,-430.629 1378.5,-416 1395.46,-396.947 1412.44,-373.878 1425.31,-355.362"/>
<polygon fill="none" stroke="midnightblue" points="1333.56,-457.118 1328.7,-466.537 1338.37,-462.2 1333.56,-457.118"/>
</g>
<!-- Node19 -->
<g id="node19" class="node"><title>Node19</title>
<g id="a_node19"><a xlink:href="classwcmf_1_1application_1_1controller_1_1_permissions_controller.html" target="_top" xlink:title="PermissionsController checks permissions for a set of operations for the current user. ">
<polygon fill="white" stroke="black" points="1525.5,-292.5 1525.5,-349.5 1637.5,-349.5 1637.5,-292.5 1525.5,-292.5"/>
<text text-anchor="middle" x="1581.5" y="-337.5" font-family="Helvetica,sans-Serif" font-size="10.00">PermissionsController</text>
<polyline fill="none" stroke="black" points="1525.5,-330.5 1637.5,-330.5 "/>
<text text-anchor="middle" x="1581.5" y="-318.5" font-family="Helvetica,sans-Serif" font-size="10.00"> </text>
<polyline fill="none" stroke="black" points="1525.5,-311.5 1637.5,-311.5 "/>
<text text-anchor="start" x="1533.5" y="-299.5" font-family="Helvetica,sans-Serif" font-size="10.00"># doExecute()</text>
</a>
</g>
</g>
<!-- Node1&#45;&gt;Node19 -->
<g id="edge18" class="edge"><title>Node1&#45;&gt;Node19</title>
<path fill="none" stroke="midnightblue" d="M1338.17,-506.814C1392.85,-488.688 1464.13,-459.112 1516.5,-416 1538.56,-397.842 1556.37,-370.37 1567.73,-349.807"/>
<polygon fill="none" stroke="midnightblue" points="1336.94,-503.534 1328.51,-509.955 1339.1,-510.191 1336.94,-503.534"/>
</g>
<!-- Node20 -->
<g id="node20" class="node"><title>Node20</title>
<g id="a_node20"><a xlink:href="classwcmf_1_1application_1_1controller_1_1_r_e_s_t_controller.html" target="_top" xlink:title="RESTController handles REST requests. ">
<polygon fill="white" stroke="black" points="1656,-237.5 1656,-404.5 1805,-404.5 1805,-237.5 1656,-237.5"/>
<text text-anchor="middle" x="1730.5" y="-392.5" font-family="Helvetica,sans-Serif" font-size="10.00">RESTController</text>
<polyline fill="none" stroke="black" points="1656,-385.5 1805,-385.5 "/>
<text text-anchor="middle" x="1730.5" y="-373.5" font-family="Helvetica,sans-Serif" font-size="10.00"> </text>
<polyline fill="none" stroke="black" points="1656,-366.5 1805,-366.5 "/>
<text text-anchor="start" x="1664" y="-354.5" font-family="Helvetica,sans-Serif" font-size="10.00">+ initialize()</text>
<text text-anchor="start" x="1664" y="-343.5" font-family="Helvetica,sans-Serif" font-size="10.00"># validate()</text>
<text text-anchor="start" x="1664" y="-332.5" font-family="Helvetica,sans-Serif" font-size="10.00"># doExecute()</text>
<text text-anchor="start" x="1664" y="-321.5" font-family="Helvetica,sans-Serif" font-size="10.00"># handleGet()</text>
<text text-anchor="start" x="1664" y="-310.5" font-family="Helvetica,sans-Serif" font-size="10.00"># assignResponseDefaults()</text>
<text text-anchor="start" x="1664" y="-299.5" font-family="Helvetica,sans-Serif" font-size="10.00"># handlePost()</text>
<text text-anchor="start" x="1664" y="-288.5" font-family="Helvetica,sans-Serif" font-size="10.00"># handlePut()</text>
<text text-anchor="start" x="1664" y="-277.5" font-family="Helvetica,sans-Serif" font-size="10.00"># handleDelete()</text>
<text text-anchor="start" x="1664" y="-266.5" font-family="Helvetica,sans-Serif" font-size="10.00"># setLocationHeaderFromOid()</text>
<text text-anchor="start" x="1664" y="-255.5" font-family="Helvetica,sans-Serif" font-size="10.00"># getFirstRequestOid()</text>
<text text-anchor="start" x="1664" y="-244.5" font-family="Helvetica,sans-Serif" font-size="10.00"># getRelatedType()</text>
</a>
</g>
</g>
<!-- Node1&#45;&gt;Node20 -->
<g id="edge19" class="edge"><title>Node1&#45;&gt;Node20</title>
<path fill="none" stroke="midnightblue" d="M1338.77,-519.107C1421.68,-505.657 1550.72,-476.366 1646.5,-416 1651.87,-412.616 1657.1,-408.792 1662.16,-404.672"/>
<polygon fill="none" stroke="midnightblue" points="1337.97,-515.689 1328.64,-520.708 1339.07,-522.603 1337.97,-515.689"/>
</g>
<!-- Node21 -->
<g id="node21" class="node"><title>Node21</title>
<g id="a_node21"><a xlink:href="classwcmf_1_1application_1_1controller_1_1_save_controller.html" target="_top" xlink:title="SaveController is a controller that saves Node data. ">
<polygon fill="white" stroke="black" points="1823.5,-232 1823.5,-410 1937.5,-410 1937.5,-232 1823.5,-232"/>
<text text-anchor="middle" x="1880.5" y="-398" font-family="Helvetica,sans-Serif" font-size="10.00">SaveController</text>
<polyline fill="none" stroke="black" points="1823.5,-391 1937.5,-391 "/>
<text text-anchor="middle" x="1880.5" y="-379" font-family="Helvetica,sans-Serif" font-size="10.00"> </text>
<polyline fill="none" stroke="black" points="1823.5,-372 1937.5,-372 "/>
<text text-anchor="start" x="1831.5" y="-360" font-family="Helvetica,sans-Serif" font-size="10.00"># validate()</text>
<text text-anchor="start" x="1831.5" y="-349" font-family="Helvetica,sans-Serif" font-size="10.00"># doExecute()</text>
<text text-anchor="start" x="1831.5" y="-338" font-family="Helvetica,sans-Serif" font-size="10.00"># saveUploadFile()</text>
<text text-anchor="start" x="1831.5" y="-327" font-family="Helvetica,sans-Serif" font-size="10.00"># isFileUpload()</text>
<text text-anchor="start" x="1831.5" y="-316" font-family="Helvetica,sans-Serif" font-size="10.00"># checkFile()</text>
<text text-anchor="start" x="1831.5" y="-305" font-family="Helvetica,sans-Serif" font-size="10.00"># getUploadFilename()</text>
<text text-anchor="start" x="1831.5" y="-294" font-family="Helvetica,sans-Serif" font-size="10.00"># shouldOverride()</text>
<text text-anchor="start" x="1831.5" y="-283" font-family="Helvetica,sans-Serif" font-size="10.00"># getUploadDir()</text>
<text text-anchor="start" x="1831.5" y="-272" font-family="Helvetica,sans-Serif" font-size="10.00"># confirmSaveValue()</text>
<text text-anchor="start" x="1831.5" y="-261" font-family="Helvetica,sans-Serif" font-size="10.00"># confirmSave()</text>
<text text-anchor="start" x="1831.5" y="-250" font-family="Helvetica,sans-Serif" font-size="10.00"># beforeSave()</text>
<text text-anchor="start" x="1831.5" y="-239" font-family="Helvetica,sans-Serif" font-size="10.00"># afterSave()</text>
</a>
</g>
</g>
<!-- Node1&#45;&gt;Node21 -->
<g id="edge20" class="edge"><title>Node1&#45;&gt;Node21</title>
<path fill="none" stroke="midnightblue" d="M1338.87,-520.307C1474.38,-503.952 1737.06,-466.696 1814.5,-416 1817.5,-414.034 1820.41,-411.88 1823.22,-409.574"/>
<polygon fill="none" stroke="midnightblue" points="1338.06,-516.88 1328.54,-521.543 1338.89,-523.83 1338.06,-516.88"/>
</g>
<!-- Node22 -->
<g id="node22" class="node"><title>Node22</title>
<g id="a_node22"><a xlink:href="classwcmf_1_1application_1_1controller_1_1_s_o_a_p_controller.html" target="_top" xlink:title="SOAPController handles SOAP requests. ">
<polygon fill="white" stroke="black" points="1955.5,-287 1955.5,-355 2041.5,-355 2041.5,-287 1955.5,-287"/>
<text text-anchor="middle" x="1998.5" y="-343" font-family="Helvetica,sans-Serif" font-size="10.00">SOAPController</text>
<polyline fill="none" stroke="black" points="1955.5,-336 2041.5,-336 "/>
<text text-anchor="middle" x="1998.5" y="-324" font-family="Helvetica,sans-Serif" font-size="10.00"> </text>
<polyline fill="none" stroke="black" points="1955.5,-317 2041.5,-317 "/>
<text text-anchor="start" x="1963.5" y="-305" font-family="Helvetica,sans-Serif" font-size="10.00">+ search()</text>
<text text-anchor="start" x="1963.5" y="-294" font-family="Helvetica,sans-Serif" font-size="10.00"># doExecute()</text>
</a>
</g>
</g>
<!-- Node1&#45;&gt;Node22 -->
<g id="edge21" class="edge"><title>Node1&#45;&gt;Node22</title>
<path fill="none" stroke="midnightblue" d="M1338.96,-524.854C1500.16,-514.357 1849.79,-484.211 1946.5,-416 1967.07,-401.489 1980.41,-376.142 1988.42,-355.423"/>
<polygon fill="none" stroke="midnightblue" points="1338.37,-521.384 1328.62,-525.517 1338.82,-528.37 1338.37,-521.384"/>
</g>
<!-- Node23 -->
<g id="node23" class="node"><title>Node23</title>
<g id="a_node23"><a xlink:href="classwcmf_1_1application_1_1controller_1_1_sort_controller.html" target="_top" xlink:title="SortController is used to change the order of nodes. ">
<polygon fill="white" stroke="black" points="2059.5,-248.5 2059.5,-393.5 2211.5,-393.5 2211.5,-248.5 2059.5,-248.5"/>
<text text-anchor="middle" x="2135.5" y="-381.5" font-family="Helvetica,sans-Serif" font-size="10.00">SortController</text>
<polyline fill="none" stroke="black" points="2059.5,-374.5 2211.5,-374.5 "/>
<text text-anchor="start" x="2067.5" y="-362.5" font-family="Helvetica,sans-Serif" font-size="10.00">+ ORDER_BOTTOM</text>
<text text-anchor="start" x="2067.5" y="-351.5" font-family="Helvetica,sans-Serif" font-size="10.00">+ UNBOUND</text>
<polyline fill="none" stroke="black" points="2059.5,-344.5 2211.5,-344.5 "/>
<text text-anchor="start" x="2067.5" y="-332.5" font-family="Helvetica,sans-Serif" font-size="10.00"># validate()</text>
<text text-anchor="start" x="2067.5" y="-321.5" font-family="Helvetica,sans-Serif" font-size="10.00"># doExecute()</text>
<text text-anchor="start" x="2067.5" y="-310.5" font-family="Helvetica,sans-Serif" font-size="10.00"># doMoveBefore()</text>
<text text-anchor="start" x="2067.5" y="-299.5" font-family="Helvetica,sans-Serif" font-size="10.00"># doInsertBefore()</text>
<text text-anchor="start" x="2067.5" y="-288.5" font-family="Helvetica,sans-Serif" font-size="10.00"># loadObjectsInSortkeyRange()</text>
<text text-anchor="start" x="2067.5" y="-277.5" font-family="Helvetica,sans-Serif" font-size="10.00"># checkObjects()</text>
<text text-anchor="start" x="2067.5" y="-266.5" font-family="Helvetica,sans-Serif" font-size="10.00"># isOrderBotton()</text>
<text text-anchor="start" x="2067.5" y="-255.5" font-family="Helvetica,sans-Serif" font-size="10.00"># getSortkeyValue()</text>
</a>
</g>
</g>
<!-- Node1&#45;&gt;Node23 -->
<g id="edge22" class="edge"><title>Node1&#45;&gt;Node23</title>
<path fill="none" stroke="midnightblue" d="M1338.84,-524.803C1516.19,-513.56 1928.17,-481.065 2050.5,-416 2061.38,-410.214 2071.56,-402.462 2080.84,-393.88"/>
<polygon fill="none" stroke="midnightblue" points="1338.54,-521.315 1328.78,-525.434 1338.98,-528.301 1338.54,-521.315"/>
</g>
<!-- Node24 -->
<g id="node24" class="node"><title>Node24</title>
<g id="a_node24"><a xlink:href="classwcmf_1_1application_1_1controller_1_1_tree_controller.html" target="_top" xlink:title="TreeController is used to visualize nodes in a tree view. ">
<polygon fill="white" stroke="black" points="2229.5,-254 2229.5,-388 2331.5,-388 2331.5,-254 2229.5,-254"/>
<text text-anchor="middle" x="2280.5" y="-376" font-family="Helvetica,sans-Serif" font-size="10.00">TreeController</text>
<polyline fill="none" stroke="black" points="2229.5,-369 2331.5,-369 "/>
<text text-anchor="middle" x="2280.5" y="-357" font-family="Helvetica,sans-Serif" font-size="10.00"> </text>
<polyline fill="none" stroke="black" points="2229.5,-350 2331.5,-350 "/>
<text text-anchor="start" x="2237.5" y="-338" font-family="Helvetica,sans-Serif" font-size="10.00"># doExecute()</text>
<text text-anchor="start" x="2237.5" y="-327" font-family="Helvetica,sans-Serif" font-size="10.00"># getChildren()</text>
<text text-anchor="start" x="2237.5" y="-316" font-family="Helvetica,sans-Serif" font-size="10.00"># getRootOIDs()</text>
<text text-anchor="start" x="2237.5" y="-305" font-family="Helvetica,sans-Serif" font-size="10.00"># getViewNode()</text>
<text text-anchor="start" x="2237.5" y="-294" font-family="Helvetica,sans-Serif" font-size="10.00"># isVisible()</text>
<text text-anchor="start" x="2237.5" y="-283" font-family="Helvetica,sans-Serif" font-size="10.00"># getDisplayText()</text>
<text text-anchor="start" x="2237.5" y="-272" font-family="Helvetica,sans-Serif" font-size="10.00"># getRootTypes()</text>
<text text-anchor="start" x="2237.5" y="-261" font-family="Helvetica,sans-Serif" font-size="10.00"># isRootTypeNode()</text>
</a>
</g>
</g>
<!-- Node1&#45;&gt;Node24 -->
<g id="edge23" class="edge"><title>Node1&#45;&gt;Node24</title>
<path fill="none" stroke="midnightblue" d="M1338.86,-528.7C1544.46,-525.322 2074.21,-507.706 2220.5,-416 2231.65,-409.007 2241.12,-399.097 2249,-388.313"/>
<polygon fill="none" stroke="midnightblue" points="1338.67,-525.203 1328.73,-528.859 1338.78,-532.202 1338.67,-525.203"/>
</g>
<!-- Node25 -->
<g id="node25" class="node"><title>Node25</title>
<g id="a_node25"><a xlink:href="classwcmf_1_1application_1_1controller_1_1_user_controller.html" target="_top" xlink:title="UserController is used to change the current user&#39;s password. ">
<polygon fill="white" stroke="black" points="2349.5,-287 2349.5,-355 2455.5,-355 2455.5,-287 2349.5,-287"/>
<text text-anchor="middle" x="2402.5" y="-343" font-family="Helvetica,sans-Serif" font-size="10.00">UserController</text>
<polyline fill="none" stroke="black" points="2349.5,-336 2455.5,-336 "/>
<text text-anchor="middle" x="2402.5" y="-324" font-family="Helvetica,sans-Serif" font-size="10.00"> </text>
<polyline fill="none" stroke="black" points="2349.5,-317 2455.5,-317 "/>
<text text-anchor="start" x="2357.5" y="-305" font-family="Helvetica,sans-Serif" font-size="10.00">+ changePassword()</text>
<text text-anchor="start" x="2357.5" y="-294" font-family="Helvetica,sans-Serif" font-size="10.00"># doExecute()</text>
</a>
</g>
</g>
<!-- Node1&#45;&gt;Node25 -->
<g id="edge24" class="edge"><title>Node1&#45;&gt;Node25</title>
<path fill="none" stroke="midnightblue" d="M1338.96,-529.803C1562.12,-529.245 2172.36,-518.168 2340.5,-416 2363.39,-402.092 2379.54,-376.149 2389.6,-355.035"/>
<polygon fill="none" stroke="midnightblue" points="1338.63,-526.304 1328.63,-529.822 1338.64,-533.304 1338.63,-526.304"/>
</g>
<!-- Node26 -->
<g id="node26" class="node"><title>Node26</title>
<g id="a_node26"><a xlink:href="classwcmf_1_1application_1_1controller_1_1_value_list_controller.html" target="_top" xlink:title="ValueListController is used to resolve lists for input_type definitions. ">
<polygon fill="white" stroke="black" points="2473.5,-287 2473.5,-355 2571.5,-355 2571.5,-287 2473.5,-287"/>
<text text-anchor="middle" x="2522.5" y="-343" font-family="Helvetica,sans-Serif" font-size="10.00">ValueListController</text>
<polyline fill="none" stroke="black" points="2473.5,-336 2571.5,-336 "/>
<text text-anchor="middle" x="2522.5" y="-324" font-family="Helvetica,sans-Serif" font-size="10.00"> </text>
<polyline fill="none" stroke="black" points="2473.5,-317 2571.5,-317 "/>
<text text-anchor="start" x="2481.5" y="-305" font-family="Helvetica,sans-Serif" font-size="10.00">+ doExecute()</text>
<text text-anchor="start" x="2481.5" y="-294" font-family="Helvetica,sans-Serif" font-size="10.00"># validate()</text>
</a>
</g>
</g>
<!-- Node1&#45;&gt;Node26 -->
<g id="edge25" class="edge"><title>Node1&#45;&gt;Node26</title>
<path fill="none" stroke="midnightblue" d="M1338.68,-526.003C1595.12,-514.512 2369.15,-475.227 2464.5,-416 2486.82,-402.138 2501.86,-376.192 2511.02,-355.065"/>
<polygon fill="none" stroke="midnightblue" points="1338.52,-522.507 1328.68,-526.449 1338.83,-529.5 1338.52,-522.507"/>
</g>
<!-- Node4 -->
<g id="node4" class="node"><title>Node4</title>
<g id="a_node4"><a xlink:href="classwcmf_1_1application_1_1controller_1_1_batch_display_controller.html" target="_top" xlink:title="BatchDisplayController is used to load a tree of Node instances recursivly and return them in lists o...">
<polygon fill="white" stroke="black" points="0,-17 0,-173 123,-173 123,-17 0,-17"/>
<text text-anchor="middle" x="61.5" y="-161" font-family="Helvetica,sans-Serif" font-size="10.00">BatchDisplayController</text>
<polyline fill="none" stroke="black" points="0,-154 123,-154 "/>
<text text-anchor="middle" x="61.5" y="-142" font-family="Helvetica,sans-Serif" font-size="10.00"> </text>
<polyline fill="none" stroke="black" points="0,-135 123,-135 "/>
<text text-anchor="start" x="8" y="-123" font-family="Helvetica,sans-Serif" font-size="10.00">+ initialize()</text>
<text text-anchor="start" x="8" y="-112" font-family="Helvetica,sans-Serif" font-size="10.00"># validate()</text>
<text text-anchor="start" x="8" y="-101" font-family="Helvetica,sans-Serif" font-size="10.00"># getWorkPackage()</text>
<text text-anchor="start" x="8" y="-90" font-family="Helvetica,sans-Serif" font-size="10.00"># startProcess()</text>
<text text-anchor="start" x="8" y="-79" font-family="Helvetica,sans-Serif" font-size="10.00"># loadNodes()</text>
<text text-anchor="start" x="8" y="-68" font-family="Helvetica,sans-Serif" font-size="10.00"># endProcess()</text>
<text text-anchor="start" x="8" y="-57" font-family="Helvetica,sans-Serif" font-size="10.00"># loadNode()</text>
<text text-anchor="start" x="8" y="-46" font-family="Helvetica,sans-Serif" font-size="10.00"># register()</text>
<text text-anchor="start" x="8" y="-35" font-family="Helvetica,sans-Serif" font-size="10.00"># isRegistered()</text>
<text text-anchor="start" x="8" y="-24" font-family="Helvetica,sans-Serif" font-size="10.00"># addNodeToResponse()</text>
</a>
</g>
</g>
<!-- Node3&#45;&gt;Node4 -->
<g id="edge3" class="edge"><title>Node3&#45;&gt;Node4</title>
<path fill="none" stroke="midnightblue" d="M161.897,-222.89C151.781,-211.968 141.804,-200.861 132.5,-190 127.843,-184.564 123.133,-178.857 118.47,-173.055"/>
<polygon fill="none" stroke="midnightblue" points="159.537,-225.491 168.917,-230.417 164.656,-220.716 159.537,-225.491"/>
</g>
<!-- Node5 -->
<g id="node5" class="node"><title>Node5</title>
<g id="a_node5"><a xlink:href="classwcmf_1_1application_1_1controller_1_1_copy_controller.html" target="_top" xlink:title="CopyController is used to copy or move Node instances. ">
<polygon fill="white" stroke="black" points="141.5,-0.5 141.5,-189.5 247.5,-189.5 247.5,-0.5 141.5,-0.5"/>
<text text-anchor="middle" x="194.5" y="-177.5" font-family="Helvetica,sans-Serif" font-size="10.00">CopyController</text>
<polyline fill="none" stroke="black" points="141.5,-170.5 247.5,-170.5 "/>
<text text-anchor="middle" x="194.5" y="-158.5" font-family="Helvetica,sans-Serif" font-size="10.00"> </text>
<polyline fill="none" stroke="black" points="141.5,-151.5 247.5,-151.5 "/>
<text text-anchor="start" x="149.5" y="-139.5" font-family="Helvetica,sans-Serif" font-size="10.00">+ initialize()</text>
<text text-anchor="start" x="149.5" y="-128.5" font-family="Helvetica,sans-Serif" font-size="10.00"># validate()</text>
<text text-anchor="start" x="149.5" y="-117.5" font-family="Helvetica,sans-Serif" font-size="10.00"># getWorkPackage()</text>
<text text-anchor="start" x="149.5" y="-106.5" font-family="Helvetica,sans-Serif" font-size="10.00"># startProcess()</text>
<text text-anchor="start" x="149.5" y="-95.5" font-family="Helvetica,sans-Serif" font-size="10.00"># copyNodes()</text>
<text text-anchor="start" x="149.5" y="-84.5" font-family="Helvetica,sans-Serif" font-size="10.00"># endProcess()</text>
<text text-anchor="start" x="149.5" y="-73.5" font-family="Helvetica,sans-Serif" font-size="10.00"># copyNode()</text>
<text text-anchor="start" x="149.5" y="-62.5" font-family="Helvetica,sans-Serif" font-size="10.00"># getTargetNode()</text>
<text text-anchor="start" x="149.5" y="-51.5" font-family="Helvetica,sans-Serif" font-size="10.00"># registerCopy()</text>
<text text-anchor="start" x="149.5" y="-40.5" font-family="Helvetica,sans-Serif" font-size="10.00"># updateCopyOIDs()</text>
<text text-anchor="start" x="149.5" y="-29.5" font-family="Helvetica,sans-Serif" font-size="10.00"># getCopyOID()</text>
<text text-anchor="start" x="149.5" y="-18.5" font-family="Helvetica,sans-Serif" font-size="10.00"># getCopy()</text>
<text text-anchor="start" x="149.5" y="-7.5" font-family="Helvetica,sans-Serif" font-size="10.00"># modify()</text>
</a>
</g>
</g>
<!-- Node3&#45;&gt;Node5 -->
<g id="edge4" class="edge"><title>Node3&#45;&gt;Node5</title>
<path fill="none" stroke="midnightblue" d="M228.958,-216.602C226.393,-207.625 223.807,-198.575 221.267,-189.683"/>
<polygon fill="none" stroke="midnightblue" points="225.616,-217.648 231.729,-226.302 232.347,-215.725 225.616,-217.648"/>
</g>
<!-- Node6 -->
<g id="node6" class="node"><title>Node6</title>
<g id="a_node6"><a xlink:href="classwcmf_1_1application_1_1controller_1_1_search_index_controller.html" target="_top" xlink:title="SearchIndexController creates a Lucene index from the complete datastore. ">
<polygon fill="white" stroke="black" points="265.5,-50 265.5,-140 377.5,-140 377.5,-50 265.5,-50"/>
<text text-anchor="middle" x="321.5" y="-128" font-family="Helvetica,sans-Serif" font-size="10.00">SearchIndexController</text>
<polyline fill="none" stroke="black" points="265.5,-121 377.5,-121 "/>
<text text-anchor="middle" x="321.5" y="-109" font-family="Helvetica,sans-Serif" font-size="10.00"> </text>
<polyline fill="none" stroke="black" points="265.5,-102 377.5,-102 "/>
<text text-anchor="start" x="273.5" y="-90" font-family="Helvetica,sans-Serif" font-size="10.00"># getWorkPackage()</text>
<text text-anchor="start" x="273.5" y="-79" font-family="Helvetica,sans-Serif" font-size="10.00"># collect()</text>
<text text-anchor="start" x="273.5" y="-68" font-family="Helvetica,sans-Serif" font-size="10.00"># index()</text>
<text text-anchor="start" x="273.5" y="-57" font-family="Helvetica,sans-Serif" font-size="10.00"># optimize()</text>
</a>
</g>
</g>
<!-- Node3&#45;&gt;Node6 -->
<g id="edge5" class="edge"><title>Node3&#45;&gt;Node6</title>
<path fill="none" stroke="midnightblue" d="M287.622,-216.454C295.171,-189.614 302.903,-162.122 309.071,-140.193"/>
<polygon fill="none" stroke="midnightblue" points="284.191,-215.728 284.853,-226.302 290.929,-217.623 284.191,-215.728"/>
</g>
<!-- Node7 -->
<g id="node7" class="node"><title>Node7</title>
<g id="a_node7"><a xlink:href="classwcmf_1_1application_1_1controller_1_1_x_m_l_export_controller.html" target="_top" xlink:title="XMLExportController exports the content tree into an XML file. ">
<polygon fill="white" stroke="black" points="395.5,-6 395.5,-184 565.5,-184 565.5,-6 395.5,-6"/>
<text text-anchor="middle" x="480.5" y="-172" font-family="Helvetica,sans-Serif" font-size="10.00">XMLExportController</text>
<polyline fill="none" stroke="black" points="395.5,-165 565.5,-165 "/>
<text text-anchor="start" x="403.5" y="-153" font-family="Helvetica,sans-Serif" font-size="10.00">+ CACHE_SECTION</text>
<text text-anchor="start" x="403.5" y="-142" font-family="Helvetica,sans-Serif" font-size="10.00">+ CACHE_KEY_ROOT_OIDS</text>
<text text-anchor="start" x="403.5" y="-131" font-family="Helvetica,sans-Serif" font-size="10.00">+ CACHE_KEY_EXPORTED_OIDS</text>
<polyline fill="none" stroke="black" points="395.5,-124 565.5,-124 "/>
<text text-anchor="start" x="403.5" y="-112" font-family="Helvetica,sans-Serif" font-size="10.00">+ initialize()</text>
<text text-anchor="start" x="403.5" y="-101" font-family="Helvetica,sans-Serif" font-size="10.00"># getWorkPackage()</text>
<text text-anchor="start" x="403.5" y="-90" font-family="Helvetica,sans-Serif" font-size="10.00"># getDownloadFile()</text>
<text text-anchor="start" x="403.5" y="-79" font-family="Helvetica,sans-Serif" font-size="10.00"># initExport()</text>
<text text-anchor="start" x="403.5" y="-68" font-family="Helvetica,sans-Serif" font-size="10.00"># exportNodes()</text>
<text text-anchor="start" x="403.5" y="-57" font-family="Helvetica,sans-Serif" font-size="10.00"># finishExport()</text>
<text text-anchor="start" x="403.5" y="-46" font-family="Helvetica,sans-Serif" font-size="10.00"># endTags()</text>
<text text-anchor="start" x="403.5" y="-35" font-family="Helvetica,sans-Serif" font-size="10.00"># writeNode()</text>
<text text-anchor="start" x="403.5" y="-24" font-family="Helvetica,sans-Serif" font-size="10.00"># getNumUnvisitedChildren()</text>
<text text-anchor="start" x="403.5" y="-13" font-family="Helvetica,sans-Serif" font-size="10.00"># formatValue()</text>
</a>
</g>
</g>
<!-- Node3&#45;&gt;Node7 -->
<g id="edge6" class="edge"><title>Node3&#45;&gt;Node7</title>
<path fill="none" stroke="midnightblue" d="M355.47,-222.156C368.695,-208.813 382.189,-195.197 395.186,-182.082"/>
<polygon fill="none" stroke="midnightblue" points="352.709,-219.97 348.156,-229.536 357.681,-224.897 352.709,-219.97"/>
</g>
<!-- Node13 -->
<g id="node13" class="node"><title>Node13</title>
<g id="a_node13"><a xlink:href="classwcmf_1_1application_1_1controller_1_1_search_controller.html" target="_top" xlink:title="SearchController executes a search and returns matching objects in a paged list. ">
<polygon fill="white" stroke="black" points="818,-61 818,-129 907,-129 907,-61 818,-61"/>
<text text-anchor="middle" x="862.5" y="-117" font-family="Helvetica,sans-Serif" font-size="10.00">SearchController</text>
<polyline fill="none" stroke="black" points="818,-110 907,-110 "/>
<text text-anchor="start" x="826" y="-98" font-family="Helvetica,sans-Serif" font-size="10.00"># $_hits</text>
<polyline fill="none" stroke="black" points="818,-91 907,-91 "/>
<text text-anchor="start" x="826" y="-79" font-family="Helvetica,sans-Serif" font-size="10.00"># getObjects()</text>
<text text-anchor="start" x="826" y="-68" font-family="Helvetica,sans-Serif" font-size="10.00"># modifyModel()</text>
</a>
</g>
</g>
<!-- Node12&#45;&gt;Node13 -->
<g id="edge12" class="edge"><title>Node12&#45;&gt;Node13</title>
<path fill="none" stroke="midnightblue" d="M862.5,-265.545C862.5,-222.968 862.5,-165.158 862.5,-129.237"/>
<polygon fill="none" stroke="midnightblue" points="859,-265.745 862.5,-275.745 866,-265.745 859,-265.745"/>
</g>
</g>
</svg>
