<?xml version="1.0" encoding="UTF-8" standalone="no"?>
<!DOCTYPE svg PUBLIC "-//W3C//DTD SVG 1.1//EN"
 "http://www.w3.org/Graphics/SVG/1.1/DTD/svg11.dtd">
<!-- Generated by graphviz version 2.38.0 (20140413.2041)
 -->
<!-- Title: AbstractRole Pages: 1 -->
<svg width="276pt" height="650pt"
 viewBox="0.00 0.00 276.00 650.00" xmlns="http://www.w3.org/2000/svg" xmlns:xlink="http://www.w3.org/1999/xlink">
<g id="graph0" class="graph" transform="scale(1 1) rotate(0) translate(4 646)">
<title>AbstractRole</title>
<polygon fill="white" stroke="none" points="-4,4 -4,-646 272,-646 272,4 -4,4"/>
<!-- Node1 -->
<g id="node1" class="node"><title>Node1</title>
<polygon fill="#bfbfbf" stroke="black" points="116,-0.5 116,-79.5 205,-79.5 205,-0.5 116,-0.5"/>
<text text-anchor="middle" x="160.5" y="-67.5" font-family="Helvetica,sans-Serif" font-size="10.00">AbstractRole</text>
<polyline fill="none" stroke="black" points="116,-60.5 205,-60.5 "/>
<text text-anchor="middle" x="160.5" y="-48.5" font-family="Helvetica,sans-Serif" font-size="10.00"> </text>
<polyline fill="none" stroke="black" points="116,-41.5 205,-41.5 "/>
<text text-anchor="start" x="124" y="-29.5" font-family="Helvetica,sans-Serif" font-size="10.00">+ setName()</text>
<text text-anchor="start" x="124" y="-18.5" font-family="Helvetica,sans-Serif" font-size="10.00">+ getName()</text>
<text text-anchor="start" x="124" y="-7.5" font-family="Helvetica,sans-Serif" font-size="10.00">+ validateValue()</text>
</g>
<!-- Node2 -->
<g id="node2" class="node"><title>Node2</title>
<g id="a_node2"><a xlink:href="classwcmf_1_1lib_1_1model_1_1_node.html" target="_top" xlink:title="Node adds the concept of relations to PersistentObject. ">
<polygon fill="white" stroke="black" points="0,-116.5 0,-371.5 179,-371.5 179,-116.5 0,-116.5"/>
<text text-anchor="middle" x="89.5" y="-359.5" font-family="Helvetica,sans-Serif" font-size="10.00">Node</text>
<polyline fill="none" stroke="black" points="0,-352.5 179,-352.5 "/>
<text text-anchor="start" x="8" y="-340.5" font-family="Helvetica,sans-Serif" font-size="10.00">+ RELATION_STATE_UNINITIALIZED</text>
<text text-anchor="start" x="8" y="-329.5" font-family="Helvetica,sans-Serif" font-size="10.00">+ RELATION_STATE_INITIALIZING</text>
<text text-anchor="start" x="8" y="-318.5" font-family="Helvetica,sans-Serif" font-size="10.00">+ RELATION_STATE_INITIALIZED</text>
<text text-anchor="start" x="8" y="-307.5" font-family="Helvetica,sans-Serif" font-size="10.00">+ RELATION_STATE_LOADED</text>
<polyline fill="none" stroke="black" points="0,-300.5 179,-300.5 "/>
<text text-anchor="start" x="8" y="-288.5" font-family="Helvetica,sans-Serif" font-size="10.00">+ __construct()</text>
<text text-anchor="start" x="8" y="-277.5" font-family="Helvetica,sans-Serif" font-size="10.00">+ getValueNames()</text>
<text text-anchor="start" x="8" y="-266.5" font-family="Helvetica,sans-Serif" font-size="10.00">+ getValue()</text>
<text text-anchor="start" x="8" y="-255.5" font-family="Helvetica,sans-Serif" font-size="10.00">+ setValue()</text>
<text text-anchor="start" x="8" y="-244.5" font-family="Helvetica,sans-Serif" font-size="10.00">+ getIndispensableObjects()</text>
<text text-anchor="start" x="8" y="-233.5" font-family="Helvetica,sans-Serif" font-size="10.00">+ mergeValues()</text>
<text text-anchor="start" x="8" y="-222.5" font-family="Helvetica,sans-Serif" font-size="10.00">+ getNumChildren()</text>
<text text-anchor="start" x="8" y="-211.5" font-family="Helvetica,sans-Serif" font-size="10.00">+ addNode()</text>
<text text-anchor="start" x="8" y="-200.5" font-family="Helvetica,sans-Serif" font-size="10.00">+ getAddedNodes()</text>
<text text-anchor="start" x="8" y="-189.5" font-family="Helvetica,sans-Serif" font-size="10.00">+ deleteNode()</text>
<text text-anchor="start" x="8" y="-178.5" font-family="Helvetica,sans-Serif" font-size="10.00">and 23 more...</text>
<text text-anchor="start" x="8" y="-167.5" font-family="Helvetica,sans-Serif" font-size="10.00">+ filter()</text>
<text text-anchor="start" x="8" y="-156.5" font-family="Helvetica,sans-Serif" font-size="10.00"># loadRelations()</text>
<text text-anchor="start" x="8" y="-145.5" font-family="Helvetica,sans-Serif" font-size="10.00"># getRelations()</text>
<text text-anchor="start" x="8" y="-134.5" font-family="Helvetica,sans-Serif" font-size="10.00"># mapTypeToRole()</text>
<text text-anchor="start" x="8" y="-123.5" font-family="Helvetica,sans-Serif" font-size="10.00"># mergeObjectLists()</text>
</a>
</g>
</g>
<!-- Node2&#45;&gt;Node1 -->
<g id="edge1" class="edge"><title>Node2&#45;&gt;Node1</title>
<path fill="none" stroke="midnightblue" d="M137.379,-106.781C140.788,-97.0825 144.023,-87.8793 146.934,-79.5968"/>
<polygon fill="none" stroke="midnightblue" points="134.076,-105.623 134.062,-116.217 140.68,-107.944 134.076,-105.623"/>
</g>
<!-- Node3 -->
<g id="node3" class="node"><title>Node3</title>
<g id="a_node3"><a xlink:href="classwcmf_1_1lib_1_1persistence_1_1_persistent_object.html" target="_top" xlink:title="PersistentObject is the base class of all persistent objects. ">
<polygon fill="white" stroke="black" points="1,-408.5 1,-641.5 178,-641.5 178,-408.5 1,-408.5"/>
<text text-anchor="middle" x="89.5" y="-629.5" font-family="Helvetica,sans-Serif" font-size="10.00">PersistentObject</text>
<polyline fill="none" stroke="black" points="1,-622.5 178,-622.5 "/>
<text text-anchor="start" x="9" y="-610.5" font-family="Helvetica,sans-Serif" font-size="10.00">+ STATE_CLEAN</text>
<text text-anchor="start" x="9" y="-599.5" font-family="Helvetica,sans-Serif" font-size="10.00">+ STATE_DIRTY</text>
<text text-anchor="start" x="9" y="-588.5" font-family="Helvetica,sans-Serif" font-size="10.00">+ STATE_NEW</text>
<text text-anchor="start" x="9" y="-577.5" font-family="Helvetica,sans-Serif" font-size="10.00">+ STATE_DELETED</text>
<polyline fill="none" stroke="black" points="1,-570.5 178,-570.5 "/>
<text text-anchor="start" x="9" y="-558.5" font-family="Helvetica,sans-Serif" font-size="10.00">+ __construct()</text>
<text text-anchor="start" x="9" y="-547.5" font-family="Helvetica,sans-Serif" font-size="10.00">+ initialize()</text>
<text text-anchor="start" x="9" y="-536.5" font-family="Helvetica,sans-Serif" font-size="10.00">+ getType()</text>
<text text-anchor="start" x="9" y="-525.5" font-family="Helvetica,sans-Serif" font-size="10.00">+ getOID()</text>
<text text-anchor="start" x="9" y="-514.5" font-family="Helvetica,sans-Serif" font-size="10.00">+ setOID()</text>
<text text-anchor="start" x="9" y="-503.5" font-family="Helvetica,sans-Serif" font-size="10.00">+ getMapper()</text>
<text text-anchor="start" x="9" y="-492.5" font-family="Helvetica,sans-Serif" font-size="10.00">+ getPkNames()</text>
<text text-anchor="start" x="9" y="-481.5" font-family="Helvetica,sans-Serif" font-size="10.00">+ delete()</text>
<text text-anchor="start" x="9" y="-470.5" font-family="Helvetica,sans-Serif" font-size="10.00">+ getState()</text>
<text text-anchor="start" x="9" y="-459.5" font-family="Helvetica,sans-Serif" font-size="10.00">+ setState()</text>
<text text-anchor="start" x="9" y="-448.5" font-family="Helvetica,sans-Serif" font-size="10.00">and 38 more...</text>
<text text-anchor="start" x="9" y="-437.5" font-family="Helvetica,sans-Serif" font-size="10.00"># setOIDInternal()</text>
<text text-anchor="start" x="9" y="-426.5" font-family="Helvetica,sans-Serif" font-size="10.00"># validateValueAgainstValidateType()</text>
<text text-anchor="start" x="9" y="-415.5" font-family="Helvetica,sans-Serif" font-size="10.00"># setValueInternal()</text>
</a>
</g>
</g>
<!-- Node3&#45;&gt;Node2 -->
<g id="edge2" class="edge"><title>Node3&#45;&gt;Node2</title>
<path fill="none" stroke="midnightblue" d="M89.5,-397.948C89.5,-389.264 89.5,-380.509 89.5,-371.821"/>
<polygon fill="none" stroke="midnightblue" points="86.0001,-398.103 89.5,-408.103 93.0001,-398.103 86.0001,-398.103"/>
</g>
<!-- Node4 -->
<g id="node4" class="node"><title>Node4</title>
<g id="a_node4"><a xlink:href="interfacewcmf_1_1lib_1_1security_1_1principal_1_1_role.html" target="_top" xlink:title="Role is the interface for user roles. ">
<polygon fill="white" stroke="black" points="197,-210 197,-278 268,-278 268,-210 197,-210"/>
<text text-anchor="middle" x="232.5" y="-266" font-family="Helvetica,sans-Serif" font-size="10.00">Role</text>
<polyline fill="none" stroke="black" points="197,-259 268,-259 "/>
<text text-anchor="middle" x="232.5" y="-247" font-family="Helvetica,sans-Serif" font-size="10.00"> </text>
<polyline fill="none" stroke="black" points="197,-240 268,-240 "/>
<text text-anchor="start" x="205" y="-228" font-family="Helvetica,sans-Serif" font-size="10.00">+ setName()</text>
<text text-anchor="start" x="205" y="-217" font-family="Helvetica,sans-Serif" font-size="10.00">+ getName()</text>
</a>
</g>
</g>
<!-- Node4&#45;&gt;Node1 -->
<g id="edge3" class="edge"><title>Node4&#45;&gt;Node1</title>
<path fill="none" stroke="midnightblue" d="M217.886,-199.998C209.441,-175.359 198.534,-143.885 188.5,-116 184.265,-104.23 179.547,-91.4661 175.209,-79.8618"/>
<polygon fill="none" stroke="midnightblue" points="214.679,-201.437 221.227,-209.766 221.302,-199.171 214.679,-201.437"/>
</g>
</g>
</svg>
