<?xml version="1.0" encoding="UTF-8" standalone="no"?>
<!DOCTYPE svg PUBLIC "-//W3C//DTD SVG 1.1//EN"
 "http://www.w3.org/Graphics/SVG/1.1/DTD/svg11.dtd">
<!-- Generated by graphviz version 2.38.0 (20140413.2041)
 -->
<!-- Title: LuceneSearch Pages: 1 -->
<svg width="112pt" height="474pt"
 viewBox="0.00 0.00 112.00 474.00" xmlns="http://www.w3.org/2000/svg" xmlns:xlink="http://www.w3.org/1999/xlink">
<g id="graph0" class="graph" transform="scale(1 1) rotate(0) translate(4 470)">
<title>LuceneSearch</title>
<polygon fill="white" stroke="none" points="-4,4 -4,-470 108,-470 108,4 -4,4"/>
<!-- Node1 -->
<g id="node1" class="node"><title>Node1</title>
<polygon fill="#bfbfbf" stroke="black" points="0,-0.5 0,-211.5 104,-211.5 104,-0.5 0,-0.5"/>
<text text-anchor="middle" x="52" y="-199.5" font-family="Helvetica,sans-Serif" font-size="10.00">LuceneSearch</text>
<polyline fill="none" stroke="black" points="0,-192.5 104,-192.5 "/>
<text text-anchor="middle" x="52" y="-180.5" font-family="Helvetica,sans-Serif" font-size="10.00"> </text>
<polyline fill="none" stroke="black" points="0,-173.5 104,-173.5 "/>
<text text-anchor="start" x="8" y="-161.5" font-family="Helvetica,sans-Serif" font-size="10.00">+ __construct()</text>
<text text-anchor="start" x="8" y="-150.5" font-family="Helvetica,sans-Serif" font-size="10.00">+ shutdown()</text>
<text text-anchor="start" x="8" y="-139.5" font-family="Helvetica,sans-Serif" font-size="10.00">+ setIndexPath()</text>
<text text-anchor="start" x="8" y="-128.5" font-family="Helvetica,sans-Serif" font-size="10.00">+ setLiveUpdate()</text>
<text text-anchor="start" x="8" y="-117.5" font-family="Helvetica,sans-Serif" font-size="10.00">+ check()</text>
<text text-anchor="start" x="8" y="-106.5" font-family="Helvetica,sans-Serif" font-size="10.00">+ find()</text>
<text text-anchor="start" x="8" y="-95.5" font-family="Helvetica,sans-Serif" font-size="10.00">+ isSearchable()</text>
<text text-anchor="start" x="8" y="-84.5" font-family="Helvetica,sans-Serif" font-size="10.00">+ resetIndex()</text>
<text text-anchor="start" x="8" y="-73.5" font-family="Helvetica,sans-Serif" font-size="10.00">+ commitIndex()</text>
<text text-anchor="start" x="8" y="-62.5" font-family="Helvetica,sans-Serif" font-size="10.00">+ optimizeIndex()</text>
<text text-anchor="start" x="8" y="-51.5" font-family="Helvetica,sans-Serif" font-size="10.00">+ addToIndex()</text>
<text text-anchor="start" x="8" y="-40.5" font-family="Helvetica,sans-Serif" font-size="10.00">+ deleteFromIndex()</text>
<text text-anchor="start" x="8" y="-29.5" font-family="Helvetica,sans-Serif" font-size="10.00">+ stateChanged()</text>
<text text-anchor="start" x="8" y="-18.5" font-family="Helvetica,sans-Serif" font-size="10.00"># encodeValue()</text>
<text text-anchor="start" x="8" y="-7.5" font-family="Helvetica,sans-Serif" font-size="10.00"># getStopWords()</text>
</g>
<!-- Node2 -->
<g id="node2" class="node"><title>Node2</title>
<g id="a_node2"><a xlink:href="interfacewcmf_1_1lib_1_1search_1_1_indexed_search.html" target="_top" xlink:title="IndexedSearch implementations are used to search entity objects in a search index. ">
<polygon fill="white" stroke="black" points="0,-248.5 0,-349.5 104,-349.5 104,-248.5 0,-248.5"/>
<text text-anchor="middle" x="52" y="-337.5" font-family="Helvetica,sans-Serif" font-size="10.00">IndexedSearch</text>
<polyline fill="none" stroke="black" points="0,-330.5 104,-330.5 "/>
<text text-anchor="middle" x="52" y="-318.5" font-family="Helvetica,sans-Serif" font-size="10.00"> </text>
<polyline fill="none" stroke="black" points="0,-311.5 104,-311.5 "/>
<text text-anchor="start" x="8" y="-299.5" font-family="Helvetica,sans-Serif" font-size="10.00">+ resetIndex()</text>
<text text-anchor="start" x="8" y="-288.5" font-family="Helvetica,sans-Serif" font-size="10.00">+ addToIndex()</text>
<text text-anchor="start" x="8" y="-277.5" font-family="Helvetica,sans-Serif" font-size="10.00">+ deleteFromIndex()</text>
<text text-anchor="start" x="8" y="-266.5" font-family="Helvetica,sans-Serif" font-size="10.00">+ commitIndex()</text>
<text text-anchor="start" x="8" y="-255.5" font-family="Helvetica,sans-Serif" font-size="10.00">+ optimizeIndex()</text>
</a>
</g>
</g>
<!-- Node2&#45;&gt;Node1 -->
<g id="edge1" class="edge"><title>Node2&#45;&gt;Node1</title>
<path fill="none" stroke="midnightblue" d="M52,-238.18C52,-229.672 52,-220.724 52,-211.665"/>
<polygon fill="none" stroke="midnightblue" points="48.5001,-238.316 52,-248.316 55.5001,-238.316 48.5001,-238.316"/>
</g>
<!-- Node3 -->
<g id="node3" class="node"><title>Node3</title>
<g id="a_node3"><a xlink:href="interfacewcmf_1_1lib_1_1search_1_1_search.html" target="_top" xlink:title="Search implementations are used to search entity objects. ">
<polygon fill="white" stroke="black" points="8,-386.5 8,-465.5 96,-465.5 96,-386.5 8,-386.5"/>
<text text-anchor="middle" x="52" y="-453.5" font-family="Helvetica,sans-Serif" font-size="10.00">Search</text>
<polyline fill="none" stroke="black" points="8,-446.5 96,-446.5 "/>
<text text-anchor="middle" x="52" y="-434.5" font-family="Helvetica,sans-Serif" font-size="10.00"> </text>
<polyline fill="none" stroke="black" points="8,-427.5 96,-427.5 "/>
<text text-anchor="start" x="16" y="-415.5" font-family="Helvetica,sans-Serif" font-size="10.00">+ check()</text>
<text text-anchor="start" x="16" y="-404.5" font-family="Helvetica,sans-Serif" font-size="10.00">+ find()</text>
<text text-anchor="start" x="16" y="-393.5" font-family="Helvetica,sans-Serif" font-size="10.00">+ isSearchable()</text>
</a>
</g>
</g>
<!-- Node3&#45;&gt;Node2 -->
<g id="edge2" class="edge"><title>Node3&#45;&gt;Node2</title>
<path fill="none" stroke="midnightblue" d="M52,-376.406C52,-367.639 52,-358.488 52,-349.691"/>
<polygon fill="none" stroke="midnightblue" points="48.5001,-376.476 52,-386.476 55.5001,-376.476 48.5001,-376.476"/>
</g>
</g>
</svg>
