<?xml version="1.0" encoding="UTF-8" standalone="no"?>
<!DOCTYPE svg PUBLIC "-//W3C//DTD SVG 1.1//EN"
 "http://www.w3.org/Graphics/SVG/1.1/DTD/svg11.dtd">
<!-- Generated by graphviz version 2.38.0 (20140413.2041)
 -->
<!-- Title: lib Pages: 1 -->
<svg width="988pt" height="76pt"
 viewBox="0.00 0.00 988.00 76.00" xmlns="http://www.w3.org/2000/svg" xmlns:xlink="http://www.w3.org/1999/xlink">
<g id="graph0" class="graph" transform="scale(1 1) rotate(0) translate(4 72)">
<title>lib</title>
<polygon fill="white" stroke="none" points="-4,4 -4,-72 984,-72 984,4 -4,4"/>
<g id="clust1" class="cluster"><title>clusterdir_098d557315d7f619643768cc1b3ebd0d</title>
<g id="a_clust1"><a xlink:href="dir_098d557315d7f619643768cc1b3ebd0d.html" target="_top">
<polygon fill="#eeeeff" stroke="black" points="8,-8 8,-60 972,-60 972,-8 8,-8"/>
</a>
</g>
</g>
<!-- dir_098d557315d7f619643768cc1b3ebd0d -->
<g id="node1" class="node"><title>dir_098d557315d7f619643768cc1b3ebd0d</title>
<text text-anchor="middle" x="937" y="-31.5" font-family="Helvetica,sans-Serif" font-size="10.00">lib</text>
</g>
<!-- dir_1201c868e83c552d4824d2e792bd18f4 -->
<g id="node2" class="node"><title>dir_1201c868e83c552d4824d2e792bd18f4</title>
<g id="a_node2"><a xlink:href="dir_1201c868e83c552d4824d2e792bd18f4.html" target="_top" xlink:title="config">
<polygon fill="white" stroke="red" points="892,-52 838,-52 838,-16 892,-16 892,-52"/>
<text text-anchor="middle" x="865" y="-31.5" font-family="Helvetica,sans-Serif" font-size="10.00">config</text>
</a>
</g>
</g>
<!-- dir_d199231fb67ce2e47dcb413ed251abf6 -->
<g id="node3" class="node"><title>dir_d199231fb67ce2e47dcb413ed251abf6</title>
<g id="a_node3"><a xlink:href="dir_d199231fb67ce2e47dcb413ed251abf6.html" target="_top" xlink:title="core">
<polygon fill="white" stroke="red" points="820,-52 766,-52 766,-16 820,-16 820,-52"/>
<text text-anchor="middle" x="793" y="-31.5" font-family="Helvetica,sans-Serif" font-size="10.00">core</text>
</a>
</g>
</g>
<!-- dir_9ae4dcb0afa3ddf6fc95ed0a007d437f -->
<g id="node4" class="node"><title>dir_9ae4dcb0afa3ddf6fc95ed0a007d437f</title>
<g id="a_node4"><a xlink:href="dir_9ae4dcb0afa3ddf6fc95ed0a007d437f.html" target="_top" xlink:title="i18n">
<polygon fill="white" stroke="red" points="748,-52 694,-52 694,-16 748,-16 748,-52"/>
<text text-anchor="middle" x="721" y="-31.5" font-family="Helvetica,sans-Serif" font-size="10.00">i18n</text>
</a>
</g>
</g>
<!-- dir_37cc761af04170b025fc35cb13c78532 -->
<g id="node5" class="node"><title>dir_37cc761af04170b025fc35cb13c78532</title>
<g id="a_node5"><a xlink:href="dir_37cc761af04170b025fc35cb13c78532.html" target="_top" xlink:title="io">
<polygon fill="white" stroke="black" points="676,-52 622,-52 622,-16 676,-16 676,-52"/>
<text text-anchor="middle" x="649" y="-31.5" font-family="Helvetica,sans-Serif" font-size="10.00">io</text>
</a>
</g>
</g>
<!-- dir_2c1ec4f11fe265bd3cc5505512fe6437 -->
<g id="node6" class="node"><title>dir_2c1ec4f11fe265bd3cc5505512fe6437</title>
<g id="a_node6"><a xlink:href="dir_2c1ec4f11fe265bd3cc5505512fe6437.html" target="_top" xlink:title="model">
<polygon fill="white" stroke="red" points="604,-52 550,-52 550,-16 604,-16 604,-52"/>
<text text-anchor="middle" x="577" y="-31.5" font-family="Helvetica,sans-Serif" font-size="10.00">model</text>
</a>
</g>
</g>
<!-- dir_9586bb3f5bbb5628996caedb3ee19830 -->
<g id="node7" class="node"><title>dir_9586bb3f5bbb5628996caedb3ee19830</title>
<g id="a_node7"><a xlink:href="dir_9586bb3f5bbb5628996caedb3ee19830.html" target="_top" xlink:title="pdf">
<polygon fill="white" stroke="black" points="532,-52 478,-52 478,-16 532,-16 532,-52"/>
<text text-anchor="middle" x="505" y="-31.5" font-family="Helvetica,sans-Serif" font-size="10.00">pdf</text>
</a>
</g>
</g>
<!-- dir_39c44806d06b09217b7facf120c76084 -->
<g id="node8" class="node"><title>dir_39c44806d06b09217b7facf120c76084</title>
<g id="a_node8"><a xlink:href="dir_39c44806d06b09217b7facf120c76084.html" target="_top" xlink:title="persistence">
<polygon fill="white" stroke="red" points="459.5,-52 392.5,-52 392.5,-16 459.5,-16 459.5,-52"/>
<text text-anchor="middle" x="426" y="-31.5" font-family="Helvetica,sans-Serif" font-size="10.00">persistence</text>
</a>
</g>
</g>
<!-- dir_ef6d6a8be2e4a5ebed8a716caaca8b88 -->
<g id="node9" class="node"><title>dir_ef6d6a8be2e4a5ebed8a716caaca8b88</title>
<g id="a_node9"><a xlink:href="dir_ef6d6a8be2e4a5ebed8a716caaca8b88.html" target="_top" xlink:title="presentation">
<polygon fill="white" stroke="red" points="374,-52 304,-52 304,-16 374,-16 374,-52"/>
<text text-anchor="middle" x="339" y="-31.5" font-family="Helvetica,sans-Serif" font-size="10.00">presentation</text>
</a>
</g>
</g>
<!-- dir_44da578121b099fdbd7e6c729193fd68 -->
<g id="node10" class="node"><title>dir_44da578121b099fdbd7e6c729193fd68</title>
<g id="a_node10"><a xlink:href="dir_44da578121b099fdbd7e6c729193fd68.html" target="_top" xlink:title="search">
<polygon fill="white" stroke="red" points="286,-52 232,-52 232,-16 286,-16 286,-52"/>
<text text-anchor="middle" x="259" y="-31.5" font-family="Helvetica,sans-Serif" font-size="10.00">search</text>
</a>
</g>
</g>
<!-- dir_88527e3c69c4b7a74da3f178c2797901 -->
<g id="node11" class="node"><title>dir_88527e3c69c4b7a74da3f178c2797901</title>
<g id="a_node11"><a xlink:href="dir_88527e3c69c4b7a74da3f178c2797901.html" target="_top" xlink:title="security">
<polygon fill="white" stroke="red" points="214,-52 160,-52 160,-16 214,-16 214,-52"/>
<text text-anchor="middle" x="187" y="-31.5" font-family="Helvetica,sans-Serif" font-size="10.00">security</text>
</a>
</g>
</g>
<!-- dir_a4349cbbcd5ad81c177e82224d5e014f -->
<g id="node12" class="node"><title>dir_a4349cbbcd5ad81c177e82224d5e014f</title>
<g id="a_node12"><a xlink:href="dir_a4349cbbcd5ad81c177e82224d5e014f.html" target="_top" xlink:title="service">
<polygon fill="white" stroke="red" points="142,-52 88,-52 88,-16 142,-16 142,-52"/>
<text text-anchor="middle" x="115" y="-31.5" font-family="Helvetica,sans-Serif" font-size="10.00">service</text>
</a>
</g>
</g>
<!-- dir_b43341d16db0234838ae0798b48b0108 -->
<g id="node13" class="node"><title>dir_b43341d16db0234838ae0798b48b0108</title>
<g id="a_node13"><a xlink:href="dir_b43341d16db0234838ae0798b48b0108.html" target="_top" xlink:title="util">
<polygon fill="white" stroke="black" points="70,-52 16,-52 16,-16 70,-16 70,-52"/>
<text text-anchor="middle" x="43" y="-31.5" font-family="Helvetica,sans-Serif" font-size="10.00">util</text>
</a>
</g>
</g>
</g>
</svg>
