<?xml version="1.0" encoding="UTF-8" standalone="no"?>
<!DOCTYPE svg PUBLIC "-//W3C//DTD SVG 1.1//EN"
 "http://www.w3.org/Graphics/SVG/1.1/DTD/svg11.dtd">
<!-- Generated by graphviz version 2.38.0 (20140413.2041)
 -->
<!-- Title: G Pages: 1 -->
<svg width="444pt" height="223pt"
 viewBox="0.00 0.00 443.50 223.00" xmlns="http://www.w3.org/2000/svg" xmlns:xlink="http://www.w3.org/1999/xlink">
<g id="graph0" class="graph" transform="scale(1 1) rotate(0) translate(4 219)">
<title>G</title>
<polygon fill="white" stroke="none" points="-4,4 -4,-219 439.5,-219 439.5,4 -4,4"/>
<!-- PersistenceFacade -->
<g id="node1" class="node"><title>PersistenceFacade</title>
<polygon fill="none" stroke="black" points="78.5,-187 78.5,-211 168.5,-211 168.5,-187 78.5,-187"/>
<text text-anchor="start" x="97.5" y="-201.8" font-family="Helvetica,sans-Serif" font-style="italic" font-size="9.00">persistence::</text>
<text text-anchor="start" x="81.5" y="-192.8" font-family="Helvetica,sans-Serif" font-weight="bold" font-style="italic" font-size="9.00">PersistenceFacade</text>
<polygon fill="none" stroke="black" points="78.5,-181 78.5,-187 168.5,-187 168.5,-181 78.5,-181"/>
</g>
<!-- PersistenceMapper -->
<g id="node2" class="node"><title>PersistenceMapper</title>
<polygon fill="none" stroke="black" points="221.5,-98.5 221.5,-122.5 312.5,-122.5 312.5,-98.5 221.5,-98.5"/>
<text text-anchor="start" x="241" y="-113.3" font-family="Helvetica,sans-Serif" font-style="italic" font-size="9.00">persistence::</text>
<text text-anchor="start" x="224.5" y="-104.3" font-family="Helvetica,sans-Serif" font-weight="bold" font-style="italic" font-size="9.00">PersistenceMapper</text>
<polygon fill="none" stroke="black" points="221.5,-92.5 221.5,-98.5 312.5,-98.5 312.5,-92.5 221.5,-92.5"/>
</g>
<!-- PersistenceFacade&#45;&gt;PersistenceMapper -->
<g id="edge1" class="edge"><title>PersistenceFacade&#45;&gt;PersistenceMapper</title>
<path fill="none" stroke="black" d="M153.477,-176.867C175.119,-163.776 204.526,-145.988 227.919,-131.837"/>
<polygon fill="black" stroke="black" points="236.562,-126.609 230.335,-135.636 232.284,-129.197 228.006,-131.785 228.006,-131.785 228.006,-131.785 232.284,-129.197 225.676,-127.935 236.562,-126.609 236.562,-126.609"/>
<text text-anchor="middle" x="256.5" y="-151.8" font-family="Helvetica,sans-Serif" font-size="9.00">manages persistent objects using</text>
<text text-anchor="middle" x="229.562" y="-129.409" font-family="Helvetica,sans-Serif" font-size="9.00">0..*</text>
</g>
<!-- ConcurrencyManager -->
<g id="node6" class="node"><title>ConcurrencyManager</title>
<polygon fill="none" stroke="black" points="8.5,-93.5 8.5,-126.5 109.5,-126.5 109.5,-93.5 8.5,-93.5"/>
<text text-anchor="start" x="33" y="-117.3" font-family="Helvetica,sans-Serif" font-style="italic" font-size="9.00">persistence::</text>
<text text-anchor="start" x="31.5" y="-108.3" font-family="Helvetica,sans-Serif" font-style="italic" font-size="9.00">concurrency::</text>
<text text-anchor="start" x="11.5" y="-99.3" font-family="Helvetica,sans-Serif" font-weight="bold" font-style="italic" font-size="9.00">ConcurrencyManager</text>
<polygon fill="none" stroke="black" points="8.5,-87.5 8.5,-93.5 109.5,-93.5 109.5,-87.5 8.5,-87.5"/>
</g>
<!-- PersistenceFacade&#45;&gt;ConcurrencyManager -->
<g id="edge3" class="edge"><title>PersistenceFacade&#45;&gt;ConcurrencyManager</title>
<path fill="none" stroke="black" d="M109.715,-176.656C101.601,-165.857 91.1246,-151.916 81.7636,-139.458"/>
<polygon fill="black" stroke="black" points="75.5037,-131.128 85.1086,-136.419 78.5074,-135.125 81.5111,-139.122 81.5111,-139.122 81.5111,-139.122 78.5074,-135.125 77.9136,-141.826 75.5037,-131.128 75.5037,-131.128"/>
<text text-anchor="middle" x="113" y="-151.8" font-family="Helvetica,sans-Serif" font-size="9.00">checks concurrency using</text>
</g>
<!-- PersistentObject -->
<g id="node4" class="node"><title>PersistentObject</title>
<polygon fill="none" stroke="black" points="298.5,-10 298.5,-34 377.5,-34 377.5,-10 298.5,-10"/>
<text text-anchor="start" x="311" y="-24.8" font-family="Helvetica,sans-Serif" font-size="9.00">persistence::</text>
<text text-anchor="start" x="301.5" y="-15.8" font-family="Helvetica,sans-Serif" font-weight="bold" font-size="9.00">PersistentObject</text>
<polygon fill="none" stroke="black" points="298.5,-4 298.5,-10 377.5,-10 377.5,-4 298.5,-4"/>
</g>
<!-- PersistenceMapper&#45;&gt;PersistentObject -->
<g id="edge2" class="edge"><title>PersistenceMapper&#45;&gt;PersistentObject</title>
<path fill="none" stroke="black" d="M281.557,-88.1556C291.603,-75.9171 304.961,-59.6426 316.105,-46.0659"/>
<polygon fill="black" stroke="black" points="322.708,-38.0214 319.842,-48.6061 319.536,-41.8862 316.363,-45.751 316.363,-45.751 316.363,-45.751 319.536,-41.8862 312.885,-42.8959 322.708,-38.0214 322.708,-38.0214"/>
<text text-anchor="middle" x="331" y="-58.8" font-family="Helvetica,sans-Serif" font-size="9.00">creates/reads/updates/deletes</text>
<text text-anchor="middle" x="315.708" y="-40.8214" font-family="Helvetica,sans-Serif" font-size="9.00">0..*</text>
<text text-anchor="middle" x="278.557" y="-80.9556" font-family="Helvetica,sans-Serif" font-size="9.00">1</text>
</g>
<!-- RDBMapper -->
<g id="node3" class="node"><title>RDBMapper</title>
<polygon fill="none" stroke="black" points="308.5,-187 308.5,-211 382.5,-211 382.5,-187 308.5,-187"/>
<text text-anchor="start" x="311.5" y="-201.8" font-family="Helvetica,sans-Serif" font-size="9.00">model::mapper::</text>
<text text-anchor="start" x="320" y="-192.8" font-family="Helvetica,sans-Serif" font-weight="bold" font-size="9.00">RDBMapper</text>
<polygon fill="none" stroke="black" points="308.5,-181 308.5,-187 382.5,-187 382.5,-181 308.5,-181"/>
</g>
<!-- RDBMapper&#45;&gt;PersistenceMapper -->
<g id="edge5" class="edge"><title>RDBMapper:s&#45;&gt;PersistenceMapper</title>
<path fill="none" stroke="black" d="M345.5,-177C345.5,-177 317.951,-153.112 295.389,-133.55"/>
<polygon fill="none" stroke="black" points="297.519,-130.764 287.671,-126.857 292.933,-136.052 297.519,-130.764"/>
</g>
<!-- Node -->
<g id="node5" class="node"><title>Node</title>
<polygon fill="none" stroke="black" points="390.5,-98.5 390.5,-122.5 427.5,-122.5 427.5,-98.5 390.5,-98.5"/>
<text text-anchor="start" x="393.5" y="-113.3" font-family="Helvetica,sans-Serif" font-size="9.00">model::</text>
<text text-anchor="start" x="398" y="-104.3" font-family="Helvetica,sans-Serif" font-weight="bold" font-size="9.00">Node</text>
<polygon fill="none" stroke="black" points="390.5,-92.5 390.5,-98.5 427.5,-98.5 427.5,-92.5 390.5,-92.5"/>
</g>
<!-- Node&#45;&gt;PersistentObject -->
<g id="edge4" class="edge"><title>Node:s&#45;&gt;PersistentObject</title>
<path fill="none" stroke="black" d="M408.5,-87.5C408.5,-87.5 384.171,-64.3704 363.996,-45.19"/>
<polygon fill="none" stroke="black" points="366.186,-42.4424 356.527,-38.0888 361.363,-47.5156 366.186,-42.4424"/>
</g>
</g>
</svg>
