<?xml version="1.0" encoding="UTF-8" standalone="no"?>
<!DOCTYPE svg PUBLIC "-//W3C//DTD SVG 1.1//EN"
 "http://www.w3.org/Graphics/SVG/1.1/DTD/svg11.dtd">
<!-- Generated by graphviz version 2.38.0 (20140413.2041)
 -->
<!-- Title: G Pages: 1 -->
<svg width="520pt" height="423pt"
 viewBox="0.00 0.00 519.50 423.00" xmlns="http://www.w3.org/2000/svg" xmlns:xlink="http://www.w3.org/1999/xlink">
<g id="graph0" class="graph" transform="scale(1 1) rotate(0) translate(4 419)">
<title>G</title>
<polygon fill="white" stroke="none" points="-4,4 -4,-419 515.5,-419 515.5,4 -4,4"/>
<!-- ConcurrencyManager -->
<g id="node1" class="node"><title>ConcurrencyManager</title>
<polygon fill="none" stroke="black" points="8.5,-196 8.5,-229 109.5,-229 109.5,-196 8.5,-196"/>
<text text-anchor="start" x="33" y="-219.8" font-family="Helvetica,sans-Serif" font-style="italic" font-size="9.00">persistence::</text>
<text text-anchor="start" x="31.5" y="-210.8" font-family="Helvetica,sans-Serif" font-style="italic" font-size="9.00">concurrency::</text>
<text text-anchor="start" x="11.5" y="-201.8" font-family="Helvetica,sans-Serif" font-weight="bold" font-style="italic" font-size="9.00">ConcurrencyManager</text>
<polygon fill="none" stroke="black" points="8.5,-169 8.5,-196 109.5,-196 109.5,-169 8.5,-169"/>
</g>
<!-- PersistenceFacade -->
<g id="node2" class="node"><title>PersistenceFacade</title>
<polygon fill="none" stroke="black" points="91.5,-386.5 91.5,-410.5 181.5,-410.5 181.5,-386.5 91.5,-386.5"/>
<text text-anchor="start" x="110.5" y="-401.3" font-family="Helvetica,sans-Serif" font-style="italic" font-size="9.00">persistence::</text>
<text text-anchor="start" x="94.5" y="-392.3" font-family="Helvetica,sans-Serif" font-weight="bold" font-style="italic" font-size="9.00">PersistenceFacade</text>
<polygon fill="none" stroke="black" points="91.5,-359.5 91.5,-386.5 181.5,-386.5 181.5,-359.5 91.5,-359.5"/>
</g>
<!-- PersistenceFacade&#45;&gt;ConcurrencyManager -->
<g id="edge1" class="edge"><title>PersistenceFacade&#45;&gt;ConcurrencyManager</title>
<path fill="none" stroke="black" d="M83.4891,-355.841C77.5992,-350.636 72.3486,-344.696 68.5,-338 52.135,-309.529 50.3969,-272.111 52.3304,-243.421"/>
<polygon fill="black" stroke="black" points="53.1885,-233.279 56.8293,-243.623 52.7669,-238.261 52.3453,-243.243 52.3453,-243.243 52.3453,-243.243 52.7669,-238.261 47.8613,-242.864 53.1885,-233.279 53.1885,-233.279"/>
<text text-anchor="middle" x="122" y="-330.8" font-family="Helvetica,sans-Serif" font-size="9.00">checks concurrency using</text>
</g>
<!-- PersistenceMapper -->
<g id="node4" class="node"><title>PersistenceMapper</title>
<polygon fill="none" stroke="black" points="139.5,-281.5 139.5,-305.5 230.5,-305.5 230.5,-281.5 139.5,-281.5"/>
<text text-anchor="start" x="159" y="-296.3" font-family="Helvetica,sans-Serif" font-style="italic" font-size="9.00">persistence::</text>
<text text-anchor="start" x="142.5" y="-287.3" font-family="Helvetica,sans-Serif" font-weight="bold" font-style="italic" font-size="9.00">PersistenceMapper</text>
<polygon fill="none" stroke="black" points="139.5,-254.5 139.5,-281.5 230.5,-281.5 230.5,-254.5 139.5,-254.5"/>
</g>
<!-- PersistenceFacade&#45;&gt;PersistenceMapper -->
<g id="edge2" class="edge"><title>PersistenceFacade&#45;&gt;PersistenceMapper</title>
<path fill="none" stroke="black" d="M168.182,-355.861C172.663,-350.365 176.693,-344.333 179.5,-338 181.929,-332.521 183.485,-326.454 184.447,-320.388"/>
<polygon fill="black" stroke="black" points="185.553,-310.285 188.938,-320.715 185.009,-315.255 184.465,-320.226 184.465,-320.226 184.465,-320.226 185.009,-315.255 179.992,-319.736 185.553,-310.285 185.553,-310.285"/>
<text text-anchor="middle" x="254.5" y="-330.8" font-family="Helvetica,sans-Serif" font-size="9.00">manages persistent objects using</text>
</g>
<!-- PermissionManager -->
<g id="node3" class="node"><title>PermissionManager</title>
<polygon fill="none" stroke="black" points="207.5,-118.5 207.5,-142.5 301.5,-142.5 301.5,-118.5 207.5,-118.5"/>
<text text-anchor="start" x="236" y="-133.3" font-family="Helvetica,sans-Serif" font-style="italic" font-size="9.00">security::</text>
<text text-anchor="start" x="210.5" y="-124.3" font-family="Helvetica,sans-Serif" font-weight="bold" font-style="italic" font-size="9.00">PermissionManager</text>
<polygon fill="none" stroke="black" points="207.5,-91.5 207.5,-118.5 301.5,-118.5 301.5,-91.5 207.5,-91.5"/>
</g>
<!-- PersistenceMapper&#45;&gt;PermissionManager -->
<g id="edge4" class="edge"><title>PersistenceMapper:e&#45;&gt;PermissionManager</title>
<path fill="none" stroke="black" d="M239.5,-280.5C251.835,-280.5 254.32,-205.072 254.655,-157.153"/>
<polygon fill="black" stroke="black" points="254.697,-147.089 259.155,-157.108 254.676,-152.089 254.655,-157.089 254.655,-157.089 254.655,-157.089 254.676,-152.089 250.155,-157.071 254.697,-147.089 254.697,-147.089"/>
<text text-anchor="middle" x="310.5" y="-196.8" font-family="Helvetica,sans-Serif" font-size="9.00">checks permissions using</text>
</g>
<!-- RDBMapper -->
<g id="node5" class="node"><title>RDBMapper</title>
<polygon fill="none" stroke="black" points="99.5,-118.5 99.5,-142.5 173.5,-142.5 173.5,-118.5 99.5,-118.5"/>
<text text-anchor="start" x="102.5" y="-133.3" font-family="Helvetica,sans-Serif" font-size="9.00">model::mapper::</text>
<text text-anchor="start" x="111" y="-124.3" font-family="Helvetica,sans-Serif" font-weight="bold" font-size="9.00">RDBMapper</text>
<polygon fill="none" stroke="black" points="99.5,-91.5 99.5,-118.5 173.5,-118.5 173.5,-91.5 99.5,-91.5"/>
</g>
<!-- PersistenceMapper&#45;&gt;RDBMapper -->
<g id="edge6" class="edge"><title>PersistenceMapper&#45;&gt;RDBMapper</title>
<path fill="none" stroke="black" d="M173.008,-240.952C164.394,-212.062 152.799,-173.168 145.007,-147.034"/>
<polygon fill="none" stroke="black" points="169.707,-242.133 175.919,-250.716 176.416,-240.133 169.707,-242.133"/>
</g>
<!-- PersistentObject -->
<g id="node6" class="node"><title>PersistentObject</title>
<polygon fill="none" stroke="black" points="342.5,-118.5 342.5,-142.5 421.5,-142.5 421.5,-118.5 342.5,-118.5"/>
<text text-anchor="start" x="355" y="-133.3" font-family="Helvetica,sans-Serif" font-size="9.00">persistence::</text>
<text text-anchor="start" x="345.5" y="-124.3" font-family="Helvetica,sans-Serif" font-weight="bold" font-size="9.00">PersistentObject</text>
<polygon fill="none" stroke="black" points="342.5,-91.5 342.5,-118.5 421.5,-118.5 421.5,-91.5 342.5,-91.5"/>
</g>
<!-- PersistenceMapper&#45;&gt;PersistentObject -->
<g id="edge3" class="edge"><title>PersistenceMapper:e&#45;&gt;PersistentObject</title>
<path fill="none" stroke="black" d="M239.5,-280.5C299.347,-280.5 328.122,-279.739 365.5,-233 382.317,-211.972 385.902,-181.541 385.506,-157.336"/>
<polygon fill="black" stroke="black" points="385.098,-147.05 389.991,-156.863 385.296,-152.046 385.494,-157.042 385.494,-157.042 385.494,-157.042 385.296,-152.046 380.998,-157.22 385.098,-147.05 385.098,-147.05"/>
<text text-anchor="middle" x="448" y="-196.8" font-family="Helvetica,sans-Serif" font-size="9.00">creates/reads/updates/deletes</text>
</g>
<!-- Node -->
<g id="node7" class="node"><title>Node</title>
<polygon fill="none" stroke="black" points="352.5,-30.5 352.5,-46.5 411.5,-46.5 411.5,-30.5 352.5,-30.5"/>
<text text-anchor="start" x="355.5" y="-37.3" font-family="Helvetica,sans-Serif" font-size="9.00">model::</text>
<text text-anchor="start" x="386.5" y="-37.3" font-family="Helvetica,sans-Serif" font-weight="bold" font-size="9.00">Node</text>
<polygon fill="none" stroke="black" points="352.5,-3.5 352.5,-30.5 411.5,-30.5 411.5,-3.5 352.5,-3.5"/>
</g>
<!-- PersistentObject&#45;&gt;Node -->
<g id="edge5" class="edge"><title>PersistentObject&#45;&gt;Node</title>
<path fill="none" stroke="black" d="M381.5,-77.3316C381.5,-68.4531 381.5,-59.2665 381.5,-51.1859"/>
<polygon fill="none" stroke="black" points="378,-77.528 381.5,-87.528 385,-77.5281 378,-77.528"/>
</g>
</g>
</svg>
