<?xml version="1.0" encoding="UTF-8" standalone="no"?>
<!DOCTYPE svg PUBLIC "-//W3C//DTD SVG 1.1//EN"
 "http://www.w3.org/Graphics/SVG/1.1/DTD/svg11.dtd">
<!-- Generated by graphviz version 2.38.0 (20140413.2041)
 -->
<!-- Title: ListStrategy Pages: 1 -->
<svg width="599pt" height="193pt"
 viewBox="0.00 0.00 598.50 193.00" xmlns="http://www.w3.org/2000/svg" xmlns:xlink="http://www.w3.org/1999/xlink">
<g id="graph0" class="graph" transform="scale(1 1) rotate(0) translate(4 189)">
<title>ListStrategy</title>
<polygon fill="white" stroke="none" points="-4,4 -4,-189 594.5,-189 594.5,4 -4,4"/>
<!-- Node1 -->
<g id="node1" class="node"><title>Node1</title>
<polygon fill="#bfbfbf" stroke="black" points="255.5,-116.5 255.5,-184.5 324.5,-184.5 324.5,-116.5 255.5,-116.5"/>
<text text-anchor="middle" x="290" y="-172.5" font-family="Helvetica,sans-Serif" font-size="10.00">ListStrategy</text>
<polyline fill="none" stroke="black" points="255.5,-165.5 324.5,-165.5 "/>
<text text-anchor="middle" x="290" y="-153.5" font-family="Helvetica,sans-Serif" font-size="10.00"> </text>
<polyline fill="none" stroke="black" points="255.5,-146.5 324.5,-146.5 "/>
<text text-anchor="start" x="263.5" y="-134.5" font-family="Helvetica,sans-Serif" font-size="10.00">+ getList()</text>
<text text-anchor="start" x="263.5" y="-123.5" font-family="Helvetica,sans-Serif" font-size="10.00">+ isStatic()</text>
</g>
<!-- Node2 -->
<g id="node2" class="node"><title>Node2</title>
<g id="a_node2"><a xlink:href="classwcmf_1_1lib_1_1presentation_1_1control_1_1lists_1_1impl_1_1_config_list_strategy.html" target="_top" xlink:title="ConfigListStrategy implements list of key value pairs that is retrieved from an configuration section...">
<polygon fill="white" stroke="black" points="0,-6 0,-74 96,-74 96,-6 0,-6"/>
<text text-anchor="middle" x="48" y="-62" font-family="Helvetica,sans-Serif" font-size="10.00">ConfigListStrategy</text>
<polyline fill="none" stroke="black" points="0,-55 96,-55 "/>
<text text-anchor="middle" x="48" y="-43" font-family="Helvetica,sans-Serif" font-size="10.00"> </text>
<polyline fill="none" stroke="black" points="0,-36 96,-36 "/>
<text text-anchor="start" x="8" y="-24" font-family="Helvetica,sans-Serif" font-size="10.00">+ getList()</text>
<text text-anchor="start" x="8" y="-13" font-family="Helvetica,sans-Serif" font-size="10.00">+ isStatic()</text>
</a>
</g>
</g>
<!-- Node1&#45;&gt;Node2 -->
<g id="edge1" class="edge"><title>Node1&#45;&gt;Node2</title>
<path fill="none" stroke="midnightblue" d="M245.363,-136.084C207.07,-123.796 150.962,-103.911 105,-80 101.49,-78.1738 97.9373,-76.1704 94.4119,-74.0658"/>
<polygon fill="none" stroke="midnightblue" points="244.592,-139.511 255.182,-139.194 246.706,-132.838 244.592,-139.511"/>
</g>
<!-- Node3 -->
<g id="node3" class="node"><title>Node3</title>
<g id="a_node3"><a xlink:href="classwcmf_1_1lib_1_1presentation_1_1control_1_1lists_1_1impl_1_1_file_list_strategy.html" target="_top" xlink:title="FileListStrategy implements list of key value pairs that is retrieved from an configuration section...">
<polygon fill="white" stroke="black" points="114.5,-0.5 114.5,-79.5 225.5,-79.5 225.5,-0.5 114.5,-0.5"/>
<text text-anchor="middle" x="170" y="-67.5" font-family="Helvetica,sans-Serif" font-size="10.00">FileListStrategy</text>
<polyline fill="none" stroke="black" points="114.5,-60.5 225.5,-60.5 "/>
<text text-anchor="middle" x="170" y="-48.5" font-family="Helvetica,sans-Serif" font-size="10.00"> </text>
<polyline fill="none" stroke="black" points="114.5,-41.5 225.5,-41.5 "/>
<text text-anchor="start" x="122.5" y="-29.5" font-family="Helvetica,sans-Serif" font-size="10.00">+ getList()</text>
<text text-anchor="start" x="122.5" y="-18.5" font-family="Helvetica,sans-Serif" font-size="10.00">+ isStatic()</text>
<text text-anchor="start" x="122.5" y="-7.5" font-family="Helvetica,sans-Serif" font-size="10.00"># parseConfiguration()</text>
</a>
</g>
</g>
<!-- Node1&#45;&gt;Node3 -->
<g id="edge2" class="edge"><title>Node1&#45;&gt;Node3</title>
<path fill="none" stroke="midnightblue" d="M247.624,-111.185C236.305,-100.951 224.068,-89.8863 212.73,-79.635"/>
<polygon fill="none" stroke="midnightblue" points="245.526,-114.007 255.291,-118.117 250.221,-108.814 245.526,-114.007"/>
</g>
<!-- Node4 -->
<g id="node4" class="node"><title>Node4</title>
<g id="a_node4"><a xlink:href="classwcmf_1_1lib_1_1presentation_1_1control_1_1lists_1_1impl_1_1_fixed_list_strategy.html" target="_top" xlink:title="FixedListStrategy implements a constant list of key value pairs. ">
<polygon fill="white" stroke="black" points="243.5,-6 243.5,-74 336.5,-74 336.5,-6 243.5,-6"/>
<text text-anchor="middle" x="290" y="-62" font-family="Helvetica,sans-Serif" font-size="10.00">FixedListStrategy</text>
<polyline fill="none" stroke="black" points="243.5,-55 336.5,-55 "/>
<text text-anchor="middle" x="290" y="-43" font-family="Helvetica,sans-Serif" font-size="10.00"> </text>
<polyline fill="none" stroke="black" points="243.5,-36 336.5,-36 "/>
<text text-anchor="start" x="251.5" y="-24" font-family="Helvetica,sans-Serif" font-size="10.00">+ getList()</text>
<text text-anchor="start" x="251.5" y="-13" font-family="Helvetica,sans-Serif" font-size="10.00">+ isStatic()</text>
</a>
</g>
</g>
<!-- Node1&#45;&gt;Node4 -->
<g id="edge3" class="edge"><title>Node1&#45;&gt;Node4</title>
<path fill="none" stroke="midnightblue" d="M290,-106.039C290,-95.469 290,-84.3293 290,-74.314"/>
<polygon fill="none" stroke="midnightblue" points="286.5,-106.357 290,-116.357 293.5,-106.357 286.5,-106.357"/>
</g>
<!-- Node5 -->
<g id="node5" class="node"><title>Node5</title>
<g id="a_node5"><a xlink:href="classwcmf_1_1lib_1_1presentation_1_1control_1_1lists_1_1impl_1_1_function_list_strategy.html" target="_top" xlink:title="FunctionListStrategy implements list of key value pairs that is retrieved by a global function...">
<polygon fill="white" stroke="black" points="354.5,-6 354.5,-74 461.5,-74 461.5,-6 354.5,-6"/>
<text text-anchor="middle" x="408" y="-62" font-family="Helvetica,sans-Serif" font-size="10.00">FunctionListStrategy</text>
<polyline fill="none" stroke="black" points="354.5,-55 461.5,-55 "/>
<text text-anchor="middle" x="408" y="-43" font-family="Helvetica,sans-Serif" font-size="10.00"> </text>
<polyline fill="none" stroke="black" points="354.5,-36 461.5,-36 "/>
<text text-anchor="start" x="362.5" y="-24" font-family="Helvetica,sans-Serif" font-size="10.00">+ getList()</text>
<text text-anchor="start" x="362.5" y="-13" font-family="Helvetica,sans-Serif" font-size="10.00">+ isStatic()</text>
</a>
</g>
</g>
<!-- Node1&#45;&gt;Node5 -->
<g id="edge4" class="edge"><title>Node1&#45;&gt;Node5</title>
<path fill="none" stroke="midnightblue" d="M332.238,-110.662C345.197,-98.7473 359.331,-85.7506 371.844,-74.2447"/>
<polygon fill="none" stroke="midnightblue" points="329.758,-108.188 324.766,-117.533 334.496,-113.341 329.758,-108.188"/>
</g>
<!-- Node6 -->
<g id="node6" class="node"><title>Node6</title>
<g id="a_node6"><a xlink:href="classwcmf_1_1lib_1_1presentation_1_1control_1_1lists_1_1impl_1_1_node_list_strategy.html" target="_top" xlink:title="NodeListStrategy implements a list of entities that is retrieved from the store, where the keys are t...">
<polygon fill="white" stroke="black" points="479.5,-0.5 479.5,-79.5 590.5,-79.5 590.5,-0.5 479.5,-0.5"/>
<text text-anchor="middle" x="535" y="-67.5" font-family="Helvetica,sans-Serif" font-size="10.00">NodeListStrategy</text>
<polyline fill="none" stroke="black" points="479.5,-60.5 590.5,-60.5 "/>
<text text-anchor="middle" x="535" y="-48.5" font-family="Helvetica,sans-Serif" font-size="10.00"> </text>
<polyline fill="none" stroke="black" points="479.5,-41.5 590.5,-41.5 "/>
<text text-anchor="start" x="487.5" y="-29.5" font-family="Helvetica,sans-Serif" font-size="10.00">+ getList()</text>
<text text-anchor="start" x="487.5" y="-18.5" font-family="Helvetica,sans-Serif" font-size="10.00">+ isStatic()</text>
<text text-anchor="start" x="487.5" y="-7.5" font-family="Helvetica,sans-Serif" font-size="10.00"># parseConfiguration()</text>
</a>
</g>
</g>
<!-- Node1&#45;&gt;Node6 -->
<g id="edge5" class="edge"><title>Node1&#45;&gt;Node6</title>
<path fill="none" stroke="midnightblue" d="M334.369,-134.984C371.605,-122.21 425.802,-102.222 471,-80 473.802,-78.6222 476.642,-77.1599 479.487,-75.6412"/>
<polygon fill="none" stroke="midnightblue" points="333.154,-131.7 324.812,-138.232 335.406,-138.328 333.154,-131.7"/>
</g>
</g>
</svg>
