<?xml version="1.0" encoding="UTF-8" standalone="no"?>
<!DOCTYPE svg PUBLIC "-//W3C//DTD SVG 1.1//EN"
 "http://www.w3.org/Graphics/SVG/1.1/DTD/svg11.dtd">
<!-- Generated by graphviz version 2.38.0 (20140413.2041)
 -->
<!-- Title: User Pages: 1 -->
<svg width="264pt" height="821pt"
 viewBox="0.00 0.00 264.00 821.00" xmlns="http://www.w3.org/2000/svg" xmlns:xlink="http://www.w3.org/1999/xlink">
<g id="graph0" class="graph" transform="scale(1 1) rotate(0) translate(4 817)">
<title>User</title>
<polygon fill="white" stroke="none" points="-4,4 -4,-817 260,-817 260,4 -4,4"/>
<!-- Node1 -->
<g id="node1" class="node"><title>Node1</title>
<polygon fill="#bfbfbf" stroke="black" points="68.5,-623.5 68.5,-812.5 169.5,-812.5 169.5,-623.5 68.5,-623.5"/>
<text text-anchor="middle" x="119" y="-800.5" font-family="Helvetica,sans-Serif" font-size="10.00">User</text>
<polyline fill="none" stroke="black" points="68.5,-793.5 169.5,-793.5 "/>
<text text-anchor="middle" x="119" y="-781.5" font-family="Helvetica,sans-Serif" font-size="10.00"> </text>
<polyline fill="none" stroke="black" points="68.5,-774.5 169.5,-774.5 "/>
<text text-anchor="start" x="76.5" y="-762.5" font-family="Helvetica,sans-Serif" font-size="10.00">+ getUserId()</text>
<text text-anchor="start" x="76.5" y="-751.5" font-family="Helvetica,sans-Serif" font-size="10.00">+ setLogin()</text>
<text text-anchor="start" x="76.5" y="-740.5" font-family="Helvetica,sans-Serif" font-size="10.00">+ getLogin()</text>
<text text-anchor="start" x="76.5" y="-729.5" font-family="Helvetica,sans-Serif" font-size="10.00">+ setPassword()</text>
<text text-anchor="start" x="76.5" y="-718.5" font-family="Helvetica,sans-Serif" font-size="10.00">+ getPassword()</text>
<text text-anchor="start" x="76.5" y="-707.5" font-family="Helvetica,sans-Serif" font-size="10.00">+ hashPassword()</text>
<text text-anchor="start" x="76.5" y="-696.5" font-family="Helvetica,sans-Serif" font-size="10.00">+ verifyPassword()</text>
<text text-anchor="start" x="76.5" y="-685.5" font-family="Helvetica,sans-Serif" font-size="10.00">+ setConfig()</text>
<text text-anchor="start" x="76.5" y="-674.5" font-family="Helvetica,sans-Serif" font-size="10.00">+ getConfig()</text>
<text text-anchor="start" x="76.5" y="-663.5" font-family="Helvetica,sans-Serif" font-size="10.00">+ hasRole()</text>
<text text-anchor="start" x="76.5" y="-652.5" font-family="Helvetica,sans-Serif" font-size="10.00">+ getRoles()</text>
<text text-anchor="start" x="76.5" y="-641.5" font-family="Helvetica,sans-Serif" font-size="10.00">+ resetRoleCache()</text>
<text text-anchor="start" x="76.5" y="-630.5" font-family="Helvetica,sans-Serif" font-size="10.00">+ getByLogin()</text>
</g>
<!-- Node2 -->
<g id="node2" class="node"><title>Node2</title>
<g id="a_node2"><a xlink:href="interfacewcmf_1_1lib_1_1security_1_1principal_1_1_auth_user.html" target="_top" xlink:title="AuthUser provides support for authentication/authorization purposes. ">
<polygon fill="white" stroke="black" points="0,-419.5 0,-520.5 102,-520.5 102,-419.5 0,-419.5"/>
<text text-anchor="middle" x="51" y="-508.5" font-family="Helvetica,sans-Serif" font-size="10.00">AuthUser</text>
<polyline fill="none" stroke="black" points="0,-501.5 102,-501.5 "/>
<text text-anchor="middle" x="51" y="-489.5" font-family="Helvetica,sans-Serif" font-size="10.00"> </text>
<polyline fill="none" stroke="black" points="0,-482.5 102,-482.5 "/>
<text text-anchor="start" x="8" y="-470.5" font-family="Helvetica,sans-Serif" font-size="10.00">+ login()</text>
<text text-anchor="start" x="8" y="-459.5" font-family="Helvetica,sans-Serif" font-size="10.00">+ authorize()</text>
<text text-anchor="start" x="8" y="-448.5" font-family="Helvetica,sans-Serif" font-size="10.00">+ setDefaultPolicy()</text>
<text text-anchor="start" x="8" y="-437.5" font-family="Helvetica,sans-Serif" font-size="10.00">+ getDefaultPolicy()</text>
<text text-anchor="start" x="8" y="-426.5" font-family="Helvetica,sans-Serif" font-size="10.00">+ getLoginTime()</text>
</a>
</g>
</g>
<!-- Node1&#45;&gt;Node2 -->
<g id="edge1" class="edge"><title>Node1&#45;&gt;Node2</title>
<path fill="none" stroke="midnightblue" d="M90.3636,-613.404C81.4919,-581.309 72.1203,-547.406 64.7477,-520.734"/>
<polygon fill="none" stroke="midnightblue" points="87.0603,-614.59 93.0981,-623.296 93.8072,-612.725 87.0603,-614.59"/>
</g>
<!-- Node5 -->
<g id="node5" class="node"><title>Node5</title>
<g id="a_node5"><a xlink:href="classwcmf_1_1lib_1_1security_1_1principal_1_1impl_1_1_abstract_user.html" target="_top" xlink:title="Default implementation of a user. ">
<polygon fill="white" stroke="black" points="120,-353.5 120,-586.5 256,-586.5 256,-353.5 120,-353.5"/>
<text text-anchor="middle" x="188" y="-574.5" font-family="Helvetica,sans-Serif" font-size="10.00">AbstractUser</text>
<polyline fill="none" stroke="black" points="120,-567.5 256,-567.5 "/>
<text text-anchor="middle" x="188" y="-555.5" font-family="Helvetica,sans-Serif" font-size="10.00"> </text>
<polyline fill="none" stroke="black" points="120,-548.5 256,-548.5 "/>
<text text-anchor="start" x="128" y="-536.5" font-family="Helvetica,sans-Serif" font-size="10.00">+ getUserId()</text>
<text text-anchor="start" x="128" y="-525.5" font-family="Helvetica,sans-Serif" font-size="10.00">+ setLogin()</text>
<text text-anchor="start" x="128" y="-514.5" font-family="Helvetica,sans-Serif" font-size="10.00">+ getLogin()</text>
<text text-anchor="start" x="128" y="-503.5" font-family="Helvetica,sans-Serif" font-size="10.00">+ setPassword()</text>
<text text-anchor="start" x="128" y="-492.5" font-family="Helvetica,sans-Serif" font-size="10.00">+ getPassword()</text>
<text text-anchor="start" x="128" y="-481.5" font-family="Helvetica,sans-Serif" font-size="10.00">+ hashPassword()</text>
<text text-anchor="start" x="128" y="-470.5" font-family="Helvetica,sans-Serif" font-size="10.00">+ verifyPassword()</text>
<text text-anchor="start" x="128" y="-459.5" font-family="Helvetica,sans-Serif" font-size="10.00">+ setConfig()</text>
<text text-anchor="start" x="128" y="-448.5" font-family="Helvetica,sans-Serif" font-size="10.00">+ getConfig()</text>
<text text-anchor="start" x="128" y="-437.5" font-family="Helvetica,sans-Serif" font-size="10.00">+ hasRole()</text>
<text text-anchor="start" x="128" y="-426.5" font-family="Helvetica,sans-Serif" font-size="10.00">and 6 more...</text>
<text text-anchor="start" x="128" y="-415.5" font-family="Helvetica,sans-Serif" font-size="10.00">+ getByLogin()</text>
<text text-anchor="start" x="128" y="-404.5" font-family="Helvetica,sans-Serif" font-size="10.00"># ensureHashedPassword()</text>
<text text-anchor="start" x="128" y="-393.5" font-family="Helvetica,sans-Serif" font-size="10.00"># setRoleConfig()</text>
<text text-anchor="start" x="128" y="-382.5" font-family="Helvetica,sans-Serif" font-size="10.00"># getRoleRelationNames()</text>
<text text-anchor="start" x="128" y="-371.5" font-family="Helvetica,sans-Serif" font-size="10.00"># getRoleTypeName()</text>
<text text-anchor="start" x="128" y="-360.5" font-family="Helvetica,sans-Serif" font-size="10.00"># getRoleConfigs()</text>
</a>
</g>
</g>
<!-- Node1&#45;&gt;Node5 -->
<g id="edge5" class="edge"><title>Node1&#45;&gt;Node5</title>
<path fill="none" stroke="midnightblue" d="M148.054,-613.417C150.525,-604.606 153.035,-595.659 155.53,-586.763"/>
<polygon fill="none" stroke="midnightblue" points="144.614,-612.723 145.283,-623.296 151.353,-614.613 144.614,-612.723"/>
</g>
<!-- Node3 -->
<g id="node3" class="node"><title>Node3</title>
<g id="a_node3"><a xlink:href="classwcmf_1_1lib_1_1security_1_1principal_1_1impl_1_1_anonymous_user.html" target="_top" xlink:title="Anonymous user. ">
<polygon fill="white" stroke="black" points="6.5,-0.5 6.5,-79.5 95.5,-79.5 95.5,-0.5 6.5,-0.5"/>
<text text-anchor="middle" x="51" y="-67.5" font-family="Helvetica,sans-Serif" font-size="10.00">AnonymousUser</text>
<polyline fill="none" stroke="black" points="6.5,-60.5 95.5,-60.5 "/>
<text text-anchor="middle" x="51" y="-48.5" font-family="Helvetica,sans-Serif" font-size="10.00"> </text>
<polyline fill="none" stroke="black" points="6.5,-41.5 95.5,-41.5 "/>
<text text-anchor="start" x="14.5" y="-29.5" font-family="Helvetica,sans-Serif" font-size="10.00">+ __construct()</text>
<text text-anchor="start" x="14.5" y="-18.5" font-family="Helvetica,sans-Serif" font-size="10.00">+ login()</text>
<text text-anchor="start" x="14.5" y="-7.5" font-family="Helvetica,sans-Serif" font-size="10.00">+ getLogin()</text>
</a>
</g>
</g>
<!-- Node2&#45;&gt;Node3 -->
<g id="edge2" class="edge"><title>Node2&#45;&gt;Node3</title>
<path fill="none" stroke="midnightblue" d="M40.8712,-409.372C30.4724,-338.985 17.5638,-218.532 31,-116 32.5759,-103.975 35.5156,-91.1348 38.6655,-79.5396"/>
<polygon fill="none" stroke="midnightblue" points="37.4293,-410.02 42.3838,-419.385 44.3508,-408.974 37.4293,-410.02"/>
</g>
<!-- Node4 -->
<g id="node4" class="node"><title>Node4</title>
<g id="a_node4"><a xlink:href="classwcmf_1_1lib_1_1security_1_1principal_1_1impl_1_1_default_auth_user.html" target="_top" xlink:title="Default AuthUser implementation. ">
<polygon fill="white" stroke="black" points="40,-116.5 40,-316.5 142,-316.5 142,-116.5 40,-116.5"/>
<text text-anchor="middle" x="91" y="-304.5" font-family="Helvetica,sans-Serif" font-size="10.00">DefaultAuthUser</text>
<polyline fill="none" stroke="black" points="40,-297.5 142,-297.5 "/>
<text text-anchor="middle" x="91" y="-285.5" font-family="Helvetica,sans-Serif" font-size="10.00"> </text>
<polyline fill="none" stroke="black" points="40,-278.5 142,-278.5 "/>
<text text-anchor="start" x="48" y="-266.5" font-family="Helvetica,sans-Serif" font-size="10.00">+ login()</text>
<text text-anchor="start" x="48" y="-255.5" font-family="Helvetica,sans-Serif" font-size="10.00">+ authorize()</text>
<text text-anchor="start" x="48" y="-244.5" font-family="Helvetica,sans-Serif" font-size="10.00">+ setDefaultPolicy()</text>
<text text-anchor="start" x="48" y="-233.5" font-family="Helvetica,sans-Serif" font-size="10.00">+ getDefaultPolicy()</text>
<text text-anchor="start" x="48" y="-222.5" font-family="Helvetica,sans-Serif" font-size="10.00">+ getLoginTime()</text>
<text text-anchor="start" x="48" y="-211.5" font-family="Helvetica,sans-Serif" font-size="10.00">+ getUser()</text>
<text text-anchor="start" x="48" y="-200.5" font-family="Helvetica,sans-Serif" font-size="10.00">+ getUserId()</text>
<text text-anchor="start" x="48" y="-189.5" font-family="Helvetica,sans-Serif" font-size="10.00">+ setLogin()</text>
<text text-anchor="start" x="48" y="-178.5" font-family="Helvetica,sans-Serif" font-size="10.00">+ getLogin()</text>
<text text-anchor="start" x="48" y="-167.5" font-family="Helvetica,sans-Serif" font-size="10.00">+ setPassword()</text>
<text text-anchor="start" x="48" y="-156.5" font-family="Helvetica,sans-Serif" font-size="10.00">and 9 more...</text>
<text text-anchor="start" x="48" y="-145.5" font-family="Helvetica,sans-Serif" font-size="10.00">+ getByLogin()</text>
<text text-anchor="start" x="48" y="-134.5" font-family="Helvetica,sans-Serif" font-size="10.00"># addPolicies()</text>
<text text-anchor="start" x="48" y="-123.5" font-family="Helvetica,sans-Serif" font-size="10.00"># matchRoles()</text>
</a>
</g>
</g>
<!-- Node2&#45;&gt;Node4 -->
<g id="edge3" class="edge"><title>Node2&#45;&gt;Node4</title>
<path fill="none" stroke="midnightblue" d="M60.4823,-409.38C64.8936,-381.644 70.2589,-347.909 75.2533,-316.507"/>
<polygon fill="none" stroke="midnightblue" points="57.017,-408.886 58.9027,-419.312 63.9301,-409.986 57.017,-408.886"/>
</g>
<!-- Node4&#45;&gt;Node3 -->
<g id="edge4" class="edge"><title>Node4&#45;&gt;Node3</title>
<path fill="none" stroke="midnightblue" d="M65.9892,-106.39C63.8403,-97.0158 61.7739,-88.0013 59.8983,-79.8186"/>
<polygon fill="none" stroke="midnightblue" points="62.6079,-107.305 68.2538,-116.27 69.431,-105.741 62.6079,-107.305"/>
</g>
</g>
</svg>
