<?xml version="1.0" encoding="UTF-8" standalone="no"?>
<!DOCTYPE svg PUBLIC "-//W3C//DTD SVG 1.1//EN"
 "http://www.w3.org/Graphics/SVG/1.1/DTD/svg11.dtd">
<!-- Generated by graphviz version 2.38.0 (20140413.2041)
 -->
<!-- Title: NodeSerializer Pages: 1 -->
<svg width="372pt" height="309pt"
 viewBox="0.00 0.00 372.00 309.00" xmlns="http://www.w3.org/2000/svg" xmlns:xlink="http://www.w3.org/1999/xlink">
<g id="graph0" class="graph" transform="scale(1 1) rotate(0) translate(4 305)">
<title>NodeSerializer</title>
<polygon fill="white" stroke="none" points="-4,4 -4,-305 368,-305 368,4 -4,4"/>
<!-- Node1 -->
<g id="node1" class="node"><title>Node1</title>
<polygon fill="#bfbfbf" stroke="black" points="138,-221.5 138,-300.5 242,-300.5 242,-221.5 138,-221.5"/>
<text text-anchor="middle" x="190" y="-288.5" font-family="Helvetica,sans-Serif" font-size="10.00">NodeSerializer</text>
<polyline fill="none" stroke="black" points="138,-281.5 242,-281.5 "/>
<text text-anchor="middle" x="190" y="-269.5" font-family="Helvetica,sans-Serif" font-size="10.00"> </text>
<polyline fill="none" stroke="black" points="138,-262.5 242,-262.5 "/>
<text text-anchor="start" x="146" y="-250.5" font-family="Helvetica,sans-Serif" font-size="10.00">+ isSerializedNode()</text>
<text text-anchor="start" x="146" y="-239.5" font-family="Helvetica,sans-Serif" font-size="10.00">+ deserializeNode()</text>
<text text-anchor="start" x="146" y="-228.5" font-family="Helvetica,sans-Serif" font-size="10.00">+ serializeNode()</text>
</g>
<!-- Node2 -->
<g id="node2" class="node"><title>Node2</title>
<g id="a_node2"><a xlink:href="classwcmf_1_1lib_1_1model_1_1impl_1_1_abstract_node_serializer.html" target="_top" xlink:title="NodeSerializerBase is a base class for NodeSerialize implementations. ">
<polygon fill="white" stroke="black" points="132,-116.5 132,-184.5 248,-184.5 248,-116.5 132,-116.5"/>
<text text-anchor="middle" x="190" y="-172.5" font-family="Helvetica,sans-Serif" font-size="10.00">AbstractNodeSerializer</text>
<polyline fill="none" stroke="black" points="132,-165.5 248,-165.5 "/>
<text text-anchor="middle" x="190" y="-153.5" font-family="Helvetica,sans-Serif" font-size="10.00"> </text>
<polyline fill="none" stroke="black" points="132,-146.5 248,-146.5 "/>
<text text-anchor="start" x="140" y="-134.5" font-family="Helvetica,sans-Serif" font-size="10.00"># deserializeValue()</text>
<text text-anchor="start" x="140" y="-123.5" font-family="Helvetica,sans-Serif" font-size="10.00"># isMultiValued()</text>
</a>
</g>
</g>
<!-- Node1&#45;&gt;Node2 -->
<g id="edge1" class="edge"><title>Node1&#45;&gt;Node2</title>
<path fill="none" stroke="midnightblue" d="M190,-211.349C190,-202.282 190,-193.005 190,-184.544"/>
<polygon fill="none" stroke="midnightblue" points="186.5,-211.441 190,-221.441 193.5,-211.441 186.5,-211.441"/>
</g>
<!-- Node3 -->
<g id="node3" class="node"><title>Node3</title>
<g id="a_node3"><a xlink:href="classwcmf_1_1lib_1_1model_1_1impl_1_1_dionysos_node_serializer.html" target="_top" xlink:title="DionysosNodeSerializer is used to serialize Nodes into the Dionysos format and vice versa...">
<polygon fill="white" stroke="black" points="0,-0.5 0,-79.5 120,-79.5 120,-0.5 0,-0.5"/>
<text text-anchor="middle" x="60" y="-67.5" font-family="Helvetica,sans-Serif" font-size="10.00">DionysosNodeSerializer</text>
<polyline fill="none" stroke="black" points="0,-60.5 120,-60.5 "/>
<text text-anchor="middle" x="60" y="-48.5" font-family="Helvetica,sans-Serif" font-size="10.00"> </text>
<polyline fill="none" stroke="black" points="0,-41.5 120,-41.5 "/>
<text text-anchor="start" x="8" y="-29.5" font-family="Helvetica,sans-Serif" font-size="10.00">+ isSerializedNode()</text>
<text text-anchor="start" x="8" y="-18.5" font-family="Helvetica,sans-Serif" font-size="10.00">+ deserializeNode()</text>
<text text-anchor="start" x="8" y="-7.5" font-family="Helvetica,sans-Serif" font-size="10.00">+ serializeNode()</text>
</a>
</g>
</g>
<!-- Node2&#45;&gt;Node3 -->
<g id="edge2" class="edge"><title>Node2&#45;&gt;Node3</title>
<path fill="none" stroke="midnightblue" d="M142.305,-109.693C130.555,-99.8865 117.991,-89.4004 106.308,-79.6493"/>
<polygon fill="none" stroke="midnightblue" points="140.369,-112.636 150.289,-116.357 144.855,-107.262 140.369,-112.636"/>
</g>
<!-- Node4 -->
<g id="node4" class="node"><title>Node4</title>
<g id="a_node4"><a xlink:href="classwcmf_1_1lib_1_1model_1_1impl_1_1_dojo_node_serializer.html" target="_top" xlink:title="DojoNodeSerializer is used to serialize Nodes into the Dojo rest format and vice versa. ">
<polygon fill="white" stroke="black" points="138,-0.5 138,-79.5 242,-79.5 242,-0.5 138,-0.5"/>
<text text-anchor="middle" x="190" y="-67.5" font-family="Helvetica,sans-Serif" font-size="10.00">DojoNodeSerializer</text>
<polyline fill="none" stroke="black" points="138,-60.5 242,-60.5 "/>
<text text-anchor="middle" x="190" y="-48.5" font-family="Helvetica,sans-Serif" font-size="10.00"> </text>
<polyline fill="none" stroke="black" points="138,-41.5 242,-41.5 "/>
<text text-anchor="start" x="146" y="-29.5" font-family="Helvetica,sans-Serif" font-size="10.00">+ isSerializedNode()</text>
<text text-anchor="start" x="146" y="-18.5" font-family="Helvetica,sans-Serif" font-size="10.00">+ deserializeNode()</text>
<text text-anchor="start" x="146" y="-7.5" font-family="Helvetica,sans-Serif" font-size="10.00">+ serializeNode()</text>
</a>
</g>
</g>
<!-- Node2&#45;&gt;Node4 -->
<g id="edge3" class="edge"><title>Node2&#45;&gt;Node4</title>
<path fill="none" stroke="midnightblue" d="M190,-106.274C190,-97.4764 190,-88.2753 190,-79.6493"/>
<polygon fill="none" stroke="midnightblue" points="186.5,-106.357 190,-116.357 193.5,-106.357 186.5,-106.357"/>
</g>
<!-- Node5 -->
<g id="node5" class="node"><title>Node5</title>
<g id="a_node5"><a xlink:href="classwcmf_1_1lib_1_1model_1_1impl_1_1_soap_node_serializer.html" target="_top" xlink:title="SoapNodeSerializer is used to serialize Nodes into the soap format and vice versa. ">
<polygon fill="white" stroke="black" points="260,-0.5 260,-79.5 364,-79.5 364,-0.5 260,-0.5"/>
<text text-anchor="middle" x="312" y="-67.5" font-family="Helvetica,sans-Serif" font-size="10.00">SoapNodeSerializer</text>
<polyline fill="none" stroke="black" points="260,-60.5 364,-60.5 "/>
<text text-anchor="middle" x="312" y="-48.5" font-family="Helvetica,sans-Serif" font-size="10.00"> </text>
<polyline fill="none" stroke="black" points="260,-41.5 364,-41.5 "/>
<text text-anchor="start" x="268" y="-29.5" font-family="Helvetica,sans-Serif" font-size="10.00">+ isSerializedNode()</text>
<text text-anchor="start" x="268" y="-18.5" font-family="Helvetica,sans-Serif" font-size="10.00">+ deserializeNode()</text>
<text text-anchor="start" x="268" y="-7.5" font-family="Helvetica,sans-Serif" font-size="10.00">+ serializeNode()</text>
</a>
</g>
</g>
<!-- Node2&#45;&gt;Node5 -->
<g id="edge4" class="edge"><title>Node2&#45;&gt;Node5</title>
<path fill="none" stroke="midnightblue" d="M234.76,-109.693C245.787,-99.8865 257.577,-89.4004 268.542,-79.6493"/>
<polygon fill="none" stroke="midnightblue" points="232.413,-107.096 227.267,-116.357 237.065,-112.327 232.413,-107.096"/>
</g>
</g>
</svg>
