<?xml version="1.0" encoding="UTF-8" standalone="no"?>
<!DOCTYPE svg PUBLIC "-//W3C//DTD SVG 1.1//EN"
 "http://www.w3.org/Graphics/SVG/1.1/DTD/svg11.dtd">
<!-- Generated by graphviz version 2.38.0 (20140413.2041)
 -->
<!-- Title: AuthenticationManager Pages: 1 -->
<svg width="154pt" height="160pt"
 viewBox="0.00 0.00 154.00 160.00" xmlns="http://www.w3.org/2000/svg" xmlns:xlink="http://www.w3.org/1999/xlink">
<g id="graph0" class="graph" transform="scale(1 1) rotate(0) translate(4 156)">
<title>AuthenticationManager</title>
<polygon fill="white" stroke="none" points="-4,4 -4,-156 150,-156 150,4 -4,4"/>
<!-- Node1 -->
<g id="node1" class="node"><title>Node1</title>
<polygon fill="#bfbfbf" stroke="black" points="15,-94.5 15,-151.5 131,-151.5 131,-94.5 15,-94.5"/>
<text text-anchor="middle" x="73" y="-139.5" font-family="Helvetica,sans-Serif" font-size="10.00">AuthenticationManager</text>
<polyline fill="none" stroke="black" points="15,-132.5 131,-132.5 "/>
<text text-anchor="middle" x="73" y="-120.5" font-family="Helvetica,sans-Serif" font-size="10.00"> </text>
<polyline fill="none" stroke="black" points="15,-113.5 131,-113.5 "/>
<text text-anchor="start" x="23" y="-101.5" font-family="Helvetica,sans-Serif" font-size="10.00">+ login()</text>
</g>
<!-- Node2 -->
<g id="node2" class="node"><title>Node2</title>
<g id="a_node2"><a xlink:href="classwcmf_1_1lib_1_1security_1_1impl_1_1_default_authentication_manager.html" target="_top" xlink:title="DefaultAuthenticationManager uses PrincipalFactory to get a User instance that matches the given logi...">
<polygon fill="white" stroke="black" points="0,-0.5 0,-57.5 146,-57.5 146,-0.5 0,-0.5"/>
<text text-anchor="middle" x="73" y="-45.5" font-family="Helvetica,sans-Serif" font-size="10.00">DefaultAuthenticationManager</text>
<polyline fill="none" stroke="black" points="0,-38.5 146,-38.5 "/>
<text text-anchor="middle" x="73" y="-26.5" font-family="Helvetica,sans-Serif" font-size="10.00"> </text>
<polyline fill="none" stroke="black" points="0,-19.5 146,-19.5 "/>
<text text-anchor="start" x="8" y="-7.5" font-family="Helvetica,sans-Serif" font-size="10.00">+ login()</text>
</a>
</g>
</g>
<!-- Node1&#45;&gt;Node2 -->
<g id="edge1" class="edge"><title>Node1&#45;&gt;Node2</title>
<path fill="none" stroke="midnightblue" d="M73,-84.2092C73,-75.2929 73,-65.9513 73,-57.5836"/>
<polygon fill="none" stroke="midnightblue" points="69.5001,-84.3969 73,-94.397 76.5001,-84.397 69.5001,-84.3969"/>
</g>
</g>
</svg>
