<?xml version="1.0" encoding="UTF-8" standalone="no"?>
<!DOCTYPE svg PUBLIC "-//W3C//DTD SVG 1.1//EN"
 "http://www.w3.org/Graphics/SVG/1.1/DTD/svg11.dtd">
<!-- Generated by graphviz version 2.38.0 (20140413.2041)
 -->
<!-- Title: ActionKeyProvider Pages: 1 -->
<svg width="298pt" height="226pt"
 viewBox="0.00 0.00 297.50 226.00" xmlns="http://www.w3.org/2000/svg" xmlns:xlink="http://www.w3.org/1999/xlink">
<g id="graph0" class="graph" transform="scale(1 1) rotate(0) translate(4 222)">
<title>ActionKeyProvider</title>
<polygon fill="white" stroke="none" points="-4,4 -4,-222 293.5,-222 293.5,4 -4,4"/>
<!-- Node1 -->
<g id="node1" class="node"><title>Node1</title>
<polygon fill="#bfbfbf" stroke="black" points="90.5,-138.5 90.5,-217.5 186.5,-217.5 186.5,-138.5 90.5,-138.5"/>
<text text-anchor="middle" x="138.5" y="-205.5" font-family="Helvetica,sans-Serif" font-size="10.00">ActionKeyProvider</text>
<polyline fill="none" stroke="black" points="90.5,-198.5 186.5,-198.5 "/>
<text text-anchor="middle" x="138.5" y="-186.5" font-family="Helvetica,sans-Serif" font-size="10.00"> </text>
<polyline fill="none" stroke="black" points="90.5,-179.5 186.5,-179.5 "/>
<text text-anchor="start" x="98.5" y="-167.5" font-family="Helvetica,sans-Serif" font-size="10.00">+ containsKey()</text>
<text text-anchor="start" x="98.5" y="-156.5" font-family="Helvetica,sans-Serif" font-size="10.00">+ getKeyValue()</text>
<text text-anchor="start" x="98.5" y="-145.5" font-family="Helvetica,sans-Serif" font-size="10.00">+ getCacheId()</text>
</g>
<!-- Node2 -->
<g id="node2" class="node"><title>Node2</title>
<g id="a_node2"><a xlink:href="classwcmf_1_1lib_1_1config_1_1impl_1_1_config_action_key_provider.html" target="_top" xlink:title="ConfigActionKeyProvider searches for action keys in the application configuration. ">
<polygon fill="white" stroke="black" points="0,-6 0,-96 123,-96 123,-6 0,-6"/>
<text text-anchor="middle" x="61.5" y="-84" font-family="Helvetica,sans-Serif" font-size="10.00">ConfigActionKeyProvider</text>
<polyline fill="none" stroke="black" points="0,-77 123,-77 "/>
<text text-anchor="middle" x="61.5" y="-65" font-family="Helvetica,sans-Serif" font-size="10.00"> </text>
<polyline fill="none" stroke="black" points="0,-58 123,-58 "/>
<text text-anchor="start" x="8" y="-46" font-family="Helvetica,sans-Serif" font-size="10.00">+ setConfigSection()</text>
<text text-anchor="start" x="8" y="-35" font-family="Helvetica,sans-Serif" font-size="10.00">+ containsKey()</text>
<text text-anchor="start" x="8" y="-24" font-family="Helvetica,sans-Serif" font-size="10.00">+ getKeyValue()</text>
<text text-anchor="start" x="8" y="-13" font-family="Helvetica,sans-Serif" font-size="10.00">+ getCacheId()</text>
</a>
</g>
</g>
<!-- Node1&#45;&gt;Node2 -->
<g id="edge1" class="edge"><title>Node1&#45;&gt;Node2</title>
<path fill="none" stroke="midnightblue" d="M109.444,-129.831C102.672,-118.837 95.4834,-107.168 88.7904,-96.3026"/>
<polygon fill="none" stroke="midnightblue" points="106.544,-131.797 114.769,-138.476 112.504,-128.126 106.544,-131.797"/>
</g>
<!-- Node3 -->
<g id="node3" class="node"><title>Node3</title>
<g id="a_node3"><a xlink:href="classwcmf_1_1lib_1_1config_1_1impl_1_1_persistence_action_key_provider.html" target="_top" xlink:title="PersistenceActionKeyProvider searches for action keys in the application storage. ...">
<polygon fill="white" stroke="black" points="141.5,-0.5 141.5,-101.5 289.5,-101.5 289.5,-0.5 141.5,-0.5"/>
<text text-anchor="middle" x="215.5" y="-89.5" font-family="Helvetica,sans-Serif" font-size="10.00">PersistenceActionKeyProvider</text>
<polyline fill="none" stroke="black" points="141.5,-82.5 289.5,-82.5 "/>
<text text-anchor="middle" x="215.5" y="-70.5" font-family="Helvetica,sans-Serif" font-size="10.00"> </text>
<polyline fill="none" stroke="black" points="141.5,-63.5 289.5,-63.5 "/>
<text text-anchor="start" x="149.5" y="-51.5" font-family="Helvetica,sans-Serif" font-size="10.00">+ setEntityType()</text>
<text text-anchor="start" x="149.5" y="-40.5" font-family="Helvetica,sans-Serif" font-size="10.00">+ setValueMap()</text>
<text text-anchor="start" x="149.5" y="-29.5" font-family="Helvetica,sans-Serif" font-size="10.00">+ containsKey()</text>
<text text-anchor="start" x="149.5" y="-18.5" font-family="Helvetica,sans-Serif" font-size="10.00">+ getKeyValue()</text>
<text text-anchor="start" x="149.5" y="-7.5" font-family="Helvetica,sans-Serif" font-size="10.00">+ getCacheId()</text>
</a>
</g>
</g>
<!-- Node1&#45;&gt;Node3 -->
<g id="edge2" class="edge"><title>Node1&#45;&gt;Node3</title>
<path fill="none" stroke="midnightblue" d="M167.556,-129.831C173.221,-120.635 179.177,-110.966 184.89,-101.691"/>
<polygon fill="none" stroke="midnightblue" points="164.496,-128.126 162.231,-138.476 170.456,-131.797 164.496,-128.126"/>
</g>
</g>
</svg>
